<?xml version="1.0" encoding="UTF-8" ?>
<!DOCTYPE svg PUBLIC "-//W3C//DTD SVG 1.1//EN" "http://www.w3.org/Graphics/SVG/1.1/DTD/svg11.dtd">
<svg width="64pt" height="64pt" viewBox="0 0 64 64" version="1.1" xmlns="http://www.w3.org/2000/svg">
<g id="#010101de">
<path fill="#010101" opacity="0.87" d=" M 23.09 15.09 C 24.80 13.87 27.68 14.11 28.42 16.31 C 30.53 20.78 24.91 23.31 22.01 25.48 C 22.80 29.03 25.84 30.77 29.20 31.39 C 30.12 29.90 30.93 28.30 32.16 27.03 C 36.87 25.64 41.92 27.06 46.67 25.77 C 48.77 25.48 52.01 24.18 53.11 26.82 C 54.05 29.89 53.96 33.33 55.83 36.06 C 57.28 38.31 60.22 38.99 61.74 41.15 C 62.41 43.14 62.36 45.50 61.42 47.40 C 59.39 49.88 55.86 49.60 52.98 49.66 C 39.36 49.45 25.71 50.13 12.10 49.22 C 7.80 48.94 2.36 46.84 1.89 41.91 C 4.54 30.33 13.33 21.29 23.09 15.09 M 12.88 26.83 C 9.17 30.20 6.93 34.80 5.18 39.42 C 21.97 39.70 38.78 39.18 55.57 39.71 C 54.16 37.92 53.00 35.94 51.91 33.94 C 45.23 33.91 38.55 33.99 31.88 33.93 C 28.35 33.99 25.09 32.54 21.96 31.11 C 21.12 29.05 19.47 27.13 19.70 24.78 C 21.08 22.65 23.45 21.53 25.49 20.15 C 25.91 18.95 26.30 17.74 26.67 16.52 C 20.93 18.02 17.03 22.92 12.88 26.83 M 36.03 28.71 C 34.02 28.33 33.16 30.36 32.05 31.59 C 38.56 31.81 45.09 31.81 51.61 31.65 C 51.41 30.18 51.16 28.72 50.87 27.27 C 46.08 28.98 41.03 28.82 36.03 28.71 M 4.23 41.75 C 5.59 46.39 11.11 46.94 15.17 47.13 C 28.44 47.52 41.72 47.15 55.00 47.30 C 56.67 47.46 58.19 46.71 59.71 46.13 C 59.68 44.68 59.65 43.24 59.61 41.79 C 41.16 41.57 22.69 41.64 4.23 41.75 Z" />
</g>
<g id="#fdfcfdff">
<path fill="#fdfcfd" opacity="1.00" d=" M 12.88 26.83 C 17.03 22.92 20.93 18.02 26.67 16.52 C 26.30 17.74 25.91 18.95 25.49 20.15 C 23.45 21.53 21.08 22.65 19.70 24.78 C 19.47 27.13 21.12 29.05 21.96 31.11 C 25.09 32.54 28.35 33.99 31.88 33.93 C 38.55 33.99 45.23 33.91 51.91 33.94 C 53.00 35.94 54.16 37.92 55.57 39.71 C 38.78 39.18 21.97 39.70 5.18 39.42 C 6.93 34.80 9.17 30.20 12.88 26.83 Z" />
<path fill="#fdfcfd" opacity="1.00" d=" M 36.03 28.71 C 41.03 28.82 46.08 28.98 50.87 27.27 C 51.16 28.72 51.41 30.18 51.61 31.65 C 45.09 31.81 38.56 31.81 32.05 31.59 C 33.16 30.36 34.02 28.33 36.03 28.71 Z" />
<path fill="#fdfcfd" opacity="1.00" d=" M 4.23 41.75 C 22.69 41.64 41.16 41.57 59.61 41.79 C 59.65 43.24 59.68 44.68 59.71 46.13 C 58.19 46.71 56.67 47.46 55.00 47.30 C 41.72 47.15 28.44 47.52 15.17 47.13 C 11.11 46.94 5.59 46.39 4.23 41.75 Z" />
</g>
</svg>
