<?xml version="1.0" encoding="UTF-8" ?>
<!DOCTYPE svg PUBLIC "-//W3C//DTD SVG 1.1//EN" "http://www.w3.org/Graphics/SVG/1.1/DTD/svg11.dtd">
<svg width="64pt" height="64pt" viewBox="0 0 64 64" version="1.1" xmlns="http://www.w3.org/2000/svg">
<g id="#0a0504e7">
<path fill="#0a0504" opacity="0.91" d=" M 22.36 7.45 C 26.22 0.62 38.23 1.63 40.76 9.13 C 42.82 13.44 41.13 18.51 37.84 21.69 C 37.77 25.22 38.02 29.01 36.12 32.15 C 34.13 35.89 29.95 37.68 27.62 41.13 C 26.14 44.18 28.98 46.55 31.26 48.01 C 32.87 47.46 34.50 46.93 36.14 46.47 C 38.36 42.63 39.12 37.67 43.00 35.02 C 44.68 33.85 47.60 33.21 48.91 35.24 C 49.86 36.71 49.24 38.43 48.85 39.96 C 47.62 44.08 47.70 48.66 45.18 52.31 C 42.93 55.54 40.29 59.06 36.28 60.09 C 31.04 61.70 25.24 60.18 20.76 57.22 C 13.96 52.38 12.51 42.00 17.08 35.17 C 18.79 32.23 21.50 30.14 24.03 27.97 C 25.88 26.82 25.42 24.45 25.77 22.62 C 20.91 19.42 18.98 12.39 22.36 7.45 M 22.89 14.96 C 23.47 17.62 25.43 19.61 27.71 20.95 C 27.63 23.09 27.48 25.23 27.53 27.38 C 24.23 31.44 19.24 34.19 17.35 39.31 C 14.32 46.88 19.59 55.88 27.28 57.87 C 32.14 59.55 38.04 58.35 41.15 54.05 C 45.74 49.36 45.90 42.52 47.32 36.52 C 45.77 35.68 43.91 36.60 42.98 37.91 C 40.14 41.06 39.97 45.90 36.60 48.65 C 32.85 51.66 26.15 49.88 25.41 44.81 C 23.95 39.27 29.92 36.58 32.84 33.03 L 31.68 32.59 L 33.18 33.06 C 36.07 29.54 35.65 24.87 35.74 20.61 C 37.18 18.89 38.94 17.21 39.34 14.89 C 40.47 9.98 36.06 4.73 31.04 4.90 C 26.01 4.69 21.84 10.14 22.89 14.96 Z" />
</g>
<g id="#d2674cff">
<path fill="#d2674c" opacity="1.00" d=" M 22.89 14.96 C 21.84 10.14 26.01 4.69 31.04 4.90 C 36.06 4.73 40.47 9.98 39.34 14.89 C 38.94 17.21 37.18 18.89 35.74 20.61 C 35.65 24.87 36.07 29.54 33.18 33.06 L 31.68 32.59 C 29.04 32.11 27.45 30.03 27.53 27.38 C 27.48 25.23 27.63 23.09 27.71 20.95 C 25.43 19.61 23.47 17.62 22.89 14.96 Z" />
</g>
<g id="#b44f27ff">
<path fill="#b44f27" opacity="1.00" d=" M 17.35 39.31 C 19.24 34.19 24.23 31.44 27.53 27.38 C 27.45 30.03 29.04 32.11 31.68 32.59 L 32.84 33.03 C 29.92 36.58 23.95 39.27 25.41 44.81 C 26.15 49.88 32.85 51.66 36.60 48.65 C 39.97 45.90 40.14 41.06 42.98 37.91 C 43.91 36.60 45.77 35.68 47.32 36.52 C 45.90 42.52 45.74 49.36 41.15 54.05 C 38.04 58.35 32.14 59.55 27.28 57.87 C 19.59 55.88 14.32 46.88 17.35 39.31 Z" />
</g>
</svg>
