<?xml version="1.0" encoding="UTF-8" ?>
<!DOCTYPE svg PUBLIC "-//W3C//DTD SVG 1.1//EN" "http://www.w3.org/Graphics/SVG/1.1/DTD/svg11.dtd">
<svg width="64pt" height="64pt" viewBox="0 0 64 64" version="1.1" xmlns="http://www.w3.org/2000/svg">
<g id="#020202fd">
<path fill="#020202" opacity="1.00" d=" M 14.30 9.29 C 25.84 8.70 37.41 9.04 48.96 9.05 C 54.26 10.17 55.64 16.01 55.31 20.72 C 54.50 25.71 58.34 28.70 60.87 32.23 C 60.93 34.83 60.98 37.42 61.03 40.01 C 62.51 44.53 53.91 43.07 58.02 49.02 C 58.15 52.50 55.69 57.55 50.99 55.04 C 47.82 55.82 44.24 53.55 45.01 50.02 C 44.98 48.53 44.94 45.56 44.91 44.07 C 36.30 43.92 27.69 43.88 19.08 44.06 C 19.05 45.55 18.99 48.53 18.96 50.02 C 19.07 55.70 12.32 55.44 8.16 54.90 C 5.37 52.00 6.36 47.83 5.84 44.18 C 4.09 43.31 2.37 42.31 2.97 40.02 C 2.99 37.42 3.04 34.83 3.11 32.24 C 5.31 28.79 9.60 26.19 8.45 21.35 C 8.19 16.81 9.31 10.85 14.30 9.29 M 15.01 11.02 L 14.99 11.99 C 13.72 11.74 12.83 12.17 12.31 13.28 C 11.01 16.71 10.54 20.37 10.10 23.99 C 12.67 29.32 6.57 29.82 5.06 33.10 C 5.13 36.32 3.26 42.33 8.05 42.10 C 8.75 44.45 5.73 51.13 9.00 50.96 C 9.57 54.94 16.51 53.44 16.92 49.95 C 17.06 47.32 17.12 44.68 17.08 42.04 C 27.02 41.95 36.97 41.95 46.91 42.04 C 47.09 44.94 47.01 47.84 47.21 50.74 C 48.63 53.59 54.46 54.65 54.99 50.96 C 57.50 50.19 55.12 44.33 55.97 42.09 C 59.03 42.55 59.36 39.24 59.01 37.02 C 61.07 32.39 56.57 31.10 54.22 28.75 C 53.20 24.19 53.23 19.45 52.18 14.91 C 51.89 13.79 51.52 11.80 49.97 12.01 L 50.01 11.03 C 38.34 10.96 26.68 10.97 15.01 11.02 Z" />
<path fill="#020202" opacity="1.00" d=" M 15.20 16.02 C 26.11 15.99 37.03 15.99 47.94 16.01 C 50.48 17.36 48.79 23.46 50.02 25.96 C 49.52 25.97 48.51 26.00 48.00 26.02 C 37.33 25.98 26.67 25.99 16.00 26.02 C 10.97 26.68 15.49 18.87 15.20 16.02 Z" />
</g>
<g id="#c7c7c7ff">
<path fill="#c7c7c7" opacity="1.00" d=" M 15.01 11.02 C 26.68 10.97 38.34 10.96 50.01 11.03 L 49.97 12.01 C 38.31 11.97 26.65 12.02 14.99 11.99 L 15.01 11.02 Z" />
<path fill="#c7c7c7" opacity="1.00" d=" M 16.00 27.00 C 26.66 27.00 37.33 27.00 47.99 27.00 L 48.00 27.98 C 37.34 28.00 26.67 28.09 16.02 27.96 L 16.00 27.00 Z" />
<path fill="#c7c7c7" opacity="1.00" d=" M 9.03 42.16 C 13.51 41.63 17.31 38.52 22.00 39.07 C 30.19 38.97 38.43 38.57 46.59 39.50 C 49.35 40.50 52.05 41.71 54.97 42.16 C 54.98 45.09 55.01 48.03 54.99 50.96 C 54.46 54.65 48.63 53.59 47.21 50.74 C 47.01 47.84 47.09 44.94 46.91 42.04 C 36.97 41.95 27.02 41.95 17.08 42.04 C 17.12 44.68 17.06 47.32 16.92 49.95 C 16.51 53.44 9.57 54.94 9.00 50.96 C 9.00 48.02 9.00 45.10 9.03 42.16 Z" />
</g>
<g id="#e2e1e2ff">
<path fill="#e2e1e2" opacity="1.00" d=" M 12.31 13.28 C 12.83 12.17 13.72 11.74 14.99 11.99 C 26.65 12.02 38.31 11.97 49.97 12.01 C 51.52 11.80 51.89 13.79 52.18 14.91 C 53.23 19.45 53.20 24.19 54.22 28.75 C 56.57 31.10 61.07 32.39 59.01 37.02 C 59.36 39.24 59.03 42.55 55.97 42.09 L 54.97 42.16 C 52.05 41.71 49.35 40.50 46.59 39.50 C 38.43 38.57 30.19 38.97 22.00 39.07 C 17.31 38.52 13.51 41.63 9.03 42.16 L 8.05 42.10 C 3.26 42.33 5.13 36.32 5.06 33.10 C 6.57 29.82 12.67 29.32 10.10 23.99 C 10.54 20.37 11.01 16.71 12.31 13.28 M 17.00 14.02 L 17.00 14.99 C 16.49 15.01 15.47 15.04 14.97 15.05 L 15.20 16.02 C 15.49 18.87 10.97 26.68 16.00 26.02 L 16.00 27.00 L 16.02 27.96 C 26.67 28.09 37.34 28.00 48.00 27.98 L 47.99 27.00 L 48.00 26.02 C 48.51 26.00 49.52 25.97 50.02 25.96 C 48.79 23.46 50.48 17.36 47.94 16.01 L 48.00 15.02 L 47.00 15.00 L 46.99 14.02 C 37.00 13.96 27.00 13.96 17.00 14.02 Z" />
</g>
<g id="#5d5d5dff">
<path fill="#5d5d5d" opacity="1.00" d=" M 17.00 14.02 C 27.00 13.96 37.00 13.96 46.99 14.02 L 47.00 15.00 C 37.00 14.99 27.00 15.02 17.00 14.99 L 17.00 14.02 Z" />
</g>
<g id="#141314ff">
<path fill="#141314" opacity="1.00" d=" M 14.97 15.05 C 15.47 15.04 16.49 15.01 17.00 14.99 C 27.00 15.02 37.00 14.99 47.00 15.00 L 48.00 15.02 L 47.94 16.01 C 37.03 15.99 26.11 15.99 15.20 16.02 L 14.97 15.05 Z" />
</g>
<g id="#949194ff">
<path fill="#949194" opacity="1.00" d=" M 16.00 26.02 C 26.67 25.99 37.33 25.98 48.00 26.02 L 47.99 27.00 C 37.33 27.00 26.66 27.00 16.00 27.00 L 16.00 26.02 Z" />
<path fill="#949194" opacity="1.00" d=" M 8.05 42.10 L 9.03 42.16 C 9.00 45.10 9.00 48.02 9.00 50.96 C 5.73 51.13 8.75 44.45 8.05 42.10 Z" />
<path fill="#949194" opacity="1.00" d=" M 54.97 42.16 L 55.97 42.09 C 55.12 44.33 57.50 50.19 54.99 50.96 C 55.01 48.03 54.98 45.09 54.97 42.16 Z" />
</g>
<g id="#00000041">
<path fill="#000000" opacity="0.25" d=" M 2.11 31.96 L 3.11 32.24 C 3.04 34.83 2.99 37.42 2.97 40.02 C 0.78 39.07 2.46 34.38 2.11 31.96 Z" />
<path fill="#000000" opacity="0.25" d=" M 60.87 32.23 L 61.89 31.96 C 61.54 34.38 63.23 39.08 61.03 40.01 C 60.98 37.42 60.93 34.83 60.87 32.23 Z" />
<path fill="#000000" opacity="0.25" d=" M 19.08 44.06 C 27.69 43.88 36.30 43.92 44.91 44.07 C 44.94 45.56 44.98 48.53 45.01 50.02 L 44.08 49.97 L 43.87 45.05 C 35.95 45.03 28.02 44.79 20.11 45.07 L 19.90 49.97 L 18.96 50.02 C 18.99 48.53 19.05 45.55 19.08 44.06 Z" />
</g>
</svg>
