<?xml version="1.0" encoding="UTF-8" ?>
<!DOCTYPE svg PUBLIC "-//W3C//DTD SVG 1.1//EN" "http://www.w3.org/Graphics/SVG/1.1/DTD/svg11.dtd">
<svg width="64pt" height="64pt" viewBox="0 0 64 64" version="1.1" xmlns="http://www.w3.org/2000/svg">
<g id="#010101ff">
<path fill="#010101" opacity="1.00" d=" M 5.06 12.35 C 20.00 11.49 35.00 12.19 49.96 11.93 C 53.18 11.83 56.43 11.90 59.60 12.56 C 59.18 14.19 58.76 15.82 58.32 17.44 C 59.50 18.10 62.05 17.86 61.87 19.79 C 61.98 28.37 62.31 37.00 61.63 45.55 C 60.41 45.62 59.20 45.69 57.98 45.77 C 58.59 47.63 59.16 49.51 59.65 51.41 C 58.19 52.02 56.68 52.66 55.06 52.53 C 40.04 52.49 25.02 52.48 10.00 52.53 C 8.47 52.43 6.72 52.71 5.43 51.70 C 4.24 49.68 5.98 47.65 6.52 45.72 C 5.61 45.71 3.78 45.68 2.87 45.67 C 1.96 36.68 2.68 27.61 2.47 18.59 C 3.66 18.23 4.85 17.87 6.05 17.51 C 5.40 15.86 5.04 14.13 5.06 12.35 M 7.24 14.31 C 8.21 16.22 9.18 18.13 10.18 20.02 C 8.36 19.97 6.54 19.94 4.72 19.92 C 4.69 27.79 4.77 35.65 4.69 43.52 C 6.59 43.50 8.48 43.51 10.38 43.50 C 9.24 45.71 8.24 47.99 7.26 50.28 C 23.88 50.34 40.51 50.38 57.14 50.25 C 56.14 48.00 55.10 45.76 54.00 43.56 C 55.92 43.52 57.84 43.48 59.76 43.44 C 59.70 35.67 59.67 27.89 59.76 20.12 C 57.88 20.00 56.01 19.95 54.13 19.86 C 55.24 18.06 56.16 16.17 57.07 14.27 C 40.46 14.37 23.85 14.30 7.24 14.31 Z" />
<path fill="#010101" opacity="1.00" d=" M 10.47 24.60 C 12.78 25.42 14.15 27.39 14.90 29.65 C 15.60 29.58 16.99 29.43 17.68 29.36 C 17.69 27.80 17.71 26.24 17.74 24.69 C 18.52 24.68 20.09 24.66 20.87 24.66 C 20.96 26.35 21.06 28.04 21.17 29.73 C 23.31 29.72 25.70 29.79 26.89 27.64 C 30.07 23.42 36.71 25.20 38.89 29.55 C 40.30 29.57 41.72 29.59 43.13 29.61 C 43.21 27.90 43.33 26.18 43.39 24.46 C 47.05 23.64 46.30 27.18 46.37 29.51 C 47.08 29.50 48.49 29.47 49.20 29.46 C 50.29 27.51 51.17 25.30 53.51 24.56 C 53.63 29.69 53.69 34.82 53.47 39.94 C 51.25 38.96 50.13 36.92 49.49 34.70 C 48.46 34.69 47.44 34.64 46.42 34.57 C 46.33 36.29 46.35 38.03 46.00 39.72 C 42.39 40.55 43.38 36.95 43.18 34.68 C 41.83 34.68 40.47 34.69 39.12 34.69 C 37.36 37.00 35.11 39.42 31.91 39.08 C 28.77 39.45 27.05 36.36 24.82 34.80 C 23.58 34.69 22.34 34.62 21.10 34.59 C 21.03 36.17 20.96 37.76 20.90 39.35 C 20.11 39.35 18.53 39.35 17.73 39.36 C 17.69 37.69 17.61 36.02 17.58 34.35 C 13.71 34.01 13.89 38.97 10.59 40.01 C 10.24 34.88 10.40 29.73 10.47 24.60 Z" />
</g>
<g id="#fefefeff">
<path fill="#fefefe" opacity="1.00" d=" M 7.24 14.31 C 23.85 14.30 40.46 14.37 57.07 14.27 C 56.16 16.17 55.24 18.06 54.13 19.86 C 56.01 19.95 57.88 20.00 59.76 20.12 C 59.67 27.89 59.70 35.67 59.76 43.44 C 57.84 43.48 55.92 43.52 54.00 43.56 C 55.10 45.76 56.14 48.00 57.14 50.25 C 40.51 50.38 23.88 50.34 7.26 50.28 C 8.24 47.99 9.24 45.71 10.38 43.50 C 8.48 43.51 6.59 43.50 4.69 43.52 C 4.77 35.65 4.69 27.79 4.72 19.92 C 6.54 19.94 8.36 19.97 10.18 20.02 C 9.18 18.13 8.21 16.22 7.24 14.31 M 10.47 24.60 C 10.40 29.73 10.24 34.88 10.59 40.01 C 13.89 38.97 13.71 34.01 17.58 34.35 C 17.61 36.02 17.69 37.69 17.73 39.36 C 18.53 39.35 20.11 39.35 20.90 39.35 C 20.96 37.76 21.03 36.17 21.10 34.59 C 22.34 34.62 23.58 34.69 24.82 34.80 C 27.05 36.36 28.77 39.45 31.91 39.08 C 35.11 39.42 37.36 37.00 39.12 34.69 C 40.47 34.69 41.83 34.68 43.18 34.68 C 43.38 36.95 42.39 40.55 46.00 39.72 C 46.35 38.03 46.33 36.29 46.42 34.57 C 47.44 34.64 48.46 34.69 49.49 34.70 C 50.13 36.92 51.25 38.96 53.47 39.94 C 53.69 34.82 53.63 29.69 53.51 24.56 C 51.17 25.30 50.29 27.51 49.20 29.46 C 48.49 29.47 47.08 29.50 46.37 29.51 C 46.30 27.18 47.05 23.64 43.39 24.46 C 43.33 26.18 43.21 27.90 43.13 29.61 C 41.72 29.59 40.30 29.57 38.89 29.55 C 36.71 25.20 30.07 23.42 26.89 27.64 C 25.70 29.79 23.31 29.72 21.17 29.73 C 21.06 28.04 20.96 26.35 20.87 24.66 C 20.09 24.66 18.52 24.68 17.74 24.69 C 17.71 26.24 17.69 27.80 17.68 29.36 C 16.99 29.43 15.60 29.58 14.90 29.65 C 14.15 27.39 12.78 25.42 10.47 24.60 Z" />
</g>
</svg>
