<?xml version="1.0" encoding="UTF-8" ?>
<!DOCTYPE svg PUBLIC "-//W3C//DTD SVG 1.1//EN" "http://www.w3.org/Graphics/SVG/1.1/DTD/svg11.dtd">
<svg width="64pt" height="64pt" viewBox="0 0 64 64" version="1.1" xmlns="http://www.w3.org/2000/svg">
<g id="#2627262e">
<path fill="#262726" opacity="0.18" d=" M 20.04 17.96 C 28.01 18.07 35.98 18.10 43.95 17.94 C 44.11 24.79 44.02 31.64 44.02 38.49 C 41.81 38.45 39.60 38.42 37.39 38.38 C 37.41 40.53 37.42 42.69 37.44 44.84 C 31.63 44.86 25.83 44.87 20.02 44.82 C 19.94 35.86 19.91 26.91 20.04 17.96 M 22.09 20.07 C 22.08 21.35 22.08 22.64 22.07 23.92 C 22.88 23.92 24.49 23.91 25.30 23.91 C 25.31 24.55 25.32 25.84 25.33 26.48 C 24.23 26.55 23.12 26.62 22.01 26.68 C 22.11 32.10 22.07 37.52 22.07 42.94 C 26.51 42.91 30.95 42.92 35.38 43.03 C 35.49 37.61 35.44 32.20 35.46 26.78 C 35.99 26.77 37.03 26.74 37.55 26.73 C 37.55 29.96 37.64 33.20 37.57 36.43 C 39.02 36.43 40.46 36.44 41.91 36.46 C 41.95 30.99 41.91 25.53 41.93 20.06 C 35.32 20.13 28.70 20.11 22.09 20.07 Z" />
</g>
<g id="#010101ff">
<path fill="#010101" opacity="1.00" d=" M 22.09 20.07 C 28.70 20.11 35.32 20.13 41.93 20.06 C 41.91 25.53 41.95 30.99 41.91 36.46 C 40.46 36.44 39.02 36.43 37.57 36.43 C 37.64 33.20 37.55 29.96 37.55 26.73 C 37.03 26.74 35.99 26.77 35.46 26.78 C 35.44 32.20 35.49 37.61 35.38 43.03 C 30.95 42.92 26.51 42.91 22.07 42.94 C 22.07 37.52 22.11 32.10 22.01 26.68 C 23.12 26.62 24.23 26.55 25.33 26.48 C 25.32 25.84 25.31 24.55 25.30 23.91 C 24.49 23.91 22.88 23.92 22.07 23.92 C 22.08 22.64 22.08 21.35 22.09 20.07 Z" />
</g>
</svg>
