<?xml version="1.0" encoding="UTF-8" ?>
<!DOCTYPE svg PUBLIC "-//W3C//DTD SVG 1.1//EN" "http://www.w3.org/Graphics/SVG/1.1/DTD/svg11.dtd">
<svg width="64pt" height="64pt" viewBox="0 0 64 64" version="1.1" xmlns="http://www.w3.org/2000/svg">
<g id="#12161e31">
<path fill="#12161e" opacity="0.19" d=" M 23.96 8.99 C 23.08 5.54 26.85 4.62 29.02 2.98 C 29.07 3.53 29.17 4.62 29.23 5.17 C 27.68 6.71 25.82 7.88 23.96 8.99 Z" />
</g>
<g id="#040407ff">
<path fill="#040407" opacity="1.00" d=" M 29.23 5.17 C 30.31 4.27 31.19 2.72 32.84 3.01 C 34.52 4.72 35.57 7.30 37.97 8.12 C 42.11 10.02 46.24 12.39 51.02 11.98 C 52.26 11.93 54.14 12.47 53.98 14.03 C 53.99 17.02 53.98 20.01 54.00 23.00 C 53.98 26.34 53.96 29.67 54.02 33.01 C 54.87 39.10 52.59 45.85 48.09 50.04 C 45.82 51.77 43.42 53.50 42.04 56.07 C 40.31 60.19 34.88 60.68 31.06 61.96 C 28.00 59.96 23.34 59.88 21.93 56.10 C 20.37 53.68 18.36 51.58 15.94 50.01 C 12.27 46.85 9.92 41.87 9.97 37.01 C 10.02 29.35 9.97 21.69 10.02 14.03 C 10.36 11.08 14.49 12.20 16.71 11.58 C 19.25 11.12 21.76 10.41 23.96 8.99 C 25.82 7.88 27.68 6.71 29.23 5.17 M 12.08 14.11 C 11.82 19.04 11.95 23.98 12.04 28.91 C 11.69 35.80 12.68 44.08 18.03 48.86 C 19.07 51.03 21.02 52.84 23.11 54.01 C 27.13 60.42 36.89 60.20 40.92 54.04 C 42.99 52.81 44.86 51.02 46.02 48.90 C 51.18 44.72 52.24 36.23 51.97 29.93 C 52.09 24.67 52.08 19.40 51.95 14.13 C 47.76 13.83 43.31 13.77 39.72 11.29 C 36.75 10.27 34.54 6.55 31.13 7.02 C 25.80 10.95 19.14 14.93 12.08 14.11 Z" />
<path fill="#040407" opacity="1.00" d=" M 31.23 18.13 C 34.54 18.14 33.33 23.75 34.82 26.15 C 35.93 30.54 43.19 26.70 46.45 28.71 C 44.16 30.79 41.86 32.84 39.11 34.31 C 38.24 38.15 40.25 41.49 41.01 45.07 C 36.68 45.27 35.19 38.62 30.06 40.98 C 27.49 42.00 26.04 45.25 23.02 45.08 C 23.87 41.51 25.30 38.03 24.91 34.26 C 22.16 32.87 19.90 30.83 17.61 28.81 C 20.57 26.73 28.35 30.76 29.19 26.21 C 29.96 23.54 30.47 20.80 31.23 18.13 Z" />
</g>
<g id="#070910d3">
<path fill="#070910" opacity="0.83" d=" M 32.84 3.01 C 35.77 2.65 37.06 5.89 37.97 8.12 C 35.57 7.30 34.52 4.72 32.84 3.01 Z" />
<path fill="#070910" opacity="0.83" d=" M 15.94 50.01 C 18.36 51.58 20.37 53.68 21.93 56.10 C 19.32 55.11 16.06 53.09 15.94 50.01 Z" />
<path fill="#070910" opacity="0.83" d=" M 42.04 56.07 C 43.42 53.50 45.82 51.77 48.09 50.04 C 47.13 52.66 45.11 55.90 42.04 56.07 Z" />
</g>
<g id="#6a93dfff">
<path fill="#6a93df" opacity="1.00" d=" M 12.08 14.11 C 19.14 14.93 25.80 10.95 31.13 7.02 C 34.54 6.55 36.75 10.27 39.72 11.29 C 43.31 13.77 47.76 13.83 51.95 14.13 C 52.08 19.40 52.09 24.67 51.97 29.93 C 51.06 30.61 50.16 31.31 49.19 31.90 C 48.48 30.91 47.86 29.87 47.22 28.84 C 47.37 28.39 47.68 27.48 47.84 27.02 C 43.53 26.59 38.96 27.77 34.82 26.15 C 33.33 23.75 34.54 18.14 31.23 18.13 C 30.47 20.80 29.96 23.54 29.19 26.21 C 24.88 26.91 20.51 26.84 16.16 27.07 C 16.34 27.53 16.68 28.43 16.86 28.88 C 15.67 31.77 13.77 30.71 12.04 28.91 C 11.95 23.98 11.82 19.04 12.08 14.11 Z" />
</g>
<g id="#0e111868">
<path fill="#0e1118" opacity="0.41" d=" M 9.05 14.01 L 10.02 14.03 C 9.97 21.69 10.02 29.35 9.97 37.01 L 9.01 36.99 C 9.03 29.33 8.83 21.67 9.05 14.01 Z" />
<path fill="#0e1118" opacity="0.41" d=" M 53.98 14.03 C 57.25 13.92 54.24 20.61 54.96 22.99 L 54.00 23.00 C 53.98 20.01 53.99 17.02 53.98 14.03 Z" />
</g>
<g id="#0405083f">
<path fill="#040508" opacity="0.25" d=" M 54.00 23.00 L 54.96 22.99 C 53.93 25.48 56.56 31.74 54.02 33.01 C 53.96 29.67 53.98 26.34 54.00 23.00 Z" />
</g>
<g id="#2f4a7dff">
<path fill="#2f4a7d" opacity="1.00" d=" M 16.16 27.07 C 20.51 26.84 24.88 26.91 29.19 26.21 C 28.35 30.76 20.57 26.73 17.61 28.81 L 16.86 28.88 C 16.68 28.43 16.34 27.53 16.16 27.07 Z" />
<path fill="#2f4a7d" opacity="1.00" d=" M 34.82 26.15 C 38.96 27.77 43.53 26.59 47.84 27.02 C 47.68 27.48 47.37 28.39 47.22 28.84 L 46.45 28.71 C 43.19 26.70 35.93 30.54 34.82 26.15 Z" />
<path fill="#2f4a7d" opacity="1.00" d=" M 18.03 48.86 C 20.50 49.50 22.61 51.46 23.11 54.01 C 21.02 52.84 19.07 51.03 18.03 48.86 Z" />
<path fill="#2f4a7d" opacity="1.00" d=" M 40.92 54.04 C 41.35 51.49 43.50 49.41 46.02 48.90 C 44.86 51.02 42.99 52.81 40.92 54.04 Z" />
</g>
<g id="#426dc3ff">
<path fill="#426dc3" opacity="1.00" d=" M 12.04 28.91 C 13.77 30.71 15.67 31.77 16.86 28.88 L 17.61 28.81 C 19.90 30.83 22.16 32.87 24.91 34.26 C 25.30 38.03 23.87 41.51 23.02 45.08 C 26.04 45.25 27.49 42.00 30.06 40.98 C 35.19 38.62 36.68 45.27 41.01 45.07 C 40.25 41.49 38.24 38.15 39.11 34.31 C 41.86 32.84 44.16 30.79 46.45 28.71 L 47.22 28.84 C 47.86 29.87 48.48 30.91 49.19 31.90 C 50.16 31.31 51.06 30.61 51.97 29.93 C 52.24 36.23 51.18 44.72 46.02 48.90 C 43.50 49.41 41.35 51.49 40.92 54.04 C 36.89 60.20 27.13 60.42 23.11 54.01 C 22.61 51.46 20.50 49.50 18.03 48.86 C 12.68 44.08 11.69 35.80 12.04 28.91 Z" />
</g>
</svg>
