<?xml version="1.0" encoding="UTF-8" ?>
<!DOCTYPE svg PUBLIC "-//W3C//DTD SVG 1.1//EN" "http://www.w3.org/Graphics/SVG/1.1/DTD/svg11.dtd">
<svg width="64pt" height="64pt" viewBox="0 0 64 64" version="1.1" xmlns="http://www.w3.org/2000/svg">
<g id="#030403fc">
<path fill="#030403" opacity="1.00" d=" M 6.75 6.60 C 10.67 6.30 14.68 6.16 18.57 6.69 C 20.60 8.99 19.03 12.83 19.47 15.69 C 21.29 15.71 23.12 15.74 24.94 15.77 C 24.83 12.69 24.86 9.60 25.44 6.57 C 29.80 6.34 34.18 6.35 38.55 6.56 C 39.14 9.59 39.16 12.69 39.06 15.77 C 40.88 15.74 42.70 15.71 44.53 15.69 C 44.69 12.83 43.93 9.69 44.97 6.98 C 48.66 5.79 52.79 6.54 56.64 6.52 C 58.83 6.72 58.44 9.47 58.52 11.04 C 58.47 26.07 58.80 41.11 58.34 56.12 C 58.08 56.43 57.57 57.06 57.31 57.38 C 52.92 57.88 48.47 57.44 44.05 57.61 C 42.64 57.44 40.65 58.02 39.71 56.62 C 39.03 51.11 39.94 45.52 39.27 40.01 C 38.55 35.97 35.06 33.42 31.84 31.35 C 28.60 33.44 25.16 36.06 24.45 40.11 C 23.94 45.39 24.59 50.71 24.18 55.99 C 23.95 56.34 23.50 57.03 23.27 57.38 C 18.25 57.86 13.16 57.51 8.11 57.56 C 6.11 57.85 5.08 55.69 5.42 53.97 C 5.50 38.63 5.24 23.27 5.55 7.93 C 5.85 7.60 6.45 6.93 6.75 6.60 M 7.75 8.75 C 7.71 24.25 7.71 39.75 7.75 55.26 C 12.48 55.26 17.21 55.21 21.93 55.33 C 22.08 50.16 21.74 44.98 22.15 39.83 C 22.72 34.68 27.24 31.43 31.23 28.81 C 36.11 30.41 40.21 34.41 41.56 39.42 C 41.89 44.67 41.59 49.95 41.68 55.21 C 46.54 55.32 51.40 55.22 56.25 55.26 C 56.25 39.75 56.25 24.25 56.25 8.75 C 53.10 8.75 49.94 8.76 46.79 8.70 C 46.67 11.81 46.67 14.93 46.67 18.04 C 43.33 18.04 40.00 18.02 36.66 17.96 C 36.71 14.88 36.71 11.80 36.71 8.71 C 33.57 8.76 30.43 8.76 27.30 8.71 C 27.28 11.79 27.28 14.86 27.34 17.94 C 24.00 17.99 20.67 18.05 17.33 18.04 C 17.33 14.93 17.32 11.82 17.22 8.70 C 14.06 8.76 10.91 8.75 7.75 8.75 Z" />
</g>
<g id="#ffffffff">
<path fill="#ffffff" opacity="1.00" d=" M 7.75 8.75 C 10.91 8.75 14.06 8.76 17.22 8.70 C 17.32 11.82 17.33 14.93 17.33 18.04 C 20.67 18.05 24.00 17.99 27.34 17.94 C 27.28 14.86 27.28 11.79 27.30 8.71 C 30.43 8.76 33.57 8.76 36.71 8.71 C 36.71 11.80 36.71 14.88 36.66 17.96 C 40.00 18.02 43.33 18.04 46.67 18.04 C 46.67 14.93 46.67 11.81 46.79 8.70 C 49.94 8.76 53.10 8.75 56.25 8.75 C 56.25 24.25 56.25 39.75 56.25 55.26 C 51.40 55.22 46.54 55.32 41.68 55.21 C 41.59 49.95 41.89 44.67 41.56 39.42 C 40.21 34.41 36.11 30.41 31.23 28.81 C 27.24 31.43 22.72 34.68 22.15 39.83 C 21.74 44.98 22.08 50.16 21.93 55.33 C 17.21 55.21 12.48 55.26 7.75 55.26 C 7.71 39.75 7.71 24.25 7.75 8.75 Z" />
</g>
</svg>
