<?xml version="1.0" encoding="UTF-8" ?>
<!DOCTYPE svg PUBLIC "-//W3C//DTD SVG 1.1//EN" "http://www.w3.org/Graphics/SVG/1.1/DTD/svg11.dtd">
<svg width="64pt" height="64pt" viewBox="0 0 64 64" version="1.1" xmlns="http://www.w3.org/2000/svg">
<g id="#010101ff">
<path fill="#010101" opacity="1.00" d=" M 5.17 5.88 C 6.40 4.55 8.41 5.10 10.01 4.91 C 15.51 5.08 21.05 4.57 26.52 5.38 C 26.57 5.97 26.67 7.15 26.73 7.74 C 25.24 9.42 23.39 10.87 22.34 12.88 C 23.30 14.18 24.38 15.38 25.46 16.58 C 29.73 15.17 34.28 15.17 38.55 16.58 C 39.71 15.24 40.84 13.87 41.95 12.48 C 40.23 10.56 37.00 9.00 37.56 5.95 C 39.13 4.73 41.19 5.00 43.03 4.94 C 48.27 5.07 53.52 4.67 58.73 5.31 C 59.08 11.23 58.92 17.16 59.03 23.09 C 59.28 24.77 58.10 25.99 57.18 27.23 C 55.13 25.75 53.24 24.05 51.60 22.12 C 50.22 23.12 48.88 24.19 47.65 25.39 C 49.72 29.87 49.49 34.87 48.21 39.53 C 49.36 40.29 50.51 41.04 51.67 41.79 C 53.30 39.91 55.13 38.23 57.14 36.76 C 60.04 39.39 58.84 43.53 59.07 46.98 C 58.84 50.80 59.60 54.80 58.52 58.50 C 54.48 59.70 50.13 58.72 45.96 58.95 C 43.18 58.72 40.05 59.65 37.57 58.05 C 36.97 55.51 39.51 54.16 40.82 52.42 C 42.61 51.18 40.25 49.67 39.71 48.44 C 34.80 50.38 29.33 50.41 24.41 48.48 C 23.63 49.44 22.84 50.39 22.06 51.35 C 24.07 53.32 26.52 55.25 26.73 58.30 C 19.71 59.60 12.41 59.01 5.30 58.71 C 4.67 52.80 5.09 46.85 4.96 40.92 C 4.82 39.40 5.63 36.61 7.65 37.44 C 9.55 38.50 10.88 40.28 12.35 41.83 C 13.50 41.03 14.65 40.22 15.80 39.41 C 14.50 35.20 14.55 30.80 15.70 26.58 C 16.61 24.50 14.18 23.41 12.89 22.32 C 10.66 23.66 8.93 25.71 6.83 27.25 C 5.90 26.00 4.73 24.75 4.96 23.05 C 4.99 17.33 4.69 11.59 5.17 5.88 M 7.28 7.28 C 7.28 12.89 7.31 18.49 7.27 24.10 C 8.95 22.18 10.73 20.33 12.88 18.93 C 14.29 20.32 15.75 21.67 17.20 23.02 C 19.08 21.03 21.13 19.21 23.30 17.54 C 21.86 15.97 20.42 14.39 18.92 12.87 C 20.36 10.77 22.14 8.96 24.02 7.26 C 18.44 7.32 12.86 7.27 7.28 7.28 M 39.98 7.26 C 41.85 8.96 43.62 10.79 45.08 12.86 C 43.59 14.39 42.15 15.97 40.69 17.53 C 42.86 19.21 44.92 21.03 46.81 23.02 C 48.25 21.66 49.71 20.31 51.12 18.92 C 53.23 20.35 55.03 22.15 56.74 24.03 C 56.68 18.44 56.72 12.86 56.72 7.28 C 51.14 7.28 45.56 7.31 39.98 7.26 M 31.39 24.28 C 29.11 26.66 26.88 29.09 24.43 31.28 C 22.42 32.38 18.84 31.24 18.09 34.19 C 16.86 36.29 18.95 38.16 20.27 39.56 C 21.27 39.51 22.27 39.45 23.27 39.41 C 24.07 38.67 24.87 37.93 25.67 37.20 C 25.53 35.88 25.37 34.56 25.21 33.24 C 25.67 32.89 26.59 32.20 27.05 31.85 C 27.86 33.43 28.18 35.65 30.18 36.17 C 32.19 36.42 34.26 36.08 36.25 36.52 C 37.30 37.37 38.22 38.36 39.18 39.32 C 40.52 39.37 41.85 39.43 43.18 39.48 C 46.48 37.68 47.22 32.33 43.62 30.46 C 41.10 28.51 38.47 30.55 36.46 32.14 C 34.56 30.67 32.53 29.33 30.87 27.57 C 32.28 26.61 33.78 25.75 35.02 24.57 C 33.81 24.45 32.60 24.36 31.39 24.28 M 7.28 56.71 C 12.86 56.72 18.44 56.68 24.02 56.74 C 22.15 55.04 20.37 53.22 18.91 51.13 C 20.16 49.86 21.36 48.56 22.59 47.28 C 20.32 45.66 18.51 43.53 16.72 41.41 C 15.43 42.63 14.13 43.84 12.86 45.08 C 10.78 43.63 8.96 41.85 7.26 39.99 C 7.32 45.56 7.27 51.14 7.28 56.71 M 51.14 45.08 C 49.87 43.83 48.56 42.63 47.27 41.41 C 45.49 43.53 43.68 45.65 41.42 47.28 C 42.64 48.56 43.83 49.87 45.08 51.13 C 43.63 53.22 41.85 55.03 39.98 56.74 C 45.56 56.68 51.14 56.72 56.72 56.72 C 56.72 51.14 56.68 45.56 56.74 39.98 C 55.04 41.85 53.22 43.62 51.14 45.08 Z" />
<path fill="#010101" opacity="1.00" d=" M 38.82 33.09 C 39.56 32.59 40.31 32.08 41.06 31.58 C 42.13 32.30 43.17 33.06 44.18 33.86 C 43.98 34.58 43.57 36.02 43.37 36.74 C 41.80 37.36 40.15 37.39 38.55 36.87 C 40.12 36.10 42.11 35.78 42.80 33.91 C 41.80 33.70 39.81 33.29 38.82 33.09 Z" />
<path fill="#010101" opacity="1.00" d=" M 19.69 36.50 C 20.16 35.41 20.64 34.32 21.35 33.37 L 20.74 36.48 C 21.61 36.20 23.36 35.63 24.23 35.35 C 23.48 36.18 22.72 37.00 21.96 37.83 C 21.40 37.50 20.26 36.83 19.69 36.50 Z" />
</g>
<g id="#ffffffff">
<path fill="#ffffff" opacity="1.00" d=" M 7.28 7.28 C 12.86 7.27 18.44 7.32 24.02 7.26 C 22.14 8.96 20.36 10.77 18.92 12.87 C 20.42 14.39 21.86 15.97 23.30 17.54 C 21.13 19.21 19.08 21.03 17.20 23.02 C 15.75 21.67 14.29 20.32 12.88 18.93 C 10.73 20.33 8.95 22.18 7.27 24.10 C 7.31 18.49 7.28 12.89 7.28 7.28 Z" />
<path fill="#ffffff" opacity="1.00" d=" M 39.98 7.26 C 45.56 7.31 51.14 7.28 56.72 7.28 C 56.72 12.86 56.68 18.44 56.74 24.03 C 55.03 22.15 53.23 20.35 51.12 18.92 C 49.71 20.31 48.25 21.66 46.81 23.02 C 44.92 21.03 42.86 19.21 40.69 17.53 C 42.15 15.97 43.59 14.39 45.08 12.86 C 43.62 10.79 41.85 8.96 39.98 7.26 Z" />
<path fill="#ffffff" opacity="1.00" d=" M 31.39 24.28 C 32.60 24.36 33.81 24.45 35.02 24.57 C 33.78 25.75 32.28 26.61 30.87 27.57 C 32.53 29.33 34.56 30.67 36.46 32.14 C 38.47 30.55 41.10 28.51 43.62 30.46 C 47.22 32.33 46.48 37.68 43.18 39.48 C 41.85 39.43 40.52 39.37 39.18 39.32 C 38.22 38.36 37.30 37.37 36.25 36.52 C 34.26 36.08 32.19 36.42 30.18 36.17 C 28.18 35.65 27.86 33.43 27.05 31.85 C 26.59 32.20 25.67 32.89 25.21 33.24 C 25.37 34.56 25.53 35.88 25.67 37.20 C 24.87 37.93 24.07 38.67 23.27 39.41 C 22.27 39.45 21.27 39.51 20.27 39.56 C 18.95 38.16 16.86 36.29 18.09 34.19 C 18.84 31.24 22.42 32.38 24.43 31.28 C 26.88 29.09 29.11 26.66 31.39 24.28 M 38.82 33.09 C 39.81 33.29 41.80 33.70 42.80 33.91 C 42.11 35.78 40.12 36.10 38.55 36.87 C 40.15 37.39 41.80 37.36 43.37 36.74 C 43.57 36.02 43.98 34.58 44.18 33.86 C 43.17 33.06 42.13 32.30 41.06 31.58 C 40.31 32.08 39.56 32.59 38.82 33.09 M 19.69 36.50 C 20.26 36.83 21.40 37.50 21.96 37.83 C 22.72 37.00 23.48 36.18 24.23 35.35 C 23.36 35.63 21.61 36.20 20.74 36.48 L 21.35 33.37 C 20.64 34.32 20.16 35.41 19.69 36.50 Z" />
<path fill="#ffffff" opacity="1.00" d=" M 7.28 56.71 C 7.27 51.14 7.32 45.56 7.26 39.99 C 8.96 41.85 10.78 43.63 12.86 45.08 C 14.13 43.84 15.43 42.63 16.72 41.41 C 18.51 43.53 20.32 45.66 22.59 47.28 C 21.36 48.56 20.16 49.86 18.91 51.13 C 20.37 53.22 22.15 55.04 24.02 56.74 C 18.44 56.68 12.86 56.72 7.28 56.71 Z" />
<path fill="#ffffff" opacity="1.00" d=" M 51.14 45.08 C 53.22 43.62 55.04 41.85 56.74 39.98 C 56.68 45.56 56.72 51.14 56.72 56.72 C 51.14 56.72 45.56 56.68 39.98 56.74 C 41.85 55.03 43.63 53.22 45.08 51.13 C 43.83 49.87 42.64 48.56 41.42 47.28 C 43.68 45.65 45.49 43.53 47.27 41.41 C 48.56 42.63 49.87 43.83 51.14 45.08 Z" />
</g>
</svg>
