<?xml version="1.0" encoding="UTF-8" ?>
<!DOCTYPE svg PUBLIC "-//W3C//DTD SVG 1.1//EN" "http://www.w3.org/Graphics/SVG/1.1/DTD/svg11.dtd">
<svg width="64pt" height="64pt" viewBox="0 0 64 64" version="1.1" xmlns="http://www.w3.org/2000/svg">
<g id="#0000003a">
<path fill="#000000" opacity="0.23" d=" M 6.69 5.72 C 7.02 5.53 7.70 5.15 8.03 4.96 C 24.02 5.02 40.01 4.99 56.00 4.99 L 56.04 5.91 C 39.59 5.91 23.13 6.34 6.69 5.72 Z" />
<path fill="#000000" opacity="0.23" d=" M 16.78 56.79 C 26.85 55.54 37.15 55.53 47.22 56.80 C 37.08 57.24 26.93 56.99 16.78 56.79 Z" />
</g>
<g id="#040404fd">
<path fill="#040404" opacity="1.00" d=" M 4.03 12.99 C 3.49 10.64 3.93 6.66 6.69 5.72 C 23.13 6.34 39.59 5.91 56.04 5.91 C 59.19 5.21 60.12 8.45 60.02 10.97 C 59.93 25.89 60.21 40.81 59.85 55.73 C 57.03 59.30 50.99 55.67 47.22 56.80 C 37.15 55.53 26.85 55.54 16.78 56.79 C 12.82 56.16 7.20 58.87 4.17 55.76 C 3.67 41.53 4.11 27.24 4.03 12.99 M 6.03 7.99 C 5.92 13.31 5.93 18.62 6.05 23.94 C 5.94 34.27 5.96 44.60 6.03 54.94 C 8.35 54.26 15.21 57.23 14.92 54.03 L 15.88 53.96 L 16.10 49.06 C 26.69 48.90 37.28 48.98 47.87 49.05 L 48.11 53.97 L 49.08 54.03 C 49.33 56.91 56.71 53.21 57.96 54.96 C 58.04 44.62 58.06 34.28 57.95 23.93 C 58.07 18.62 58.08 13.30 57.97 7.98 L 56.99 8.06 C 40.33 7.89 23.67 8.02 7.01 8.03 L 6.03 7.99 Z" />
<path fill="#040404" opacity="1.00" d=" M 16.07 19.06 C 26.70 18.86 37.34 19.05 47.98 19.01 C 48.07 20.97 48.01 22.94 47.91 24.90 C 37.29 25.16 26.65 25.04 16.03 24.96 C 16.04 23.48 16.06 20.53 16.07 19.06 Z" />
<path fill="#040404" opacity="1.00" d=" M 15.94 28.11 C 26.60 27.88 37.28 27.88 47.94 28.13 C 47.96 29.88 48.00 33.37 48.02 35.12 C 37.38 34.92 26.73 34.93 16.09 35.12 C 16.05 33.36 15.98 29.86 15.94 28.11 Z" />
<path fill="#040404" opacity="1.00" d=" M 15.93 38.19 C 26.63 37.80 37.34 38.01 48.04 38.04 C 48.01 39.77 47.96 43.22 47.93 44.95 C 37.29 45.11 26.65 45.03 16.02 44.89 C 16.00 43.22 15.95 39.86 15.93 38.19 Z" />
</g>
<g id="#989691ff">
<path fill="#989691" opacity="1.00" d=" M 6.03 7.99 L 7.01 8.03 C 7.00 13.41 6.99 18.78 7.01 24.15 L 6.05 23.94 C 5.93 18.62 5.92 13.31 6.03 7.99 Z" />
<path fill="#989691" opacity="1.00" d=" M 56.99 8.06 L 57.97 7.98 C 58.08 13.30 58.07 18.62 57.95 23.93 L 56.99 24.15 C 57.01 18.79 56.99 13.42 56.99 8.06 Z" />
<path fill="#989691" opacity="1.00" d=" M 16.09 35.12 C 26.73 34.93 37.38 34.92 48.02 35.12 C 49.67 38.67 53.39 38.51 56.99 38.05 C 57.06 43.34 57.05 48.64 56.95 53.93 C 54.33 54.04 51.70 54.08 49.08 54.03 C 49.03 52.54 48.93 49.56 48.88 48.07 C 37.62 48.03 26.34 47.75 15.09 48.10 C 15.05 49.58 14.96 52.55 14.92 54.03 C 12.30 54.01 9.68 53.98 7.06 53.91 C 6.95 48.64 6.94 43.37 7.01 38.09 C 10.16 37.94 14.01 37.89 16.09 35.12 M 15.42 44.91 L 14.97 45.83 C 26.28 46.35 37.63 45.86 48.95 45.97 C 48.32 43.85 51.43 37.42 48.04 38.04 C 37.34 38.01 26.63 37.80 15.93 38.19 C 14.07 39.20 14.66 43.08 15.42 44.91 Z" />
</g>
<g id="#cdc5b2ff">
<path fill="#cdc5b2" opacity="1.00" d=" M 7.01 8.03 C 23.67 8.02 40.33 7.89 56.99 8.06 C 56.99 13.42 57.01 18.79 56.99 24.15 C 53.88 24.27 50.21 21.83 47.91 24.90 C 48.01 22.94 48.07 20.97 47.98 19.01 L 47.92 18.05 C 37.00 18.02 26.05 17.78 15.13 18.09 C 14.96 19.71 14.90 21.33 14.80 22.96 C 12.22 23.49 9.64 23.99 7.01 24.15 C 6.99 18.78 7.00 13.41 7.01 8.03 Z" />
</g>
<g id="#353331ff">
<path fill="#353331" opacity="1.00" d=" M 15.13 18.09 C 26.05 17.78 37.00 18.02 47.92 18.05 L 47.98 19.01 C 37.34 19.05 26.70 18.86 16.07 19.06 C 16.06 20.53 16.04 23.48 16.03 24.96 L 15.16 24.87 C 15.07 24.39 14.89 23.44 14.80 22.96 C 14.90 21.33 14.96 19.71 15.13 18.09 Z" />
<path fill="#353331" opacity="1.00" d=" M 16.09 35.12 C 14.14 34.02 13.15 28.09 15.94 28.11 C 15.98 29.86 16.05 33.36 16.09 35.12 Z" />
<path fill="#353331" opacity="1.00" d=" M 15.42 44.91 C 14.66 43.08 14.07 39.20 15.93 38.19 C 15.95 39.86 16.00 43.22 16.02 44.89 L 15.42 44.91 Z" />
<path fill="#353331" opacity="1.00" d=" M 15.09 48.10 C 26.34 47.75 37.62 48.03 48.88 48.07 C 48.93 49.56 49.03 52.54 49.08 54.03 L 48.11 53.97 L 47.87 49.05 C 37.28 48.98 26.69 48.90 16.10 49.06 L 15.88 53.96 L 14.92 54.03 C 14.96 52.55 15.05 49.58 15.09 48.10 Z" />
</g>
<g id="#b5ada4ff">
<path fill="#b5ada4" opacity="1.00" d=" M 7.01 24.15 C 9.64 23.99 12.22 23.49 14.80 22.96 C 14.89 23.44 15.07 24.39 15.16 24.87 L 16.03 24.96 C 26.65 25.04 37.29 25.16 47.91 24.90 C 50.21 21.83 53.88 24.27 56.99 24.15 C 56.99 28.78 57.03 33.42 56.99 38.05 C 53.39 38.51 49.67 38.67 48.02 35.12 C 49.10 33.50 50.88 28.67 47.94 28.13 C 37.28 27.88 26.60 27.88 15.94 28.11 C 13.15 28.09 14.14 34.02 16.09 35.12 C 14.01 37.89 10.16 37.94 7.01 38.09 C 6.99 33.44 7.00 28.80 7.01 24.15 Z" />
</g>
<g id="#676562ff">
<path fill="#676562" opacity="1.00" d=" M 6.05 23.94 L 7.01 24.15 C 7.00 28.80 6.99 33.44 7.01 38.09 C 6.94 43.37 6.95 48.64 7.06 53.91 C 9.68 53.98 12.30 54.01 14.92 54.03 C 15.21 57.23 8.35 54.26 6.03 54.94 C 5.96 44.60 5.94 34.27 6.05 23.94 Z" />
<path fill="#676562" opacity="1.00" d=" M 56.99 24.15 L 57.95 23.93 C 58.06 34.28 58.04 44.62 57.96 54.96 C 56.71 53.21 49.33 56.91 49.08 54.03 C 51.70 54.08 54.33 54.04 56.95 53.93 C 57.05 48.64 57.06 43.34 56.99 38.05 C 57.03 33.42 56.99 28.78 56.99 24.15 Z" />
<path fill="#676562" opacity="1.00" d=" M 47.94 28.13 C 50.88 28.67 49.10 33.50 48.02 35.12 C 48.00 33.37 47.96 29.88 47.94 28.13 Z" />
<path fill="#676562" opacity="1.00" d=" M 48.04 38.04 C 51.43 37.42 48.32 43.85 48.95 45.97 C 37.63 45.86 26.28 46.35 14.97 45.83 L 15.42 44.91 L 16.02 44.89 C 26.65 45.03 37.29 45.11 47.93 44.95 C 47.96 43.22 48.01 39.77 48.04 38.04 Z" />
</g>
</svg>
