<?xml version="1.0" encoding="UTF-8" ?>
<!DOCTYPE svg PUBLIC "-//W3C//DTD SVG 1.1//EN" "http://www.w3.org/Graphics/SVG/1.1/DTD/svg11.dtd">
<svg width="64pt" height="64pt" viewBox="0 0 64 64" version="1.1" xmlns="http://www.w3.org/2000/svg">
<g id="#010201c5">
<path fill="#010201" opacity="0.77" d=" M 25.77 3.79 C 29.31 1.63 34.61 3.10 38.23 3.79 C 34.08 3.84 29.92 3.84 25.77 3.79 Z" />
<path fill="#010201" opacity="0.77" d=" M 5.71 60.79 C 9.65 59.06 14.12 60.47 18.19 60.73 C 14.03 60.89 9.87 60.91 5.71 60.79 Z" />
<path fill="#010201" opacity="0.77" d=" M 45.77 60.66 C 49.81 59.39 54.16 60.23 58.24 60.81 C 54.08 60.93 49.93 60.88 45.77 60.66 Z" />
</g>
<g id="#080808fc">
<path fill="#080808" opacity="1.00" d=" M 22.29 10.26 C 23.25 8.04 23.68 5.29 25.77 3.79 C 29.92 3.84 34.08 3.84 38.23 3.79 C 39.70 4.78 40.26 6.53 40.90 8.08 C 45.46 20.17 50.05 32.25 54.53 44.37 C 56.29 49.88 59.18 55.07 60.07 60.82 C 59.62 60.82 58.70 60.82 58.24 60.81 C 54.16 60.23 49.81 59.39 45.77 60.66 C 41.44 59.19 41.78 52.63 39.74 49.15 C 34.56 48.87 29.38 48.86 24.19 49.11 C 21.68 52.32 22.24 59.08 18.19 60.73 C 14.12 60.47 9.65 59.06 5.71 60.79 C 2.12 61.46 4.87 56.43 5.52 54.62 C 8.33 47.88 10.82 41.02 13.39 34.18 C 14.11 32.25 14.72 30.28 15.27 28.30 C 17.59 23.39 19.59 18.32 21.39 13.19 C 21.71 12.22 22.01 11.24 22.29 10.26 M 25.93 5.05 L 26.21 6.00 C 24.48 11.78 21.80 17.23 20.22 23.05 C 22.23 27.42 16.47 28.33 17.05 32.06 L 16.26 32.20 C 13.56 40.85 9.69 49.17 7.07 57.81 C 10.35 59.61 14.21 58.98 17.77 58.88 C 18.60 56.66 19.68 54.45 19.90 52.07 C 21.70 51.39 21.19 48.61 22.19 47.11 C 28.65 46.84 35.10 46.88 41.55 47.25 C 41.91 47.71 42.63 48.65 42.99 49.11 C 42.82 52.63 44.66 55.85 46.15 58.91 C 49.75 59.09 53.59 59.34 56.95 57.82 C 53.26 47.29 49.31 36.01 45.17 25.98 C 43.29 19.95 40.20 14.31 38.84 8.12 C 39.18 1.81 29.35 6.33 25.93 5.05 Z" />
<path fill="#080808" opacity="1.00" d=" M 31.98 19.86 C 34.03 23.83 35.22 28.15 36.75 32.33 C 37.24 34.14 37.78 35.93 38.32 37.72 C 33.93 37.90 29.54 37.95 25.16 38.06 C 25.56 36.75 26.01 35.45 26.45 34.15 C 28.59 29.50 29.66 24.43 31.98 19.86 M 30.17 31.15 C 29.81 32.48 27.62 36.08 29.98 36.01 C 35.12 40.47 36.44 33.70 33.81 32.23 C 33.80 30.47 33.17 28.79 32.82 27.08 C 30.27 26.28 30.91 29.64 30.17 31.15 Z" />
</g>
<g id="#5c5b5cff">
<path fill="#5c5b5c" opacity="1.00" d=" M 25.93 5.05 C 29.35 6.33 39.18 1.81 38.84 8.12 C 35.80 4.36 30.28 6.83 26.21 6.00 L 25.93 5.05 Z" />
</g>
<g id="#f0f0f0ff">
<path fill="#f0f0f0" opacity="1.00" d=" M 26.21 6.00 C 30.28 6.83 35.80 4.36 38.84 8.12 C 40.20 14.31 43.29 19.95 45.17 25.98 C 44.95 27.61 44.56 29.22 43.73 30.66 C 41.41 31.25 39.08 31.79 36.75 32.33 C 35.22 28.15 34.03 23.83 31.98 19.86 C 29.66 24.43 28.59 29.50 26.45 34.15 C 23.99 31.11 20.54 31.08 17.05 32.06 C 16.47 28.33 22.23 27.42 20.22 23.05 C 21.80 17.23 24.48 11.78 26.21 6.00 Z" />
</g>
<g id="#d1d1d1ff">
<path fill="#d1d1d1" opacity="1.00" d=" M 45.17 25.98 C 49.31 36.01 53.26 47.29 56.95 57.82 C 53.59 59.34 49.75 59.09 46.15 58.91 C 44.66 55.85 42.82 52.63 42.99 49.11 C 42.97 48.35 42.92 46.82 42.89 46.06 C 35.67 46.01 28.42 45.68 21.21 46.14 C 19.34 47.51 20.25 50.10 19.90 52.07 C 19.68 54.45 18.60 56.66 17.77 58.88 C 14.21 58.98 10.35 59.61 7.07 57.81 C 9.69 49.17 13.56 40.85 16.26 32.20 L 17.05 32.06 C 20.54 31.08 23.99 31.11 26.45 34.15 C 26.01 35.45 25.56 36.75 25.16 38.06 L 24.91 38.94 C 29.56 39.01 34.22 39.13 38.87 39.02 C 38.73 38.69 38.45 38.04 38.32 37.72 C 37.78 35.93 37.24 34.14 36.75 32.33 C 39.08 31.79 41.41 31.25 43.73 30.66 C 44.56 29.22 44.95 27.61 45.17 25.98 Z" />
</g>
<g id="#00000030">
<path fill="#000000" opacity="0.19" d=" M 30.17 31.15 C 30.91 29.64 30.27 26.28 32.82 27.08 C 33.17 28.79 33.80 30.47 33.81 32.23 C 32.59 31.89 31.37 31.54 30.17 31.15 Z" />
<path fill="#000000" opacity="0.19" d=" M 11.81 31.50 C 12.08 30.23 12.35 28.95 12.81 27.73 C 13.42 27.87 14.65 28.16 15.27 28.30 C 14.72 30.28 14.11 32.25 13.39 34.18 C 13.00 33.51 12.20 32.17 11.81 31.50 Z" />
</g>
<g id="#939293ff">
<path fill="#939293" opacity="1.00" d=" M 25.16 38.06 C 29.54 37.95 33.93 37.90 38.32 37.72 C 38.45 38.04 38.73 38.69 38.87 39.02 C 34.22 39.13 29.56 39.01 24.91 38.94 L 25.16 38.06 Z" />
<path fill="#939293" opacity="1.00" d=" M 21.21 46.14 C 28.42 45.68 35.67 46.01 42.89 46.06 C 42.92 46.82 42.97 48.35 42.99 49.11 C 42.63 48.65 41.91 47.71 41.55 47.25 C 35.10 46.88 28.65 46.84 22.19 47.11 C 21.19 48.61 21.70 51.39 19.90 52.07 C 20.25 50.10 19.34 47.51 21.21 46.14 Z" />
</g>
</svg>
