<?xml version="1.0" encoding="UTF-8" ?>
<!DOCTYPE svg PUBLIC "-//W3C//DTD SVG 1.1//EN" "http://www.w3.org/Graphics/SVG/1.1/DTD/svg11.dtd">
<svg width="64pt" height="64pt" viewBox="0 0 64 64" version="1.1" xmlns="http://www.w3.org/2000/svg">
<g id="#060506ff">
<path fill="#060506" opacity="1.00" d=" M 28.95 5.93 C 31.09 4.37 34.21 3.89 36.34 5.74 C 40.39 8.77 44.59 11.60 48.75 14.48 C 48.79 14.51 48.88 14.57 48.93 14.60 C 49.34 14.85 50.15 15.36 50.56 15.61 L 50.83 16.41 C 51.15 17.56 51.92 18.18 53.13 18.26 L 53.82 18.38 C 54.07 19.60 54.83 20.25 56.10 20.32 C 56.44 20.36 57.11 20.45 57.44 20.50 C 58.98 23.60 59.37 27.22 58.37 30.55 C 57.55 32.74 55.22 33.57 53.23 34.33 C 53.31 40.88 53.34 47.43 53.28 53.98 C 53.41 57.26 50.17 59.82 47.01 59.50 C 37.05 59.49 27.08 59.54 17.11 59.47 C 14.14 59.66 11.13 57.19 11.30 54.10 C 11.17 47.53 11.34 40.95 11.23 34.37 C 8.90 33.68 6.01 32.63 5.45 29.92 C 4.87 26.61 4.68 22.24 8.00 20.27 C 14.99 15.50 21.93 10.65 28.95 5.93 M 30.47 7.74 C 24.12 11.90 18.07 16.53 11.60 20.50 L 11.62 20.80 C 10.33 21.55 9.04 22.33 7.76 23.12 C 7.60 25.37 7.27 27.70 7.86 29.92 C 8.98 32.05 11.66 31.57 13.63 31.80 C 13.64 36.09 13.62 40.37 13.68 44.65 C 13.59 47.76 13.50 50.87 13.67 53.97 C 13.44 56.20 15.94 57.41 17.84 57.28 C 24.89 57.30 31.94 57.26 39.00 57.28 C 42.61 57.26 46.28 57.56 49.82 56.67 C 50.28 55.51 51.09 54.42 51.02 53.11 C 51.09 45.98 51.03 38.85 51.03 31.72 C 52.86 31.71 55.13 31.76 56.15 29.91 C 57.01 26.45 56.91 21.99 52.97 20.56 L 52.34 21.02 L 53.02 20.52 C 47.52 16.54 41.89 12.76 36.47 8.68 C 34.83 7.34 32.39 6.33 30.47 7.74 Z" />
<path fill="#060506" opacity="1.00" d=" M 29.72 17.78 C 32.55 16.25 35.77 17.55 38.06 19.43 C 38.30 21.54 38.35 23.68 38.41 25.81 C 37.52 26.61 36.64 27.43 35.77 28.26 L 35.24 28.82 C 35.14 34.57 35.23 40.32 35.38 46.07 C 38.56 44.49 40.73 41.71 42.62 38.81 C 41.98 38.39 40.71 37.53 40.08 37.10 C 41.54 35.37 43.06 33.68 44.67 32.08 C 45.20 32.01 46.25 31.85 46.78 31.78 C 47.47 33.96 48.18 36.14 48.82 38.34 C 45.32 40.81 44.42 45.45 40.87 47.83 C 37.09 50.81 31.77 51.18 27.38 49.45 C 23.33 47.57 20.41 43.90 18.77 39.81 C 18.17 39.74 16.96 39.60 16.35 39.53 C 16.71 36.86 17.14 34.17 18.29 31.71 C 21.42 31.64 22.96 35.10 25.05 36.92 C 24.37 37.47 23.68 38.00 22.99 38.53 C 24.32 41.94 26.95 44.54 30.23 46.10 C 30.38 41.23 30.31 36.36 30.34 31.49 C 30.34 30.76 30.35 29.29 30.36 28.56 C 29.51 27.96 28.66 27.36 27.81 26.76 C 27.35 25.48 26.88 24.21 26.41 22.94 C 27.32 21.13 27.69 18.72 29.72 17.78 M 31.56 24.42 C 33.83 25.85 35.17 22.72 33.87 21.03 C 31.98 20.90 29.95 22.61 31.56 24.42 Z" />
</g>
<g id="#f8f6f8ff">
<path fill="#f8f6f8" opacity="1.00" d=" M 30.47 7.74 C 32.39 6.33 34.83 7.34 36.47 8.68 C 41.89 12.76 47.52 16.54 53.02 20.52 L 52.34 21.02 C 50.89 22.08 49.40 23.08 47.90 24.07 C 50.18 24.23 52.46 24.42 54.74 24.62 C 54.73 25.11 54.72 26.08 54.71 26.57 C 50.08 25.92 45.41 25.57 40.74 25.49 C 40.47 23.87 40.21 22.24 39.85 20.62 C 39.40 20.33 38.51 19.73 38.06 19.43 C 35.77 17.55 32.55 16.25 29.72 17.78 C 27.69 18.72 27.32 21.13 26.41 22.94 C 24.96 24.45 23.46 26.55 21.12 26.43 C 17.12 26.67 13.12 26.86 9.17 27.58 C 9.25 26.72 9.33 25.86 9.41 25.00 C 10.03 24.64 11.26 23.92 11.88 23.56 C 11.82 22.87 11.69 21.49 11.62 20.80 L 11.60 20.50 C 18.07 16.53 24.12 11.90 30.47 7.74 Z" />
</g>
<g id="#3e3f3efc">
<path fill="#3e3f3e" opacity="1.00" d=" M 48.75 14.48 C 48.79 14.51 48.88 14.57 48.93 14.60 C 48.88 14.57 48.79 14.51 48.75 14.48 Z" />
<path fill="#3e3f3e" opacity="1.00" d=" M 50.83 16.41 C 52.42 16.08 53.19 16.69 53.13 18.26 C 51.92 18.18 51.15 17.56 50.83 16.41 Z" />
<path fill="#3e3f3e" opacity="1.00" d=" M 53.82 18.38 C 55.40 18.18 56.17 18.82 56.10 20.32 C 54.83 20.25 54.07 19.60 53.82 18.38 Z" />
</g>
<g id="#eae9eaff">
<path fill="#eae9ea" opacity="1.00" d=" M 38.06 19.43 C 38.51 19.73 39.40 20.33 39.85 20.62 C 40.21 22.24 40.47 23.87 40.74 25.49 C 45.41 25.57 50.08 25.92 54.71 26.57 C 54.72 26.08 54.73 25.11 54.74 24.62 C 52.46 24.42 50.18 24.23 47.90 24.07 C 49.40 23.08 50.89 22.08 52.34 21.02 L 52.97 20.56 C 56.91 21.99 57.01 26.45 56.15 29.91 C 55.13 31.76 52.86 31.71 51.03 31.72 C 49.61 31.72 48.19 31.74 46.78 31.78 C 46.25 31.85 45.20 32.01 44.67 32.08 C 41.97 32.56 39.22 32.77 36.48 32.85 C 36.25 31.32 36.01 29.79 35.77 28.26 C 36.64 27.43 37.52 26.61 38.41 25.81 C 38.35 23.68 38.30 21.54 38.06 19.43 Z" />
<path fill="#eae9ea" opacity="1.00" d=" M 7.76 23.12 C 9.04 22.33 10.33 21.55 11.62 20.80 C 11.69 21.49 11.82 22.87 11.88 23.56 C 11.26 23.92 10.03 24.64 9.41 25.00 C 9.33 25.86 9.25 26.72 9.17 27.58 C 13.12 26.86 17.12 26.67 21.12 26.43 C 23.46 26.55 24.96 24.45 26.41 22.94 C 26.88 24.21 27.35 25.48 27.81 26.76 C 28.66 27.36 29.51 27.96 30.36 28.56 C 30.35 29.29 30.34 30.76 30.34 31.49 C 28.70 33.41 27.00 35.31 25.05 36.92 C 22.96 35.10 21.42 31.64 18.29 31.71 C 17.14 34.17 16.71 36.86 16.35 39.53 C 15.64 41.32 14.68 43.01 13.68 44.65 C 13.62 40.37 13.64 36.09 13.63 31.80 C 11.66 31.57 8.98 32.05 7.86 29.92 C 7.27 27.70 7.60 25.37 7.76 23.12 Z" />
<path fill="#eae9ea" opacity="1.00" d=" M 31.56 24.42 C 29.95 22.61 31.98 20.90 33.87 21.03 C 35.17 22.72 33.83 25.85 31.56 24.42 Z" />
</g>
<g id="#cbcbcbff">
<path fill="#cbcbcb" opacity="1.00" d=" M 35.24 28.82 L 35.77 28.26 C 36.01 29.79 36.25 31.32 36.48 32.85 C 39.22 32.77 41.97 32.56 44.67 32.08 C 43.06 33.68 41.54 35.37 40.08 37.10 C 40.71 37.53 41.98 38.39 42.62 38.81 C 40.73 41.71 38.56 44.49 35.38 46.07 C 35.23 40.32 35.14 34.57 35.24 28.82 Z" />
<path fill="#cbcbcb" opacity="1.00" d=" M 25.05 36.92 C 27.00 35.31 28.70 33.41 30.34 31.49 C 30.31 36.36 30.38 41.23 30.23 46.10 C 26.95 44.54 24.32 41.94 22.99 38.53 C 23.68 38.00 24.37 37.47 25.05 36.92 Z" />
<path fill="#cbcbcb" opacity="1.00" d=" M 46.78 31.78 C 48.19 31.74 49.61 31.72 51.03 31.72 C 51.03 38.85 51.09 45.98 51.02 53.11 C 51.09 54.42 50.28 55.51 49.82 56.67 C 46.28 57.56 42.61 57.26 39.00 57.28 C 31.94 57.26 24.89 57.30 17.84 57.28 C 15.94 57.41 13.44 56.20 13.67 53.97 C 13.50 50.87 13.59 47.76 13.68 44.65 C 14.68 43.01 15.64 41.32 16.35 39.53 C 16.96 39.60 18.17 39.74 18.77 39.81 C 20.41 43.90 23.33 47.57 27.38 49.45 C 31.77 51.18 37.09 50.81 40.87 47.83 C 44.42 45.45 45.32 40.81 48.82 38.34 C 48.18 36.14 47.47 33.96 46.78 31.78 Z" />
</g>
</svg>
