<?xml version="1.0" encoding="UTF-8" ?>
<!DOCTYPE svg PUBLIC "-//W3C//DTD SVG 1.1//EN" "http://www.w3.org/Graphics/SVG/1.1/DTD/svg11.dtd">
<svg width="64pt" height="64pt" viewBox="0 0 64 64" version="1.1" xmlns="http://www.w3.org/2000/svg">
<g id="#010100ff">
<path fill="#010100" opacity="1.00" d=" M 28.49 4.55 C 36.51 3.66 45.33 5.86 51.00 11.87 C 58.03 18.40 61.24 28.71 59.00 38.07 C 56.78 48.93 47.26 57.79 36.29 59.33 C 27.94 60.67 19.02 58.00 12.95 52.07 C 5.92 45.56 2.77 35.25 5.01 25.93 C 7.28 14.80 17.20 5.78 28.49 4.55 M 22.84 8.36 C 17.64 9.57 14.08 13.79 10.78 17.66 C 6.78 24.12 5.38 32.17 7.49 39.54 L 7.90 39.53 C 9.32 45.01 13.19 49.31 17.15 53.15 C 17.83 52.93 18.51 52.72 19.19 52.52 C 19.06 53.93 19.70 54.76 21.12 55.01 C 26.05 57.07 31.56 58.33 36.85 56.98 C 45.78 55.17 53.64 48.37 56.11 39.51 L 56.51 39.52 C 59.49 29.49 55.68 17.92 47.20 11.77 C 40.36 6.55 30.84 4.99 22.84 8.36 Z" />
<path fill="#010100" opacity="1.00" d=" M 18.87 18.83 C 25.81 11.46 39.02 11.71 45.65 19.38 C 50.79 24.60 51.52 32.79 49.10 39.46 C 45.54 47.97 35.29 52.48 26.55 49.73 C 21.35 48.26 17.08 44.30 14.86 39.42 C 12.39 32.52 13.32 24.00 18.87 18.83 M 23.44 24.52 C 21.17 28.19 19.84 32.90 22.19 36.88 C 25.42 44.87 38.59 44.87 41.82 36.87 C 44.19 32.84 42.80 28.09 40.46 24.41 C 37.99 22.58 35.15 20.97 32.00 20.89 C 28.81 20.98 25.91 22.61 23.44 24.52 Z" />
<path fill="#010100" opacity="1.00" d=" M 27.03 32.78 C 26.91 30.03 28.86 26.87 31.93 27.23 C 35.10 26.91 37.14 29.94 36.97 32.84 C 36.13 34.96 34.52 37.08 31.94 36.77 C 29.40 37.17 27.82 34.84 27.03 32.78 Z" />
</g>
<g id="#b71a1bff">
<path fill="#b71a1b" opacity="1.00" d=" M 22.84 8.36 C 30.84 4.99 40.36 6.55 47.20 11.77 C 55.68 17.92 59.49 29.49 56.51 39.52 L 56.11 39.51 C 53.77 39.48 51.44 39.46 49.10 39.46 C 51.52 32.79 50.79 24.60 45.65 19.38 C 39.02 11.71 25.81 11.46 18.87 18.83 C 13.32 24.00 12.39 32.52 14.86 39.42 C 12.54 39.44 10.22 39.48 7.90 39.53 L 7.49 39.54 C 5.38 32.17 6.78 24.12 10.78 17.66 C 14.08 13.79 17.64 9.57 22.84 8.36 Z" />
</g>
<g id="#f3f1f3ff">
<path fill="#f3f1f3" opacity="1.00" d=" M 23.44 24.52 C 25.91 22.61 28.81 20.98 32.00 20.89 C 35.15 20.97 37.99 22.58 40.46 24.41 C 40.14 26.71 39.82 29.01 39.51 31.31 C 38.88 31.69 37.61 32.46 36.97 32.84 C 37.14 29.94 35.10 26.91 31.93 27.23 C 28.86 26.87 26.91 30.03 27.03 32.78 C 26.28 32.42 24.80 31.70 24.06 31.34 C 23.86 29.06 23.65 26.79 23.44 24.52 Z" />
</g>
<g id="#d7d7d7ff">
<path fill="#d7d7d7" opacity="1.00" d=" M 22.19 36.88 C 19.84 32.90 21.17 28.19 23.44 24.52 C 23.65 26.79 23.86 29.06 24.06 31.34 C 24.80 31.70 26.28 32.42 27.03 32.78 C 27.82 34.84 29.40 37.17 31.94 36.77 C 34.52 37.08 36.13 34.96 36.97 32.84 C 37.61 32.46 38.88 31.69 39.51 31.31 C 39.82 29.01 40.14 26.71 40.46 24.41 C 42.80 28.09 44.19 32.84 41.82 36.87 C 38.59 44.87 25.42 44.87 22.19 36.88 Z" />
</g>
<g id="#d62a2dff">
<path fill="#d62a2d" opacity="1.00" d=" M 7.90 39.53 C 10.22 39.48 12.54 39.44 14.86 39.42 C 17.08 44.30 21.35 48.26 26.55 49.73 C 35.29 52.48 45.54 47.97 49.10 39.46 C 51.44 39.46 53.77 39.48 56.11 39.51 C 53.64 48.37 45.78 55.17 36.85 56.98 C 31.56 58.33 26.05 57.07 21.12 55.01 C 19.70 54.76 19.06 53.93 19.19 52.52 C 18.51 52.72 17.83 52.93 17.15 53.15 C 13.19 49.31 9.32 45.01 7.90 39.53 Z" />
</g>
</svg>
