<?xml version="1.0" encoding="UTF-8" ?>
<!DOCTYPE svg PUBLIC "-//W3C//DTD SVG 1.1//EN" "http://www.w3.org/Graphics/SVG/1.1/DTD/svg11.dtd">
<svg width="64pt" height="64pt" viewBox="0 0 64 64" version="1.1" xmlns="http://www.w3.org/2000/svg">
<g id="#030203ff">
<path fill="#030203" opacity="1.00" d=" M 26.59 4.67 C 28.57 3.41 30.45 0.70 33.08 1.69 C 38.76 4.91 43.70 9.79 45.78 16.12 C 50.84 28.50 47.87 41.98 47.30 54.86 C 46.90 59.43 41.31 58.81 38.03 58.76 C 37.72 59.84 37.39 60.93 37.04 62.00 C 33.69 62.00 30.35 62.01 27.00 61.99 C 26.63 60.92 26.28 59.84 25.96 58.76 C 23.22 58.57 19.93 59.41 17.72 57.31 C 16.39 55.94 16.69 53.85 16.46 52.12 C 16.04 44.08 15.05 36.04 15.38 27.98 C 16.48 19.36 19.16 9.96 26.59 4.67 M 22.59 12.52 C 19.30 18.44 17.52 25.27 17.57 32.05 C 17.63 39.29 18.55 46.59 18.85 53.85 C 18.92 57.55 23.28 56.20 25.66 56.57 C 25.71 54.83 25.12 52.43 27.01 51.39 C 30.33 51.15 33.68 51.14 37.00 51.39 C 38.88 52.45 38.27 54.79 38.33 56.56 C 40.29 56.47 42.29 56.60 44.23 56.17 C 45.62 54.03 45.31 51.36 45.50 48.94 C 45.50 43.30 46.64 37.67 46.42 32.06 C 46.48 25.26 44.68 18.41 41.38 12.47 C 39.34 8.51 35.41 6.17 32.02 3.50 C 28.65 6.23 24.62 8.52 22.59 12.52 M 27.85 53.61 C 28.16 55.81 28.42 58.02 28.61 60.23 C 30.86 60.25 33.11 60.26 35.36 60.28 C 35.61 58.06 35.87 55.83 36.14 53.61 C 33.38 53.60 30.62 53.60 27.85 53.61 Z" />
<path fill="#030203" opacity="1.00" d=" M 20.71 28.96 C 28.22 28.86 35.73 28.94 43.23 28.91 C 43.34 29.79 43.46 30.67 43.58 31.55 C 43.84 33.58 44.15 35.60 44.50 37.61 C 36.17 37.58 27.83 37.58 19.50 37.61 C 19.85 35.60 20.18 33.59 20.41 31.57 C 20.49 30.91 20.64 29.61 20.71 28.96 Z" />
</g>
<g id="#f4f4f4ff">
<path fill="#f4f4f4" opacity="1.00" d=" M 22.59 12.52 C 24.62 8.52 28.65 6.23 32.02 3.50 C 35.41 6.17 39.34 8.51 41.38 12.47 C 44.68 18.41 46.48 25.26 46.42 32.06 C 45.71 31.94 44.29 31.68 43.58 31.55 C 43.46 30.67 43.34 29.79 43.23 28.91 C 35.73 28.94 28.22 28.86 20.71 28.96 C 20.64 29.61 20.49 30.91 20.41 31.57 C 19.70 31.69 18.28 31.93 17.57 32.05 C 17.52 25.27 19.30 18.44 22.59 12.52 Z" />
</g>
<g id="#dededeff">
<path fill="#dedede" opacity="1.00" d=" M 17.57 32.05 C 18.28 31.93 19.70 31.69 20.41 31.57 C 20.18 33.59 19.85 35.60 19.50 37.61 C 27.83 37.58 36.17 37.58 44.50 37.61 C 44.15 35.60 43.84 33.58 43.58 31.55 C 44.29 31.68 45.71 31.94 46.42 32.06 C 46.64 37.67 45.50 43.30 45.50 48.94 C 45.31 51.36 45.62 54.03 44.23 56.17 C 42.29 56.60 40.29 56.47 38.33 56.56 C 38.27 54.79 38.88 52.45 37.00 51.39 C 33.68 51.14 30.33 51.15 27.01 51.39 C 25.12 52.43 25.71 54.83 25.66 56.57 C 23.28 56.20 18.92 57.55 18.85 53.85 C 18.55 46.59 17.63 39.29 17.57 32.05 Z" />
</g>
<g id="#d6d6d6ff">
<path fill="#d6d6d6" opacity="1.00" d=" M 27.85 53.61 C 30.62 53.60 33.38 53.60 36.14 53.61 C 35.87 55.83 35.61 58.06 35.36 60.28 C 33.11 60.26 30.86 60.25 28.61 60.23 C 28.42 58.02 28.16 55.81 27.85 53.61 Z" />
</g>
<g id="#00000073">
<path fill="#000000" opacity="0.45" d=" M 27.00 61.99 C 30.35 62.01 33.69 62.00 37.04 62.00 C 36.71 62.50 36.06 63.50 35.74 64.00 L 28.17 64.00 C 27.88 63.50 27.29 62.49 27.00 61.99 Z" />
</g>
</svg>
