<?xml version="1.0" encoding="UTF-8" ?>
<!DOCTYPE svg PUBLIC "-//W3C//DTD SVG 1.1//EN" "http://www.w3.org/Graphics/SVG/1.1/DTD/svg11.dtd">
<svg width="64pt" height="64pt" viewBox="0 0 64 64" version="1.1" xmlns="http://www.w3.org/2000/svg">
<g id="#2627262d">
<path fill="#262726" opacity="0.18" d=" M 12.00 24.73 C 14.06 24.86 16.13 24.94 18.20 24.97 C 18.31 25.62 18.55 26.93 18.66 27.58 C 20.33 27.56 22.00 27.56 23.67 27.59 C 24.41 26.66 25.14 25.71 25.88 24.77 C 34.30 25.18 42.73 25.02 51.15 24.85 C 50.98 29.61 50.98 34.38 51.15 39.14 C 43.07 38.93 34.98 38.96 26.90 39.12 C 25.33 39.19 24.68 37.35 23.50 36.60 C 21.89 36.28 20.25 36.41 18.63 36.38 C 18.53 37.04 18.34 38.37 18.24 39.03 C 16.16 39.06 14.08 39.14 12.00 39.27 C 11.94 34.42 11.94 29.58 12.00 24.73 M 14.07 26.97 C 14.04 30.27 14.06 33.58 14.08 36.89 C 14.62 36.86 15.71 36.81 16.25 36.79 C 16.40 36.25 16.68 35.18 16.82 34.64 C 20.00 34.30 23.20 34.53 26.39 34.51 C 26.44 35.13 26.52 36.35 26.57 36.97 C 34.01 36.88 41.46 36.97 48.90 36.90 C 48.94 33.63 48.94 30.36 48.90 27.09 C 41.46 27.03 34.02 27.13 26.57 27.03 C 26.53 27.65 26.43 28.89 26.38 29.51 C 23.22 29.50 20.06 29.52 16.90 29.40 C 16.77 27.69 15.82 26.83 14.07 26.97 Z" />
</g>
<g id="#010101ff">
<path fill="#010101" opacity="1.00" d=" M 14.07 26.97 C 15.82 26.83 16.77 27.69 16.90 29.40 C 20.06 29.52 23.22 29.50 26.38 29.51 C 26.43 28.89 26.53 27.65 26.57 27.03 C 34.02 27.13 41.46 27.03 48.90 27.09 C 48.94 30.36 48.94 33.63 48.90 36.90 C 41.46 36.97 34.01 36.88 26.57 36.97 C 26.52 36.35 26.44 35.13 26.39 34.51 C 23.20 34.53 20.00 34.30 16.82 34.64 C 16.68 35.18 16.40 36.25 16.25 36.79 C 15.71 36.81 14.62 36.86 14.08 36.89 C 14.06 33.58 14.04 30.27 14.07 26.97 Z" />
</g>
</svg>
