<?xml version="1.0" encoding="UTF-8" ?>
<!DOCTYPE svg PUBLIC "-//W3C//DTD SVG 1.1//EN" "http://www.w3.org/Graphics/SVG/1.1/DTD/svg11.dtd">
<svg width="64pt" height="64pt" viewBox="0 0 64 64" version="1.1" xmlns="http://www.w3.org/2000/svg">
<g id="#d0a29ffc">
<path fill="#d0a29f" opacity="1.00" d=" M 0.00 0.00 L 0.60 0.00 C 0.84 0.49 1.33 1.47 1.57 1.96 C 2.95 3.87 4.85 1.23 3.24 0.00 L 8.53 0.00 C 8.63 2.81 7.90 5.52 7.08 8.18 C 7.39 5.63 7.44 3.05 7.27 0.49 C 5.93 1.01 4.95 2.02 4.67 3.45 C 3.69 6.56 3.13 9.81 3.04 13.07 C 3.06 16.15 2.94 19.27 1.90 22.20 C 4.26 21.36 6.65 20.60 8.99 19.70 C 9.11 19.21 9.35 18.24 9.46 17.75 C 10.18 18.47 10.93 19.16 11.71 19.82 C 11.25 20.18 10.33 20.91 9.87 21.27 C 7.02 22.56 4.01 23.44 1.01 24.33 C 0.29 30.04 0.93 35.80 0.49 41.53 L 0.00 41.26 L 0.00 15.08 C 0.53 15.25 1.58 15.59 2.11 15.76 C 3.14 14.36 1.49 12.31 0.00 13.56 L 0.00 13.15 C 1.51 11.47 2.18 9.46 1.54 7.26 C 1.94 6.02 1.83 4.06 0.00 4.62 L 0.00 0.00 Z" />
<path fill="#d0a29f" opacity="1.00" d=" M 28.94 0.00 L 36.13 0.00 C 37.06 0.67 37.56 1.61 37.65 2.82 C 35.81 0.56 32.68 1.38 30.14 0.87 L 28.94 0.00 Z" />
<path fill="#d0a29f" opacity="1.00" d=" M 61.96 39.19 C 62.67 38.27 63.34 37.32 64.00 36.36 L 64.00 64.00 L 14.85 64.00 C 15.52 63.53 16.86 62.58 17.53 62.11 C 24.01 62.60 30.51 62.27 36.99 62.79 C 45.80 63.27 55.38 62.95 62.92 57.82 C 63.78 54.93 63.17 51.86 63.21 48.90 C 63.20 47.30 63.29 45.71 63.37 44.12 C 63.13 42.51 64.37 39.62 61.96 39.19 Z" />
<path fill="#d0a29f" opacity="1.00" d=" M 0.00 42.23 L 0.93 42.45 C 0.89 46.52 0.04 50.74 1.43 54.68 C 1.07 55.00 0.36 55.63 0.00 55.94 L 0.00 42.23 Z" />
</g>
<g id="#a6725ffb">
<path fill="#a6725f" opacity="1.00" d=" M 0.60 0.00 L 1.53 0.00 C 1.54 0.49 1.56 1.47 1.57 1.96 C 1.33 1.47 0.84 0.49 0.60 0.00 Z" />
<path fill="#a6725f" opacity="1.00" d=" M 0.00 4.62 C 1.83 4.06 1.94 6.02 1.54 7.26 C 1.16 7.49 0.39 7.95 0.00 8.18 L 0.00 4.62 Z" />
<path fill="#a6725f" opacity="1.00" d=" M 0.00 13.56 C 1.49 12.31 3.14 14.36 2.11 15.76 C 1.58 15.59 0.53 15.25 0.00 15.08 L 0.00 13.56 Z" />
<path fill="#a6725f" opacity="1.00" d=" M 40.92 19.29 C 49.62 17.64 56.45 24.34 64.00 27.34 L 64.00 28.72 C 62.78 27.61 61.00 27.13 59.49 27.95 C 56.77 26.94 54.18 25.61 51.85 23.88 C 49.22 20.57 44.63 20.57 40.92 19.29 Z" />
<path fill="#a6725f" opacity="1.00" d=" M 7.57 49.23 C 8.00 49.28 8.86 49.39 9.29 49.44 C 7.47 51.26 5.37 52.87 3.98 55.07 C 2.54 57.72 3.48 60.86 3.90 63.65 L 3.98 64.00 L 0.00 64.00 L 0.00 63.17 C 0.48 62.89 1.45 62.32 1.93 62.04 C 1.96 60.01 1.88 57.98 1.78 55.96 C 1.34 56.36 0.45 57.16 0.00 57.57 L 0.00 55.94 C 0.36 55.63 1.07 55.00 1.43 54.68 C 3.49 52.89 5.42 50.93 7.57 49.23 Z" />
</g>
<g id="#fac4b2ff">
<path fill="#fac4b2" opacity="1.00" d=" M 1.53 0.00 L 3.24 0.00 C 4.85 1.23 2.95 3.87 1.57 1.96 C 1.56 1.47 1.54 0.49 1.53 0.00 Z" />
<path fill="#fac4b2" opacity="1.00" d=" M 1.54 7.26 C 2.18 9.46 1.51 11.47 0.00 13.15 L 0.00 8.18 C 0.39 7.95 1.16 7.49 1.54 7.26 Z" />
<path fill="#fac4b2" opacity="1.00" d=" M 13.28 19.41 C 13.65 18.29 14.06 17.19 14.50 16.11 C 18.23 17.02 22.22 15.12 25.72 17.14 C 31.07 18.99 34.26 23.83 38.06 27.67 C 37.64 30.53 38.31 33.34 39.33 35.99 C 38.00 37.52 36.69 39.08 35.62 40.81 C 37.35 40.49 39.07 40.17 40.80 39.87 C 40.62 41.20 40.43 42.54 40.24 43.88 C 41.47 43.55 42.70 43.22 43.93 42.89 C 44.23 43.45 44.85 44.56 45.15 45.12 C 46.33 44.86 47.50 44.61 48.68 44.35 C 48.55 45.25 48.43 46.16 48.31 47.06 C 49.74 46.52 51.18 45.97 52.62 45.43 C 52.57 46.25 52.52 47.07 52.46 47.90 C 56.08 46.41 60.31 46.93 63.37 44.12 C 63.29 45.71 63.20 47.30 63.21 48.90 C 59.60 50.13 55.87 51.47 51.98 51.07 C 48.40 50.77 44.81 50.71 41.23 50.94 C 41.35 50.03 41.48 49.12 41.61 48.21 C 40.04 48.36 38.17 49.60 36.84 48.22 C 33.20 45.12 29.68 41.63 27.77 37.15 C 25.69 32.15 21.05 29.05 17.66 25.03 C 18.88 24.38 20.10 23.72 21.31 23.05 C 21.69 23.75 22.47 25.15 22.85 25.85 C 24.50 24.93 25.86 23.62 27.07 22.19 C 25.66 22.59 24.25 23.02 22.85 23.44 C 22.45 23.07 21.65 22.32 21.25 21.94 C 21.72 21.06 22.20 20.17 22.67 19.29 C 19.54 19.44 16.41 19.36 13.28 19.41 Z" />
</g>
<g id="#200a04ff">
<path fill="#200a04" opacity="1.00" d=" M 8.53 0.00 L 11.16 0.00 L 11.36 0.68 C 12.22 3.55 14.10 5.97 15.47 8.60 C 15.59 11.14 15.98 13.85 14.50 16.11 C 14.06 17.19 13.65 18.29 13.28 19.41 C 12.75 19.53 12.23 19.67 11.71 19.82 C 10.93 19.16 10.18 18.47 9.46 17.75 C 9.11 15.18 8.75 12.60 8.33 10.03 C 7.77 12.15 7.54 14.34 7.37 16.52 C 7.14 15.68 6.91 14.84 6.71 13.99 C 6.62 12.05 6.74 10.10 7.08 8.18 C 7.90 5.52 8.63 2.81 8.53 0.00 M 9.43 4.76 C 9.43 6.75 9.46 8.74 9.36 10.73 C 9.97 10.68 11.20 10.60 11.81 10.55 C 11.57 9.46 10.65 8.81 9.85 8.13 C 9.72 7.00 9.58 5.88 9.43 4.76 M 9.86 12.66 C 9.00 14.72 10.18 20.87 13.18 18.40 C 13.39 17.57 13.81 15.92 14.02 15.09 C 11.44 16.60 11.18 13.91 9.86 12.66 Z" />
<path fill="#200a04" opacity="1.00" d=" M 36.13 0.00 L 38.10 0.00 C 38.80 5.29 39.60 11.73 44.76 14.63 C 50.45 18.08 56.92 20.84 63.67 20.81 C 63.74 19.93 63.86 18.16 63.92 17.28 C 58.32 17.20 53.39 14.34 48.04 13.11 C 47.84 12.90 47.43 12.49 47.22 12.29 C 52.80 13.72 58.11 16.12 63.84 16.98 C 63.92 14.28 63.92 11.56 63.48 8.88 C 60.56 8.22 57.58 7.70 54.80 6.56 C 57.36 6.30 59.87 6.88 62.22 7.85 C 62.66 8.04 63.55 8.42 64.00 8.61 L 64.00 21.64 C 56.58 21.92 49.54 18.66 43.51 14.59 C 39.55 12.00 38.80 7.04 37.65 2.82 C 37.56 1.61 37.06 0.67 36.13 0.00 Z" />
<path fill="#200a04" opacity="1.00" d=" M 40.18 0.00 L 41.16 0.00 C 41.62 1.02 42.04 2.05 42.42 3.10 C 43.26 5.99 43.87 9.15 46.06 11.38 C 42.13 8.89 43.19 3.23 40.18 0.00 Z" />
<path fill="#200a04" opacity="1.00" d=" M 3.42 25.46 C 6.72 26.39 9.84 27.83 12.94 29.27 C 12.80 32.42 8.87 32.14 6.79 33.45 C 4.10 31.88 2.63 28.49 3.42 25.46 Z" />
<path fill="#200a04" opacity="1.00" d=" M 6.49 40.05 C 7.94 44.65 11.65 48.02 15.33 50.91 C 20.19 54.48 26.56 53.46 32.20 53.46 C 30.37 55.40 28.80 57.77 26.29 58.89 C 23.41 60.08 20.40 60.89 17.53 62.11 C 16.86 62.58 15.52 63.53 14.85 64.00 L 3.98 64.00 L 3.90 63.65 C 8.00 63.75 12.54 64.72 16.22 62.36 C 21.02 59.45 27.49 59.51 30.84 54.38 C 26.13 54.64 21.48 54.07 16.87 53.17 C 15.94 53.79 15.02 54.40 14.08 55.01 C 15.03 54.20 15.98 53.41 16.94 52.62 C 15.35 51.46 13.75 50.31 12.14 49.18 C 11.43 49.25 10.00 49.38 9.29 49.44 C 8.86 49.39 8.00 49.28 7.57 49.23 C 7.07 47.23 6.23 45.35 5.29 43.53 C 3.83 43.18 2.38 42.81 0.93 42.45 L 0.00 42.23 L 0.00 41.26 L 0.49 41.53 C 2.47 42.46 4.64 42.66 6.79 42.79 C 6.71 42.11 6.56 40.74 6.49 40.05 Z" />
</g>
<g id="#fcd4bdff">
<path fill="#fcd4bd" opacity="1.00" d=" M 11.16 0.00 L 28.94 0.00 L 30.14 0.87 C 23.89 0.37 17.62 0.63 11.36 0.68 L 11.16 0.00 Z" />
<path fill="#fcd4bd" opacity="1.00" d=" M 41.16 0.00 L 64.00 0.00 L 64.00 8.61 C 63.55 8.42 62.66 8.04 62.22 7.85 C 63.77 5.85 62.99 3.33 62.78 1.05 C 56.23 0.09 49.61 0.91 43.05 1.30 C 42.89 1.75 42.58 2.65 42.42 3.10 C 42.04 2.05 41.62 1.02 41.16 0.00 Z" />
<path fill="#fcd4bd" opacity="1.00" d=" M 7.37 16.52 C 7.54 14.34 7.77 12.15 8.33 10.03 C 8.75 12.60 9.11 15.18 9.46 17.75 C 9.35 18.24 9.11 19.21 8.99 19.70 C 6.65 20.60 4.26 21.36 1.90 22.20 C 2.94 19.27 3.06 16.15 3.04 13.07 C 4.26 13.38 5.48 13.69 6.71 13.99 C 6.91 14.84 7.14 15.68 7.37 16.52 Z" />
<path fill="#fcd4bd" opacity="1.00" d=" M 1.01 24.33 C 4.01 23.44 7.02 22.56 9.87 21.27 C 11.26 22.09 12.58 23.13 14.17 23.54 C 16.56 23.39 18.90 22.49 21.31 23.05 C 20.10 23.72 18.88 24.38 17.66 25.03 C 21.05 29.05 25.69 32.15 27.77 37.15 C 29.68 41.63 33.20 45.12 36.84 48.22 C 38.17 49.60 40.04 48.36 41.61 48.21 C 41.48 49.12 41.35 50.03 41.23 50.94 C 44.81 50.71 48.40 50.77 51.98 51.07 C 55.87 51.47 59.60 50.13 63.21 48.90 C 63.17 51.86 63.78 54.93 62.92 57.82 C 55.38 62.95 45.80 63.27 36.99 62.79 C 30.51 62.27 24.01 62.60 17.53 62.11 C 20.40 60.89 23.41 60.08 26.29 58.89 C 28.80 57.77 30.37 55.40 32.20 53.46 C 26.56 53.46 20.19 54.48 15.33 50.91 C 11.65 48.02 7.94 44.65 6.49 40.05 C 6.56 40.74 6.71 42.11 6.79 42.79 C 4.64 42.66 2.47 42.46 0.49 41.53 C 0.93 35.80 0.29 30.04 1.01 24.33 M 3.42 25.46 C 2.63 28.49 4.10 31.88 6.79 33.45 C 8.87 32.14 12.80 32.42 12.94 29.27 C 9.84 27.83 6.72 26.39 3.42 25.46 Z" />
<path fill="#fcd4bd" opacity="1.00" d=" M 39.48 33.84 C 40.50 36.61 43.44 37.69 46.18 37.57 C 49.16 43.12 57.80 43.50 61.96 39.19 C 64.37 39.62 63.13 42.51 63.37 44.12 C 60.31 46.93 56.08 46.41 52.46 47.90 C 52.52 47.07 52.57 46.25 52.62 45.43 C 51.18 45.97 49.74 46.52 48.31 47.06 C 48.43 46.16 48.55 45.25 48.68 44.35 C 47.50 44.61 46.33 44.86 45.15 45.12 C 44.85 44.56 44.23 43.45 43.93 42.89 C 42.70 43.22 41.47 43.55 40.24 43.88 C 40.43 42.54 40.62 41.20 40.80 39.87 C 39.07 40.17 37.35 40.49 35.62 40.81 C 36.69 39.08 38.00 37.52 39.33 35.99 C 39.37 35.45 39.44 34.37 39.48 33.84 Z" />
<path fill="#fcd4bd" opacity="1.00" d=" M 0.93 42.45 C 2.38 42.81 3.83 43.18 5.29 43.53 C 6.23 45.35 7.07 47.23 7.57 49.23 C 5.42 50.93 3.49 52.89 1.43 54.68 C 0.04 50.74 0.89 46.52 0.93 42.45 Z" />
<path fill="#fcd4bd" opacity="1.00" d=" M 0.00 57.57 C 0.45 57.16 1.34 56.36 1.78 55.96 C 1.88 57.98 1.96 60.01 1.93 62.04 C 1.45 62.32 0.48 62.89 0.00 63.17 L 0.00 57.57 Z" />
</g>
<g id="#fb6460ff">
<path fill="#fb6460" opacity="1.00" d=" M 38.10 0.00 L 40.18 0.00 C 43.19 3.23 42.13 8.89 46.06 11.38 C 46.35 11.61 46.93 12.06 47.22 12.29 C 47.43 12.49 47.84 12.90 48.04 13.11 C 53.39 14.34 58.32 17.20 63.92 17.28 C 63.86 18.16 63.74 19.93 63.67 20.81 C 56.92 20.84 50.45 18.08 44.76 14.63 C 39.60 11.73 38.80 5.29 38.10 0.00 Z" />
<path fill="#fb6460" opacity="1.00" d=" M 9.29 49.44 C 10.00 49.38 11.43 49.25 12.14 49.18 C 13.75 50.31 15.35 51.46 16.94 52.62 C 15.98 53.41 15.03 54.20 14.08 55.01 C 15.02 54.40 15.94 53.79 16.87 53.17 C 21.48 54.07 26.13 54.64 30.84 54.38 C 27.49 59.51 21.02 59.45 16.22 62.36 C 12.54 64.72 8.00 63.75 3.90 63.65 C 3.48 60.86 2.54 57.72 3.98 55.07 C 5.37 52.87 7.47 51.26 9.29 49.44 Z" />
</g>
<g id="#f9f3f6ff">
<path fill="#f9f3f6" opacity="1.00" d=" M 4.67 3.45 C 4.95 2.02 5.93 1.01 7.27 0.49 C 7.44 3.05 7.39 5.63 7.08 8.18 C 6.74 10.10 6.62 12.05 6.71 13.99 C 5.48 13.69 4.26 13.38 3.04 13.07 C 3.13 9.81 3.69 6.56 4.67 3.45 Z" />
<path fill="#f9f3f6" opacity="1.00" d=" M 11.36 0.68 C 17.62 0.63 23.89 0.37 30.14 0.87 C 32.68 1.38 35.81 0.56 37.65 2.82 C 38.80 7.04 39.55 12.00 43.51 14.59 C 49.54 18.66 56.58 21.92 64.00 21.64 L 64.00 27.34 C 56.45 24.34 49.62 17.64 40.92 19.29 C 44.63 20.57 49.22 20.57 51.85 23.88 C 48.02 22.08 43.65 21.17 39.52 22.49 C 39.23 24.27 38.72 26.00 38.06 27.67 C 34.26 23.83 31.07 18.99 25.72 17.14 C 22.22 15.12 18.23 17.02 14.50 16.11 C 15.98 13.85 15.59 11.14 15.47 8.60 C 14.10 5.97 12.22 3.55 11.36 0.68 Z" />
<path fill="#f9f3f6" opacity="1.00" d=" M 43.05 1.30 C 49.61 0.91 56.23 0.09 62.78 1.05 C 62.99 3.33 63.77 5.85 62.22 7.85 C 59.87 6.88 57.36 6.30 54.80 6.56 C 57.58 7.70 60.56 8.22 63.48 8.88 C 63.92 11.56 63.92 14.28 63.84 16.98 C 58.11 16.12 52.80 13.72 47.22 12.29 C 46.93 12.06 46.35 11.61 46.06 11.38 C 43.87 9.15 43.26 5.99 42.42 3.10 C 42.58 2.65 42.89 1.75 43.05 1.30 Z" />
<path fill="#f9f3f6" opacity="1.00" d=" M 9.43 4.76 C 9.58 5.88 9.72 7.00 9.85 8.13 C 10.65 8.81 11.57 9.46 11.81 10.55 C 11.20 10.60 9.97 10.68 9.36 10.73 C 9.46 8.74 9.43 6.75 9.43 4.76 Z" />
<path fill="#f9f3f6" opacity="1.00" d=" M 11.71 19.82 C 12.23 19.67 12.75 19.53 13.28 19.41 C 16.41 19.36 19.54 19.44 22.67 19.29 C 22.20 20.17 21.72 21.06 21.25 21.94 C 21.65 22.32 22.45 23.07 22.85 23.44 C 24.25 23.02 25.66 22.59 27.07 22.19 C 25.86 23.62 24.50 24.93 22.85 25.85 C 22.47 25.15 21.69 23.75 21.31 23.05 C 18.90 22.49 16.56 23.39 14.17 23.54 C 12.58 23.13 11.26 22.09 9.87 21.27 C 10.33 20.91 11.25 20.18 11.71 19.82 Z" />
<path fill="#f9f3f6" opacity="1.00" d=" M 47.86 27.88 C 48.97 27.42 50.10 26.98 51.23 26.55 C 52.06 28.19 51.90 29.74 50.24 30.72 C 49.89 30.54 49.21 30.19 48.87 30.01 C 48.52 29.31 48.18 28.60 47.86 27.88 Z" />
<path fill="#f9f3f6" opacity="1.00" d=" M 59.49 27.95 C 61.00 27.13 62.78 27.61 64.00 28.72 L 64.00 29.33 C 62.35 29.86 60.88 28.64 59.49 27.95 Z" />
<path fill="#f9f3f6" opacity="1.00" d=" M 39.26 31.37 C 41.53 30.91 44.15 29.89 46.23 31.47 C 45.63 33.46 45.65 35.56 46.18 37.57 C 43.44 37.69 40.50 36.61 39.48 33.84 C 39.42 33.22 39.31 31.99 39.26 31.37 Z" />
<path fill="#f9f3f6" opacity="1.00" d=" M 56.27 35.46 C 58.10 35.52 59.93 35.65 61.76 35.83 C 61.71 35.93 61.60 36.14 61.55 36.24 C 60.25 36.43 58.93 36.55 57.64 36.81 C 57.18 36.36 56.73 35.91 56.27 35.46 Z" />
</g>
<g id="#18457dff">
<path fill="#18457d" opacity="1.00" d=" M 9.86 12.66 C 11.18 13.91 11.44 16.60 14.02 15.09 C 13.81 15.92 13.39 17.57 13.18 18.40 C 10.18 20.87 9.00 14.72 9.86 12.66 Z" />
<path fill="#18457d" opacity="1.00" d=" M 47.70 33.17 C 48.07 32.11 48.46 31.06 48.87 30.01 C 49.21 30.19 49.89 30.54 50.24 30.72 C 50.86 32.93 50.65 35.78 52.80 37.21 C 54.24 38.46 56.22 37.65 57.64 36.81 C 58.93 36.55 60.25 36.43 61.55 36.24 C 60.91 37.81 60.20 39.47 58.57 40.23 L 58.83 38.28 C 56.77 38.31 54.55 38.96 52.56 38.13 C 50.25 37.14 50.50 33.23 47.70 33.17 Z" />
</g>
<g id="#0e0301ff">
<path fill="#0e0301" opacity="1.00" d=" M 39.52 22.49 C 43.65 21.17 48.02 22.08 51.85 23.88 C 54.18 25.61 56.77 26.94 59.49 27.95 C 60.88 28.64 62.35 29.86 64.00 29.33 L 64.00 36.36 C 63.34 37.32 62.67 38.27 61.96 39.19 C 57.80 43.50 49.16 43.12 46.18 37.57 C 45.65 35.56 45.63 33.46 46.23 31.47 C 46.68 30.24 47.23 29.04 47.86 27.88 C 48.18 28.60 48.52 29.31 48.87 30.01 C 48.46 31.06 48.07 32.11 47.70 33.17 C 47.57 35.62 47.94 38.40 50.00 40.02 C 52.35 42.24 55.96 41.57 58.57 40.23 C 60.20 39.47 60.91 37.81 61.55 36.24 C 61.60 36.14 61.71 35.93 61.76 35.83 C 59.93 35.65 58.10 35.52 56.27 35.46 C 56.73 35.91 57.18 36.36 57.64 36.81 C 56.22 37.65 54.24 38.46 52.80 37.21 C 50.65 35.78 50.86 32.93 50.24 30.72 C 51.90 29.74 52.06 28.19 51.23 26.55 C 48.31 25.08 45.25 23.28 41.86 23.54 C 40.15 23.98 40.06 26.20 39.25 27.50 C 38.96 27.54 38.36 27.63 38.06 27.67 C 38.72 26.00 39.23 24.27 39.52 22.49 Z" />
</g>
<g id="#696768ff">
<path fill="#696768" opacity="1.00" d=" M 39.25 27.50 C 40.06 26.20 40.15 23.98 41.86 23.54 C 45.25 23.28 48.31 25.08 51.23 26.55 C 50.10 26.98 48.97 27.42 47.86 27.88 C 47.23 29.04 46.68 30.24 46.23 31.47 C 44.15 29.89 41.53 30.91 39.26 31.37 C 39.31 31.99 39.42 33.22 39.48 33.84 C 39.44 34.37 39.37 35.45 39.33 35.99 C 38.31 33.34 37.64 30.53 38.06 27.67 C 38.36 27.63 38.96 27.54 39.25 27.50 Z" />
</g>
<g id="#13b6dbff">
<path fill="#13b6db" opacity="1.00" d=" M 47.70 33.17 C 50.50 33.23 50.25 37.14 52.56 38.13 C 54.55 38.96 56.77 38.31 58.83 38.28 L 58.57 40.23 C 55.96 41.57 52.35 42.24 50.00 40.02 C 47.94 38.40 47.57 35.62 47.70 33.17 Z" />
</g>
</svg>
