<?xml version="1.0" encoding="UTF-8" ?>
<!DOCTYPE svg PUBLIC "-//W3C//DTD SVG 1.1//EN" "http://www.w3.org/Graphics/SVG/1.1/DTD/svg11.dtd">
<svg width="64pt" height="64pt" viewBox="0 0 64 64" version="1.1" xmlns="http://www.w3.org/2000/svg">
<g id="#000000ff">
<path fill="#000000" opacity="1.00" d=" M 8.01 19.22 C 15.39 14.19 22.57 8.86 30.16 4.15 C 32.33 2.73 35.04 3.71 36.91 5.15 C 40.74 7.88 44.63 10.54 48.38 13.37 L 48.65 13.67 L 49.04 13.82 C 49.41 14.07 50.15 14.57 50.52 14.82 C 52.23 16.87 54.49 18.28 56.87 19.44 C 60.48 23.42 59.75 32.60 53.27 33.25 C 53.30 39.84 53.31 46.43 53.29 53.02 C 53.45 55.60 51.37 57.95 48.88 58.40 C 45.99 59.39 42.99 58.28 40.04 58.43 C 32.99 58.60 25.93 58.19 18.89 58.77 C 17.66 58.66 16.12 58.65 15.23 57.67 C 14.47 56.21 13.77 54.60 12.32 53.69 L 11.88 53.35 C 12.00 46.64 11.82 39.92 12.00 33.21 C 9.40 32.98 6.28 32.11 5.53 29.23 C 4.85 25.82 4.60 21.28 8.01 19.22 M 28.22 8.14 C 21.51 12.95 14.59 17.45 7.86 22.22 C 7.39 24.44 7.33 26.77 7.75 29.01 C 9.18 30.87 11.49 30.73 13.58 30.63 C 13.79 30.87 14.21 31.36 14.42 31.60 C 14.20 35.83 14.40 40.07 14.33 44.30 C 14.34 47.56 14.19 50.83 14.45 54.08 C 15.51 56.29 18.14 56.42 20.26 56.27 C 20.27 54.68 20.30 53.08 20.31 51.49 C 28.55 51.50 36.79 51.44 45.03 51.52 C 45.05 53.12 45.07 54.73 45.09 56.33 C 47.11 56.26 50.18 56.41 50.85 53.95 C 51.33 49.26 50.97 44.52 51.06 39.81 C 51.07 37.09 51.19 34.35 50.83 31.64 C 52.02 29.71 55.04 31.25 56.22 29.00 C 56.52 26.19 57.41 22.19 54.42 20.50 C 47.97 15.91 41.44 11.44 35.10 6.71 C 32.89 4.84 30.12 6.79 28.22 8.14 Z" />
<path fill="#000000" opacity="1.00" d=" M 20.29 31.14 C 28.50 30.99 36.75 30.80 44.97 31.17 C 44.95 32.87 44.93 34.57 44.92 36.27 C 36.71 36.28 28.51 36.29 20.30 36.26 C 20.30 34.55 20.29 32.85 20.29 31.14 Z" />
<path fill="#000000" opacity="1.00" d=" M 20.38 41.38 C 28.56 41.26 36.74 41.35 44.92 41.33 C 44.91 43.09 44.92 44.84 44.93 46.60 C 36.72 46.21 28.49 46.41 20.27 46.48 C 20.30 44.78 20.35 43.08 20.38 41.38 Z" />
</g>
<g id="#f0f0f0ff">
<path fill="#f0f0f0" opacity="1.00" d=" M 28.22 8.14 C 30.12 6.79 32.89 4.84 35.10 6.71 C 41.44 11.44 47.97 15.91 54.42 20.50 C 57.41 22.19 56.52 26.19 56.22 29.00 C 55.04 31.25 52.02 29.71 50.83 31.64 C 48.86 31.69 46.91 31.41 44.97 31.17 C 36.75 30.80 28.50 30.99 20.29 31.14 C 18.33 31.31 16.38 31.47 14.42 31.60 C 14.21 31.36 13.79 30.87 13.58 30.63 C 11.49 30.73 9.18 30.87 7.75 29.01 C 7.33 26.77 7.39 24.44 7.86 22.22 C 14.59 17.45 21.51 12.95 28.22 8.14 Z" />
</g>
<g id="#373837ef">
<path fill="#373837" opacity="0.94" d=" M 48.38 13.37 C 48.54 13.48 48.87 13.71 49.04 13.82 L 48.65 13.67 L 48.38 13.37 Z" />
<path fill="#373837" opacity="0.94" d=" M 50.52 14.82 C 52.85 16.03 55.15 17.41 56.87 19.44 C 54.49 18.28 52.23 16.87 50.52 14.82 Z" />
<path fill="#373837" opacity="0.94" d=" M 12.32 53.69 C 13.77 54.60 14.47 56.21 15.23 57.67 C 13.19 58.38 11.53 55.38 12.32 53.69 Z" />
</g>
<g id="#dadcdaff">
<path fill="#dadcda" opacity="1.00" d=" M 14.42 31.60 C 16.38 31.47 18.33 31.31 20.29 31.14 C 20.29 32.85 20.30 34.55 20.30 36.26 C 28.51 36.29 36.71 36.28 44.92 36.27 C 44.93 34.57 44.95 32.87 44.97 31.17 C 46.91 31.41 48.86 31.69 50.83 31.64 C 51.19 34.35 51.07 37.09 51.06 39.81 C 41.36 40.21 31.65 39.82 21.95 40.00 C 19.75 39.59 19.11 41.92 18.15 43.35 C 16.88 43.66 15.60 43.98 14.33 44.30 C 14.40 40.07 14.20 35.83 14.42 31.60 Z" />
</g>
<g id="#cccbccff">
<path fill="#cccbcc" opacity="1.00" d=" M 18.15 43.35 C 19.11 41.92 19.75 39.59 21.95 40.00 C 31.65 39.82 41.36 40.21 51.06 39.81 C 50.97 44.52 51.33 49.26 50.85 53.95 C 50.18 56.41 47.11 56.26 45.09 56.33 C 45.07 54.73 45.05 53.12 45.03 51.52 C 36.79 51.44 28.55 51.50 20.31 51.49 C 20.30 53.08 20.27 54.68 20.26 56.27 C 18.14 56.42 15.51 56.29 14.45 54.08 C 14.19 50.83 14.34 47.56 14.33 44.30 C 15.60 43.98 16.88 43.66 18.15 43.35 M 20.38 41.38 C 20.35 43.08 20.30 44.78 20.27 46.48 C 28.49 46.41 36.72 46.21 44.93 46.60 C 44.92 44.84 44.91 43.09 44.92 41.33 C 36.74 41.35 28.56 41.26 20.38 41.38 Z" />
</g>
</svg>
