<?xml version="1.0" encoding="UTF-8" ?>
<!DOCTYPE svg PUBLIC "-//W3C//DTD SVG 1.1//EN" "http://www.w3.org/Graphics/SVG/1.1/DTD/svg11.dtd">
<svg width="64pt" height="64pt" viewBox="0 0 64 64" version="1.1" xmlns="http://www.w3.org/2000/svg">
<g id="#090909ff">
<path fill="#090909" opacity="1.00" d=" M 12.11 3.90 C 17.32 3.35 21.21 7.66 25.91 8.90 C 30.22 8.23 34.56 8.43 38.85 9.06 C 43.40 7.37 47.52 3.02 52.68 4.15 C 55.06 6.83 53.80 10.78 53.95 14.02 C 52.89 21.00 60.95 25.00 60.81 31.77 C 58.68 34.25 54.87 34.23 52.67 36.66 C 49.95 39.42 49.49 43.45 47.72 46.74 C 46.70 48.05 44.94 48.47 43.55 49.30 C 42.03 54.54 37.72 59.28 31.97 59.44 C 26.33 58.91 22.52 54.17 20.62 49.23 C 18.85 48.19 16.40 47.53 15.99 45.20 C 14.65 41.29 13.38 36.54 9.11 34.88 C 7.04 33.69 3.05 33.30 3.87 29.97 C 4.98 25.08 8.96 21.51 10.94 16.96 C 10.50 12.74 8.78 7.31 12.11 3.90 M 13.27 17.48 C 11.99 22.48 7.10 25.83 6.49 31.11 C 9.11 32.07 12.02 32.85 13.93 35.06 C 17.10 38.15 17.04 43.02 19.83 46.36 C 20.11 44.84 20.43 43.33 20.77 41.83 C 21.22 42.19 22.12 42.90 22.57 43.25 C 23.31 47.10 23.81 51.11 26.37 54.27 C 28.26 55.33 30.11 56.53 32.26 57.00 C 34.79 56.36 37.44 55.24 38.98 53.02 C 41.47 49.57 40.61 44.90 43.18 41.45 C 43.80 43.09 44.39 44.74 44.93 46.41 C 47.22 42.42 47.66 37.29 51.43 34.27 C 53.15 32.40 55.75 31.93 58.03 31.10 C 57.29 25.07 50.44 21.18 51.40 14.84 C 51.73 11.93 52.02 8.95 51.16 6.10 C 47.12 7.46 43.40 9.54 39.74 11.69 C 34.82 11.98 29.85 11.48 24.92 11.90 C 21.36 9.57 17.51 7.74 13.64 5.98 C 11.81 9.65 13.30 13.65 13.27 17.48 Z" />
<path fill="#090909" opacity="1.00" d=" M 39.66 15.24 C 42.78 13.49 45.72 11.45 48.82 9.65 C 48.80 12.90 48.47 16.13 47.91 19.32 C 44.85 18.71 42.07 17.20 39.66 15.24 Z" />
<path fill="#090909" opacity="1.00" d=" M 15.64 9.73 C 18.81 11.46 21.91 13.34 24.76 15.56 C 22.28 17.25 19.54 18.47 16.70 19.43 C 16.12 16.23 15.60 13.00 15.64 9.73 Z" />
<path fill="#090909" opacity="1.00" d=" M 18.15 31.78 C 19.88 30.73 21.88 29.14 23.93 30.44 C 27.50 31.64 27.97 35.91 28.68 39.04 C 23.47 40.64 21.01 34.91 18.15 31.78 Z" />
<path fill="#090909" opacity="1.00" d=" M 36.04 39.38 C 36.49 35.82 37.67 30.40 42.12 30.28 C 43.70 29.96 44.86 31.14 46.05 31.94 C 43.29 35.12 40.95 39.69 36.04 39.38 Z" />
<path fill="#090909" opacity="1.00" d=" M 28.54 49.78 C 30.99 49.22 34.75 47.84 35.95 51.03 C 37.05 53.65 34.82 55.08 32.94 56.33 C 31.45 55.72 29.84 55.28 28.65 54.14 C 28.33 52.71 28.29 51.26 28.54 49.78 Z" />
</g>
<g id="#fefefeff">
<path fill="#fefefe" opacity="1.00" d=" M 13.27 17.48 C 13.30 13.65 11.81 9.65 13.64 5.98 C 17.51 7.74 21.36 9.57 24.92 11.90 C 29.85 11.48 34.82 11.98 39.74 11.69 C 43.40 9.54 47.12 7.46 51.16 6.10 C 52.02 8.95 51.73 11.93 51.40 14.84 C 50.44 21.18 57.29 25.07 58.03 31.10 C 55.75 31.93 53.15 32.40 51.43 34.27 C 47.66 37.29 47.22 42.42 44.93 46.41 C 44.39 44.74 43.80 43.09 43.18 41.45 C 40.61 44.90 41.47 49.57 38.98 53.02 C 37.44 55.24 34.79 56.36 32.26 57.00 C 30.11 56.53 28.26 55.33 26.37 54.27 C 23.81 51.11 23.31 47.10 22.57 43.25 C 22.12 42.90 21.22 42.19 20.77 41.83 C 20.43 43.33 20.11 44.84 19.83 46.36 C 17.04 43.02 17.10 38.15 13.93 35.06 C 12.02 32.85 9.11 32.07 6.49 31.11 C 7.10 25.83 11.99 22.48 13.27 17.48 M 39.66 15.24 C 42.07 17.20 44.85 18.71 47.91 19.32 C 48.47 16.13 48.80 12.90 48.82 9.65 C 45.72 11.45 42.78 13.49 39.66 15.24 M 15.64 9.73 C 15.60 13.00 16.12 16.23 16.70 19.43 C 19.54 18.47 22.28 17.25 24.76 15.56 C 21.91 13.34 18.81 11.46 15.64 9.73 M 18.15 31.78 C 21.01 34.91 23.47 40.64 28.68 39.04 C 27.97 35.91 27.50 31.64 23.93 30.44 C 21.88 29.14 19.88 30.73 18.15 31.78 M 36.04 39.38 C 40.95 39.69 43.29 35.12 46.05 31.94 C 44.86 31.14 43.70 29.96 42.12 30.28 C 37.67 30.40 36.49 35.82 36.04 39.38 M 28.54 49.78 C 28.29 51.26 28.33 52.71 28.65 54.14 C 29.84 55.28 31.45 55.72 32.94 56.33 C 34.82 55.08 37.05 53.65 35.95 51.03 C 34.75 47.84 30.99 49.22 28.54 49.78 Z" />
</g>
</svg>
