<?xml version="1.0" encoding="UTF-8" ?>
<!DOCTYPE svg PUBLIC "-//W3C//DTD SVG 1.1//EN" "http://www.w3.org/Graphics/SVG/1.1/DTD/svg11.dtd">
<svg width="64pt" height="64pt" viewBox="0 0 64 64" version="1.1" xmlns="http://www.w3.org/2000/svg">
<g id="#010101ff">
<path fill="#010101" opacity="1.00" d=" M 28.29 4.39 C 35.83 3.46 43.74 5.43 49.58 10.38 C 56.30 15.74 60.31 24.38 59.75 33.00 C 59.79 47.08 47.18 59.78 33.09 59.75 C 21.98 60.56 11.05 53.58 6.59 43.48 C 4.19 38.60 3.89 33.01 4.46 27.69 C 6.08 15.79 16.34 5.72 28.29 4.39 M 28.47 6.42 C 20.38 7.29 13.43 12.74 9.33 19.56 C 5.60 26.28 5.28 34.72 8.07 41.83 C 9.74 46.13 12.97 49.58 16.42 52.53 C 24.79 59.28 37.63 59.49 46.41 53.41 C 50.94 49.96 55.01 45.48 56.61 39.90 C 59.38 30.94 57.26 20.29 50.18 13.87 C 44.77 7.88 36.35 5.42 28.47 6.42 Z" />
<path fill="#010101" opacity="1.00" d=" M 19.25 31.65 C 23.19 27.55 27.32 23.64 31.24 19.52 C 32.85 19.39 34.40 19.61 35.88 20.16 C 34.84 21.10 33.60 21.70 32.19 21.75 C 31.25 22.60 30.32 23.44 29.38 24.28 C 32.60 27.06 36.00 29.67 39.57 31.99 C 40.31 30.94 41.06 29.88 41.79 28.82 C 44.33 27.78 47.02 27.49 49.61 28.54 C 51.22 30.38 53.38 32.31 52.94 35.03 C 53.27 40.03 47.02 43.64 42.79 41.17 C 40.98 40.30 39.99 38.52 38.91 36.93 C 35.44 36.80 31.90 37.29 28.49 36.64 C 26.06 34.90 25.86 31.62 24.71 29.07 C 23.55 30.24 22.37 31.40 21.18 32.54 C 21.92 35.12 22.70 38.36 20.30 40.34 C 18.61 42.41 15.87 41.97 13.56 41.55 C 12.15 40.14 11.10 38.46 10.54 36.53 C 11.10 33.42 13.12 31.04 16.36 30.59 C 17.09 30.85 18.53 31.38 19.25 31.65 M 41.82 33.19 C 44.01 33.35 46.49 32.98 47.97 35.02 C 46.46 37.07 44.03 36.75 41.81 36.73 C 42.86 38.04 44.05 39.69 45.96 39.55 C 47.91 39.68 49.13 37.99 50.47 36.89 C 50.41 34.97 50.33 33.01 49.36 31.30 C 46.86 29.88 42.73 29.91 41.82 33.19 M 13.75 33.80 C 13.05 35.93 12.84 39.59 16.05 39.42 C 18.81 40.13 19.93 36.98 19.53 34.78 C 18.23 35.69 16.92 36.56 15.58 37.40 C 15.86 35.92 16.47 34.54 17.07 33.17 C 15.96 33.37 14.85 33.58 13.75 33.80 Z" />
</g>
<g id="#ffffffff">
<path fill="#ffffff" opacity="1.00" d=" M 28.47 6.42 C 36.35 5.42 44.77 7.88 50.18 13.87 C 57.26 20.29 59.38 30.94 56.61 39.90 C 55.01 45.48 50.94 49.96 46.41 53.41 C 37.63 59.49 24.79 59.28 16.42 52.53 C 12.97 49.58 9.74 46.13 8.07 41.83 C 5.28 34.72 5.60 26.28 9.33 19.56 C 13.43 12.74 20.38 7.29 28.47 6.42 M 19.25 31.65 C 18.53 31.38 17.09 30.85 16.36 30.59 C 13.12 31.04 11.10 33.42 10.54 36.53 C 11.10 38.46 12.15 40.14 13.56 41.55 C 15.87 41.97 18.61 42.41 20.30 40.34 C 22.70 38.36 21.92 35.12 21.18 32.54 C 22.37 31.40 23.55 30.24 24.71 29.07 C 25.86 31.62 26.06 34.90 28.49 36.64 C 31.90 37.29 35.44 36.80 38.91 36.93 C 39.99 38.52 40.98 40.30 42.79 41.17 C 47.02 43.64 53.27 40.03 52.94 35.03 C 53.38 32.31 51.22 30.38 49.61 28.54 C 47.02 27.49 44.33 27.78 41.79 28.82 C 41.06 29.88 40.31 30.94 39.57 31.99 C 36.00 29.67 32.60 27.06 29.38 24.28 C 30.32 23.44 31.25 22.60 32.19 21.75 C 33.60 21.70 34.84 21.10 35.88 20.16 C 34.40 19.61 32.85 19.39 31.24 19.52 C 27.32 23.64 23.19 27.55 19.25 31.65 Z" />
<path fill="#ffffff" opacity="1.00" d=" M 41.82 33.19 C 42.73 29.91 46.86 29.88 49.36 31.30 C 50.33 33.01 50.41 34.97 50.47 36.89 C 49.13 37.99 47.91 39.68 45.96 39.55 C 44.05 39.69 42.86 38.04 41.81 36.73 C 44.03 36.75 46.46 37.07 47.97 35.02 C 46.49 32.98 44.01 33.35 41.82 33.19 Z" />
<path fill="#ffffff" opacity="1.00" d=" M 13.75 33.80 C 14.85 33.58 15.96 33.37 17.07 33.17 C 16.47 34.54 15.86 35.92 15.58 37.40 C 16.92 36.56 18.23 35.69 19.53 34.78 C 19.93 36.98 18.81 40.13 16.05 39.42 C 12.84 39.59 13.05 35.93 13.75 33.80 Z" />
</g>
</svg>
