<?xml version="1.0" encoding="UTF-8" ?>
<!DOCTYPE svg PUBLIC "-//W3C//DTD SVG 1.1//EN" "http://www.w3.org/Graphics/SVG/1.1/DTD/svg11.dtd">
<svg width="64pt" height="64pt" viewBox="0 0 64 64" version="1.1" xmlns="http://www.w3.org/2000/svg">
<g id="#000000ff">
<path fill="#000000" opacity="1.00" d=" M 28.47 12.47 C 29.96 11.44 31.89 9.56 33.68 11.18 C 38.74 15.08 44.94 16.83 51.15 17.80 C 53.73 32.00 46.47 49.04 32.00 53.81 C 17.38 49.02 10.52 32.04 12.65 17.69 C 18.17 16.95 23.94 15.95 28.47 12.47 M 14.34 19.66 C 14.42 25.16 15.12 30.73 17.04 35.91 C 19.66 42.76 25.06 48.71 32.00 51.29 C 36.40 49.74 40.07 46.62 42.98 43.04 C 48.07 36.42 49.55 27.83 49.67 19.67 C 44.49 19.24 39.37 17.70 35.00 14.87 C 33.84 14.18 32.28 12.34 30.93 13.74 C 26.06 17.19 20.28 19.22 14.34 19.66 Z" />
<path fill="#000000" opacity="1.00" d=" M 18.02 22.80 C 22.99 22.05 28.03 20.71 31.94 17.38 C 31.82 27.35 31.86 37.33 31.93 47.31 C 22.69 43.10 17.35 32.76 18.02 22.80 Z" />
</g>
<g id="#fefefeff">
<path fill="#fefefe" opacity="1.00" d=" M 14.34 19.66 C 20.28 19.22 26.06 17.19 30.93 13.74 C 32.28 12.34 33.84 14.18 35.00 14.87 C 39.37 17.70 44.49 19.24 49.67 19.67 C 49.55 27.83 48.07 36.42 42.98 43.04 C 40.07 46.62 36.40 49.74 32.00 51.29 C 25.06 48.71 19.66 42.76 17.04 35.91 C 15.12 30.73 14.42 25.16 14.34 19.66 M 18.02 22.80 C 17.35 32.76 22.69 43.10 31.93 47.31 C 31.86 37.33 31.82 27.35 31.94 17.38 C 28.03 20.71 22.99 22.05 18.02 22.80 Z" />
</g>
</svg>
