<?xml version="1.0" encoding="UTF-8" ?>
<!DOCTYPE svg PUBLIC "-//W3C//DTD SVG 1.1//EN" "http://www.w3.org/Graphics/SVG/1.1/DTD/svg11.dtd">
<svg width="64pt" height="64pt" viewBox="0 0 64 64" version="1.1" xmlns="http://www.w3.org/2000/svg">
<g id="#010101ff">
<path fill="#010101" opacity="1.00" d=" M 17.24 22.87 C 18.46 19.47 18.06 14.62 21.96 12.92 C 25.01 12.44 28.34 12.38 31.08 14.00 C 37.10 17.21 45.27 15.46 50.15 20.86 C 55.71 26.47 54.72 36.76 48.21 41.23 C 44.78 43.99 40.19 43.78 36.07 43.34 C 34.22 46.97 31.14 50.25 26.98 51.02 C 21.40 52.44 15.08 49.93 12.14 44.96 C 9.89 41.44 9.78 36.90 10.99 32.99 C 12.61 29.34 16.15 26.82 17.24 22.87 M 22.32 15.41 C 20.20 17.81 20.51 21.55 19.49 24.50 C 17.57 28.96 12.57 31.79 12.50 36.99 C 11.84 43.39 17.60 49.55 24.07 49.04 C 28.08 49.14 31.33 46.42 33.59 43.36 C 32.53 42.67 31.47 41.96 30.42 41.25 C 28.14 45.19 22.28 46.43 18.92 43.17 C 15.64 40.73 15.72 35.38 18.54 32.62 C 20.24 30.68 23.10 30.81 25.45 30.51 C 25.68 28.58 26.09 26.69 26.74 24.86 C 26.15 23.82 25.57 22.79 25.02 21.74 C 26.06 20.18 29.06 18.95 26.93 16.60 C 28.35 17.71 29.78 16.66 31.07 16.08 C 28.30 15.21 25.16 14.74 22.32 15.41 M 29.74 21.26 L 28.90 20.09 C 28.43 20.84 27.96 21.59 27.49 22.34 L 28.70 22.51 C 28.41 23.12 27.82 24.34 27.53 24.95 C 29.11 27.04 29.14 29.64 29.34 32.14 C 30.42 39.63 40.26 44.33 46.46 39.51 C 52.48 35.89 53.26 26.56 47.91 22.03 C 44.86 18.41 39.74 19.59 35.79 17.86 C 33.20 17.04 30.52 18.73 29.74 21.26 Z" />
<path fill="#010101" opacity="1.00" d=" M 22.86 16.86 C 23.39 16.70 24.46 16.38 25.00 16.22 C 25.26 17.47 25.82 18.80 25.14 20.02 C 24.14 19.73 23.16 19.40 22.18 19.05 C 22.35 18.50 22.69 17.41 22.86 16.86 Z" />
<path fill="#010101" opacity="1.00" d=" M 20.94 23.79 C 21.33 22.50 21.92 21.29 22.91 20.35 C 23.41 21.53 23.88 22.72 24.34 23.92 C 23.49 23.88 21.79 23.82 20.94 23.79 Z" />
<path fill="#010101" opacity="1.00" d=" M 37.53 23.48 C 42.38 21.44 48.51 25.72 47.47 31.09 C 47.30 36.51 39.93 39.36 35.91 35.94 C 31.34 33.04 32.64 25.28 37.53 23.48 Z" />
</g>
<g id="#fafbfaff">
<path fill="#fafbfa" opacity="1.00" d=" M 22.32 15.41 C 25.16 14.74 28.30 15.21 31.07 16.08 C 29.78 16.66 28.35 17.71 26.93 16.60 C 29.06 18.95 26.06 20.18 25.02 21.74 C 25.57 22.79 26.15 23.82 26.74 24.86 C 26.09 26.69 25.68 28.58 25.45 30.51 C 23.10 30.81 20.24 30.68 18.54 32.62 C 15.72 35.38 15.64 40.73 18.92 43.17 C 22.28 46.43 28.14 45.19 30.42 41.25 C 31.47 41.96 32.53 42.67 33.59 43.36 C 31.33 46.42 28.08 49.14 24.07 49.04 C 17.60 49.55 11.84 43.39 12.50 36.99 C 12.57 31.79 17.57 28.96 19.49 24.50 C 20.51 21.55 20.20 17.81 22.32 15.41 M 22.86 16.86 C 22.69 17.41 22.35 18.50 22.18 19.05 C 23.16 19.40 24.14 19.73 25.14 20.02 C 25.82 18.80 25.26 17.47 25.00 16.22 C 24.46 16.38 23.39 16.70 22.86 16.86 M 20.94 23.79 C 21.79 23.82 23.49 23.88 24.34 23.92 C 23.88 22.72 23.41 21.53 22.91 20.35 C 21.92 21.29 21.33 22.50 20.94 23.79 Z" />
<path fill="#fafbfa" opacity="1.00" d=" M 29.74 21.26 C 30.52 18.73 33.20 17.04 35.79 17.86 C 39.74 19.59 44.86 18.41 47.91 22.03 C 53.26 26.56 52.48 35.89 46.46 39.51 C 40.26 44.33 30.42 39.63 29.34 32.14 C 29.14 29.64 29.11 27.04 27.53 24.95 C 27.82 24.34 28.41 23.12 28.70 22.51 L 27.49 22.34 C 27.96 21.59 28.43 20.84 28.90 20.09 L 29.74 21.26 M 37.53 23.48 C 32.64 25.28 31.34 33.04 35.91 35.94 C 39.93 39.36 47.30 36.51 47.47 31.09 C 48.51 25.72 42.38 21.44 37.53 23.48 Z" />
</g>
</svg>
