<?xml version="1.0" encoding="UTF-8" ?>
<!DOCTYPE svg PUBLIC "-//W3C//DTD SVG 1.1//EN" "http://www.w3.org/Graphics/SVG/1.1/DTD/svg11.dtd">
<svg width="64pt" height="64pt" viewBox="0 0 64 64" version="1.1" xmlns="http://www.w3.org/2000/svg">
<g id="#010401fd">
<path fill="#010401" opacity="1.00" d=" M 26.56 17.90 C 27.22 16.62 26.84 14.05 28.83 14.03 C 31.10 13.79 33.43 13.80 35.67 14.25 C 36.22 15.35 36.59 16.52 37.01 17.67 C 39.01 19.05 41.29 20.31 42.43 22.57 C 43.45 24.76 43.39 27.26 43.70 29.61 C 42.81 29.47 41.04 29.18 40.15 29.04 C 42.58 31.71 45.21 35.06 44.09 38.93 C 43.54 42.75 40.04 44.85 36.88 46.39 C 36.69 47.64 36.49 48.89 36.28 50.14 C 33.41 50.04 30.53 49.94 27.66 49.74 C 27.55 48.64 27.45 47.54 27.34 46.44 C 24.96 45.04 22.39 43.60 20.95 41.15 C 19.85 39.12 19.83 36.74 19.46 34.53 C 21.11 34.28 22.76 34.07 24.41 33.90 C 21.69 31.80 19.78 28.52 20.67 25.00 C 21.10 21.63 23.99 19.66 26.56 17.90 M 29.34 16.27 C 29.29 17.29 29.25 18.31 29.21 19.32 C 26.07 20.67 23.63 23.15 22.34 26.31 C 23.13 28.13 23.54 30.40 25.45 31.43 C 28.95 33.53 33.18 33.89 36.82 35.73 C 36.85 36.63 36.89 38.42 36.92 39.31 C 34.45 40.18 31.69 41.14 29.14 40.03 C 27.98 39.00 27.33 37.55 26.49 36.27 C 24.83 36.32 23.17 36.37 21.51 36.43 C 22.54 40.54 25.69 43.56 29.79 44.57 C 29.72 45.33 29.58 46.87 29.51 47.64 C 31.16 47.65 32.81 47.66 34.46 47.68 C 34.44 46.91 34.38 45.38 34.35 44.61 C 36.19 43.81 38.03 43.01 39.87 42.18 C 40.31 41.48 41.19 40.09 41.63 39.39 C 41.94 37.00 41.41 34.66 40.56 32.44 C 36.59 29.80 31.34 30.08 27.61 27.12 C 27.29 22.62 32.39 23.34 35.24 24.24 C 35.70 25.21 36.17 26.18 36.63 27.15 C 38.32 27.04 40.00 26.92 41.68 26.79 C 40.53 23.21 37.89 20.45 34.22 19.46 C 34.28 18.67 34.40 17.09 34.46 16.30 C 32.75 16.29 31.05 16.28 29.34 16.27 M 30.78 26.01 C 30.59 27.35 32.90 27.84 33.56 26.81 C 33.77 25.44 31.44 24.98 30.78 26.01 M 28.37 35.54 C 29.19 36.46 30.06 37.34 30.98 38.17 C 32.53 38.15 34.04 37.76 35.55 37.47 C 33.20 36.67 30.80 36.04 28.37 35.54 Z" />
</g>
<g id="#9fcb68ff">
<path fill="#9fcb68" opacity="1.00" d=" M 29.34 16.27 C 31.05 16.28 32.75 16.29 34.46 16.30 C 34.40 17.09 34.28 18.67 34.22 19.46 C 37.89 20.45 40.53 23.21 41.68 26.79 C 40.00 26.92 38.32 27.04 36.63 27.15 C 36.17 26.18 35.70 25.21 35.24 24.24 C 32.39 23.34 27.29 22.62 27.61 27.12 C 31.34 30.08 36.59 29.80 40.56 32.44 C 41.41 34.66 41.94 37.00 41.63 39.39 C 40.06 39.36 38.49 39.33 36.92 39.31 C 36.89 38.42 36.85 36.63 36.82 35.73 C 33.18 33.89 28.95 33.53 25.45 31.43 C 23.54 30.40 23.13 28.13 22.34 26.31 C 23.63 23.15 26.07 20.67 29.21 19.32 C 29.25 18.31 29.29 17.29 29.34 16.27 Z" />
</g>
<g id="#71b754ff">
<path fill="#71b754" opacity="1.00" d=" M 21.51 36.43 C 23.17 36.37 24.83 36.32 26.49 36.27 C 27.33 37.55 27.98 39.00 29.14 40.03 C 31.69 41.14 34.45 40.18 36.92 39.31 C 38.49 39.33 40.06 39.36 41.63 39.39 C 41.19 40.09 40.31 41.48 39.87 42.18 C 38.03 43.01 36.19 43.81 34.35 44.61 C 34.38 45.38 34.44 46.91 34.46 47.68 C 32.81 47.66 31.16 47.65 29.51 47.64 C 29.58 46.87 29.72 45.33 29.79 44.57 C 25.69 43.56 22.54 40.54 21.51 36.43 Z" />
</g>
</svg>
