<?xml version="1.0" encoding="UTF-8" ?>
<!DOCTYPE svg PUBLIC "-//W3C//DTD SVG 1.1//EN" "http://www.w3.org/Graphics/SVG/1.1/DTD/svg11.dtd">
<svg width="64pt" height="64pt" viewBox="0 0 64 64" version="1.1" xmlns="http://www.w3.org/2000/svg">
<g id="#000000ff">
<path fill="#000000" opacity="1.00" d=" M 20.56 7.10 C 28.03 5.82 35.68 6.43 43.21 6.76 C 43.94 9.25 44.47 11.79 45.07 14.31 C 48.32 14.43 52.62 14.04 54.25 17.57 C 55.58 22.31 55.78 27.27 56.64 32.11 C 58.02 33.37 59.82 34.36 60.62 36.12 C 61.52 40.63 61.80 46.04 58.02 49.37 C 57.55 51.58 58.00 54.39 55.97 55.94 C 53.16 58.33 48.14 58.28 45.88 55.15 C 44.89 53.44 44.78 51.41 44.32 49.53 C 36.10 49.61 27.88 49.58 19.66 49.55 C 19.20 51.44 19.09 53.48 18.09 55.19 C 15.41 58.80 8.88 58.31 6.77 54.34 C 6.32 52.71 6.22 51.02 5.98 49.36 C 2.35 46.23 2.55 41.21 3.18 36.87 C 3.58 34.63 5.85 33.53 7.37 32.10 C 8.21 27.25 8.40 22.26 9.79 17.52 C 11.46 14.00 15.79 14.41 19.03 14.22 C 19.48 11.83 19.99 9.46 20.56 7.10 M 20.75 16.69 C 18.23 16.85 15.61 16.28 13.17 17.11 C 11.49 18.01 11.51 20.06 11.20 21.68 C 10.59 25.88 9.89 30.08 9.48 34.30 C 8.15 34.98 6.73 35.53 5.54 36.47 C 5.11 38.93 5.30 41.47 5.34 43.97 C 5.12 45.91 7.23 46.70 8.46 47.72 C 8.49 49.78 8.59 51.83 8.84 53.88 C 9.94 54.48 11.05 55.08 12.14 55.69 C 13.68 55.16 15.18 54.52 16.66 53.84 C 16.88 51.66 16.96 49.48 17.02 47.29 C 27.01 47.25 36.99 47.25 46.97 47.29 C 47.04 49.48 47.12 51.68 47.35 53.86 C 48.83 54.53 50.33 55.16 51.87 55.68 C 52.96 55.08 54.06 54.48 55.16 53.88 C 55.41 51.84 55.51 49.78 55.54 47.73 C 56.74 46.65 58.87 45.89 58.66 43.94 C 58.71 41.45 58.87 38.92 58.46 36.45 C 57.26 35.55 55.85 34.98 54.52 34.31 C 53.90 29.10 53.30 23.86 52.21 18.72 C 50.56 15.41 46.14 17.11 43.20 16.67 C 42.61 14.24 42.11 11.79 41.57 9.34 C 36.15 8.05 30.49 8.90 24.97 8.74 C 20.85 8.65 21.99 13.99 20.75 16.69 Z" />
<path fill="#000000" opacity="1.00" d=" M 24.90 10.30 C 29.63 10.30 34.35 10.30 39.08 10.31 C 39.06 12.37 39.05 14.42 39.05 16.48 C 34.35 16.52 29.65 16.53 24.95 16.48 C 24.94 14.42 24.93 12.36 24.90 10.30 Z" />
<path fill="#000000" opacity="1.00" d=" M 15.45 21.29 C 16.13 20.07 17.65 20.08 18.87 20.04 C 27.28 20.06 35.69 20.10 44.10 20.02 C 45.61 20.11 47.63 19.76 48.56 21.30 C 49.73 24.63 49.96 28.20 50.58 31.66 C 38.19 31.75 25.81 31.75 13.42 31.66 C 14.04 28.20 14.27 24.63 15.45 21.29 Z" />
</g>
<g id="#fefefeff">
<path fill="#fefefe" opacity="1.00" d=" M 20.75 16.69 C 21.99 13.99 20.85 8.65 24.97 8.74 C 30.49 8.90 36.15 8.05 41.57 9.34 C 42.11 11.79 42.61 14.24 43.20 16.67 C 46.14 17.11 50.56 15.41 52.21 18.72 C 53.30 23.86 53.90 29.10 54.52 34.31 C 55.85 34.98 57.26 35.55 58.46 36.45 C 58.87 38.92 58.71 41.45 58.66 43.94 C 58.87 45.89 56.74 46.65 55.54 47.73 C 55.51 49.78 55.41 51.84 55.16 53.88 C 54.06 54.48 52.96 55.08 51.87 55.68 C 50.33 55.16 48.83 54.53 47.35 53.86 C 47.12 51.68 47.04 49.48 46.97 47.29 C 36.99 47.25 27.01 47.25 17.02 47.29 C 16.96 49.48 16.88 51.66 16.66 53.84 C 15.18 54.52 13.68 55.16 12.14 55.69 C 11.05 55.08 9.94 54.48 8.84 53.88 C 8.59 51.83 8.49 49.78 8.46 47.72 C 7.23 46.70 5.12 45.91 5.34 43.97 C 5.30 41.47 5.11 38.93 5.54 36.47 C 6.73 35.53 8.15 34.98 9.48 34.30 C 9.89 30.08 10.59 25.88 11.20 21.68 C 11.51 20.06 11.49 18.01 13.17 17.11 C 15.61 16.28 18.23 16.85 20.75 16.69 M 24.90 10.30 C 24.93 12.36 24.94 14.42 24.95 16.48 C 29.65 16.53 34.35 16.52 39.05 16.48 C 39.05 14.42 39.06 12.37 39.08 10.31 C 34.35 10.30 29.63 10.30 24.90 10.30 M 15.45 21.29 C 14.27 24.63 14.04 28.20 13.42 31.66 C 25.81 31.75 38.19 31.75 50.58 31.66 C 49.96 28.20 49.73 24.63 48.56 21.30 C 47.63 19.76 45.61 20.11 44.10 20.02 C 35.69 20.10 27.28 20.06 18.87 20.04 C 17.65 20.08 16.13 20.07 15.45 21.29 Z" />
</g>
</svg>
