<?xml version="1.0" encoding="UTF-8" ?>
<!DOCTYPE svg PUBLIC "-//W3C//DTD SVG 1.1//EN" "http://www.w3.org/Graphics/SVG/1.1/DTD/svg11.dtd">
<svg width="64pt" height="64pt" viewBox="0 0 64 64" version="1.1" xmlns="http://www.w3.org/2000/svg">
<g id="#000000b9">
<path fill="#000000" opacity="0.73" d=" M 10.00 3.02 C 24.32 3.01 38.65 2.91 52.97 3.04 L 53.01 3.99 C 38.67 4.02 24.34 4.00 10.01 4.00 L 10.00 3.02 Z" />
<path fill="#000000" opacity="0.73" d=" M 8.01 16.99 C 9.17 13.90 5.91 6.39 9.00 5.00 C 9.00 9.00 8.99 12.99 8.97 16.98 L 8.01 16.99 Z" />
<path fill="#000000" opacity="0.73" d=" M 55.00 5.01 L 55.98 5.00 C 54.83 8.06 58.07 15.63 55.02 16.97 C 55.00 12.98 55.00 9.00 55.00 5.01 Z" />
<path fill="#000000" opacity="0.73" d=" M 25.70 60.63 C 29.74 59.29 34.12 60.34 38.23 60.68 C 34.05 61.08 29.88 61.06 25.70 60.63 Z" />
</g>
<g id="#090909fa">
<path fill="#090909" opacity="0.98" d=" M 9.00 5.00 C 9.25 4.75 9.76 4.25 10.01 4.00 C 24.34 4.00 38.67 4.02 53.01 3.99 C 53.51 4.24 54.50 4.76 55.00 5.01 C 55.00 9.00 55.00 12.98 55.02 16.97 C 54.83 17.16 54.44 17.53 54.24 17.72 C 49.55 17.06 44.80 16.75 40.07 17.07 C 40.04 17.53 39.99 18.44 39.96 18.89 C 39.90 32.53 40.22 46.17 39.86 59.80 C 39.45 60.02 38.64 60.46 38.23 60.68 C 34.12 60.34 29.74 59.29 25.70 60.63 C 25.29 60.73 24.46 60.93 24.04 61.03 C 23.90 46.97 24.05 32.90 24.03 18.83 C 24.01 18.38 23.96 17.48 23.93 17.03 C 19.22 17.19 14.31 16.24 9.72 17.64 C 9.53 17.48 9.16 17.15 8.97 16.98 C 8.99 12.99 9.00 9.00 9.00 5.00 M 10.03 5.03 C 10.02 7.52 9.99 12.51 9.98 15.00 L 10.93 14.99 L 11.04 15.96 C 16.10 16.17 21.18 16.00 26.24 15.76 C 25.75 29.83 26.05 43.92 26.03 58.01 C 27.31 61.08 34.97 57.82 38.02 58.98 L 37.97 58.01 C 37.95 43.93 38.25 29.83 37.76 15.75 C 42.82 16.30 47.92 15.96 52.99 15.99 L 53.03 15.01 C 53.26 12.51 53.73 7.53 53.97 5.03 C 53.48 5.02 52.50 5.00 52.01 4.99 C 38.65 4.97 25.28 5.02 11.91 4.97 C 11.44 4.98 10.50 5.01 10.03 5.03 Z" />
</g>
<g id="#969596ff">
<path fill="#969596" opacity="1.00" d=" M 10.03 5.03 C 10.50 5.01 11.44 4.98 11.91 4.97 L 11.79 5.86 C 11.33 8.89 11.00 11.93 10.93 14.99 L 9.98 15.00 C 9.99 12.51 10.02 7.52 10.03 5.03 Z" />
<path fill="#969596" opacity="1.00" d=" M 52.01 4.99 C 52.50 5.00 53.48 5.02 53.97 5.03 C 53.73 7.53 53.26 12.51 53.03 15.01 C 52.92 11.94 53.46 8.74 52.29 5.82 L 52.01 4.99 Z" />
<path fill="#969596" opacity="1.00" d=" M 26.24 15.76 C 28.52 19.41 26.14 24.86 27.03 29.00 C 26.96 38.66 27.00 48.32 27.01 57.98 L 26.03 58.01 C 26.05 43.92 25.75 29.83 26.24 15.76 Z" />
<path fill="#969596" opacity="1.00" d=" M 36.97 29.00 C 37.28 24.63 36.20 19.70 37.76 15.75 C 38.25 29.83 37.95 43.93 37.97 58.01 L 36.99 57.98 C 36.98 48.32 37.05 38.66 36.97 29.00 Z" />
</g>
<g id="#656565ff">
<path fill="#656565" opacity="1.00" d=" M 11.91 4.97 C 25.28 5.02 38.65 4.97 52.01 4.99 L 52.29 5.82 C 38.79 6.04 25.29 6.18 11.79 5.86 L 11.91 4.97 Z" />
</g>
<g id="#d4d4d4ff">
<path fill="#d4d4d4" opacity="1.00" d=" M 10.93 14.99 C 11.00 11.93 11.33 8.89 11.79 5.86 C 11.85 8.90 11.96 11.93 11.98 14.97 L 10.93 14.99 Z" />
<path fill="#d4d4d4" opacity="1.00" d=" M 52.29 5.82 C 53.46 8.74 52.92 11.94 53.03 15.01 L 51.99 14.98 C 52.05 11.92 52.18 8.87 52.29 5.82 Z" />
<path fill="#d4d4d4" opacity="1.00" d=" M 27.03 29.00 C 30.34 29.00 33.66 29.00 36.97 29.00 C 37.05 38.66 36.98 48.32 36.99 57.98 C 33.66 57.99 30.34 58.01 27.01 57.98 C 27.00 48.32 26.96 38.66 27.03 29.00 Z" />
</g>
<g id="#f9f8f9ff">
<path fill="#f9f8f9" opacity="1.00" d=" M 11.79 5.86 C 25.29 6.18 38.79 6.04 52.29 5.82 C 52.18 8.87 52.05 11.92 51.99 14.98 C 47.46 15.72 41.86 13.59 37.76 15.75 C 36.20 19.70 37.28 24.63 36.97 29.00 C 33.66 29.00 30.34 29.00 27.03 29.00 C 26.14 24.86 28.52 19.41 26.24 15.76 C 21.91 14.25 16.71 15.23 11.98 14.97 C 11.96 11.93 11.85 8.90 11.79 5.86 Z" />
</g>
<g id="#474847ff">
<path fill="#474847" opacity="1.00" d=" M 10.93 14.99 L 11.98 14.97 C 16.71 15.23 21.91 14.25 26.24 15.76 C 21.18 16.00 16.10 16.17 11.04 15.96 L 10.93 14.99 Z" />
<path fill="#474847" opacity="1.00" d=" M 37.76 15.75 C 41.86 13.59 47.46 15.72 51.99 14.98 L 53.03 15.01 L 52.99 15.99 C 47.92 15.96 42.82 16.30 37.76 15.75 Z" />
<path fill="#474847" opacity="1.00" d=" M 26.03 58.01 L 27.01 57.98 C 30.34 58.01 33.66 57.99 36.99 57.98 L 37.97 58.01 L 38.02 58.98 C 34.97 57.82 27.31 61.08 26.03 58.01 Z" />
</g>
<g id="#00000093">
<path fill="#000000" opacity="0.58" d=" M 9.72 17.64 C 14.31 16.24 19.22 17.19 23.93 17.03 C 23.96 17.48 24.01 18.38 24.03 18.83 C 19.31 17.84 14.47 18.29 9.72 17.64 Z" />
<path fill="#000000" opacity="0.58" d=" M 40.07 17.07 C 44.80 16.75 49.55 17.06 54.24 17.72 C 49.54 18.46 44.44 16.97 39.96 18.89 C 39.99 18.44 40.04 17.53 40.07 17.07 Z" />
</g>
</svg>
