<?xml version="1.0" encoding="UTF-8" ?>
<!DOCTYPE svg PUBLIC "-//W3C//DTD SVG 1.1//EN" "http://www.w3.org/Graphics/SVG/1.1/DTD/svg11.dtd">
<svg width="64pt" height="64pt" viewBox="0 0 64 64" version="1.1" xmlns="http://www.w3.org/2000/svg">
<g id="#302829fe">
<path fill="#302829" opacity="1.00" d=" M 18.43 14.54 C 24.59 13.63 30.77 15.35 36.93 14.42 C 43.03 14.07 50.62 13.93 54.78 19.23 C 58.15 23.86 56.10 29.70 56.69 34.93 C 57.26 39.38 56.32 44.70 52.18 47.21 C 46.09 50.85 38.73 49.57 32.02 49.25 C 25.29 49.55 17.90 50.86 11.80 47.20 C 7.67 44.68 6.73 39.36 7.31 34.91 C 7.90 30.08 6.08 24.91 8.52 20.39 C 10.35 16.69 14.57 15.08 18.43 14.54 M 12.87 18.58 C 8.95 21.38 8.83 26.74 9.68 31.04 C 16.78 30.91 23.88 31.00 30.98 30.98 C 30.97 26.23 30.98 21.49 30.97 16.74 C 24.95 16.35 18.35 15.40 12.87 18.58 M 33.03 16.73 C 33.02 21.48 33.03 26.23 33.02 30.98 C 40.13 30.99 47.23 30.92 54.34 31.03 C 55.14 26.71 55.06 21.30 51.06 18.54 C 45.58 15.41 39.03 16.35 33.03 16.73 M 9.74 32.93 C 8.76 37.23 8.97 42.65 12.91 45.44 C 18.38 48.58 24.97 47.66 30.97 47.26 C 30.98 42.51 30.97 37.77 30.98 33.02 C 23.90 33.02 16.82 33.07 9.74 32.93 M 33.02 33.02 C 33.03 37.77 33.02 42.52 33.03 47.27 C 39.04 47.66 45.64 48.58 51.11 45.43 C 55.03 42.63 55.23 37.23 54.27 32.93 C 47.19 33.11 40.10 32.98 33.02 33.02 Z" />
</g>
<g id="#fdfefdff">
<path fill="#fdfefd" opacity="1.00" d=" M 12.87 18.58 C 18.35 15.40 24.95 16.35 30.97 16.74 C 30.98 21.49 30.97 26.23 30.98 30.98 C 23.88 31.00 16.78 30.91 9.68 31.04 C 8.83 26.74 8.95 21.38 12.87 18.58 Z" />
<path fill="#fdfefd" opacity="1.00" d=" M 33.03 16.73 C 39.03 16.35 45.58 15.41 51.06 18.54 C 55.06 21.30 55.14 26.71 54.34 31.03 C 47.23 30.92 40.13 30.99 33.02 30.98 C 33.03 26.23 33.02 21.48 33.03 16.73 Z" />
<path fill="#fdfefd" opacity="1.00" d=" M 9.74 32.93 C 16.82 33.07 23.90 33.02 30.98 33.02 C 30.97 37.77 30.98 42.51 30.97 47.26 C 24.97 47.66 18.38 48.58 12.91 45.44 C 8.97 42.65 8.76 37.23 9.74 32.93 Z" />
<path fill="#fdfefd" opacity="1.00" d=" M 33.02 33.02 C 40.10 32.98 47.19 33.11 54.27 32.93 C 55.23 37.23 55.03 42.63 51.11 45.43 C 45.64 48.58 39.04 47.66 33.03 47.27 C 33.02 42.52 33.03 37.77 33.02 33.02 Z" />
</g>
</svg>
