<?xml version="1.0" encoding="UTF-8" ?>
<!DOCTYPE svg PUBLIC "-//W3C//DTD SVG 1.1//EN" "http://www.w3.org/Graphics/SVG/1.1/DTD/svg11.dtd">
<svg width="64pt" height="64pt" viewBox="0 0 64 64" version="1.1" xmlns="http://www.w3.org/2000/svg">
<g id="#040504fe">
<path fill="#040504" opacity="1.00" d=" M 5.00 10.91 C 8.28 5.00 16.33 3.50 22.29 5.76 C 25.42 7.22 28.72 5.56 31.97 5.68 C 35.23 5.52 38.54 7.27 41.68 5.77 C 48.56 2.91 58.58 6.01 60.07 14.01 C 60.67 18.69 61.14 24.14 58.17 28.16 C 54.74 31.37 51.51 35.61 46.27 35.35 C 49.95 37.61 51.44 43.12 49.28 46.90 C 51.08 48.94 51.27 51.60 50.35 54.10 C 47.64 55.88 45.80 60.07 41.98 59.15 C 39.45 58.84 38.73 56.13 37.70 54.23 C 35.80 53.47 33.90 52.73 32.00 51.99 C 30.15 52.68 28.19 53.20 26.50 54.26 C 25.61 55.45 24.97 56.81 24.06 57.98 C 22.57 59.21 20.48 59.17 18.70 59.64 C 16.62 56.62 13.21 54.52 12.39 50.73 C 13.18 49.46 13.96 48.18 14.75 46.91 C 12.50 43.26 13.87 37.71 17.41 35.34 C 15.22 34.86 12.63 34.87 11.03 33.03 C 8.27 30.30 4.48 28.04 3.85 23.85 C 3.33 19.56 3.08 14.91 5.00 10.91 M 8.89 9.86 C 5.32 13.15 5.51 18.50 6.07 22.93 C 6.27 25.73 8.35 28.75 11.40 28.66 C 11.48 32.49 15.52 32.96 18.55 32.81 C 17.71 31.09 17.02 29.17 15.34 28.07 C 15.33 27.04 15.31 26.01 15.30 24.98 C 15.55 24.62 16.06 23.91 16.31 23.56 C 15.69 17.76 17.39 11.75 21.79 7.77 C 17.47 6.70 12.37 6.71 8.89 9.86 M 42.22 7.78 C 43.92 9.73 45.70 11.72 46.60 14.20 C 47.89 16.88 47.17 19.90 47.51 22.75 C 48.09 24.49 48.83 26.20 48.82 28.08 C 46.81 28.83 46.29 31.07 45.40 32.79 C 47.30 32.68 49.18 32.51 51.07 32.29 C 51.67 31.12 52.19 29.92 52.59 28.66 C 55.64 28.72 57.75 25.74 57.93 22.91 C 58.48 18.49 58.67 13.15 55.11 9.86 C 51.63 6.72 46.52 6.68 42.22 7.78 M 25.93 8.88 C 22.16 10.10 19.52 13.50 18.80 17.34 C 17.75 23.17 18.05 30.20 23.20 34.08 C 23.68 33.92 24.64 33.61 25.11 33.45 C 25.34 34.53 25.54 35.60 25.73 36.68 C 29.47 39.89 38.33 39.99 38.55 33.65 C 42.44 34.67 44.27 30.06 45.11 27.10 C 45.66 21.73 45.83 15.83 42.23 11.39 C 37.64 7.89 31.36 7.12 25.93 8.88 M 15.57 44.20 C 17.28 45.55 19.22 46.04 21.07 44.54 C 22.99 45.48 24.91 46.42 26.88 47.25 C 24.77 47.82 22.81 48.81 20.75 49.51 C 19.14 50.03 17.40 47.61 16.07 49.19 C 13.82 50.71 15.74 53.41 17.76 53.92 C 18.07 54.78 18.37 55.64 18.67 56.50 C 20.41 56.91 22.26 56.90 23.50 55.41 C 23.46 54.74 23.38 53.40 23.33 52.73 C 26.24 51.72 29.07 50.50 31.97 49.45 C 34.80 50.47 37.57 51.65 40.38 52.73 C 40.31 54.80 41.40 57.78 44.03 56.72 C 45.72 55.28 46.70 53.07 48.87 52.12 C 48.77 51.61 48.59 50.60 48.50 50.09 C 47.77 47.59 45.46 48.93 43.98 49.76 C 41.64 49.02 39.37 48.12 37.08 47.26 C 39.16 46.28 41.27 45.36 43.44 44.60 C 44.89 46.24 47.02 45.51 48.25 44.02 C 47.65 41.11 47.09 37.48 43.62 36.80 C 42.80 38.09 42.09 39.45 41.45 40.84 C 38.27 42.09 35.30 43.99 31.94 44.69 C 28.51 43.96 25.45 42.03 22.19 40.78 C 21.75 39.45 21.28 36.24 19.19 37.41 C 16.12 38.10 16.50 41.88 15.57 44.20 Z" />
<path fill="#040504" opacity="1.00" d=" M 11.47 18.51 C 13.13 18.49 15.23 18.91 15.56 20.88 C 15.26 24.00 12.38 26.24 9.27 25.70 C 8.86 24.15 8.56 22.58 8.44 20.98 C 9.46 20.17 10.47 19.35 11.47 18.51 Z" />
<path fill="#040504" opacity="1.00" d=" M 48.54 20.19 C 49.43 18.74 51.03 18.57 52.55 18.51 C 53.54 19.35 54.54 20.17 55.55 20.98 C 55.51 22.69 55.11 24.35 54.40 25.91 C 51.27 26.04 48.16 23.46 48.54 20.19 Z" />
<path fill="#040504" opacity="1.00" d=" M 21.57 26.07 C 21.52 23.40 24.40 22.41 26.23 21.15 C 27.28 21.58 28.34 22.02 29.39 22.46 C 29.67 22.95 30.24 23.92 30.52 24.40 C 29.49 26.77 28.24 29.63 25.52 30.38 C 23.11 30.79 21.12 28.41 21.57 26.07 Z" />
<path fill="#040504" opacity="1.00" d=" M 36.79 21.03 C 38.86 21.90 41.39 22.71 42.24 25.02 C 42.62 27.09 42.06 30.07 39.54 30.36 C 37.02 30.76 35.51 28.19 34.05 26.60 C 33.87 25.58 33.66 24.57 33.46 23.56 C 34.56 22.71 35.67 21.87 36.79 21.03 Z" />
<path fill="#040504" opacity="1.00" d=" M 29.47 28.61 C 31.15 27.95 32.89 27.89 34.55 28.66 C 34.38 30.44 34.10 32.21 33.71 33.95 C 32.46 34.00 31.21 34.04 29.96 34.07 C 29.73 32.25 29.59 30.43 29.47 28.61 Z" />
</g>
<g id="#fffeffff">
<path fill="#fffeff" opacity="1.00" d=" M 8.89 9.86 C 12.37 6.71 17.47 6.70 21.79 7.77 C 17.39 11.75 15.69 17.76 16.31 23.56 C 16.06 23.91 15.55 24.62 15.30 24.98 C 15.31 26.01 15.33 27.04 15.34 28.07 C 17.02 29.17 17.71 31.09 18.55 32.81 C 15.52 32.96 11.48 32.49 11.40 28.66 C 8.35 28.75 6.27 25.73 6.07 22.93 C 5.51 18.50 5.32 13.15 8.89 9.86 M 11.47 18.51 C 10.47 19.35 9.46 20.17 8.44 20.98 C 8.56 22.58 8.86 24.15 9.27 25.70 C 12.38 26.24 15.26 24.00 15.56 20.88 C 15.23 18.91 13.13 18.49 11.47 18.51 Z" />
<path fill="#fffeff" opacity="1.00" d=" M 42.22 7.78 C 46.52 6.68 51.63 6.72 55.11 9.86 C 58.67 13.15 58.48 18.49 57.93 22.91 C 57.75 25.74 55.64 28.72 52.59 28.66 C 52.19 29.92 51.67 31.12 51.07 32.29 C 49.18 32.51 47.30 32.68 45.40 32.79 C 46.29 31.07 46.81 28.83 48.82 28.08 C 48.83 26.20 48.09 24.49 47.51 22.75 C 47.17 19.90 47.89 16.88 46.60 14.20 C 45.70 11.72 43.92 9.73 42.22 7.78 M 48.54 20.19 C 48.16 23.46 51.27 26.04 54.40 25.91 C 55.11 24.35 55.51 22.69 55.55 20.98 C 54.54 20.17 53.54 19.35 52.55 18.51 C 51.03 18.57 49.43 18.74 48.54 20.19 Z" />
<path fill="#fffeff" opacity="1.00" d=" M 25.93 8.88 C 31.36 7.12 37.64 7.89 42.23 11.39 C 45.83 15.83 45.66 21.73 45.11 27.10 C 44.27 30.06 42.44 34.67 38.55 33.65 C 38.33 39.99 29.47 39.89 25.73 36.68 C 25.54 35.60 25.34 34.53 25.11 33.45 C 24.64 33.61 23.68 33.92 23.20 34.08 C 18.05 30.20 17.75 23.17 18.80 17.34 C 19.52 13.50 22.16 10.10 25.93 8.88 M 21.57 26.07 C 21.12 28.41 23.11 30.79 25.52 30.38 C 28.24 29.63 29.49 26.77 30.52 24.40 C 30.24 23.92 29.67 22.95 29.39 22.46 C 28.34 22.02 27.28 21.58 26.23 21.15 C 24.40 22.41 21.52 23.40 21.57 26.07 M 36.79 21.03 C 35.67 21.87 34.56 22.71 33.46 23.56 C 33.66 24.57 33.87 25.58 34.05 26.60 C 35.51 28.19 37.02 30.76 39.54 30.36 C 42.06 30.07 42.62 27.09 42.24 25.02 C 41.39 22.71 38.86 21.90 36.79 21.03 M 29.47 28.61 C 29.59 30.43 29.73 32.25 29.96 34.07 C 31.21 34.04 32.46 34.00 33.71 33.95 C 34.10 32.21 34.38 30.44 34.55 28.66 C 32.89 27.89 31.15 27.95 29.47 28.61 Z" />
<path fill="#fffeff" opacity="1.00" d=" M 15.57 44.20 C 16.50 41.88 16.12 38.10 19.19 37.41 C 21.28 36.24 21.75 39.45 22.19 40.78 C 25.45 42.03 28.51 43.96 31.94 44.69 C 35.30 43.99 38.27 42.09 41.45 40.84 C 42.09 39.45 42.80 38.09 43.62 36.80 C 47.09 37.48 47.65 41.11 48.25 44.02 C 47.02 45.51 44.89 46.24 43.44 44.60 C 41.27 45.36 39.16 46.28 37.08 47.26 C 39.37 48.12 41.64 49.02 43.98 49.76 C 45.46 48.93 47.77 47.59 48.50 50.09 C 48.59 50.60 48.77 51.61 48.87 52.12 C 46.70 53.07 45.72 55.28 44.03 56.72 C 41.40 57.78 40.31 54.80 40.38 52.73 C 37.57 51.65 34.80 50.47 31.97 49.45 C 29.07 50.50 26.24 51.72 23.33 52.73 C 23.38 53.40 23.46 54.74 23.50 55.41 C 22.26 56.90 20.41 56.91 18.67 56.50 C 18.37 55.64 18.07 54.78 17.76 53.92 C 15.74 53.41 13.82 50.71 16.07 49.19 C 17.40 47.61 19.14 50.03 20.75 49.51 C 22.81 48.81 24.77 47.82 26.88 47.25 C 24.91 46.42 22.99 45.48 21.07 44.54 C 19.22 46.04 17.28 45.55 15.57 44.20 Z" />
</g>
</svg>
