<?xml version="1.0" encoding="UTF-8" ?>
<!DOCTYPE svg PUBLIC "-//W3C//DTD SVG 1.1//EN" "http://www.w3.org/Graphics/SVG/1.1/DTD/svg11.dtd">
<svg width="64pt" height="64pt" viewBox="0 0 64 64" version="1.1" xmlns="http://www.w3.org/2000/svg">
<g id="#060406f3">
<path fill="#060406" opacity="0.95" d=" M 12.92 15.93 C 20.09 11.79 28.68 10.95 36.80 11.54 C 44.02 12.37 51.73 14.70 56.43 20.60 C 59.93 24.60 59.40 31.07 55.81 34.84 C 50.04 41.31 40.87 43.17 32.57 43.45 C 28.20 46.45 24.60 50.57 19.78 52.87 C 19.33 52.37 18.43 51.37 17.98 50.88 C 17.90 47.60 17.89 44.33 17.89 41.06 C 12.21 39.12 6.50 35.09 5.23 28.85 C 4.39 23.33 8.48 18.57 12.92 15.93 M 11.14 20.04 C 9.00 22.18 7.09 24.98 7.53 28.17 C 7.81 31.68 10.72 33.99 13.14 36.16 C 15.38 37.63 17.90 38.53 20.37 39.53 C 20.25 43.09 20.34 46.66 20.39 50.22 C 23.43 47.33 26.90 44.96 30.08 42.25 C 32.24 40.23 35.33 41.10 37.98 40.67 C 42.49 39.97 47.00 38.61 50.87 36.14 C 53.29 33.99 56.16 31.70 56.45 28.22 C 56.94 24.99 54.96 22.15 52.80 19.99 C 46.93 15.42 39.35 13.67 32.03 13.63 C 24.67 13.69 17.02 15.41 11.14 20.04 Z" />
</g>
<g id="#c6e0f5ff">
<path fill="#c6e0f5" opacity="1.00" d=" M 11.14 20.04 C 17.02 15.41 24.67 13.69 32.03 13.63 C 39.35 13.67 46.93 15.42 52.80 19.99 C 52.40 21.38 52.01 22.76 51.62 24.15 C 44.78 25.14 37.87 24.50 30.99 24.61 C 24.76 24.58 18.50 25.07 12.31 24.14 C 11.93 22.77 11.54 21.40 11.14 20.04 Z" />
</g>
<g id="#c6cceaff">
<path fill="#c6ccea" opacity="1.00" d=" M 7.53 28.17 C 7.09 24.98 9.00 22.18 11.14 20.04 C 11.54 21.40 11.93 22.77 12.31 24.14 C 18.50 25.07 24.76 24.58 30.99 24.61 C 37.87 24.50 44.78 25.14 51.62 24.15 C 52.01 22.76 52.40 21.38 52.80 19.99 C 54.96 22.15 56.94 24.99 56.45 28.22 C 56.16 31.70 53.29 33.99 50.87 36.14 C 43.02 32.39 34.31 34.81 26.02 33.98 C 21.60 33.56 17.23 34.54 13.14 36.16 C 10.72 33.99 7.81 31.68 7.53 28.17 Z" />
</g>
<g id="#c6bbdeff">
<path fill="#c6bbde" opacity="1.00" d=" M 13.14 36.16 C 17.23 34.54 21.60 33.56 26.02 33.98 C 34.31 34.81 43.02 32.39 50.87 36.14 C 47.00 38.61 42.49 39.97 37.98 40.67 C 35.33 41.10 32.24 40.23 30.08 42.25 C 26.90 44.96 23.43 47.33 20.39 50.22 C 20.34 46.66 20.25 43.09 20.37 39.53 C 17.90 38.53 15.38 37.63 13.14 36.16 Z" />
</g>
</svg>
