<?xml version="1.0" encoding="UTF-8" ?>
<!DOCTYPE svg PUBLIC "-//W3C//DTD SVG 1.1//EN" "http://www.w3.org/Graphics/SVG/1.1/DTD/svg11.dtd">
<svg width="64pt" height="64pt" viewBox="0 0 64 64" version="1.1" xmlns="http://www.w3.org/2000/svg">
<g id="#090609fd">
<path fill="#090609" opacity="1.00" d=" M 25.64 5.87 C 27.30 4.04 29.23 1.80 32.00 2.22 C 35.61 1.93 38.17 5.15 38.66 8.44 C 40.35 6.84 42.20 5.43 44.17 4.21 C 46.53 5.28 50.02 7.54 48.51 10.60 C 46.14 14.17 42.86 17.06 40.10 20.32 C 39.96 29.44 40.04 38.56 40.02 47.68 C 41.77 47.70 43.52 47.71 45.28 47.74 C 45.51 49.20 45.73 50.67 45.94 52.13 C 47.77 52.25 49.60 52.43 51.42 52.68 C 51.18 55.57 52.32 59.02 50.75 61.55 C 39.52 62.00 28.24 61.54 17.00 61.76 C 15.64 61.48 13.58 62.30 12.71 60.91 C 12.26 58.23 12.57 55.50 12.61 52.80 C 14.41 52.43 16.22 52.23 18.05 52.13 C 18.26 50.67 18.48 49.21 18.71 47.75 C 20.45 47.74 22.19 47.74 23.93 47.74 C 23.91 38.83 24.05 29.92 23.88 21.03 C 21.94 16.74 17.09 14.26 15.22 9.86 C 14.57 6.98 17.67 5.29 19.81 4.22 C 22.23 5.41 24.15 7.31 25.64 9.53 C 25.64 8.61 25.64 6.78 25.64 5.87 M 27.99 7.26 C 27.97 7.90 27.95 9.19 27.93 9.83 C 29.26 12.54 33.15 13.69 35.12 10.98 C 36.95 8.93 35.47 6.35 34.12 4.53 C 32.73 4.57 31.34 4.59 29.94 4.61 C 29.29 5.49 28.64 6.38 27.99 7.26 M 17.09 8.80 C 19.78 12.70 23.14 16.04 26.31 19.54 C 26.28 29.06 26.36 38.59 26.36 48.11 C 26.89 48.65 27.43 49.20 27.96 49.75 C 28.83 48.97 30.56 48.50 30.26 47.01 C 30.35 42.41 30.32 37.81 30.23 33.21 C 31.41 33.23 32.59 33.23 33.77 33.21 C 33.68 37.80 33.65 42.39 33.74 46.98 C 33.42 48.58 35.21 49.03 36.23 49.71 C 36.58 49.30 37.29 48.48 37.64 48.07 C 37.65 38.55 37.72 29.04 37.69 19.52 C 40.88 16.02 44.26 12.68 46.94 8.76 C 45.88 8.06 44.81 7.37 43.73 6.71 C 41.29 9.72 38.70 12.60 35.88 15.26 C 33.28 15.23 30.68 15.24 28.08 15.25 C 25.30 12.80 23.12 9.77 20.46 7.21 C 19.20 6.36 18.12 8.33 17.09 8.80 M 20.68 50.04 C 20.63 51.54 20.59 53.04 20.56 54.54 C 18.67 54.48 16.79 54.44 14.90 54.40 C 14.81 56.11 14.79 57.82 14.84 59.53 C 26.28 59.35 37.72 59.35 49.15 59.53 C 49.21 57.82 49.20 56.11 49.10 54.41 C 47.21 54.44 45.32 54.48 43.43 54.54 C 43.41 53.04 43.37 51.54 43.33 50.04 C 42.53 50.07 40.92 50.15 40.12 50.18 C 37.70 51.88 34.65 51.73 32.00 50.71 C 29.35 51.73 26.30 51.88 23.88 50.19 C 23.08 50.15 21.48 50.07 20.68 50.04 Z" />
</g>
<g id="#e3e2e3ff">
<path fill="#e3e2e3" opacity="1.00" d=" M 27.99 7.26 C 28.64 6.38 29.29 5.49 29.94 4.61 C 31.34 4.59 32.73 4.57 34.12 4.53 C 35.47 6.35 36.95 8.93 35.12 10.98 C 33.15 13.69 29.26 12.54 27.93 9.83 C 27.95 9.19 27.97 7.90 27.99 7.26 Z" />
<path fill="#e3e2e3" opacity="1.00" d=" M 17.09 8.80 C 18.12 8.33 19.20 6.36 20.46 7.21 C 23.12 9.77 25.30 12.80 28.08 15.25 C 30.68 15.24 33.28 15.23 35.88 15.26 C 38.70 12.60 41.29 9.72 43.73 6.71 C 44.81 7.37 45.88 8.06 46.94 8.76 C 44.26 12.68 40.88 16.02 37.69 19.52 C 37.72 29.04 37.65 38.55 37.64 48.07 C 37.29 48.48 36.58 49.30 36.23 49.71 C 35.21 49.03 33.42 48.58 33.74 46.98 C 33.65 42.39 33.68 37.80 33.77 33.21 C 32.59 33.23 31.41 33.23 30.23 33.21 C 30.32 37.81 30.35 42.41 30.26 47.01 C 30.56 48.50 28.83 48.97 27.96 49.75 C 27.43 49.20 26.89 48.65 26.36 48.11 C 26.36 38.59 26.28 29.06 26.31 19.54 C 23.14 16.04 19.78 12.70 17.09 8.80 Z" />
<path fill="#e3e2e3" opacity="1.00" d=" M 20.68 50.04 C 21.48 50.07 23.08 50.15 23.88 50.19 C 26.30 51.88 29.35 51.73 32.00 50.71 C 34.65 51.73 37.70 51.88 40.12 50.18 C 40.92 50.15 42.53 50.07 43.33 50.04 C 43.37 51.54 43.41 53.04 43.43 54.54 C 45.32 54.48 47.21 54.44 49.10 54.41 C 49.20 56.11 49.21 57.82 49.15 59.53 C 37.72 59.35 26.28 59.35 14.84 59.53 C 14.79 57.82 14.81 56.11 14.90 54.40 C 16.79 54.44 18.67 54.48 20.56 54.54 C 20.59 53.04 20.63 51.54 20.68 50.04 Z" />
</g>
</svg>
