<?xml version="1.0" encoding="UTF-8" ?>
<!DOCTYPE svg PUBLIC "-//W3C//DTD SVG 1.1//EN" "http://www.w3.org/Graphics/SVG/1.1/DTD/svg11.dtd">
<svg width="64pt" height="64pt" viewBox="0 0 64 64" version="1.1" xmlns="http://www.w3.org/2000/svg">
<g id="#060806f8">
<path fill="#060806" opacity="0.97" d=" M 10.19 10.18 C 16.17 9.77 22.18 9.83 28.16 10.18 C 28.89 13.00 26.67 14.90 24.81 16.60 C 27.23 19.32 29.59 22.07 31.94 24.84 C 34.34 22.10 36.71 19.34 38.98 16.50 C 37.19 15.08 34.17 12.05 37.07 10.13 C 42.50 9.97 48.12 9.46 53.48 10.40 C 54.55 12.78 53.91 15.50 54.06 18.03 C 53.83 21.51 54.79 25.29 53.00 28.49 C 50.53 28.45 48.90 26.52 47.28 24.93 C 44.56 27.30 41.84 29.66 39.09 32.00 C 41.84 34.33 44.56 36.70 47.28 39.06 C 48.89 37.48 50.52 35.57 52.98 35.49 C 53.72 36.87 54.19 38.38 54.07 39.97 C 54.01 44.58 54.24 49.21 53.81 53.81 C 48.24 54.16 42.62 54.25 37.05 53.85 C 34.22 51.94 37.18 48.91 38.98 47.50 C 36.71 44.65 34.33 41.90 31.94 39.16 C 29.59 41.94 27.17 44.67 24.82 47.46 C 26.61 48.85 29.89 52.00 26.88 53.85 C 21.46 54.00 15.78 54.61 10.49 53.55 C 9.34 48.30 10.05 42.62 10.10 37.23 C 11.65 33.55 14.96 37.35 16.44 39.09 C 19.28 36.78 22.11 34.45 24.80 31.96 C 22.01 29.61 19.22 27.25 16.45 24.89 C 14.92 26.63 11.78 30.39 10.04 26.78 C 9.86 21.26 9.78 15.70 10.19 10.18 M 12.25 12.25 C 12.25 16.70 12.32 21.14 12.38 25.59 C 13.72 24.16 15.09 22.77 16.50 21.41 C 20.40 24.72 24.11 28.28 28.16 31.41 C 28.19 31.70 28.26 32.29 28.29 32.58 C 24.06 35.53 20.47 39.29 16.50 42.57 C 15.09 41.21 13.71 39.80 12.34 38.40 C 12.28 42.84 12.28 47.28 12.29 51.72 C 16.71 51.68 21.14 51.68 25.56 51.61 C 24.14 50.27 22.75 48.91 21.40 47.50 C 24.65 43.56 28.36 39.95 31.18 35.67 C 31.95 35.77 32.73 35.84 33.50 35.90 L 32.72 36.53 C 36.27 39.98 39.34 43.88 42.60 47.59 C 41.21 48.95 39.82 50.29 38.41 51.63 C 42.84 51.68 47.26 51.68 51.69 51.70 C 51.68 47.26 51.69 42.82 51.66 38.39 C 50.29 39.81 48.91 41.22 47.50 42.59 C 44.01 39.34 40.10 36.55 36.84 33.06 L 35.85 33.91 C 35.64 32.43 35.37 30.69 37.26 30.20 C 40.68 27.29 44.12 24.38 47.47 21.40 C 48.90 22.76 50.28 24.17 51.64 25.60 C 51.67 21.15 51.71 16.71 51.74 12.27 C 47.29 12.27 42.85 12.26 38.40 12.36 C 39.80 13.72 41.19 15.08 42.58 16.45 C 39.05 20.59 35.39 24.62 31.94 28.83 C 28.42 24.72 24.95 20.56 21.42 16.47 C 22.81 15.09 24.20 13.72 25.60 12.36 C 21.15 12.28 16.70 12.26 12.25 12.25 Z" />
</g>
<g id="#f3f3f3ff">
<path fill="#f3f3f3" opacity="1.00" d=" M 12.25 12.25 C 16.70 12.26 21.15 12.28 25.60 12.36 C 24.20 13.72 22.81 15.09 21.42 16.47 C 24.95 20.56 28.42 24.72 31.94 28.83 C 35.39 24.62 39.05 20.59 42.58 16.45 C 41.19 15.08 39.80 13.72 38.40 12.36 C 42.85 12.26 47.29 12.27 51.74 12.27 C 51.71 16.71 51.67 21.15 51.64 25.60 C 50.28 24.17 48.90 22.76 47.47 21.40 C 44.12 24.38 40.68 27.29 37.26 30.20 C 35.37 30.69 35.64 32.43 35.85 33.91 C 35.08 34.60 34.30 35.26 33.50 35.90 C 32.73 35.84 31.95 35.77 31.18 35.67 C 30.54 35.59 29.25 35.43 28.60 35.35 C 28.52 34.66 28.37 33.28 28.29 32.58 C 28.26 32.29 28.19 31.70 28.16 31.41 C 24.11 28.28 20.40 24.72 16.50 21.41 C 15.09 22.77 13.72 24.16 12.38 25.59 C 12.32 21.14 12.25 16.70 12.25 12.25 Z" />
</g>
<g id="#dfdfdfff">
<path fill="#dfdfdf" opacity="1.00" d=" M 16.50 42.57 C 20.47 39.29 24.06 35.53 28.29 32.58 C 28.37 33.28 28.52 34.66 28.60 35.35 C 29.25 35.43 30.54 35.59 31.18 35.67 C 28.36 39.95 24.65 43.56 21.40 47.50 C 22.75 48.91 24.14 50.27 25.56 51.61 C 21.14 51.68 16.71 51.68 12.29 51.72 C 12.28 47.28 12.28 42.84 12.34 38.40 C 13.71 39.80 15.09 41.21 16.50 42.57 Z" />
<path fill="#dfdfdf" opacity="1.00" d=" M 35.85 33.91 L 36.84 33.06 C 40.10 36.55 44.01 39.34 47.50 42.59 C 48.91 41.22 50.29 39.81 51.66 38.39 C 51.69 42.82 51.68 47.26 51.69 51.70 C 47.26 51.68 42.84 51.68 38.41 51.63 C 39.82 50.29 41.21 48.95 42.60 47.59 C 39.34 43.88 36.27 39.98 32.72 36.53 L 33.50 35.90 C 34.30 35.26 35.08 34.60 35.85 33.91 Z" />
</g>
</svg>
