<?xml version="1.0" encoding="UTF-8" ?>
<!DOCTYPE svg PUBLIC "-//W3C//DTD SVG 1.1//EN" "http://www.w3.org/Graphics/SVG/1.1/DTD/svg11.dtd">
<svg width="64pt" height="64pt" viewBox="0 0 64 64" version="1.1" xmlns="http://www.w3.org/2000/svg">
<g id="#2626262b">
<path fill="#262626" opacity="0.17" d=" M 33.73 16.96 C 36.64 16.94 39.56 17.04 42.46 17.26 C 43.10 18.84 43.74 20.41 44.37 21.98 C 46.23 22.03 48.08 22.10 49.94 22.14 C 49.96 25.02 49.93 27.90 49.79 30.77 C 46.68 30.71 43.48 31.15 41.22 33.48 C 37.68 33.42 34.15 33.45 30.62 33.56 C 30.44 37.66 30.44 41.77 30.41 45.87 C 26.53 46.02 22.65 45.99 18.77 45.80 C 18.71 41.74 18.72 37.69 18.60 33.63 C 17.11 33.51 15.62 33.40 14.13 33.27 C 14.01 28.74 14.05 24.20 14.08 19.67 C 20.49 19.38 26.91 19.65 33.32 19.53 C 33.42 18.89 33.63 17.60 33.73 16.96 M 35.73 19.08 C 35.60 19.66 35.35 20.81 35.22 21.38 C 28.83 21.68 22.43 21.47 16.04 21.42 C 16.06 24.79 16.08 28.17 16.11 31.54 C 17.64 31.53 19.17 31.51 20.69 31.49 C 20.76 35.62 20.75 39.76 20.74 43.89 C 23.32 43.90 25.90 43.91 28.48 43.92 C 28.50 39.79 28.48 35.65 28.47 31.52 C 32.45 31.49 36.43 31.49 40.41 31.51 C 40.56 30.88 40.86 29.62 41.01 29.00 C 43.32 28.96 45.64 28.93 47.95 28.92 C 47.93 27.30 47.92 25.69 47.91 24.08 C 45.51 24.08 43.12 24.07 40.73 24.06 C 40.71 22.41 40.71 20.75 40.69 19.10 C 39.03 19.10 37.38 19.10 35.73 19.08 Z" />
</g>
<g id="#000000ff">
<path fill="#000000" opacity="1.00" d=" M 35.73 19.08 C 37.38 19.10 39.03 19.10 40.69 19.10 C 40.71 20.75 40.71 22.41 40.73 24.06 C 43.12 24.07 45.51 24.08 47.91 24.08 C 47.92 25.69 47.93 27.30 47.95 28.92 C 45.64 28.93 43.32 28.96 41.01 29.00 C 40.86 29.62 40.56 30.88 40.41 31.51 C 36.43 31.49 32.45 31.49 28.47 31.52 C 28.48 35.65 28.50 39.79 28.48 43.92 C 25.90 43.91 23.32 43.90 20.74 43.89 C 20.75 39.76 20.76 35.62 20.69 31.49 C 19.17 31.51 17.64 31.53 16.11 31.54 C 16.08 28.17 16.06 24.79 16.04 21.42 C 22.43 21.47 28.83 21.68 35.22 21.38 C 35.35 20.81 35.60 19.66 35.73 19.08 Z" />
</g>
</svg>
