<?xml version="1.0" encoding="UTF-8" ?>
<!DOCTYPE svg PUBLIC "-//W3C//DTD SVG 1.1//EN" "http://www.w3.org/Graphics/SVG/1.1/DTD/svg11.dtd">
<svg width="64pt" height="64pt" viewBox="0 0 64 64" version="1.1" xmlns="http://www.w3.org/2000/svg">
<g id="#000000ff">
<path fill="#000000" opacity="1.00" d=" M 8.06 6.98 C 22.32 6.30 36.67 6.95 50.97 6.67 C 52.82 6.83 54.95 6.32 56.58 7.40 C 57.51 11.01 56.89 14.80 57.19 18.49 C 58.26 19.83 59.88 21.09 59.69 23.01 C 59.98 25.10 58.17 26.51 57.10 28.04 C 61.14 33.05 58.15 39.67 60.68 45.15 C 61.50 48.22 60.96 51.43 60.57 54.53 C 59.88 54.62 58.49 54.79 57.80 54.88 C 57.16 58.05 54.31 60.58 50.93 59.97 C 47.79 60.17 46.32 57.16 45.10 54.81 C 36.37 54.80 27.64 54.79 18.90 54.83 C 17.73 56.79 16.73 59.54 14.08 59.79 C 10.53 60.75 6.80 58.56 6.19 54.89 C 5.49 54.79 4.07 54.60 3.36 54.50 C 2.93 51.31 2.88 48.08 2.93 44.87 C 3.33 44.35 4.12 43.33 4.51 42.81 C 4.48 37.75 3.65 32.33 6.82 27.95 C 5.73 26.42 4.00 25.00 4.17 22.93 C 4.11 21.01 5.69 19.74 6.90 18.49 C 7.50 14.79 5.71 10.05 8.06 6.98 M 9.26 8.94 C 9.26 12.63 9.28 16.33 9.24 20.02 C 7.10 21.09 6.12 22.86 6.96 25.23 C 7.54 25.42 8.71 25.81 9.30 26.00 C 9.30 26.79 9.31 27.57 9.32 28.35 C 8.48 30.11 7.74 31.91 7.00 33.71 L 6.52 32.66 C 6.66 36.38 6.81 40.12 6.62 43.84 C 6.31 44.30 5.67 45.22 5.36 45.67 C 5.29 47.99 5.32 50.31 5.35 52.64 C 6.16 52.58 7.78 52.46 8.59 52.40 C 8.67 53.68 8.70 54.96 8.68 56.24 C 10.44 57.20 12.38 57.67 14.35 57.94 C 15.46 56.27 16.18 54.41 16.59 52.46 C 26.85 52.51 37.11 52.45 47.38 52.49 C 47.81 54.42 48.57 56.26 49.65 57.93 C 51.62 57.66 53.54 57.18 55.30 56.27 C 55.28 55.36 55.24 53.52 55.22 52.61 C 56.37 52.56 57.52 52.51 58.67 52.46 C 58.45 49.75 59.67 46.44 57.44 44.31 C 57.27 40.46 57.38 36.62 57.39 32.77 L 56.95 33.44 C 56.07 31.38 54.85 29.38 54.64 27.11 C 55.31 25.55 57.32 24.81 57.53 22.99 C 57.25 21.54 55.72 20.95 54.77 20.00 C 54.72 16.32 54.75 12.63 54.74 8.94 C 39.58 8.92 24.42 8.88 9.26 8.94 Z" />
<path fill="#000000" opacity="1.00" d=" M 14.12 14.41 C 26.04 14.48 37.97 14.49 49.89 14.41 C 49.95 17.49 49.98 20.57 49.99 23.66 C 38.00 23.74 26.00 23.74 14.01 23.66 C 14.03 20.57 14.06 17.49 14.12 14.41 Z" />
<path fill="#000000" opacity="1.00" d=" M 21.74 36.02 C 28.57 35.77 35.42 35.77 42.25 36.02 C 42.27 38.67 42.28 41.32 42.30 43.96 C 35.43 43.91 28.57 43.91 21.70 43.98 C 21.72 41.32 21.72 38.67 21.74 36.02 Z" />
<path fill="#000000" opacity="1.00" d=" M 10.02 39.07 C 12.86 39.07 15.70 39.06 18.54 39.04 C 18.53 40.70 18.29 42.35 18.30 44.01 C 15.54 43.95 12.78 43.94 10.02 43.97 C 10.02 42.34 10.02 40.71 10.02 39.07 Z" />
<path fill="#000000" opacity="1.00" d=" M 45.46 39.04 C 48.30 39.06 51.14 39.07 53.98 39.07 C 53.98 40.71 53.98 42.34 53.98 43.97 C 51.22 43.94 48.46 43.95 45.70 43.99 C 45.70 42.34 45.48 40.69 45.46 39.04 Z" />
</g>
<g id="#9ecb67ff">
<path fill="#9ecb67" opacity="1.00" d=" M 9.26 8.94 C 24.42 8.88 39.58 8.92 54.74 8.94 C 54.75 12.63 54.72 16.32 54.77 20.00 C 55.72 20.95 57.25 21.54 57.53 22.99 C 57.32 24.81 55.31 25.55 54.64 27.11 C 54.85 29.38 56.07 31.38 56.95 33.44 C 56.30 34.42 55.65 35.40 55.00 36.39 C 50.75 36.49 46.49 36.35 42.25 36.02 C 35.42 35.77 28.57 35.77 21.74 36.02 C 16.89 35.81 10.35 38.52 7.00 33.71 C 7.74 31.91 8.48 30.11 9.32 28.35 C 9.31 27.57 9.30 26.79 9.30 26.00 C 8.71 25.81 7.54 25.42 6.96 25.23 C 6.12 22.86 7.10 21.09 9.24 20.02 C 9.28 16.33 9.26 12.63 9.26 8.94 M 14.12 14.41 C 14.06 17.49 14.03 20.57 14.01 23.66 C 26.00 23.74 38.00 23.74 49.99 23.66 C 49.98 20.57 49.95 17.49 49.89 14.41 C 37.97 14.49 26.04 14.48 14.12 14.41 Z" />
</g>
<g id="#70b952ff">
<path fill="#70b952" opacity="1.00" d=" M 6.52 32.66 L 7.00 33.71 C 10.35 38.52 16.89 35.81 21.74 36.02 C 21.72 38.67 21.72 41.32 21.70 43.98 C 28.57 43.91 35.43 43.91 42.30 43.96 C 42.28 41.32 42.27 38.67 42.25 36.02 C 46.49 36.35 50.75 36.49 55.00 36.39 C 55.65 35.40 56.30 34.42 56.95 33.44 L 57.39 32.77 C 57.38 36.62 57.27 40.46 57.44 44.31 C 59.67 46.44 58.45 49.75 58.67 52.46 C 57.52 52.51 56.37 52.56 55.22 52.61 C 55.24 53.52 55.28 55.36 55.30 56.27 C 53.54 57.18 51.62 57.66 49.65 57.93 C 48.57 56.26 47.81 54.42 47.38 52.49 C 37.11 52.45 26.85 52.51 16.59 52.46 C 16.18 54.41 15.46 56.27 14.35 57.94 C 12.38 57.67 10.44 57.20 8.68 56.24 C 8.70 54.96 8.67 53.68 8.59 52.40 C 7.78 52.46 6.16 52.58 5.35 52.64 C 5.32 50.31 5.29 47.99 5.36 45.67 C 5.67 45.22 6.31 44.30 6.62 43.84 C 6.81 40.12 6.66 36.38 6.52 32.66 M 10.02 39.07 C 10.02 40.71 10.02 42.34 10.02 43.97 C 12.78 43.94 15.54 43.95 18.30 44.01 C 18.29 42.35 18.53 40.70 18.54 39.04 C 15.70 39.06 12.86 39.07 10.02 39.07 M 45.46 39.04 C 45.48 40.69 45.70 42.34 45.70 43.99 C 48.46 43.95 51.22 43.94 53.98 43.97 C 53.98 42.34 53.98 40.71 53.98 39.07 C 51.14 39.07 48.30 39.06 45.46 39.04 Z" />
</g>
</svg>
