<?xml version="1.0" encoding="UTF-8" ?>
<!DOCTYPE svg PUBLIC "-//W3C//DTD SVG 1.1//EN" "http://www.w3.org/Graphics/SVG/1.1/DTD/svg11.dtd">
<svg width="64pt" height="64pt" viewBox="0 0 64 64" version="1.1" xmlns="http://www.w3.org/2000/svg">
<g id="#080708fd">
<path fill="#080708" opacity="1.00" d=" M 23.45 9.58 C 27.62 6.38 35.66 8.69 34.91 14.78 C 36.12 15.04 37.33 15.29 38.54 15.54 C 38.64 17.38 38.72 19.23 38.80 21.07 C 42.46 22.95 45.90 25.53 47.77 29.29 C 51.28 35.64 50.44 44.14 45.59 49.58 C 40.48 55.68 31.13 57.59 24.05 53.94 C 18.07 51.08 14.04 44.69 14.07 38.06 C 13.92 31.73 17.36 25.46 22.94 22.40 C 20.70 22.17 17.61 22.70 16.52 20.14 C 16.14 17.46 18.47 15.85 20.84 15.59 C 21.21 13.44 21.36 10.83 23.45 9.58 M 22.61 18.19 C 21.75 18.17 20.05 18.14 19.20 18.13 C 19.20 18.56 19.20 19.41 19.19 19.84 C 20.39 19.86 21.58 19.87 22.78 19.88 C 23.21 19.52 24.08 18.78 24.52 18.42 C 24.85 16.33 25.06 14.20 25.91 12.24 C 27.22 12.27 28.53 12.30 29.85 12.33 C 30.65 13.46 31.39 14.68 32.53 15.51 C 33.24 11.92 29.19 9.19 26.08 10.85 C 22.77 11.69 23.38 15.63 22.61 18.19 M 27.22 17.23 C 27.25 18.24 27.27 19.26 27.29 20.27 C 30.34 19.96 33.42 20.02 36.48 20.02 C 36.48 19.35 36.48 18.00 36.48 17.33 C 33.39 17.33 30.30 17.33 27.22 17.23 M 28.58 22.63 C 23.77 23.72 19.52 27.10 17.66 31.69 C 14.05 39.26 18.06 48.93 25.73 52.09 C 35.61 57.43 48.84 47.94 47.59 36.96 C 47.40 27.61 37.58 20.32 28.58 22.63 Z" />
<path fill="#080708" opacity="1.00" d=" M 19.01 35.98 C 19.72 35.96 21.14 35.94 21.85 35.92 C 22.25 41.66 26.74 47.09 32.83 46.84 C 32.83 47.93 32.83 49.01 32.83 50.10 C 31.35 50.00 29.88 49.80 28.41 49.63 C 22.72 47.79 18.42 42.05 19.01 35.98 Z" />
</g>
<g id="#f6f6f6ff">
<path fill="#f6f6f6" opacity="1.00" d=" M 22.61 18.19 C 23.38 15.63 22.77 11.69 26.08 10.85 C 29.19 9.19 33.24 11.92 32.53 15.51 C 31.39 14.68 30.65 13.46 29.85 12.33 C 28.53 12.30 27.22 12.27 25.91 12.24 C 25.06 14.20 24.85 16.33 24.52 18.42 C 24.08 18.78 23.21 19.52 22.78 19.88 C 21.58 19.87 20.39 19.86 19.19 19.84 C 19.20 19.41 19.20 18.56 19.20 18.13 C 20.05 18.14 21.75 18.17 22.61 18.19 Z" />
<path fill="#f6f6f6" opacity="1.00" d=" M 27.22 17.23 C 30.30 17.33 33.39 17.33 36.48 17.33 C 36.48 18.00 36.48 19.35 36.48 20.02 C 33.42 20.02 30.34 19.96 27.29 20.27 C 27.27 19.26 27.25 18.24 27.22 17.23 Z" />
</g>
<g id="#ffffffff">
<path fill="#ffffff" opacity="1.00" d=" M 28.58 22.63 C 37.58 20.32 47.40 27.61 47.59 36.96 C 48.84 47.94 35.61 57.43 25.73 52.09 C 18.06 48.93 14.05 39.26 17.66 31.69 C 19.52 27.10 23.77 23.72 28.58 22.63 M 19.01 35.98 C 18.42 42.05 22.72 47.79 28.41 49.63 C 29.88 49.80 31.35 50.00 32.83 50.10 C 32.83 49.01 32.83 47.93 32.83 46.84 C 26.74 47.09 22.25 41.66 21.85 35.92 C 21.14 35.94 19.72 35.96 19.01 35.98 Z" />
</g>
</svg>
