<?xml version="1.0" encoding="UTF-8" ?>
<!DOCTYPE svg PUBLIC "-//W3C//DTD SVG 1.1//EN" "http://www.w3.org/Graphics/SVG/1.1/DTD/svg11.dtd">
<svg width="64pt" height="64pt" viewBox="0 0 64 64" version="1.1" xmlns="http://www.w3.org/2000/svg">
<g id="#080608fe">
<path fill="#080608" opacity="1.00" d=" M 34.94 12.81 C 37.95 4.54 49.05 2.62 55.99 7.00 C 61.52 10.02 62.82 18.11 59.04 22.99 C 57.17 25.93 52.46 27.05 52.59 31.06 C 52.79 35.13 53.63 39.27 52.39 43.27 C 49.28 43.36 46.16 43.46 43.05 43.41 C 42.79 48.68 43.62 54.05 42.45 59.24 C 38.93 59.08 35.13 60.01 31.88 58.25 C 31.99 54.15 31.86 50.06 31.86 45.96 C 30.38 50.08 29.43 54.45 27.32 58.30 C 25.29 59.85 22.53 59.08 20.17 59.33 C 19.39 58.68 18.61 58.03 17.82 57.40 C 16.66 53.66 15.37 49.97 14.23 46.22 C 13.50 50.43 15.18 55.42 12.87 59.14 C 9.84 59.43 6.80 59.23 3.77 59.31 C 2.30 56.78 2.73 53.79 2.69 51.00 C 2.72 42.66 2.71 34.31 2.68 25.96 C 2.54 24.41 3.06 22.94 3.63 21.53 C 8.17 22.13 13.15 20.32 17.33 22.62 C 19.06 28.51 21.37 34.20 23.09 40.08 C 24.53 35.25 26.20 30.50 27.66 25.68 C 28.22 24.20 28.42 22.22 30.21 21.71 C 34.21 21.05 38.28 21.54 42.31 21.49 C 42.61 22.30 42.90 23.10 43.20 23.91 C 45.01 21.72 46.95 19.60 49.28 17.94 C 50.67 17.57 50.82 16.95 49.72 16.07 C 48.68 15.12 46.56 13.63 45.75 15.68 C 45.18 17.11 44.96 18.64 44.63 20.12 C 41.68 21.06 38.53 21.06 35.50 20.59 C 32.70 19.19 34.21 15.17 34.94 12.81 M 43.23 7.82 C 38.85 9.33 36.15 13.85 36.15 18.38 C 38.25 18.34 40.35 18.40 42.45 18.43 C 42.74 15.09 45.24 11.34 49.06 12.42 C 52.10 13.10 51.82 16.61 51.52 18.99 C 47.81 22.01 43.39 25.65 44.25 31.03 C 46.21 31.03 48.17 31.03 50.12 31.03 C 50.36 28.66 51.45 26.55 53.16 24.91 L 52.87 24.08 L 53.73 25.06 C 56.93 22.45 60.02 18.47 58.59 14.11 C 56.83 7.82 48.83 5.76 43.23 7.82 M 4.97 23.75 C 4.89 28.87 5.12 33.99 5.04 39.11 C 4.96 41.81 4.95 44.51 4.94 47.21 C 4.96 50.44 4.96 53.68 4.99 56.92 C 7.22 56.92 9.46 56.92 11.69 56.92 C 11.68 55.54 11.68 54.17 11.68 52.80 C 11.69 50.09 11.71 47.38 11.61 44.67 C 11.66 40.86 11.58 37.04 11.84 33.24 C 13.16 36.88 14.76 40.42 15.88 44.13 C 17.20 48.41 18.89 52.56 20.16 56.86 C 22.01 56.82 23.92 57.08 25.72 56.59 C 27.69 51.43 29.41 46.16 31.14 40.91 C 32.07 38.09 33.13 35.31 34.18 32.53 C 34.34 35.09 34.36 37.66 34.34 40.22 C 34.31 42.93 34.32 45.64 34.32 48.35 C 34.30 51.21 34.32 54.08 34.35 56.95 C 36.46 56.93 38.58 56.92 40.70 56.92 C 40.71 54.07 40.73 51.22 40.71 48.37 C 40.66 45.64 40.87 42.90 40.62 40.18 C 40.74 34.71 40.67 29.23 40.74 23.75 C 37.46 23.74 34.17 23.65 30.88 23.72 C 29.47 27.76 28.25 31.87 26.84 35.91 C 25.60 39.64 24.38 43.37 23.20 47.12 C 22.40 44.84 21.61 42.56 20.90 40.24 L 20.76 40.40 C 18.88 34.86 16.93 29.34 15.21 23.75 C 11.80 23.73 8.38 23.72 4.97 23.75 M 43.72 34.00 C 43.72 36.35 43.73 38.71 43.74 41.06 C 46.06 41.01 48.38 40.97 50.70 40.91 C 50.70 38.61 50.70 36.30 50.68 34.00 C 48.36 34.00 46.04 34.00 43.72 34.00 Z" />
</g>
<g id="#f3f3f3ff">
<path fill="#f3f3f3" opacity="1.00" d=" M 43.23 7.82 C 48.83 5.76 56.83 7.82 58.59 14.11 C 60.02 18.47 56.93 22.45 53.73 25.06 L 52.87 24.08 C 52.28 22.42 51.89 20.70 51.52 18.99 C 51.82 16.61 52.10 13.10 49.06 12.42 C 45.24 11.34 42.74 15.09 42.45 18.43 C 40.35 18.40 38.25 18.34 36.15 18.38 C 36.15 13.85 38.85 9.33 43.23 7.82 Z" />
<path fill="#f3f3f3" opacity="1.00" d=" M 4.97 23.75 C 8.38 23.72 11.80 23.73 15.21 23.75 C 16.93 29.34 18.88 34.86 20.76 40.40 C 19.50 42.09 17.83 43.35 15.88 44.13 C 14.76 40.42 13.16 36.88 11.84 33.24 C 11.58 37.04 11.66 40.86 11.61 44.67 C 10.21 43.16 8.87 41.60 7.59 39.99 C 6.95 39.77 5.68 39.33 5.04 39.11 C 5.12 33.99 4.89 28.87 4.97 23.75 Z" />
<path fill="#f3f3f3" opacity="1.00" d=" M 26.84 35.91 C 28.25 31.87 29.47 27.76 30.88 23.72 C 34.17 23.65 37.46 23.74 40.74 23.75 C 40.67 29.23 40.74 34.71 40.62 40.18 C 40.48 39.47 40.20 38.06 40.06 37.35 C 38.15 38.30 36.25 39.26 34.34 40.22 C 34.36 37.66 34.34 35.09 34.18 32.53 C 33.13 35.31 32.07 38.09 31.14 40.91 C 29.52 39.42 28.07 37.75 26.84 35.91 Z" />
</g>
<g id="#222122f8">
<path fill="#222122" opacity="0.97" d=" M 49.72 16.07 C 50.82 16.95 50.67 17.57 49.28 17.94 C 49.39 17.47 49.61 16.54 49.72 16.07 Z" />
</g>
<g id="#d5d6d5ff">
<path fill="#d5d6d5" opacity="1.00" d=" M 44.25 31.03 C 43.39 25.65 47.81 22.01 51.52 18.99 C 51.89 20.70 52.28 22.42 52.87 24.08 L 53.16 24.91 C 51.45 26.55 50.36 28.66 50.12 31.03 C 48.17 31.03 46.21 31.03 44.25 31.03 Z" />
<path fill="#d5d6d5" opacity="1.00" d=" M 23.20 47.12 C 24.38 43.37 25.60 39.64 26.84 35.91 C 28.07 37.75 29.52 39.42 31.14 40.91 C 29.41 46.16 27.69 51.43 25.72 56.59 C 23.92 57.08 22.01 56.82 20.16 56.86 C 18.89 52.56 17.20 48.41 15.88 44.13 C 17.83 43.35 19.50 42.09 20.76 40.40 L 20.90 40.24 C 21.61 42.56 22.40 44.84 23.20 47.12 Z" />
<path fill="#d5d6d5" opacity="1.00" d=" M 34.34 40.22 C 36.25 39.26 38.15 38.30 40.06 37.35 C 40.20 38.06 40.48 39.47 40.62 40.18 C 40.87 42.90 40.66 45.64 40.71 48.37 C 38.58 48.36 36.45 48.35 34.32 48.35 C 34.32 45.64 34.31 42.93 34.34 40.22 Z" />
<path fill="#d5d6d5" opacity="1.00" d=" M 5.04 39.11 C 5.68 39.33 6.95 39.77 7.59 39.99 C 8.87 41.60 10.21 43.16 11.61 44.67 C 11.71 47.38 11.69 50.09 11.68 52.80 C 9.37 51.01 7.14 49.13 4.94 47.21 C 4.95 44.51 4.96 41.81 5.04 39.11 Z" />
</g>
<g id="#c5c6c5ff">
<path fill="#c5c6c5" opacity="1.00" d=" M 43.72 34.00 C 46.04 34.00 48.36 34.00 50.68 34.00 C 50.70 36.30 50.70 38.61 50.70 40.91 C 48.38 40.97 46.06 41.01 43.74 41.06 C 43.73 38.71 43.72 36.35 43.72 34.00 Z" />
<path fill="#c5c6c5" opacity="1.00" d=" M 4.94 47.21 C 7.14 49.13 9.37 51.01 11.68 52.80 C 11.68 54.17 11.68 55.54 11.69 56.92 C 9.46 56.92 7.22 56.92 4.99 56.92 C 4.96 53.68 4.96 50.44 4.94 47.21 Z" />
<path fill="#c5c6c5" opacity="1.00" d=" M 34.32 48.35 C 36.45 48.35 38.58 48.36 40.71 48.37 C 40.73 51.22 40.71 54.07 40.70 56.92 C 38.58 56.92 36.46 56.93 34.35 56.95 C 34.32 54.08 34.30 51.21 34.32 48.35 Z" />
</g>
</svg>
