<?xml version="1.0" encoding="UTF-8" ?>
<!DOCTYPE svg PUBLIC "-//W3C//DTD SVG 1.1//EN" "http://www.w3.org/Graphics/SVG/1.1/DTD/svg11.dtd">
<svg width="64pt" height="64pt" viewBox="0 0 64 64" version="1.1" xmlns="http://www.w3.org/2000/svg">
<g id="#00000058">
<path fill="#000000" opacity="0.35" d=" M 4.00 3.99 C 4.76 3.99 6.27 3.99 7.03 3.99 C 7.10 5.25 7.19 6.52 7.30 7.78 C 6.48 7.86 4.84 8.01 4.01 8.09 C 4.01 6.72 4.01 5.35 4.00 3.99 Z" />
</g>
<g id="#050505f5">
<path fill="#050505" opacity="0.96" d=" M 7.03 3.99 C 12.33 3.54 17.70 3.55 22.99 3.92 C 26.57 8.34 29.03 13.54 32.13 18.29 C 35.71 13.68 37.90 7.89 42.14 3.87 C 47.15 3.49 52.20 3.74 57.23 3.80 C 58.46 6.78 55.79 9.05 54.38 11.36 C 50.07 17.87 45.58 24.27 41.36 30.84 C 46.82 39.00 52.26 47.18 57.70 55.35 C 58.72 56.55 58.76 58.12 58.82 59.61 C 53.99 60.97 48.87 60.04 43.91 60.27 C 41.79 60.63 40.84 58.52 39.84 57.10 C 37.17 52.77 34.57 48.38 31.65 44.21 C 28.14 49.54 25.02 55.14 21.13 60.21 C 16.40 60.27 11.67 60.43 6.94 60.20 C 5.10 60.35 4.63 57.78 5.54 56.58 C 11.02 47.69 17.53 39.42 22.70 30.36 C 17.29 23.04 12.40 15.32 7.30 7.78 C 7.19 6.52 7.10 5.25 7.03 3.99 M 8.90 6.48 C 13.23 11.70 16.50 17.69 20.54 23.13 C 22.05 26.10 25.06 28.42 25.46 31.86 C 22.75 33.93 21.78 37.43 19.48 39.88 C 15.47 45.88 11.49 51.89 7.48 57.89 C 11.64 57.90 15.80 57.93 19.96 57.93 C 22.88 53.09 26.43 48.64 29.03 43.62 L 29.31 43.58 C 30.13 42.28 30.96 41.00 31.81 39.71 C 32.70 41.08 33.58 42.45 34.44 43.84 C 37.12 48.61 40.55 52.95 42.97 57.87 C 47.49 57.98 52.01 57.88 56.53 57.89 C 52.53 51.90 48.52 45.92 44.56 39.90 C 42.40 36.87 40.25 33.81 38.55 30.48 C 39.05 29.80 40.05 28.44 40.55 27.75 C 45.18 20.39 50.32 13.35 54.98 6.00 C 50.90 6.47 46.24 5.04 42.50 6.67 C 38.91 11.92 35.67 17.44 32.24 22.81 C 28.71 17.23 25.25 11.59 21.74 5.99 C 17.47 6.17 13.11 5.50 8.90 6.48 Z" />
</g>
<g id="#f5f4f5ff">
<path fill="#f5f4f5" opacity="1.00" d=" M 8.90 6.48 C 13.11 5.50 17.47 6.17 21.74 5.99 C 25.25 11.59 28.71 17.23 32.24 22.81 C 35.67 17.44 38.91 11.92 42.50 6.67 C 46.24 5.04 50.90 6.47 54.98 6.00 C 50.32 13.35 45.18 20.39 40.55 27.75 C 35.33 28.39 29.34 27.54 25.46 31.86 C 25.06 28.42 22.05 26.10 20.54 23.13 C 16.50 17.69 13.23 11.70 8.90 6.48 Z" />
</g>
<g id="#e0e0e0ff">
<path fill="#e0e0e0" opacity="1.00" d=" M 25.46 31.86 C 29.34 27.54 35.33 28.39 40.55 27.75 C 40.05 28.44 39.05 29.80 38.55 30.48 C 40.25 33.81 42.40 36.87 44.56 39.90 C 44.16 41.07 43.77 42.25 43.37 43.43 C 40.39 43.61 37.42 43.74 34.44 43.84 C 33.58 42.45 32.70 41.08 31.81 39.71 C 30.96 41.00 30.13 42.28 29.31 43.58 L 29.03 43.62 C 26.26 43.93 23.49 44.25 20.71 44.55 C 20.30 42.99 19.89 41.44 19.48 39.88 C 21.78 37.43 22.75 33.93 25.46 31.86 Z" />
</g>
<g id="#cdcdcdff">
<path fill="#cdcdcd" opacity="1.00" d=" M 7.48 57.89 C 11.49 51.89 15.47 45.88 19.48 39.88 C 19.89 41.44 20.30 42.99 20.71 44.55 C 23.49 44.25 26.26 43.93 29.03 43.62 C 26.43 48.64 22.88 53.09 19.96 57.93 C 15.80 57.93 11.64 57.90 7.48 57.89 Z" />
<path fill="#cdcdcd" opacity="1.00" d=" M 44.56 39.90 C 48.52 45.92 52.53 51.90 56.53 57.89 C 52.01 57.88 47.49 57.98 42.97 57.87 C 40.55 52.95 37.12 48.61 34.44 43.84 C 37.42 43.74 40.39 43.61 43.37 43.43 C 43.77 42.25 44.16 41.07 44.56 39.90 Z" />
</g>
</svg>
