<?xml version="1.0" encoding="UTF-8" ?>
<!DOCTYPE svg PUBLIC "-//W3C//DTD SVG 1.1//EN" "http://www.w3.org/Graphics/SVG/1.1/DTD/svg11.dtd">
<svg width="64pt" height="64pt" viewBox="0 0 64 64" version="1.1" xmlns="http://www.w3.org/2000/svg">
<g id="#100c089b">
<path fill="#100c08" opacity="0.61" d=" M 20.41 20.40 C 27.91 19.52 35.67 20.16 43.26 20.08 L 43.53 20.81 C 43.11 20.90 42.28 21.06 41.87 21.14 C 35.00 21.30 28.13 21.06 21.26 21.27 C 21.06 28.13 21.30 35.00 21.15 41.87 C 21.06 42.28 20.88 43.12 20.79 43.54 L 20.09 43.22 C 20.15 35.63 19.52 27.88 20.41 20.40 Z" />
</g>
<g id="#ff7f27ff">
<path fill="#ff7f27" opacity="1.00" d=" M 21.26 21.27 C 28.13 21.06 35.00 21.30 41.87 21.14 C 35.19 28.27 28.26 35.19 21.15 41.87 C 21.30 35.00 21.06 28.13 21.26 21.27 Z" />
</g>
<g id="#31241cff">
<path fill="#31241c" opacity="1.00" d=" M 41.87 21.14 C 42.28 21.06 43.11 20.90 43.53 20.81 C 43.63 28.38 43.68 35.95 43.50 43.51 C 35.94 43.68 28.36 43.62 20.79 43.54 C 20.88 43.12 21.06 42.28 21.15 41.87 C 28.26 35.19 35.19 28.27 41.87 21.14 M 41.45 23.35 C 35.34 29.35 29.28 35.41 23.28 41.52 L 21.92 42.01 L 22.87 42.73 C 29.46 42.74 36.07 42.88 42.65 42.66 C 42.90 35.95 42.72 29.21 42.74 22.49 L 41.87 22.30 L 41.45 23.35 Z" />
</g>
<g id="#ffffffff">
<path fill="#ffffff" opacity="1.00" d=" M 41.45 23.35 L 41.87 22.30 L 42.74 22.49 C 42.72 29.21 42.90 35.95 42.65 42.66 C 36.07 42.88 29.46 42.74 22.87 42.73 L 21.92 42.01 L 23.28 41.52 C 29.28 35.41 35.34 29.35 41.45 23.35 Z" />
</g>
</svg>
