<?xml version="1.0" encoding="UTF-8" ?>
<!DOCTYPE svg PUBLIC "-//W3C//DTD SVG 1.1//EN" "http://www.w3.org/Graphics/SVG/1.1/DTD/svg11.dtd">
<svg width="64pt" height="64pt" viewBox="0 0 64 64" version="1.1" xmlns="http://www.w3.org/2000/svg">
<g id="#070507fe">
<path fill="#070507" opacity="1.00" d=" M 27.81 5.82 C 30.90 2.39 37.39 3.11 39.28 7.44 C 40.67 10.06 39.74 13.00 38.52 15.47 C 37.98 15.68 36.91 16.09 36.38 16.30 C 37.32 16.36 39.22 16.50 40.16 16.56 C 44.12 21.72 46.75 27.75 50.50 33.05 C 51.16 36.60 47.85 38.24 45.07 39.22 C 44.04 38.85 43.02 38.49 41.99 38.13 C 41.68 44.76 42.50 51.42 41.81 58.01 C 40.43 61.71 35.50 60.43 32.75 59.14 C 32.31 59.43 31.44 60.01 31.00 60.30 C 28.68 60.13 24.69 61.15 24.15 57.92 C 23.56 46.98 24.24 35.98 23.86 25.03 C 21.46 20.39 16.55 17.44 13.96 12.87 C 12.69 9.85 16.02 6.77 18.89 6.47 C 21.97 7.39 23.76 10.29 25.65 12.67 C 26.10 10.35 25.85 7.52 27.81 5.82 M 31.49 5.82 C 30.45 6.95 28.56 7.58 28.43 9.31 C 27.56 11.83 29.59 13.87 31.18 15.51 C 35.16 16.06 38.50 12.88 37.75 8.81 C 36.22 6.79 33.97 5.86 31.49 5.82 M 15.72 10.81 C 18.26 15.94 23.57 19.24 26.24 24.27 C 26.67 35.52 25.81 46.83 26.67 58.06 C 28.12 57.84 30.10 58.47 30.91 56.81 C 31.23 51.13 30.93 45.42 31.04 39.72 C 32.37 39.72 33.71 39.72 35.04 39.71 C 35.14 45.42 34.91 51.14 35.13 56.85 C 35.97 58.42 37.92 57.82 39.34 58.08 C 40.20 48.50 39.44 38.83 39.75 29.22 C 41.35 31.78 42.90 34.38 44.63 36.86 C 45.46 36.43 47.13 35.56 47.97 35.13 C 47.74 34.06 47.60 32.93 46.95 32.01 C 44.25 27.59 41.71 23.06 38.98 18.65 C 35.45 18.74 31.93 18.67 28.41 18.73 C 25.15 15.50 22.22 11.96 18.96 8.74 C 17.87 9.42 16.79 10.11 15.72 10.81 Z" />
</g>
<g id="#fdfdfdff">
<path fill="#fdfdfd" opacity="1.00" d=" M 31.49 5.82 C 33.97 5.86 36.22 6.79 37.75 8.81 C 38.50 12.88 35.16 16.06 31.18 15.51 C 29.59 13.87 27.56 11.83 28.43 9.31 C 28.56 7.58 30.45 6.95 31.49 5.82 Z" />
<path fill="#fdfdfd" opacity="1.00" d=" M 15.72 10.81 C 16.79 10.11 17.87 9.42 18.96 8.74 C 22.22 11.96 25.15 15.50 28.41 18.73 C 31.93 18.67 35.45 18.74 38.98 18.65 C 41.71 23.06 44.25 27.59 46.95 32.01 C 47.60 32.93 47.74 34.06 47.97 35.13 C 47.13 35.56 45.46 36.43 44.63 36.86 C 42.90 34.38 41.35 31.78 39.75 29.22 C 39.44 38.83 40.20 48.50 39.34 58.08 C 37.92 57.82 35.97 58.42 35.13 56.85 C 34.91 51.14 35.14 45.42 35.04 39.71 C 33.71 39.72 32.37 39.72 31.04 39.72 C 30.93 45.42 31.23 51.13 30.91 56.81 C 30.10 58.47 28.12 57.84 26.67 58.06 C 25.81 46.83 26.67 35.52 26.24 24.27 C 23.57 19.24 18.26 15.94 15.72 10.81 Z" />
</g>
</svg>
