<?xml version="1.0" encoding="UTF-8" ?>
<!DOCTYPE svg PUBLIC "-//W3C//DTD SVG 1.1//EN" "http://www.w3.org/Graphics/SVG/1.1/DTD/svg11.dtd">
<svg width="64pt" height="64pt" viewBox="0 0 64 64" version="1.1" xmlns="http://www.w3.org/2000/svg">
<g id="#060406fe">
<path fill="#060406" opacity="1.00" d=" M 11.81 27.83 C 13.53 23.94 17.60 21.02 21.97 21.52 C 25.85 21.46 28.69 24.40 30.89 27.23 C 37.52 27.44 44.17 27.00 50.78 27.41 C 54.02 28.52 52.38 32.78 52.50 35.34 C 51.47 35.66 50.45 35.98 49.43 36.30 C 49.38 38.43 49.12 40.57 48.07 42.46 C 44.65 42.28 41.22 42.56 37.81 42.23 C 35.34 41.52 36.38 38.19 35.77 36.26 C 34.05 36.28 32.33 36.30 30.61 36.34 C 27.87 41.19 21.36 43.39 16.41 40.61 C 11.75 38.43 10.13 32.44 11.81 27.83 M 12.93 31.77 C 12.66 37.47 19.45 41.68 24.56 39.37 C 26.96 38.66 28.17 36.33 29.41 34.37 C 32.11 34.40 34.81 34.39 37.51 34.39 C 37.91 36.67 36.85 40.33 39.97 40.89 C 41.72 39.20 41.24 36.68 41.47 34.50 C 42.06 34.44 43.24 34.31 43.83 34.24 C 44.02 36.42 43.70 38.76 44.85 40.73 C 48.32 41.07 47.38 37.04 47.56 34.82 C 48.63 34.55 49.66 34.18 50.67 33.73 C 51.03 32.18 51.67 29.98 49.84 29.10 C 43.05 28.76 36.24 29.06 29.45 28.95 C 27.74 26.28 25.49 23.22 21.94 23.29 C 17.18 22.85 12.79 26.99 12.93 31.77 Z" />
<path fill="#060406" opacity="1.00" d=" M 16.75 29.84 C 18.10 28.88 19.22 27.05 21.09 27.25 C 23.02 27.15 24.38 28.64 25.78 29.71 C 25.59 31.54 25.85 33.74 24.21 35.00 C 22.42 36.75 19.81 35.80 17.75 35.20 C 17.34 33.43 17.01 31.64 16.75 29.84 Z" />
</g>
<g id="#fafbfaff">
<path fill="#fafbfa" opacity="1.00" d=" M 12.93 31.77 C 12.79 26.99 17.18 22.85 21.94 23.29 C 25.49 23.22 27.74 26.28 29.45 28.95 C 36.24 29.06 43.05 28.76 49.84 29.10 C 51.67 29.98 51.03 32.18 50.67 33.73 C 49.66 34.18 48.63 34.55 47.56 34.82 C 47.38 37.04 48.32 41.07 44.85 40.73 C 43.70 38.76 44.02 36.42 43.83 34.24 C 43.24 34.31 42.06 34.44 41.47 34.50 C 41.24 36.68 41.72 39.20 39.97 40.89 C 36.85 40.33 37.91 36.67 37.51 34.39 C 34.81 34.39 32.11 34.40 29.41 34.37 C 28.17 36.33 26.96 38.66 24.56 39.37 C 19.45 41.68 12.66 37.47 12.93 31.77 M 16.75 29.84 C 17.01 31.64 17.34 33.43 17.75 35.20 C 19.81 35.80 22.42 36.75 24.21 35.00 C 25.85 33.74 25.59 31.54 25.78 29.71 C 24.38 28.64 23.02 27.15 21.09 27.25 C 19.22 27.05 18.10 28.88 16.75 29.84 Z" />
</g>
</svg>
