<?xml version="1.0" encoding="UTF-8" ?>
<!DOCTYPE svg PUBLIC "-//W3C//DTD SVG 1.1//EN" "http://www.w3.org/Graphics/SVG/1.1/DTD/svg11.dtd">
<svg width="64pt" height="64pt" viewBox="0 0 64 64" version="1.1" xmlns="http://www.w3.org/2000/svg">
<g id="#090909fa">
<path fill="#090909" opacity="0.98" d=" M 15.63 3.60 C 16.54 2.09 18.79 1.67 19.95 3.14 C 24.11 7.06 28.06 11.20 32.09 15.25 C 36.90 11.36 40.57 6.20 45.48 2.45 C 48.26 1.32 50.27 4.74 50.38 7.15 C 50.49 11.19 55.67 10.61 57.63 13.30 C 59.26 15.10 60.52 18.34 58.24 20.15 C 55.53 22.80 53.00 25.74 49.81 27.83 C 47.16 28.19 47.54 24.33 45.54 23.43 C 42.98 22.20 40.30 21.05 38.52 18.71 C 38.15 19.06 37.39 19.75 37.02 20.09 C 40.64 23.88 44.57 27.35 48.23 31.11 C 48.33 31.89 48.52 33.45 48.62 34.24 C 47.36 35.43 45.87 37.59 43.90 36.33 C 39.70 32.86 36.21 28.62 32.20 24.93 C 27.77 28.86 24.30 33.97 19.16 37.01 C 18.17 36.19 17.18 35.37 16.19 34.56 C 16.40 33.13 16.01 31.39 17.30 30.37 C 20.64 26.85 24.09 23.43 27.56 20.03 C 27.20 19.67 26.49 18.94 26.13 18.58 C 24.62 20.66 22.44 21.98 20.09 22.92 C 17.91 23.71 17.32 26.18 16.21 27.96 C 13.03 27.60 11.24 24.71 8.98 22.82 C 7.19 21.02 4.22 19.11 5.35 16.13 C 6.37 12.30 10.47 11.21 13.54 9.54 C 14.61 7.70 13.98 5.16 15.63 3.60 M 16.76 5.84 C 16.56 8.04 16.45 10.85 14.18 11.99 C 11.69 13.40 7.41 14.24 7.55 17.85 C 9.90 20.40 12.50 22.71 15.01 25.10 C 15.91 21.29 20.03 20.43 23.10 19.04 C 23.74 17.35 24.27 15.62 24.81 13.90 C 26.88 16.00 28.98 18.07 31.05 20.17 C 26.58 24.39 22.10 28.59 17.87 33.07 C 18.33 33.28 19.25 33.71 19.71 33.92 C 24.09 29.93 28.14 25.57 32.37 21.41 C 36.50 25.69 40.77 29.82 44.95 34.06 C 45.35 33.73 46.15 33.08 46.55 32.75 C 42.19 28.60 37.98 24.31 33.78 20.00 C 35.87 17.82 38.02 15.70 40.13 13.54 C 40.39 15.39 40.04 17.81 41.90 18.94 C 43.78 20.18 45.91 20.95 47.96 21.87 C 48.54 22.96 49.12 24.04 49.70 25.13 C 52.31 22.60 55.04 20.21 57.51 17.54 C 56.07 13.15 50.83 13.35 48.36 9.97 C 48.28 7.98 47.79 6.05 46.83 4.29 C 42.11 9.10 37.33 13.84 32.61 18.65 C 27.61 14.28 23.23 9.27 18.37 4.75 C 17.96 5.02 17.16 5.57 16.76 5.84 Z" />
<path fill="#090909" opacity="0.98" d=" M 27.88 31.78 C 29.88 29.63 33.15 29.65 35.82 30.14 C 38.02 30.89 37.62 33.45 37.93 35.26 C 36.00 36.26 33.96 37.01 31.89 37.70 C 34.36 39.60 36.83 41.48 39.29 43.39 C 43.64 38.05 52.91 38.45 56.45 44.48 C 60.52 50.48 56.36 59.89 49.00 60.46 C 44.45 61.31 40.23 58.53 37.93 54.78 C 34.08 54.59 30.20 55.02 26.38 54.53 C 23.35 53.59 22.88 50.00 21.65 47.51 C 22.27 51.03 22.39 54.98 19.84 57.82 C 15.54 62.83 6.06 60.61 4.83 53.97 C 2.89 47.47 9.84 41.34 16.15 43.35 C 20.08 39.51 23.94 35.61 27.88 31.78 M 29.42 33.43 C 25.11 37.75 20.77 42.04 16.51 46.40 C 15.32 45.96 14.13 45.53 12.93 45.10 C 11.37 45.76 9.62 46.25 8.49 47.62 C 6.62 49.25 7.16 51.93 7.18 54.10 C 7.76 54.94 8.31 55.79 8.83 56.66 C 10.84 57.79 13.35 59.11 15.63 57.87 C 19.40 56.27 21.09 51.09 18.42 47.78 C 19.86 46.29 21.36 44.85 23.00 43.56 C 24.16 46.76 24.72 50.47 27.77 52.51 C 31.63 52.44 35.51 52.45 39.38 52.46 C 41.16 56.66 46.11 59.78 50.59 57.66 C 56.04 55.73 57.54 47.69 53.04 43.98 C 50.97 41.68 47.72 42.06 44.94 42.01 C 43.00 43.25 41.22 44.73 40.05 46.75 C 36.10 43.98 32.23 41.09 28.52 38.00 C 29.53 36.91 30.44 35.73 31.42 34.61 C 32.49 34.60 33.56 34.57 34.63 34.50 C 34.74 33.97 34.97 32.90 35.08 32.36 C 33.20 32.55 30.84 31.79 29.42 33.43 Z" />
<path fill="#090909" opacity="0.98" d=" M 44.10 45.82 C 45.28 45.39 46.46 44.98 47.64 44.56 C 52.12 44.93 54.64 51.02 51.15 54.10 C 48.46 56.59 44.40 55.27 42.60 52.38 C 44.63 52.18 46.83 52.70 48.74 51.84 C 49.52 50.76 49.21 49.49 48.96 48.30 C 46.91 48.10 44.86 48.07 42.81 47.97 C 43.13 47.43 43.78 46.35 44.10 45.82 Z" />
<path fill="#090909" opacity="0.98" d=" M 10.32 48.93 C 11.82 48.63 13.33 48.39 14.85 48.22 C 13.49 49.52 12.12 50.89 12.51 53.00 C 13.95 51.99 15.31 50.88 16.71 49.81 C 17.25 51.97 16.59 53.93 15.09 55.53 C 13.39 55.30 11.00 55.61 10.13 53.74 C 9.12 52.23 10.08 50.50 10.32 48.93 Z" />
</g>
<g id="#fdfdfdff">
<path fill="#fdfdfd" opacity="1.00" d=" M 16.76 5.84 C 17.16 5.57 17.96 5.02 18.37 4.75 C 23.23 9.27 27.61 14.28 32.61 18.65 C 37.33 13.84 42.11 9.10 46.83 4.29 C 47.79 6.05 48.28 7.98 48.36 9.97 C 50.83 13.35 56.07 13.15 57.51 17.54 C 55.04 20.21 52.31 22.60 49.70 25.13 C 49.12 24.04 48.54 22.96 47.96 21.87 C 45.91 20.95 43.78 20.18 41.90 18.94 C 40.04 17.81 40.39 15.39 40.13 13.54 C 38.02 15.70 35.87 17.82 33.78 20.00 C 37.98 24.31 42.19 28.60 46.55 32.75 C 46.15 33.08 45.35 33.73 44.95 34.06 C 40.77 29.82 36.50 25.69 32.37 21.41 C 28.14 25.57 24.09 29.93 19.71 33.92 C 19.25 33.71 18.33 33.28 17.87 33.07 C 22.10 28.59 26.58 24.39 31.05 20.17 C 28.98 18.07 26.88 16.00 24.81 13.90 C 24.27 15.62 23.74 17.35 23.10 19.04 C 20.03 20.43 15.91 21.29 15.01 25.10 C 12.50 22.71 9.90 20.40 7.55 17.85 C 7.41 14.24 11.69 13.40 14.18 11.99 C 16.45 10.85 16.56 8.04 16.76 5.84 Z" />
<path fill="#fdfdfd" opacity="1.00" d=" M 29.42 33.43 C 30.84 31.79 33.20 32.55 35.08 32.36 C 34.97 32.90 34.74 33.97 34.63 34.50 C 33.56 34.57 32.49 34.60 31.42 34.61 C 30.44 35.73 29.53 36.91 28.52 38.00 C 32.23 41.09 36.10 43.98 40.05 46.75 C 41.22 44.73 43.00 43.25 44.94 42.01 C 47.72 42.06 50.97 41.68 53.04 43.98 C 57.54 47.69 56.04 55.73 50.59 57.66 C 46.11 59.78 41.16 56.66 39.38 52.46 C 35.51 52.45 31.63 52.44 27.77 52.51 C 24.72 50.47 24.16 46.76 23.00 43.56 C 21.36 44.85 19.86 46.29 18.42 47.78 C 21.09 51.09 19.40 56.27 15.63 57.87 C 13.35 59.11 10.84 57.79 8.83 56.66 C 8.31 55.79 7.76 54.94 7.18 54.10 C 7.16 51.93 6.62 49.25 8.49 47.62 C 9.62 46.25 11.37 45.76 12.93 45.10 C 14.13 45.53 15.32 45.96 16.51 46.40 C 20.77 42.04 25.11 37.75 29.42 33.43 M 44.10 45.82 C 43.78 46.35 43.13 47.43 42.81 47.97 C 44.86 48.07 46.91 48.10 48.96 48.30 C 49.21 49.49 49.52 50.76 48.74 51.84 C 46.83 52.70 44.63 52.18 42.60 52.38 C 44.40 55.27 48.46 56.59 51.15 54.10 C 54.64 51.02 52.12 44.93 47.64 44.56 C 46.46 44.98 45.28 45.39 44.10 45.82 M 10.32 48.93 C 10.08 50.50 9.12 52.23 10.13 53.74 C 11.00 55.61 13.39 55.30 15.09 55.53 C 16.59 53.93 17.25 51.97 16.71 49.81 C 15.31 50.88 13.95 51.99 12.51 53.00 C 12.12 50.89 13.49 49.52 14.85 48.22 C 13.33 48.39 11.82 48.63 10.32 48.93 Z" />
</g>
</svg>
