<?xml version="1.0" encoding="UTF-8" ?>
<!DOCTYPE svg PUBLIC "-//W3C//DTD SVG 1.1//EN" "http://www.w3.org/Graphics/SVG/1.1/DTD/svg11.dtd">
<svg width="64pt" height="64pt" viewBox="0 0 64 64" version="1.1" xmlns="http://www.w3.org/2000/svg">
<g id="#080908ff">
<path fill="#080908" opacity="1.00" d=" M 26.15 9.22 C 28.54 7.95 29.95 4.33 33.07 5.10 C 35.55 7.26 37.83 9.73 40.89 11.11 C 44.39 13.09 48.54 12.80 52.33 13.81 C 52.62 19.86 52.42 25.93 52.49 31.98 C 52.67 40.42 48.47 48.65 41.89 53.85 C 39.19 56.10 35.91 57.47 33.01 59.43 C 21.84 56.58 12.64 46.48 11.62 34.87 C 11.42 27.85 11.44 20.81 11.66 13.78 C 16.68 13.00 22.05 12.61 26.15 9.22 M 14.03 15.83 C 14.09 21.96 13.91 28.10 14.11 34.24 C 14.76 44.49 22.66 53.08 31.93 56.74 C 40.67 53.43 48.17 45.66 49.64 36.23 C 50.36 29.47 49.78 22.64 49.97 15.85 C 43.14 15.61 36.50 12.67 32.00 7.48 C 27.49 12.66 20.87 15.62 14.03 15.83 Z" />
<path fill="#080908" opacity="1.00" d=" M 22.28 25.01 C 23.19 24.10 24.10 23.19 25.00 22.27 C 27.34 24.59 29.68 26.90 32.00 29.23 C 34.31 26.89 36.66 24.59 39.00 22.28 C 39.90 23.19 40.81 24.10 41.72 25.00 C 39.41 27.34 37.11 29.68 34.77 32.00 C 37.10 34.32 39.41 36.66 41.73 38.99 C 40.81 39.90 39.90 40.81 38.99 41.72 C 36.66 39.41 34.32 37.10 32.00 34.77 C 29.68 37.10 27.34 39.41 25.01 41.72 C 24.10 40.81 23.19 39.90 22.28 38.99 C 24.59 36.66 26.89 34.31 29.23 32.00 C 26.90 29.68 24.59 27.34 22.28 25.01 Z" />
</g>
<g id="#ffffffff">
<path fill="#ffffff" opacity="1.00" d=" M 14.03 15.83 C 20.87 15.62 27.49 12.66 32.00 7.48 C 36.50 12.67 43.14 15.61 49.97 15.85 C 49.78 22.64 50.36 29.47 49.64 36.23 C 48.17 45.66 40.67 53.43 31.93 56.74 C 22.66 53.08 14.76 44.49 14.11 34.24 C 13.91 28.10 14.09 21.96 14.03 15.83 M 22.28 25.01 C 24.59 27.34 26.90 29.68 29.23 32.00 C 26.89 34.31 24.59 36.66 22.28 38.99 C 23.19 39.90 24.10 40.81 25.01 41.72 C 27.34 39.41 29.68 37.10 32.00 34.77 C 34.32 37.10 36.66 39.41 38.99 41.72 C 39.90 40.81 40.81 39.90 41.73 38.99 C 39.41 36.66 37.10 34.32 34.77 32.00 C 37.11 29.68 39.41 27.34 41.72 25.00 C 40.81 24.10 39.90 23.19 39.00 22.28 C 36.66 24.59 34.31 26.89 32.00 29.23 C 29.68 26.90 27.34 24.59 25.00 22.27 C 24.10 23.19 23.19 24.10 22.28 25.01 Z" />
</g>
</svg>
