<?xml version="1.0" encoding="UTF-8" ?>
<!DOCTYPE svg PUBLIC "-//W3C//DTD SVG 1.1//EN" "http://www.w3.org/Graphics/SVG/1.1/DTD/svg11.dtd">
<svg width="64pt" height="64pt" viewBox="0 0 64 64" version="1.1" xmlns="http://www.w3.org/2000/svg">
<g id="#000000ff">
<path fill="#000000" opacity="1.00" d=" M 8.10 19.15 C 15.48 14.15 22.63 8.79 30.23 4.13 C 33.17 2.30 36.26 4.61 38.61 6.31 C 44.18 10.51 50.10 14.22 55.76 18.30 C 59.37 20.76 59.29 25.76 58.37 29.55 C 57.60 31.76 55.36 32.73 53.27 33.28 C 53.29 39.87 53.33 46.46 53.28 53.05 C 53.43 55.58 51.42 57.87 49.00 58.37 C 46.08 59.35 43.02 58.33 40.04 58.44 C 32.99 58.56 25.94 58.24 18.90 58.75 C 16.08 58.63 12.25 57.54 12.14 54.11 C 11.66 47.17 12.00 40.18 11.99 33.23 C 9.44 32.92 6.35 32.16 5.56 29.32 C 4.82 25.86 4.60 21.23 8.10 19.15 M 29.96 6.79 C 22.58 11.87 15.28 17.07 7.77 21.98 C 7.49 24.48 6.59 27.37 8.11 29.65 C 9.77 31.05 12.06 30.96 14.09 31.20 C 14.30 38.72 13.97 46.25 14.36 53.76 C 14.97 56.37 18.10 56.43 20.27 56.34 C 20.31 54.74 20.39 53.15 20.42 51.55 C 28.59 51.60 36.77 51.53 44.94 51.59 C 44.94 53.18 44.95 54.78 44.96 56.38 C 46.71 56.14 48.91 56.61 50.25 55.16 C 51.42 54.11 50.93 52.36 51.10 50.98 C 51.10 44.33 51.03 37.68 51.13 31.03 C 53.09 30.89 55.91 30.76 56.48 28.41 C 56.97 26.04 56.71 23.58 55.94 21.30 C 48.67 16.30 41.38 11.32 34.39 5.94 C 32.88 6.00 31.22 5.74 29.96 6.79 Z" />
<path fill="#000000" opacity="1.00" d=" M 20.53 30.92 C 28.66 31.28 36.80 31.01 44.93 31.08 C 44.92 32.74 44.91 34.40 44.91 36.06 C 36.72 36.09 28.53 36.13 20.34 36.04 C 20.40 34.33 20.45 32.62 20.53 30.92 Z" />
<path fill="#000000" opacity="1.00" d=" M 20.43 41.47 C 28.59 41.27 36.75 41.43 44.92 41.40 C 44.90 43.10 44.90 44.81 44.89 46.51 C 36.72 46.06 28.51 46.37 20.33 46.33 C 20.36 44.71 20.40 43.09 20.43 41.47 Z" />
</g>
<g id="#4fa5d7ff">
<path fill="#4fa5d7" opacity="1.00" d=" M 29.96 6.79 C 31.22 5.74 32.88 6.00 34.39 5.94 C 41.38 11.32 48.67 16.30 55.94 21.30 C 56.71 23.58 56.97 26.04 56.48 28.41 C 55.91 30.76 53.09 30.89 51.13 31.03 C 51.03 37.68 51.10 44.33 51.10 50.98 C 50.93 52.36 51.42 54.11 50.25 55.16 C 48.91 56.61 46.71 56.14 44.96 56.38 C 44.95 54.78 44.94 53.18 44.94 51.59 C 36.77 51.53 28.59 51.60 20.42 51.55 C 20.39 53.15 20.31 54.74 20.27 56.34 C 18.10 56.43 14.97 56.37 14.36 53.76 C 13.97 46.25 14.30 38.72 14.09 31.20 C 12.06 30.96 9.77 31.05 8.11 29.65 C 6.59 27.37 7.49 24.48 7.77 21.98 C 15.28 17.07 22.58 11.87 29.96 6.79 M 20.53 30.92 C 20.45 32.62 20.40 34.33 20.34 36.04 C 28.53 36.13 36.72 36.09 44.91 36.06 C 44.91 34.40 44.92 32.74 44.93 31.08 C 36.80 31.01 28.66 31.28 20.53 30.92 M 20.43 41.47 C 20.40 43.09 20.36 44.71 20.33 46.33 C 28.51 46.37 36.72 46.06 44.89 46.51 C 44.90 44.81 44.90 43.10 44.92 41.40 C 36.75 41.43 28.59 41.27 20.43 41.47 Z" />
</g>
</svg>
