<?xml version="1.0" encoding="UTF-8" ?>
<!DOCTYPE svg PUBLIC "-//W3C//DTD SVG 1.1//EN" "http://www.w3.org/Graphics/SVG/1.1/DTD/svg11.dtd">
<svg width="64pt" height="64pt" viewBox="0 0 64 64" version="1.1" xmlns="http://www.w3.org/2000/svg">
<g id="#060406fe">
<path fill="#060406" opacity="1.00" d=" M 11.83 27.78 C 13.58 23.90 17.67 20.99 22.04 21.53 C 25.90 21.49 28.72 24.44 30.92 27.25 C 36.64 27.30 42.37 27.26 48.10 27.23 C 49.61 27.32 51.62 27.02 52.45 28.65 C 53.06 30.81 52.59 33.09 52.52 35.29 C 51.49 35.64 50.46 35.98 49.42 36.32 C 49.37 38.44 49.13 40.56 48.09 42.45 C 44.67 42.30 41.24 42.53 37.83 42.24 C 35.34 41.52 36.36 38.19 35.76 36.24 C 34.03 36.28 32.30 36.31 30.57 36.36 C 27.86 41.20 21.39 43.36 16.46 40.64 C 11.75 38.46 10.10 32.41 11.83 27.78 M 13.42 34.68 C 15.11 38.84 20.31 41.21 24.49 39.40 C 26.93 38.70 28.17 36.36 29.41 34.36 C 32.11 34.40 34.81 34.39 37.51 34.39 C 37.92 36.65 36.82 40.38 39.99 40.85 C 41.74 39.17 41.24 36.66 41.47 34.50 C 42.06 34.43 43.24 34.31 43.83 34.25 C 44.04 36.42 43.69 38.76 44.85 40.72 C 48.33 41.08 47.38 37.04 47.56 34.82 C 48.65 34.56 49.70 34.18 50.70 33.69 C 51.02 32.14 51.66 29.98 49.85 29.10 C 43.06 28.76 36.24 29.06 29.43 28.95 C 27.67 25.94 24.90 22.81 21.04 23.29 C 15.47 23.27 11.36 29.57 13.42 34.68 Z" />
<path fill="#060406" opacity="1.00" d=" M 18.41 28.33 C 20.55 26.00 23.83 27.81 25.69 29.56 C 25.62 31.47 25.91 33.76 24.15 35.06 C 22.34 36.73 19.81 35.80 17.77 35.21 C 17.26 32.95 15.92 29.91 18.41 28.33 Z" />
</g>
<g id="#fafbfaff">
<path fill="#fafbfa" opacity="1.00" d=" M 13.42 34.68 C 11.36 29.57 15.47 23.27 21.04 23.29 C 24.90 22.81 27.67 25.94 29.43 28.95 C 36.24 29.06 43.06 28.76 49.85 29.10 C 51.66 29.98 51.02 32.14 50.70 33.69 C 49.70 34.18 48.65 34.56 47.56 34.82 C 47.38 37.04 48.33 41.08 44.85 40.72 C 43.69 38.76 44.04 36.42 43.83 34.25 C 43.24 34.31 42.06 34.43 41.47 34.50 C 41.24 36.66 41.74 39.17 39.99 40.85 C 36.82 40.38 37.92 36.65 37.51 34.39 C 34.81 34.39 32.11 34.40 29.41 34.36 C 28.17 36.36 26.93 38.70 24.49 39.40 C 20.31 41.21 15.11 38.84 13.42 34.68 M 18.41 28.33 C 15.92 29.91 17.26 32.95 17.77 35.21 C 19.81 35.80 22.34 36.73 24.15 35.06 C 25.91 33.76 25.62 31.47 25.69 29.56 C 23.83 27.81 20.55 26.00 18.41 28.33 Z" />
</g>
</svg>
