<?xml version="1.0" encoding="UTF-8" ?>
<!DOCTYPE svg PUBLIC "-//W3C//DTD SVG 1.1//EN" "http://www.w3.org/Graphics/SVG/1.1/DTD/svg11.dtd">
<svg width="64pt" height="64pt" viewBox="0 0 64 64" version="1.1" xmlns="http://www.w3.org/2000/svg">
<g id="#080708fa">
<path fill="#080708" opacity="0.98" d=" M 29.84 10.85 C 30.71 9.23 32.67 9.94 34.14 9.76 C 37.17 15.23 38.22 21.50 38.38 27.70 C 42.05 24.02 45.75 19.01 51.31 18.55 C 51.88 19.53 52.45 20.51 53.03 21.48 C 52.32 26.65 49.45 31.14 46.28 35.16 C 48.67 34.85 51.12 34.50 53.46 35.27 C 53.73 35.94 54.27 37.29 54.54 37.96 C 53.04 41.52 49.36 43.10 46.00 44.41 C 46.22 45.48 46.44 46.55 46.66 47.62 C 43.96 50.93 39.52 49.56 35.88 49.26 C 35.47 50.95 35.95 53.24 34.22 54.29 C 32.80 55.25 31.10 54.60 29.58 54.34 C 29.03 52.64 28.70 50.88 28.62 49.09 C 25.19 49.45 19.24 51.46 17.78 47.14 C 17.92 46.48 18.20 45.17 18.34 44.52 C 15.31 42.84 10.86 41.80 10.11 37.87 C 10.16 33.58 15.36 34.84 18.11 35.26 C 15.36 31.52 12.61 27.56 11.58 22.96 C 11.09 20.88 12.51 18.22 14.93 18.57 C 19.42 20.56 22.66 24.41 26.18 27.69 C 26.25 21.95 26.81 15.86 29.84 10.85 M 29.06 36.06 C 25.41 29.85 20.37 24.19 13.99 20.73 C 14.09 22.48 14.06 24.33 14.93 25.91 C 17.57 31.18 21.45 35.70 25.64 39.79 C 21.30 38.47 16.44 36.23 11.94 37.82 C 15.51 41.44 20.59 42.81 25.36 44.05 C 23.09 44.14 21.14 45.20 19.77 47.01 C 23.45 48.00 27.16 47.11 30.67 45.94 C 30.81 48.39 31.03 50.89 32.09 53.14 C 33.49 50.95 33.83 48.41 33.38 45.88 C 36.93 46.62 41.49 48.95 44.65 46.30 C 43.00 45.21 41.19 44.43 39.29 43.94 C 43.92 42.71 48.69 41.32 52.33 38.03 C 52.02 37.81 51.41 37.36 51.10 37.14 C 46.85 37.06 42.79 38.49 38.81 39.81 C 43.71 34.33 49.70 28.77 50.75 21.12 C 49.17 20.69 48.04 22.12 46.89 22.94 C 42.23 26.55 38.17 30.99 35.32 36.17 C 36.17 27.94 36.71 19.01 32.22 11.64 C 27.66 18.89 28.19 27.89 29.06 36.06 Z" />
</g>
<g id="#fefdfeff">
<path fill="#fefdfe" opacity="1.00" d=" M 29.06 36.06 C 28.19 27.89 27.66 18.89 32.22 11.64 C 36.71 19.01 36.17 27.94 35.32 36.17 C 38.17 30.99 42.23 26.55 46.89 22.94 C 48.04 22.12 49.17 20.69 50.75 21.12 C 49.70 28.77 43.71 34.33 38.81 39.81 C 42.79 38.49 46.85 37.06 51.10 37.14 C 51.41 37.36 52.02 37.81 52.33 38.03 C 48.69 41.32 43.92 42.71 39.29 43.94 C 41.19 44.43 43.00 45.21 44.65 46.30 C 41.49 48.95 36.93 46.62 33.38 45.88 C 33.83 48.41 33.49 50.95 32.09 53.14 C 31.03 50.89 30.81 48.39 30.67 45.94 C 27.16 47.11 23.45 48.00 19.77 47.01 C 21.14 45.20 23.09 44.14 25.36 44.05 C 20.59 42.81 15.51 41.44 11.94 37.82 C 16.44 36.23 21.30 38.47 25.64 39.79 C 21.45 35.70 17.57 31.18 14.93 25.91 C 14.06 24.33 14.09 22.48 13.99 20.73 C 20.37 24.19 25.41 29.85 29.06 36.06 Z" />
</g>
</svg>
