<?xml version="1.0" encoding="UTF-8" ?>
<!DOCTYPE svg PUBLIC "-//W3C//DTD SVG 1.1//EN" "http://www.w3.org/Graphics/SVG/1.1/DTD/svg11.dtd">
<svg width="64pt" height="64pt" viewBox="0 0 64 64" version="1.1" xmlns="http://www.w3.org/2000/svg">
<g id="#060406fe">
<path fill="#060406" opacity="1.00" d=" M 13.78 24.87 C 16.55 21.44 21.69 20.62 25.61 22.39 C 27.84 23.40 29.33 25.43 30.88 27.23 C 37.50 27.43 44.15 27.02 50.76 27.40 C 54.01 28.49 52.39 32.74 52.51 35.30 C 51.48 35.64 50.45 35.98 49.41 36.32 C 49.37 38.44 49.16 40.58 48.08 42.44 C 44.45 42.18 40.76 42.76 37.18 42.05 C 35.61 40.71 36.25 38.12 35.77 36.25 C 34.04 36.28 32.31 36.31 30.58 36.35 C 27.87 41.21 21.35 43.38 16.42 40.62 C 10.69 37.93 9.36 29.29 13.78 24.87 M 12.99 30.75 C 11.88 36.81 19.05 41.85 24.52 39.39 C 26.94 38.68 28.17 36.36 29.40 34.37 C 32.11 34.39 34.81 34.39 37.52 34.39 C 37.91 36.67 36.86 40.30 39.95 40.89 C 41.75 39.22 41.24 36.67 41.47 34.50 C 42.06 34.44 43.24 34.31 43.83 34.25 C 44.03 36.42 43.68 38.77 44.86 40.72 C 48.34 41.07 47.38 37.01 47.55 34.79 C 50.73 35.13 52.54 30.87 49.84 29.10 C 43.05 28.75 36.23 29.07 29.43 28.95 C 27.84 26.52 25.94 23.67 22.77 23.37 C 18.17 22.54 13.38 26.03 12.99 30.75 Z" />
<path fill="#060406" opacity="1.00" d=" M 18.38 28.35 C 20.54 26.00 23.90 27.79 25.72 29.62 C 25.63 31.52 25.87 33.78 24.14 35.07 C 22.33 36.72 19.81 35.81 17.77 35.20 C 17.25 32.96 15.93 29.94 18.38 28.35 Z" />
</g>
<g id="#fafbfaff">
<path fill="#fafbfa" opacity="1.00" d=" M 12.99 30.75 C 13.38 26.03 18.17 22.54 22.77 23.37 C 25.94 23.67 27.84 26.52 29.43 28.95 C 36.23 29.07 43.05 28.75 49.84 29.10 C 52.54 30.87 50.73 35.13 47.55 34.79 C 47.38 37.01 48.34 41.07 44.86 40.72 C 43.68 38.77 44.03 36.42 43.83 34.25 C 43.24 34.31 42.06 34.44 41.47 34.50 C 41.24 36.67 41.75 39.22 39.95 40.89 C 36.86 40.30 37.91 36.67 37.52 34.39 C 34.81 34.39 32.11 34.39 29.40 34.37 C 28.17 36.36 26.94 38.68 24.52 39.39 C 19.05 41.85 11.88 36.81 12.99 30.75 M 18.38 28.35 C 15.93 29.94 17.25 32.96 17.77 35.20 C 19.81 35.81 22.33 36.72 24.14 35.07 C 25.87 33.78 25.63 31.52 25.72 29.62 C 23.90 27.79 20.54 26.00 18.38 28.35 Z" />
</g>
</svg>
