<?xml version="1.0" encoding="UTF-8" ?>
<!DOCTYPE svg PUBLIC "-//W3C//DTD SVG 1.1//EN" "http://www.w3.org/Graphics/SVG/1.1/DTD/svg11.dtd">
<svg width="64pt" height="64pt" viewBox="0 0 64 64" version="1.1" xmlns="http://www.w3.org/2000/svg">
<g id="#010101bd">
<path fill="#010101" opacity="0.74" d=" M 8.05 4.04 C 8.50 4.02 9.39 3.97 9.83 3.94 C 8.01 17.54 9.46 31.33 8.97 45.00 C 9.38 49.96 7.99 55.26 9.89 60.03 C 9.43 60.01 8.52 59.97 8.06 59.95 C 7.95 41.32 7.95 22.68 8.05 4.04 Z" />
<path fill="#010101" opacity="0.74" d=" M 23.05 17.02 L 24.01 17.01 C 24.01 19.66 24.01 22.30 24.01 24.95 C 21.77 24.25 23.47 19.37 23.05 17.02 Z" />
<path fill="#010101" opacity="0.74" d=" M 23.02 47.02 C 23.26 44.52 23.76 39.52 24.00 37.02 C 24.00 40.33 24.00 43.64 24.00 46.94 L 23.02 47.02 Z" />
<path fill="#010101" opacity="0.74" d=" M 49.17 55.85 C 49.87 54.19 51.20 52.88 52.85 52.16 C 53.58 54.02 51.04 56.58 49.17 55.85 Z" />
</g>
<g id="#050505fb">
<path fill="#050505" opacity="1.00" d=" M 9.83 3.94 C 18.87 4.06 27.92 3.79 36.94 4.15 C 41.76 5.28 47.67 5.75 50.70 10.29 C 54.03 16.41 53.88 24.18 50.01 30.00 C 55.54 35.59 55.83 43.37 54.88 50.84 C 54.37 51.17 53.36 51.83 52.85 52.16 C 51.20 52.88 49.87 54.19 49.17 55.85 C 48.89 56.13 48.31 56.71 48.03 57.00 C 46.69 57.67 45.36 58.34 44.05 59.04 C 32.99 61.18 21.22 59.50 9.89 60.03 C 7.99 55.26 9.38 49.96 8.97 45.00 C 9.46 31.33 8.01 17.54 9.83 3.94 M 10.99 6.02 L 11.08 6.96 L 11.29 7.69 L 10.16 8.03 C 9.81 24.70 10.04 41.38 10.04 58.05 L 10.99 57.94 C 20.08 58.05 29.18 58.18 38.27 57.72 C 40.19 58.10 42.01 57.20 43.87 56.86 C 45.64 56.30 47.79 55.63 48.33 53.59 C 49.79 53.38 51.49 51.43 51.91 49.96 L 52.94 50.00 C 53.15 46.58 52.91 43.15 52.72 39.73 C 52.30 35.50 48.43 31.96 44.71 30.14 C 45.04 29.79 45.70 29.10 46.03 28.76 C 47.98 29.59 49.65 26.39 49.56 24.84 C 52.76 21.96 51.05 15.62 48.76 12.23 C 46.68 8.40 42.16 6.88 38.01 6.97 L 37.98 6.03 C 28.98 5.90 19.98 5.99 10.99 6.02 Z" />
<path fill="#050505" opacity="1.00" d=" M 22.01 16.03 C 26.25 14.11 30.78 16.03 35.20 15.52 C 40.79 15.74 41.33 22.84 38.76 26.73 C 36.93 27.02 35.13 27.73 33.26 27.67 C 29.52 27.30 25.77 27.05 22.01 26.94 C 22.00 23.30 21.99 19.67 22.01 16.03 M 23.05 17.02 C 23.47 19.37 21.77 24.25 24.01 24.95 C 28.26 25.17 32.52 25.01 36.78 24.86 C 39.39 22.98 37.89 18.72 34.95 18.05 C 31.49 16.58 27.68 16.83 24.01 17.01 L 23.05 17.02 Z" />
<path fill="#050505" opacity="1.00" d=" M 22.01 36.04 C 27.16 34.13 32.79 35.00 38.05 35.95 C 45.13 37.81 42.92 51.21 35.00 49.03 C 30.67 48.99 26.34 49.00 22.00 48.99 C 22.00 44.67 21.99 40.35 22.01 36.04 M 23.02 47.02 L 24.00 46.94 C 28.58 47.17 33.17 47.01 37.74 46.81 C 40.28 45.39 41.39 41.07 38.56 39.41 C 35.05 35.00 28.75 37.62 24.00 37.02 C 23.76 39.52 23.26 44.52 23.02 47.02 Z" />
</g>
<g id="#b2b2b2ff">
<path fill="#b2b2b2" opacity="1.00" d=" M 10.99 6.02 C 19.98 5.99 28.98 5.90 37.98 6.03 L 38.01 6.97 C 29.03 7.02 20.06 7.03 11.08 6.96 L 10.99 6.02 Z" />
<path fill="#b2b2b2" opacity="1.00" d=" M 22.02 14.03 C 26.15 14.95 31.95 11.93 35.20 15.52 C 30.78 16.03 26.25 14.11 22.01 16.03 C 22.01 15.53 22.02 14.53 22.02 14.03 Z" />
<path fill="#b2b2b2" opacity="1.00" d=" M 22.01 26.94 C 25.77 27.05 29.52 27.30 33.26 27.67 C 30.45 27.75 24.81 27.90 22.00 27.98 L 22.01 26.94 Z" />
<path fill="#b2b2b2" opacity="1.00" d=" M 11.26 38.73 C 12.99 44.35 11.83 50.49 11.25 56.20 C 11.05 50.38 11.04 44.56 11.26 38.73 Z" />
<path fill="#b2b2b2" opacity="1.00" d=" M 20.04 40.02 L 20.98 40.00 C 21.01 42.67 21.02 45.34 21.00 48.01 C 18.77 47.13 20.47 42.42 20.04 40.02 Z" />
<path fill="#b2b2b2" opacity="1.00" d=" M 51.91 49.96 C 51.98 46.54 52.26 43.12 52.72 39.73 C 52.91 43.15 53.15 46.58 52.94 50.00 L 51.91 49.96 Z" />
<path fill="#b2b2b2" opacity="1.00" d=" M 44.14 52.97 C 45.56 53.00 46.96 53.24 48.33 53.59 C 47.79 55.63 45.64 56.30 43.87 56.86 C 43.93 55.56 44.02 54.27 44.14 52.97 Z" />
</g>
<g id="#f3f3f3ff">
<path fill="#f3f3f3" opacity="1.00" d=" M 11.08 6.96 C 20.06 7.03 29.03 7.02 38.01 6.97 C 42.16 6.88 46.68 8.40 48.76 12.23 C 51.05 15.62 52.76 21.96 49.56 24.84 C 47.55 25.18 46.70 27.07 46.03 28.76 C 45.70 29.10 45.04 29.79 44.71 30.14 C 33.87 31.71 22.95 32.34 12.06 30.85 C 11.30 23.19 13.24 15.20 11.29 7.69 L 11.08 6.96 M 22.02 14.03 C 22.02 14.53 22.01 15.53 22.01 16.03 L 21.02 15.97 L 20.06 16.03 C 20.46 18.42 18.79 23.11 20.98 24.01 C 20.56 25.80 20.90 26.77 22.01 26.94 L 22.00 27.98 C 24.81 27.90 30.45 27.75 33.26 27.67 C 35.13 27.73 36.93 27.02 38.76 26.73 C 41.33 22.84 40.79 15.74 35.20 15.52 C 31.95 11.93 26.15 14.95 22.02 14.03 Z" />
</g>
<g id="#8a898aff">
<path fill="#8a898a" opacity="1.00" d=" M 10.16 8.03 L 11.29 7.69 C 11.07 18.03 10.56 28.41 11.26 38.73 C 11.04 44.56 11.05 50.38 11.25 56.20 L 11.15 57.05 L 10.99 57.94 L 10.04 58.05 C 10.04 41.38 9.81 24.70 10.16 8.03 Z" />
<path fill="#8a898a" opacity="1.00" d=" M 21.02 15.97 L 22.01 16.03 C 21.99 19.67 22.00 23.30 22.01 26.94 C 20.90 26.77 20.56 25.80 20.98 24.01 C 21.00 21.33 21.01 18.65 21.02 15.97 Z" />
<path fill="#8a898a" opacity="1.00" d=" M 22.02 34.03 C 26.72 35.60 35.09 30.92 38.05 35.95 C 32.79 35.00 27.16 34.13 22.01 36.04 C 22.02 35.53 22.02 34.53 22.02 34.03 Z" />
<path fill="#8a898a" opacity="1.00" d=" M 20.98 40.00 C 21.44 38.86 19.96 35.55 22.01 36.04 C 21.99 40.35 22.00 44.67 22.00 48.99 C 21.75 48.74 21.25 48.25 21.00 48.01 C 21.02 45.34 21.01 42.67 20.98 40.00 Z" />
<path fill="#8a898a" opacity="1.00" d=" M 22.00 48.99 C 26.34 49.00 30.67 48.99 35.00 49.03 L 35.00 49.99 C 30.67 50.00 26.34 50.17 22.02 49.95 L 22.00 48.99 Z" />
<path fill="#8a898a" opacity="1.00" d=" M 11.15 57.05 C 20.19 57.08 29.28 56.49 38.27 57.72 C 29.18 58.18 20.08 58.05 10.99 57.94 L 11.15 57.05 Z" />
</g>
<g id="#d1d1d1ff">
<path fill="#d1d1d1" opacity="1.00" d=" M 11.29 7.69 C 13.24 15.20 11.30 23.19 12.06 30.85 C 22.95 32.34 33.87 31.71 44.71 30.14 C 48.43 31.96 52.30 35.50 52.72 39.73 C 52.26 43.12 51.98 46.54 51.91 49.96 C 51.49 51.43 49.79 53.38 48.33 53.59 C 46.96 53.24 45.56 53.00 44.14 52.97 C 44.02 54.27 43.93 55.56 43.87 56.86 C 42.01 57.20 40.19 58.10 38.27 57.72 C 29.28 56.49 20.19 57.08 11.15 57.05 L 11.25 56.20 C 11.83 50.49 12.99 44.35 11.26 38.73 C 10.56 28.41 11.07 18.03 11.29 7.69 M 22.02 34.03 C 22.02 34.53 22.02 35.53 22.01 36.04 C 19.96 35.55 21.44 38.86 20.98 40.00 L 20.04 40.02 C 20.47 42.42 18.77 47.13 21.00 48.01 C 21.25 48.25 21.75 48.74 22.00 48.99 L 22.02 49.95 C 26.34 50.17 30.67 50.00 35.00 49.99 L 35.00 49.03 C 42.92 51.21 45.13 37.81 38.05 35.95 C 35.09 30.92 26.72 35.60 22.02 34.03 Z" />
<path fill="#d1d1d1" opacity="1.00" d=" M 20.06 16.03 L 21.02 15.97 C 21.01 18.65 21.00 21.33 20.98 24.01 C 18.79 23.11 20.46 18.42 20.06 16.03 Z" />
</g>
<g id="#4f4f4fff">
<path fill="#4f4f4f" opacity="1.00" d=" M 46.03 28.76 C 46.70 27.07 47.55 25.18 49.56 24.84 C 49.65 26.39 47.98 29.59 46.03 28.76 Z" />
</g>
<g id="#0000003c">
<path fill="#000000" opacity="0.24" d=" M 44.05 59.04 C 45.36 58.34 46.69 57.67 48.03 57.00 C 49.87 60.30 44.35 61.21 44.05 59.04 Z" />
</g>
</svg>
