<?xml version="1.0" encoding="UTF-8" ?>
<!DOCTYPE svg PUBLIC "-//W3C//DTD SVG 1.1//EN" "http://www.w3.org/Graphics/SVG/1.1/DTD/svg11.dtd">
<svg width="64pt" height="64pt" viewBox="0 0 64 64" version="1.1" xmlns="http://www.w3.org/2000/svg">
<g id="#080608fe">
<path fill="#080608" opacity="1.00" d=" M 38.68 7.69 C 44.05 3.33 52.54 3.94 57.75 8.28 C 62.40 12.39 62.32 20.57 57.56 24.57 C 55.69 26.58 52.21 27.87 52.62 31.17 C 52.78 35.20 53.62 39.29 52.43 43.26 C 49.28 43.36 46.12 43.46 42.97 43.43 C 42.76 48.70 43.39 54.01 42.49 59.24 C 39.15 59.03 35.54 59.98 32.41 58.55 C 31.42 54.46 32.04 50.15 31.97 45.98 C 30.40 50.08 29.43 54.46 27.30 58.32 C 25.23 59.81 22.46 59.08 20.07 59.40 C 16.13 56.23 16.08 50.64 14.30 46.25 C 13.76 50.29 14.57 54.64 13.40 58.49 C 10.63 60.20 6.91 58.88 3.77 59.31 C 2.35 56.75 2.70 53.78 2.69 50.98 C 2.72 43.98 2.72 36.98 2.69 29.98 C 2.71 27.15 2.35 24.19 3.59 21.54 C 8.14 22.09 13.10 20.37 17.32 22.58 C 19.09 28.45 21.29 34.17 23.09 40.02 C 24.87 34.47 26.58 28.90 28.47 23.39 C 29.28 21.10 32.15 21.55 34.07 21.39 C 37.25 21.50 40.78 20.73 43.50 22.83 C 43.46 23.37 43.38 24.45 43.34 24.99 C 44.24 21.69 47.13 19.81 49.54 17.69 C 50.86 16.66 49.70 14.85 48.73 14.02 C 48.50 14.12 48.03 14.32 47.80 14.42 C 44.19 14.81 46.15 20.22 42.86 20.69 C 39.71 21.01 36.26 21.28 33.45 19.54 C 33.95 15.22 35.02 10.47 38.68 7.69 M 43.21 7.83 C 38.81 9.34 36.24 13.86 36.13 18.36 C 38.23 18.37 40.33 18.38 42.43 18.42 C 42.77 15.15 45.06 11.65 48.78 12.33 C 51.98 12.84 51.92 16.52 51.53 18.99 C 47.87 22.00 43.50 25.59 44.24 30.91 C 46.19 30.93 48.14 30.95 50.09 30.96 C 50.31 28.34 52.05 26.36 53.21 24.13 L 53.57 25.14 C 56.86 22.56 60.03 18.53 58.58 14.10 C 56.81 7.81 48.80 5.77 43.21 7.83 M 4.98 23.75 C 4.97 26.30 4.97 28.84 4.94 31.39 C 4.96 36.51 4.94 41.64 5.09 46.76 C 4.94 50.13 4.92 53.51 4.98 56.88 C 7.22 56.88 9.45 56.89 11.68 56.89 C 11.67 55.44 11.66 53.98 11.66 52.53 C 11.59 47.34 11.78 42.14 11.66 36.95 C 11.71 36.04 11.81 34.21 11.86 33.29 C 12.09 33.91 12.56 35.13 12.79 35.74 C 14.43 39.79 15.65 44.00 17.35 48.02 L 17.90 48.17 L 17.72 48.86 C 18.21 51.64 19.36 54.23 20.18 56.92 C 22.03 56.84 23.94 57.12 25.74 56.61 C 27.73 51.39 29.45 46.04 31.24 40.74 C 32.13 37.94 33.15 35.19 34.18 32.45 C 34.31 34.90 34.36 37.35 34.36 39.81 C 34.33 42.65 34.35 45.50 34.36 48.34 C 34.32 51.20 34.34 54.06 34.35 56.92 C 36.46 56.90 38.58 56.89 40.69 56.88 C 40.55 51.40 40.99 45.90 40.58 40.43 C 40.78 34.87 40.65 29.31 40.74 23.75 C 37.45 23.75 34.17 23.71 30.88 23.74 C 29.64 27.66 28.10 31.50 27.13 35.50 C 25.56 39.24 24.45 43.15 23.24 47.02 C 22.33 44.55 21.47 42.07 20.65 39.57 L 20.54 40.34 C 20.43 38.73 19.72 37.24 19.24 35.72 C 17.63 31.82 16.56 27.74 15.20 23.75 C 11.79 23.73 8.38 23.73 4.98 23.75 M 43.72 34.03 C 43.73 36.33 43.73 38.63 43.74 40.93 C 46.05 40.92 48.37 40.91 50.68 40.89 C 50.68 38.60 50.67 36.31 50.67 34.03 C 48.35 34.03 46.03 34.03 43.72 34.03 Z" />
</g>
<g id="#f6f5f6ff">
<path fill="#f6f5f6" opacity="1.00" d=" M 43.21 7.83 C 48.80 5.77 56.81 7.81 58.58 14.10 C 60.03 18.53 56.86 22.56 53.57 25.14 L 53.21 24.13 C 52.63 22.42 52.03 20.72 51.53 18.99 C 51.92 16.52 51.98 12.84 48.78 12.33 C 45.06 11.65 42.77 15.15 42.43 18.42 C 40.33 18.38 38.23 18.37 36.13 18.36 C 36.24 13.86 38.81 9.34 43.21 7.83 Z" />
<path fill="#f6f5f6" opacity="1.00" d=" M 4.98 23.75 C 8.38 23.73 11.79 23.73 15.20 23.75 C 16.56 27.74 17.63 31.82 19.24 35.72 C 17.09 35.73 14.94 35.73 12.79 35.74 C 12.56 35.13 12.09 33.91 11.86 33.29 C 11.81 34.21 11.71 36.04 11.66 36.95 C 9.32 35.23 7.07 33.37 4.94 31.39 C 4.97 28.84 4.97 26.30 4.98 23.75 Z" />
<path fill="#f6f5f6" opacity="1.00" d=" M 27.13 35.50 C 28.10 31.50 29.64 27.66 30.88 23.74 C 34.17 23.71 37.45 23.75 40.74 23.75 C 40.65 29.31 40.78 34.87 40.58 40.43 L 40.50 39.70 C 40.45 39.30 40.37 38.49 40.32 38.09 C 38.33 38.66 36.35 39.24 34.36 39.81 C 34.36 37.35 34.31 34.90 34.18 32.45 C 33.15 35.19 32.13 37.94 31.24 40.74 C 30.09 40.13 28.93 39.53 27.77 38.93 C 27.54 37.79 27.33 36.64 27.13 35.50 Z" />
</g>
<g id="#4c4c4cff">
<path fill="#4c4c4c" opacity="1.00" d=" M 47.80 14.42 C 48.03 14.32 48.50 14.12 48.73 14.02 C 49.70 14.85 50.86 16.66 49.54 17.69 C 48.51 16.84 47.93 15.75 47.80 14.42 Z" />
</g>
<g id="#dfe0dfff">
<path fill="#dfe0df" opacity="1.00" d=" M 44.24 30.91 C 43.50 25.59 47.87 22.00 51.53 18.99 C 52.03 20.72 52.63 22.42 53.21 24.13 C 52.05 26.36 50.31 28.34 50.09 30.96 C 48.14 30.95 46.19 30.93 44.24 30.91 Z" />
<path fill="#dfe0df" opacity="1.00" d=" M 4.94 31.39 C 7.07 33.37 9.32 35.23 11.66 36.95 C 11.78 42.14 11.59 47.34 11.66 52.53 C 9.58 50.49 7.35 48.61 5.09 46.76 C 4.94 41.64 4.96 36.51 4.94 31.39 Z" />
<path fill="#dfe0df" opacity="1.00" d=" M 12.79 35.74 C 14.94 35.73 17.09 35.73 19.24 35.72 C 19.72 37.24 20.43 38.73 20.54 40.34 C 20.19 43.09 19.59 45.90 17.90 48.17 L 17.35 48.02 C 15.65 44.00 14.43 39.79 12.79 35.74 Z" />
<path fill="#dfe0df" opacity="1.00" d=" M 34.36 39.81 C 36.35 39.24 38.33 38.66 40.32 38.09 C 40.37 38.49 40.45 39.30 40.50 39.70 C 40.82 43.93 37.69 46.51 34.36 48.34 C 34.35 45.50 34.33 42.65 34.36 39.81 Z" />
</g>
<g id="#cdcccdff">
<path fill="#cdcccd" opacity="1.00" d=" M 43.72 34.03 C 46.03 34.03 48.35 34.03 50.67 34.03 C 50.67 36.31 50.68 38.60 50.68 40.89 C 48.37 40.91 46.05 40.92 43.74 40.93 C 43.73 38.63 43.73 36.33 43.72 34.03 Z" />
<path fill="#cdcccd" opacity="1.00" d=" M 23.24 47.02 C 24.45 43.15 25.56 39.24 27.13 35.50 C 27.33 36.64 27.54 37.79 27.77 38.93 C 28.93 39.53 30.09 40.13 31.24 40.74 C 29.45 46.04 27.73 51.39 25.74 56.61 C 23.94 57.12 22.03 56.84 20.18 56.92 C 19.36 54.23 18.21 51.64 17.72 48.86 L 17.90 48.17 C 19.59 45.90 20.19 43.09 20.54 40.34 L 20.65 39.57 C 21.47 42.07 22.33 44.55 23.24 47.02 Z" />
<path fill="#cdcccd" opacity="1.00" d=" M 40.50 39.70 L 40.58 40.43 C 40.99 45.90 40.55 51.40 40.69 56.88 C 38.58 56.89 36.46 56.90 34.35 56.92 C 34.34 54.06 34.32 51.20 34.36 48.34 C 37.69 46.51 40.82 43.93 40.50 39.70 Z" />
<path fill="#cdcccd" opacity="1.00" d=" M 5.09 46.76 C 7.35 48.61 9.58 50.49 11.66 52.53 C 11.66 53.98 11.67 55.44 11.68 56.89 C 9.45 56.89 7.22 56.88 4.98 56.88 C 4.92 53.51 4.94 50.13 5.09 46.76 Z" />
</g>
</svg>
