<?xml version="1.0" encoding="UTF-8" ?>
<!DOCTYPE svg PUBLIC "-//W3C//DTD SVG 1.1//EN" "http://www.w3.org/Graphics/SVG/1.1/DTD/svg11.dtd">
<svg width="64pt" height="64pt" viewBox="0 0 64 64" version="1.1" xmlns="http://www.w3.org/2000/svg">
<g id="#aaaaaaff">
<path fill="#aaaaaa" opacity="1.00" d=" M 49.45 5.51 C 50.56 4.60 51.27 4.83 51.59 6.18 C 50.44 7.09 49.73 6.87 49.45 5.51 Z" />
<path fill="#aaaaaa" opacity="1.00" d=" M 34.88 14.62 C 41.08 13.24 46.00 18.57 48.25 23.71 C 49.85 27.28 50.62 32.36 47.16 35.11 C 43.36 37.83 39.09 39.83 35.10 42.26 C 35.96 37.33 34.87 32.16 31.82 28.16 C 29.86 25.77 27.61 22.96 24.28 22.72 L 22.99 23.45 C 17.57 24.87 12.54 27.83 8.28 31.43 C 8.01 31.69 7.45 32.22 7.17 32.48 C 15.06 34.65 19.19 43.45 18.02 51.17 C 16.44 53.40 11.42 56.00 10.71 51.86 C 10.31 52.02 9.50 52.34 9.09 52.50 C 8.20 51.99 7.30 51.48 6.40 50.98 C 6.13 50.83 5.60 50.52 5.33 50.37 C 4.20 47.91 2.82 45.57 1.87 43.04 C 1.19 41.09 1.52 38.84 0.48 37.03 L 0.00 36.75 L 0.00 36.10 C 2.49 34.82 4.18 32.25 7.16 31.92 C 7.41 31.44 7.90 30.46 8.15 29.98 L 6.14 30.05 L 7.54 29.14 C 7.92 29.30 8.68 29.60 9.06 29.76 L 9.21 28.10 C 9.65 28.23 10.55 28.51 10.99 28.64 C 11.29 27.97 11.89 26.63 12.19 25.96 L 13.57 26.81 C 13.74 26.33 14.06 25.38 14.23 24.91 L 15.61 25.83 C 15.75 25.52 16.05 24.90 16.20 24.59 C 18.06 24.57 18.84 22.76 20.02 21.65 L 19.29 23.91 C 20.29 23.53 22.29 22.78 23.29 22.40 C 23.24 22.16 23.15 21.68 23.10 21.44 C 24.25 21.03 25.40 20.64 26.55 20.24 C 29.31 21.54 32.79 22.14 35.49 20.43 C 37.09 19.53 36.83 17.90 35.59 16.65 L 35.49 16.91 C 35.34 16.34 35.04 15.19 34.88 14.62 Z" />
</g>
<g id="#535353f0">
<path fill="#535353" opacity="0.94" d=" M 45.95 6.97 C 47.14 5.72 48.66 6.29 50.02 6.88 C 46.04 8.40 42.51 10.84 38.83 12.93 C 46.99 15.68 52.66 25.02 50.40 33.49 C 54.28 30.36 60.73 29.41 62.35 24.16 C 62.87 22.39 63.43 20.64 64.00 18.88 L 64.00 24.59 C 63.17 26.57 62.04 28.51 59.95 29.38 C 61.16 30.40 62.36 31.42 63.48 32.54 C 62.28 33.07 61.08 33.60 59.88 34.13 C 59.92 35.34 59.97 36.55 60.02 37.76 C 58.24 38.80 56.60 41.95 54.28 40.33 C 53.07 41.51 51.88 42.70 50.69 43.90 C 49.07 43.84 47.44 43.77 45.82 43.69 C 46.18 43.20 46.91 42.23 47.27 41.74 C 45.46 42.72 43.69 43.76 41.94 44.84 C 39.62 46.09 37.34 47.42 35.00 48.63 C 35.73 48.82 37.18 49.21 37.91 49.40 C 34.72 50.52 34.03 55.67 30.09 54.75 C 31.90 53.39 33.46 51.67 34.17 49.48 C 31.51 50.21 29.80 52.07 29.39 54.78 C 28.16 56.71 26.24 57.97 24.34 59.15 C 23.94 58.58 23.14 57.44 22.74 56.86 C 21.10 57.10 19.24 58.44 17.75 57.15 C 15.13 55.36 11.99 54.84 8.92 54.36 C 8.88 55.01 8.81 56.33 8.77 56.98 C 7.36 57.75 6.11 56.45 4.88 55.95 C 5.12 54.21 4.71 52.11 6.40 50.98 C 7.30 51.48 8.20 51.99 9.09 52.50 C 9.50 52.34 10.31 52.02 10.71 51.86 C 11.42 56.00 16.44 53.40 18.02 51.17 C 19.19 43.45 15.06 34.65 7.17 32.48 C 7.45 32.22 8.01 31.69 8.28 31.43 C 16.21 34.08 21.10 43.42 19.11 51.50 C 23.29 48.81 27.88 46.77 31.89 43.82 C 34.51 41.79 34.27 38.15 33.69 35.24 C 32.17 30.02 28.59 24.74 22.99 23.45 L 24.28 22.72 C 27.61 22.96 29.86 25.77 31.82 28.16 C 34.87 32.16 35.96 37.33 35.10 42.26 C 39.09 39.83 43.36 37.83 47.16 35.11 C 50.62 32.36 49.85 27.28 48.25 23.71 C 46.00 18.57 41.08 13.24 34.88 14.62 L 34.82 14.45 C 37.57 10.75 42.39 9.69 45.95 6.97 M 56.56 31.52 C 43.16 39.17 29.86 46.99 16.43 54.58 C 17.57 55.39 19.02 56.67 20.43 55.58 C 33.90 47.77 47.37 39.96 60.86 32.18 C 59.59 31.19 57.99 30.18 56.56 31.52 M 56.53 36.13 C 55.39 36.41 53.77 38.64 55.70 39.04 C 57.72 39.59 59.38 34.95 56.53 36.13 M 48.08 41.60 C 49.73 44.94 52.52 40.91 52.36 38.77 C 50.78 39.46 49.34 40.41 48.08 41.60 M 6.12 53.30 C 5.47 54.32 6.53 56.41 7.84 55.87 C 8.50 54.86 7.33 52.91 6.12 53.30 M 23.86 57.14 C 26.37 57.42 27.22 54.84 28.10 53.05 C 26.31 53.92 23.54 54.59 23.86 57.14 Z" />
<path fill="#535353" opacity="0.94" d=" M 32.45 15.06 L 33.01 14.94 C 33.73 15.66 34.37 16.45 34.92 17.30 C 32.19 16.87 29.40 16.82 27.01 18.35 C 27.49 18.77 28.46 19.60 28.94 20.02 C 30.79 19.96 32.65 19.89 34.50 19.78 C 34.79 18.81 35.12 17.85 35.49 16.91 L 35.59 16.65 C 36.83 17.90 37.09 19.53 35.49 20.43 C 32.79 22.14 29.31 21.54 26.55 20.24 C 25.40 20.64 24.25 21.03 23.10 21.44 L 22.93 20.56 C 25.76 18.51 27.64 15.26 31.58 15.25 C 31.80 15.20 32.23 15.10 32.45 15.06 Z" />
<path fill="#535353" opacity="0.94" d=" M 5.43 30.42 L 5.68 30.30 C 5.57 30.37 5.33 30.50 5.22 30.56 L 5.43 30.42 Z" />
</g>
<g id="#ffffffff">
<path fill="#ffffff" opacity="1.00" d=" M 50.02 6.88 C 51.28 6.76 52.54 6.63 53.80 6.47 L 53.54 7.77 C 54.06 7.65 55.11 7.40 55.63 7.28 L 55.40 8.34 C 56.76 9.28 58.06 10.40 59.70 10.84 C 59.50 11.24 59.08 12.05 58.88 12.45 L 60.73 12.28 L 59.98 14.05 L 62.33 12.74 C 61.97 13.15 61.24 13.98 60.88 14.39 C 61.52 14.78 62.13 15.20 62.73 15.65 C 62.47 16.01 61.95 16.72 61.68 17.08 C 62.12 19.40 62.82 21.78 62.35 24.16 C 60.73 29.41 54.28 30.36 50.40 33.49 C 52.66 25.02 46.99 15.68 38.83 12.93 C 42.51 10.84 46.04 8.40 50.02 6.88 Z" />
<path fill="#ffffff" opacity="1.00" d=" M 32.86 14.79 C 33.35 14.71 34.33 14.54 34.82 14.45 L 34.88 14.62 C 35.04 15.19 35.34 16.34 35.49 16.91 C 35.12 17.85 34.79 18.81 34.50 19.78 C 32.65 19.89 30.79 19.96 28.94 20.02 C 28.46 19.60 27.49 18.77 27.01 18.35 C 29.40 16.82 32.19 16.87 34.92 17.30 C 34.37 16.45 33.73 15.66 33.01 14.94 L 32.86 14.79 Z" />
<path fill="#ffffff" opacity="1.00" d=" M 8.28 31.43 C 12.54 27.83 17.57 24.87 22.99 23.45 C 28.59 24.74 32.17 30.02 33.69 35.24 C 34.27 38.15 34.51 41.79 31.89 43.82 C 27.88 46.77 23.29 48.81 19.11 51.50 C 21.10 43.42 16.21 34.08 8.28 31.43 Z" />
<path fill="#ffffff" opacity="1.00" d=" M 56.56 31.52 C 57.99 30.18 59.59 31.19 60.86 32.18 C 47.37 39.96 33.90 47.77 20.43 55.58 C 19.02 56.67 17.57 55.39 16.43 54.58 C 29.86 46.99 43.16 39.17 56.56 31.52 Z" />
<path fill="#ffffff" opacity="1.00" d=" M 56.53 36.13 C 59.38 34.95 57.72 39.59 55.70 39.04 C 53.77 38.64 55.39 36.41 56.53 36.13 Z" />
<path fill="#ffffff" opacity="1.00" d=" M 41.94 44.84 C 43.69 43.76 45.46 42.72 47.27 41.74 C 46.91 42.23 46.18 43.20 45.82 43.69 L 47.55 45.25 C 46.72 44.91 45.06 44.22 44.23 43.88 L 44.96 45.92 C 44.21 45.65 42.69 45.11 41.94 44.84 Z" />
<path fill="#ffffff" opacity="1.00" d=" M 35.00 48.63 C 37.34 47.42 39.62 46.09 41.94 44.84 L 43.29 46.19 C 41.90 46.47 40.52 46.75 39.13 47.03 L 40.25 49.08 C 39.51 48.77 38.03 48.16 37.29 47.85 C 37.45 48.24 37.76 49.01 37.91 49.40 C 37.18 49.21 35.73 48.82 35.00 48.63 Z" />
<path fill="#ffffff" opacity="1.00" d=" M 29.39 54.78 C 29.80 52.07 31.51 50.21 34.17 49.48 C 33.46 51.67 31.90 53.39 30.09 54.75 C 29.91 54.76 29.56 54.77 29.39 54.78 Z" />
<path fill="#ffffff" opacity="1.00" d=" M 23.86 57.14 C 23.54 54.59 26.31 53.92 28.10 53.05 C 27.22 54.84 26.37 57.42 23.86 57.14 Z" />
</g>
<g id="#828282fe">
<path fill="#828282" opacity="1.00" d=" M 31.58 15.25 C 31.80 15.20 32.23 15.10 32.45 15.06 C 32.23 15.10 31.80 15.20 31.58 15.25 Z" />
<path fill="#828282" opacity="1.00" d=" M 61.68 17.08 C 61.95 16.72 62.47 16.01 62.73 15.65 L 62.82 15.72 L 62.63 17.45 L 64.00 18.15 L 64.00 18.88 C 63.43 20.64 62.87 22.39 62.35 24.16 C 62.82 21.78 62.12 19.40 61.68 17.08 Z" />
<path fill="#828282" opacity="1.00" d=" M 21.20 21.25 C 21.80 21.89 21.80 21.89 21.20 21.25 Z" />
</g>
<g id="#2f2f2ffe">
<path fill="#2f2f2f" opacity="1.00" d=" M 5.68 30.30 L 6.14 30.05 L 8.15 29.98 C 7.90 30.46 7.41 31.44 7.16 31.92 C 4.18 32.25 2.49 34.82 0.00 36.10 L 0.00 35.56 C 0.86 33.10 3.00 31.67 5.22 30.56 C 5.33 30.50 5.57 30.37 5.68 30.30 Z" />
<path fill="#2f2f2f" opacity="1.00" d=" M 0.00 36.75 L 0.48 37.03 C 1.52 38.84 1.19 41.09 1.87 43.04 C 2.82 45.57 4.20 47.91 5.33 50.37 C 2.12 48.85 1.26 45.20 0.00 42.21 L 0.00 36.75 Z" />
</g>
<g id="#e2e2e2ff">
<path fill="#e2e2e2" opacity="1.00" d=" M 48.08 41.60 C 49.34 40.41 50.78 39.46 52.36 38.77 C 52.52 40.91 49.73 44.94 48.08 41.60 Z" />
<path fill="#e2e2e2" opacity="1.00" d=" M 6.12 53.30 C 7.33 52.91 8.50 54.86 7.84 55.87 C 6.53 56.41 5.47 54.32 6.12 53.30 Z" />
</g>
</svg>
