<?xml version="1.0" encoding="UTF-8" ?>
<!DOCTYPE svg PUBLIC "-//W3C//DTD SVG 1.1//EN" "http://www.w3.org/Graphics/SVG/1.1/DTD/svg11.dtd">
<svg width="64pt" height="64pt" viewBox="0 0 64 64" version="1.1" xmlns="http://www.w3.org/2000/svg">
<g id="#05060594">
<path fill="#050605" opacity="0.58" d=" M 10.02 6.02 C 24.67 6.03 39.32 5.89 53.97 6.05 L 54.02 7.00 C 39.34 7.00 24.66 7.00 9.98 7.00 L 10.02 6.02 Z" />
<path fill="#050605" opacity="0.58" d=" M 17.73 57.58 C 27.11 56.08 36.78 57.13 46.22 57.59 C 36.75 58.09 27.17 58.47 17.73 57.58 Z" />
</g>
<g id="#080a09fe">
<path fill="#080a09" opacity="1.00" d=" M 7.48 15.57 C 3.93 13.49 5.89 6.63 9.98 7.00 C 24.66 7.00 39.34 7.00 54.02 7.00 C 57.54 6.73 59.70 11.84 57.64 14.60 C 50.26 20.91 45.14 29.46 37.79 35.75 C 36.20 39.32 37.18 43.96 37.02 47.94 L 37.97 47.99 C 40.97 48.07 43.97 48.00 46.96 48.03 C 51.62 49.20 51.94 58.64 46.22 57.59 C 36.78 57.13 27.11 56.08 17.73 57.58 C 17.32 57.43 16.50 57.12 16.08 56.97 C 14.41 55.38 13.82 53.22 13.79 50.96 C 14.59 49.81 15.55 48.23 17.04 48.03 C 19.52 46.86 25.70 49.57 27.01 47.01 C 26.52 42.76 28.32 37.47 25.03 34.03 C 23.27 31.52 21.90 28.33 18.85 27.14 C 13.96 24.48 11.81 18.93 7.48 15.57 M 9.95 8.08 L 10.18 9.05 C 8.31 10.25 10.15 12.28 10.40 13.88 C 10.10 15.59 12.42 17.94 14.15 17.53 C 15.20 19.91 16.89 22.61 19.09 24.01 C 19.37 25.19 20.09 25.86 21.25 26.02 C 21.31 27.66 23.37 29.72 25.03 29.72 C 25.65 31.77 26.86 34.59 29.24 34.78 C 28.71 39.58 29.02 44.44 29.24 49.25 C 26.77 49.73 20.16 46.73 19.98 50.03 C 18.60 49.95 17.38 50.74 16.13 51.19 C 16.03 52.92 15.14 55.93 18.00 55.01 L 18.02 55.96 C 27.35 56.13 36.67 55.98 46.00 55.98 L 46.00 55.02 C 50.16 55.83 47.83 48.03 44.02 49.99 C 42.98 47.52 37.40 49.83 35.02 49.00 C 34.89 44.36 34.90 39.71 35.19 35.09 C 37.06 33.82 38.48 31.95 38.96 29.72 C 40.63 29.73 42.71 27.65 42.74 26.00 C 44.31 25.47 46.68 23.68 46.50 21.95 C 47.84 20.93 49.93 19.63 49.74 17.74 C 51.52 17.85 53.84 15.67 53.57 13.85 C 55.63 13.11 55.41 10.17 53.82 9.05 L 54.04 8.08 C 39.34 7.86 24.64 7.99 9.95 8.08 Z" />
<path fill="#080a09" opacity="1.00" d=" M 32.42 17.38 C 35.35 15.63 37.35 19.23 38.77 21.26 C 40.37 25.70 33.26 29.37 30.70 25.31 C 28.05 22.74 30.07 19.02 32.42 17.38 Z" />
</g>
<g id="#434b30fe">
<path fill="#434b30" opacity="1.00" d=" M 9.95 8.08 C 24.64 7.99 39.34 7.86 54.04 8.08 L 53.82 9.05 C 39.27 8.98 24.72 8.95 10.18 9.05 L 9.95 8.08 Z" />
<path fill="#434b30" opacity="1.00" d=" M 10.40 13.88 C 12.29 14.18 13.73 15.69 14.15 17.53 C 12.42 17.94 10.10 15.59 10.40 13.88 Z" />
<path fill="#434b30" opacity="1.00" d=" M 49.74 17.74 C 50.17 15.82 51.66 14.30 53.57 13.85 C 53.84 15.67 51.52 17.85 49.74 17.74 Z" />
</g>
<g id="#c9eea0ff">
<path fill="#c9eea0" opacity="1.00" d=" M 10.18 9.05 C 24.72 8.95 39.27 8.98 53.82 9.05 C 55.41 10.17 55.63 13.11 53.57 13.85 C 51.66 14.30 50.17 15.82 49.74 17.74 C 47.95 18.22 45.37 19.77 46.50 21.95 C 46.68 23.68 44.31 25.47 42.74 26.00 C 40.71 26.03 39.09 27.74 38.96 29.72 C 38.48 31.95 37.06 33.82 35.19 35.09 C 36.16 32.82 35.24 30.93 32.63 31.49 C 25.71 28.98 28.62 32.64 29.24 34.78 C 26.86 34.59 25.65 31.77 25.03 29.72 C 24.90 27.75 23.29 26.00 21.25 26.02 C 20.09 25.86 19.37 25.19 19.09 24.01 C 18.57 21.14 16.88 18.70 14.15 17.53 C 13.73 15.69 12.29 14.18 10.40 13.88 C 10.15 12.28 8.31 10.25 10.18 9.05 M 32.42 17.38 C 30.07 19.02 28.05 22.74 30.70 25.31 C 33.26 29.37 40.37 25.70 38.77 21.26 C 37.35 19.23 35.35 15.63 32.42 17.38 Z" />
</g>
<g id="#7ea481ff">
<path fill="#7ea481" opacity="1.00" d=" M 14.15 17.53 C 16.88 18.70 18.57 21.14 19.09 24.01 C 16.89 22.61 15.20 19.91 14.15 17.53 Z" />
<path fill="#7ea481" opacity="1.00" d=" M 46.50 21.95 C 45.37 19.77 47.95 18.22 49.74 17.74 C 49.93 19.63 47.84 20.93 46.50 21.95 Z" />
<path fill="#7ea481" opacity="1.00" d=" M 21.25 26.02 C 23.29 26.00 24.90 27.75 25.03 29.72 C 23.37 29.72 21.31 27.66 21.25 26.02 Z" />
<path fill="#7ea481" opacity="1.00" d=" M 38.96 29.72 C 39.09 27.74 40.71 26.03 42.74 26.00 C 42.71 27.65 40.63 29.73 38.96 29.72 Z" />
<path fill="#7ea481" opacity="1.00" d=" M 29.24 34.78 C 30.82 39.32 30.41 44.96 29.24 49.25 C 29.02 44.44 28.71 39.58 29.24 34.78 Z" />
</g>
<g id="#060606bc">
<path fill="#060606" opacity="0.74" d=" M 18.85 27.14 C 21.90 28.33 23.27 31.52 25.03 34.03 C 21.89 33.70 20.26 29.68 18.85 27.14 Z" />
<path fill="#060606" opacity="0.74" d=" M 17.04 48.03 C 17.58 45.07 24.24 47.74 27.01 47.01 C 25.70 49.57 19.52 46.86 17.04 48.03 Z" />
<path fill="#060606" opacity="0.74" d=" M 38.01 47.01 C 40.31 47.84 46.16 45.50 46.96 48.03 C 43.97 48.00 40.97 48.07 37.97 47.99 L 38.01 47.01 Z" />
</g>
<g id="#95efeaff">
<path fill="#95efea" opacity="1.00" d=" M 32.63 31.49 C 35.24 30.93 36.16 32.82 35.19 35.09 C 34.90 39.71 34.89 44.36 35.02 49.00 C 35.30 52.20 41.56 49.17 44.02 49.99 C 47.83 48.03 50.16 55.83 46.00 55.02 C 36.66 54.99 27.33 54.98 18.00 55.01 C 15.14 55.93 16.03 52.92 16.13 51.19 C 17.38 50.74 18.60 49.95 19.98 50.03 C 22.93 49.55 26.67 50.95 29.24 49.25 C 30.41 44.96 30.82 39.32 29.24 34.78 C 28.62 32.64 25.71 28.98 32.63 31.49 Z" />
</g>
<g id="#02020244">
<path fill="#020202" opacity="0.27" d=" M 37.02 47.94 C 37.18 43.96 36.20 39.32 37.79 35.75 C 37.97 39.50 38.08 43.26 38.01 47.01 L 37.97 47.99 L 37.02 47.94 Z" />
</g>
<g id="#385251ff">
<path fill="#385251" opacity="1.00" d=" M 19.98 50.03 C 20.16 46.73 26.77 49.73 29.24 49.25 C 26.67 50.95 22.93 49.55 19.98 50.03 Z" />
<path fill="#385251" opacity="1.00" d=" M 35.02 49.00 C 37.40 49.83 42.98 47.52 44.02 49.99 C 41.56 49.17 35.30 52.20 35.02 49.00 Z" />
<path fill="#385251" opacity="1.00" d=" M 18.00 55.01 C 27.33 54.98 36.66 54.99 46.00 55.02 L 46.00 55.98 C 36.67 55.98 27.35 56.13 18.02 55.96 L 18.00 55.01 Z" />
</g>
<g id="#0707076c">
<path fill="#070707" opacity="0.42" d=" M 16.08 56.97 C 12.20 57.64 10.11 52.69 13.79 50.96 C 13.82 53.22 14.41 55.38 16.08 56.97 Z" />
</g>
</svg>
