<?xml version="1.0" encoding="UTF-8" ?>
<!DOCTYPE svg PUBLIC "-//W3C//DTD SVG 1.1//EN" "http://www.w3.org/Graphics/SVG/1.1/DTD/svg11.dtd">
<svg width="64pt" height="64pt" viewBox="0 0 64 64" version="1.1" xmlns="http://www.w3.org/2000/svg">
<g id="#020102ed">
<path fill="#020102" opacity="0.93" d=" M 14.54 24.50 C 14.49 20.86 13.52 16.81 15.50 13.50 C 18.41 13.67 21.33 13.67 24.24 13.59 C 25.16 17.09 24.66 20.71 24.74 24.27 C 24.50 25.70 25.59 26.59 26.53 27.41 C 27.30 22.83 26.26 18.05 27.72 13.59 C 30.66 13.93 33.98 12.97 36.68 14.27 C 38.66 18.31 35.88 23.54 38.31 27.44 C 39.49 22.95 38.86 18.26 39.77 13.74 C 42.89 13.63 46.01 13.62 49.13 13.69 C 49.85 17.25 49.78 20.90 49.45 24.50 C 48.93 25.86 49.97 27.33 51.47 26.97 C 52.01 27.01 53.09 27.09 53.64 27.13 C 53.84 30.38 53.82 33.65 53.64 36.91 C 53.08 36.92 51.94 36.95 51.38 36.97 C 50.97 36.99 50.16 37.03 49.75 37.05 C 49.70 37.67 49.58 38.90 49.53 39.51 C 49.73 43.10 49.83 46.73 49.16 50.28 C 46.01 50.27 42.86 50.30 39.70 50.35 C 38.80 45.79 39.57 41.06 38.28 36.55 C 35.98 40.51 38.58 45.60 36.71 49.70 C 33.78 51.08 30.27 50.06 27.12 50.11 C 26.84 45.85 27.07 41.58 26.82 37.33 C 26.34 37.41 25.38 37.58 24.90 37.67 C 24.48 41.88 25.26 46.16 24.28 50.33 C 21.05 50.22 17.70 50.75 14.59 49.60 L 14.68 48.80 C 15.12 44.95 14.40 41.09 14.67 37.23 C 14.03 37.16 12.76 37.00 12.12 36.92 C 11.66 36.87 10.75 36.78 10.29 36.73 C 10.21 33.55 10.19 30.37 10.30 27.19 C 10.86 27.13 11.97 27.03 12.53 26.97 C 14.02 27.30 15.07 25.86 14.54 24.50 M 16.72 15.94 C 16.72 20.27 16.70 24.60 16.73 28.93 C 15.35 28.91 13.98 28.90 12.60 28.88 C 12.60 30.96 12.60 33.04 12.60 35.12 C 13.98 35.10 15.35 35.08 16.73 35.06 C 16.70 39.40 16.72 43.74 16.72 48.08 C 18.61 48.05 20.50 48.02 22.39 47.99 C 22.40 43.70 22.42 39.41 22.37 35.13 C 24.68 35.09 27.00 35.08 29.32 35.08 C 29.30 39.40 29.31 43.73 29.31 48.06 C 31.23 48.06 33.14 48.06 35.06 48.06 C 35.06 43.72 35.06 39.38 35.06 35.04 C 37.25 35.06 39.44 35.09 41.63 35.13 C 41.58 39.41 41.60 43.70 41.60 47.98 C 43.49 48.01 45.39 48.05 47.28 48.08 C 47.28 43.74 47.30 39.40 47.27 35.06 C 48.65 35.08 50.02 35.10 51.40 35.12 C 51.39 33.04 51.39 30.96 51.40 28.88 C 50.02 28.90 48.65 28.92 47.27 28.94 C 47.30 24.61 47.28 20.27 47.28 15.94 C 45.39 15.94 43.50 15.94 41.61 15.93 C 41.60 20.25 41.58 24.56 41.63 28.87 C 39.44 28.90 37.25 28.94 35.06 28.96 C 35.06 24.62 35.06 20.28 35.06 15.94 C 33.14 15.94 31.23 15.94 29.31 15.94 C 29.31 20.27 29.30 24.59 29.32 28.92 C 27.00 28.92 24.68 28.91 22.36 28.87 C 22.42 24.56 22.40 20.25 22.39 15.93 C 20.50 15.94 18.61 15.94 16.72 15.94 Z" />
</g>
<g id="#fdfdfdff">
<path fill="#fdfdfd" opacity="1.00" d=" M 16.72 15.94 C 18.61 15.94 20.50 15.94 22.39 15.93 C 22.40 20.25 22.42 24.56 22.36 28.87 C 24.68 28.91 27.00 28.92 29.32 28.92 C 29.30 24.59 29.31 20.27 29.31 15.94 C 31.23 15.94 33.14 15.94 35.06 15.94 C 35.06 20.28 35.06 24.62 35.06 28.96 C 37.25 28.94 39.44 28.90 41.63 28.87 C 41.58 24.56 41.60 20.25 41.61 15.93 C 43.50 15.94 45.39 15.94 47.28 15.94 C 47.28 20.27 47.30 24.61 47.27 28.94 C 48.65 28.92 50.02 28.90 51.40 28.88 C 51.39 30.96 51.39 33.04 51.40 35.12 C 50.02 35.10 48.65 35.08 47.27 35.06 C 47.30 39.40 47.28 43.74 47.28 48.08 C 45.39 48.05 43.49 48.01 41.60 47.98 C 41.60 43.70 41.58 39.41 41.63 35.13 C 39.44 35.09 37.25 35.06 35.06 35.04 C 35.06 39.38 35.06 43.72 35.06 48.06 C 33.14 48.06 31.23 48.06 29.31 48.06 C 29.31 43.73 29.30 39.40 29.32 35.08 C 27.00 35.08 24.68 35.09 22.37 35.13 C 22.42 39.41 22.40 43.70 22.39 47.99 C 20.50 48.02 18.61 48.05 16.72 48.08 C 16.72 43.74 16.70 39.40 16.73 35.06 C 15.35 35.08 13.98 35.10 12.60 35.12 C 12.60 33.04 12.60 30.96 12.60 28.88 C 13.98 28.90 15.35 28.91 16.73 28.93 C 16.70 24.60 16.72 20.27 16.72 15.94 Z" />
</g>
<g id="#00000061">
<path fill="#000000" opacity="0.38" d=" M 12.53 26.97 C 10.88 25.79 13.10 22.90 14.54 24.50 C 15.07 25.86 14.02 27.30 12.53 26.97 Z" />
<path fill="#000000" opacity="0.38" d=" M 49.45 24.50 C 50.89 22.91 53.11 25.78 51.47 26.97 C 49.97 27.33 48.93 25.86 49.45 24.50 Z" />
<path fill="#000000" opacity="0.38" d=" M 12.12 36.92 C 12.76 37.00 14.03 37.16 14.67 37.23 C 14.40 41.09 15.12 44.95 14.68 48.80 C 12.07 46.46 16.39 40.98 12.18 39.30 C 12.16 38.71 12.13 37.52 12.12 36.92 Z" />
<path fill="#000000" opacity="0.38" d=" M 49.75 37.05 C 50.16 37.03 50.97 36.99 51.38 36.97 C 53.10 38.01 50.98 40.98 49.53 39.51 C 49.58 38.90 49.70 37.67 49.75 37.05 Z" />
</g>
</svg>
