<?xml version="1.0" encoding="UTF-8" ?>
<!DOCTYPE svg PUBLIC "-//W3C//DTD SVG 1.1//EN" "http://www.w3.org/Graphics/SVG/1.1/DTD/svg11.dtd">
<svg width="64pt" height="64pt" viewBox="0 0 64 64" version="1.1" xmlns="http://www.w3.org/2000/svg">
<g id="#010100ff">
<path fill="#010100" opacity="1.00" d=" M 8.45 13.93 C 8.73 11.87 7.80 9.10 9.85 7.74 C 17.93 8.02 25.86 10.39 33.99 9.94 C 40.91 9.53 47.75 8.21 54.64 7.48 C 55.90 11.20 55.48 15.16 55.52 19.01 C 55.42 23.89 55.71 28.87 54.40 33.62 C 52.06 41.52 47.41 48.93 40.59 53.68 C 36.60 56.39 31.10 57.62 26.67 55.26 C 19.41 51.87 14.50 45.04 11.16 37.98 C 7.55 30.48 8.65 21.96 8.45 13.93 M 10.68 9.98 C 10.64 14.74 10.76 19.51 10.59 24.27 C 10.78 29.64 12.08 34.88 14.58 39.65 C 17.60 45.29 22.06 50.48 28.02 53.10 C 34.08 55.72 41.15 51.89 44.37 46.69 L 44.02 46.30 L 44.85 46.25 C 47.20 44.83 47.80 41.80 49.24 39.60 L 49.47 39.60 C 52.16 34.68 53.37 29.17 53.34 23.58 C 53.27 19.05 53.33 14.51 53.32 9.98 C 48.23 10.60 43.15 11.26 38.07 11.96 C 28.88 13.16 19.78 10.88 10.68 9.98 Z" />
<path fill="#010100" opacity="1.00" d=" M 15.07 18.56 C 20.94 17.03 26.10 20.65 30.50 24.02 C 28.50 25.45 26.61 27.49 24.03 27.71 C 21.67 27.69 19.35 27.18 17.04 26.73 C 15.43 24.30 15.08 21.40 15.07 18.56 Z" />
<path fill="#010100" opacity="1.00" d=" M 33.49 24.03 C 37.77 20.77 42.67 17.26 48.38 18.39 C 48.53 19.00 48.83 20.23 48.98 20.85 C 48.72 22.26 48.46 23.67 48.28 25.09 C 46.04 26.29 43.78 27.89 41.10 27.78 C 38.05 28.01 35.74 25.72 33.49 24.03 Z" />
<path fill="#010100" opacity="1.00" d=" M 25.42 36.33 C 29.24 36.25 33.08 35.98 36.89 36.36 C 38.79 36.37 39.82 38.16 40.80 39.52 C 40.78 40.50 40.74 42.47 40.72 43.45 C 36.80 46.84 31.28 46.51 26.51 45.62 C 23.63 45.28 23.44 42.02 22.88 39.79 C 23.69 38.61 24.56 37.48 25.42 36.33 Z" />
</g>
<g id="#e7ca90ff">
<path fill="#e7ca90" opacity="1.00" d=" M 10.68 9.98 C 19.78 10.88 28.88 13.16 38.07 11.96 C 43.15 11.26 48.23 10.60 53.32 9.98 C 53.33 14.51 53.27 19.05 53.34 23.58 C 52.64 24.64 51.95 25.71 51.26 26.78 C 50.33 26.64 49.39 26.49 48.45 26.32 C 48.41 26.01 48.32 25.40 48.28 25.09 C 48.46 23.67 48.72 22.26 48.98 20.85 C 48.83 20.23 48.53 19.00 48.38 18.39 C 42.67 17.26 37.77 20.77 33.49 24.03 C 32.49 24.02 31.50 24.02 30.50 24.02 C 26.10 20.65 20.94 17.03 15.07 18.56 C 15.08 21.40 15.43 24.30 17.04 26.73 C 14.73 26.37 12.49 25.66 10.59 24.27 C 10.76 19.51 10.64 14.74 10.68 9.98 Z" />
</g>
<g id="#b89c73ff">
<path fill="#b89c73" opacity="1.00" d=" M 10.59 24.27 C 12.49 25.66 14.73 26.37 17.04 26.73 C 19.35 27.18 21.67 27.69 24.03 27.71 C 26.61 27.49 28.50 25.45 30.50 24.02 C 31.50 24.02 32.49 24.02 33.49 24.03 C 35.74 25.72 38.05 28.01 41.10 27.78 C 43.78 27.89 46.04 26.29 48.28 25.09 C 48.32 25.40 48.41 26.01 48.45 26.32 C 49.39 26.49 50.33 26.64 51.26 26.78 C 51.95 25.71 52.64 24.64 53.34 23.58 C 53.37 29.17 52.16 34.68 49.47 39.60 L 49.24 39.60 C 46.43 39.60 43.61 39.58 40.80 39.52 C 39.82 38.16 38.79 36.37 36.89 36.36 C 33.08 35.98 29.24 36.25 25.42 36.33 C 24.56 37.48 23.69 38.61 22.88 39.79 C 20.12 39.70 17.35 39.66 14.58 39.65 C 12.08 34.88 10.78 29.64 10.59 24.27 Z" />
</g>
<g id="#8a6e57ff">
<path fill="#8a6e57" opacity="1.00" d=" M 14.58 39.65 C 17.35 39.66 20.12 39.70 22.88 39.79 C 23.44 42.02 23.63 45.28 26.51 45.62 C 31.28 46.51 36.80 46.84 40.72 43.45 C 40.70 44.11 40.68 44.76 40.65 45.42 C 41.78 45.71 42.90 46.00 44.02 46.30 L 44.37 46.69 C 41.15 51.89 34.08 55.72 28.02 53.10 C 22.06 50.48 17.60 45.29 14.58 39.65 Z" />
</g>
<g id="#9c8a6bff">
<path fill="#9c8a6b" opacity="1.00" d=" M 40.80 39.52 C 43.61 39.58 46.43 39.60 49.24 39.60 C 47.80 41.80 47.20 44.83 44.85 46.25 L 44.02 46.30 C 42.90 46.00 41.78 45.71 40.65 45.42 C 40.68 44.76 40.70 44.11 40.72 43.45 C 40.74 42.47 40.78 40.50 40.80 39.52 Z" />
</g>
</svg>
