<?xml version="1.0" encoding="UTF-8" ?>
<!DOCTYPE svg PUBLIC "-//W3C//DTD SVG 1.1//EN" "http://www.w3.org/Graphics/SVG/1.1/DTD/svg11.dtd">
<svg width="64pt" height="64pt" viewBox="0 0 64 64" version="1.1" xmlns="http://www.w3.org/2000/svg">
<g id="#00000047">
<path fill="#000000" opacity="0.28" d=" M 19.98 12.02 C 28.00 11.86 36.08 11.72 44.00 13.18 L 43.79 14.09 C 36.24 13.97 28.68 13.96 21.13 14.06 L 20.08 14.03 C 20.06 13.53 20.01 12.52 19.98 12.02 Z" />
<path fill="#000000" opacity="0.28" d=" M 13.10 45.06 C 25.69 44.85 38.30 45.00 50.90 45.04 L 50.95 46.00 C 38.32 46.01 25.69 46.04 13.06 45.99 L 13.10 45.06 Z" />
<path fill="#000000" opacity="0.28" d=" M 3.02 50.06 C 6.36 50.02 9.70 49.72 12.99 49.17 C 12.99 49.62 12.98 50.51 12.97 50.96 C 10.48 50.73 5.51 50.29 3.02 50.06 Z" />
<path fill="#000000" opacity="0.28" d=" M 53.00 50.01 C 55.66 50.00 58.33 49.99 61.00 50.00 C 60.15 52.22 55.41 50.53 53.03 50.95 L 53.00 50.01 Z" />
</g>
<g id="#060403fe">
<path fill="#060403" opacity="1.00" d=" M 21.13 14.06 C 28.68 13.96 36.24 13.97 43.79 14.09 C 48.76 19.03 47.51 27.37 50.76 33.23 C 53.06 35.65 51.00 29.74 53.21 29.11 C 55.35 29.60 62.67 27.14 62.01 31.98 C 62.01 37.65 62.00 43.32 62.00 49.00 C 61.75 49.25 61.25 49.75 61.00 50.00 C 58.33 49.99 55.66 50.00 53.00 50.01 C 50.11 50.91 51.25 47.69 50.95 46.00 L 50.90 45.04 C 38.30 45.00 25.69 44.85 13.10 45.06 L 13.06 45.99 C 13.04 46.78 13.01 48.37 12.99 49.17 C 9.70 49.72 6.36 50.02 3.02 50.06 L 2.03 50.04 C 2.02 46.28 2.00 38.76 2.00 34.99 C -1.36 27.87 8.75 27.22 11.75 30.26 C 7.65 35.85 14.88 36.31 14.87 32.93 C 16.89 26.67 16.91 19.30 21.13 14.06 M 22.18 16.10 C 19.20 20.06 21.22 25.93 18.17 29.86 C 16.31 31.79 17.51 36.14 14.94 36.99 C 14.95 33.88 5.73 39.25 10.90 31.00 C 10.66 31.26 10.18 31.78 9.93 32.04 C 7.96 31.93 5.99 31.93 4.02 32.03 C 3.77 31.77 3.28 31.26 3.03 31.00 C 2.85 36.67 2.99 42.34 3.03 48.01 L 4.01 47.97 C 5.72 47.97 9.15 47.98 10.86 47.98 L 11.10 43.06 C 25.02 42.92 38.94 42.98 52.86 43.05 C 51.88 48.24 54.25 49.89 59.99 47.99 L 60.96 47.98 C 61.15 42.32 61.00 36.65 60.98 30.98 C 60.73 31.25 60.23 31.77 59.98 32.03 C 58.01 31.93 56.04 31.92 54.07 32.03 C 53.82 31.78 53.33 31.26 53.09 31.01 C 56.48 38.08 51.42 35.87 48.82 35.15 C 48.52 34.19 48.16 33.25 47.74 32.34 C 46.24 26.91 45.67 21.01 42.85 16.09 C 35.97 15.86 29.07 15.93 22.18 16.10 Z" />
<path fill="#060403" opacity="1.00" d=" M 23.94 20.93 C 29.04 18.88 34.74 20.42 40.06 19.95 C 41.33 23.22 41.74 26.73 42.91 30.03 C 36.58 30.04 30.24 29.74 23.93 30.30 C 23.53 27.17 23.64 24.04 23.94 20.93 Z" />
<path fill="#060403" opacity="1.00" d=" M 20.23 34.13 C 25.87 31.40 27.00 37.03 25.91 40.81 C 24.26 41.48 22.38 42.60 20.67 41.44 C 17.32 41.04 18.14 35.66 20.23 34.13 Z" />
<path fill="#060403" opacity="1.00" d=" M 40.23 34.12 C 46.14 30.07 48.98 41.19 43.71 41.69 C 39.74 43.47 36.61 36.26 40.23 34.12 Z" />
</g>
<g id="#f5aa5bff">
<path fill="#f5aa5b" opacity="1.00" d=" M 22.18 16.10 C 29.07 15.93 35.97 15.86 42.85 16.09 C 45.67 21.01 46.24 26.91 47.74 32.34 C 46.02 31.80 44.43 30.97 42.91 30.03 C 41.74 26.73 41.33 23.22 40.06 19.95 C 36.07 17.57 29.07 19.64 24.13 19.06 C 24.08 19.53 23.99 20.46 23.94 20.93 C 23.64 24.04 23.53 27.17 23.93 30.30 C 22.61 33.21 20.05 30.68 18.17 29.86 C 21.22 25.93 19.20 20.06 22.18 16.10 Z" />
</g>
<g id="#b78347ff">
<path fill="#b78347" opacity="1.00" d=" M 24.13 19.06 C 29.07 19.64 36.07 17.57 40.06 19.95 C 34.74 20.42 29.04 18.88 23.94 20.93 C 23.99 20.46 24.08 19.53 24.13 19.06 Z" />
</g>
<g id="#ee7a4bff">
<path fill="#ee7a4b" opacity="1.00" d=" M 18.17 29.86 C 20.05 30.68 22.61 33.21 23.93 30.30 C 30.24 29.74 36.58 30.04 42.91 30.03 C 44.43 30.97 46.02 31.80 47.74 32.34 C 48.16 33.25 48.52 34.19 48.82 35.15 C 48.95 35.58 49.21 36.43 49.34 36.86 C 55.60 40.32 53.63 34.74 54.07 32.03 C 56.04 31.92 58.01 31.93 59.98 32.03 C 60.00 37.35 60.01 42.67 59.99 47.99 C 54.25 49.89 51.88 48.24 52.86 43.05 C 38.94 42.98 25.02 42.92 11.10 43.06 L 10.86 47.98 C 9.15 47.98 5.72 47.97 4.01 47.97 C 4.01 42.65 3.98 37.34 4.02 32.03 C 5.99 31.93 7.96 31.93 9.93 32.04 C 9.96 33.67 9.97 35.31 10.10 36.95 C 11.71 37.08 13.33 37.09 14.94 36.99 C 17.51 36.14 16.31 31.79 18.17 29.86 M 20.23 34.13 C 18.14 35.66 17.32 41.04 20.67 41.44 C 22.38 42.60 24.26 41.48 25.91 40.81 C 27.00 37.03 25.87 31.40 20.23 34.13 M 40.23 34.12 C 36.61 36.26 39.74 43.47 43.71 41.69 C 48.98 41.19 46.14 30.07 40.23 34.12 Z" />
</g>
<g id="#512c1dff">
<path fill="#512c1d" opacity="1.00" d=" M 3.03 31.00 C 3.28 31.26 3.77 31.77 4.02 32.03 C 3.98 37.34 4.01 42.65 4.01 47.97 L 3.03 48.01 C 2.99 42.34 2.85 36.67 3.03 31.00 Z" />
<path fill="#512c1d" opacity="1.00" d=" M 9.93 32.04 C 10.18 31.78 10.66 31.26 10.90 31.00 C 5.73 39.25 14.95 33.88 14.94 36.99 C 13.33 37.09 11.71 37.08 10.10 36.95 C 9.97 35.31 9.96 33.67 9.93 32.04 Z" />
<path fill="#512c1d" opacity="1.00" d=" M 53.09 31.01 C 53.33 31.26 53.82 31.78 54.07 32.03 C 53.63 34.74 55.60 40.32 49.34 36.86 C 49.21 36.43 48.95 35.58 48.82 35.15 C 51.42 35.87 56.48 38.08 53.09 31.01 Z" />
<path fill="#512c1d" opacity="1.00" d=" M 59.98 32.03 C 60.23 31.77 60.73 31.25 60.98 30.98 C 61.00 36.65 61.15 42.32 60.96 47.98 L 59.99 47.99 C 60.01 42.67 60.00 37.35 59.98 32.03 Z" />
</g>
<g id="#0001006b">
<path fill="#000100" opacity="0.42" d=" M 62.01 31.98 L 62.98 32.01 C 63.01 37.67 63.15 43.33 62.96 48.98 L 62.00 49.00 C 62.00 43.32 62.01 37.65 62.01 31.98 Z" />
</g>
</svg>
