<?xml version="1.0" encoding="UTF-8" ?>
<!DOCTYPE svg PUBLIC "-//W3C//DTD SVG 1.1//EN" "http://www.w3.org/Graphics/SVG/1.1/DTD/svg11.dtd">
<svg width="64pt" height="64pt" viewBox="0 0 64 64" version="1.1" xmlns="http://www.w3.org/2000/svg">
<g id="#010201e5">
<path fill="#010201" opacity="0.90" d=" M 11.65 3.54 C 13.05 3.03 14.56 3.18 16.02 3.18 C 27.69 3.22 39.36 3.13 51.03 3.22 C 51.36 3.31 52.04 3.50 52.37 3.59 C 53.39 7.91 53.76 13.15 52.07 17.30 C 43.74 17.32 35.41 17.40 27.09 17.25 C 27.10 19.93 26.99 22.61 27.10 25.29 C 34.20 25.94 41.41 25.21 48.53 25.65 C 50.37 26.63 49.41 29.30 49.64 31.00 C 49.23 33.58 50.86 37.39 47.91 38.87 C 40.98 38.94 34.05 38.89 27.12 38.88 C 26.98 45.26 27.10 51.65 27.06 58.03 C 27.30 59.30 26.49 61.09 24.94 60.75 C 20.52 60.64 16.00 61.26 11.65 60.44 C 11.10 59.39 10.86 58.28 10.92 57.11 C 10.94 40.38 10.94 23.64 10.92 6.90 C 10.86 5.73 11.11 4.61 11.65 3.54 M 13.22 5.46 L 13.25 5.85 C 13.14 23.41 13.36 40.96 13.30 58.51 C 17.08 58.18 20.89 58.55 24.68 58.34 C 24.68 51.25 24.72 44.16 24.77 37.07 L 24.39 36.41 C 32.02 36.52 39.65 36.40 47.28 36.46 C 47.20 33.56 47.25 30.65 47.25 27.75 C 39.71 27.72 32.17 27.72 24.63 27.74 C 24.81 23.52 24.71 19.29 24.69 15.07 C 33.36 15.04 42.02 15.09 50.69 15.04 C 50.74 11.85 50.69 8.65 50.77 5.46 C 38.27 5.66 25.72 5.66 13.22 5.46 Z" />
</g>
<g id="#efefefff">
<path fill="#efefef" opacity="1.00" d=" M 13.22 5.46 C 25.72 5.66 38.27 5.66 50.77 5.46 C 50.69 8.65 50.74 11.85 50.69 15.04 C 42.02 15.09 33.36 15.04 24.69 15.07 C 24.71 19.29 24.81 23.52 24.63 27.74 C 32.17 27.72 39.71 27.72 47.25 27.75 C 47.25 30.65 47.20 33.56 47.28 36.46 C 39.65 36.40 32.02 36.52 24.39 36.41 L 23.51 36.38 C 23.21 38.92 23.30 41.49 23.01 44.04 C 20.26 44.32 17.44 44.34 14.81 43.39 C 14.59 38.27 14.56 33.13 14.04 28.01 C 13.28 20.64 14.16 13.21 13.25 5.85 L 13.22 5.46 Z" />
</g>
<g id="#cdcecdff">
<path fill="#cdcecd" opacity="1.00" d=" M 13.25 5.85 C 14.16 13.21 13.28 20.64 14.04 28.01 C 14.56 33.13 14.59 38.27 14.81 43.39 C 17.44 44.34 20.26 44.32 23.01 44.04 C 23.30 41.49 23.21 38.92 23.51 36.38 L 24.39 36.41 L 24.77 37.07 C 24.72 44.16 24.68 51.25 24.68 58.34 C 20.89 58.55 17.08 58.18 13.30 58.51 C 13.36 40.96 13.14 23.41 13.25 5.85 Z" />
</g>
</svg>
