<?xml version="1.0" encoding="UTF-8" ?>
<!DOCTYPE svg PUBLIC "-//W3C//DTD SVG 1.1//EN" "http://www.w3.org/Graphics/SVG/1.1/DTD/svg11.dtd">
<svg width="64pt" height="64pt" viewBox="0 0 64 64" version="1.1" xmlns="http://www.w3.org/2000/svg">
<g id="#070707fb">
<path fill="#070707" opacity="1.00" d=" M 11.52 3.41 C 25.16 3.16 38.82 3.18 52.46 3.40 C 53.32 7.98 53.50 12.79 52.26 17.32 C 43.87 17.24 35.47 17.38 27.08 17.24 C 27.05 19.99 27.02 22.73 27.06 25.48 C 34.45 25.75 41.86 25.38 49.26 25.70 C 49.67 29.43 49.78 33.20 49.47 36.93 C 49.35 38.14 48.17 38.97 46.99 38.80 C 40.35 38.88 33.72 38.80 27.08 38.80 C 26.75 46.07 27.67 53.41 26.54 60.62 C 21.53 60.77 16.52 60.85 11.52 60.59 C 10.58 56.46 11.01 52.21 10.94 48.01 C 10.92 35.00 10.98 22.00 10.91 8.99 C 10.89 7.11 11.17 5.25 11.52 3.41 M 13.28 5.56 L 13.30 5.85 C 13.14 23.38 13.36 40.90 13.32 58.42 C 17.11 58.34 20.90 58.38 24.70 58.35 C 24.48 51.04 25.06 43.70 24.54 36.42 C 32.11 36.54 39.68 36.42 47.24 36.46 C 47.23 33.56 47.23 30.66 47.23 27.77 C 39.71 27.62 32.17 27.90 24.66 27.63 C 24.70 23.44 24.70 19.24 24.67 15.05 C 33.33 14.97 42.00 15.07 50.66 14.99 C 50.68 11.85 50.68 8.71 50.72 5.56 C 38.24 5.64 25.76 5.65 13.28 5.56 Z" />
</g>
<g id="#f9f9f9ff">
<path fill="#f9f9f9" opacity="1.00" d=" M 13.28 5.56 C 25.76 5.65 38.24 5.64 50.72 5.56 C 50.68 8.71 50.68 11.85 50.66 14.99 C 42.00 15.07 33.33 14.97 24.67 15.05 C 24.70 19.24 24.70 23.44 24.66 27.63 L 23.96 27.55 C 23.81 25.13 23.80 22.69 23.79 20.26 C 22.74 21.40 21.69 22.53 20.64 23.67 C 21.54 24.28 22.44 24.89 23.34 25.50 C 20.02 26.46 16.75 25.60 13.80 23.99 C 13.75 17.94 13.69 11.89 13.30 5.85 L 13.28 5.56 Z" />
</g>
<g id="#cdcdcdff">
<path fill="#cdcdcd" opacity="1.00" d=" M 13.30 5.85 C 13.69 11.89 13.75 17.94 13.80 23.99 C 13.66 30.61 14.15 37.22 14.51 43.83 C 17.38 44.46 20.32 44.60 23.24 44.40 C 23.45 41.72 23.69 39.05 23.91 36.38 L 24.54 36.42 C 25.06 43.70 24.48 51.04 24.70 58.35 C 20.90 58.38 17.11 58.34 13.32 58.42 C 13.36 40.90 13.14 23.38 13.30 5.85 Z" />
</g>
<g id="#e0e2e0ff">
<path fill="#e0e2e0" opacity="1.00" d=" M 20.64 23.67 C 21.69 22.53 22.74 21.40 23.79 20.26 C 23.80 22.69 23.81 25.13 23.96 27.55 L 24.66 27.63 C 32.17 27.90 39.71 27.62 47.23 27.77 C 47.23 30.66 47.23 33.56 47.24 36.46 C 39.68 36.42 32.11 36.54 24.54 36.42 L 23.91 36.38 C 23.69 39.05 23.45 41.72 23.24 44.40 C 20.32 44.60 17.38 44.46 14.51 43.83 C 14.15 37.22 13.66 30.61 13.80 23.99 C 16.75 25.60 20.02 26.46 23.34 25.50 C 22.44 24.89 21.54 24.28 20.64 23.67 Z" />
</g>
</svg>
