<?xml version="1.0" encoding="UTF-8" ?>
<!DOCTYPE svg PUBLIC "-//W3C//DTD SVG 1.1//EN" "http://www.w3.org/Graphics/SVG/1.1/DTD/svg11.dtd">
<svg width="64pt" height="64pt" viewBox="0 0 64 64" version="1.1" xmlns="http://www.w3.org/2000/svg">
<g id="#080705fd">
<path fill="#080705" opacity="1.00" d=" M 29.13 4.02 C 30.26 1.78 33.73 1.80 34.88 4.02 C 38.61 11.40 39.65 19.81 39.25 27.99 C 43.83 22.77 48.87 17.80 54.95 14.36 C 56.36 14.48 58.34 14.55 58.72 16.27 C 59.69 18.99 57.98 21.64 57.31 24.23 C 54.98 28.74 52.39 33.17 48.89 36.87 C 52.19 36.71 55.60 35.55 58.86 36.39 C 61.65 36.93 60.92 40.82 59.35 42.34 C 56.56 45.09 52.76 46.53 49.11 47.76 C 50.53 49.64 51.25 52.39 49.10 54.07 C 44.82 55.50 40.25 54.70 36.08 53.26 C 36.07 55.95 36.43 59.36 33.92 61.13 C 32.23 62.23 30.18 61.41 28.92 60.08 C 27.70 58.00 27.93 55.57 27.92 53.27 C 23.77 54.64 19.21 55.57 14.96 54.04 C 12.67 52.55 13.54 49.54 14.99 47.78 C 11.85 46.95 8.92 45.48 6.21 43.71 C 4.01 42.36 2.36 39.37 3.83 36.91 C 7.36 35.34 11.45 36.36 15.07 37.08 C 11.75 32.93 8.65 28.55 6.49 23.67 C 5.70 20.91 3.77 17.56 6.06 14.99 C 8.06 13.83 10.41 14.69 11.98 16.15 C 16.76 19.48 20.92 23.61 24.73 27.98 C 24.35 19.81 25.38 11.40 29.13 4.02 M 31.28 5.31 C 27.28 13.09 26.16 22.40 27.49 30.90 C 27.06 32.89 27.97 34.90 27.92 36.92 C 25.81 33.38 23.29 30.10 20.73 26.96 C 17.00 22.92 12.75 19.37 8.09 16.46 L 7.27 17.64 C 8.34 23.07 10.96 28.33 14.63 32.41 C 16.91 35.40 19.26 38.55 22.25 40.83 C 22.34 41.08 22.52 41.58 22.60 41.83 C 17.51 39.78 12.09 38.50 6.59 38.31 C 4.41 39.08 6.46 40.75 7.40 41.59 C 11.82 44.90 17.38 45.72 22.39 47.79 C 19.56 47.95 16.47 49.07 15.49 52.01 C 20.23 53.22 25.14 52.13 29.54 50.26 C 31.65 52.47 28.99 56.60 31.05 58.99 C 36.07 59.63 32.24 52.66 34.27 50.21 C 38.72 52.07 43.65 53.21 48.44 52.02 C 47.59 49.03 44.40 47.96 41.61 47.79 C 47.31 45.32 54.30 44.76 58.46 39.62 L 58.00 38.55 C 52.43 38.08 46.82 39.84 41.61 41.75 C 41.58 41.57 41.53 41.23 41.50 41.05 C 46.15 37.61 48.98 32.32 52.84 28.12 L 52.46 26.90 L 53.02 27.01 C 54.12 25.44 55.02 23.69 55.62 21.87 C 55.86 20.12 57.75 17.94 55.91 16.46 C 51.19 19.48 46.70 22.91 43.13 27.26 L 42.88 27.22 C 41.18 30.02 38.67 32.35 37.13 35.34 C 36.84 35.78 36.26 36.66 35.97 37.10 C 36.21 35.05 36.87 32.93 36.49 30.88 C 36.61 30.62 36.85 30.10 36.97 29.84 C 37.22 21.49 36.84 12.77 32.70 5.29 C 32.35 5.30 31.64 5.31 31.28 5.31 Z" />
</g>
<g id="#75ba55ff">
<path fill="#75ba55" opacity="1.00" d=" M 31.28 5.31 C 31.64 5.31 32.35 5.30 32.70 5.29 C 36.84 12.77 37.22 21.49 36.97 29.84 C 36.85 30.10 36.61 30.62 36.49 30.88 C 34.88 29.70 33.21 27.91 31.00 28.55 C 29.75 29.21 28.62 30.07 27.49 30.90 C 26.16 22.40 27.28 13.09 31.28 5.31 Z" />
<path fill="#75ba55" opacity="1.00" d=" M 8.09 16.46 C 12.75 19.37 17.00 22.92 20.73 26.96 C 18.24 28.21 16.03 29.95 14.63 32.41 C 10.96 28.33 8.34 23.07 7.27 17.64 L 8.09 16.46 Z" />
<path fill="#75ba55" opacity="1.00" d=" M 43.13 27.26 C 46.70 22.91 51.19 19.48 55.91 16.46 C 57.75 17.94 55.86 20.12 55.62 21.87 C 55.02 23.69 54.12 25.44 53.02 27.01 L 52.46 26.90 C 49.27 25.41 46.36 28.85 43.13 27.26 Z" />
</g>
<g id="#8ec660ff">
<path fill="#8ec660" opacity="1.00" d=" M 43.13 27.26 C 46.36 28.85 49.27 25.41 52.46 26.90 L 52.84 28.12 C 48.98 32.32 46.15 37.61 41.50 41.05 C 41.00 38.53 39.19 36.71 37.13 35.34 C 38.67 32.35 41.18 30.02 42.88 27.22 L 43.13 27.26 Z" />
<path fill="#8ec660" opacity="1.00" d=" M 20.73 26.96 C 23.29 30.10 25.81 33.38 27.92 36.92 C 27.97 34.90 27.06 32.89 27.49 30.90 C 28.62 30.07 29.75 29.21 31.00 28.55 C 33.21 27.91 34.88 29.70 36.49 30.88 C 36.87 32.93 36.21 35.05 35.97 37.10 L 35.57 37.60 C 32.05 39.26 28.45 37.24 25.02 36.45 C 23.81 37.71 23.05 39.30 22.25 40.83 C 19.26 38.55 16.91 35.40 14.63 32.41 C 16.03 29.95 18.24 28.21 20.73 26.96 Z" />
</g>
<g id="#a4cd69ff">
<path fill="#a4cd69" opacity="1.00" d=" M 22.25 40.83 C 23.05 39.30 23.81 37.71 25.02 36.45 C 28.45 37.24 32.05 39.26 35.57 37.60 L 35.97 37.10 C 36.26 36.66 36.84 35.78 37.13 35.34 C 39.19 36.71 41.00 38.53 41.50 41.05 C 41.53 41.23 41.58 41.57 41.61 41.75 C 46.82 39.84 52.43 38.08 58.00 38.55 L 58.46 39.62 C 54.30 44.76 47.31 45.32 41.61 47.79 C 44.40 47.96 47.59 49.03 48.44 52.02 C 43.65 53.21 38.72 52.07 34.27 50.21 C 32.24 52.66 36.07 59.63 31.05 58.99 C 28.99 56.60 31.65 52.47 29.54 50.26 C 25.14 52.13 20.23 53.22 15.49 52.01 C 16.47 49.07 19.56 47.95 22.39 47.79 C 17.38 45.72 11.82 44.90 7.40 41.59 C 6.46 40.75 4.41 39.08 6.59 38.31 C 12.09 38.50 17.51 39.78 22.60 41.83 C 22.52 41.58 22.34 41.08 22.25 40.83 Z" />
</g>
</svg>
