<?xml version="1.0" encoding="UTF-8" ?>
<!DOCTYPE svg PUBLIC "-//W3C//DTD SVG 1.1//EN" "http://www.w3.org/Graphics/SVG/1.1/DTD/svg11.dtd">
<svg width="64pt" height="64pt" viewBox="0 0 64 64" version="1.1" xmlns="http://www.w3.org/2000/svg">
<g id="#010101ff">
<path fill="#010101" opacity="1.00" d=" M 23.23 6.94 C 26.33 2.86 32.67 2.43 36.75 5.26 C 45.26 10.32 48.21 23.06 41.62 30.83 C 46.24 32.60 50.67 34.82 55.23 36.75 C 57.51 37.74 60.23 39.21 60.47 42.00 C 61.04 45.28 58.52 49.06 54.98 48.91 C 51.53 48.73 48.50 46.86 45.45 45.43 C 46.70 48.82 49.29 52.07 48.84 55.86 C 48.22 60.77 40.52 62.35 38.17 57.90 C 35.33 52.71 33.10 47.21 30.83 41.77 C 28.11 43.35 25.30 45.06 22.08 45.28 C 14.96 45.76 7.79 41.78 4.39 35.51 C 2.58 31.46 3.26 25.97 6.98 23.20 C 11.15 20.03 16.82 20.28 21.63 21.63 C 20.28 16.81 20.03 11.11 23.23 6.94 M 25.62 7.41 C 21.80 12.24 22.31 19.42 25.83 24.25 C 25.83 24.75 25.85 25.74 25.85 26.24 C 22.09 24.44 18.08 22.37 13.77 23.00 C 10.59 23.25 7.31 24.96 6.14 28.09 C 4.79 30.91 6.60 33.79 7.52 36.43 C 11.71 41.45 18.89 44.48 25.28 42.17 C 28.12 41.27 29.57 38.45 30.66 35.90 C 32.09 39.27 33.87 42.49 35.25 45.89 C 37.58 50.25 38.23 56.36 43.04 58.75 C 44.26 57.78 46.06 57.22 46.68 55.67 C 46.73 52.85 45.09 50.36 43.95 47.89 C 42.80 45.64 41.80 43.33 40.98 40.95 C 46.15 42.63 50.68 46.00 56.13 46.83 C 56.99 45.56 57.86 44.30 58.73 43.03 C 57.27 39.00 52.55 38.50 49.24 36.64 C 44.73 34.92 40.62 32.24 35.97 30.90 C 40.38 29.19 43.36 25.10 43.22 20.29 C 42.43 16.44 41.39 12.41 38.49 9.58 C 35.40 5.92 29.65 4.21 25.62 7.41 Z" />
<path fill="#010101" opacity="1.00" d=" M 28.10 10.55 C 34.07 8.44 38.48 15.17 38.81 20.40 C 38.43 22.22 37.93 24.01 37.44 25.80 C 33.68 26.66 30.47 24.36 28.71 21.19 C 26.97 17.87 27.00 14.06 28.10 10.55 Z" />
<path fill="#010101" opacity="1.00" d=" M 10.32 28.24 C 15.72 26.04 22.10 27.87 25.56 32.54 C 25.70 34.19 25.77 35.85 25.83 37.51 C 21.06 39.59 15.72 38.37 11.88 35.01 C 10.24 33.09 9.85 30.67 10.32 28.24 Z" />
</g>
<g id="#e5e3bcff">
<path fill="#e5e3bc" opacity="1.00" d=" M 25.62 7.41 C 29.65 4.21 35.40 5.92 38.49 9.58 C 41.39 12.41 42.43 16.44 43.22 20.29 C 41.75 20.33 40.28 20.37 38.81 20.40 C 38.48 15.17 34.07 8.44 28.10 10.55 C 27.00 14.06 26.97 17.87 28.71 21.19 C 27.68 22.14 26.72 23.17 25.83 24.25 C 22.31 19.42 21.80 12.24 25.62 7.41 Z" />
</g>
<g id="#bebd9eff">
<path fill="#bebd9e" opacity="1.00" d=" M 38.81 20.40 C 40.28 20.37 41.75 20.33 43.22 20.29 C 43.36 25.10 40.38 29.19 35.97 30.90 C 35.46 31.34 34.44 32.20 33.93 32.63 C 31.14 32.65 28.35 32.63 25.56 32.54 C 22.10 27.87 15.72 26.04 10.32 28.24 C 9.85 30.67 10.24 33.09 11.88 35.01 C 10.43 35.48 8.98 35.96 7.52 36.43 C 6.60 33.79 4.79 30.91 6.14 28.09 C 7.31 24.96 10.59 23.25 13.77 23.00 C 18.08 22.37 22.09 24.44 25.85 26.24 C 25.85 25.74 25.83 24.75 25.83 24.25 C 26.72 23.17 27.68 22.14 28.71 21.19 C 30.47 24.36 33.68 26.66 37.44 25.80 C 37.93 24.01 38.43 22.22 38.81 20.40 Z" />
</g>
<g id="#9b9b86ff">
<path fill="#9b9b86" opacity="1.00" d=" M 35.97 30.90 C 40.62 32.24 44.73 34.92 49.24 36.64 C 52.55 38.50 57.27 39.00 58.73 43.03 C 57.86 44.30 56.99 45.56 56.13 46.83 C 50.68 46.00 46.15 42.63 40.98 40.95 C 41.80 43.33 42.80 45.64 43.95 47.89 C 41.05 47.23 38.15 46.57 35.25 45.89 C 33.87 42.49 32.09 39.27 30.66 35.90 C 29.57 38.45 28.12 41.27 25.28 42.17 C 18.89 44.48 11.71 41.45 7.52 36.43 C 8.98 35.96 10.43 35.48 11.88 35.01 C 15.72 38.37 21.06 39.59 25.83 37.51 C 25.77 35.85 25.70 34.19 25.56 32.54 C 28.35 32.63 31.14 32.65 33.93 32.63 C 34.44 32.20 35.46 31.34 35.97 30.90 Z" />
</g>
<g id="#7a7c6fff">
<path fill="#7a7c6f" opacity="1.00" d=" M 35.25 45.89 C 38.15 46.57 41.05 47.23 43.95 47.89 C 45.09 50.36 46.73 52.85 46.68 55.67 C 46.06 57.22 44.26 57.78 43.04 58.75 C 38.23 56.36 37.58 50.25 35.25 45.89 Z" />
</g>
</svg>
