<?xml version="1.0" encoding="UTF-8" ?>
<!DOCTYPE svg PUBLIC "-//W3C//DTD SVG 1.1//EN" "http://www.w3.org/Graphics/SVG/1.1/DTD/svg11.dtd">
<svg width="64pt" height="64pt" viewBox="0 0 64 64" version="1.1" xmlns="http://www.w3.org/2000/svg">
<g id="#060606fc">
<path fill="#060606" opacity="1.00" d=" M 9.61 8.68 C 13.32 8.51 17.05 8.23 20.74 8.63 C 21.84 9.34 21.60 10.78 21.73 11.89 C 21.81 16.57 21.66 21.25 21.77 25.93 C 23.16 25.94 24.56 25.95 25.95 25.96 C 25.98 20.16 25.72 14.35 26.28 8.57 C 29.97 8.54 33.70 8.21 37.37 8.72 C 37.55 8.97 37.92 9.48 38.10 9.74 C 38.63 15.12 38.27 20.54 38.23 25.93 C 39.56 25.93 40.89 25.93 42.22 25.94 C 42.37 20.95 42.12 15.96 42.33 10.98 C 42.31 9.99 42.87 8.52 44.08 8.59 C 47.44 8.47 50.94 8.04 54.23 8.91 C 54.97 14.49 54.42 20.15 54.47 25.76 C 56.40 26.00 58.34 26.24 60.27 26.52 C 60.28 30.17 60.28 33.81 60.28 37.45 C 58.33 37.76 56.38 38.02 54.44 38.28 C 54.60 43.98 54.66 49.69 54.39 55.38 C 50.47 55.55 46.54 55.54 42.62 55.44 C 41.93 49.67 42.41 43.85 42.22 38.06 C 40.89 38.06 39.56 38.06 38.23 38.07 C 38.47 43.30 38.27 48.53 38.23 53.76 C 39.27 54.03 39.82 53.40 39.89 51.85 C 39.67 53.16 39.50 54.48 39.36 55.80 C 35.01 55.37 30.63 55.53 26.27 55.44 C 25.72 49.61 26.01 43.76 25.93 37.93 C 24.54 37.98 23.16 38.04 21.77 38.09 C 21.51 43.90 22.24 49.77 21.19 55.52 C 17.38 55.42 13.52 55.87 9.76 55.13 C 9.07 49.55 9.45 43.90 9.57 38.29 C 7.62 38.03 5.66 37.77 3.72 37.46 C 3.66 33.73 3.65 30.00 4.06 26.29 C 5.88 26.13 7.71 25.99 9.54 25.83 C 9.36 20.12 9.31 14.39 9.61 8.68 M 11.75 10.69 C 11.71 16.54 11.72 22.39 11.74 28.25 C 9.83 28.29 7.92 28.32 6.02 28.36 C 6.03 30.79 6.03 33.22 6.03 35.65 C 7.93 35.68 9.83 35.71 11.73 35.73 C 11.73 41.59 11.71 47.45 11.75 53.31 C 14.35 53.30 16.95 53.30 19.54 53.20 C 19.41 47.37 19.49 41.54 19.52 35.71 C 22.43 35.71 25.35 35.71 28.27 35.71 C 28.29 41.59 28.21 47.47 28.34 53.35 C 30.87 53.29 33.40 53.29 35.94 53.30 C 35.94 47.44 35.94 41.57 35.94 35.71 C 38.79 35.71 41.64 35.71 44.49 35.71 C 44.49 41.54 44.54 47.37 44.45 53.19 C 47.06 53.30 49.68 53.30 52.29 53.32 C 52.25 47.46 52.28 41.60 52.27 35.73 C 54.17 35.71 56.07 35.68 57.97 35.65 C 57.97 33.22 57.97 30.78 57.98 28.35 C 56.07 28.32 54.17 28.29 52.27 28.26 C 52.28 22.40 52.25 16.54 52.29 10.68 C 49.68 10.69 47.06 10.70 44.45 10.80 C 44.54 16.63 44.48 22.45 44.49 28.27 C 41.64 28.27 38.79 28.27 35.94 28.27 C 35.94 22.41 35.93 16.56 35.94 10.70 C 33.40 10.71 30.86 10.70 28.32 10.64 C 28.22 16.51 28.29 22.39 28.27 28.27 C 25.35 28.27 22.43 28.27 19.51 28.27 C 19.49 22.45 19.41 16.62 19.54 10.80 C 16.95 10.70 14.35 10.69 11.75 10.69 Z" />
</g>
<g id="#fffeffff">
<path fill="#fffeff" opacity="1.00" d=" M 11.75 10.69 C 14.35 10.69 16.95 10.70 19.54 10.80 C 19.41 16.62 19.49 22.45 19.51 28.27 C 22.43 28.27 25.35 28.27 28.27 28.27 C 28.29 22.39 28.22 16.51 28.32 10.64 C 30.86 10.70 33.40 10.71 35.94 10.70 C 35.93 16.56 35.94 22.41 35.94 28.27 C 38.79 28.27 41.64 28.27 44.49 28.27 C 44.48 22.45 44.54 16.63 44.45 10.80 C 47.06 10.70 49.68 10.69 52.29 10.68 C 52.25 16.54 52.28 22.40 52.27 28.26 C 54.17 28.29 56.07 28.32 57.98 28.35 C 57.97 30.78 57.97 33.22 57.97 35.65 C 56.07 35.68 54.17 35.71 52.27 35.73 C 52.28 41.60 52.25 47.46 52.29 53.32 C 49.68 53.30 47.06 53.30 44.45 53.19 C 44.54 47.37 44.49 41.54 44.49 35.71 C 41.64 35.71 38.79 35.71 35.94 35.71 C 35.94 41.57 35.94 47.44 35.94 53.30 C 33.40 53.29 30.87 53.29 28.34 53.35 C 28.21 47.47 28.29 41.59 28.27 35.71 C 25.35 35.71 22.43 35.71 19.52 35.71 C 19.49 41.54 19.41 47.37 19.54 53.20 C 16.95 53.30 14.35 53.30 11.75 53.31 C 11.71 47.45 11.73 41.59 11.73 35.73 C 9.83 35.71 7.93 35.68 6.03 35.65 C 6.03 33.22 6.03 30.79 6.02 28.36 C 7.92 28.32 9.83 28.29 11.74 28.25 C 11.72 22.39 11.71 16.54 11.75 10.69 Z" />
</g>
</svg>
