<?xml version="1.0" encoding="UTF-8" ?>
<!DOCTYPE svg PUBLIC "-//W3C//DTD SVG 1.1//EN" "http://www.w3.org/Graphics/SVG/1.1/DTD/svg11.dtd">
<svg width="64pt" height="64pt" viewBox="0 0 64 64" version="1.1" xmlns="http://www.w3.org/2000/svg">
<g id="#080708f0">
<path fill="#080708" opacity="0.94" d=" M 27.26 13.26 C 29.35 9.62 35.55 10.05 37.07 13.99 C 38.16 15.81 37.29 17.86 36.81 19.71 C 38.01 22.42 39.27 25.10 40.55 27.77 C 42.80 25.80 45.05 23.85 47.27 21.85 C 45.77 17.43 50.51 12.88 54.75 15.28 C 58.79 17.41 57.63 23.09 54.17 25.22 C 52.39 31.76 51.45 38.53 49.88 45.14 C 49.63 46.90 47.97 48.55 46.10 48.30 C 36.22 48.36 26.34 48.17 16.46 48.39 C 15.51 47.41 14.26 46.55 14.10 45.09 C 12.64 38.50 11.39 31.87 9.88 25.29 C 8.21 23.93 6.02 22.45 6.36 19.97 C 5.99 15.89 11.34 12.65 14.65 15.31 C 17.23 16.62 16.98 19.69 16.89 22.13 C 18.94 24.05 21.03 25.91 23.13 27.77 C 24.53 25.10 25.91 22.43 27.19 19.70 C 26.61 17.62 25.69 15.15 27.26 13.26 M 28.50 16.59 C 28.95 17.79 30.55 19.02 29.57 20.40 C 27.59 24.12 25.85 27.96 23.87 31.68 C 20.49 28.62 17.14 25.54 13.65 22.61 C 14.52 20.82 14.93 18.94 13.83 17.16 C 11.25 16.06 8.80 17.48 8.24 20.20 C 9.26 21.48 10.40 22.69 11.93 23.34 C 13.04 28.76 14.34 34.15 15.35 39.59 C 15.75 41.76 16.24 43.90 16.82 46.02 C 26.93 45.92 37.05 45.93 47.17 46.05 C 48.24 41.35 49.50 36.66 50.03 31.86 L 50.26 31.69 C 50.86 28.78 51.35 25.84 52.20 22.98 C 53.26 22.31 54.30 21.58 55.32 20.85 C 55.05 19.23 54.30 17.84 53.01 16.80 C 52.31 17.00 50.90 17.39 50.19 17.59 C 49.58 19.20 49.43 20.82 50.60 22.25 C 46.88 25.31 43.27 28.51 39.88 31.93 C 38.18 28.03 36.02 24.34 34.34 20.43 C 33.41 19.03 35.07 17.77 35.48 16.54 C 34.84 15.05 34.12 12.71 32.05 12.97 C 29.90 12.66 29.15 15.04 28.50 16.59 Z" />
</g>
<g id="#e9e8e9ff">
<path fill="#e9e8e9" opacity="1.00" d=" M 28.50 16.59 C 29.15 15.04 29.90 12.66 32.05 12.97 C 34.12 12.71 34.84 15.05 35.48 16.54 C 35.07 17.77 33.41 19.03 34.34 20.43 C 36.02 24.34 38.18 28.03 39.88 31.93 C 43.27 28.51 46.88 25.31 50.60 22.25 C 49.43 20.82 49.58 19.20 50.19 17.59 C 50.90 17.39 52.31 17.00 53.01 16.80 C 54.30 17.84 55.05 19.23 55.32 20.85 C 54.30 21.58 53.26 22.31 52.20 22.98 C 51.35 25.84 50.86 28.78 50.26 31.69 L 50.03 31.86 C 49.67 32.11 48.95 32.62 48.59 32.88 C 47.84 35.03 47.84 37.53 46.57 39.45 C 44.08 40.09 41.49 40.01 38.95 40.03 C 31.08 39.88 23.21 40.03 15.35 39.59 C 14.34 34.15 13.04 28.76 11.93 23.34 C 10.40 22.69 9.26 21.48 8.24 20.20 C 8.80 17.48 11.25 16.06 13.83 17.16 C 14.93 18.94 14.52 20.82 13.65 22.61 C 17.14 25.54 20.49 28.62 23.87 31.68 C 25.85 27.96 27.59 24.12 29.57 20.40 C 30.55 19.02 28.95 17.79 28.50 16.59 Z" />
</g>
<g id="#dde0ddff">
<path fill="#dde0dd" opacity="1.00" d=" M 48.59 32.88 C 48.95 32.62 49.67 32.11 50.03 31.86 C 49.50 36.66 48.24 41.35 47.17 46.05 C 37.05 45.93 26.93 45.92 16.82 46.02 C 16.24 43.90 15.75 41.76 15.35 39.59 C 23.21 40.03 31.08 39.88 38.95 40.03 C 41.49 40.01 44.08 40.09 46.57 39.45 C 47.84 37.53 47.84 35.03 48.59 32.88 Z" />
</g>
</svg>
