<?xml version="1.0" encoding="UTF-8" ?>
<!DOCTYPE svg PUBLIC "-//W3C//DTD SVG 1.1//EN" "http://www.w3.org/Graphics/SVG/1.1/DTD/svg11.dtd">
<svg width="64pt" height="64pt" viewBox="0 0 64 64" version="1.1" xmlns="http://www.w3.org/2000/svg">
<g id="#050505ff">
<path fill="#050505" opacity="1.00" d=" M 38.89 9.96 C 41.49 8.02 43.09 3.69 46.95 4.77 C 46.94 7.49 47.06 10.35 45.84 12.87 C 44.65 15.86 42.11 17.94 40.00 20.25 C 44.04 18.94 46.37 15.07 50.09 13.21 C 53.16 11.36 56.78 10.97 60.26 10.49 C 61.03 11.65 62.57 13.69 60.70 14.69 C 56.23 17.49 49.77 19.54 49.41 25.80 C 52.22 25.78 54.31 23.71 56.88 22.97 C 60.02 25.55 57.54 29.98 55.65 32.61 C 53.48 35.83 48.34 34.85 46.59 38.36 C 48.13 37.79 49.65 37.18 51.18 36.59 C 54.39 38.82 51.67 42.71 49.64 44.73 C 46.26 48.66 40.54 49.28 37.24 53.27 C 32.81 58.08 25.93 60.24 19.51 59.34 C 9.78 58.14 1.68 48.83 2.24 38.96 C 2.05 29.43 9.60 20.34 19.13 19.13 C 23.61 19.08 25.88 14.33 30.18 13.76 C 33.32 13.15 36.62 12.42 38.89 9.96 M 38.98 12.99 C 35.06 15.98 29.40 15.03 25.84 18.69 C 29.72 19.98 33.77 21.29 36.61 24.42 C 40.88 28.02 42.38 33.66 43.03 38.99 C 42.67 42.02 42.40 45.13 41.02 47.91 C 44.67 45.47 49.40 43.36 50.64 38.75 C 49.29 40.64 45.19 41.60 44.27 38.79 C 43.59 35.80 46.73 33.91 49.27 33.58 C 52.98 32.84 55.65 29.74 56.12 26.03 C 53.80 27.12 50.95 28.88 48.38 27.42 C 46.60 26.31 47.35 23.80 47.67 22.11 C 49.90 17.54 54.80 15.09 59.29 13.23 C 53.97 12.92 49.21 15.99 45.61 19.63 C 43.43 21.96 39.14 23.82 36.93 20.47 L 37.75 20.67 C 37.90 20.11 38.20 19.00 38.35 18.44 C 41.85 15.60 44.44 11.73 45.04 7.20 C 43.04 9.14 41.19 11.27 38.98 12.99 M 17.43 21.76 C 8.23 24.32 2.28 34.94 5.12 44.11 C 6.78 49.18 10.43 53.72 15.45 55.75 C 20.79 58.39 27.28 57.40 32.25 54.42 C 36.85 51.46 39.83 46.35 40.61 40.98 C 41.16 34.32 37.83 27.45 32.18 23.85 C 27.90 20.96 22.35 20.44 17.43 21.76 Z" />
<path fill="#050505" opacity="1.00" d=" M 19.21 26.16 C 27.59 23.59 36.76 31.41 35.82 40.05 C 35.58 47.01 28.91 52.81 22.05 52.51 C 15.18 52.27 8.79 45.97 9.28 38.95 C 9.06 33.00 13.63 27.72 19.21 26.16 M 20.77 28.03 C 20.63 28.51 20.36 29.47 20.22 29.95 C 17.80 31.72 15.01 34.17 16.60 37.52 C 19.01 40.23 22.92 40.44 26.07 41.86 C 25.12 46.22 20.08 44.58 18.56 41.59 C 17.49 41.58 16.42 41.57 15.36 41.57 C 15.94 42.97 16.08 44.72 17.38 45.68 C 18.72 46.97 21.43 47.25 20.67 49.69 C 21.96 49.67 23.25 49.65 24.55 49.63 C 24.52 49.17 24.46 48.24 24.42 47.78 C 26.91 46.88 29.87 45.10 29.37 41.99 C 29.13 37.24 23.37 37.55 20.11 36.07 C 19.01 32.53 24.64 32.79 25.50 35.64 C 26.64 35.68 27.78 35.71 28.92 35.74 C 28.72 34.73 28.51 33.72 28.31 32.71 C 26.97 31.88 25.69 30.98 24.34 30.17 C 24.33 29.60 24.31 28.47 24.29 27.91 C 23.12 27.95 21.95 27.99 20.77 28.03 Z" />
</g>
<g id="#fcfbfcff">
<path fill="#fcfbfc" opacity="1.00" d=" M 38.98 12.99 C 41.19 11.27 43.04 9.14 45.04 7.20 C 44.44 11.73 41.85 15.60 38.35 18.44 C 38.20 19.00 37.90 20.11 37.75 20.67 L 36.93 20.47 C 39.14 23.82 43.43 21.96 45.61 19.63 C 49.21 15.99 53.97 12.92 59.29 13.23 C 54.80 15.09 49.90 17.54 47.67 22.11 C 47.35 23.80 46.60 26.31 48.38 27.42 C 50.95 28.88 53.80 27.12 56.12 26.03 C 55.65 29.74 52.98 32.84 49.27 33.58 C 46.73 33.91 43.59 35.80 44.27 38.79 C 45.19 41.60 49.29 40.64 50.64 38.75 C 49.40 43.36 44.67 45.47 41.02 47.91 C 42.40 45.13 42.67 42.02 43.03 38.99 C 42.38 33.66 40.88 28.02 36.61 24.42 C 33.77 21.29 29.72 19.98 25.84 18.69 C 29.40 15.03 35.06 15.98 38.98 12.99 Z" />
<path fill="#fcfbfc" opacity="1.00" d=" M 17.43 21.76 C 22.35 20.44 27.90 20.96 32.18 23.85 C 37.83 27.45 41.16 34.32 40.61 40.98 C 39.83 46.35 36.85 51.46 32.25 54.42 C 27.28 57.40 20.79 58.39 15.45 55.75 C 10.43 53.72 6.78 49.18 5.12 44.11 C 2.28 34.94 8.23 24.32 17.43 21.76 M 19.21 26.16 C 13.63 27.72 9.06 33.00 9.28 38.95 C 8.79 45.97 15.18 52.27 22.05 52.51 C 28.91 52.81 35.58 47.01 35.82 40.05 C 36.76 31.41 27.59 23.59 19.21 26.16 Z" />
<path fill="#fcfbfc" opacity="1.00" d=" M 20.77 28.03 C 21.95 27.99 23.12 27.95 24.29 27.91 C 24.31 28.47 24.33 29.60 24.34 30.17 C 25.69 30.98 26.97 31.88 28.31 32.71 C 28.51 33.72 28.72 34.73 28.92 35.74 C 27.78 35.71 26.64 35.68 25.50 35.64 C 24.64 32.79 19.01 32.53 20.11 36.07 C 23.37 37.55 29.13 37.24 29.37 41.99 C 29.87 45.10 26.91 46.88 24.42 47.78 C 24.46 48.24 24.52 49.17 24.55 49.63 C 23.25 49.65 21.96 49.67 20.67 49.69 C 21.43 47.25 18.72 46.97 17.38 45.68 C 16.08 44.72 15.94 42.97 15.36 41.57 C 16.42 41.57 17.49 41.58 18.56 41.59 C 20.08 44.58 25.12 46.22 26.07 41.86 C 22.92 40.44 19.01 40.23 16.60 37.52 C 15.01 34.17 17.80 31.72 20.22 29.95 C 20.36 29.47 20.63 28.51 20.77 28.03 Z" />
</g>
</svg>
