<?xml version="1.0" encoding="UTF-8" ?>
<!DOCTYPE svg PUBLIC "-//W3C//DTD SVG 1.1//EN" "http://www.w3.org/Graphics/SVG/1.1/DTD/svg11.dtd">
<svg width="64pt" height="64pt" viewBox="0 0 64 64" version="1.1" xmlns="http://www.w3.org/2000/svg">
<g id="#050805fd">
<path fill="#050805" opacity="1.00" d=" M 29.80 3.78 C 31.04 2.33 32.98 3.10 34.54 3.41 C 34.61 3.70 34.75 4.29 34.82 4.59 C 35.62 7.84 36.32 11.12 36.91 14.42 C 37.70 18.62 38.07 22.88 38.81 27.09 C 38.90 27.43 39.08 28.12 39.17 28.46 C 41.86 30.62 44.84 32.36 47.78 34.16 C 49.93 35.66 52.19 37.08 54.00 39.00 C 55.03 41.65 54.37 44.59 54.25 47.35 C 48.83 48.29 43.32 47.05 37.86 47.74 C 39.98 49.90 42.20 51.96 44.51 53.90 C 44.30 55.32 44.09 56.73 43.88 58.15 C 40.60 58.51 36.43 56.90 33.94 59.73 C 33.46 60.16 32.49 61.01 32.01 61.43 C 30.72 60.75 29.76 59.64 28.73 58.65 C 25.62 58.06 20.10 60.20 19.22 55.84 C 19.68 52.03 24.06 50.63 26.07 47.71 C 20.60 47.06 15.08 48.28 9.64 47.35 L 9.65 46.58 C 9.73 44.09 9.57 41.55 10.18 39.12 C 11.14 37.89 12.43 36.96 13.64 36.00 C 17.15 33.73 20.42 31.10 24.05 29.04 C 24.34 28.60 24.92 27.74 25.21 27.30 C 25.78 21.83 26.85 16.42 27.56 10.96 C 28.00 8.50 28.25 5.83 29.80 3.78 M 28.11 22.83 C 27.34 25.44 28.34 29.18 25.50 30.71 C 21.01 33.96 16.43 37.08 11.81 40.14 C 11.80 41.97 11.79 43.79 11.77 45.62 C 17.21 45.05 22.71 45.68 28.12 44.80 C 28.00 46.46 27.84 48.12 27.70 49.78 C 25.57 51.79 23.04 53.51 21.69 56.20 C 23.51 56.25 25.34 56.27 27.16 56.20 C 28.12 55.69 29.12 55.29 30.17 55.00 C 30.77 56.38 31.38 57.75 31.97 59.13 C 32.54 57.85 33.13 56.58 33.71 55.30 C 34.08 55.28 34.83 55.22 35.21 55.19 C 37.37 56.97 40.26 56.19 42.79 56.02 C 40.79 53.79 38.56 51.79 36.34 49.79 C 36.15 48.13 36.02 46.46 35.86 44.80 C 41.28 45.72 46.80 45.03 52.26 45.63 C 52.29 43.81 52.22 42.00 52.23 40.18 C 47.02 36.83 42.05 33.14 36.92 29.68 C 35.84 23.05 35.06 16.38 33.94 9.75 C 33.70 7.95 32.89 6.31 32.03 4.73 C 28.90 10.20 29.36 16.81 28.11 22.83 Z" />
</g>
<g id="#0d0e0d87">
<path fill="#0d0e0d" opacity="0.53" d=" M 34.82 4.59 C 37.09 7.33 36.43 11.14 36.91 14.42 C 36.32 11.12 35.62 7.84 34.82 4.59 Z" />
<path fill="#0d0e0d" opacity="0.53" d=" M 24.29 27.32 L 25.21 27.30 C 24.92 27.74 24.34 28.60 24.05 29.04 L 23.71 28.20 L 24.29 27.32 Z" />
<path fill="#0d0e0d" opacity="0.53" d=" M 38.81 27.09 C 41.77 29.48 45.48 31.01 47.78 34.16 C 44.84 32.36 41.86 30.62 39.17 28.46 C 39.08 28.12 38.90 27.43 38.81 27.09 Z" />
<path fill="#0d0e0d" opacity="0.53" d=" M 9.65 46.58 C 7.78 42.70 8.52 36.64 13.64 36.00 C 12.43 36.96 11.14 37.89 10.18 39.12 C 9.57 41.55 9.73 44.09 9.65 46.58 Z" />
<path fill="#0d0e0d" opacity="0.53" d=" M 44.51 53.90 C 44.55 55.27 45.56 56.97 44.20 58.01 C 41.31 60.55 37.26 58.34 33.94 59.73 C 36.43 56.90 40.60 58.51 43.88 58.15 C 44.09 56.73 44.30 55.32 44.51 53.90 Z" />
</g>
<g id="#dedddeff">
<path fill="#deddde" opacity="1.00" d=" M 28.11 22.83 C 29.36 16.81 28.90 10.20 32.03 4.73 C 32.89 6.31 33.70 7.95 33.94 9.75 C 35.06 16.38 35.84 23.05 36.92 29.68 C 42.05 33.14 47.02 36.83 52.23 40.18 C 52.22 42.00 52.29 43.81 52.26 45.63 C 46.80 45.03 41.28 45.72 35.86 44.80 C 33.29 44.45 30.68 44.46 28.12 44.80 C 22.71 45.68 17.21 45.05 11.77 45.62 C 11.79 43.79 11.80 41.97 11.81 40.14 C 16.43 37.08 21.01 33.96 25.50 30.71 C 28.34 29.18 27.34 25.44 28.11 22.83 Z" />
</g>
<g id="#ccceccff">
<path fill="#cccecc" opacity="1.00" d=" M 28.12 44.80 C 30.68 44.46 33.29 44.45 35.86 44.80 C 36.02 46.46 36.15 48.13 36.34 49.79 C 38.56 51.79 40.79 53.79 42.79 56.02 C 40.26 56.19 37.37 56.97 35.21 55.19 C 34.83 55.22 34.08 55.28 33.71 55.30 C 33.13 56.58 32.54 57.85 31.97 59.13 C 31.38 57.75 30.77 56.38 30.17 55.00 C 29.12 55.29 28.12 55.69 27.16 56.20 C 25.34 56.27 23.51 56.25 21.69 56.20 C 23.04 53.51 25.57 51.79 27.70 49.78 C 27.84 48.12 28.00 46.46 28.12 44.80 Z" />
</g>
</svg>
