<?xml version="1.0" encoding="UTF-8" ?>
<!DOCTYPE svg PUBLIC "-//W3C//DTD SVG 1.1//EN" "http://www.w3.org/Graphics/SVG/1.1/DTD/svg11.dtd">
<svg width="64pt" height="64pt" viewBox="0 0 64 64" version="1.1" xmlns="http://www.w3.org/2000/svg">
<g id="#000000fe">
<path fill="#000000" opacity="1.00" d=" M 10.13 7.99 C 23.77 7.72 37.41 7.98 51.05 7.86 C 52.62 7.93 54.27 7.66 55.78 8.21 C 56.35 9.74 56.06 11.42 56.14 13.01 C 55.97 26.66 56.37 40.31 55.94 53.95 C 40.65 54.23 25.33 54.27 10.04 53.93 C 9.83 38.62 9.66 23.28 10.13 7.99 M 12.45 9.12 C 12.12 9.46 11.46 10.12 11.12 10.45 C 11.07 24.14 11.21 37.83 11.05 51.51 C 12.43 50.40 13.72 49.19 14.94 47.92 C 27.73 34.90 40.95 22.28 53.51 9.06 C 39.83 9.21 26.14 9.07 12.45 9.12 M 48.07 17.10 C 36.26 29.09 24.06 40.72 12.50 52.95 C 25.36 52.82 38.22 52.88 51.07 52.91 C 52.37 52.85 54.45 53.30 54.84 51.53 C 54.97 37.86 54.76 24.18 54.95 10.50 C 52.42 12.45 50.36 14.90 48.07 17.10 Z" />
</g>
<g id="#ff7f27ff">
<path fill="#ff7f27" opacity="1.00" d=" M 12.45 9.12 C 26.14 9.07 39.83 9.21 53.51 9.06 C 40.95 22.28 27.73 34.90 14.94 47.92 C 13.72 49.19 12.43 50.40 11.05 51.51 C 11.21 37.83 11.07 24.14 11.12 10.45 C 11.46 10.12 12.12 9.46 12.45 9.12 Z" />
</g>
<g id="#ffffffff">
<path fill="#ffffff" opacity="1.00" d=" M 48.07 17.10 C 50.36 14.90 52.42 12.45 54.95 10.50 C 54.76 24.18 54.97 37.86 54.84 51.53 C 54.45 53.30 52.37 52.85 51.07 52.91 C 38.22 52.88 25.36 52.82 12.50 52.95 C 24.06 40.72 36.26 29.09 48.07 17.10 Z" />
</g>
</svg>
