<?xml version="1.0" encoding="UTF-8" ?>
<!DOCTYPE svg PUBLIC "-//W3C//DTD SVG 1.1//EN" "http://www.w3.org/Graphics/SVG/1.1/DTD/svg11.dtd">
<svg width="64pt" height="64pt" viewBox="0 0 64 64" version="1.1" xmlns="http://www.w3.org/2000/svg">
<g id="#000100ff">
<path fill="#000100" opacity="1.00" d=" M 28.91 5.90 C 31.24 3.49 35.65 3.65 37.80 6.24 C 39.82 8.27 39.12 11.39 39.28 13.97 C 43.21 13.99 47.15 13.77 51.08 14.04 C 53.62 14.05 55.81 16.20 56.13 18.68 C 56.91 23.11 57.39 27.58 58.06 32.03 C 59.90 33.23 62.28 34.46 62.35 37.01 C 62.59 41.05 63.42 46.17 59.41 48.70 C 59.52 52.72 59.51 57.22 55.86 59.80 C 53.18 59.56 49.99 60.26 47.83 58.24 C 45.46 55.89 46.08 52.24 45.87 49.22 C 37.35 49.37 28.82 49.28 20.30 49.27 C 20.16 52.48 21.12 56.80 17.90 58.81 C 14.58 60.61 9.33 60.22 7.65 56.36 C 7.01 53.97 7.35 51.46 7.25 49.03 C 3.57 46.54 2.96 41.96 3.99 37.91 C 3.90 35.05 6.24 33.31 8.41 31.95 C 9.06 27.60 9.57 23.22 10.33 18.89 C 10.58 16.51 12.43 14.15 14.96 14.08 C 19.03 13.72 23.12 14.07 27.19 14.03 C 27.45 11.32 26.59 7.95 28.91 5.90 M 29.53 13.55 C 31.83 14.56 34.46 13.88 36.88 13.82 C 36.82 11.83 37.26 9.71 36.37 7.85 C 35.06 6.53 33.17 6.62 31.48 6.43 C 29.61 8.33 29.17 10.99 29.53 13.55 M 12.72 17.79 C 11.91 23.19 11.35 28.62 10.28 33.98 C 8.80 34.70 6.77 35.21 6.43 37.09 C 6.33 40.11 5.70 43.43 7.31 46.17 C 12.18 47.84 7.36 54.66 11.43 57.42 C 12.97 57.39 14.50 57.37 16.04 57.38 C 19.22 54.86 17.73 50.55 17.99 47.09 C 28.08 47.02 38.17 47.07 48.27 47.06 C 48.26 49.87 48.20 52.68 48.55 55.47 C 49.35 56.19 50.14 56.92 50.93 57.66 C 52.90 57.36 55.71 57.66 56.65 55.46 C 57.17 52.69 56.87 49.84 57.09 47.04 C 61.84 45.31 60.35 39.19 59.54 35.40 C 58.36 35.00 57.18 34.59 56.00 34.19 C 55.16 28.36 54.59 22.46 53.21 16.73 C 51.47 16.44 49.72 16.25 47.96 16.28 C 37.33 16.38 26.69 16.26 16.05 16.34 C 14.76 16.25 13.79 17.24 12.72 17.79 Z" />
<path fill="#000100" opacity="1.00" d=" M 14.62 31.31 C 15.02 27.35 15.45 23.36 16.58 19.52 C 27.33 19.61 38.09 19.35 48.82 19.64 C 51.85 22.61 51.03 27.46 51.89 31.32 C 39.47 31.25 27.04 31.27 14.62 31.31 Z" />
</g>
<g id="#fefefeff">
<path fill="#fefefe" opacity="1.00" d=" M 29.53 13.55 C 29.17 10.99 29.61 8.33 31.48 6.43 C 33.17 6.62 35.06 6.53 36.37 7.85 C 37.26 9.71 36.82 11.83 36.88 13.82 C 34.46 13.88 31.83 14.56 29.53 13.55 Z" />
<path fill="#fefefe" opacity="1.00" d=" M 12.72 17.79 C 13.79 17.24 14.76 16.25 16.05 16.34 C 26.69 16.26 37.33 16.38 47.96 16.28 C 49.72 16.25 51.47 16.44 53.21 16.73 C 54.59 22.46 55.16 28.36 56.00 34.19 C 57.18 34.59 58.36 35.00 59.54 35.40 C 60.35 39.19 61.84 45.31 57.09 47.04 C 56.87 49.84 57.17 52.69 56.65 55.46 C 55.71 57.66 52.90 57.36 50.93 57.66 C 50.14 56.92 49.35 56.19 48.55 55.47 C 48.20 52.68 48.26 49.87 48.27 47.06 C 38.17 47.07 28.08 47.02 17.99 47.09 C 17.73 50.55 19.22 54.86 16.04 57.38 C 14.50 57.37 12.97 57.39 11.43 57.42 C 7.36 54.66 12.18 47.84 7.31 46.17 C 5.70 43.43 6.33 40.11 6.43 37.09 C 6.77 35.21 8.80 34.70 10.28 33.98 C 11.35 28.62 11.91 23.19 12.72 17.79 M 14.62 31.31 C 27.04 31.27 39.47 31.25 51.89 31.32 C 51.03 27.46 51.85 22.61 48.82 19.64 C 38.09 19.35 27.33 19.61 16.58 19.52 C 15.45 23.36 15.02 27.35 14.62 31.31 Z" />
</g>
</svg>
