<?xml version="1.0" encoding="UTF-8" ?>
<!DOCTYPE svg PUBLIC "-//W3C//DTD SVG 1.1//EN" "http://www.w3.org/Graphics/SVG/1.1/DTD/svg11.dtd">
<svg width="64pt" height="64pt" viewBox="0 0 64 64" version="1.1" xmlns="http://www.w3.org/2000/svg">
<g id="#080c09fd">
<path fill="#080c09" opacity="1.00" d=" M 28.42 2.49 C 38.03 1.37 48.21 5.12 54.32 12.72 C 57.62 16.55 59.50 21.38 60.59 26.26 C 61.12 29.98 61.08 34.34 58.07 37.05 C 49.77 45.21 41.54 53.47 33.03 61.39 C 32.52 61.39 31.49 61.38 30.97 61.38 C 22.44 53.82 14.61 45.49 6.38 37.60 C 1.99 33.78 2.89 27.34 4.46 22.38 C 7.56 11.76 17.50 3.73 28.42 2.49 M 19.74 7.63 C 11.50 11.83 5.75 20.72 5.60 29.99 C 5.22 34.38 9.46 36.92 12.14 39.67 C 18.28 46.66 25.62 52.39 31.99 59.15 C 38.37 52.59 45.41 46.75 51.61 40.01 C 53.88 37.48 57.16 35.50 58.25 32.15 C 59.41 20.46 50.89 9.10 39.83 5.76 C 33.24 3.76 25.82 4.31 19.74 7.63 Z" />
</g>
<g id="#8cc5c7ff">
<path fill="#8cc5c7" opacity="1.00" d=" M 19.74 7.63 C 25.82 4.31 33.24 3.76 39.83 5.76 C 50.89 9.10 59.41 20.46 58.25 32.15 C 57.16 35.50 53.88 37.48 51.61 40.01 C 50.40 39.64 49.19 39.28 47.97 38.92 C 49.70 36.93 52.58 35.46 52.92 32.63 C 53.09 27.07 44.56 27.53 42.58 31.64 C 41.15 31.56 39.72 31.47 38.29 31.38 C 38.33 25.24 30.03 25.61 26.26 28.09 C 26.14 28.91 25.90 30.55 25.79 31.37 C 24.33 31.46 22.88 31.55 21.42 31.64 C 19.44 28.34 14.88 27.57 11.79 29.77 C 9.39 33.73 13.66 36.63 16.15 39.05 C 14.82 39.27 13.48 39.48 12.14 39.67 C 9.46 36.92 5.22 34.38 5.60 29.99 C 5.75 20.72 11.50 11.83 19.74 7.63 Z" />
</g>
<g id="#000202ff">
<path fill="#000202" opacity="1.00" d=" M 26.26 28.09 C 30.03 25.61 38.33 25.24 38.29 31.38 C 36.14 37.77 34.11 44.20 32.00 50.60 C 29.94 44.19 27.77 37.81 25.79 31.37 C 25.90 30.55 26.14 28.91 26.26 28.09 Z" />
<path fill="#000202" opacity="1.00" d=" M 11.79 29.77 C 14.88 27.57 19.44 28.34 21.42 31.64 C 23.49 38.12 26.07 44.42 28.23 50.88 C 24.18 46.95 20.21 42.95 16.15 39.05 C 13.66 36.63 9.39 33.73 11.79 29.77 Z" />
<path fill="#000202" opacity="1.00" d=" M 42.58 31.64 C 44.56 27.53 53.09 27.07 52.92 32.63 C 52.58 35.46 49.70 36.93 47.97 38.92 C 43.86 42.85 39.89 46.92 35.77 50.85 C 37.92 44.41 40.52 38.12 42.58 31.64 Z" />
</g>
<g id="#709da8ff">
<path fill="#709da8" opacity="1.00" d=" M 21.42 31.64 C 22.88 31.55 24.33 31.46 25.79 31.37 C 27.77 37.81 29.94 44.19 32.00 50.60 C 34.11 44.20 36.14 37.77 38.29 31.38 C 39.72 31.47 41.15 31.56 42.58 31.64 C 40.52 38.12 37.92 44.41 35.77 50.85 C 39.89 46.92 43.86 42.85 47.97 38.92 C 49.19 39.28 50.40 39.64 51.61 40.01 C 45.41 46.75 38.37 52.59 31.99 59.15 C 25.62 52.39 18.28 46.66 12.14 39.67 C 13.48 39.48 14.82 39.27 16.15 39.05 C 20.21 42.95 24.18 46.95 28.23 50.88 C 26.07 44.42 23.49 38.12 21.42 31.64 Z" />
</g>
</svg>
