<?xml version="1.0" encoding="UTF-8" ?>
<!DOCTYPE svg PUBLIC "-//W3C//DTD SVG 1.1//EN" "http://www.w3.org/Graphics/SVG/1.1/DTD/svg11.dtd">
<svg width="64pt" height="64pt" viewBox="0 0 64 64" version="1.1" xmlns="http://www.w3.org/2000/svg">
<g id="#030403e9">
<path fill="#030403" opacity="0.91" d=" M 13.13 30.01 C 11.96 23.51 15.90 15.42 22.97 14.57 C 26.55 13.62 29.77 16.04 32.01 18.55 C 34.21 16.01 37.36 13.66 40.94 14.56 C 49.15 15.58 53.15 25.94 49.99 32.98 C 47.06 39.53 41.78 45.07 35.57 48.62 C 31.61 51.05 27.23 48.45 24.17 45.81 C 19.32 41.57 14.50 36.52 13.13 30.01 M 15.55 30.46 C 17.23 36.14 21.82 40.14 25.92 44.12 C 28.48 46.18 32.09 48.81 35.16 46.14 C 40.60 42.34 45.74 37.38 48.27 31.11 C 49.97 25.40 46.77 17.27 40.17 16.80 C 36.36 15.95 34.46 20.16 32.00 22.21 C 29.55 20.17 27.67 16.00 23.89 16.79 C 17.49 17.20 14.20 24.81 15.55 30.46 Z" />
</g>
<g id="#fefefeff">
<path fill="#fefefe" opacity="1.00" d=" M 15.55 30.46 C 14.20 24.81 17.49 17.20 23.89 16.79 C 27.67 16.00 29.55 20.17 32.00 22.21 C 34.46 20.16 36.36 15.95 40.17 16.80 C 46.77 17.27 49.97 25.40 48.27 31.11 C 45.74 37.38 40.60 42.34 35.16 46.14 C 32.09 48.81 28.48 46.18 25.92 44.12 C 21.82 40.14 17.23 36.14 15.55 30.46 Z" />
</g>
</svg>
