<?xml version="1.0" encoding="UTF-8" ?>
<!DOCTYPE svg PUBLIC "-//W3C//DTD SVG 1.1//EN" "http://www.w3.org/Graphics/SVG/1.1/DTD/svg11.dtd">
<svg width="64pt" height="64pt" viewBox="0 0 64 64" version="1.1" xmlns="http://www.w3.org/2000/svg">
<g id="#000100fb">
<path fill="#000100" opacity="1.00" d=" M 17.38 21.39 C 26.09 14.27 40.13 14.80 48.06 22.90 C 52.79 27.13 54.79 33.40 55.45 39.54 C 54.46 40.24 53.48 41.05 52.21 41.10 C 47.39 41.69 42.52 41.84 37.70 42.53 C 35.67 44.50 33.08 46.32 30.09 45.47 C 25.21 44.66 23.13 37.95 26.42 34.41 C 28.14 32.21 31.34 31.49 33.91 32.47 C 35.84 33.39 37.52 34.91 39.76 35.05 C 37.86 31.08 34.45 27.58 29.96 26.83 C 24.27 25.28 18.01 28.20 15.11 33.23 C 13.29 36.01 13.69 39.57 12.23 42.48 C 10.76 42.78 9.62 42.33 8.80 41.13 C 8.29 33.71 11.48 26.01 17.38 21.39 M 25.83 19.61 C 18.44 21.40 13.44 27.95 11.40 34.97 C 14.15 28.43 20.84 23.24 28.20 24.26 C 34.87 24.25 40.15 29.40 42.40 35.34 C 45.83 35.52 49.26 35.89 52.68 36.27 C 50.89 24.23 37.46 15.55 25.83 19.61 M 27.43 41.20 C 28.90 42.15 30.43 43.00 32.04 43.72 C 33.49 42.81 35.04 41.93 35.97 40.42 C 41.16 39.68 46.40 39.51 51.60 38.83 C 46.44 38.33 41.28 37.77 36.12 37.22 C 34.77 34.92 32.36 34.01 29.77 34.24 C 27.58 36.01 26.91 38.48 27.43 41.20 Z" />
</g>
<g id="#fefefeff">
<path fill="#fefefe" opacity="1.00" d=" M 25.83 19.61 C 37.46 15.55 50.89 24.23 52.68 36.27 C 49.26 35.89 45.83 35.52 42.40 35.34 C 40.15 29.40 34.87 24.25 28.20 24.26 C 20.84 23.24 14.15 28.43 11.40 34.97 C 13.44 27.95 18.44 21.40 25.83 19.61 Z" />
<path fill="#fefefe" opacity="1.00" d=" M 27.43 41.20 C 26.91 38.48 27.58 36.01 29.77 34.24 C 32.36 34.01 34.77 34.92 36.12 37.22 C 41.28 37.77 46.44 38.33 51.60 38.83 C 46.40 39.51 41.16 39.68 35.97 40.42 C 35.04 41.93 33.49 42.81 32.04 43.72 C 30.43 43.00 28.90 42.15 27.43 41.20 Z" />
</g>
</svg>
