<?xml version="1.0" encoding="UTF-8" ?>
<!DOCTYPE svg PUBLIC "-//W3C//DTD SVG 1.1//EN" "http://www.w3.org/Graphics/SVG/1.1/DTD/svg11.dtd">
<svg width="64pt" height="64pt" viewBox="0 0 64 64" version="1.1" xmlns="http://www.w3.org/2000/svg">
<g id="#2b2b2b30">
<path fill="#2b2b2b" opacity="0.19" d=" M 8.40 22.34 C 19.19 21.96 30.00 22.12 40.80 22.26 C 41.04 22.80 41.51 23.86 41.74 24.40 C 47.56 24.73 53.40 24.40 59.22 24.88 C 59.13 27.79 58.96 30.70 58.73 33.61 C 56.45 33.65 54.18 33.61 51.91 33.73 C 51.60 35.54 51.27 37.36 50.93 39.17 C 44.10 38.86 37.25 39.10 30.42 38.80 C 30.22 38.19 29.82 36.97 29.62 36.36 C 27.02 36.37 24.42 36.38 21.82 36.46 C 20.79 38.80 19.11 40.72 16.77 41.81 C 16.54 42.31 16.08 43.30 15.85 43.79 C 12.18 43.93 8.51 43.95 4.85 43.90 C 4.84 40.98 4.98 38.07 5.22 35.17 C 5.88 34.99 7.21 34.63 7.87 34.45 C 6.98 33.91 6.11 33.35 5.24 32.80 C 5.08 30.57 4.90 28.34 4.74 26.12 C 6.02 24.93 7.27 23.69 8.40 22.34 M 9.37 24.03 C 9.39 24.60 9.45 25.75 9.48 26.32 C 8.83 26.39 7.55 26.54 6.90 26.61 C 6.99 28.33 7.06 30.05 7.11 31.78 C 8.76 31.74 10.42 31.71 12.08 31.70 C 12.08 32.34 12.07 33.63 12.06 34.27 C 11.48 34.29 10.31 34.32 9.72 34.34 C 9.67 36.02 8.82 37.02 7.11 37.11 C 7.08 38.71 7.05 40.31 7.01 41.92 C 9.21 41.94 11.41 41.96 13.60 42.09 C 14.58 41.23 15.55 40.37 16.52 39.50 C 16.65 37.79 17.77 36.62 19.51 36.55 C 19.75 36.18 20.23 35.45 20.47 35.08 C 24.24 34.53 28.08 35.06 31.88 34.87 C 31.98 35.39 32.18 36.44 32.28 36.96 C 38.06 36.84 43.84 37.05 49.62 36.79 C 49.60 35.09 49.58 33.40 49.57 31.70 C 52.03 31.71 54.50 31.73 56.96 31.76 C 56.92 29.98 56.90 28.21 56.87 26.43 C 51.08 26.49 45.30 26.43 39.51 26.45 C 39.53 25.87 39.58 24.70 39.60 24.12 C 29.52 24.01 19.45 24.14 9.37 24.03 Z" />
</g>
<g id="#000000ff">
<path fill="#000000" opacity="1.00" d=" M 9.37 24.03 C 19.45 24.14 29.52 24.01 39.60 24.12 C 39.58 24.70 39.53 25.87 39.51 26.45 C 45.30 26.43 51.08 26.49 56.87 26.43 C 56.90 28.21 56.92 29.98 56.96 31.76 C 54.50 31.73 52.03 31.71 49.57 31.70 C 49.58 33.40 49.60 35.09 49.62 36.79 C 43.84 37.05 38.06 36.84 32.28 36.96 C 32.18 36.44 31.98 35.39 31.88 34.87 L 31.69 34.06 C 27.89 33.80 24.06 33.90 20.25 34.00 C 19.85 34.28 19.05 34.85 18.65 35.13 C 17.04 35.71 15.76 36.84 15.10 38.43 C 14.62 39.66 14.11 40.87 13.60 42.09 C 11.41 41.96 9.21 41.94 7.01 41.92 C 7.05 40.31 7.08 38.71 7.11 37.11 C 8.82 37.02 9.67 36.02 9.72 34.34 C 10.31 34.32 11.48 34.29 12.06 34.27 C 12.07 33.63 12.08 32.34 12.08 31.70 C 10.42 31.71 8.76 31.74 7.11 31.78 C 7.06 30.05 6.99 28.33 6.90 26.61 C 7.55 26.54 8.83 26.39 9.48 26.32 C 9.45 25.75 9.39 24.60 9.37 24.03 Z" />
</g>
<g id="#0a0a0aa2">
<path fill="#0a0a0a" opacity="0.64" d=" M 18.65 35.13 C 19.05 34.85 19.85 34.28 20.25 34.00 C 24.06 33.90 27.89 33.80 31.69 34.06 L 31.88 34.87 C 28.08 35.06 24.24 34.53 20.47 35.08 C 20.23 35.45 19.75 36.18 19.51 36.55 C 17.77 36.62 16.65 37.79 16.52 39.50 C 15.55 40.37 14.58 41.23 13.60 42.09 C 14.11 40.87 14.62 39.66 15.10 38.43 C 15.76 36.84 17.04 35.71 18.65 35.13 Z" />
</g>
</svg>
