<?xml version="1.0" encoding="UTF-8" ?>
<!DOCTYPE svg PUBLIC "-//W3C//DTD SVG 1.1//EN" "http://www.w3.org/Graphics/SVG/1.1/DTD/svg11.dtd">
<svg width="64pt" height="64pt" viewBox="0 0 64 64" version="1.1" xmlns="http://www.w3.org/2000/svg">
<g id="#000300f6">
<path fill="#000300" opacity="0.96" d=" M 18.44 17.99 C 18.76 16.28 19.08 14.20 20.88 13.39 C 22.58 13.41 24.32 13.62 25.93 14.21 C 28.35 16.18 30.24 20.10 33.97 19.09 C 38.89 17.56 44.96 15.93 49.25 19.80 C 52.20 22.02 50.03 25.93 50.03 28.95 C 48.38 33.52 49.12 38.98 45.97 42.93 C 44.05 41.73 42.21 40.27 40.00 39.64 C 36.23 39.28 32.82 41.80 29.04 41.48 C 26.82 41.31 24.85 40.23 22.89 39.27 C 22.72 41.44 22.36 45.79 22.18 47.97 L 24.34 43.16 C 23.99 44.52 23.61 45.87 23.26 47.23 C 22.92 47.40 22.23 47.73 21.89 47.89 C 21.96 46.60 22.03 45.30 22.08 44.01 C 21.82 45.65 21.57 47.29 21.33 48.93 C 20.77 49.39 19.66 50.32 19.10 50.78 C 17.25 50.39 15.37 50.11 13.60 49.44 C 12.77 48.06 13.31 46.45 13.48 44.99 C 15.11 35.98 16.87 27.00 18.44 17.99 M 21.55 15.48 C 19.18 26.24 17.23 37.10 15.46 47.98 C 16.36 48.06 18.15 48.21 19.04 48.28 C 19.86 43.45 20.78 38.64 21.80 33.85 C 22.63 35.03 23.50 36.19 24.35 37.35 C 26.87 38.57 29.72 39.81 32.51 38.68 C 36.64 37.06 42.02 36.27 45.34 39.94 C 46.65 34.16 47.42 28.28 48.72 22.49 C 46.02 19.40 41.47 18.97 37.82 20.47 C 34.79 21.81 31.33 21.97 28.39 20.33 C 27.24 19.15 26.15 17.92 25.25 16.55 C 24.02 16.18 22.78 15.82 21.55 15.48 Z" />
</g>
<g id="#fefefeff">
<path fill="#fefefe" opacity="1.00" d=" M 21.55 15.48 C 22.78 15.82 24.02 16.18 25.25 16.55 C 26.15 17.92 27.24 19.15 28.39 20.33 C 31.33 21.97 34.79 21.81 37.82 20.47 C 41.47 18.97 46.02 19.40 48.72 22.49 C 47.42 28.28 46.65 34.16 45.34 39.94 C 42.02 36.27 36.64 37.06 32.51 38.68 C 29.72 39.81 26.87 38.57 24.35 37.35 C 23.50 36.19 22.63 35.03 21.80 33.85 C 20.78 38.64 19.86 43.45 19.04 48.28 C 18.15 48.21 16.36 48.06 15.46 47.98 C 17.23 37.10 19.18 26.24 21.55 15.48 Z" />
</g>
</svg>
