<?xml version="1.0" encoding="UTF-8" ?>
<!DOCTYPE svg PUBLIC "-//W3C//DTD SVG 1.1//EN" "http://www.w3.org/Graphics/SVG/1.1/DTD/svg11.dtd">
<svg width="64pt" height="64pt" viewBox="0 0 64 64" version="1.1" xmlns="http://www.w3.org/2000/svg">
<g id="#020302ce">
<path fill="#020302" opacity="0.81" d=" M 4.25 8.43 C 7.91 4.86 13.42 6.57 17.99 6.40 C 21.17 8.03 19.00 12.75 19.61 15.61 C 21.38 15.64 23.15 15.68 24.92 15.72 C 24.92 12.86 24.71 9.97 25.18 7.14 C 26.74 5.80 29.12 6.48 31.02 6.24 C 33.59 6.45 36.48 5.73 38.82 7.04 C 39.27 9.91 39.08 12.83 39.07 15.72 C 40.84 15.68 42.62 15.64 44.39 15.61 C 45.02 12.76 42.50 6.69 46.90 6.33 C 51.10 6.69 56.45 4.72 59.49 8.59 C 59.80 24.20 59.79 39.81 59.49 55.41 C 58.35 56.21 57.45 57.72 55.91 57.68 C 51.59 57.80 47.27 57.70 42.95 57.73 C 41.65 57.75 39.56 57.67 39.50 55.92 C 39.02 50.64 39.81 45.31 39.11 40.05 C 38.51 36.02 34.95 33.50 31.77 31.49 C 28.62 33.62 25.27 36.21 24.53 40.18 C 23.83 45.73 24.97 51.40 23.99 56.91 C 23.66 57.08 23.00 57.43 22.66 57.61 C 18.11 57.88 13.53 57.67 8.96 57.72 C 7.07 57.93 5.68 56.55 4.25 55.57 C 4.31 39.86 4.31 24.14 4.25 8.43 M 7.74 8.73 C 7.70 24.24 7.70 39.76 7.74 55.27 C 12.46 55.27 17.19 55.22 21.92 55.34 C 22.15 50.13 21.83 44.90 22.19 39.69 C 22.79 34.62 27.28 31.43 31.21 28.82 C 36.10 30.40 40.19 34.41 41.54 39.39 C 41.89 44.66 41.57 49.96 41.67 55.24 C 46.54 55.32 51.40 55.23 56.27 55.27 C 56.26 39.76 56.26 24.24 56.27 8.73 C 53.10 8.74 49.94 8.74 46.78 8.69 C 46.66 11.78 46.66 14.88 46.67 17.98 C 43.33 17.97 40.00 17.96 36.67 17.96 C 36.72 14.87 36.71 11.79 36.72 8.70 C 33.57 8.75 30.43 8.75 27.28 8.70 C 27.28 11.78 27.28 14.86 27.33 17.93 C 24.00 17.94 20.67 17.97 17.34 18.05 C 17.33 14.93 17.34 11.81 17.23 8.69 C 14.06 8.74 10.90 8.74 7.74 8.73 Z" />
</g>
<g id="#ffffffff">
<path fill="#ffffff" opacity="1.00" d=" M 7.74 8.73 C 10.90 8.74 14.06 8.74 17.23 8.69 C 17.34 11.81 17.33 14.93 17.34 18.05 C 20.67 17.97 24.00 17.94 27.33 17.93 C 27.28 14.86 27.28 11.78 27.28 8.70 C 30.43 8.75 33.57 8.75 36.72 8.70 C 36.71 11.79 36.72 14.87 36.67 17.96 C 40.00 17.96 43.33 17.97 46.67 17.98 C 46.66 14.88 46.66 11.78 46.78 8.69 C 49.94 8.74 53.10 8.74 56.27 8.73 C 56.26 24.24 56.26 39.76 56.27 55.27 C 51.40 55.23 46.54 55.32 41.67 55.24 C 41.57 49.96 41.89 44.66 41.54 39.39 C 40.19 34.41 36.10 30.40 31.21 28.82 C 27.28 31.43 22.79 34.62 22.19 39.69 C 21.83 44.90 22.15 50.13 21.92 55.34 C 17.19 55.22 12.46 55.27 7.74 55.27 C 7.70 39.76 7.70 24.24 7.74 8.73 Z" />
</g>
</svg>
