<?xml version="1.0" encoding="UTF-8" ?>
<!DOCTYPE svg PUBLIC "-//W3C//DTD SVG 1.1//EN" "http://www.w3.org/Graphics/SVG/1.1/DTD/svg11.dtd">
<svg width="64pt" height="64pt" viewBox="0 0 64 64" version="1.1" xmlns="http://www.w3.org/2000/svg">
<g id="#020302ff">
<path fill="#020302" opacity="1.00" d=" M 13.84 9.84 C 19.01 4.58 27.14 4.41 34.05 4.47 C 39.86 4.75 46.71 5.52 50.57 10.39 C 52.72 14.46 54.62 18.69 56.41 22.94 C 56.11 28.72 54.07 34.30 53.69 40.11 C 53.65 43.08 51.17 44.85 48.79 46.08 C 48.03 51.11 45.72 55.87 41.14 58.43 C 40.36 58.32 38.82 58.11 38.04 58.01 C 37.55 58.39 36.57 59.14 36.08 59.52 C 32.59 59.39 28.92 59.92 25.71 58.22 C 25.03 58.21 23.68 58.19 23.00 58.18 C 18.41 55.74 16.37 50.92 15.24 46.12 C 12.93 44.78 10.32 43.09 10.31 40.08 C 9.93 34.28 7.86 28.70 7.60 22.92 C 9.39 18.44 11.30 13.94 13.84 9.84 M 15.94 10.88 C 13.40 14.87 11.86 19.41 9.71 23.62 C 10.72 29.13 12.58 34.57 12.39 40.24 C 13.14 42.49 15.43 43.26 17.29 44.34 C 18.36 48.74 19.60 53.35 23.55 56.08 C 23.71 53.71 24.17 51.14 26.89 50.65 C 27.54 53.26 28.07 55.91 29.06 58.42 C 29.78 56.13 30.11 53.74 30.54 51.39 C 31.50 51.36 32.46 51.35 33.43 51.33 C 33.84 53.70 34.22 56.10 34.94 58.40 C 36.64 55.94 35.17 50.91 39.32 51.04 C 39.84 52.77 40.20 54.55 40.56 56.33 C 44.34 53.42 46.23 49.02 46.64 44.36 C 48.09 43.55 49.55 42.77 51.03 42.02 C 51.68 38.55 51.92 35.02 52.57 31.54 L 52.66 31.53 C 53.19 28.97 53.72 26.40 54.39 23.87 C 52.22 19.59 50.63 15.00 48.10 10.92 C 43.37 7.11 36.87 6.65 31.02 6.65 C 25.82 6.86 20.11 7.50 15.94 10.88 Z" />
<path fill="#020302" opacity="1.00" d=" M 37.24 30.41 C 40.55 28.99 43.85 27.54 47.25 26.32 C 47.99 28.14 48.67 29.99 49.20 31.88 C 48.76 34.29 47.50 36.96 44.74 37.26 C 41.19 37.92 37.96 35.52 36.73 32.30 C 36.85 31.83 37.11 30.88 37.24 30.41 Z" />
<path fill="#020302" opacity="1.00" d=" M 15.63 35.50 C 13.46 32.72 15.12 29.08 16.34 26.26 C 19.84 27.52 23.29 28.98 26.52 30.86 L 26.93 31.36 C 26.13 34.36 23.94 36.45 21.12 37.59 C 19.19 37.34 16.87 37.26 15.63 35.50 Z" />
<path fill="#020302" opacity="1.00" d=" M 30.76 36.61 C 31.40 36.62 32.66 36.64 33.30 36.65 C 35.17 39.55 35.75 42.97 35.89 46.36 C 33.14 46.34 30.38 46.33 27.63 46.30 C 28.04 42.90 28.67 39.42 30.76 36.61 Z" />
</g>
<g id="#f4f4f4ff">
<path fill="#f4f4f4" opacity="1.00" d=" M 15.94 10.88 C 20.11 7.50 25.82 6.86 31.02 6.65 C 36.87 6.65 43.37 7.11 48.10 10.92 C 50.63 15.00 52.22 19.59 54.39 23.87 C 53.72 26.40 53.19 28.97 52.66 31.53 L 52.57 31.54 C 51.73 31.63 50.04 31.80 49.20 31.88 C 48.67 29.99 47.99 28.14 47.25 26.32 C 43.85 27.54 40.55 28.99 37.24 30.41 C 37.11 30.88 36.85 31.83 36.73 32.30 C 35.68 33.83 34.52 35.27 33.30 36.65 C 32.66 36.64 31.40 36.62 30.76 36.61 C 29.43 34.90 28.23 33.10 26.93 31.36 L 26.52 30.86 C 23.29 28.98 19.84 27.52 16.34 26.26 C 15.12 29.08 13.46 32.72 15.63 35.50 C 16.87 37.26 19.19 37.34 21.12 37.59 C 18.47 39.19 15.36 39.60 12.39 40.24 C 12.58 34.57 10.72 29.13 9.71 23.62 C 11.86 19.41 13.40 14.87 15.94 10.88 Z" />
</g>
<g id="#e0e1e0ff">
<path fill="#e0e1e0" opacity="1.00" d=" M 26.93 31.36 C 28.23 33.10 29.43 34.90 30.76 36.61 C 28.67 39.42 28.04 42.90 27.63 46.30 C 30.38 46.33 33.14 46.34 35.89 46.36 C 35.75 42.97 35.17 39.55 33.30 36.65 C 34.52 35.27 35.68 33.83 36.73 32.30 C 37.96 35.52 41.19 37.92 44.74 37.26 C 47.50 36.96 48.76 34.29 49.20 31.88 C 50.04 31.80 51.73 31.63 52.57 31.54 C 51.92 35.02 51.68 38.55 51.03 42.02 C 49.55 42.77 48.09 43.55 46.64 44.36 C 46.23 49.02 44.34 53.42 40.56 56.33 C 40.20 54.55 39.84 52.77 39.32 51.04 C 35.17 50.91 36.64 55.94 34.94 58.40 C 34.22 56.10 33.84 53.70 33.43 51.33 C 32.46 51.35 31.50 51.36 30.54 51.39 C 30.11 53.74 29.78 56.13 29.06 58.42 C 28.07 55.91 27.54 53.26 26.89 50.65 C 24.17 51.14 23.71 53.71 23.55 56.08 C 19.60 53.35 18.36 48.74 17.29 44.34 C 15.43 43.26 13.14 42.49 12.39 40.24 C 15.36 39.60 18.47 39.19 21.12 37.59 C 23.94 36.45 26.13 34.36 26.93 31.36 Z" />
</g>
</svg>
