<?xml version="1.0" encoding="UTF-8" ?>
<!DOCTYPE svg PUBLIC "-//W3C//DTD SVG 1.1//EN" "http://www.w3.org/Graphics/SVG/1.1/DTD/svg11.dtd">
<svg width="64pt" height="64pt" viewBox="0 0 64 64" version="1.1" xmlns="http://www.w3.org/2000/svg">
<g id="#00000085">
<path fill="#000000" opacity="0.52" d=" M 4.99 3.04 C 19.66 3.02 34.33 2.88 48.99 3.06 L 48.97 4.02 C 34.32 3.99 19.68 3.98 5.04 4.02 L 4.99 3.04 Z" />
</g>
<g id="#040404fd">
<path fill="#040404" opacity="1.00" d=" M 3.00 6.99 C 2.82 5.70 3.48 3.89 5.04 4.02 C 19.68 3.98 34.32 3.99 48.97 4.02 C 53.64 4.81 49.47 12.26 51.02 15.00 C 51.20 21.24 50.60 27.53 51.17 33.76 C 54.19 35.27 57.68 36.37 59.72 39.25 C 60.77 44.74 62.12 50.69 60.23 56.11 C 59.72 58.57 57.54 60.96 54.34 59.45 C 47.96 60.24 41.50 60.52 35.20 61.84 C 32.87 59.61 31.04 56.50 32.00 53.03 C 32.87 50.01 36.54 48.18 34.77 44.37 C 32.80 43.01 30.27 42.19 29.02 40.00 C 28.69 39.54 28.03 38.63 27.70 38.17 C 23.17 37.98 18.62 37.79 14.09 38.04 L 14.05 38.92 C 13.83 45.60 14.21 52.30 13.93 58.98 C 11.21 58.98 5.76 58.98 3.03 58.97 C 2.96 41.64 3.00 24.31 3.00 6.99 M 4.98 5.02 L 5.04 5.99 C 4.96 22.98 4.97 39.98 5.03 56.97 C 6.76 56.97 10.21 56.98 11.93 56.99 C 12.18 50.16 11.90 43.31 12.23 36.48 C 16.14 36.27 20.05 35.97 23.98 35.88 C 23.98 33.42 23.98 28.50 23.99 26.04 C 19.98 26.01 15.97 25.99 11.97 25.99 C 12.08 22.68 11.94 19.36 12.04 16.05 C 14.78 16.03 20.26 15.98 23.00 15.96 L 22.98 14.99 C 25.49 14.05 23.16 8.36 23.98 6.01 L 23.99 5.05 C 17.66 4.83 11.32 5.02 4.98 5.02 M 36.03 5.03 C 36.02 7.79 36.00 13.29 35.99 16.04 C 32.32 15.90 28.63 15.96 24.96 16.04 L 24.02 16.01 C 24.48 19.17 22.36 23.63 25.23 25.88 C 27.92 25.91 33.30 25.97 35.99 26.00 C 37.02 28.94 33.29 36.41 37.91 36.10 L 37.67 35.36 C 41.55 35.07 44.51 31.59 48.72 32.94 C 48.24 30.67 47.94 28.38 47.84 26.05 C 45.12 26.04 39.69 26.02 36.98 26.01 C 37.01 22.67 37.02 19.33 37.01 15.98 C 40.98 16.09 44.96 16.08 48.93 15.97 C 49.12 12.65 49.06 9.31 48.98 5.99 L 48.98 5.04 C 44.67 4.84 40.35 5.00 36.03 5.03 M 33.97 39.17 C 35.06 46.41 45.03 40.26 48.10 46.05 C 48.03 47.29 47.93 48.51 47.81 49.74 C 44.43 50.11 40.48 53.74 37.71 50.35 C 33.62 50.71 33.24 56.06 35.19 58.89 C 42.78 58.91 50.32 57.15 57.93 56.90 C 58.12 53.96 58.07 51.01 57.97 48.07 C 58.07 45.52 57.98 42.98 57.70 40.44 C 54.14 37.41 49.90 35.00 45.07 35.07 C 41.49 36.74 37.75 38.04 33.97 39.17 Z" />
</g>
<g id="#534f41ff">
<path fill="#534f41" opacity="1.00" d=" M 4.98 5.02 C 11.32 5.02 17.66 4.83 23.99 5.05 L 23.98 6.01 C 17.99 6.00 12.00 5.99 6.01 6.02 L 5.04 5.99 L 4.98 5.02 Z" />
<path fill="#534f41" opacity="1.00" d=" M 36.03 5.03 C 40.35 5.00 44.67 4.84 48.98 5.04 L 48.98 5.99 L 48.01 6.00 C 45.28 6.02 39.81 6.05 37.07 6.06 C 37.00 9.04 36.93 12.02 37.00 15.01 L 37.01 15.98 C 37.02 19.33 37.01 22.67 36.98 26.01 C 37.04 29.13 36.53 32.38 37.67 35.36 L 37.91 36.10 C 33.29 36.41 37.02 28.94 35.99 26.00 L 36.00 25.01 C 36.03 22.02 36.04 19.03 35.99 16.04 C 36.00 13.29 36.02 7.79 36.03 5.03 Z" />
</g>
<g id="#a8a8a8ff">
<path fill="#a8a8a8" opacity="1.00" d=" M 5.04 5.99 L 6.01 6.02 C 6.08 21.44 5.80 36.87 6.15 52.30 C 12.51 49.41 10.77 42.10 11.04 36.27 C 11.33 36.32 11.93 36.43 12.23 36.48 C 11.90 43.31 12.18 50.16 11.93 56.99 C 10.21 56.98 6.76 56.97 5.03 56.97 C 4.97 39.98 4.96 22.98 5.04 5.99 Z" />
<path fill="#a8a8a8" opacity="1.00" d=" M 48.01 6.00 L 48.98 5.99 C 49.06 9.31 49.12 12.65 48.93 15.97 C 44.96 16.08 40.98 16.09 37.01 15.98 L 37.00 15.01 C 39.73 14.99 45.19 14.96 47.92 14.95 C 48.12 11.97 48.00 8.99 48.01 6.00 Z" />
<path fill="#a8a8a8" opacity="1.00" d=" M 11.02 15.05 C 15.01 14.97 18.99 14.94 22.98 14.99 L 23.00 15.96 C 20.26 15.98 14.78 16.03 12.04 16.05 C 11.94 19.36 12.08 22.68 11.97 25.99 L 11.01 25.95 C 11.01 23.22 11.02 17.78 11.02 15.05 Z" />
<path fill="#a8a8a8" opacity="1.00" d=" M 24.02 16.01 L 24.96 16.04 C 25.49 18.86 23.68 22.85 26.27 24.83 C 29.51 25.00 32.76 25.04 36.00 25.01 L 35.99 26.00 C 33.30 25.97 27.92 25.91 25.23 25.88 C 22.36 23.63 24.48 19.17 24.02 16.01 Z" />
</g>
<g id="#eaeaeaff">
<path fill="#eaeaea" opacity="1.00" d=" M 6.01 6.02 C 12.00 5.99 17.99 6.00 23.98 6.01 C 23.16 8.36 25.49 14.05 22.98 14.99 C 18.99 14.94 15.01 14.97 11.02 15.05 C 11.02 17.78 11.01 23.22 11.01 25.95 L 11.97 25.99 C 15.97 25.99 19.98 26.01 23.99 26.04 C 23.98 28.50 23.98 33.42 23.98 35.88 C 20.05 35.97 16.14 36.27 12.23 36.48 C 11.93 36.43 11.33 36.32 11.04 36.27 C 10.77 42.10 12.51 49.41 6.15 52.30 C 5.80 36.87 6.08 21.44 6.01 6.02 Z" />
<path fill="#eaeaea" opacity="1.00" d=" M 37.07 6.06 C 39.81 6.05 45.28 6.02 48.01 6.00 C 48.00 8.99 48.12 11.97 47.92 14.95 C 45.19 14.96 39.73 14.99 37.00 15.01 C 36.93 12.02 37.00 9.04 37.07 6.06 Z" />
<path fill="#eaeaea" opacity="1.00" d=" M 24.96 16.04 C 28.63 15.96 32.32 15.90 35.99 16.04 C 36.04 19.03 36.03 22.02 36.00 25.01 C 32.76 25.04 29.51 25.00 26.27 24.83 C 23.68 22.85 25.49 18.86 24.96 16.04 Z" />
<path fill="#eaeaea" opacity="1.00" d=" M 36.98 26.01 C 39.69 26.02 45.12 26.04 47.84 26.05 C 47.94 28.38 48.24 30.67 48.72 32.94 C 44.51 31.59 41.55 35.07 37.67 35.36 C 36.53 32.38 37.04 29.13 36.98 26.01 Z" />
</g>
<g id="#f9d95cff">
<path fill="#f9d95c" opacity="1.00" d=" M 33.97 39.17 C 37.75 38.04 41.49 36.74 45.07 35.07 C 49.90 35.00 54.14 37.41 57.70 40.44 C 57.98 42.98 58.07 45.52 57.97 48.07 C 54.48 48.37 51.03 48.01 48.10 46.05 C 45.03 40.26 35.06 46.41 33.97 39.17 Z" />
</g>
<g id="#00000042">
<path fill="#000000" opacity="0.26" d=" M 14.09 38.04 C 18.62 37.79 23.17 37.98 27.70 38.17 C 28.03 38.63 28.69 39.54 29.02 40.00 C 24.07 39.66 18.75 41.03 14.05 38.92 L 14.09 38.04 Z" />
</g>
<g id="#eeba4aff">
<path fill="#eeba4a" opacity="1.00" d=" M 48.10 46.05 C 51.03 48.01 54.48 48.37 57.97 48.07 C 58.07 51.01 58.12 53.96 57.93 56.90 C 50.32 57.15 42.78 58.91 35.19 58.89 C 33.24 56.06 33.62 50.71 37.71 50.35 C 40.48 53.74 44.43 50.11 47.81 49.74 C 47.93 48.51 48.03 47.29 48.10 46.05 Z" />
</g>
</svg>
