<?xml version="1.0" encoding="UTF-8" ?>
<!DOCTYPE svg PUBLIC "-//W3C//DTD SVG 1.1//EN" "http://www.w3.org/Graphics/SVG/1.1/DTD/svg11.dtd">
<svg width="64pt" height="64pt" viewBox="0 0 64 64" version="1.1" xmlns="http://www.w3.org/2000/svg">
<g id="#030303ff">
<path fill="#030303" opacity="1.00" d=" M 5.60 0.00 L 10.57 0.00 C 18.57 5.76 24.47 13.91 32.00 20.21 C 36.05 16.89 39.43 12.87 43.23 9.28 C 46.62 6.10 49.47 2.20 53.66 0.00 L 58.46 0.00 C 60.40 1.77 62.26 3.63 64.00 5.60 L 64.00 10.44 C 61.85 14.63 57.88 17.38 54.73 20.76 C 51.15 24.55 47.12 27.95 43.79 31.98 C 47.09 36.05 51.14 39.44 54.73 43.24 C 57.91 46.62 61.81 49.47 64.00 53.67 L 64.00 58.46 C 62.23 60.40 60.37 62.26 58.40 64.00 L 53.43 64.00 C 45.50 58.12 39.31 50.24 32.04 43.59 C 27.64 48.00 23.12 52.30 18.76 56.75 C 16.14 59.37 13.69 62.29 10.34 64.00 L 5.54 64.00 C 3.60 62.23 1.74 60.37 0.00 58.40 L 0.00 53.42 C 2.73 49.12 6.76 45.94 10.20 42.26 C 13.53 38.76 16.93 35.33 20.37 31.95 C 16.22 27.66 11.96 23.48 7.75 19.25 C 5.00 16.44 1.82 13.91 0.00 10.34 L 0.00 5.54 C 1.77 3.60 3.63 1.74 5.60 0.00 M 5.78 1.71 C 3.47 4.14 -0.70 6.58 1.52 10.48 C 7.61 17.81 14.94 24.06 21.47 31.02 C 25.10 29.00 20.34 26.67 19.02 24.77 C 21.32 22.70 23.17 20.01 26.05 18.68 C 25.94 21.59 23.03 23.04 21.35 25.03 C 22.39 26.07 23.46 27.08 24.50 28.11 C 26.57 25.79 28.91 23.75 30.99 21.44 C 24.03 14.93 17.80 7.60 10.48 1.52 C 9.03 1.07 6.93 0.32 5.78 1.71 M 53.52 1.52 C 50.95 3.23 48.94 5.61 46.75 7.76 C 32.41 22.08 18.10 36.43 3.75 50.74 C 2.92 51.60 2.20 52.55 1.52 53.52 C 1.09 54.97 0.31 57.07 1.72 58.22 C 4.14 60.54 6.60 64.68 10.48 62.48 C 11.85 61.54 13.11 60.46 14.26 59.27 C 29.37 44.05 44.54 28.89 59.75 13.77 C 61.06 12.54 62.04 11.02 63.02 9.53 C 62.80 8.30 63.47 6.65 62.28 5.78 C 59.86 3.47 57.41 -0.70 53.52 1.52 M 38.43 37.62 C 39.25 38.33 40.08 39.01 40.94 39.66 C 41.60 38.40 42.25 37.14 42.95 35.91 C 44.90 38.19 43.16 40.45 41.02 41.12 C 40.17 42.29 39.32 43.46 38.47 44.63 C 38.09 44.09 37.70 43.55 37.32 43.01 C 37.95 42.29 38.58 41.57 39.21 40.85 C 38.84 40.26 38.11 39.07 37.74 38.47 C 36.14 39.77 34.51 41.04 32.96 42.39 C 39.82 49.07 46.20 56.32 53.52 62.48 C 54.97 62.92 57.07 63.69 58.22 62.29 C 60.53 59.85 64.70 57.42 62.48 53.52 C 56.39 46.11 48.89 39.95 42.47 32.81 C 41.49 34.72 40.15 36.33 38.43 37.62 Z" />
<path fill="#030303" opacity="1.00" d=" M 3.74 10.02 C 5.77 7.85 7.88 5.75 10.01 3.69 C 11.34 5.09 12.89 6.35 13.82 8.08 C 14.10 9.81 12.45 10.57 11.22 11.29 C 10.23 12.58 9.16 13.81 7.96 14.91 C 7.70 13.33 8.15 11.92 9.28 10.68 C 8.68 9.97 8.08 9.25 7.48 8.55 C 6.99 9.12 6.02 10.26 5.53 10.83 C 5.08 10.63 4.19 10.22 3.74 10.02 M 8.44 7.87 C 9.54 8.39 10.64 10.23 11.92 8.94 C 12.12 7.61 10.83 6.86 10.21 5.88 C 9.77 6.38 8.89 7.37 8.44 7.87 Z" />
<path fill="#030303" opacity="1.00" d=" M 50.00 8.00 C 51.16 6.24 53.95 4.88 55.51 6.97 C 54.22 7.70 51.80 7.03 51.44 8.96 C 50.61 11.15 53.37 12.43 54.95 13.28 C 55.70 12.31 56.45 11.36 57.19 10.39 C 56.29 10.35 54.48 10.28 53.57 10.25 C 54.48 9.24 55.41 8.26 56.33 7.27 C 57.39 8.30 58.46 9.32 59.54 10.34 C 58.32 11.55 57.31 12.95 56.08 14.15 C 52.60 16.22 48.02 11.46 50.00 8.00 Z" />
<path fill="#030303" opacity="1.00" d=" M 9.69 15.64 C 12.43 14.31 15.13 12.90 17.97 11.78 C 18.31 12.09 18.99 12.71 19.32 13.03 C 18.17 15.93 16.74 18.71 15.31 21.48 C 14.14 20.02 15.12 17.66 13.29 16.66 C 12.04 16.44 10.71 16.54 9.69 15.64 M 14.54 16.48 C 15.81 17.73 17.68 15.43 16.85 14.21 C 15.61 13.44 13.26 15.16 14.54 16.48 Z" />
<path fill="#030303" opacity="1.00" d=" M 45.30 12.24 C 45.61 12.15 46.24 11.98 46.55 11.89 C 48.67 13.70 50.52 15.78 52.52 17.72 C 52.16 18.04 51.45 18.67 51.09 18.98 C 48.91 18.34 46.72 17.74 44.53 17.15 C 45.92 18.56 47.31 19.97 48.71 21.36 C 48.45 21.68 47.92 22.33 47.65 22.65 C 45.54 20.60 43.43 18.53 41.45 16.35 C 41.84 16.07 42.62 15.52 43.01 15.24 C 45.14 15.84 47.27 16.43 49.39 17.05 C 47.96 15.52 46.27 14.14 45.30 12.24 Z" />
<path fill="#030303" opacity="1.00" d=" M 22.38 16.12 C 22.81 16.56 23.23 17.00 23.66 17.45 C 21.55 19.49 19.50 21.59 17.36 23.61 C 16.87 22.92 16.22 22.01 17.24 21.35 C 18.85 19.51 20.67 17.87 22.38 16.12 Z" />
<path fill="#030303" opacity="1.00" d=" M 39.45 18.30 C 41.69 20.23 43.76 22.34 45.82 24.46 C 45.36 24.85 44.91 25.24 44.46 25.63 C 42.49 23.61 40.49 21.62 38.51 19.62 C 38.74 19.29 39.21 18.63 39.45 18.30 Z" />
<path fill="#030303" opacity="1.00" d=" M 32.82 25.81 C 33.92 23.50 36.13 21.53 38.85 22.60 C 37.48 24.22 34.59 24.01 34.50 26.69 C 36.78 26.35 39.22 23.57 41.44 25.46 C 43.26 28.57 39.28 31.73 36.26 30.84 C 36.45 30.48 36.81 29.75 36.99 29.38 C 38.92 29.48 40.44 28.38 40.69 26.39 C 38.76 26.96 36.92 27.80 35.01 28.42 C 34.12 27.69 33.40 26.82 32.82 25.81 Z" />
<path fill="#030303" opacity="1.00" d=" M 26.55 31.92 C 27.65 29.81 30.86 26.76 32.70 29.94 C 31.76 30.09 29.88 30.38 28.94 30.53 C 28.77 31.24 28.63 31.95 28.51 32.67 C 30.75 32.83 32.67 30.00 34.86 31.44 C 37.59 34.43 32.72 38.44 29.64 36.85 C 31.27 35.29 34.47 35.43 34.29 32.48 C 32.50 33.14 30.81 34.06 28.98 34.61 C 27.63 34.37 27.29 32.84 26.55 31.92 Z" />
<path fill="#030303" opacity="1.00" d=" M 23.16 35.18 C 27.04 34.08 31.21 39.87 27.72 42.75 C 25.28 45.45 20.99 42.99 20.28 39.95 C 19.69 37.89 21.29 35.84 23.16 35.18 M 22.44 37.43 C 20.79 39.80 24.28 43.36 26.64 41.70 C 28.74 39.37 24.80 35.40 22.44 37.43 Z" />
<path fill="#030303" opacity="1.00" d=" M 43.10 40.91 C 46.16 38.59 50.78 42.51 48.98 45.87 C 47.88 48.75 43.59 50.46 41.50 47.61 C 39.34 45.55 40.94 42.25 43.10 40.91 M 43.14 46.86 C 45.04 48.52 46.79 45.66 47.94 44.41 C 47.13 43.58 46.65 41.43 45.14 42.10 C 43.17 42.39 41.02 45.48 43.14 46.86 Z" />
<path fill="#030303" opacity="1.00" d=" M 16.21 42.18 C 18.03 41.13 18.88 43.34 19.76 44.44 C 20.90 45.65 23.47 46.35 22.37 48.50 C 20.63 47.26 18.79 45.77 17.09 48.04 C 17.85 49.25 20.07 50.20 18.88 51.87 C 16.26 50.34 14.40 47.87 12.23 45.80 C 13.52 44.56 14.72 43.19 16.21 42.18 M 14.24 45.87 C 15.80 47.85 18.49 46.36 17.83 44.07 C 16.26 43.21 15.37 45.26 14.24 45.87 Z" />
<path fill="#030303" opacity="1.00" d=" M 44.76 50.47 C 47.49 49.24 50.14 47.80 52.93 46.71 C 53.27 47.03 53.94 47.68 54.27 48.00 C 53.18 50.80 51.67 53.40 50.56 56.19 C 52.71 54.35 54.67 52.30 56.68 50.30 C 58.03 52.04 60.73 53.53 60.19 56.11 C 59.47 58.41 56.75 60.51 54.30 59.75 C 52.29 58.43 50.78 56.51 49.04 54.87 C 49.25 54.47 49.65 53.66 49.86 53.25 C 49.13 52.51 48.41 51.76 47.69 51.01 C 47.26 51.23 46.40 51.66 45.98 51.87 C 45.67 51.52 45.06 50.82 44.76 50.47 M 49.55 51.47 C 50.94 52.67 52.49 50.25 51.74 49.03 C 50.50 48.17 48.30 50.28 49.55 51.47 M 52.67 56.90 C 54.87 59.17 57.50 57.74 58.79 55.37 C 58.18 54.41 57.57 53.45 56.95 52.49 C 55.49 53.93 54.06 55.39 52.67 56.90 Z" />
<path fill="#030303" opacity="1.00" d=" M 7.95 49.98 C 9.16 48.42 11.23 48.98 12.87 49.26 C 11.58 50.55 9.41 50.51 8.40 52.10 C 8.78 53.92 10.12 55.46 12.01 55.75 C 13.73 54.90 13.58 52.67 14.48 51.19 C 15.33 52.98 15.75 55.58 13.67 56.72 C 9.96 59.57 4.30 53.14 7.95 49.98 Z" />
</g>
<g id="#ffffffff">
<path fill="#ffffff" opacity="1.00" d=" M 5.78 1.71 C 6.93 0.32 9.03 1.07 10.48 1.52 C 17.80 7.60 24.03 14.93 30.99 21.44 C 28.91 23.75 26.57 25.79 24.50 28.11 C 23.46 27.08 22.39 26.07 21.35 25.03 C 23.03 23.04 25.94 21.59 26.05 18.68 C 23.17 20.01 21.32 22.70 19.02 24.77 C 20.34 26.67 25.10 29.00 21.47 31.02 C 14.94 24.06 7.61 17.81 1.52 10.48 C -0.70 6.58 3.47 4.14 5.78 1.71 M 3.74 10.02 C 4.19 10.22 5.08 10.63 5.53 10.83 C 6.02 10.26 6.99 9.12 7.48 8.55 C 8.08 9.25 8.68 9.97 9.28 10.68 C 8.15 11.92 7.70 13.33 7.96 14.91 C 9.16 13.81 10.23 12.58 11.22 11.29 C 12.45 10.57 14.10 9.81 13.82 8.08 C 12.89 6.35 11.34 5.09 10.01 3.69 C 7.88 5.75 5.77 7.85 3.74 10.02 M 9.69 15.64 C 10.71 16.54 12.04 16.44 13.29 16.66 C 15.12 17.66 14.14 20.02 15.31 21.48 C 16.74 18.71 18.17 15.93 19.32 13.03 C 18.99 12.71 18.31 12.09 17.97 11.78 C 15.13 12.90 12.43 14.31 9.69 15.64 M 22.38 16.12 C 20.67 17.87 18.85 19.51 17.24 21.35 C 16.22 22.01 16.87 22.92 17.36 23.61 C 19.50 21.59 21.55 19.49 23.66 17.45 C 23.23 17.00 22.81 16.56 22.38 16.12 Z" />
<path fill="#ffffff" opacity="1.00" d=" M 53.52 1.52 C 57.41 -0.70 59.86 3.47 62.28 5.78 C 63.47 6.65 62.80 8.30 63.02 9.53 C 62.04 11.02 61.06 12.54 59.75 13.77 C 44.54 28.89 29.37 44.05 14.26 59.27 C 13.11 60.46 11.85 61.54 10.48 62.48 C 6.60 64.68 4.14 60.54 1.72 58.22 C 0.31 57.07 1.09 54.97 1.52 53.52 C 2.20 52.55 2.92 51.60 3.75 50.74 C 18.10 36.43 32.41 22.08 46.75 7.76 C 48.94 5.61 50.95 3.23 53.52 1.52 M 50.00 8.00 C 48.02 11.46 52.60 16.22 56.08 14.15 C 57.31 12.95 58.32 11.55 59.54 10.34 C 58.46 9.32 57.39 8.30 56.33 7.27 C 55.41 8.26 54.48 9.24 53.57 10.25 C 54.48 10.28 56.29 10.35 57.19 10.39 C 56.45 11.36 55.70 12.31 54.95 13.28 C 53.37 12.43 50.61 11.15 51.44 8.96 C 51.80 7.03 54.22 7.70 55.51 6.97 C 53.95 4.88 51.16 6.24 50.00 8.00 M 45.30 12.24 C 46.27 14.14 47.96 15.52 49.39 17.05 C 47.27 16.43 45.14 15.84 43.01 15.24 C 42.62 15.52 41.84 16.07 41.45 16.35 C 43.43 18.53 45.54 20.60 47.65 22.65 C 47.92 22.33 48.45 21.68 48.71 21.36 C 47.31 19.97 45.92 18.56 44.53 17.15 C 46.72 17.74 48.91 18.34 51.09 18.98 C 51.45 18.67 52.16 18.04 52.52 17.72 C 50.52 15.78 48.67 13.70 46.55 11.89 C 46.24 11.98 45.61 12.15 45.30 12.24 M 39.45 18.30 C 39.21 18.63 38.74 19.29 38.51 19.62 C 40.49 21.62 42.49 23.61 44.46 25.63 C 44.91 25.24 45.36 24.85 45.82 24.46 C 43.76 22.34 41.69 20.23 39.45 18.30 M 32.82 25.81 C 33.40 26.82 34.12 27.69 35.01 28.42 C 36.92 27.80 38.76 26.96 40.69 26.39 C 40.44 28.38 38.92 29.48 36.99 29.38 C 36.81 29.75 36.45 30.48 36.26 30.84 C 39.28 31.73 43.26 28.57 41.44 25.46 C 39.22 23.57 36.78 26.35 34.50 26.69 C 34.59 24.01 37.48 24.22 38.85 22.60 C 36.13 21.53 33.92 23.50 32.82 25.81 M 26.55 31.92 C 27.29 32.84 27.63 34.37 28.98 34.61 C 30.81 34.06 32.50 33.14 34.29 32.48 C 34.47 35.43 31.27 35.29 29.64 36.85 C 32.72 38.44 37.59 34.43 34.86 31.44 C 32.67 30.00 30.75 32.83 28.51 32.67 C 28.63 31.95 28.77 31.24 28.94 30.53 C 29.88 30.38 31.76 30.09 32.70 29.94 C 30.86 26.76 27.65 29.81 26.55 31.92 M 23.16 35.18 C 21.29 35.84 19.69 37.89 20.28 39.95 C 20.99 42.99 25.28 45.45 27.72 42.75 C 31.21 39.87 27.04 34.08 23.16 35.18 M 16.21 42.18 C 14.72 43.19 13.52 44.56 12.23 45.80 C 14.40 47.87 16.26 50.34 18.88 51.87 C 20.07 50.20 17.85 49.25 17.09 48.04 C 18.79 45.77 20.63 47.26 22.37 48.50 C 23.47 46.35 20.90 45.65 19.76 44.44 C 18.88 43.34 18.03 41.13 16.21 42.18 M 7.95 49.98 C 4.30 53.14 9.96 59.57 13.67 56.72 C 15.75 55.58 15.33 52.98 14.48 51.19 C 13.58 52.67 13.73 54.90 12.01 55.75 C 10.12 55.46 8.78 53.92 8.40 52.10 C 9.41 50.51 11.58 50.55 12.87 49.26 C 11.23 48.98 9.16 48.42 7.95 49.98 Z" />
<path fill="#ffffff" opacity="1.00" d=" M 8.44 7.87 C 8.89 7.37 9.77 6.38 10.21 5.88 C 10.83 6.86 12.12 7.61 11.92 8.94 C 10.64 10.23 9.54 8.39 8.44 7.87 Z" />
<path fill="#ffffff" opacity="1.00" d=" M 14.54 16.48 C 13.26 15.16 15.61 13.44 16.85 14.21 C 17.68 15.43 15.81 17.73 14.54 16.48 Z" />
<path fill="#ffffff" opacity="1.00" d=" M 38.43 37.62 C 40.15 36.33 41.49 34.72 42.47 32.81 C 48.89 39.95 56.39 46.11 62.48 53.52 C 64.70 57.42 60.53 59.85 58.22 62.29 C 57.07 63.69 54.97 62.92 53.52 62.48 C 46.20 56.32 39.82 49.07 32.96 42.39 C 34.51 41.04 36.14 39.77 37.74 38.47 C 38.11 39.07 38.84 40.26 39.21 40.85 C 38.58 41.57 37.95 42.29 37.32 43.01 C 37.70 43.55 38.09 44.09 38.47 44.63 C 39.32 43.46 40.17 42.29 41.02 41.12 C 43.16 40.45 44.90 38.19 42.95 35.91 C 42.25 37.14 41.60 38.40 40.94 39.66 C 40.08 39.01 39.25 38.33 38.43 37.62 M 43.10 40.91 C 40.94 42.25 39.34 45.55 41.50 47.61 C 43.59 50.46 47.88 48.75 48.98 45.87 C 50.78 42.51 46.16 38.59 43.10 40.91 M 44.76 50.47 C 45.06 50.82 45.67 51.52 45.98 51.87 C 46.40 51.66 47.26 51.23 47.69 51.01 C 48.41 51.76 49.13 52.51 49.86 53.25 C 49.65 53.66 49.25 54.47 49.04 54.87 C 50.78 56.51 52.29 58.43 54.30 59.75 C 56.75 60.51 59.47 58.41 60.19 56.11 C 60.73 53.53 58.03 52.04 56.68 50.30 C 54.67 52.30 52.71 54.35 50.56 56.19 C 51.67 53.40 53.18 50.80 54.27 48.00 C 53.94 47.68 53.27 47.03 52.93 46.71 C 50.14 47.80 47.49 49.24 44.76 50.47 Z" />
<path fill="#ffffff" opacity="1.00" d=" M 22.44 37.43 C 24.80 35.40 28.74 39.37 26.64 41.70 C 24.28 43.36 20.79 39.80 22.44 37.43 Z" />
<path fill="#ffffff" opacity="1.00" d=" M 43.14 46.86 C 41.02 45.48 43.17 42.39 45.14 42.10 C 46.65 41.43 47.13 43.58 47.94 44.41 C 46.79 45.66 45.04 48.52 43.14 46.86 Z" />
<path fill="#ffffff" opacity="1.00" d=" M 14.24 45.87 C 15.37 45.26 16.26 43.21 17.83 44.07 C 18.49 46.36 15.80 47.85 14.24 45.87 Z" />
<path fill="#ffffff" opacity="1.00" d=" M 49.55 51.47 C 48.30 50.28 50.50 48.17 51.74 49.03 C 52.49 50.25 50.94 52.67 49.55 51.47 Z" />
<path fill="#ffffff" opacity="1.00" d=" M 52.67 56.90 C 54.06 55.39 55.49 53.93 56.95 52.49 C 57.57 53.45 58.18 54.41 58.79 55.37 C 57.50 57.74 54.87 59.17 52.67 56.90 Z" />
</g>
</svg>
