<?xml version="1.0" encoding="UTF-8" ?>
<!DOCTYPE svg PUBLIC "-//W3C//DTD SVG 1.1//EN" "http://www.w3.org/Graphics/SVG/1.1/DTD/svg11.dtd">
<svg width="64pt" height="64pt" viewBox="0 0 64 64" version="1.1" xmlns="http://www.w3.org/2000/svg">
<g id="#040404f5">
<path fill="#040404" opacity="0.96" d=" M 2.34 10.39 C 17.90 10.06 33.46 10.37 49.02 10.23 C 50.41 10.28 52.87 9.92 52.90 11.99 C 53.29 20.88 52.96 29.80 53.02 38.70 C 55.82 38.71 58.62 38.72 61.42 38.69 C 61.99 40.94 62.50 43.37 61.49 45.59 C 59.04 46.95 55.96 46.07 53.26 46.21 C 52.98 47.90 53.08 49.73 52.20 51.26 C 50.00 51.66 47.75 51.49 45.53 51.48 C 45.27 49.73 44.98 47.99 44.71 46.25 C 41.22 46.30 37.73 46.28 34.24 46.33 C 33.31 50.01 30.02 53.37 25.93 52.45 C 22.49 52.14 20.79 48.98 19.92 46.03 C 19.06 49.29 16.76 52.54 13.03 52.54 C 9.20 52.96 6.49 49.71 5.54 46.35 C 3.81 45.92 1.63 45.39 1.99 43.08 C 2.08 32.19 1.49 21.25 2.34 10.39 M 4.44 33.58 C 19.81 33.61 35.19 33.61 50.56 33.58 C 50.81 26.60 50.63 19.61 50.66 12.62 C 35.20 12.86 19.73 12.67 4.26 12.72 C 4.38 19.67 4.12 26.63 4.44 33.58 M 4.26 35.66 C 4.28 38.47 4.29 41.27 4.46 44.08 C 5.87 43.63 6.75 42.51 7.34 41.20 C 9.22 39.71 11.55 38.14 14.06 38.98 C 17.06 39.26 18.60 42.06 20.02 44.34 C 21.21 41.59 23.40 39.09 26.53 38.67 C 29.91 38.54 32.85 40.85 34.01 43.96 C 38.43 43.93 42.85 43.93 47.28 43.94 C 47.28 45.71 47.30 47.48 47.32 49.26 C 48.43 49.32 49.54 49.37 50.65 49.39 C 50.67 47.61 50.68 45.83 50.68 44.05 C 53.67 44.05 56.67 44.04 59.66 44.03 C 59.66 43.26 59.66 41.72 59.66 40.94 C 56.66 40.96 53.66 40.95 50.66 40.92 C 50.67 39.17 50.68 37.41 50.70 35.66 C 35.22 35.74 19.74 35.74 4.26 35.66 M 7.89 43.78 C 7.83 46.52 8.43 50.08 11.83 50.35 C 16.63 51.57 19.76 43.97 15.27 41.71 C 12.64 39.59 9.68 41.67 7.89 43.78 M 23.07 43.29 C 21.42 45.06 22.71 47.47 23.60 49.27 C 24.10 49.54 25.08 50.08 25.57 50.35 C 26.41 50.35 28.10 50.36 28.94 50.37 C 31.37 48.50 32.72 45.62 31.23 42.69 C 28.93 40.53 24.66 40.08 23.07 43.29 Z" />
</g>
<g id="#ffffffff">
<path fill="#ffffff" opacity="1.00" d=" M 4.44 33.58 C 4.12 26.63 4.38 19.67 4.26 12.72 C 19.73 12.67 35.20 12.86 50.66 12.62 C 50.63 19.61 50.81 26.60 50.56 33.58 C 35.19 33.61 19.81 33.61 4.44 33.58 Z" />
<path fill="#ffffff" opacity="1.00" d=" M 4.26 35.66 C 19.74 35.74 35.22 35.74 50.70 35.66 C 50.68 37.41 50.67 39.17 50.66 40.92 C 53.66 40.95 56.66 40.96 59.66 40.94 C 59.66 41.72 59.66 43.26 59.66 44.03 C 56.67 44.04 53.67 44.05 50.68 44.05 C 50.68 45.83 50.67 47.61 50.65 49.39 C 49.54 49.37 48.43 49.32 47.32 49.26 C 47.30 47.48 47.28 45.71 47.28 43.94 C 42.85 43.93 38.43 43.93 34.01 43.96 C 32.85 40.85 29.91 38.54 26.53 38.67 C 23.40 39.09 21.21 41.59 20.02 44.34 C 18.60 42.06 17.06 39.26 14.06 38.98 C 11.55 38.14 9.22 39.71 7.34 41.20 C 6.75 42.51 5.87 43.63 4.46 44.08 C 4.29 41.27 4.28 38.47 4.26 35.66 Z" />
<path fill="#ffffff" opacity="1.00" d=" M 7.89 43.78 C 9.68 41.67 12.64 39.59 15.27 41.71 C 19.76 43.97 16.63 51.57 11.83 50.35 C 8.43 50.08 7.83 46.52 7.89 43.78 Z" />
<path fill="#ffffff" opacity="1.00" d=" M 23.07 43.29 C 24.66 40.08 28.93 40.53 31.23 42.69 C 32.72 45.62 31.37 48.50 28.94 50.37 C 28.10 50.36 26.41 50.35 25.57 50.35 C 25.08 50.08 24.10 49.54 23.60 49.27 C 22.71 47.47 21.42 45.06 23.07 43.29 Z" />
</g>
</svg>
