<?xml version="1.0" encoding="UTF-8" ?>
<!DOCTYPE svg PUBLIC "-//W3C//DTD SVG 1.1//EN" "http://www.w3.org/Graphics/SVG/1.1/DTD/svg11.dtd">
<svg width="64pt" height="64pt" viewBox="0 0 64 64" version="1.1" xmlns="http://www.w3.org/2000/svg">
<g id="#080708f2">
<path fill="#080708" opacity="0.95" d=" M 23.02 12.15 C 25.42 8.96 28.56 6.43 31.28 3.53 C 35.08 5.67 38.34 8.74 41.00 12.17 C 41.64 15.64 41.25 19.21 41.28 22.71 C 44.83 22.77 48.44 22.34 51.93 23.04 C 54.71 25.11 56.91 27.84 59.41 30.22 C 59.47 30.97 59.58 32.48 59.63 33.23 C 57.04 35.82 54.83 38.83 51.85 41.00 C 48.39 41.64 44.84 41.23 41.35 41.23 C 41.23 44.75 41.62 48.33 41.00 51.82 C 38.60 55.02 35.43 57.54 32.72 60.46 C 28.93 58.31 25.69 55.25 23.01 51.84 C 22.36 48.37 22.76 44.80 22.72 41.29 C 19.21 41.25 15.66 41.63 12.19 41.01 C 9.36 38.95 7.14 36.18 4.60 33.79 C 4.54 33.04 4.41 31.53 4.35 30.77 C 6.95 28.18 9.16 25.15 12.17 23.00 C 15.64 22.37 19.19 22.75 22.70 22.70 C 22.76 19.19 22.35 15.62 23.02 12.15 M 24.96 13.17 C 24.95 16.76 24.95 20.35 25.06 23.94 C 27.34 22.92 29.64 21.47 32.24 21.64 C 34.67 21.64 36.79 22.97 38.94 23.95 C 39.05 20.35 39.05 16.76 39.04 13.16 C 36.68 10.86 34.34 8.52 31.96 6.23 C 29.58 8.51 27.30 10.87 24.96 13.17 M 29.47 24.44 C 26.73 25.51 24.38 28.05 24.08 31.05 C 23.38 35.78 27.97 40.49 32.71 39.93 C 36.98 39.60 40.51 35.20 39.91 30.96 C 39.21 26.33 34.06 22.65 29.47 24.44 M 13.18 24.96 C 10.89 27.34 8.58 29.68 6.30 32.07 C 8.55 34.37 10.86 36.61 13.12 38.91 C 16.75 38.92 20.38 38.93 24.01 38.85 C 21.48 35.33 20.90 30.85 22.81 26.89 C 23.26 26.50 24.16 25.71 24.61 25.31 C 20.81 24.89 16.99 24.93 13.18 24.96 M 39.64 24.94 C 42.18 28.07 43.11 32.24 41.69 36.08 C 40.93 37.05 40.19 38.03 39.44 39.01 C 43.24 39.05 47.03 39.05 50.83 39.03 C 53.31 36.42 56.28 34.15 57.85 30.81 L 57.05 31.26 C 54.99 29.14 52.87 27.08 50.80 24.96 C 47.08 24.96 43.36 24.97 39.64 24.94 M 24.95 39.67 C 24.97 43.40 24.94 47.13 25.01 50.86 C 27.36 53.13 29.71 55.42 32.04 57.73 C 34.37 55.45 36.66 53.14 38.98 50.85 C 39.05 47.11 39.03 43.38 39.06 39.64 C 35.03 43.15 28.99 43.13 24.95 39.67 Z" />
</g>
<g id="#e9e9e9ff">
<path fill="#e9e9e9" opacity="1.00" d=" M 24.96 13.17 C 27.30 10.87 29.58 8.51 31.96 6.23 C 34.34 8.52 36.68 10.86 39.04 13.16 C 39.05 16.76 39.05 20.35 38.94 23.95 C 36.79 22.97 34.67 21.64 32.24 21.64 C 29.64 21.47 27.34 22.92 25.06 23.94 C 24.95 20.35 24.95 16.76 24.96 13.17 Z" />
<path fill="#e9e9e9" opacity="1.00" d=" M 13.18 24.96 C 16.99 24.93 20.81 24.89 24.61 25.31 C 24.16 25.71 23.26 26.50 22.81 26.89 C 20.90 30.85 21.48 35.33 24.01 38.85 C 20.38 38.93 16.75 38.92 13.12 38.91 C 10.86 36.61 8.55 34.37 6.30 32.07 C 8.58 29.68 10.89 27.34 13.18 24.96 Z" />
<path fill="#e9e9e9" opacity="1.00" d=" M 39.64 24.94 C 43.36 24.97 47.08 24.96 50.80 24.96 C 52.87 27.08 54.99 29.14 57.05 31.26 C 52.51 34.43 47.28 36.30 41.69 36.08 C 43.11 32.24 42.18 28.07 39.64 24.94 Z" />
</g>
<g id="#cdcecdff">
<path fill="#cdcecd" opacity="1.00" d=" M 57.05 31.26 L 57.85 30.81 C 56.28 34.15 53.31 36.42 50.83 39.03 C 47.03 39.05 43.24 39.05 39.44 39.01 C 40.19 38.03 40.93 37.05 41.69 36.08 C 47.28 36.30 52.51 34.43 57.05 31.26 Z" />
<path fill="#cdcecd" opacity="1.00" d=" M 24.95 39.67 C 28.99 43.13 35.03 43.15 39.06 39.64 C 39.03 43.38 39.05 47.11 38.98 50.85 C 36.66 53.14 34.37 55.45 32.04 57.73 C 29.71 55.42 27.36 53.13 25.01 50.86 C 24.94 47.13 24.97 43.40 24.95 39.67 Z" />
</g>
</svg>
