<?xml version="1.0" encoding="UTF-8" ?>
<!DOCTYPE svg PUBLIC "-//W3C//DTD SVG 1.1//EN" "http://www.w3.org/Graphics/SVG/1.1/DTD/svg11.dtd">
<svg width="64pt" height="64pt" viewBox="0 0 64 64" version="1.1" xmlns="http://www.w3.org/2000/svg">
<g id="#060606fb">
<path fill="#060606" opacity="1.00" d=" M 15.34 11.29 C 23.98 10.52 32.66 14.14 39.22 19.66 C 48.12 27.02 53.21 38.58 52.95 50.09 C 49.83 49.49 46.03 51.61 43.41 49.77 C 43.70 39.61 38.16 29.66 29.38 24.55 C 25.05 21.72 19.83 21.10 14.86 20.21 C 15.08 17.26 14.35 14.10 15.34 11.29 M 17.01 13.24 C 16.99 14.90 16.97 16.55 16.95 18.20 C 23.01 19.22 29.28 20.79 34.02 24.92 C 41.30 30.47 45.47 39.42 45.64 48.51 C 47.34 48.50 49.03 48.50 50.72 48.50 C 50.49 30.51 35.29 13.75 17.01 13.24 Z" />
<path fill="#060606" opacity="1.00" d=" M 15.18 24.11 C 29.05 22.92 41.55 36.42 40.16 50.16 C 37.50 50.97 34.77 51.51 32.00 51.64 C 29.59 48.51 30.26 44.18 28.01 40.96 C 25.80 36.89 21.49 34.07 16.81 34.06 C 16.35 33.80 15.43 33.28 14.97 33.02 C 14.94 30.05 14.57 27.04 15.18 24.11 M 17.05 26.19 C 17.00 27.86 16.96 29.52 16.92 31.18 C 20.50 32.21 24.26 33.27 27.05 35.88 C 30.58 39.09 32.23 43.84 32.73 48.48 C 34.51 48.48 36.30 48.48 38.09 48.47 C 37.99 37.17 28.40 26.81 17.05 26.19 Z" />
<path fill="#060606" opacity="1.00" d=" M 11.64 48.33 C 9.28 43.44 13.66 37.17 19.08 37.88 C 22.29 37.85 24.48 40.44 26.46 42.59 C 26.04 45.45 26.36 48.89 23.85 50.92 C 20.30 54.55 13.37 53.16 11.64 48.33 M 13.86 43.10 C 11.64 46.74 15.70 51.74 19.73 50.62 C 22.52 49.71 24.99 46.53 23.65 43.54 C 23.02 41.21 20.49 40.69 18.62 39.74 C 16.78 40.43 14.89 41.31 13.86 43.10 Z" />
</g>
<g id="#fcfcfcff">
<path fill="#fcfcfc" opacity="1.00" d=" M 17.01 13.24 C 35.29 13.75 50.49 30.51 50.72 48.50 C 49.03 48.50 47.34 48.50 45.64 48.51 C 45.47 39.42 41.30 30.47 34.02 24.92 C 29.28 20.79 23.01 19.22 16.95 18.20 C 16.97 16.55 16.99 14.90 17.01 13.24 Z" />
<path fill="#fcfcfc" opacity="1.00" d=" M 17.05 26.19 C 28.40 26.81 37.99 37.17 38.09 48.47 C 36.30 48.48 34.51 48.48 32.73 48.48 C 32.23 43.84 30.58 39.09 27.05 35.88 C 24.26 33.27 20.50 32.21 16.92 31.18 C 16.96 29.52 17.00 27.86 17.05 26.19 Z" />
<path fill="#fcfcfc" opacity="1.00" d=" M 13.86 43.10 C 14.89 41.31 16.78 40.43 18.62 39.74 C 20.49 40.69 23.02 41.21 23.65 43.54 C 24.99 46.53 22.52 49.71 19.73 50.62 C 15.70 51.74 11.64 46.74 13.86 43.10 Z" />
</g>
<g id="#0001008b">
<path fill="#000100" opacity="0.55" d=" M 43.48 51.60 C 46.25 50.74 49.14 50.61 52.01 50.92 L 52.00 51.72 C 49.16 51.83 46.31 51.96 43.48 51.60 Z" />
</g>
</svg>
