<?xml version="1.0" encoding="UTF-8" ?>
<!DOCTYPE svg PUBLIC "-//W3C//DTD SVG 1.1//EN" "http://www.w3.org/Graphics/SVG/1.1/DTD/svg11.dtd">
<svg width="64pt" height="64pt" viewBox="0 0 64 64" version="1.1" xmlns="http://www.w3.org/2000/svg">
<g id="#f3f3f3ff">
<path fill="#f3f3f3" opacity="1.00" d=" M 35.30 16.10 C 39.51 11.54 42.96 6.01 48.06 2.44 C 53.48 2.08 58.16 6.32 60.33 11.00 C 60.23 13.53 59.34 15.92 57.82 17.93 C 53.98 21.89 50.70 26.35 46.83 30.29 C 45.88 31.18 44.89 32.03 43.91 32.89 C 45.02 33.75 46.14 34.61 47.33 35.38 C 47.79 35.60 48.72 36.06 49.19 36.28 C 50.87 37.12 52.80 37.46 54.64 36.98 L 55.64 36.80 C 59.43 38.40 62.71 41.79 62.98 46.06 C 63.27 49.07 63.37 54.48 58.91 53.75 C 57.15 52.02 55.25 50.43 53.45 48.73 C 53.06 49.04 52.27 49.65 51.88 49.96 C 50.88 50.82 48.16 52.54 49.81 53.88 C 52.03 55.43 54.11 57.21 55.66 59.45 C 53.61 61.15 51.23 62.39 48.68 63.16 L 48.09 63.36 L 47.34 63.06 C 45.14 62.16 42.94 61.25 40.82 60.18 C 39.06 58.39 37.26 56.19 37.13 53.58 C 37.04 52.05 37.29 50.33 36.37 49.00 L 35.98 48.47 C 34.59 46.55 32.81 44.95 30.90 43.56 C 30.76 43.45 30.49 43.25 30.35 43.14 C 29.22 44.47 27.99 45.73 27.02 47.19 C 25.94 49.01 26.06 51.56 24.28 52.94 C 22.52 54.34 20.76 55.73 19.08 57.22 C 18.90 57.37 18.53 57.68 18.34 57.83 C 16.23 59.53 13.90 61.04 11.20 61.59 C 8.76 59.87 4.61 57.64 6.14 54.02 C 8.43 50.04 11.02 46.23 13.37 42.28 L 13.95 42.16 C 15.71 41.80 17.60 41.36 18.89 40.02 C 19.19 39.75 19.79 39.22 20.09 38.96 C 21.78 37.95 24.15 35.08 21.08 34.19 C 20.80 33.87 20.25 33.24 19.97 32.92 C 19.13 31.70 17.79 30.85 16.27 30.90 L 15.40 30.81 C 12.58 30.46 9.77 29.98 7.07 29.08 C 3.08 26.80 1.13 21.86 1.83 17.41 C 2.17 16.27 2.65 15.20 3.29 14.20 C 4.47 13.68 5.71 13.53 7.01 13.76 C 7.67 14.53 8.24 15.35 8.72 16.25 C 9.38 17.66 10.29 19.27 12.03 19.46 C 12.27 19.07 12.77 18.31 13.01 17.92 C 13.80 16.56 14.77 15.32 15.70 14.06 L 15.43 13.77 C 13.56 11.81 11.65 9.89 9.71 8.01 C 9.97 7.38 10.50 6.12 10.77 5.49 C 11.24 5.35 12.17 5.08 12.64 4.94 C 15.49 4.60 18.37 4.56 21.23 4.75 C 24.50 6.32 27.11 9.31 27.73 12.94 C 28.23 15.75 29.23 18.43 30.97 20.72 L 31.30 21.30 C 32.65 19.57 33.98 17.84 35.30 16.10 M 33.78 21.19 C 34.45 21.98 35.13 22.77 35.81 23.56 C 35.74 24.00 35.59 24.89 35.52 25.33 C 30.21 30.49 25.69 36.39 20.48 41.65 C 18.97 42.94 16.89 43.21 15.08 43.93 C 13.11 48.10 9.86 51.57 8.19 55.88 C 9.28 57.51 10.98 58.53 12.76 59.24 C 16.16 56.29 19.83 53.67 23.13 50.63 C 23.91 49.15 24.25 47.49 24.75 45.90 C 29.89 40.06 34.72 33.93 40.31 28.50 C 41.83 28.97 43.78 31.04 44.92 28.88 C 49.49 23.55 54.29 18.38 58.54 12.78 C 56.77 8.73 53.26 5.85 49.16 4.36 C 43.50 9.45 39.25 15.89 33.78 21.19 M 12.27 7.34 C 14.10 9.62 17.05 11.27 18.09 14.04 C 17.28 17.17 14.44 20.55 11.10 20.90 C 8.85 19.29 6.92 17.28 4.66 15.68 C 2.94 20.23 5.04 25.48 9.38 27.62 C 12.63 28.73 16.31 28.10 19.41 29.73 C 21.18 30.95 22.70 32.49 24.26 33.97 C 26.97 31.04 29.68 28.09 32.20 25.00 C 29.65 22.46 26.49 19.93 26.03 16.10 C 25.49 12.89 24.52 9.23 21.38 7.61 C 18.62 5.82 15.23 6.52 12.27 7.34 M 32.02 41.22 C 34.05 43.21 36.06 45.21 38.25 47.03 C 38.68 50.86 39.04 55.18 42.11 57.93 C 44.62 60.93 48.96 60.99 52.46 60.04 C 51.73 57.34 48.52 56.24 46.47 54.61 C 46.64 50.49 50.61 48.14 53.38 45.66 C 55.70 47.58 57.91 49.65 60.49 51.24 C 61.00 47.70 60.89 43.55 57.90 41.06 C 55.47 38.55 51.80 38.55 48.56 38.24 C 44.72 37.99 42.88 34.16 40.00 32.16 C 37.19 35.04 34.62 38.14 32.02 41.22 Z" />
</g>
<g id="#919191db">
<path fill="#919191" opacity="0.86" d=" M 12.64 4.94 C 15.31 3.44 18.45 3.76 21.23 4.75 C 18.37 4.56 15.49 4.60 12.64 4.94 Z" />
<path fill="#919191" opacity="0.86" d=" M 30.97 20.72 C 32.17 18.96 33.73 17.52 35.30 16.10 C 33.98 17.84 32.65 19.57 31.30 21.30 L 30.97 20.72 Z" />
<path fill="#919191" opacity="0.86" d=" M 49.19 36.28 C 50.60 35.47 54.26 35.05 54.64 36.98 C 52.80 37.46 50.87 37.12 49.19 36.28 Z" />
<path fill="#919191" opacity="0.86" d=" M 48.68 63.16 C 51.23 62.39 53.61 61.15 55.66 59.45 L 55.92 59.25 C 54.68 62.22 51.60 62.93 48.68 63.16 Z" />
<path fill="#919191" opacity="0.86" d=" M 40.82 60.18 C 42.94 61.25 45.14 62.16 47.34 63.06 C 44.86 62.95 42.67 61.75 40.82 60.18 Z" />
</g>
<g id="#010101ff">
<path fill="#010101" opacity="1.00" d=" M 33.78 21.19 C 39.25 15.89 43.50 9.45 49.16 4.36 C 53.26 5.85 56.77 8.73 58.54 12.78 C 54.29 18.38 49.49 23.55 44.92 28.88 C 43.78 31.04 41.83 28.97 40.31 28.50 C 34.72 33.93 29.89 40.06 24.75 45.90 C 24.25 47.49 23.91 49.15 23.13 50.63 C 19.83 53.67 16.16 56.29 12.76 59.24 C 10.98 58.53 9.28 57.51 8.19 55.88 C 9.86 51.57 13.11 48.10 15.08 43.93 C 16.89 43.21 18.97 42.94 20.48 41.65 C 25.69 36.39 30.21 30.49 35.52 25.33 C 35.59 24.89 35.74 24.00 35.81 23.56 C 35.13 22.77 34.45 21.98 33.78 21.19 Z" />
<path fill="#010101" opacity="1.00" d=" M 12.27 7.34 C 15.23 6.52 18.62 5.82 21.38 7.61 C 24.52 9.23 25.49 12.89 26.03 16.10 C 26.49 19.93 29.65 22.46 32.20 25.00 C 29.68 28.09 26.97 31.04 24.26 33.97 C 22.70 32.49 21.18 30.95 19.41 29.73 C 16.31 28.10 12.63 28.73 9.38 27.62 C 5.04 25.48 2.94 20.23 4.66 15.68 C 6.92 17.28 8.85 19.29 11.10 20.90 C 14.44 20.55 17.28 17.17 18.09 14.04 C 17.05 11.27 14.10 9.62 12.27 7.34 Z" />
<path fill="#010101" opacity="1.00" d=" M 32.02 41.22 C 34.62 38.14 37.19 35.04 40.00 32.16 C 42.88 34.16 44.72 37.99 48.56 38.24 C 51.80 38.55 55.47 38.55 57.90 41.06 C 60.89 43.55 61.00 47.70 60.49 51.24 C 57.91 49.65 55.70 47.58 53.38 45.66 C 50.61 48.14 46.64 50.49 46.47 54.61 C 48.52 56.24 51.73 57.34 52.46 60.04 C 48.96 60.99 44.62 60.93 42.11 57.93 C 39.04 55.18 38.68 50.86 38.25 47.03 C 36.06 45.21 34.05 43.21 32.02 41.22 Z" />
</g>
<g id="#3232325d">
<path fill="#323232" opacity="0.36" d=" M 9.71 8.01 C 11.65 9.89 13.56 11.81 15.43 13.77 C 14.29 14.51 13.16 15.24 12.03 15.98 C 12.16 14.66 12.29 13.34 12.41 12.02 C 11.35 10.79 10.38 9.49 9.71 8.01 Z" />
<path fill="#323232" opacity="0.36" d=" M 43.91 32.89 C 44.89 32.03 45.88 31.18 46.83 30.29 C 47.02 31.98 47.29 33.66 47.33 35.38 C 46.14 34.61 45.02 33.75 43.91 32.89 Z" />
<path fill="#323232" opacity="0.36" d=" M 49.81 53.88 C 48.16 52.54 50.88 50.82 51.88 49.96 C 52.65 51.38 51.36 53.60 49.81 53.88 Z" />
<path fill="#323232" opacity="0.36" d=" M 11.20 61.59 C 13.90 61.04 16.23 59.53 18.34 57.83 C 16.58 59.90 14.20 62.33 11.20 61.59 Z" />
</g>
<g id="#666666a6">
<path fill="#666666" opacity="0.65" d=" M 60.33 11.00 C 60.60 11.55 61.13 12.65 61.40 13.20 C 60.37 14.90 59.20 16.50 57.82 17.93 C 59.34 15.92 60.23 13.53 60.33 11.00 Z" />
<path fill="#666666" opacity="0.65" d=" M 1.83 17.41 C 2.35 16.14 2.10 14.37 3.28 13.44 C 4.47 12.31 5.80 13.27 7.01 13.76 C 5.71 13.53 4.47 13.68 3.29 14.20 C 2.65 15.20 2.17 16.27 1.83 17.41 Z" />
<path fill="#666666" opacity="0.65" d=" M 7.07 29.08 C 9.77 29.98 12.58 30.46 15.40 30.81 C 13.76 30.97 12.12 31.12 10.48 31.25 C 9.35 30.52 8.21 29.81 7.07 29.08 Z" />
<path fill="#666666" opacity="0.65" d=" M 16.27 30.90 C 17.79 30.85 19.13 31.70 19.97 32.92 C 18.73 33.84 15.85 32.54 16.27 30.90 Z" />
<path fill="#666666" opacity="0.65" d=" M 21.08 34.19 C 24.15 35.08 21.78 37.95 20.09 38.96 C 20.04 37.39 20.36 35.59 21.08 34.19 Z" />
<path fill="#666666" opacity="0.65" d=" M 13.95 42.16 C 13.85 40.23 17.34 39.26 18.89 40.02 C 17.60 41.36 15.71 41.80 13.95 42.16 Z" />
<path fill="#666666" opacity="0.65" d=" M 30.90 43.56 C 32.81 44.95 34.59 46.55 35.98 48.47 C 34.12 47.02 32.40 45.39 30.90 43.56 Z" />
<path fill="#666666" opacity="0.65" d=" M 36.37 49.00 C 37.29 50.33 37.04 52.05 37.13 53.58 C 35.22 53.46 35.20 50.09 36.37 49.00 Z" />
<path fill="#666666" opacity="0.65" d=" M 19.08 57.22 C 20.76 55.73 22.52 54.34 24.28 52.94 C 22.72 54.57 20.94 55.95 19.08 57.22 Z" />
</g>
<g id="#adadadf9">
<path fill="#adadad" opacity="0.98" d=" M 8.72 16.25 C 10.15 16.01 11.75 17.39 13.01 17.92 C 12.77 18.31 12.27 19.07 12.03 19.46 C 10.29 19.27 9.38 17.66 8.72 16.25 Z" />
</g>
</svg>
