<?xml version="1.0" encoding="UTF-8" ?>
<!DOCTYPE svg PUBLIC "-//W3C//DTD SVG 1.1//EN" "http://www.w3.org/Graphics/SVG/1.1/DTD/svg11.dtd">
<svg width="64pt" height="64pt" viewBox="0 0 64 64" version="1.1" xmlns="http://www.w3.org/2000/svg">
<g id="#030400ff">
<path fill="#030400" opacity="1.00" d=" M 29.42 5.58 C 31.47 4.06 34.54 4.09 36.51 5.73 C 40.85 8.72 45.00 12.01 49.54 14.72 L 49.71 15.48 C 49.96 16.61 50.69 17.18 51.92 17.20 C 52.59 17.49 53.93 18.09 54.61 18.38 C 54.65 18.41 54.73 18.47 54.78 18.49 C 59.49 20.74 59.54 26.58 58.26 30.93 C 57.27 32.67 55.41 33.50 53.63 34.19 C 53.40 40.75 53.76 47.32 53.49 53.88 C 53.45 56.69 50.97 59.67 47.98 59.27 C 37.63 59.31 27.27 59.30 16.93 59.28 C 13.98 59.59 11.36 56.99 11.32 54.10 C 11.16 47.59 11.33 41.08 11.24 34.57 C 9.04 33.67 6.32 32.60 5.66 30.04 C 5.37 27.68 5.61 25.29 5.55 22.91 C 7.54 19.75 11.15 18.33 14.03 16.15 C 19.01 12.41 24.26 9.06 29.42 5.58 M 29.87 8.07 C 22.99 12.77 16.19 17.59 9.25 22.21 C 6.94 23.62 7.80 26.78 7.81 29.02 C 8.39 31.79 11.35 31.87 13.61 31.79 C 13.62 34.46 13.63 37.12 13.61 39.79 C 13.56 44.83 13.64 49.87 13.60 54.92 C 14.62 55.70 15.45 57.25 16.98 56.92 C 27.35 56.90 37.72 57.00 48.09 56.87 C 50.20 57.08 51.33 54.86 51.27 53.04 C 51.37 47.39 51.27 41.73 51.29 36.08 C 51.28 34.65 51.26 33.23 51.25 31.81 C 52.94 31.61 55.13 31.76 56.07 29.99 C 56.73 27.78 56.62 25.35 56.20 23.10 C 54.42 20.87 51.77 19.63 49.55 17.91 C 44.48 14.51 39.74 10.62 34.54 7.40 C 33.05 6.38 31.18 7.10 29.87 8.07 Z" />
<path fill="#030400" opacity="1.00" d=" M 28.57 18.65 C 32.04 15.05 39.26 17.89 38.73 23.04 C 39.10 25.47 37.10 27.05 35.55 28.52 C 35.52 34.31 35.51 40.10 35.63 45.88 C 38.55 44.16 41.04 41.80 42.54 38.72 C 41.95 38.24 40.78 37.27 40.20 36.78 C 42.18 34.68 44.01 32.05 47.04 31.43 C 47.47 32.99 47.91 34.55 48.35 36.11 C 48.47 36.68 48.73 37.81 48.86 38.38 C 45.43 40.56 44.70 45.04 41.43 47.40 C 36.39 51.83 28.09 51.32 23.40 46.62 C 21.17 44.74 19.99 42.02 18.80 39.44 C 18.00 39.51 17.19 39.56 16.38 39.59 C 16.66 36.65 17.51 33.79 18.92 31.19 C 21.51 32.57 23.80 34.49 25.12 37.16 C 24.61 37.55 23.60 38.34 23.10 38.73 C 24.82 41.43 26.67 44.82 30.28 45.07 C 30.30 39.56 30.33 34.05 30.29 28.55 C 26.96 26.51 25.70 21.60 28.57 18.65 M 32.19 20.96 C 31.01 21.82 31.16 23.17 31.31 24.45 C 31.87 24.51 32.99 24.64 33.55 24.70 C 33.94 24.26 34.72 23.38 35.11 22.94 C 34.25 22.13 33.47 21.08 32.19 20.96 Z" />
</g>
<g id="#f7d558ff">
<path fill="#f7d558" opacity="1.00" d=" M 29.87 8.07 C 31.18 7.10 33.05 6.38 34.54 7.40 C 39.74 10.62 44.48 14.51 49.55 17.91 C 51.77 19.63 54.42 20.87 56.20 23.10 C 56.62 25.35 56.73 27.78 56.07 29.99 C 55.13 31.76 52.94 31.61 51.25 31.81 C 51.26 33.23 51.28 34.65 51.29 36.08 C 50.55 36.08 49.08 36.10 48.35 36.11 C 47.91 34.55 47.47 32.99 47.04 31.43 C 44.01 32.05 42.18 34.68 40.20 36.78 C 40.78 37.27 41.95 38.24 42.54 38.72 C 41.04 41.80 38.55 44.16 35.63 45.88 C 35.51 40.10 35.52 34.31 35.55 28.52 C 37.10 27.05 39.10 25.47 38.73 23.04 C 39.26 17.89 32.04 15.05 28.57 18.65 C 25.70 21.60 26.96 26.51 30.29 28.55 C 30.33 34.05 30.30 39.56 30.28 45.07 C 26.67 44.82 24.82 41.43 23.10 38.73 C 23.60 38.34 24.61 37.55 25.12 37.16 C 23.80 34.49 21.51 32.57 18.92 31.19 C 17.51 33.79 16.66 36.65 16.38 39.59 C 15.69 39.64 14.30 39.74 13.61 39.79 C 13.63 37.12 13.62 34.46 13.61 31.79 C 11.35 31.87 8.39 31.79 7.81 29.02 C 7.80 26.78 6.94 23.62 9.25 22.21 C 16.19 17.59 22.99 12.77 29.87 8.07 Z" />
<path fill="#f7d558" opacity="1.00" d=" M 32.19 20.96 C 33.47 21.08 34.25 22.13 35.11 22.94 C 34.72 23.38 33.94 24.26 33.55 24.70 C 32.99 24.64 31.87 24.51 31.31 24.45 C 31.16 23.17 31.01 21.82 32.19 20.96 Z" />
</g>
<g id="#12120ace">
<path fill="#12120a" opacity="0.81" d=" M 49.71 15.48 C 51.31 15.09 52.05 15.66 51.92 17.20 C 50.69 17.18 49.96 16.61 49.71 15.48 Z" />
<path fill="#12120a" opacity="0.81" d=" M 54.61 18.38 C 54.65 18.41 54.73 18.47 54.78 18.49 C 54.73 18.47 54.65 18.41 54.61 18.38 Z" />
</g>
<g id="#edb646ff">
<path fill="#edb646" opacity="1.00" d=" M 48.35 36.11 C 49.08 36.10 50.55 36.08 51.29 36.08 C 51.27 41.73 51.37 47.39 51.27 53.04 C 51.33 54.86 50.20 57.08 48.09 56.87 C 37.72 57.00 27.35 56.90 16.98 56.92 C 15.45 57.25 14.62 55.70 13.60 54.92 C 13.64 49.87 13.56 44.83 13.61 39.79 C 14.30 39.74 15.69 39.64 16.38 39.59 C 17.19 39.56 18.00 39.51 18.80 39.44 C 19.99 42.02 21.17 44.74 23.40 46.62 C 28.09 51.32 36.39 51.83 41.43 47.40 C 44.70 45.04 45.43 40.56 48.86 38.38 C 48.73 37.81 48.47 36.68 48.35 36.11 Z" />
</g>
</svg>
