<?xml version="1.0" encoding="UTF-8" ?>
<!DOCTYPE svg PUBLIC "-//W3C//DTD SVG 1.1//EN" "http://www.w3.org/Graphics/SVG/1.1/DTD/svg11.dtd">
<svg width="64pt" height="64pt" viewBox="0 0 64 64" version="1.1" xmlns="http://www.w3.org/2000/svg">
<g id="#020402f3">
<path fill="#020402" opacity="0.95" d=" M 24.85 9.48 C 25.27 7.42 24.00 4.38 26.15 3.12 C 29.98 2.64 33.85 2.97 37.68 3.21 C 37.87 5.23 38.02 7.25 38.15 9.28 C 41.94 10.54 45.72 12.54 47.83 16.08 C 49.72 18.85 49.78 22.29 49.69 25.51 C 45.80 26.07 41.79 26.48 37.89 25.78 C 36.86 24.21 36.45 22.23 35.12 20.87 C 32.85 19.41 30.06 20.23 27.58 20.52 C 27.47 21.45 27.35 22.38 27.24 23.31 C 33.43 25.78 40.51 26.05 46.13 29.85 C 52.06 33.97 52.69 42.95 48.63 48.58 C 46.47 51.98 42.51 53.42 38.92 54.77 C 38.83 56.74 38.72 58.70 38.58 60.67 C 34.33 61.19 29.99 61.36 25.77 60.50 C 25.74 58.56 25.71 56.62 25.65 54.68 C 19.57 53.17 13.92 48.56 13.06 42.07 C 13.04 40.36 11.83 37.84 13.90 36.89 C 17.60 36.48 21.33 36.73 25.04 36.75 C 25.79 38.92 25.97 41.65 28.06 43.02 C 31.56 44.74 36.32 44.57 38.84 41.25 C 33.73 36.54 25.98 37.58 20.30 33.80 C 13.99 30.57 12.45 21.82 16.05 16.04 C 17.84 12.63 21.50 10.97 24.85 9.48 M 27.25 5.30 C 27.26 7.26 27.26 9.22 27.28 11.18 C 21.15 12.63 15.75 17.76 16.29 24.46 C 17.07 26.83 17.99 29.36 20.14 30.84 C 25.08 34.66 31.63 34.57 37.21 36.90 C 38.82 37.47 39.83 38.88 40.79 40.20 C 40.59 41.23 40.40 42.27 40.23 43.31 C 36.78 46.70 31.13 47.46 26.95 45.01 C 24.73 43.74 23.83 41.26 23.01 38.99 C 20.31 38.97 17.62 38.98 14.92 39.01 C 15.37 41.61 15.70 44.37 17.35 46.54 C 19.72 50.24 24.09 51.73 28.11 52.85 C 28.09 54.78 28.07 56.70 28.05 58.63 C 30.88 58.62 33.71 58.62 36.54 58.62 C 36.51 56.68 36.49 54.73 36.47 52.79 C 39.21 52.02 42.13 51.41 44.40 49.58 C 48.63 46.41 50.01 40.25 47.83 35.49 C 43.70 27.74 33.52 28.91 26.64 25.40 C 24.19 24.58 25.24 21.98 25.37 20.06 C 29.14 15.49 38.82 17.14 39.45 23.71 C 42.24 23.69 45.04 23.70 47.84 23.67 C 47.14 20.85 46.54 17.81 44.54 15.58 C 42.21 13.16 39.00 11.90 35.78 11.15 C 35.75 9.20 35.71 7.26 35.67 5.31 C 32.86 5.29 30.05 5.29 27.25 5.30 Z" />
</g>
<g id="#abd06cff">
<path fill="#abd06c" opacity="1.00" d=" M 27.25 5.30 C 30.05 5.29 32.86 5.29 35.67 5.31 C 35.71 7.26 35.75 9.20 35.78 11.15 C 39.00 11.90 42.21 13.16 44.54 15.58 C 46.54 17.81 47.14 20.85 47.84 23.67 C 45.04 23.70 42.24 23.69 39.45 23.71 C 38.82 17.14 29.14 15.49 25.37 20.06 C 24.46 21.29 23.63 22.60 22.57 23.70 C 20.52 24.24 18.39 24.25 16.29 24.46 C 15.75 17.76 21.15 12.63 27.28 11.18 C 27.26 9.22 27.26 7.26 27.25 5.30 Z" />
</g>
<g id="#8ec561ff">
<path fill="#8ec561" opacity="1.00" d=" M 22.57 23.70 C 23.63 22.60 24.46 21.29 25.37 20.06 C 25.24 21.98 24.19 24.58 26.64 25.40 C 33.52 28.91 43.70 27.74 47.83 35.49 C 47.47 36.88 47.10 38.28 46.72 39.66 C 44.74 39.85 42.76 40.03 40.79 40.20 C 39.83 38.88 38.82 37.47 37.21 36.90 C 31.63 34.57 25.08 34.66 20.14 30.84 C 17.99 29.36 17.07 26.83 16.29 24.46 C 18.39 24.25 20.52 24.24 22.57 23.70 Z" />
</g>
<g id="#71b955ff">
<path fill="#71b955" opacity="1.00" d=" M 47.83 35.49 C 50.01 40.25 48.63 46.41 44.40 49.58 C 42.13 51.41 39.21 52.02 36.47 52.79 C 36.49 54.73 36.51 56.68 36.54 58.62 C 33.71 58.62 30.88 58.62 28.05 58.63 C 28.07 56.70 28.09 54.78 28.11 52.85 C 24.09 51.73 19.72 50.24 17.35 46.54 C 15.70 44.37 15.37 41.61 14.92 39.01 C 17.62 38.98 20.31 38.97 23.01 38.99 C 23.83 41.26 24.73 43.74 26.95 45.01 C 31.13 47.46 36.78 46.70 40.23 43.31 C 40.40 42.27 40.59 41.23 40.79 40.20 C 42.76 40.03 44.74 39.85 46.72 39.66 C 47.10 38.28 47.47 36.88 47.83 35.49 Z" />
</g>
</svg>
