<?xml version="1.0" encoding="UTF-8" ?>
<!DOCTYPE svg PUBLIC "-//W3C//DTD SVG 1.1//EN" "http://www.w3.org/Graphics/SVG/1.1/DTD/svg11.dtd">
<svg width="64pt" height="64pt" viewBox="0 0 64 64" version="1.1" xmlns="http://www.w3.org/2000/svg">
<g id="#020201ff">
<path fill="#020201" opacity="1.00" d=" M 3.39 11.01 C 10.13 10.29 19.21 9.52 22.70 16.85 C 28.13 13.23 35.93 13.13 41.30 16.92 C 42.51 14.98 43.89 13.01 46.02 12.02 C 50.45 9.78 55.54 11.03 60.28 10.67 C 61.88 13.97 59.70 17.35 58.28 20.29 C 56.45 23.99 53.63 27.34 49.56 28.60 C 49.46 31.82 49.93 35.12 49.23 38.30 C 47.09 43.76 41.80 46.83 37.72 50.68 C 35.70 52.44 32.86 54.02 30.13 53.01 C 26.96 52.17 25.07 49.32 22.56 47.44 C 19.39 44.98 16.27 42.09 14.76 38.28 C 14.07 35.11 14.54 31.83 14.43 28.62 C 8.61 26.58 5.44 20.77 3.66 15.24 C 3.06 13.89 3.29 12.42 3.39 11.01 M 5.48 13.13 C 7.44 18.44 9.87 26.07 16.70 26.24 C 16.67 29.55 16.42 32.86 16.62 36.17 C 17.01 40.12 20.82 42.45 23.18 45.21 C 18.48 40.09 18.09 33.00 19.12 26.53 C 23.16 24.90 27.66 27.62 27.59 32.06 C 27.50 36.43 28.65 40.71 28.59 45.08 C 27.94 46.12 27.28 47.16 26.63 48.20 C 28.40 49.62 30.37 51.29 32.81 51.05 C 34.29 50.30 35.64 49.33 37.03 48.45 C 36.84 47.24 36.28 46.16 35.57 45.18 C 35.37 40.23 36.93 35.39 36.42 30.43 C 37.54 26.79 41.43 25.26 44.88 26.54 C 45.86 32.96 45.64 40.11 40.77 45.08 C 43.01 42.55 46.41 40.54 47.25 37.03 C 47.69 33.45 47.30 29.83 47.31 26.24 C 51.21 26.26 54.47 23.25 55.70 19.73 C 57.00 17.66 57.96 15.41 58.88 13.16 C 53.25 12.65 46.14 12.27 43.05 18.12 L 43.57 19.12 C 42.76 19.51 42.01 20.08 41.12 20.28 C 36.78 15.00 27.23 14.99 22.90 20.28 C 22.62 20.28 22.06 20.27 21.78 20.26 C 20.56 18.21 19.59 15.83 17.52 14.47 C 13.86 12.39 9.49 13.32 5.48 13.13 M 19.70 31.90 C 20.08 33.04 20.50 34.16 20.98 35.26 C 22.08 36.65 24.02 36.04 25.52 36.28 C 26.82 33.54 25.36 30.27 22.16 30.13 C 21.35 30.73 20.53 31.32 19.70 31.90 M 40.52 30.30 C 40.01 30.64 38.98 31.31 38.46 31.64 C 37.95 33.20 37.97 34.80 38.50 36.35 C 42.16 37.36 45.42 33.72 43.44 30.33 C 42.47 30.32 41.49 30.31 40.52 30.30 Z" />
<path fill="#020201" opacity="1.00" d=" M 8.19 15.29 C 13.14 14.42 18.55 17.15 19.45 22.40 C 17.16 22.24 14.55 22.94 12.56 21.47 C 10.34 20.07 9.38 17.50 8.19 15.29 Z" />
<path fill="#020201" opacity="1.00" d=" M 44.73 21.35 C 46.70 17.10 51.00 14.54 55.68 15.23 C 54.72 20.02 50.23 23.48 45.31 22.46 C 45.16 22.18 44.87 21.62 44.73 21.35 Z" />
</g>
<g id="#bb8b4dff">
<path fill="#bb8b4d" opacity="1.00" d=" M 5.48 13.13 C 9.49 13.32 13.86 12.39 17.52 14.47 C 19.59 15.83 20.56 18.21 21.78 20.26 C 22.06 20.27 22.62 20.28 22.90 20.28 C 28.97 20.38 35.05 20.57 41.12 20.28 C 42.01 20.08 42.76 19.51 43.57 19.12 C 43.86 19.68 44.44 20.79 44.73 21.35 C 44.87 21.62 45.16 22.18 45.31 22.46 C 50.23 23.48 54.72 20.02 55.68 15.23 C 55.70 16.73 55.70 18.23 55.70 19.73 C 54.47 23.25 51.21 26.26 47.31 26.24 C 47.30 29.83 47.69 33.45 47.25 37.03 C 46.41 40.54 43.01 42.55 40.77 45.08 C 45.64 40.11 45.86 32.96 44.88 26.54 C 41.43 25.26 37.54 26.79 36.42 30.43 C 33.49 31.03 30.54 31.53 27.59 32.06 C 27.66 27.62 23.16 24.90 19.12 26.53 C 18.09 33.00 18.48 40.09 23.18 45.21 C 20.82 42.45 17.01 40.12 16.62 36.17 C 16.42 32.86 16.67 29.55 16.70 26.24 C 9.87 26.07 7.44 18.44 5.48 13.13 M 8.19 15.29 C 9.38 17.50 10.34 20.07 12.56 21.47 C 14.55 22.94 17.16 22.24 19.45 22.40 C 18.55 17.15 13.14 14.42 8.19 15.29 Z" />
</g>
<g id="#b27a38ff">
<path fill="#b27a38" opacity="1.00" d=" M 43.05 18.12 C 46.14 12.27 53.25 12.65 58.88 13.16 C 57.96 15.41 57.00 17.66 55.70 19.73 C 55.70 18.23 55.70 16.73 55.68 15.23 C 51.00 14.54 46.70 17.10 44.73 21.35 C 44.44 20.79 43.86 19.68 43.57 19.12 L 43.05 18.12 Z" />
<path fill="#b27a38" opacity="1.00" d=" M 22.90 20.28 C 27.23 14.99 36.78 15.00 41.12 20.28 C 35.05 20.57 28.97 20.38 22.90 20.28 Z" />
</g>
<g id="#f7f7f6ff">
<path fill="#f7f7f6" opacity="1.00" d=" M 19.70 31.90 C 20.53 31.32 21.35 30.73 22.16 30.13 C 25.36 30.27 26.82 33.54 25.52 36.28 C 24.02 36.04 22.08 36.65 20.98 35.26 C 20.50 34.16 20.08 33.04 19.70 31.90 Z" />
<path fill="#f7f7f6" opacity="1.00" d=" M 40.52 30.30 C 41.49 30.31 42.47 30.32 43.44 30.33 C 45.42 33.72 42.16 37.36 38.50 36.35 C 37.97 34.80 37.95 33.20 38.46 31.64 C 38.98 31.31 40.01 30.64 40.52 30.30 Z" />
</g>
<g id="#cab086ff">
<path fill="#cab086" opacity="1.00" d=" M 27.59 32.06 C 30.54 31.53 33.49 31.03 36.42 30.43 C 36.93 35.39 35.37 40.23 35.57 45.18 C 36.28 46.16 36.84 47.24 37.03 48.45 C 35.64 49.33 34.29 50.30 32.81 51.05 C 30.37 51.29 28.40 49.62 26.63 48.20 C 27.28 47.16 27.94 46.12 28.59 45.08 C 28.65 40.71 27.50 36.43 27.59 32.06 Z" />
</g>
</svg>
