<?xml version="1.0" encoding="UTF-8" ?>
<!DOCTYPE svg PUBLIC "-//W3C//DTD SVG 1.1//EN" "http://www.w3.org/Graphics/SVG/1.1/DTD/svg11.dtd">
<svg width="64pt" height="64pt" viewBox="0 0 64 64" version="1.1" xmlns="http://www.w3.org/2000/svg">
<g id="#010401fd">
<path fill="#010401" opacity="1.00" d=" M 27.61 14.37 C 30.23 13.65 33.05 13.76 35.71 14.27 C 36.26 15.36 36.60 16.53 37.00 17.68 C 39.00 19.05 41.29 20.30 42.43 22.56 C 43.45 24.76 43.39 27.26 43.69 29.61 C 42.52 29.43 41.35 29.24 40.17 29.06 C 42.61 31.72 45.22 35.11 44.08 38.97 C 43.54 42.70 40.13 44.75 37.10 46.36 C 36.79 47.55 36.53 48.77 36.02 49.90 C 33.24 50.26 30.43 49.95 27.65 49.74 C 27.54 48.64 27.44 47.54 27.34 46.43 C 24.94 45.05 22.37 43.59 20.93 41.11 C 19.84 39.09 19.83 36.71 19.47 34.50 C 21.14 34.28 22.81 34.09 24.49 33.93 C 21.41 31.73 19.56 27.86 20.89 24.13 C 21.56 21.14 24.29 19.55 26.58 17.90 C 26.88 16.71 27.22 15.53 27.61 14.37 M 29.34 16.27 C 29.29 17.29 29.25 18.31 29.21 19.33 C 26.06 20.68 23.60 23.16 22.34 26.35 C 23.14 28.18 23.59 30.45 25.52 31.48 C 29.02 33.54 33.22 33.89 36.83 35.74 C 36.85 36.64 36.89 38.43 36.90 39.32 C 34.43 40.19 31.67 41.13 29.11 40.02 C 27.99 38.97 27.32 37.56 26.50 36.28 C 24.84 36.32 23.18 36.37 21.52 36.42 C 22.53 40.55 25.69 43.56 29.79 44.56 C 29.72 45.33 29.58 46.87 29.51 47.64 C 31.16 47.65 32.81 47.66 34.46 47.68 C 34.43 46.91 34.38 45.37 34.35 44.60 C 36.19 43.81 38.03 43.01 39.85 42.20 C 40.30 41.49 41.20 40.06 41.65 39.35 C 41.92 36.98 41.40 34.65 40.56 32.45 C 36.60 29.79 31.33 30.09 27.62 27.11 C 27.28 22.63 32.42 23.33 35.26 24.24 C 35.70 25.21 36.15 26.18 36.60 27.14 C 38.29 27.04 39.99 26.92 41.68 26.80 C 40.54 23.22 37.90 20.45 34.23 19.46 C 34.29 18.67 34.40 17.09 34.46 16.30 C 32.76 16.29 31.05 16.27 29.34 16.27 M 30.78 25.99 C 30.55 27.33 32.86 27.83 33.55 26.83 C 33.80 25.45 31.47 24.99 30.78 25.99 M 28.37 35.48 C 29.89 38.35 32.70 38.54 35.55 37.70 C 33.24 36.73 30.82 36.02 28.37 35.48 Z" />
</g>
<g id="#9fcb68ff">
<path fill="#9fcb68" opacity="1.00" d=" M 29.34 16.27 C 31.05 16.27 32.76 16.29 34.46 16.30 C 34.40 17.09 34.29 18.67 34.23 19.46 C 37.90 20.45 40.54 23.22 41.68 26.80 C 39.99 26.92 38.29 27.04 36.60 27.14 C 36.15 26.18 35.70 25.21 35.26 24.24 C 32.42 23.33 27.28 22.63 27.62 27.11 C 31.33 30.09 36.60 29.79 40.56 32.45 C 41.40 34.65 41.92 36.98 41.65 39.35 C 40.07 39.34 38.49 39.32 36.90 39.32 C 36.89 38.43 36.85 36.64 36.83 35.74 C 33.22 33.89 29.02 33.54 25.52 31.48 C 23.59 30.45 23.14 28.18 22.34 26.35 C 23.60 23.16 26.06 20.68 29.21 19.33 C 29.25 18.31 29.29 17.29 29.34 16.27 Z" />
</g>
<g id="#71b754ff">
<path fill="#71b754" opacity="1.00" d=" M 21.52 36.42 C 23.18 36.37 24.84 36.32 26.50 36.28 C 27.32 37.56 27.99 38.97 29.11 40.02 C 31.67 41.13 34.43 40.19 36.90 39.32 C 38.49 39.32 40.07 39.34 41.65 39.35 C 41.20 40.06 40.30 41.49 39.85 42.20 C 38.03 43.01 36.19 43.81 34.35 44.60 C 34.38 45.37 34.43 46.91 34.46 47.68 C 32.81 47.66 31.16 47.65 29.51 47.64 C 29.58 46.87 29.72 45.33 29.79 44.56 C 25.69 43.56 22.53 40.55 21.52 36.42 Z" />
</g>
</svg>
