<?xml version="1.0" encoding="UTF-8" ?>
<!DOCTYPE svg PUBLIC "-//W3C//DTD SVG 1.1//EN" "http://www.w3.org/Graphics/SVG/1.1/DTD/svg11.dtd">
<svg width="64pt" height="64pt" viewBox="0 0 64 64" version="1.1" xmlns="http://www.w3.org/2000/svg">
<g id="#040504f7">
<path fill="#040504" opacity="0.97" d=" M 2.75 11.56 C 6.48 10.60 10.74 10.41 14.40 11.67 C 15.37 16.22 14.62 20.93 14.80 25.54 C 18.52 25.62 22.25 25.64 25.96 25.32 C 22.85 21.93 25.04 16.96 24.60 12.84 C 25.41 12.35 26.19 11.81 26.94 11.23 C 30.72 10.85 34.63 10.50 38.29 11.75 C 38.32 14.39 38.31 17.02 38.23 19.65 C 39.49 10.13 53.37 8.50 59.02 14.92 C 61.25 17.41 62.37 23.01 57.75 23.50 C 61.78 25.55 62.87 30.99 60.75 34.79 C 58.74 38.62 54.12 40.18 50.02 40.09 C 45.38 40.19 39.74 38.35 38.32 33.42 C 38.32 39.72 38.44 46.03 38.13 52.33 C 33.72 53.04 28.43 54.20 24.64 51.16 C 24.44 46.34 24.28 41.51 24.54 36.69 C 21.25 36.76 17.96 36.76 14.68 36.71 C 14.69 41.67 15.21 46.68 14.59 51.61 C 14.31 53.24 12.21 52.75 11.06 53.03 C 8.17 53.27 5.26 53.05 2.42 52.49 C 2.03 40.98 2.39 29.46 2.23 17.95 C 2.30 15.83 1.99 13.60 2.75 11.56 M 4.57 12.54 C 3.74 25.23 4.61 37.95 4.53 50.66 C 7.26 50.76 9.99 50.84 12.72 50.92 C 12.95 45.75 13.12 40.57 12.90 35.39 C 17.88 35.24 22.87 35.26 27.85 35.27 C 27.89 40.62 27.61 45.98 28.07 51.31 C 30.68 50.88 34.26 52.46 36.20 50.21 C 35.49 44.48 36.37 38.70 35.93 32.95 C 35.96 26.50 36.12 20.04 36.04 13.58 C 33.35 13.58 30.65 13.58 27.96 13.58 C 27.95 18.31 27.94 23.03 27.93 27.76 C 22.79 27.69 17.66 27.77 12.52 27.72 C 12.48 23.03 12.43 18.33 12.67 13.64 C 10.23 12.17 7.28 12.68 4.57 12.54 M 42.76 15.74 C 40.39 17.80 39.72 21.79 42.07 24.12 C 45.17 27.39 50.22 26.80 53.77 29.20 C 55.13 30.22 54.50 31.85 54.34 33.22 C 51.57 34.16 48.67 34.31 45.92 33.25 C 45.44 32.04 44.96 30.85 44.48 29.65 C 42.93 29.68 41.38 29.71 39.83 29.74 C 39.97 32.68 41.75 35.48 44.48 36.66 C 48.53 38.37 53.21 37.86 57.09 35.93 C 57.95 34.33 58.85 32.75 59.69 31.15 C 59.27 29.46 59.10 27.53 57.65 26.35 C 54.50 22.93 49.16 23.83 45.58 21.11 C 45.62 20.29 45.71 18.66 45.75 17.84 C 48.78 16.93 53.24 16.77 54.05 20.70 C 55.63 20.73 57.21 20.75 58.80 20.76 C 58.36 17.24 55.54 13.84 51.85 13.61 C 48.75 13.51 45.01 13.14 42.76 15.74 M 46.93 29.09 C 47.11 29.69 47.47 30.90 47.65 31.50 C 49.21 31.60 50.78 31.67 52.35 31.68 C 50.97 30.08 48.85 29.68 46.93 29.09 Z" />
</g>
<g id="#4a4a4aff">
<path fill="#4a4a4a" opacity="1.00" d=" M 4.57 12.54 C 7.28 12.68 10.23 12.17 12.67 13.64 C 9.98 13.81 7.29 13.85 4.60 13.88 C 4.55 21.26 4.74 28.65 4.61 36.04 C 4.49 40.78 4.50 45.52 4.64 50.26 C 7.19 50.21 9.75 50.16 12.31 50.11 C 12.02 44.93 12.08 39.75 12.24 34.57 C 17.47 33.65 22.80 34.25 28.07 34.12 C 28.07 34.55 28.07 35.42 28.07 35.85 C 28.06 40.58 28.13 45.31 28.10 50.04 C 30.80 50.05 33.50 50.06 36.20 50.21 C 34.26 52.46 30.68 50.88 28.07 51.31 C 27.61 45.98 27.89 40.62 27.85 35.27 C 22.87 35.26 17.88 35.24 12.90 35.39 C 13.12 40.57 12.95 45.75 12.72 50.92 C 9.99 50.84 7.26 50.76 4.53 50.66 C 4.61 37.95 3.74 25.23 4.57 12.54 Z" />
</g>
<g id="#e9e9e9ff">
<path fill="#e9e9e9" opacity="1.00" d=" M 42.76 15.74 C 45.01 13.14 48.75 13.51 51.85 13.61 C 55.54 13.84 58.36 17.24 58.80 20.76 C 57.21 20.75 55.63 20.73 54.05 20.70 C 53.24 16.77 48.78 16.93 45.75 17.84 C 45.71 18.66 45.62 20.29 45.58 21.11 C 49.16 23.83 54.50 22.93 57.65 26.35 C 59.10 27.53 59.27 29.46 59.69 31.15 C 58.85 32.75 57.95 34.33 57.09 35.93 C 53.21 37.86 48.53 38.37 44.48 36.66 C 41.75 35.48 39.97 32.68 39.83 29.74 C 41.38 29.71 42.93 29.68 44.48 29.65 C 44.96 30.85 45.44 32.04 45.92 33.25 C 48.67 34.31 51.57 34.16 54.34 33.22 C 54.50 31.85 55.13 30.22 53.77 29.20 C 50.22 26.80 45.17 27.39 42.07 24.12 C 39.72 21.79 40.39 17.80 42.76 15.74 Z" />
<path fill="#e9e9e9" opacity="1.00" d=" M 4.60 13.88 C 7.29 13.85 9.98 13.81 12.67 13.64 C 12.43 18.33 12.48 23.03 12.52 27.72 C 17.66 27.77 22.79 27.69 27.93 27.76 C 27.94 23.03 27.95 18.31 27.96 13.58 C 30.65 13.58 33.35 13.58 36.04 13.58 C 36.12 20.04 35.96 26.50 35.93 32.95 C 35.38 33.73 34.82 34.50 34.27 35.28 C 32.20 35.46 30.14 35.66 28.07 35.85 C 28.07 35.42 28.07 34.55 28.07 34.12 C 22.80 34.25 17.47 33.65 12.24 34.57 C 9.71 35.11 7.16 35.61 4.61 36.04 C 4.74 28.65 4.55 21.26 4.60 13.88 Z" />
</g>
<g id="#cfcfcfff">
<path fill="#cfcfcf" opacity="1.00" d=" M 34.27 35.28 C 34.82 34.50 35.38 33.73 35.93 32.95 C 36.37 38.70 35.49 44.48 36.20 50.21 C 33.50 50.06 30.80 50.05 28.10 50.04 C 28.13 45.31 28.06 40.58 28.07 35.85 C 30.14 35.66 32.20 35.46 34.27 35.28 Z" />
<path fill="#cfcfcf" opacity="1.00" d=" M 4.61 36.04 C 7.16 35.61 9.71 35.11 12.24 34.57 C 12.08 39.75 12.02 44.93 12.31 50.11 C 9.75 50.16 7.19 50.21 4.64 50.26 C 4.50 45.52 4.49 40.78 4.61 36.04 Z" />
</g>
</svg>
