<?xml version="1.0" encoding="UTF-8" ?>
<!DOCTYPE svg PUBLIC "-//W3C//DTD SVG 1.1//EN" "http://www.w3.org/Graphics/SVG/1.1/DTD/svg11.dtd">
<svg width="64pt" height="64pt" viewBox="0 0 64 64" version="1.1" xmlns="http://www.w3.org/2000/svg">
<g id="#080508f9">
<path fill="#080508" opacity="0.98" d=" M 48.66 7.72 C 50.46 6.38 52.65 7.69 54.07 8.96 C 56.68 11.30 59.10 14.37 59.31 18.01 C 58.80 22.68 56.09 26.73 55.18 31.30 C 53.83 38.48 53.49 45.79 52.81 53.04 C 52.78 54.34 51.91 55.37 51.33 56.46 C 49.31 56.60 47.01 57.11 45.33 55.61 C 44.48 54.23 44.75 52.52 44.67 50.98 C 44.75 45.58 44.68 40.17 44.73 34.77 C 39.23 40.19 39.77 48.90 34.58 54.55 C 32.82 56.90 29.63 56.83 26.99 56.89 C 20.69 56.81 14.10 56.37 8.39 53.42 C 6.49 52.36 4.20 50.51 4.83 48.04 C 4.96 45.60 7.11 44.13 9.17 43.32 C 14.16 41.37 19.55 40.96 24.75 39.87 C 27.49 38.73 29.24 35.90 30.18 33.18 C 33.59 23.06 40.28 14.26 48.66 7.72 M 44.08 15.12 C 39.31 19.31 36.61 25.13 33.49 30.51 C 32.89 32.39 32.37 34.30 31.89 36.22 L 31.31 36.32 C 30.11 39.16 27.68 41.65 24.58 42.27 C 19.63 43.26 14.51 43.74 9.78 45.59 C 8.27 46.14 7.65 47.73 6.73 48.90 C 11.32 53.86 18.73 54.22 25.05 54.54 C 27.60 54.33 31.51 55.56 32.65 52.39 C 35.86 49.71 36.87 45.55 37.95 41.71 C 38.98 38.00 41.40 34.97 43.69 31.96 C 44.75 31.65 46.09 30.98 47.02 31.97 C 47.30 39.45 46.38 47.05 47.80 54.43 C 49.47 54.68 50.75 53.86 50.57 52.09 C 50.94 45.63 51.80 39.21 52.44 32.77 C 53.38 27.67 55.94 23.03 56.96 17.96 C 56.47 14.39 53.80 11.40 50.74 9.68 C 47.80 10.28 46.29 13.33 44.08 15.12 Z" />
</g>
<g id="#ef50baff">
<path fill="#ef50ba" opacity="1.00" d=" M 44.08 15.12 C 46.29 13.33 47.80 10.28 50.74 9.68 C 53.80 11.40 56.47 14.39 56.96 17.96 C 55.94 23.03 53.38 27.67 52.44 32.77 C 51.52 33.56 50.60 34.35 49.68 35.15 C 48.81 34.08 47.94 33.00 47.02 31.97 C 46.09 30.98 44.75 31.65 43.69 31.96 C 39.66 33.21 36.32 36.22 31.89 36.22 C 32.37 34.30 32.89 32.39 33.49 30.51 C 36.61 25.13 39.31 19.31 44.08 15.12 Z" />
</g>
<g id="#d33497ff">
<path fill="#d33497" opacity="1.00" d=" M 31.89 36.22 C 36.32 36.22 39.66 33.21 43.69 31.96 C 41.40 34.97 38.98 38.00 37.95 41.71 C 36.87 45.55 35.86 49.71 32.65 52.39 C 31.51 55.56 27.60 54.33 25.05 54.54 C 18.73 54.22 11.32 53.86 6.73 48.90 C 7.65 47.73 8.27 46.14 9.78 45.59 C 14.51 43.74 19.63 43.26 24.58 42.27 C 27.68 41.65 30.11 39.16 31.31 36.32 L 31.89 36.22 Z" />
<path fill="#d33497" opacity="1.00" d=" M 47.02 31.97 C 47.94 33.00 48.81 34.08 49.68 35.15 C 50.60 34.35 51.52 33.56 52.44 32.77 C 51.80 39.21 50.94 45.63 50.57 52.09 C 50.75 53.86 49.47 54.68 47.80 54.43 C 46.38 47.05 47.30 39.45 47.02 31.97 Z" />
</g>
</svg>
