<?xml version="1.0" encoding="UTF-8" ?>
<!DOCTYPE svg PUBLIC "-//W3C//DTD SVG 1.1//EN" "http://www.w3.org/Graphics/SVG/1.1/DTD/svg11.dtd">
<svg width="64pt" height="64pt" viewBox="0 0 64 64" version="1.1" xmlns="http://www.w3.org/2000/svg">
<g id="#111511f7">
<path fill="#111511" opacity="0.97" d=" M 27.07 2.93 C 30.40 2.91 33.73 2.95 37.06 3.07 C 37.06 7.05 37.06 11.02 37.01 14.99 C 38.22 14.93 39.42 14.85 40.63 14.77 C 41.87 14.12 43.20 13.65 44.55 13.30 L 44.23 12.04 C 46.67 12.59 49.08 13.21 51.54 13.67 C 51.37 29.84 51.73 46.01 51.35 62.17 C 45.45 62.83 39.90 60.19 34.02 60.72 C 29.64 60.90 25.13 60.17 20.87 61.57 C 18.13 62.42 15.24 62.02 12.43 61.83 C 12.54 45.72 12.49 29.60 12.46 13.49 C 13.13 13.44 14.49 13.36 15.17 13.31 C 16.48 12.70 17.90 12.38 19.34 12.25 C 21.43 14.16 24.14 15.04 26.93 15.18 C 26.92 11.10 26.91 7.01 27.07 2.93 M 29.00 5.00 C 28.99 12.57 29.02 20.13 29.01 27.70 C 26.77 27.91 25.21 29.44 23.85 31.07 C 22.56 32.31 21.27 33.57 20.00 34.83 C 20.17 39.02 19.70 43.28 20.31 47.43 C 21.74 49.22 23.41 50.80 25.10 52.34 C 29.71 52.26 34.32 52.27 38.92 52.33 C 40.87 50.66 42.68 48.83 44.34 46.87 C 44.28 42.97 44.30 39.08 44.34 35.18 C 43.05 33.89 41.76 32.61 40.49 31.31 C 38.95 29.69 37.39 27.90 34.99 27.73 C 34.98 20.15 35.01 12.58 35.00 5.00 C 33.00 5.00 31.00 5.00 29.00 5.00 M 14.61 15.83 C 14.67 17.05 14.77 18.27 14.89 19.48 C 14.46 32.86 14.93 46.26 14.70 59.64 C 16.37 59.59 18.08 59.83 19.71 59.38 C 25.22 57.26 31.27 58.78 37.03 58.29 C 41.26 57.74 45.04 60.32 49.29 59.64 C 49.09 46.26 49.51 32.88 49.12 19.50 C 49.24 18.26 49.32 17.02 49.37 15.78 C 44.97 14.80 41.33 17.89 37.00 17.40 C 37.00 20.10 37.01 22.80 37.02 25.50 C 40.10 27.39 42.36 30.26 44.94 32.74 C 45.28 33.10 45.97 33.84 46.32 34.21 C 46.31 38.75 46.36 43.29 46.33 47.84 C 44.42 50.06 42.55 52.32 40.50 54.43 C 34.79 54.32 29.08 54.38 23.36 54.38 C 21.59 52.29 19.81 50.19 17.97 48.16 C 17.97 43.51 18.01 38.86 18.00 34.21 C 18.33 33.86 18.99 33.16 19.32 32.81 C 21.81 30.31 24.21 27.70 26.98 25.51 C 26.98 22.80 27.00 20.09 27.00 17.39 C 24.63 17.37 22.06 17.61 20.25 15.76 C 18.37 15.75 16.49 15.78 14.61 15.83 Z" />
</g>
<g id="#edededff">
<path fill="#ededed" opacity="1.00" d=" M 29.00 5.00 C 31.00 5.00 33.00 5.00 35.00 5.00 C 35.01 12.58 34.98 20.15 34.99 27.73 C 37.39 27.90 38.95 29.69 40.49 31.31 C 40.42 32.12 40.30 33.75 40.23 34.57 C 41.46 36.13 42.58 37.78 43.45 39.57 C 35.83 39.85 28.13 40.32 20.59 38.84 C 22.46 36.61 24.27 34.18 23.85 31.07 C 25.21 29.44 26.77 27.91 29.01 27.70 C 29.02 20.13 28.99 12.57 29.00 5.00 Z" />
<path fill="#ededed" opacity="1.00" d=" M 14.61 15.83 C 16.49 15.78 18.37 15.75 20.25 15.76 C 22.06 17.61 24.63 17.37 27.00 17.39 C 27.00 20.09 26.98 22.80 26.98 25.51 C 24.21 27.70 21.81 30.31 19.32 32.81 C 18.48 32.53 16.81 31.97 15.98 31.70 C 15.92 27.60 15.55 23.52 14.89 19.48 C 14.77 18.27 14.67 17.05 14.61 15.83 Z" />
<path fill="#ededed" opacity="1.00" d=" M 37.00 17.40 C 41.33 17.89 44.97 14.80 49.37 15.78 C 49.32 17.02 49.24 18.26 49.12 19.50 C 48.50 23.59 48.09 27.70 47.99 31.84 C 47.23 32.06 45.70 32.51 44.94 32.74 C 42.36 30.26 40.10 27.39 37.02 25.50 C 37.01 22.80 37.00 20.10 37.00 17.40 Z" />
</g>
<g id="#dcdcdcff">
<path fill="#dcdcdc" opacity="1.00" d=" M 14.89 19.48 C 15.55 23.52 15.92 27.60 15.98 31.70 C 16.81 31.97 18.48 32.53 19.32 32.81 C 18.99 33.16 18.33 33.86 18.00 34.21 C 18.01 38.86 17.97 43.51 17.97 48.16 C 19.81 50.19 21.59 52.29 23.36 54.38 C 29.08 54.38 34.79 54.32 40.50 54.43 C 42.55 52.32 44.42 50.06 46.33 47.84 C 46.36 43.29 46.31 38.75 46.32 34.21 C 45.97 33.84 45.28 33.10 44.94 32.74 C 45.70 32.51 47.23 32.06 47.99 31.84 C 48.09 27.70 48.50 23.59 49.12 19.50 C 49.51 32.88 49.09 46.26 49.29 59.64 C 45.04 60.32 41.26 57.74 37.03 58.29 C 31.27 58.78 25.22 57.26 19.71 59.38 C 18.08 59.83 16.37 59.59 14.70 59.64 C 14.93 46.26 14.46 32.86 14.89 19.48 Z" />
<path fill="#dcdcdc" opacity="1.00" d=" M 20.00 34.83 C 21.27 33.57 22.56 32.31 23.85 31.07 C 24.27 34.18 22.46 36.61 20.59 38.84 C 28.13 40.32 35.83 39.85 43.45 39.57 C 42.58 37.78 41.46 36.13 40.23 34.57 C 40.30 33.75 40.42 32.12 40.49 31.31 C 41.76 32.61 43.05 33.89 44.34 35.18 C 44.30 39.08 44.28 42.97 44.34 46.87 C 42.68 48.83 40.87 50.66 38.92 52.33 C 34.32 52.27 29.71 52.26 25.10 52.34 C 23.41 50.80 21.74 49.22 20.31 47.43 C 19.70 43.28 20.17 39.02 20.00 34.83 Z" />
</g>
</svg>
