<?xml version="1.0" encoding="UTF-8" ?>
<!DOCTYPE svg PUBLIC "-//W3C//DTD SVG 1.1//EN" "http://www.w3.org/Graphics/SVG/1.1/DTD/svg11.dtd">
<svg width="64pt" height="64pt" viewBox="0 0 64 64" version="1.1" xmlns="http://www.w3.org/2000/svg">
<g id="#090809fd">
<path fill="#090809" opacity="1.00" d=" M 3.02 15.02 C 4.08 10.91 12.23 11.33 12.01 15.99 C 12.08 22.70 11.79 29.43 12.10 36.14 C 13.68 34.71 16.11 33.42 15.95 30.98 C 16.55 27.65 16.14 23.42 19.23 21.27 C 26.75 19.84 34.74 18.99 42.25 20.69 C 45.86 20.83 47.31 24.16 47.72 27.26 C 48.02 28.81 47.93 30.39 48.06 31.96 C 48.84 33.74 50.46 34.97 51.89 36.23 C 52.06 29.48 52.01 22.73 51.99 15.98 C 51.47 13.36 54.90 12.21 56.95 12.01 C 61.67 12.83 61.10 18.25 61.02 22.00 C 60.92 31.00 61.15 40.00 60.99 49.00 C 61.26 50.54 59.90 51.24 58.87 52.00 C 53.25 54.20 49.28 49.29 50.96 44.03 C 49.09 44.59 50.26 48.27 48.81 49.89 C 45.93 49.90 43.04 50.22 40.17 49.88 C 39.58 48.32 39.14 46.72 38.71 45.12 C 34.20 45.03 29.67 44.73 25.17 45.13 C 24.58 46.68 24.13 48.28 23.70 49.89 C 20.87 49.91 18.00 50.22 15.17 49.87 C 13.76 48.20 14.90 44.72 13.04 43.96 C 14.85 48.32 11.19 54.30 5.98 52.02 C 4.15 52.44 2.58 50.83 2.99 49.02 C 3.02 37.68 2.96 26.35 3.02 15.02 M 5.15 16.20 C 4.71 21.11 5.01 26.06 5.03 30.99 C 4.87 36.92 4.94 42.85 5.14 48.78 C 6.18 50.65 10.66 50.74 10.69 48.24 C 11.38 37.49 10.92 26.70 10.93 15.94 L 9.96 16.17 C 8.74 14.25 6.69 15.50 5.15 16.20 M 54.04 16.17 L 53.07 15.97 C 52.88 26.91 52.95 37.86 53.10 48.81 C 53.58 49.13 54.53 49.77 55.00 50.09 C 56.40 50.03 58.05 50.22 58.85 48.80 C 59.32 42.89 58.92 36.92 58.98 30.99 C 59.08 25.66 59.08 20.32 58.97 14.99 C 57.27 15.03 55.19 14.58 54.04 16.17 M 20.20 23.11 C 17.86 26.08 18.03 30.64 18.23 34.29 C 16.82 35.24 14.31 35.74 15.00 37.98 C 15.68 41.57 15.04 50.89 21.91 47.99 C 21.92 47.50 21.95 46.51 21.96 46.02 C 24.19 46.54 21.81 42.41 24.06 43.02 C 28.04 42.93 32.01 42.92 35.99 42.98 C 43.88 37.63 38.96 45.92 42.04 46.02 C 42.05 46.51 42.08 47.50 42.09 47.99 C 48.25 50.85 47.55 44.22 48.81 40.93 C 52.72 35.30 45.18 36.39 45.79 32.16 C 45.67 29.20 46.09 25.37 43.81 23.14 C 35.96 22.66 28.06 23.06 20.20 23.11 Z" />
<path fill="#090809" opacity="1.00" d=" M 23.22 26.16 C 29.03 25.56 34.91 26.04 40.74 26.14 C 42.78 27.45 41.71 30.19 42.03 32.20 C 35.34 31.97 28.65 31.97 21.95 31.97 C 22.27 30.04 21.30 27.44 23.22 26.16 Z" />
</g>
<g id="#02020247">
<path fill="#020202" opacity="0.28" d=" M 2.06 15.01 L 3.02 15.02 C 2.96 26.35 3.02 37.68 2.99 49.02 L 2.02 48.99 C 2.04 37.66 1.85 26.33 2.06 15.01 Z" />
<path fill="#020202" opacity="0.28" d=" M 41.79 19.99 C 49.50 16.63 48.25 22.81 47.72 27.26 C 47.31 24.16 45.86 20.83 42.25 20.69 L 41.79 19.99 Z" />
<path fill="#020202" opacity="0.28" d=" M 61.02 22.00 L 61.99 22.00 C 62.55 31.29 60.88 40.83 62.95 49.96 C 63.05 52.14 60.40 52.06 58.87 52.00 C 59.90 51.24 61.26 50.54 60.99 49.00 C 61.15 40.00 60.92 31.00 61.02 22.00 Z" />
</g>
<g id="#c0d5ecff">
<path fill="#c0d5ec" opacity="1.00" d=" M 5.15 16.20 C 6.69 15.50 8.74 14.25 9.96 16.17 C 10.01 21.84 9.99 27.51 9.92 33.19 C 8.25 32.54 6.63 31.80 5.03 30.99 C 5.01 26.06 4.71 21.11 5.15 16.20 Z" />
<path fill="#c0d5ec" opacity="1.00" d=" M 54.04 16.17 C 55.19 14.58 57.27 15.03 58.97 14.99 C 59.08 20.32 59.08 25.66 58.98 30.99 C 57.37 31.80 55.73 32.54 54.06 33.19 C 54.01 27.52 53.99 21.85 54.04 16.17 Z" />
<path fill="#c0d5ec" opacity="1.00" d=" M 20.20 23.11 C 28.06 23.06 35.96 22.66 43.81 23.14 C 46.09 25.37 45.67 29.20 45.79 32.16 C 44.54 32.26 43.28 32.33 42.03 32.20 C 41.71 30.19 42.78 27.45 40.74 26.14 C 34.91 26.04 29.03 25.56 23.22 26.16 C 21.30 27.44 22.27 30.04 21.95 31.97 C 20.73 32.78 19.52 33.61 18.23 34.29 C 18.03 30.64 17.86 26.08 20.20 23.11 Z" />
</g>
<g id="#52525dff">
<path fill="#52525d" opacity="1.00" d=" M 9.96 16.17 L 10.93 15.94 C 10.92 26.70 11.38 37.49 10.69 48.24 C 10.06 43.24 10.02 38.21 9.92 33.19 C 9.99 27.51 10.01 21.84 9.96 16.17 Z" />
<path fill="#52525d" opacity="1.00" d=" M 53.07 15.97 L 54.04 16.17 C 53.99 21.85 54.01 27.52 54.06 33.19 C 54.19 38.81 53.19 44.64 55.00 50.09 C 54.53 49.77 53.58 49.13 53.10 48.81 C 52.95 37.86 52.88 26.91 53.07 15.97 Z" />
</g>
<g id="#070707c2">
<path fill="#070707" opacity="0.76" d=" M 12.01 15.99 L 12.98 16.01 C 13.09 21.69 12.90 27.36 13.04 33.04 C 14.03 32.38 14.96 31.64 15.95 30.98 C 16.11 33.42 13.68 34.71 12.10 36.14 C 11.79 29.43 12.08 22.70 12.01 15.99 Z" />
<path fill="#070707" opacity="0.76" d=" M 51.03 16.02 L 51.99 15.98 C 52.01 22.73 52.06 29.48 51.89 36.23 C 50.46 34.97 48.84 33.74 48.06 31.96 C 49.06 32.23 50.05 32.54 51.03 32.86 C 51.10 27.25 50.85 21.63 51.03 16.02 Z" />
</g>
<g id="#c2b5daff">
<path fill="#c2b5da" opacity="1.00" d=" M 5.03 30.99 C 6.63 31.80 8.25 32.54 9.92 33.19 C 10.02 38.21 10.06 43.24 10.69 48.24 C 10.66 50.74 6.18 50.65 5.14 48.78 C 4.94 42.85 4.87 36.92 5.03 30.99 Z" />
<path fill="#c2b5da" opacity="1.00" d=" M 54.06 33.19 C 55.73 32.54 57.37 31.80 58.98 30.99 C 58.92 36.92 59.32 42.89 58.85 48.80 C 58.05 50.22 56.40 50.03 55.00 50.09 C 53.19 44.64 54.19 38.81 54.06 33.19 Z" />
<path fill="#c2b5da" opacity="1.00" d=" M 18.23 34.29 C 19.52 33.61 20.73 32.78 21.95 31.97 C 28.65 31.97 35.34 31.97 42.03 32.20 C 43.28 32.33 44.54 32.26 45.79 32.16 C 45.18 36.39 52.72 35.30 48.81 40.93 C 47.55 44.22 48.25 50.85 42.09 47.99 C 42.08 47.50 42.05 46.51 42.04 46.02 C 42.04 44.70 41.99 43.37 41.90 42.05 C 35.30 41.90 28.70 41.90 22.10 42.05 C 22.01 43.37 21.96 44.70 21.96 46.02 C 21.95 46.51 21.92 47.50 21.91 47.99 C 15.04 50.89 15.68 41.57 15.00 37.98 C 14.31 35.74 16.82 35.24 18.23 34.29 Z" />
</g>
<g id="#827d93ff">
<path fill="#827d93" opacity="1.00" d=" M 22.10 42.05 C 28.70 41.90 35.30 41.90 41.90 42.05 C 41.99 43.37 42.04 44.70 42.04 46.02 C 38.96 45.92 43.88 37.63 35.99 42.98 C 32.01 42.92 28.04 42.93 24.06 43.02 C 21.81 42.41 24.19 46.54 21.96 46.02 C 21.96 44.70 22.01 43.37 22.10 42.05 Z" />
</g>
</svg>
