<?xml version="1.0" encoding="UTF-8" ?>
<!DOCTYPE svg PUBLIC "-//W3C//DTD SVG 1.1//EN" "http://www.w3.org/Graphics/SVG/1.1/DTD/svg11.dtd">
<svg width="64pt" height="64pt" viewBox="0 0 64 64" version="1.1" xmlns="http://www.w3.org/2000/svg">
<g id="#000000ff">
<path fill="#000000" opacity="1.00" d=" M 3.41 2.38 C 19.16 2.18 34.91 2.28 50.66 2.33 C 51.30 12.41 50.86 22.55 51.00 32.66 C 53.07 31.42 55.38 29.58 57.89 30.91 C 61.26 31.91 60.79 36.62 59.02 38.86 C 57.79 40.35 56.49 41.79 55.29 43.30 C 55.42 43.53 55.68 43.98 55.81 44.21 C 57.46 47.20 59.33 50.11 60.57 53.31 C 60.92 56.16 58.57 58.94 56.00 59.92 C 52.30 58.64 50.86 54.22 48.02 51.70 C 47.14 52.73 46.27 53.76 45.41 54.80 C 46.75 58.13 44.71 61.00 42.00 62.76 C 38.81 59.85 35.75 56.75 31.83 54.81 C 32.17 52.08 34.01 48.62 37.27 49.27 C 39.37 49.72 39.97 47.06 41.19 45.95 C 38.27 44.43 35.19 43.21 32.40 41.46 C 30.49 40.43 31.95 38.00 32.66 36.70 C 26.45 36.82 20.25 36.66 14.04 36.75 C 13.68 43.64 14.35 50.56 13.60 57.42 C 10.22 57.63 6.83 57.62 3.45 57.42 C 2.88 54.32 2.86 51.17 2.95 48.04 C 3.01 37.68 2.95 27.31 2.96 16.95 C 3.14 12.09 2.60 7.20 3.41 2.38 M 5.26 4.55 C 5.33 12.28 5.34 20.01 5.34 27.74 C 5.10 36.95 5.39 46.17 5.35 55.39 C 7.47 55.31 9.59 55.26 11.71 55.25 C 11.70 48.33 11.74 41.42 11.77 34.50 C 15.86 34.25 19.97 34.46 24.06 34.40 C 24.06 31.09 24.08 27.78 24.10 24.47 C 22.73 24.48 21.35 24.50 19.98 24.52 C 17.21 24.54 14.43 24.51 11.66 24.51 C 11.68 21.11 11.70 17.72 11.70 14.33 C 15.83 14.32 19.95 14.32 24.08 14.32 C 24.06 11.05 24.07 7.77 24.05 4.50 C 17.79 4.49 11.53 4.50 5.26 4.55 M 36.67 4.46 C 36.77 7.74 36.73 11.02 36.69 14.30 C 40.69 14.33 44.70 14.32 48.70 14.32 C 48.72 11.06 48.75 7.80 48.70 4.55 C 44.69 4.47 40.68 4.53 36.67 4.46 M 24.28 14.61 C 24.30 17.82 24.32 21.04 24.33 24.25 C 28.38 24.23 32.42 24.24 36.46 24.25 C 36.45 21.02 36.45 17.79 36.62 14.56 C 32.51 14.20 28.39 14.54 24.28 14.61 M 36.70 24.47 C 36.75 27.62 36.76 30.77 36.61 33.91 C 40.59 34.68 44.66 34.36 48.68 34.38 C 48.71 31.10 48.74 27.81 48.69 24.53 C 44.69 24.46 40.70 24.49 36.70 24.47 M 53.05 34.01 C 51.79 36.08 50.24 37.96 48.59 39.73 C 44.50 38.48 40.36 37.42 36.29 36.13 C 35.45 37.36 34.60 38.59 33.76 39.82 C 37.48 41.41 40.99 43.45 44.73 45.01 C 44.38 45.54 43.69 46.62 43.34 47.15 C 42.03 48.87 40.65 50.54 39.23 52.18 C 38.44 51.96 36.85 51.53 36.05 51.31 C 35.66 51.92 34.86 53.15 34.47 53.76 C 37.51 55.09 39.92 57.39 42.06 59.88 C 42.50 59.26 43.39 58.02 43.83 57.40 C 43.28 56.50 42.73 55.60 42.18 54.70 C 44.08 52.75 45.87 50.70 47.56 48.57 L 46.88 48.34 C 47.33 48.32 48.22 48.28 48.67 48.27 C 50.84 51.07 52.80 54.03 55.15 56.69 C 57.01 57.39 57.64 55.19 58.67 54.16 C 57.49 51.99 56.35 49.81 55.10 47.68 C 54.25 46.16 53.36 44.64 52.83 42.96 C 54.14 40.29 57.19 38.76 57.97 35.80 C 58.64 34.22 57.32 33.06 56.18 32.22 C 55.14 32.82 54.10 33.41 53.05 34.01 Z" />
</g>
<g id="#f8f7f8ff">
<path fill="#f8f7f8" opacity="1.00" d=" M 5.26 4.55 C 11.53 4.50 17.79 4.49 24.05 4.50 C 24.07 7.77 24.06 11.05 24.08 14.32 C 19.95 14.32 15.83 14.32 11.70 14.33 C 11.70 17.72 11.68 21.11 11.66 24.51 C 14.43 24.51 17.21 24.54 19.98 24.52 C 19.78 25.24 19.36 26.68 19.16 27.40 C 14.79 27.37 10.40 27.28 6.04 27.66 L 5.34 27.74 C 5.34 20.01 5.33 12.28 5.26 4.55 Z" />
<path fill="#f8f7f8" opacity="1.00" d=" M 36.67 4.46 C 40.68 4.53 44.69 4.47 48.70 4.55 C 48.75 7.80 48.72 11.06 48.70 14.32 C 44.70 14.32 40.69 14.33 36.69 14.30 C 36.73 11.02 36.77 7.74 36.67 4.46 Z" />
<path fill="#f8f7f8" opacity="1.00" d=" M 24.28 14.61 C 28.39 14.54 32.51 14.20 36.62 14.56 C 36.45 17.79 36.45 21.02 36.46 24.25 C 32.42 24.24 28.38 24.23 24.33 24.25 C 24.32 21.04 24.30 17.82 24.28 14.61 Z" />
</g>
<g id="#e1e1e1ff">
<path fill="#e1e1e1" opacity="1.00" d=" M 36.70 24.47 C 40.70 24.49 44.69 24.46 48.69 24.53 C 48.74 27.81 48.71 31.10 48.68 34.38 C 44.66 34.36 40.59 34.68 36.61 33.91 C 36.76 30.77 36.75 27.62 36.70 24.47 Z" />
<path fill="#e1e1e1" opacity="1.00" d=" M 19.98 24.52 C 21.35 24.50 22.73 24.48 24.10 24.47 C 24.08 27.78 24.06 31.09 24.06 34.40 C 19.97 34.46 15.86 34.25 11.77 34.50 L 11.39 34.55 C 10.98 36.25 10.64 37.97 10.29 39.68 C 8.99 39.68 7.69 39.67 6.39 39.67 C 6.12 35.67 5.99 31.66 6.04 27.66 C 10.40 27.28 14.79 27.37 19.16 27.40 C 19.36 26.68 19.78 25.24 19.98 24.52 Z" />
</g>
<g id="#cacacaff">
<path fill="#cacaca" opacity="1.00" d=" M 5.34 27.74 L 6.04 27.66 C 5.99 31.66 6.12 35.67 6.39 39.67 C 7.69 39.67 8.99 39.68 10.29 39.68 C 10.64 37.97 10.98 36.25 11.39 34.55 L 11.77 34.50 C 11.74 41.42 11.70 48.33 11.71 55.25 C 9.59 55.26 7.47 55.31 5.35 55.39 C 5.39 46.17 5.10 36.95 5.34 27.74 Z" />
</g>
<g id="#75dae8ff">
<path fill="#75dae8" opacity="1.00" d=" M 53.05 34.01 C 54.10 33.41 55.14 32.82 56.18 32.22 C 57.32 33.06 58.64 34.22 57.97 35.80 C 57.19 38.76 54.14 40.29 52.83 42.96 C 53.36 44.64 54.25 46.16 55.10 47.68 C 52.96 47.86 50.82 48.08 48.67 48.27 C 48.22 48.28 47.33 48.32 46.88 48.34 C 45.69 47.96 44.51 47.56 43.34 47.15 C 43.69 46.62 44.38 45.54 44.73 45.01 C 40.99 43.45 37.48 41.41 33.76 39.82 C 34.60 38.59 35.45 37.36 36.29 36.13 C 40.36 37.42 44.50 38.48 48.59 39.73 C 50.24 37.96 51.79 36.08 53.05 34.01 Z" />
</g>
<g id="#00000066">
<path fill="#000000" opacity="0.40" d=" M 55.29 43.30 C 56.49 41.79 57.79 40.35 59.02 38.86 C 59.76 40.46 60.03 42.20 60.19 43.94 C 58.73 44.08 57.27 44.17 55.81 44.21 C 55.68 43.98 55.42 43.53 55.29 43.30 Z" />
</g>
<g id="#6bb3c3ff">
<path fill="#6bb3c3" opacity="1.00" d=" M 39.23 52.18 C 40.65 50.54 42.03 48.87 43.34 47.15 C 44.51 47.56 45.69 47.96 46.88 48.34 L 47.56 48.57 C 45.87 50.70 44.08 52.75 42.18 54.70 C 42.73 55.60 43.28 56.50 43.83 57.40 C 43.39 58.02 42.50 59.26 42.06 59.88 C 39.92 57.39 37.51 55.09 34.47 53.76 C 34.86 53.15 35.66 51.92 36.05 51.31 C 36.85 51.53 38.44 51.96 39.23 52.18 Z" />
<path fill="#6bb3c3" opacity="1.00" d=" M 48.67 48.27 C 50.82 48.08 52.96 47.86 55.10 47.68 C 56.35 49.81 57.49 51.99 58.67 54.16 C 57.64 55.19 57.01 57.39 55.15 56.69 C 52.80 54.03 50.84 51.07 48.67 48.27 Z" />
</g>
</svg>
