<?xml version="1.0" encoding="UTF-8" ?>
<!DOCTYPE svg PUBLIC "-//W3C//DTD SVG 1.1//EN" "http://www.w3.org/Graphics/SVG/1.1/DTD/svg11.dtd">
<svg width="64pt" height="64pt" viewBox="0 0 64 64" version="1.1" xmlns="http://www.w3.org/2000/svg">
<g id="#030303ff">
<path fill="#030303" opacity="1.00" d=" M 17.20 19.64 C 17.36 17.24 15.79 13.88 18.02 12.15 C 27.60 11.84 37.20 11.85 46.78 12.20 C 46.95 14.68 46.97 17.16 46.82 19.64 C 46.10 19.79 44.64 20.09 43.91 20.23 C 43.85 22.70 44.51 25.34 43.53 27.68 C 41.93 29.50 39.77 30.73 37.89 32.23 C 39.80 33.84 42.05 35.10 43.71 36.98 C 44.29 39.56 43.95 42.22 43.92 44.83 C 44.65 44.96 46.12 45.22 46.85 45.35 C 46.93 47.49 46.92 49.64 46.80 51.78 C 36.95 52.15 27.06 52.00 17.21 51.81 C 16.96 49.66 16.90 47.48 17.17 45.33 C 17.89 45.20 19.34 44.94 20.06 44.81 C 20.01 42.22 19.69 39.58 20.28 37.03 C 21.87 35.08 24.21 33.87 26.11 32.23 C 23.87 30.11 19.56 28.81 19.94 25.03 C 19.91 23.43 20.00 21.84 20.07 20.24 C 19.35 20.09 17.92 19.79 17.20 19.64 M 19.07 14.00 C 19.07 15.33 19.07 16.66 19.07 18.00 C 19.80 18.01 21.25 18.04 21.97 18.05 C 21.96 20.80 22.02 23.55 22.04 26.30 C 24.72 28.27 27.38 30.28 30.14 32.15 C 27.31 33.91 25.07 36.51 22.06 37.98 C 21.96 40.97 21.96 43.95 21.98 46.94 C 21.26 46.96 19.81 47.00 19.08 47.01 C 19.08 47.76 19.07 49.25 19.07 50.00 C 27.69 50.03 36.31 50.03 44.93 50.00 C 44.92 49.25 44.92 47.76 44.92 47.01 C 44.19 47.00 42.73 46.97 42.00 46.96 C 42.03 43.97 42.04 40.98 41.94 37.99 C 38.98 36.44 36.60 34.03 33.84 32.16 C 36.49 30.12 39.56 28.51 41.88 26.10 C 42.13 23.42 42.00 20.73 42.02 18.05 C 42.74 18.04 44.20 18.01 44.92 18.00 C 44.92 16.66 44.93 15.33 44.93 14.00 C 36.31 13.97 27.69 13.97 19.07 14.00 Z" />
<path fill="#030303" opacity="1.00" d=" M 24.85 23.06 C 29.62 23.04 34.39 23.04 39.16 23.07 C 38.88 26.94 34.21 28.00 32.00 30.66 C 29.79 28.01 25.08 26.95 24.85 23.06 Z" />
<path fill="#030303" opacity="1.00" d=" M 24.94 45.95 C 24.00 41.27 29.58 40.20 32.00 37.35 C 34.41 40.22 40.03 41.26 39.05 45.96 C 34.35 45.98 29.64 45.99 24.94 45.95 Z" />
</g>
<g id="#fafbfaff">
<path fill="#fafbfa" opacity="1.00" d=" M 19.07 14.00 C 27.69 13.97 36.31 13.97 44.93 14.00 C 44.93 15.33 44.92 16.66 44.92 18.00 C 44.20 18.01 42.74 18.04 42.02 18.05 C 42.00 20.73 42.13 23.42 41.88 26.10 C 39.56 28.51 36.49 30.12 33.84 32.16 C 36.60 34.03 38.98 36.44 41.94 37.99 C 42.04 40.98 42.03 43.97 42.00 46.96 C 42.73 46.97 44.19 47.00 44.92 47.01 C 44.92 47.76 44.92 49.25 44.93 50.00 C 36.31 50.03 27.69 50.03 19.07 50.00 C 19.07 49.25 19.08 47.76 19.08 47.01 C 19.81 47.00 21.26 46.96 21.98 46.94 C 21.96 43.95 21.96 40.97 22.06 37.98 C 25.07 36.51 27.31 33.91 30.14 32.15 C 27.38 30.28 24.72 28.27 22.04 26.30 C 22.02 23.55 21.96 20.80 21.97 18.05 C 21.25 18.04 19.80 18.01 19.07 18.00 C 19.07 16.66 19.07 15.33 19.07 14.00 M 24.85 23.06 C 25.08 26.95 29.79 28.01 32.00 30.66 C 34.21 28.00 38.88 26.94 39.16 23.07 C 34.39 23.04 29.62 23.04 24.85 23.06 M 24.94 45.95 C 29.64 45.99 34.35 45.98 39.05 45.96 C 40.03 41.26 34.41 40.22 32.00 37.35 C 29.58 40.20 24.00 41.27 24.94 45.95 Z" />
</g>
</svg>
