<?xml version="1.0" encoding="UTF-8" ?>
<!DOCTYPE svg PUBLIC "-//W3C//DTD SVG 1.1//EN" "http://www.w3.org/Graphics/SVG/1.1/DTD/svg11.dtd">
<svg width="64pt" height="64pt" viewBox="0 0 64 64" version="1.1" xmlns="http://www.w3.org/2000/svg">
<g id="#2929292f">
<path fill="#292929" opacity="0.18" d=" M 22.42 18.26 C 24.42 18.22 26.42 18.20 28.42 18.17 C 28.43 19.90 28.46 21.62 28.48 23.34 C 39.61 23.42 50.75 23.35 61.89 23.37 C 61.94 28.14 61.92 32.92 61.83 37.69 C 52.04 37.61 42.26 37.57 32.48 37.69 C 31.87 39.49 31.25 41.30 30.65 43.10 C 24.74 42.97 18.84 42.96 12.94 43.13 C 12.93 41.38 12.93 39.64 12.93 37.89 C 10.45 37.66 7.96 37.64 5.47 37.64 C 5.32 37.06 5.02 35.90 4.86 35.32 C 4.20 35.19 2.87 34.93 2.21 34.81 C 2.10 31.18 2.02 27.55 2.17 23.93 C 3.52 23.17 4.71 22.19 5.63 20.93 C 8.21 20.61 10.81 20.52 13.41 20.41 C 14.03 21.46 14.65 22.51 15.27 23.56 C 16.16 23.44 17.06 23.33 17.96 23.21 C 19.46 21.58 21.00 19.97 22.42 18.26 M 23.54 19.99 C 23.50 20.60 23.43 21.80 23.39 22.40 C 22.73 22.44 21.40 22.50 20.74 22.54 C 20.73 23.21 20.70 24.55 20.69 25.22 C 18.85 25.27 17.00 25.29 15.16 25.33 C 15.09 27.07 15.02 28.81 14.95 30.55 C 13.20 30.53 11.45 30.50 9.69 30.48 C 9.71 29.85 9.74 28.60 9.76 27.97 C 10.44 27.94 11.80 27.88 12.49 27.85 C 12.48 26.05 12.48 24.26 12.48 22.46 C 10.56 22.46 8.64 22.47 6.72 22.49 C 6.73 23.16 6.75 24.50 6.75 25.17 C 6.07 25.22 4.69 25.31 4.00 25.35 C 4.04 27.94 4.07 30.53 4.09 33.12 C 4.71 33.18 5.97 33.29 6.60 33.35 C 6.67 33.95 6.81 35.15 6.89 35.75 C 9.61 35.72 12.34 35.71 15.07 35.72 C 15.08 37.45 15.11 39.17 15.12 40.90 C 19.85 40.94 24.58 40.98 29.31 40.83 C 29.29 39.13 29.28 37.42 29.26 35.72 C 39.48 35.69 49.69 35.73 59.90 35.69 C 59.90 32.22 59.93 28.75 59.99 25.28 C 48.81 25.29 37.64 25.32 26.46 25.27 C 26.48 23.54 26.49 21.81 26.51 20.08 C 25.76 20.06 24.28 20.02 23.54 19.99 Z" />
</g>
<g id="#000000ff">
<path fill="#000000" opacity="1.00" d=" M 23.54 19.99 C 24.28 20.02 25.76 20.06 26.51 20.08 C 26.49 21.81 26.48 23.54 26.46 25.27 C 37.64 25.32 48.81 25.29 59.99 25.28 C 59.93 28.75 59.90 32.22 59.90 35.69 C 49.69 35.73 39.48 35.69 29.26 35.72 C 29.28 37.42 29.29 39.13 29.31 40.83 C 24.58 40.98 19.85 40.94 15.12 40.90 C 15.11 39.17 15.08 37.45 15.07 35.72 C 12.34 35.71 9.61 35.72 6.89 35.75 C 6.81 35.15 6.67 33.95 6.60 33.35 C 5.97 33.29 4.71 33.18 4.09 33.12 C 4.07 30.53 4.04 27.94 4.00 25.35 C 4.69 25.31 6.07 25.22 6.75 25.17 C 6.75 24.50 6.73 23.16 6.72 22.49 C 8.64 22.47 10.56 22.46 12.48 22.46 C 12.48 24.26 12.48 26.05 12.49 27.85 C 11.80 27.88 10.44 27.94 9.76 27.97 C 9.74 28.60 9.71 29.85 9.69 30.48 C 11.45 30.50 13.20 30.53 14.95 30.55 C 15.02 28.81 15.09 27.07 15.16 25.33 C 17.00 25.29 18.85 25.27 20.69 25.22 C 20.70 24.55 20.73 23.21 20.74 22.54 C 21.40 22.50 22.73 22.44 23.39 22.40 C 23.43 21.80 23.50 20.60 23.54 19.99 Z" />
</g>
</svg>
