<?xml version="1.0" encoding="UTF-8" ?>
<!DOCTYPE svg PUBLIC "-//W3C//DTD SVG 1.1//EN" "http://www.w3.org/Graphics/SVG/1.1/DTD/svg11.dtd">
<svg width="64pt" height="64pt" viewBox="0 0 64 64" version="1.1" xmlns="http://www.w3.org/2000/svg">
<g id="#060706fb">
<path fill="#060706" opacity="1.00" d=" M 19.47 6.60 C 26.19 2.81 34.52 2.24 41.86 4.42 C 49.14 6.49 55.08 12.62 56.88 19.98 C 57.28 21.80 58.05 24.05 56.47 25.53 C 52.33 26.01 48.14 25.57 43.99 25.80 C 42.49 23.69 41.35 21.33 39.65 19.36 C 35.56 15.42 28.04 16.19 24.77 20.82 C 22.03 24.56 21.42 29.41 21.67 33.92 C 21.94 38.14 23.38 42.63 26.85 45.30 C 31.32 48.39 38.88 47.75 41.35 42.41 C 42.55 40.37 42.13 37.45 43.93 35.82 C 48.39 35.51 52.86 35.79 57.32 35.77 C 58.64 42.80 55.28 50.33 49.96 54.95 C 38.82 64.60 19.50 62.24 11.27 49.90 C 6.26 42.97 5.50 33.99 6.62 25.74 C 7.95 17.95 12.44 10.48 19.47 6.60 M 18.21 10.20 C 11.73 15.17 8.65 23.52 8.42 31.49 C 7.85 41.12 12.60 51.23 21.34 55.75 C 28.96 59.40 38.65 59.69 45.90 54.99 C 51.68 51.42 55.08 44.69 55.49 38.01 C 52.05 37.98 48.60 37.99 45.16 38.00 C 44.29 41.14 43.46 44.59 40.96 46.88 C 36.27 50.62 29.00 50.34 24.51 46.41 C 20.48 42.63 19.47 36.88 19.19 31.60 C 19.37 26.06 21.13 20.42 25.39 16.64 C 28.94 14.96 33.01 13.55 36.87 15.12 C 40.98 16.06 43.70 19.63 44.83 23.51 C 48.30 23.49 51.78 23.43 55.26 23.35 C 54.26 15.05 47.75 7.98 39.64 6.12 C 32.35 4.71 24.26 5.60 18.21 10.20 Z" />
</g>
<g id="#f6f5f6ff">
<path fill="#f6f5f6" opacity="1.00" d=" M 18.21 10.20 C 24.26 5.60 32.35 4.71 39.64 6.12 C 47.75 7.98 54.26 15.05 55.26 23.35 C 51.78 23.43 48.30 23.49 44.83 23.51 C 43.70 19.63 40.98 16.06 36.87 15.12 C 33.01 13.55 28.94 14.96 25.39 16.64 C 21.13 20.42 19.37 26.06 19.19 31.60 C 15.60 31.58 12.01 31.55 8.42 31.49 C 8.65 23.52 11.73 15.17 18.21 10.20 Z" />
</g>
<g id="#d0cfd0ff">
<path fill="#d0cfd0" opacity="1.00" d=" M 8.42 31.49 C 12.01 31.55 15.60 31.58 19.19 31.60 C 19.47 36.88 20.48 42.63 24.51 46.41 C 29.00 50.34 36.27 50.62 40.96 46.88 C 43.46 44.59 44.29 41.14 45.16 38.00 C 48.60 37.99 52.05 37.98 55.49 38.01 C 55.08 44.69 51.68 51.42 45.90 54.99 C 38.65 59.69 28.96 59.40 21.34 55.75 C 12.60 51.23 7.85 41.12 8.42 31.49 Z" />
</g>
</svg>
