<?xml version="1.0" encoding="UTF-8" ?>
<!DOCTYPE svg PUBLIC "-//W3C//DTD SVG 1.1//EN" "http://www.w3.org/Graphics/SVG/1.1/DTD/svg11.dtd">
<svg width="64pt" height="64pt" viewBox="0 0 64 64" version="1.1" xmlns="http://www.w3.org/2000/svg">
<g id="#030403fc">
<path fill="#030403" opacity="1.00" d=" M 6.68 6.64 C 10.86 6.16 15.11 6.30 19.28 6.76 C 19.53 9.73 19.57 12.72 19.48 15.70 C 21.30 15.72 23.12 15.74 24.95 15.76 C 24.83 12.70 24.88 9.63 25.38 6.61 C 29.79 6.32 34.22 6.30 38.63 6.62 C 39.11 9.64 39.16 12.71 39.05 15.76 C 40.87 15.74 42.70 15.72 44.52 15.70 C 44.98 12.84 43.37 8.96 45.45 6.69 C 49.15 6.13 52.97 6.36 56.70 6.53 C 58.85 6.80 58.43 9.44 58.52 10.99 C 58.53 25.68 58.68 40.38 58.44 55.07 C 58.68 56.54 57.30 57.76 55.89 57.56 C 50.50 57.53 45.08 57.88 39.72 57.24 C 39.11 51.48 39.89 45.67 39.25 39.92 C 38.49 35.93 35.04 33.37 31.80 31.35 C 28.58 33.47 25.12 36.09 24.44 40.15 C 23.99 45.12 24.48 50.12 24.26 55.10 C 24.41 56.39 23.35 57.79 21.95 57.56 C 16.88 57.50 11.76 57.87 6.71 57.37 C 6.42 57.04 5.84 56.38 5.55 56.05 C 5.32 40.03 5.32 23.97 5.55 7.95 C 5.83 7.62 6.40 6.97 6.68 6.64 M 7.75 8.74 C 7.71 24.25 7.71 39.75 7.75 55.26 C 12.48 55.26 17.21 55.20 21.93 55.33 C 22.07 50.21 21.78 45.08 22.12 39.97 C 22.65 34.77 27.18 31.45 31.21 28.82 C 37.15 30.72 42.36 36.51 41.71 43.03 C 41.67 47.07 41.72 51.12 41.65 55.16 C 46.51 55.38 51.39 55.19 56.25 55.26 C 56.25 39.75 56.25 24.25 56.25 8.74 C 53.11 8.76 49.96 8.76 46.82 8.69 C 46.66 11.80 46.67 14.92 46.67 18.04 C 43.33 18.04 40.00 18.02 36.66 17.96 C 36.71 14.88 36.71 11.80 36.71 8.71 C 33.57 8.76 30.43 8.76 27.29 8.72 C 27.29 11.79 27.28 14.86 27.34 17.94 C 24.00 17.99 20.66 18.04 17.33 18.04 C 17.33 14.92 17.35 11.79 17.16 8.67 C 14.03 8.76 10.89 8.76 7.75 8.74 Z" />
</g>
<g id="#ffffffff">
<path fill="#ffffff" opacity="1.00" d=" M 7.75 8.74 C 10.89 8.76 14.03 8.76 17.16 8.67 C 17.35 11.79 17.33 14.92 17.33 18.04 C 20.66 18.04 24.00 17.99 27.34 17.94 C 27.28 14.86 27.29 11.79 27.29 8.72 C 30.43 8.76 33.57 8.76 36.71 8.71 C 36.71 11.80 36.71 14.88 36.66 17.96 C 40.00 18.02 43.33 18.04 46.67 18.04 C 46.67 14.92 46.66 11.80 46.82 8.69 C 49.96 8.76 53.11 8.76 56.25 8.74 C 56.25 24.25 56.25 39.75 56.25 55.26 C 51.39 55.19 46.51 55.38 41.65 55.16 C 41.72 51.12 41.67 47.07 41.71 43.03 C 42.36 36.51 37.15 30.72 31.21 28.82 C 27.18 31.45 22.65 34.77 22.12 39.97 C 21.78 45.08 22.07 50.21 21.93 55.33 C 17.21 55.20 12.48 55.26 7.75 55.26 C 7.71 39.75 7.71 24.25 7.75 8.74 Z" />
</g>
</svg>
