<?xml version="1.0" encoding="UTF-8" ?>
<!DOCTYPE svg PUBLIC "-//W3C//DTD SVG 1.1//EN" "http://www.w3.org/Graphics/SVG/1.1/DTD/svg11.dtd">
<svg width="64pt" height="64pt" viewBox="0 0 64 64" version="1.1" xmlns="http://www.w3.org/2000/svg">
<g id="#010101ff">
<path fill="#010101" opacity="1.00" d=" M 4.70 5.76 C 22.88 5.61 41.07 5.57 59.25 5.78 C 60.55 9.72 59.72 13.94 60.01 18.01 C 59.72 30.32 60.38 42.64 59.80 54.94 C 59.64 55.24 59.33 55.83 59.18 56.12 C 53.89 57.14 48.37 56.32 43.00 56.26 C 35.33 56.30 27.67 56.25 20.01 56.29 C 15.14 56.52 10.24 56.85 5.38 56.36 C 3.96 55.98 4.13 54.16 4.06 53.03 C 3.99 38.68 3.88 24.34 4.04 10.00 C 4.04 8.56 4.28 7.13 4.70 5.76 M 6.31 7.93 C 6.38 14.82 6.22 21.72 6.48 28.61 C 5.90 37.18 6.51 45.80 6.35 54.40 C 9.33 54.32 12.31 54.29 15.29 54.27 C 15.15 52.28 15.38 50.28 15.25 48.29 C 26.33 48.25 37.42 48.26 48.50 48.29 C 48.45 50.31 48.50 52.34 48.76 54.35 C 51.72 54.30 54.68 54.31 57.63 54.38 C 57.56 46.71 58.00 39.03 57.52 31.37 C 57.77 23.56 57.62 15.74 57.69 7.93 C 40.56 7.92 23.44 7.92 6.31 7.93 Z" />
<path fill="#010101" opacity="1.00" d=" M 15.24 18.32 C 26.34 18.31 37.43 18.31 48.53 18.32 C 48.52 18.80 48.51 19.77 48.50 20.25 C 48.48 21.81 48.47 23.38 48.45 24.94 C 37.41 24.96 26.36 24.95 15.32 24.95 C 15.30 23.37 15.28 21.79 15.27 20.22 C 15.26 19.74 15.25 18.79 15.24 18.32 Z" />
<path fill="#010101" opacity="1.00" d=" M 15.26 28.04 C 26.35 28.07 37.45 28.01 48.54 28.08 C 48.53 29.25 48.51 30.41 48.50 31.58 C 48.49 32.44 48.47 34.16 48.46 35.02 C 37.41 35.06 26.36 35.06 15.31 35.02 C 15.30 34.17 15.29 32.46 15.29 31.60 C 15.28 30.42 15.27 29.23 15.26 28.04 Z" />
<path fill="#010101" opacity="1.00" d=" M 15.34 38.00 C 26.39 38.08 37.44 38.01 48.49 38.04 C 48.49 38.43 48.48 39.21 48.47 39.60 C 48.48 41.51 48.46 43.41 48.45 45.32 C 37.40 45.31 26.36 45.32 15.31 45.31 C 15.31 43.39 15.25 41.48 15.28 39.56 C 15.30 39.17 15.33 38.39 15.34 38.00 Z" />
</g>
<g id="#d1c7b4ff">
<path fill="#d1c7b4" opacity="1.00" d=" M 6.31 7.93 C 23.44 7.92 40.56 7.92 57.69 7.93 C 57.62 15.74 57.77 23.56 57.52 31.37 L 57.44 32.43 C 57.17 28.46 56.76 24.49 56.49 20.52 C 53.82 20.47 51.16 20.29 48.50 20.25 C 48.51 19.77 48.52 18.80 48.53 18.32 C 37.43 18.31 26.34 18.31 15.24 18.32 C 15.25 18.79 15.26 19.74 15.27 20.22 C 12.73 20.28 10.20 20.50 7.66 20.58 C 7.42 22.88 7.01 25.16 6.69 27.45 L 6.48 28.61 C 6.22 21.72 6.38 14.82 6.31 7.93 Z" />
</g>
<g id="#b8b0a7ff">
<path fill="#b8b0a7" opacity="1.00" d=" M 7.66 20.58 C 10.20 20.50 12.73 20.28 15.27 20.22 C 15.28 21.79 15.30 23.37 15.32 24.95 C 26.36 24.95 37.41 24.96 48.45 24.94 C 48.47 23.38 48.48 21.81 48.50 20.25 C 51.16 20.29 53.82 20.47 56.49 20.52 C 56.76 24.49 57.17 28.46 57.44 32.43 C 57.35 33.69 57.23 34.94 57.06 36.19 C 54.18 34.70 51.33 33.15 48.50 31.58 C 48.51 30.41 48.53 29.25 48.54 28.08 C 37.45 28.01 26.35 28.07 15.26 28.04 C 15.27 29.23 15.28 30.42 15.29 31.60 C 12.55 33.21 9.77 34.75 6.96 36.21 C 6.87 33.29 6.74 30.37 6.69 27.45 C 7.01 25.16 7.42 22.88 7.66 20.58 Z" />
</g>
<g id="#959593ff">
<path fill="#959593" opacity="1.00" d=" M 6.48 28.61 L 6.69 27.45 C 6.74 30.37 6.87 33.29 6.96 36.21 C 6.96 38.76 7.77 41.18 8.88 43.45 C 11.03 42.18 13.23 40.99 15.28 39.56 C 15.25 41.48 15.31 43.39 15.31 45.31 C 26.36 45.32 37.40 45.31 48.45 45.32 C 48.46 43.41 48.48 41.51 48.47 39.60 C 50.72 41.10 53.12 42.38 55.74 43.11 C 56.26 40.82 56.75 38.52 57.06 36.19 C 57.23 34.94 57.35 33.69 57.44 32.43 L 57.52 31.37 C 58.00 39.03 57.56 46.71 57.63 54.38 C 54.68 54.31 51.72 54.30 48.76 54.35 C 48.50 52.34 48.45 50.31 48.50 48.29 C 37.42 48.26 26.33 48.25 15.25 48.29 C 15.38 50.28 15.15 52.28 15.29 54.27 C 12.31 54.29 9.33 54.32 6.35 54.40 C 6.51 45.80 5.90 37.18 6.48 28.61 Z" />
</g>
<g id="#a7a29aff">
<path fill="#a7a29a" opacity="1.00" d=" M 6.96 36.21 C 9.77 34.75 12.55 33.21 15.29 31.60 C 15.29 32.46 15.30 34.17 15.31 35.02 C 26.36 35.06 37.41 35.06 48.46 35.02 C 48.47 34.16 48.49 32.44 48.50 31.58 C 51.33 33.15 54.18 34.70 57.06 36.19 C 56.75 38.52 56.26 40.82 55.74 43.11 C 53.12 42.38 50.72 41.10 48.47 39.60 C 48.48 39.21 48.49 38.43 48.49 38.04 C 37.44 38.01 26.39 38.08 15.34 38.00 C 15.33 38.39 15.30 39.17 15.28 39.56 C 13.23 40.99 11.03 42.18 8.88 43.45 C 7.77 41.18 6.96 38.76 6.96 36.21 Z" />
</g>
</svg>
