<?xml version="1.0" encoding="UTF-8" ?>
<!DOCTYPE svg PUBLIC "-//W3C//DTD SVG 1.1//EN" "http://www.w3.org/Graphics/SVG/1.1/DTD/svg11.dtd">
<svg width="64pt" height="64pt" viewBox="0 0 64 64" version="1.1" xmlns="http://www.w3.org/2000/svg">
<g id="#010201ff">
<path fill="#010201" opacity="1.00" d=" M 7.98 20.25 C 15.67 15.10 23.05 9.46 31.00 4.72 C 36.95 3.75 40.65 9.94 45.54 12.30 C 45.58 12.33 45.67 12.39 45.71 12.42 C 46.02 12.66 46.62 13.13 46.92 13.36 C 47.30 13.89 48.07 14.93 48.45 15.46 C 50.25 16.61 52.18 17.53 54.11 18.42 C 54.47 18.67 55.19 19.17 55.54 19.43 L 55.70 19.55 L 55.87 19.67 C 59.40 21.64 59.16 26.45 58.55 29.90 C 58.06 32.47 55.42 33.56 53.22 34.32 C 53.32 40.90 53.33 47.50 53.28 54.08 C 53.29 56.93 50.80 59.61 47.87 59.46 C 37.61 59.56 27.35 59.52 17.08 59.48 C 14.14 59.64 11.15 57.20 11.30 54.14 C 11.17 47.55 11.33 40.96 11.23 34.36 C 8.87 33.69 5.96 32.60 5.44 29.86 C 4.86 26.56 4.70 22.24 7.98 20.25 M 30.45 7.72 C 23.32 12.44 16.40 17.50 9.25 22.19 C 6.72 23.81 7.48 27.39 7.82 29.88 C 8.95 32.07 11.62 31.57 13.64 31.77 C 13.63 33.11 13.61 34.45 13.60 35.79 C 13.56 41.20 13.60 46.61 13.59 52.02 C 13.69 53.47 13.39 55.15 14.49 56.33 C 16.03 57.64 18.12 57.24 19.96 57.32 C 28.98 57.22 38.01 57.38 47.02 57.25 C 49.29 57.40 51.26 55.41 51.05 53.15 C 51.04 46.98 51.20 40.80 50.88 34.64 C 50.97 33.67 51.06 32.70 51.16 31.73 C 52.82 31.53 55.32 31.92 56.00 29.91 C 56.71 27.54 56.93 24.59 55.55 22.41 C 49.32 17.68 42.78 13.36 36.52 8.69 C 34.87 7.32 32.39 6.27 30.45 7.72 Z" />
<path fill="#010201" opacity="1.00" d=" M 28.84 20.51 C 30.69 20.57 32.53 20.64 34.37 20.69 C 34.36 21.46 34.34 23.00 34.33 23.77 C 38.09 24.69 41.27 27.45 41.19 31.58 C 39.43 31.54 37.67 31.51 35.92 31.49 C 35.72 30.85 35.31 29.56 35.10 28.91 C 34.07 28.57 33.03 28.23 32.00 27.89 C 30.81 28.19 29.63 28.49 28.44 28.78 C 28.54 30.03 27.99 31.90 29.68 32.30 C 33.31 33.76 37.55 33.85 40.65 36.49 C 41.56 39.05 42.52 42.24 40.65 44.61 C 39.38 46.82 36.81 47.52 34.63 48.47 C 34.67 49.22 34.75 50.72 34.79 51.47 C 33.06 51.45 31.33 51.42 29.60 51.41 C 29.58 50.61 29.54 49.00 29.52 48.20 C 26.48 47.56 24.01 45.71 22.30 43.15 C 22.33 42.28 22.38 40.53 22.40 39.66 C 24.09 40.05 26.76 38.92 27.55 41.06 C 28.91 44.52 33.74 44.93 36.37 42.70 C 37.57 39.90 34.13 38.70 32.03 38.19 C 28.19 37.35 23.62 35.85 22.70 31.44 C 22.72 27.70 25.51 25.06 28.87 23.96 C 28.86 23.09 28.85 21.37 28.84 20.51 Z" />
</g>
<g id="#ecedecff">
<path fill="#ecedec" opacity="1.00" d=" M 30.45 7.72 C 32.39 6.27 34.87 7.32 36.52 8.69 C 42.78 13.36 49.32 17.68 55.55 22.41 C 56.93 24.59 56.71 27.54 56.00 29.91 C 55.32 31.92 52.82 31.53 51.16 31.73 C 51.06 32.70 50.97 33.67 50.88 34.64 C 48.99 36.36 47.05 38.03 45.23 39.83 C 44.87 38.41 44.51 36.99 44.14 35.58 C 43.27 35.81 41.52 36.26 40.65 36.49 C 37.55 33.85 33.31 33.76 29.68 32.30 C 27.99 31.90 28.54 30.03 28.44 28.78 C 29.63 28.49 30.81 28.19 32.00 27.89 C 33.03 28.23 34.07 28.57 35.10 28.91 C 35.31 29.56 35.72 30.85 35.92 31.49 C 37.67 31.51 39.43 31.54 41.19 31.58 C 41.27 27.45 38.09 24.69 34.33 23.77 C 34.34 23.00 34.36 21.46 34.37 20.69 C 32.53 20.64 30.69 20.57 28.84 20.51 C 28.85 21.37 28.86 23.09 28.87 23.96 C 25.51 25.06 22.72 27.70 22.70 31.44 C 21.31 32.75 19.90 34.06 18.50 35.36 C 16.86 35.51 15.23 35.65 13.60 35.79 C 13.61 34.45 13.63 33.11 13.64 31.77 C 11.62 31.57 8.95 32.07 7.82 29.88 C 7.48 27.39 6.72 23.81 9.25 22.19 C 16.40 17.50 23.32 12.44 30.45 7.72 Z" />
</g>
<g id="#3e403efa">
<path fill="#3e403e" opacity="0.98" d=" M 45.54 12.30 C 45.58 12.33 45.67 12.39 45.71 12.42 C 45.67 12.39 45.58 12.33 45.54 12.30 Z" />
<path fill="#3e403e" opacity="0.98" d=" M 46.92 13.36 C 49.55 14.69 51.90 16.49 54.11 18.42 C 52.18 17.53 50.25 16.61 48.45 15.46 C 48.07 14.93 47.30 13.89 46.92 13.36 Z" />
<path fill="#3e403e" opacity="0.98" d=" M 55.54 19.43 C 55.63 19.49 55.79 19.61 55.87 19.67 L 55.70 19.55 L 55.54 19.43 Z" />
</g>
<g id="#cdcdcdff">
<path fill="#cdcdcd" opacity="1.00" d=" M 18.50 35.36 C 19.90 34.06 21.31 32.75 22.70 31.44 C 23.62 35.85 28.19 37.35 32.03 38.19 C 34.13 38.70 37.57 39.90 36.37 42.70 C 33.74 44.93 28.91 44.52 27.55 41.06 C 26.76 38.92 24.09 40.05 22.40 39.66 C 22.38 40.53 22.33 42.28 22.30 43.15 C 24.01 45.71 26.48 47.56 29.52 48.20 C 29.54 49.00 29.58 50.61 29.60 51.41 C 31.33 51.42 33.06 51.45 34.79 51.47 C 34.75 50.72 34.67 49.22 34.63 48.47 C 36.81 47.52 39.38 46.82 40.65 44.61 C 42.52 42.24 41.56 39.05 40.65 36.49 C 41.52 36.26 43.27 35.81 44.14 35.58 C 44.51 36.99 44.87 38.41 45.23 39.83 C 47.05 38.03 48.99 36.36 50.88 34.64 C 51.20 40.80 51.04 46.98 51.05 53.15 C 51.26 55.41 49.29 57.40 47.02 57.25 C 38.01 57.38 28.98 57.22 19.96 57.32 C 18.12 57.24 16.03 57.64 14.49 56.33 C 13.39 55.15 13.69 53.47 13.59 52.02 C 13.60 46.61 13.56 41.20 13.60 35.79 C 15.23 35.65 16.86 35.51 18.50 35.36 Z" />
</g>
</svg>
