<?xml version="1.0" encoding="UTF-8" ?>
<!DOCTYPE svg PUBLIC "-//W3C//DTD SVG 1.1//EN" "http://www.w3.org/Graphics/SVG/1.1/DTD/svg11.dtd">
<svg width="64pt" height="64pt" viewBox="0 0 64 64" version="1.1" xmlns="http://www.w3.org/2000/svg">
<g id="#060706f8">
<path fill="#060706" opacity="0.97" d=" M 6.67 4.43 C 11.30 2.97 16.23 3.96 20.99 3.70 C 28.32 3.93 36.10 2.69 42.96 5.95 C 50.31 9.06 55.26 16.35 56.61 24.08 C 58.18 32.95 57.41 42.75 52.22 50.38 C 47.73 56.84 39.84 60.40 32.05 60.29 C 24.02 60.21 15.97 60.45 7.95 60.18 C 6.42 59.30 6.72 57.49 6.67 56.02 C 6.71 38.82 6.72 21.63 6.67 4.43 M 8.99 5.99 C 8.96 11.67 8.90 17.34 9.02 23.02 C 8.89 28.50 8.98 34.00 8.97 39.48 C 8.95 45.64 8.91 51.80 9.07 57.95 C 17.42 57.88 25.77 58.07 34.11 57.88 C 42.00 57.34 50.38 52.37 52.28 44.30 C 55.19 39.55 55.32 33.16 54.75 27.84 L 54.03 27.62 L 54.40 27.07 C 54.73 22.36 52.35 18.00 49.81 14.22 C 45.56 8.29 37.96 6.00 30.96 5.97 C 23.64 5.99 16.32 5.98 8.99 5.99 Z" />
<path fill="#060706" opacity="0.97" d=" M 20.30 15.49 C 24.57 15.57 28.88 15.13 33.11 15.78 C 38.81 16.79 42.98 22.06 43.49 27.70 C 43.98 33.15 44.06 38.99 41.13 43.83 C 36.04 50.16 27.33 48.35 20.25 48.45 C 20.26 45.20 20.24 41.95 20.26 38.70 C 20.29 33.31 20.23 27.92 20.23 22.53 C 20.28 20.18 20.28 17.83 20.30 15.49 M 22.24 17.73 C 22.48 27.24 21.95 36.76 22.54 46.26 C 27.57 45.90 33.68 47.60 37.73 43.73 C 42.55 38.47 42.27 30.34 40.00 24.01 C 38.95 20.85 36.00 19.07 33.03 18.03 C 29.46 17.47 25.83 17.55 22.24 17.73 Z" />
</g>
<g id="#f4f3f4ff">
<path fill="#f4f3f4" opacity="1.00" d=" M 8.99 5.99 C 16.32 5.98 23.64 5.99 30.96 5.97 C 37.96 6.00 45.56 8.29 49.81 14.22 C 52.35 18.00 54.73 22.36 54.40 27.07 L 54.03 27.62 C 50.54 28.16 46.92 28.97 43.49 27.70 C 42.98 22.06 38.81 16.79 33.11 15.78 C 28.88 15.13 24.57 15.57 20.30 15.49 C 20.28 17.83 20.28 20.18 20.23 22.53 C 19.73 24.68 19.11 26.80 18.53 28.92 C 17.01 28.66 15.47 28.49 14.01 28.00 C 12.18 26.52 10.70 24.66 9.02 23.02 C 8.90 17.34 8.96 11.67 8.99 5.99 Z" />
</g>
<g id="#00000042">
<path fill="#000000" opacity="0.26" d=" M 22.24 17.73 C 25.83 17.55 29.46 17.47 33.03 18.03 C 30.47 22.18 26.62 17.03 23.27 18.08 C 22.14 27.37 23.38 36.89 22.54 46.26 C 21.95 36.76 22.48 27.24 22.24 17.73 Z" />
</g>
<g id="#d7d7d7ff">
<path fill="#d7d7d7" opacity="1.00" d=" M 18.53 28.92 C 19.11 26.80 19.73 24.68 20.23 22.53 C 20.23 27.92 20.29 33.31 20.26 38.70 C 19.47 40.92 19.26 44.61 16.08 44.45 C 13.29 45.20 12.06 42.70 10.98 40.68 C 10.47 40.38 9.47 39.78 8.97 39.48 C 8.98 34.00 8.89 28.50 9.02 23.02 C 10.70 24.66 12.18 26.52 14.01 28.00 C 15.47 28.49 17.01 28.66 18.53 28.92 Z" />
<path fill="#d7d7d7" opacity="1.00" d=" M 43.49 27.70 C 46.92 28.97 50.54 28.16 54.03 27.62 L 54.75 27.84 C 55.32 33.16 55.19 39.55 52.28 44.30 C 48.56 44.42 44.84 44.16 41.13 43.83 C 44.06 38.99 43.98 33.15 43.49 27.70 Z" />
</g>
<g id="#c7c7c7ff">
<path fill="#c7c7c7" opacity="1.00" d=" M 16.08 44.45 C 19.26 44.61 19.47 40.92 20.26 38.70 C 20.24 41.95 20.26 45.20 20.25 48.45 C 27.33 48.35 36.04 50.16 41.13 43.83 C 44.84 44.16 48.56 44.42 52.28 44.30 C 50.38 52.37 42.00 57.34 34.11 57.88 C 25.77 58.07 17.42 57.88 9.07 57.95 C 8.91 51.80 8.95 45.64 8.97 39.48 C 9.47 39.78 10.47 40.38 10.98 40.68 C 12.06 42.70 13.29 45.20 16.08 44.45 Z" />
</g>
</svg>
