<?xml version="1.0" encoding="UTF-8" ?>
<!DOCTYPE svg PUBLIC "-//W3C//DTD SVG 1.1//EN" "http://www.w3.org/Graphics/SVG/1.1/DTD/svg11.dtd">
<svg width="64pt" height="64pt" viewBox="0 0 64 64" version="1.1" xmlns="http://www.w3.org/2000/svg">
<g id="#000000ff">
<path fill="#000000" opacity="1.00" d=" M 9.97 17.83 C 16.69 13.35 23.24 8.58 30.05 4.24 C 32.49 2.53 35.42 3.96 37.50 5.53 C 43.63 10.04 49.93 14.33 56.07 18.82 C 59.21 20.70 59.09 24.71 58.75 27.88 C 58.25 29.35 58.01 31.78 56.00 31.75 C 54.83 31.86 53.79 32.28 52.87 32.99 L 52.95 33.55 C 53.67 40.02 53.16 46.57 53.28 53.08 C 53.44 55.58 51.48 57.72 49.17 58.37 C 46.21 59.31 43.09 58.38 40.07 58.42 C 35.04 58.41 30.02 58.40 25.00 58.42 C 21.93 58.37 18.71 59.39 15.76 58.13 C 14.82 57.51 12.93 57.10 13.21 55.63 C 12.97 55.16 12.47 54.24 12.22 53.77 C 11.45 47.09 12.24 40.22 11.83 33.47 C 10.06 32.96 7.97 32.81 6.74 31.25 C 4.70 28.98 5.04 25.61 5.41 22.82 C 5.80 20.40 8.18 19.16 9.97 17.83 M 30.14 6.89 C 22.64 11.80 15.47 17.22 7.90 21.99 C 7.65 24.52 6.77 27.49 8.49 29.72 C 10.05 31.11 12.36 30.49 14.26 30.77 C 14.39 38.64 14.31 46.51 14.40 54.39 C 15.98 55.95 18.01 56.57 20.21 56.35 C 20.24 54.72 20.28 53.09 20.33 51.46 C 28.57 51.53 36.81 51.42 45.05 51.52 C 45.06 53.12 45.07 54.73 45.08 56.33 C 47.11 56.29 50.12 56.44 50.81 54.00 C 51.35 49.31 50.95 44.57 51.06 39.86 C 51.08 37.14 51.12 34.41 50.90 31.69 L 51.63 30.72 C 53.58 30.73 56.04 30.37 56.40 28.01 C 56.56 25.46 57.14 21.99 54.44 20.51 C 48.01 15.90 41.44 11.48 35.12 6.73 C 33.67 5.44 31.62 5.96 30.14 6.89 Z" />
<path fill="#000000" opacity="1.00" d=" M 20.31 31.18 C 28.52 30.78 36.80 30.71 45.00 31.23 C 44.97 32.91 44.93 34.59 44.90 36.27 C 36.69 36.29 28.49 36.27 20.28 36.28 C 20.29 34.58 20.30 32.88 20.31 31.18 Z" />
<path fill="#000000" opacity="1.00" d=" M 20.38 41.37 C 28.56 41.27 36.74 41.35 44.92 41.33 C 44.92 43.08 44.92 44.83 44.93 46.58 C 36.72 46.24 28.48 46.41 20.26 46.48 C 20.30 44.78 20.34 43.07 20.38 41.37 Z" />
</g>
<g id="#f1f0f1ff">
<path fill="#f1f0f1" opacity="1.00" d=" M 30.14 6.89 C 31.62 5.96 33.67 5.44 35.12 6.73 C 41.44 11.48 48.01 15.90 54.44 20.51 C 57.14 21.99 56.56 25.46 56.40 28.01 C 56.04 30.37 53.58 30.73 51.63 30.72 L 50.90 31.69 C 48.92 31.69 46.96 31.47 45.00 31.23 C 36.80 30.71 28.52 30.78 20.31 31.18 C 19.30 31.99 18.32 32.85 17.34 33.70 C 16.31 32.72 15.29 31.75 14.26 30.77 C 12.36 30.49 10.05 31.11 8.49 29.72 C 6.77 27.49 7.65 24.52 7.90 21.99 C 15.47 17.22 22.64 11.80 30.14 6.89 Z" />
</g>
<g id="#dadcdaff">
<path fill="#dadcda" opacity="1.00" d=" M 14.26 30.77 C 15.29 31.75 16.31 32.72 17.34 33.70 C 18.32 32.85 19.30 31.99 20.31 31.18 C 20.30 32.88 20.29 34.58 20.28 36.28 C 28.49 36.27 36.69 36.29 44.90 36.27 C 44.93 34.59 44.97 32.91 45.00 31.23 C 46.96 31.47 48.92 31.69 50.90 31.69 C 51.12 34.41 51.08 37.14 51.06 39.86 C 41.70 40.29 32.34 39.81 22.98 39.98 C 19.36 39.35 18.46 43.73 15.42 44.72 C 15.03 47.94 14.73 51.16 14.40 54.39 C 14.31 46.51 14.39 38.64 14.26 30.77 Z" />
</g>
<g id="#292929f6">
<path fill="#292929" opacity="0.96" d=" M 52.87 32.99 C 53.79 32.28 54.83 31.86 56.00 31.75 C 56.44 33.15 54.04 34.33 52.95 33.55 L 52.87 32.99 Z" />
<path fill="#292929" opacity="0.96" d=" M 12.22 53.77 C 12.47 54.24 12.97 55.16 13.21 55.63 L 12.31 55.53 L 11.80 54.58 L 12.22 53.77 Z" />
</g>
<g id="#cdcbcdff">
<path fill="#cdcbcd" opacity="1.00" d=" M 15.42 44.72 C 18.46 43.73 19.36 39.35 22.98 39.98 C 32.34 39.81 41.70 40.29 51.06 39.86 C 50.95 44.57 51.35 49.31 50.81 54.00 C 50.12 56.44 47.11 56.29 45.08 56.33 C 45.07 54.73 45.06 53.12 45.05 51.52 C 36.81 51.42 28.57 51.53 20.33 51.46 C 20.28 53.09 20.24 54.72 20.21 56.35 C 18.01 56.57 15.98 55.95 14.40 54.39 C 14.73 51.16 15.03 47.94 15.42 44.72 M 20.38 41.37 C 20.34 43.07 20.30 44.78 20.26 46.48 C 28.48 46.41 36.72 46.24 44.93 46.58 C 44.92 44.83 44.92 43.08 44.92 41.33 C 36.74 41.35 28.56 41.27 20.38 41.37 Z" />
</g>
</svg>
