<?xml version="1.0" encoding="UTF-8" ?>
<!DOCTYPE svg PUBLIC "-//W3C//DTD SVG 1.1//EN" "http://www.w3.org/Graphics/SVG/1.1/DTD/svg11.dtd">
<svg width="64pt" height="64pt" viewBox="0 0 64 64" version="1.1" xmlns="http://www.w3.org/2000/svg">
<g id="#2929292e">
<path fill="#292929" opacity="0.18" d=" M 20.82 22.60 C 22.94 22.58 25.05 22.56 27.16 22.53 C 27.88 23.57 28.56 24.62 29.26 25.67 C 37.42 25.71 45.58 25.52 53.74 25.78 C 53.82 27.82 53.90 29.86 53.98 31.90 C 51.44 33.52 48.96 35.41 47.71 38.25 C 41.54 38.47 35.37 38.28 29.21 38.35 C 28.53 39.39 27.85 40.42 27.17 41.46 C 25.08 41.43 22.99 41.41 20.90 41.40 C 20.45 40.36 19.99 39.33 19.54 38.30 C 16.44 38.41 13.34 38.33 10.24 38.25 C 10.04 34.10 10.04 29.94 10.25 25.79 C 13.36 25.69 16.47 25.60 19.58 25.70 C 20.00 24.67 20.41 23.63 20.82 22.60 M 22.31 24.50 C 22.30 25.29 22.29 26.88 22.28 27.67 C 18.90 27.77 15.51 27.80 12.12 27.74 C 12.07 30.57 12.07 33.40 12.12 36.23 C 15.48 36.22 18.84 36.24 22.20 36.27 C 22.25 37.35 22.31 38.44 22.36 39.53 C 23.38 39.48 25.41 39.39 26.43 39.35 C 26.41 38.58 26.36 37.04 26.34 36.27 C 32.99 36.20 39.64 36.26 46.29 36.23 C 46.36 35.56 46.50 34.22 46.57 33.55 C 47.24 33.49 48.58 33.38 49.26 33.32 C 49.28 32.68 49.33 31.40 49.35 30.76 C 50.01 30.74 51.34 30.70 52.01 30.68 C 51.99 29.95 51.96 28.49 51.94 27.76 C 43.41 27.75 34.88 27.79 26.35 27.73 C 26.37 26.96 26.40 25.41 26.42 24.64 C 25.39 24.60 23.34 24.53 22.31 24.50 Z" />
</g>
<g id="#000000ff">
<path fill="#000000" opacity="1.00" d=" M 22.31 24.50 C 23.34 24.53 25.39 24.60 26.42 24.64 C 26.40 25.41 26.37 26.96 26.35 27.73 C 34.88 27.79 43.41 27.75 51.94 27.76 C 51.96 28.49 51.99 29.95 52.01 30.68 C 51.34 30.70 50.01 30.74 49.35 30.76 C 49.33 31.40 49.28 32.68 49.26 33.32 C 48.58 33.38 47.24 33.49 46.57 33.55 C 46.50 34.22 46.36 35.56 46.29 36.23 C 39.64 36.26 32.99 36.20 26.34 36.27 C 26.36 37.04 26.41 38.58 26.43 39.35 C 25.41 39.39 23.38 39.48 22.36 39.53 C 22.31 38.44 22.25 37.35 22.20 36.27 C 18.84 36.24 15.48 36.22 12.12 36.23 C 12.07 33.40 12.07 30.57 12.12 27.74 C 15.51 27.80 18.90 27.77 22.28 27.67 C 22.29 26.88 22.30 25.29 22.31 24.50 Z" />
</g>
</svg>
