<?xml version="1.0" encoding="UTF-8" ?>
<!DOCTYPE svg PUBLIC "-//W3C//DTD SVG 1.1//EN" "http://www.w3.org/Graphics/SVG/1.1/DTD/svg11.dtd">
<svg width="64pt" height="64pt" viewBox="0 0 64 64" version="1.1" xmlns="http://www.w3.org/2000/svg">
<g id="#0101016c">
<path fill="#010101" opacity="0.42" d=" M 37.03 9.03 C 40.77 9.02 48.25 9.01 51.99 9.01 L 52.02 9.97 C 47.70 10.02 43.38 9.85 39.07 10.03 C 35.18 9.25 40.06 16.91 36.99 16.97 L 36.96 16.03 C 36.97 14.28 37.01 10.78 37.03 9.03 Z" />
<path fill="#010101" opacity="0.42" d=" M 7.73 54.66 C 24.34 52.80 41.33 54.61 58.07 54.07 L 57.90 55.01 C 41.19 54.69 24.41 55.60 7.73 54.66 Z" />
</g>
<g id="#080907fe">
<path fill="#080907" opacity="1.00" d=" M 36.99 16.97 C 40.06 16.91 35.18 9.25 39.07 10.03 C 43.38 9.85 47.70 10.02 52.02 9.97 C 55.24 9.21 57.63 12.36 56.17 15.87 C 56.42 17.85 60.02 17.81 59.98 20.03 C 60.00 28.69 60.06 37.36 60.02 46.02 C 61.47 49.25 59.53 51.66 58.07 54.07 C 41.33 54.61 24.34 52.80 7.73 54.66 L 7.07 54.82 C 4.93 53.23 1.57 52.02 4.01 48.01 C 3.94 38.69 3.97 29.36 4.02 20.04 C 4.30 18.68 5.69 17.31 7.04 17.01 C 17.02 16.87 27.01 17.19 36.99 16.97 M 40.03 11.09 L 39.93 12.15 C 38.05 13.15 38.75 16.93 39.23 18.82 C 28.59 19.41 17.90 18.61 7.25 19.17 C 6.94 19.42 6.33 19.93 6.03 20.19 L 5.06 19.96 C 4.97 30.23 4.84 40.51 5.16 50.78 C 5.80 51.29 8.54 54.39 7.96 52.04 C 24.33 51.99 40.70 51.98 57.06 52.04 C 57.52 51.74 58.44 51.14 58.89 50.84 C 59.14 40.54 59.04 30.23 58.91 19.93 L 57.95 20.24 C 53.60 19.65 52.91 16.40 53.92 12.00 L 54.00 11.05 C 49.35 10.85 44.68 11.00 40.03 11.09 Z" />
<path fill="#080907" opacity="1.00" d=" M 27.98 22.93 C 33.90 20.64 40.65 23.85 43.59 29.25 C 45.35 32.52 44.83 36.38 45.05 39.97 C 44.15 41.82 43.38 43.73 42.56 45.62 C 37.77 49.65 30.60 51.33 24.94 48.02 C 24.25 46.20 22.82 44.82 21.07 44.02 C 20.35 42.67 19.63 41.33 18.91 39.99 C 18.99 36.33 18.29 32.31 20.51 29.12 C 22.44 26.48 24.53 23.58 27.98 22.93 M 23.91 34.88 C 23.91 36.42 23.91 39.49 23.92 41.03 L 24.66 40.73 C 27.42 46.23 36.60 46.23 39.34 40.72 C 39.53 39.25 39.91 36.30 40.09 34.83 C 40.09 32.52 39.07 30.23 37.27 28.77 C 32.36 24.96 23.54 28.06 23.91 34.88 Z" />
<path fill="#080907" opacity="1.00" d=" M 46.65 26.75 C 47.12 24.78 48.35 23.00 50.09 21.97 C 53.28 21.77 54.31 25.46 54.28 28.03 C 54.20 31.73 49.70 29.77 47.16 29.95 C 47.03 29.15 46.78 27.55 46.65 26.75 Z" />
</g>
<g id="#44473cff">
<path fill="#44473c" opacity="1.00" d=" M 40.03 11.09 C 44.68 11.00 49.35 10.85 54.00 11.05 L 53.92 12.00 C 49.25 12.03 44.59 11.94 39.93 12.15 L 40.03 11.09 Z" />
<path fill="#44473c" opacity="1.00" d=" M 5.06 19.96 L 6.03 20.19 C 6.01 22.78 6.00 25.38 6.02 27.98 C 5.99 31.99 5.98 35.99 5.99 40.00 C 6.12 44.03 4.94 48.75 7.96 52.04 C 8.54 54.39 5.80 51.29 5.16 50.78 C 4.84 40.51 4.97 30.23 5.06 19.96 Z" />
<path fill="#44473c" opacity="1.00" d=" M 57.95 20.24 L 58.91 19.93 C 59.04 30.23 59.14 40.54 58.89 50.84 C 58.44 51.14 57.52 51.74 57.06 52.04 C 57.74 48.07 58.11 44.03 58.02 40.00 C 58.03 36.00 58.02 31.99 57.98 27.99 C 57.99 25.41 57.98 22.83 57.95 20.24 Z" />
<path fill="#44473c" opacity="1.00" d=" M 21.07 44.02 C 22.82 44.82 24.25 46.20 24.94 48.02 C 22.71 48.17 20.76 46.27 21.07 44.02 Z" />
</g>
<g id="#7a7d6cff">
<path fill="#7a7d6c" opacity="1.00" d=" M 39.23 18.82 C 38.75 16.93 38.05 13.15 39.93 12.15 C 40.49 14.79 40.26 17.01 39.23 18.82 Z" />
<path fill="#7a7d6c" opacity="1.00" d=" M 5.99 40.00 C 10.29 40.00 14.60 39.99 18.91 39.99 C 19.63 41.33 20.35 42.67 21.07 44.02 C 20.76 46.27 22.71 48.17 24.94 48.02 C 30.60 51.33 37.77 49.65 42.56 45.62 C 43.38 43.73 44.15 41.82 45.05 39.97 C 49.38 39.98 53.70 39.99 58.02 40.00 C 58.11 44.03 57.74 48.07 57.06 52.04 C 40.70 51.98 24.33 51.99 7.96 52.04 C 4.94 48.75 6.12 44.03 5.99 40.00 Z" />
</g>
<g id="#dbdab4ff">
<path fill="#dbdab4" opacity="1.00" d=" M 39.93 12.15 C 44.59 11.94 49.25 12.03 53.92 12.00 C 52.91 16.40 53.60 19.65 57.95 20.24 C 57.98 22.83 57.99 25.41 57.98 27.99 C 56.75 28.00 55.52 28.01 54.28 28.03 C 54.31 25.46 53.28 21.77 50.09 21.97 C 48.35 23.00 47.12 24.78 46.65 26.75 C 45.10 26.97 43.66 27.41 43.59 29.25 C 40.65 23.85 33.90 20.64 27.98 22.93 C 24.53 23.58 22.44 26.48 20.51 29.12 C 16.14 26.57 10.67 30.45 6.02 27.98 C 6.00 25.38 6.01 22.78 6.03 20.19 C 6.33 19.93 6.94 19.42 7.25 19.17 C 17.90 18.61 28.59 19.41 39.23 18.82 C 40.26 17.01 40.49 14.79 39.93 12.15 Z" />
</g>
<g id="#03020345">
<path fill="#030203" opacity="0.27" d=" M 6.99 16.04 C 16.98 16.00 26.97 15.89 36.96 16.03 L 36.99 16.97 C 27.01 17.19 17.02 16.87 7.04 17.01 L 6.99 16.04 Z" />
</g>
<g id="#050605b8">
<path fill="#050605" opacity="0.72" d=" M 3.06 20.01 L 4.02 20.04 C 3.97 29.36 3.94 38.69 4.01 48.01 C 1.57 52.02 4.93 53.23 7.07 54.82 C 5.64 54.90 3.91 55.35 3.15 53.77 C 2.91 42.52 2.89 31.26 3.06 20.01 Z" />
<path fill="#050605" opacity="0.72" d=" M 59.98 20.03 L 60.96 19.99 C 61.04 30.33 61.03 40.67 61.00 51.01 C 61.39 53.02 59.45 54.27 57.90 55.01 L 58.07 54.07 C 59.53 51.66 61.47 49.25 60.02 46.02 C 60.06 37.36 60.00 28.69 59.98 20.03 Z" />
</g>
<g id="#7ecca4ff">
<path fill="#7ecca4" opacity="1.00" d=" M 23.91 34.88 C 23.54 28.06 32.36 24.96 37.27 28.77 C 39.07 30.23 40.09 32.52 40.09 34.83 C 34.80 34.11 29.08 32.97 23.91 34.88 Z" />
</g>
<g id="#abaa91ff">
<path fill="#abaa91" opacity="1.00" d=" M 43.59 29.25 C 43.66 27.41 45.10 26.97 46.65 26.75 C 46.78 27.55 47.03 29.15 47.16 29.95 C 49.70 29.77 54.20 31.73 54.28 28.03 C 55.52 28.01 56.75 28.00 57.98 27.99 C 58.02 31.99 58.03 36.00 58.02 40.00 C 53.70 39.99 49.38 39.98 45.05 39.97 C 44.83 36.38 45.35 32.52 43.59 29.25 Z" />
<path fill="#abaa91" opacity="1.00" d=" M 6.02 27.98 C 10.67 30.45 16.14 26.57 20.51 29.12 C 18.29 32.31 18.99 36.33 18.91 39.99 C 14.60 39.99 10.29 40.00 5.99 40.00 C 5.98 35.99 5.99 31.99 6.02 27.98 Z" />
</g>
<g id="#add58bff">
<path fill="#add58b" opacity="1.00" d=" M 23.91 34.88 C 29.08 32.97 34.80 34.11 40.09 34.83 C 39.91 36.30 39.53 39.25 39.34 40.72 C 34.73 38.56 29.20 38.26 24.66 40.73 L 23.92 41.03 C 23.91 39.49 23.91 36.42 23.91 34.88 Z" />
</g>
<g id="#d0d673ff">
<path fill="#d0d673" opacity="1.00" d=" M 24.66 40.73 C 29.20 38.26 34.73 38.56 39.34 40.72 C 36.60 46.23 27.42 46.23 24.66 40.73 Z" />
</g>
</svg>
