<?xml version="1.0" encoding="UTF-8" ?>
<!DOCTYPE svg PUBLIC "-//W3C//DTD SVG 1.1//EN" "http://www.w3.org/Graphics/SVG/1.1/DTD/svg11.dtd">
<svg width="64pt" height="64pt" viewBox="0 0 64 64" version="1.1" xmlns="http://www.w3.org/2000/svg">
<g id="#050505f8">
<path fill="#050505" opacity="0.97" d=" M 12.27 12.26 C 16.45 5.32 25.14 2.61 32.86 3.15 C 36.74 3.51 40.66 4.05 44.30 5.50 C 50.92 8.77 54.75 16.10 53.91 23.41 C 49.32 23.82 44.67 24.10 40.07 23.60 C 37.96 22.29 38.98 18.66 36.48 17.46 C 32.71 15.12 24.87 15.27 25.14 21.24 C 31.99 24.24 39.59 24.82 46.41 27.89 C 48.10 28.66 49.98 28.34 51.77 28.39 C 51.71 29.10 51.57 30.53 51.50 31.24 C 56.42 36.66 56.94 45.08 53.33 51.32 C 50.75 56.25 45.34 58.82 40.18 60.14 C 33.10 61.48 25.43 61.23 18.84 58.10 C 13.01 55.35 8.87 49.40 8.40 42.96 C 8.31 41.48 7.92 39.55 9.42 38.60 C 13.98 38.16 18.59 38.35 23.16 38.67 C 23.34 42.14 24.48 46.09 28.23 47.19 C 32.66 48.53 39.64 48.41 40.92 42.84 C 37.17 39.11 31.72 38.75 26.91 37.33 C 22.30 35.99 17.35 34.65 13.95 31.04 C 9.07 26.20 8.96 17.98 12.27 12.26 M 20.16 7.95 C 15.54 10.36 12.55 15.23 12.15 20.39 C 12.32 24.34 13.86 28.52 17.34 30.71 C 23.72 35.75 32.44 35.09 39.46 38.70 C 41.50 39.59 42.37 41.64 43.20 43.54 C 41.83 50.53 32.97 51.35 27.42 49.34 C 23.52 48.34 21.38 44.50 21.00 40.72 C 17.52 40.74 14.04 40.72 10.56 40.71 C 10.26 47.46 14.72 53.70 20.77 56.36 C 27.68 59.17 35.70 59.35 42.74 56.89 C 47.21 55.44 50.76 52.02 52.61 47.73 C 53.94 42.54 53.65 36.38 49.35 32.62 C 41.98 26.77 31.90 27.30 23.77 23.02 C 22.99 20.68 22.89 18.25 23.99 16.00 C 28.95 12.79 36.40 12.85 40.33 17.67 C 40.62 19.00 40.94 20.32 41.30 21.63 C 44.77 21.55 48.23 21.61 51.70 21.51 C 51.82 15.24 47.69 9.22 41.77 7.13 C 34.87 4.58 26.82 4.70 20.16 7.95 Z" />
</g>
<g id="#0101018d">
<path fill="#010101" opacity="0.55" d=" M 32.86 3.15 C 36.78 3.21 40.97 3.09 44.30 5.50 C 40.66 4.05 36.74 3.51 32.86 3.15 Z" />
</g>
<g id="#f6f5f6ff">
<path fill="#f6f5f6" opacity="1.00" d=" M 20.16 7.95 C 26.82 4.70 34.87 4.58 41.77 7.13 C 47.69 9.22 51.82 15.24 51.70 21.51 C 48.23 21.61 44.77 21.55 41.30 21.63 C 40.94 20.32 40.62 19.00 40.33 17.67 C 36.40 12.85 28.95 12.79 23.99 16.00 C 22.94 16.33 21.89 16.64 20.84 16.94 C 20.47 18.09 20.11 19.25 19.74 20.41 C 17.21 20.34 14.68 20.36 12.15 20.39 C 12.55 15.23 15.54 10.36 20.16 7.95 Z" />
</g>
<g id="#e0dfe0ff">
<path fill="#e0dfe0" opacity="1.00" d=" M 20.84 16.94 C 21.89 16.64 22.94 16.33 23.99 16.00 C 22.89 18.25 22.99 20.68 23.77 23.02 C 31.90 27.30 41.98 26.77 49.35 32.62 C 53.65 36.38 53.94 42.54 52.61 47.73 C 50.03 47.54 47.45 47.39 44.87 47.24 C 44.30 46.01 43.76 44.77 43.20 43.54 C 42.37 41.64 41.50 39.59 39.46 38.70 C 32.44 35.09 23.72 35.75 17.34 30.71 C 13.86 28.52 12.32 24.34 12.15 20.39 C 14.68 20.36 17.21 20.34 19.74 20.41 C 20.11 19.25 20.47 18.09 20.84 16.94 Z" />
</g>
<g id="#c9c9c9ff">
<path fill="#c9c9c9" opacity="1.00" d=" M 10.56 40.71 C 14.04 40.72 17.52 40.74 21.00 40.72 C 21.38 44.50 23.52 48.34 27.42 49.34 C 32.97 51.35 41.83 50.53 43.20 43.54 C 43.76 44.77 44.30 46.01 44.87 47.24 C 47.45 47.39 50.03 47.54 52.61 47.73 C 50.76 52.02 47.21 55.44 42.74 56.89 C 35.70 59.35 27.68 59.17 20.77 56.36 C 14.72 53.70 10.26 47.46 10.56 40.71 Z" />
</g>
</svg>
