<?xml version="1.0" encoding="UTF-8" ?>
<!DOCTYPE svg PUBLIC "-//W3C//DTD SVG 1.1//EN" "http://www.w3.org/Graphics/SVG/1.1/DTD/svg11.dtd">
<svg width="64pt" height="64pt" viewBox="0 0 64 64" version="1.1" xmlns="http://www.w3.org/2000/svg">
<g id="#0a090afe">
<path fill="#0a090a" opacity="1.00" d=" M 16.88 22.08 C 17.69 17.81 20.50 13.55 25.06 12.78 C 29.64 12.27 34.31 12.40 38.90 12.71 C 43.57 13.39 46.71 17.63 47.32 22.11 C 48.86 22.17 50.42 22.18 51.96 22.43 C 53.26 23.01 54.56 23.60 55.86 24.18 C 57.62 27.52 57.05 31.36 57.11 34.98 C 56.99 40.04 57.31 45.10 56.99 50.14 C 56.74 50.44 56.23 51.05 55.98 51.35 C 40.64 51.65 25.28 51.40 9.93 51.47 C 8.44 51.79 6.56 50.92 6.91 49.11 C 6.95 41.72 6.67 34.30 7.06 26.92 C 8.02 22.56 13.19 21.96 16.88 22.08 M 22.63 16.59 C 20.20 18.52 19.51 21.74 19.36 24.68 C 16.89 24.77 14.42 24.78 11.95 24.76 C 10.92 26.06 9.19 27.18 9.34 29.06 C 9.27 35.68 9.36 42.31 9.33 48.93 C 24.44 48.94 39.56 48.94 54.67 48.93 C 54.64 42.30 54.73 35.66 54.66 29.02 C 54.72 27.51 53.47 26.41 52.77 25.19 C 50.16 24.66 47.49 24.67 44.84 24.72 C 44.68 21.78 44.14 18.25 41.43 16.53 C 39.08 14.54 35.85 15.21 33.03 15.04 C 29.54 15.17 25.67 14.41 22.63 16.59 Z" />
<path fill="#0a090a" opacity="1.00" d=" M 24.17 24.71 C 24.43 23.01 24.12 20.65 26.10 19.88 C 30.01 19.54 33.98 19.62 37.90 19.82 C 40.00 20.59 40.12 22.85 40.18 24.73 C 34.85 24.73 29.51 24.77 24.17 24.71 Z" />
</g>
<g id="#ffffffff">
<path fill="#ffffff" opacity="1.00" d=" M 22.63 16.59 C 25.67 14.41 29.54 15.17 33.03 15.04 C 35.85 15.21 39.08 14.54 41.43 16.53 C 44.14 18.25 44.68 21.78 44.84 24.72 C 47.49 24.67 50.16 24.66 52.77 25.19 C 53.47 26.41 54.72 27.51 54.66 29.02 C 54.73 35.66 54.64 42.30 54.67 48.93 C 39.56 48.94 24.44 48.94 9.33 48.93 C 9.36 42.31 9.27 35.68 9.34 29.06 C 9.19 27.18 10.92 26.06 11.95 24.76 C 14.42 24.78 16.89 24.77 19.36 24.68 C 19.51 21.74 20.20 18.52 22.63 16.59 M 24.17 24.71 C 29.51 24.77 34.85 24.73 40.18 24.73 C 40.12 22.85 40.00 20.59 37.90 19.82 C 33.98 19.62 30.01 19.54 26.10 19.88 C 24.12 20.65 24.43 23.01 24.17 24.71 Z" />
</g>
<g id="#00000034">
<path fill="#000000" opacity="0.20" d=" M 51.88 20.15 C 53.22 20.12 54.56 20.09 55.90 20.06 C 55.88 21.44 55.87 22.81 55.86 24.18 C 54.56 23.60 53.26 23.01 51.96 22.43 C 51.94 21.86 51.90 20.72 51.88 20.15 Z" />
</g>
</svg>
