<?xml version="1.0" encoding="UTF-8" ?>
<!DOCTYPE svg PUBLIC "-//W3C//DTD SVG 1.1//EN" "http://www.w3.org/Graphics/SVG/1.1/DTD/svg11.dtd">
<svg width="64pt" height="64pt" viewBox="0 0 64 64" version="1.1" xmlns="http://www.w3.org/2000/svg">
<g id="#050705f3">
<path fill="#050705" opacity="0.95" d=" M 21.80 15.85 C 28.85 11.25 38.97 12.07 45.07 17.93 C 48.84 21.85 52.33 26.05 55.84 30.20 C 56.54 31.02 57.06 32.45 56.43 33.43 C 55.17 34.94 53.00 34.30 51.28 34.53 C 50.32 38.85 48.48 43.13 45.08 46.10 C 39.31 51.57 29.98 52.68 23.04 48.85 C 18.74 46.66 16.12 42.45 13.01 38.94 C 10.92 36.08 7.67 33.71 7.37 29.92 C 9.25 29.40 11.19 29.18 13.13 29.06 C 14.16 23.73 17.11 18.73 21.80 15.85 M 24.38 17.22 C 18.96 19.74 15.65 25.58 15.30 31.43 C 13.54 31.48 11.77 31.52 10.01 31.59 C 12.72 34.43 14.95 37.68 17.53 40.64 C 19.86 37.46 22.58 34.61 25.10 31.58 C 23.33 31.55 21.57 31.52 19.81 31.50 C 20.19 28.27 21.46 25.08 24.03 22.97 C 29.09 18.08 38.13 19.25 42.11 24.97 C 43.16 23.68 44.17 22.36 45.10 20.99 C 39.95 15.46 31.10 13.34 24.38 17.22 M 22.68 28.98 C 24.34 29.20 26.00 29.47 27.64 29.87 C 28.17 33.20 24.22 34.74 24.22 37.70 C 27.24 41.80 33.63 42.88 37.78 39.88 C 39.69 38.73 40.59 36.59 41.71 34.77 C 39.89 34.62 38.13 34.15 36.49 33.38 C 36.82 30.64 38.86 28.74 40.61 26.82 C 38.47 24.27 35.50 22.10 32.02 22.26 C 27.78 22.09 24.25 25.27 22.68 28.98 M 46.62 23.42 C 44.19 26.45 41.62 29.36 39.02 32.24 C 40.81 32.26 42.60 32.28 44.39 32.29 C 43.84 35.56 42.77 38.95 40.12 41.13 C 34.91 45.67 26.18 44.47 22.07 39.00 C 21.14 40.49 18.50 41.85 20.05 43.77 C 24.63 48.06 31.56 50.13 37.58 47.81 C 44.35 45.82 48.64 39.07 49.15 32.25 C 50.83 32.26 52.51 32.26 54.20 32.25 C 51.98 29.05 49.39 26.14 46.62 23.42 Z" />
</g>
<g id="#fdfdfdff">
<path fill="#fdfdfd" opacity="1.00" d=" M 24.38 17.22 C 31.10 13.34 39.95 15.46 45.10 20.99 C 44.17 22.36 43.16 23.68 42.11 24.97 C 38.13 19.25 29.09 18.08 24.03 22.97 C 21.46 25.08 20.19 28.27 19.81 31.50 C 21.57 31.52 23.33 31.55 25.10 31.58 C 22.58 34.61 19.86 37.46 17.53 40.64 C 14.95 37.68 12.72 34.43 10.01 31.59 C 11.77 31.52 13.54 31.48 15.30 31.43 C 15.65 25.58 18.96 19.74 24.38 17.22 Z" />
<path fill="#fdfdfd" opacity="1.00" d=" M 46.62 23.42 C 49.39 26.14 51.98 29.05 54.20 32.25 C 52.51 32.26 50.83 32.26 49.15 32.25 C 48.64 39.07 44.35 45.82 37.58 47.81 C 31.56 50.13 24.63 48.06 20.05 43.77 C 18.50 41.85 21.14 40.49 22.07 39.00 C 26.18 44.47 34.91 45.67 40.12 41.13 C 42.77 38.95 43.84 35.56 44.39 32.29 C 42.60 32.28 40.81 32.26 39.02 32.24 C 41.62 29.36 44.19 26.45 46.62 23.42 Z" />
</g>
</svg>
