<?xml version="1.0" encoding="UTF-8" ?>
<!DOCTYPE svg PUBLIC "-//W3C//DTD SVG 1.1//EN" "http://www.w3.org/Graphics/SVG/1.1/DTD/svg11.dtd">
<svg width="64pt" height="64pt" viewBox="0 0 64 64" version="1.1" xmlns="http://www.w3.org/2000/svg">
<g id="#0b090892">
<path fill="#0b0908" opacity="0.57" d=" M 2.07 4.05 C 2.51 4.02 3.39 3.97 3.83 3.95 C 1.86 20.23 3.72 36.72 2.81 53.08 L 2.13 53.32 C 1.91 36.90 1.93 20.47 2.07 4.05 Z" />
<path fill="#0b0908" opacity="0.57" d=" M 35.01 59.00 C 35.26 56.50 35.76 51.49 36.01 48.99 C 35.98 52.32 36.00 55.65 36.00 58.99 L 35.01 59.00 Z" />
<path fill="#0b0908" opacity="0.57" d=" M 60.01 48.99 L 60.99 49.01 C 60.99 51.75 60.98 57.23 60.97 59.97 C 52.65 60.05 44.33 60.05 36.00 59.97 L 36.00 58.99 C 43.97 59.00 51.94 59.10 59.91 58.95 C 60.15 55.63 60.01 52.30 60.01 48.99 Z" />
</g>
<g id="#040404fd">
<path fill="#040404" opacity="1.00" d=" M 3.83 3.95 C 14.22 3.97 24.61 4.05 35.00 3.97 C 38.36 4.28 42.04 3.37 45.27 4.77 C 46.64 12.41 45.63 20.19 46.08 27.89 C 47.39 27.98 48.71 28.04 50.03 28.07 C 55.01 28.29 55.70 34.88 56.54 38.59 C 58.28 41.80 58.99 45.50 60.01 48.99 C 60.01 52.30 60.15 55.63 59.91 58.95 C 51.94 59.10 43.97 59.00 36.00 58.99 C 36.00 55.65 35.98 52.32 36.01 48.99 C 37.16 45.29 37.62 41.17 40.01 38.01 C 39.48 37.22 38.84 36.53 38.07 35.93 C 30.27 33.96 21.45 35.25 13.27 35.13 C 9.77 40.75 13.89 48.83 11.10 55.13 C 10.31 55.01 8.72 54.77 7.92 54.65 C 6.64 54.26 4.09 53.48 2.81 53.08 C 3.72 36.72 1.86 20.23 3.83 3.95 M 4.99 6.03 L 5.02 7.01 L 5.00 8.00 L 4.02 8.01 C 3.98 22.99 3.96 37.98 4.03 52.97 C 5.77 52.97 9.24 52.99 10.97 52.99 C 11.08 48.98 11.07 44.96 10.95 40.95 C 11.25 38.58 11.51 36.21 11.74 33.84 C 15.13 34.18 18.55 33.98 21.95 33.97 C 22.10 31.02 22.13 28.05 21.95 25.11 C 24.77 24.24 31.23 26.88 31.99 24.00 C 34.23 23.16 32.53 18.42 32.96 16.03 C 35.72 16.02 41.25 15.99 44.01 15.98 L 43.97 14.99 C 44.09 12.33 44.09 9.67 43.98 7.00 L 44.00 6.02 C 41.24 6.02 35.74 6.02 32.99 6.02 L 33.04 7.00 C 32.91 9.67 32.90 12.33 33.01 15.00 L 32.01 15.03 C 29.20 14.90 26.38 14.91 23.59 15.28 C 20.59 13.90 24.20 7.81 20.99 8.00 L 20.96 7.01 L 21.00 6.03 C 15.67 5.93 10.33 5.93 4.99 6.03 M 34.01 24.01 L 33.98 25.00 C 32.77 25.18 32.53 26.08 33.29 27.70 C 33.02 29.48 32.89 31.29 33.19 33.08 C 34.10 34.76 39.08 34.81 39.96 32.92 C 42.11 31.01 44.75 28.29 44.01 25.01 C 41.51 24.76 36.51 24.26 34.01 24.01 M 45.46 30.32 C 42.51 32.23 41.28 37.29 44.19 39.82 C 46.63 42.88 53.25 41.22 53.02 37.02 C 55.18 32.38 49.76 27.76 45.46 30.32 M 40.11 44.05 C 37.24 47.47 37.82 52.13 37.75 56.28 C 37.57 56.69 37.22 57.52 37.04 57.94 C 44.35 58.15 51.66 58.01 58.96 57.95 C 58.98 57.50 59.02 56.61 59.05 56.16 L 58.23 56.28 C 58.10 53.66 57.94 51.03 57.75 48.41 C 55.49 48.07 56.21 45.66 55.90 44.03 C 55.05 41.10 51.20 42.96 49.02 42.96 C 47.08 43.33 40.96 40.70 40.11 44.05 Z" />
<path fill="#040404" opacity="1.00" d=" M 10.73 15.81 C 14.13 15.97 17.54 16.00 20.94 16.09 C 21.01 18.72 20.99 21.36 20.87 23.99 L 19.95 24.02 C 17.20 24.04 14.44 24.11 11.69 24.21 C 10.53 21.58 10.97 18.61 10.73 15.81 Z" />
</g>
<g id="#04040446">
<path fill="#040404" opacity="0.27" d=" M 45.16 3.97 C 45.61 3.98 46.50 4.02 46.95 4.04 C 47.14 11.34 46.86 18.64 47.02 25.94 C 46.41 28.18 50.56 25.81 50.03 28.07 C 48.71 28.04 47.39 27.98 46.08 27.89 C 45.63 20.19 46.64 12.41 45.27 4.77 L 45.16 3.97 Z" />
<path fill="#040404" opacity="0.27" d=" M 2.13 53.32 L 2.81 53.08 C 4.09 53.48 6.64 54.26 7.92 54.65 C 6.30 55.08 1.56 56.16 2.13 53.32 Z" />
</g>
<g id="#c6c5c4ff">
<path fill="#c6c5c4" opacity="1.00" d=" M 4.99 6.03 C 10.33 5.93 15.67 5.93 21.00 6.03 L 20.96 7.01 C 15.65 7.00 10.34 6.99 5.02 7.01 L 4.99 6.03 Z" />
<path fill="#c6c5c4" opacity="1.00" d=" M 32.99 6.02 C 35.74 6.02 41.24 6.02 44.00 6.02 L 43.98 7.00 C 40.33 7.00 36.69 7.00 33.04 7.00 L 32.99 6.02 Z" />
<path fill="#c6c5c4" opacity="1.00" d=" M 31.98 16.00 L 32.96 16.03 C 32.53 18.42 34.23 23.16 31.99 24.00 C 31.99 21.33 31.99 18.66 31.98 16.00 Z" />
<path fill="#c6c5c4" opacity="1.00" d=" M 20.38 25.79 C 21.05 28.11 21.27 30.49 21.03 32.94 C 17.95 33.10 14.87 32.88 11.79 32.80 C 13.89 30.90 17.70 33.16 19.88 31.75 C 20.01 30.26 20.26 27.28 20.38 25.79 Z" />
<path fill="#c6c5c4" opacity="1.00" d=" M 33.29 27.70 C 34.84 30.33 35.98 33.34 39.96 32.92 C 38.26 32.96 34.88 33.04 33.19 33.08 C 32.89 31.29 33.02 29.48 33.29 27.70 Z" />
<path fill="#c6c5c4" opacity="1.00" d=" M 5.10 31.74 C 7.26 32.41 8.34 34.51 9.74 36.11 C 9.88 37.74 9.96 39.38 10.03 41.02 C 10.01 43.76 9.96 49.25 9.94 52.00 L 5.09 51.99 C 4.72 45.24 5.10 38.48 5.10 31.74 Z" />
</g>
<g id="#efedefff">
<path fill="#efedef" opacity="1.00" d=" M 5.02 7.01 C 10.34 6.99 15.65 7.00 20.96 7.01 L 20.99 8.00 C 21.00 9.70 21.02 13.12 21.03 14.83 C 17.82 15.56 13.58 13.95 10.73 15.81 C 8.88 18.22 10.30 22.03 10.07 24.94 C 10.55 24.96 11.52 25.02 12.01 25.04 C 14.73 25.04 17.45 25.01 20.17 24.95 L 20.38 25.79 C 20.26 27.28 20.01 30.26 19.88 31.75 C 17.70 33.16 13.89 30.90 11.79 32.80 C 10.74 33.66 9.98 34.76 9.74 36.11 C 8.34 34.51 7.26 32.41 5.10 31.74 C 4.95 23.82 5.00 15.91 5.00 8.00 L 5.02 7.01 Z" />
<path fill="#efedef" opacity="1.00" d=" M 33.04 7.00 C 36.69 7.00 40.33 7.00 43.98 7.00 C 44.09 9.67 44.09 12.33 43.97 14.99 C 40.31 15.00 36.66 15.00 33.01 15.00 C 32.90 12.33 32.91 9.67 33.04 7.00 Z" />
<path fill="#efedef" opacity="1.00" d=" M 22.14 15.97 C 22.63 15.98 23.63 15.98 24.13 15.98 C 26.74 16.00 29.36 16.01 31.98 16.00 C 31.99 18.66 31.99 21.33 31.99 24.00 C 28.68 24.03 25.36 24.02 22.05 23.94 C 21.99 21.29 22.02 18.63 22.14 15.97 Z" />
<path fill="#efedef" opacity="1.00" d=" M 33.29 27.70 C 32.53 26.08 32.77 25.18 33.98 25.00 C 37.33 25.00 40.67 25.00 44.01 25.01 C 44.75 28.29 42.11 31.01 39.96 32.92 C 35.98 33.34 34.84 30.33 33.29 27.70 Z" />
</g>
<g id="#45443fff">
<path fill="#45443f" opacity="1.00" d=" M 4.02 8.01 L 5.00 8.00 C 5.00 15.91 4.95 23.82 5.10 31.74 C 5.10 38.48 4.72 45.24 5.09 51.99 L 9.94 52.00 C 9.96 49.25 10.01 43.76 10.03 41.02 L 10.95 40.95 C 11.07 44.96 11.08 48.98 10.97 52.99 C 9.24 52.99 5.77 52.97 4.03 52.97 C 3.96 37.98 3.98 22.99 4.02 8.01 Z" />
<path fill="#45443f" opacity="1.00" d=" M 10.73 15.81 C 13.58 13.95 17.82 15.56 21.03 14.83 C 21.30 15.11 21.86 15.69 22.14 15.97 C 22.02 18.63 21.99 21.29 22.05 23.94 C 25.36 24.02 28.68 24.03 31.99 24.00 C 31.23 26.88 24.77 24.24 21.95 25.11 C 21.68 24.83 21.14 24.27 20.87 23.99 C 20.99 21.36 21.01 18.72 20.94 16.09 C 17.54 16.00 14.13 15.97 10.73 15.81 Z" />
<path fill="#45443f" opacity="1.00" d=" M 32.01 15.03 L 33.01 15.00 C 36.66 15.00 40.31 15.00 43.97 14.99 L 44.01 15.98 C 41.25 15.99 35.72 16.02 32.96 16.03 L 31.98 16.00 L 32.01 15.03 Z" />
</g>
<g id="#90847bff">
<path fill="#90847b" opacity="1.00" d=" M 20.99 8.00 C 24.20 7.81 20.59 13.90 23.59 15.28 L 24.13 15.98 C 23.63 15.98 22.63 15.98 22.14 15.97 C 21.86 15.69 21.30 15.11 21.03 14.83 C 21.02 13.12 21.00 9.70 20.99 8.00 Z" />
<path fill="#90847b" opacity="1.00" d=" M 19.95 24.02 L 20.87 23.99 C 21.14 24.27 21.68 24.83 21.95 25.11 C 22.13 28.05 22.10 31.02 21.95 33.97 C 18.55 33.98 15.13 34.18 11.74 33.84 L 11.79 32.80 C 14.87 32.88 17.95 33.10 21.03 32.94 C 21.27 30.49 21.05 28.11 20.38 25.79 L 20.17 24.95 L 19.95 24.02 Z" />
<path fill="#90847b" opacity="1.00" d=" M 33.19 33.08 C 34.88 33.04 38.26 32.96 39.96 32.92 C 39.08 34.81 34.10 34.76 33.19 33.08 Z" />
<path fill="#90847b" opacity="1.00" d=" M 37.04 57.94 C 37.22 57.52 37.57 56.69 37.75 56.28 C 44.50 57.39 51.47 57.40 58.23 56.28 L 59.05 56.16 C 59.02 56.61 58.98 57.50 58.96 57.95 C 51.66 58.01 44.35 58.15 37.04 57.94 Z" />
</g>
<g id="#6c6863ff">
<path fill="#6c6863" opacity="1.00" d=" M 23.59 15.28 C 26.38 14.91 29.20 14.90 32.01 15.03 L 31.98 16.00 C 29.36 16.01 26.74 16.00 24.13 15.98 L 23.59 15.28 Z" />
<path fill="#6c6863" opacity="1.00" d=" M 10.07 24.94 C 10.30 22.03 8.88 18.22 10.73 15.81 C 10.97 18.61 10.53 21.58 11.69 24.21 L 12.01 25.04 C 11.52 25.02 10.55 24.96 10.07 24.94 Z" />
<path fill="#6c6863" opacity="1.00" d=" M 11.69 24.21 C 14.44 24.11 17.20 24.04 19.95 24.02 L 20.17 24.95 C 17.45 25.01 14.73 25.04 12.01 25.04 L 11.69 24.21 Z" />
<path fill="#6c6863" opacity="1.00" d=" M 34.01 24.01 C 36.51 24.26 41.51 24.76 44.01 25.01 C 40.67 25.00 37.33 25.00 33.98 25.00 L 34.01 24.01 Z" />
<path fill="#6c6863" opacity="1.00" d=" M 9.74 36.11 C 9.98 34.76 10.74 33.66 11.79 32.80 L 11.74 33.84 C 11.51 36.21 11.25 38.58 10.95 40.95 L 10.03 41.02 C 9.96 39.38 9.88 37.74 9.74 36.11 Z" />
</g>
<g id="#eab181ff">
<path fill="#eab181" opacity="1.00" d=" M 45.46 30.32 C 49.76 27.76 55.18 32.38 53.02 37.02 C 53.25 41.22 46.63 42.88 44.19 39.82 C 41.28 37.29 42.51 32.23 45.46 30.32 Z" />
<path fill="#eab181" opacity="1.00" d=" M 40.11 44.05 C 40.96 40.70 47.08 43.33 49.02 42.96 C 51.20 42.96 55.05 41.10 55.90 44.03 C 50.63 44.02 45.37 43.94 40.11 44.05 Z" />
</g>
<g id="#000100bd">
<path fill="#000100" opacity="0.74" d=" M 13.27 35.13 C 21.45 35.25 30.27 33.96 38.07 35.93 C 30.13 36.28 22.14 35.60 14.21 36.15 C 11.24 41.42 13.89 48.83 12.93 54.93 C 12.47 54.98 11.56 55.08 11.10 55.13 C 13.89 48.83 9.77 40.75 13.27 35.13 Z" />
</g>
<g id="#f8d3b0ff">
<path fill="#f8d3b0" opacity="1.00" d=" M 40.11 44.05 C 45.37 43.94 50.63 44.02 55.90 44.03 C 56.21 45.66 55.49 48.07 57.75 48.41 C 57.94 51.03 58.10 53.66 58.23 56.28 C 51.47 57.40 44.50 57.39 37.75 56.28 C 37.82 52.13 37.24 47.47 40.11 44.05 Z" />
</g>
</svg>
