<?xml version="1.0" encoding="UTF-8" ?>
<!DOCTYPE svg PUBLIC "-//W3C//DTD SVG 1.1//EN" "http://www.w3.org/Graphics/SVG/1.1/DTD/svg11.dtd">
<svg width="64pt" height="64pt" viewBox="0 0 64 64" version="1.1" xmlns="http://www.w3.org/2000/svg">
<g id="#0a0a0afd">
<path fill="#0a0a0a" opacity="1.00" d=" M 11.93 11.99 C 16.71 8.43 23.97 12.32 23.84 18.25 C 27.06 11.99 36.97 11.96 40.16 18.28 C 39.97 12.32 47.30 8.43 52.07 12.00 C 55.43 14.13 55.73 18.40 54.66 21.90 C 56.25 24.13 58.09 26.34 58.74 29.07 C 59.61 32.77 59.22 36.60 59.27 40.36 C 55.15 40.54 51.02 40.52 46.90 40.55 C 47.06 44.42 47.07 48.30 46.86 52.17 C 36.97 52.37 27.07 52.29 17.18 52.22 C 16.91 48.33 16.89 44.44 17.09 40.55 C 12.97 40.52 8.85 40.54 4.74 40.37 C 4.77 36.61 4.39 32.78 5.25 29.08 C 5.90 26.34 7.74 24.13 9.34 21.90 C 8.25 18.40 8.57 14.13 11.93 11.99 M 15.32 13.07 C 11.54 13.52 9.59 18.84 12.35 21.53 C 14.09 24.07 17.55 23.47 19.89 22.19 C 20.49 21.00 21.13 19.82 21.78 18.66 C 21.30 15.52 18.75 12.46 15.32 13.07 M 42.17 18.75 C 43.34 21.26 45.55 24.04 48.69 23.27 C 53.04 22.72 54.51 16.20 50.71 13.86 C 47.01 11.30 42.52 14.76 42.17 18.75 M 25.95 19.12 C 24.05 21.78 25.35 24.98 26.66 27.55 C 27.78 28.24 28.90 28.93 30.01 29.63 C 31.34 29.63 32.66 29.63 33.99 29.63 C 35.10 28.93 36.22 28.24 37.34 27.55 C 38.66 24.97 39.95 21.77 38.04 19.10 C 35.46 14.72 28.52 14.73 25.95 19.12 M 10.83 23.74 C 6.73 27.49 6.31 33.32 6.84 38.52 C 10.30 38.33 13.77 38.28 17.22 38.58 C 18.31 34.29 20.62 30.47 24.10 27.71 C 23.36 26.35 22.62 24.99 21.88 23.64 C 18.59 26.14 14.15 26.31 10.83 23.74 M 42.12 23.63 C 41.38 24.99 40.64 26.35 39.90 27.71 C 43.38 30.47 45.66 34.31 46.77 38.58 C 50.23 38.29 53.70 38.32 57.16 38.52 C 57.67 33.35 57.30 27.52 53.19 23.79 C 49.73 26.05 45.45 26.29 42.12 23.63 M 19.82 37.24 C 18.64 41.48 19.13 45.95 19.10 50.30 C 27.70 50.29 36.30 50.29 44.90 50.30 C 44.82 45.36 45.64 40.08 43.40 35.47 C 42.47 33.08 40.54 31.35 38.84 29.52 C 34.86 32.79 29.14 32.80 25.17 29.52 C 22.94 31.75 20.72 34.14 19.82 37.24 Z" />
<path fill="#0a0a0a" opacity="1.00" d=" M 22.04 35.61 C 22.95 35.65 23.87 35.70 24.79 35.75 C 25.58 38.19 26.40 40.62 27.17 43.06 C 28.59 40.28 28.08 34.83 32.55 35.48 C 31.44 39.37 30.09 43.19 28.78 47.01 C 27.66 46.99 26.54 46.96 25.42 46.93 C 24.21 43.18 23.25 39.36 22.04 35.61 Z" />
<path fill="#0a0a0a" opacity="1.00" d=" M 32.40 38.98 C 32.89 33.55 41.84 34.26 42.16 39.56 C 40.07 39.54 38.43 38.29 36.66 37.39 C 36.23 37.80 35.36 38.63 34.93 39.05 C 37.40 39.88 39.85 40.77 42.20 41.87 C 41.79 43.46 42.32 45.67 40.60 46.60 C 37.58 48.51 32.51 47.52 31.93 43.52 C 32.61 43.46 33.97 43.34 34.65 43.28 C 35.40 45.74 37.66 45.37 39.61 44.72 C 39.39 44.33 38.95 43.54 38.74 43.15 C 36.47 42.14 32.68 42.10 32.40 38.98 Z" />
</g>
<g id="#fdfdfdff">
<path fill="#fdfdfd" opacity="1.00" d=" M 15.32 13.07 C 18.75 12.46 21.30 15.52 21.78 18.66 C 21.13 19.82 20.49 21.00 19.89 22.19 C 17.55 23.47 14.09 24.07 12.35 21.53 C 9.59 18.84 11.54 13.52 15.32 13.07 Z" />
<path fill="#fdfdfd" opacity="1.00" d=" M 42.17 18.75 C 42.52 14.76 47.01 11.30 50.71 13.86 C 54.51 16.20 53.04 22.72 48.69 23.27 C 45.55 24.04 43.34 21.26 42.17 18.75 Z" />
<path fill="#fdfdfd" opacity="1.00" d=" M 25.95 19.12 C 28.52 14.73 35.46 14.72 38.04 19.10 C 39.95 21.77 38.66 24.97 37.34 27.55 C 36.22 28.24 35.10 28.93 33.99 29.63 C 32.66 29.63 31.34 29.63 30.01 29.63 C 28.90 28.93 27.78 28.24 26.66 27.55 C 25.35 24.98 24.05 21.78 25.95 19.12 Z" />
<path fill="#fdfdfd" opacity="1.00" d=" M 10.83 23.74 C 14.15 26.31 18.59 26.14 21.88 23.64 C 22.62 24.99 23.36 26.35 24.10 27.71 C 20.62 30.47 18.31 34.29 17.22 38.58 C 13.77 38.28 10.30 38.33 6.84 38.52 C 6.31 33.32 6.73 27.49 10.83 23.74 Z" />
<path fill="#fdfdfd" opacity="1.00" d=" M 42.12 23.63 C 45.45 26.29 49.73 26.05 53.19 23.79 C 57.30 27.52 57.67 33.35 57.16 38.52 C 53.70 38.32 50.23 38.29 46.77 38.58 C 45.66 34.31 43.38 30.47 39.90 27.71 C 40.64 26.35 41.38 24.99 42.12 23.63 Z" />
<path fill="#fdfdfd" opacity="1.00" d=" M 19.82 37.24 C 20.72 34.14 22.94 31.75 25.17 29.52 C 29.14 32.80 34.86 32.79 38.84 29.52 C 40.54 31.35 42.47 33.08 43.40 35.47 C 45.64 40.08 44.82 45.36 44.90 50.30 C 36.30 50.29 27.70 50.29 19.10 50.30 C 19.13 45.95 18.64 41.48 19.82 37.24 M 22.04 35.61 C 23.25 39.36 24.21 43.18 25.42 46.93 C 26.54 46.96 27.66 46.99 28.78 47.01 C 30.09 43.19 31.44 39.37 32.55 35.48 C 28.08 34.83 28.59 40.28 27.17 43.06 C 26.40 40.62 25.58 38.19 24.79 35.75 C 23.87 35.70 22.95 35.65 22.04 35.61 M 32.40 38.98 C 32.68 42.10 36.47 42.14 38.74 43.15 C 38.95 43.54 39.39 44.33 39.61 44.72 C 37.66 45.37 35.40 45.74 34.65 43.28 C 33.97 43.34 32.61 43.46 31.93 43.52 C 32.51 47.52 37.58 48.51 40.60 46.60 C 42.32 45.67 41.79 43.46 42.20 41.87 C 39.85 40.77 37.40 39.88 34.93 39.05 C 35.36 38.63 36.23 37.80 36.66 37.39 C 38.43 38.29 40.07 39.54 42.16 39.56 C 41.84 34.26 32.89 33.55 32.40 38.98 Z" />
</g>
</svg>
