<?xml version="1.0" encoding="UTF-8" ?>
<!DOCTYPE svg PUBLIC "-//W3C//DTD SVG 1.1//EN" "http://www.w3.org/Graphics/SVG/1.1/DTD/svg11.dtd">
<svg width="64pt" height="64pt" viewBox="0 0 64 64" version="1.1" xmlns="http://www.w3.org/2000/svg">
<g id="#ffffffff">
<path fill="#ffffff" opacity="1.00" d=" M 5.84 19.79 C 14.64 16.07 23.08 11.42 32.00 8.05 C 40.87 11.39 49.25 16.06 58.01 19.71 C 59.42 20.24 60.92 21.41 60.88 23.06 C 60.98 32.38 60.87 41.70 60.93 51.02 C 61.01 52.52 60.79 54.01 60.27 55.42 C 41.43 55.55 22.58 55.54 3.74 55.42 C 3.18 54.03 2.98 52.53 3.06 51.03 C 3.13 41.71 3.01 32.39 3.11 23.07 C 3.07 21.49 4.47 20.29 5.84 19.79 M 5.31 22.72 C 5.33 32.95 5.26 43.18 5.35 53.41 C 8.32 53.31 11.29 53.29 14.27 53.28 C 14.33 45.60 14.42 37.91 14.22 30.23 C 26.07 30.38 37.93 30.41 49.77 30.22 C 49.56 37.88 49.72 45.55 49.69 53.22 C 52.67 53.32 55.66 53.33 58.65 53.40 C 58.72 43.17 58.68 32.93 58.68 22.70 C 49.77 18.58 40.88 14.42 32.00 10.23 C 23.13 14.46 14.18 18.50 5.31 22.72 Z" />
</g>
<g id="#030203ff">
<path fill="#030203" opacity="1.00" d=" M 5.31 22.72 C 14.18 18.50 23.13 14.46 32.00 10.23 C 40.88 14.42 49.77 18.58 58.68 22.70 C 58.68 32.93 58.72 43.17 58.65 53.40 C 55.66 53.33 52.67 53.32 49.69 53.22 C 49.72 45.55 49.56 37.88 49.77 30.22 C 37.93 30.41 26.07 30.38 14.22 30.23 C 14.42 37.91 14.33 45.60 14.27 53.28 C 11.29 53.29 8.32 53.31 5.35 53.41 C 5.26 43.18 5.33 32.95 5.31 22.72 Z" />
</g>
</svg>
