<?xml version="1.0" encoding="UTF-8" ?>
<!DOCTYPE svg PUBLIC "-//W3C//DTD SVG 1.1//EN" "http://www.w3.org/Graphics/SVG/1.1/DTD/svg11.dtd">
<svg width="64pt" height="64pt" viewBox="0 0 64 64" version="1.1" xmlns="http://www.w3.org/2000/svg">
<g id="#010201ff">
<path fill="#010201" opacity="1.00" d=" M 40.40 4.50 C 47.03 2.19 55.24 5.29 58.38 11.63 C 61.45 17.13 60.74 24.72 56.15 29.17 C 47.98 37.32 39.82 45.48 31.67 53.65 C 29.47 55.81 27.40 58.38 24.32 59.28 C 17.32 62.06 8.32 58.74 5.30 51.72 C 2.40 46.07 3.66 38.62 8.28 34.25 C 16.77 25.76 25.29 17.29 33.74 8.76 C 35.60 6.87 37.82 5.25 40.40 4.50 M 35.35 10.49 C 26.89 18.96 18.45 27.44 9.98 35.89 C 6.63 39.18 5.06 44.50 6.77 48.97 C 8.44 55.67 16.50 59.56 22.89 57.22 C 26.33 56.34 28.63 53.49 31.05 51.11 C 39.01 43.04 47.17 35.15 55.04 26.99 C 60.60 20.56 57.51 9.71 49.65 6.75 C 44.64 5.25 38.84 6.43 35.35 10.49 Z" />
<path fill="#010201" opacity="1.00" d=" M 10.57 39.54 C 14.85 34.37 20.04 30.01 24.60 25.08 C 27.50 29.57 31.20 33.44 35.19 36.98 C 29.96 42.11 24.94 47.46 19.47 52.34 C 17.23 53.68 14.64 54.53 12.15 53.28 C 8.95 49.58 7.12 43.69 10.57 39.54 Z" />
</g>
<g id="#fefefeff">
<path fill="#fefefe" opacity="1.00" d=" M 35.35 10.49 C 38.84 6.43 44.64 5.25 49.65 6.75 C 57.51 9.71 60.60 20.56 55.04 26.99 C 47.17 35.15 39.01 43.04 31.05 51.11 C 28.63 53.49 26.33 56.34 22.89 57.22 C 16.50 59.56 8.44 55.67 6.77 48.97 C 5.06 44.50 6.63 39.18 9.98 35.89 C 18.45 27.44 26.89 18.96 35.35 10.49 M 10.57 39.54 C 7.12 43.69 8.95 49.58 12.15 53.28 C 14.64 54.53 17.23 53.68 19.47 52.34 C 24.94 47.46 29.96 42.11 35.19 36.98 C 31.20 33.44 27.50 29.57 24.60 25.08 C 20.04 30.01 14.85 34.37 10.57 39.54 Z" />
</g>
</svg>
