<?xml version="1.0" encoding="UTF-8" ?>
<!DOCTYPE svg PUBLIC "-//W3C//DTD SVG 1.1//EN" "http://www.w3.org/Graphics/SVG/1.1/DTD/svg11.dtd">
<svg width="64pt" height="64pt" viewBox="0 0 64 64" version="1.1" xmlns="http://www.w3.org/2000/svg">
<g id="#030303f5">
<path fill="#030303" opacity="0.96" d=" M 4.62 2.64 C 9.03 2.28 13.50 2.40 17.92 2.62 C 20.22 2.63 19.88 5.39 20.06 6.98 C 20.12 20.29 20.06 33.61 20.09 46.92 C 28.43 46.97 36.79 46.64 45.12 47.05 C 47.65 50.39 46.12 55.33 46.52 59.32 C 47.02 58.18 47.53 57.05 48.06 55.92 C 47.22 58.23 46.22 61.96 43.04 61.52 C 31.69 61.55 20.35 61.45 9.00 61.55 C 7.28 61.53 5.55 61.55 3.86 61.19 C 3.21 59.89 3.21 58.43 3.18 57.02 C 3.23 40.34 3.23 23.66 3.19 6.98 C 3.40 5.50 2.75 3.23 4.62 2.64 M 5.67 5.04 C 5.69 23.01 5.69 40.99 5.67 58.96 C 18.44 59.15 31.21 59.00 43.98 59.05 C 43.93 55.80 43.94 52.56 44.06 49.32 C 35.19 49.25 26.32 49.46 17.46 49.20 C 17.79 34.51 17.48 19.80 17.62 5.11 C 13.64 4.91 9.66 4.90 5.67 5.04 Z" />
<path fill="#030303" opacity="0.96" d=" M 26.75 2.76 C 31.48 2.15 36.28 2.62 41.04 2.47 C 46.33 2.31 52.14 3.03 56.13 6.88 C 62.58 12.88 63.30 22.93 60.74 30.93 C 58.68 37.78 51.83 42.62 44.72 42.53 C 38.70 42.05 32.62 41.96 26.59 42.48 C 26.20 40.35 25.91 38.19 25.93 36.02 C 25.96 26.68 25.96 17.34 25.92 8.01 C 26.03 6.25 25.75 4.31 26.75 2.76 M 28.63 4.89 C 28.35 16.68 28.50 28.47 28.54 40.26 C 34.85 40.13 41.21 40.67 47.48 39.79 C 54.38 38.51 59.14 31.80 59.43 25.00 C 60.08 18.33 58.36 10.19 51.86 6.92 C 44.61 3.47 36.34 5.53 28.63 4.89 Z" />
<path fill="#030303" opacity="0.96" d=" M 36.40 33.60 C 36.14 26.23 36.31 18.85 36.30 11.48 C 40.93 11.61 46.96 10.54 50.00 14.98 C 52.75 20.46 52.74 27.94 48.12 32.47 C 44.39 34.03 40.33 33.61 36.40 33.60 M 38.60 14.45 C 37.85 19.91 37.92 25.59 38.79 31.04 C 42.25 30.94 46.97 31.55 48.62 27.62 C 48.87 24.62 47.99 21.56 49.00 18.62 C 47.30 14.62 42.62 12.73 38.60 14.45 Z" />
</g>
<g id="#fefefeff">
<path fill="#fefefe" opacity="1.00" d=" M 5.67 5.04 C 9.66 4.90 13.64 4.91 17.62 5.11 C 17.48 19.80 17.79 34.51 17.46 49.20 C 26.32 49.46 35.19 49.25 44.06 49.32 C 43.94 52.56 43.93 55.80 43.98 59.05 C 31.21 59.00 18.44 59.15 5.67 58.96 C 5.69 40.99 5.69 23.01 5.67 5.04 Z" />
<path fill="#fefefe" opacity="1.00" d=" M 28.63 4.89 C 36.34 5.53 44.61 3.47 51.86 6.92 C 58.36 10.19 60.08 18.33 59.43 25.00 C 59.14 31.80 54.38 38.51 47.48 39.79 C 41.21 40.67 34.85 40.13 28.54 40.26 C 28.50 28.47 28.35 16.68 28.63 4.89 M 36.40 33.60 C 40.33 33.61 44.39 34.03 48.12 32.47 C 52.74 27.94 52.75 20.46 50.00 14.98 C 46.96 10.54 40.93 11.61 36.30 11.48 C 36.31 18.85 36.14 26.23 36.40 33.60 Z" />
</g>
<g id="#0000003b">
<path fill="#000000" opacity="0.23" d=" M 39.15 29.15 C 38.84 24.39 38.84 19.60 39.15 14.84 C 40.63 19.44 40.57 24.55 39.15 29.15 Z" />
<path fill="#000000" opacity="0.23" d=" M 27.19 43.68 C 32.73 42.14 38.59 43.37 44.26 42.89 L 44.26 44.02 C 38.57 43.94 32.85 44.40 27.19 43.68 Z" />
</g>
</svg>
