<?xml version="1.0" encoding="UTF-8" ?>
<!DOCTYPE svg PUBLIC "-//W3C//DTD SVG 1.1//EN" "http://www.w3.org/Graphics/SVG/1.1/DTD/svg11.dtd">
<svg width="64pt" height="64pt" viewBox="0 0 64 64" version="1.1" xmlns="http://www.w3.org/2000/svg">
<g id="#010100ff">
<path fill="#010100" opacity="1.00" d=" M 22.63 6.66 C 28.46 3.22 35.89 3.63 41.79 6.67 L 41.98 7.40 C 42.39 7.67 43.22 8.21 43.63 8.49 C 44.90 8.28 45.55 9.78 46.36 10.50 C 51.18 16.13 52.58 24.64 49.32 31.36 C 45.35 38.40 41.37 45.44 37.36 52.46 C 35.98 54.81 35.01 57.46 33.09 59.44 C 31.12 60.15 29.89 58.55 29.11 57.01 C 24.82 49.01 20.07 41.27 15.76 33.27 C 10.02 24.66 13.25 11.30 22.63 6.66 M 15.13 23.73 C 15.42 28.40 17.49 33.24 20.87 36.38 L 19.99 36.40 C 24.26 43.14 27.76 50.33 32.02 57.07 C 35.93 50.12 40.22 43.34 43.74 36.18 L 43.94 36.13 C 45.74 32.92 47.95 29.87 48.73 26.20 C 50.04 17.70 44.35 8.92 35.92 7.00 C 25.72 4.05 14.65 13.21 15.13 23.73 Z" />
<path fill="#010100" opacity="1.00" d=" M 28.52 15.78 C 30.67 15.08 33.08 15.07 35.25 15.69 C 38.74 17.20 40.63 21.08 40.32 24.77 C 39.28 29.17 34.92 32.41 30.38 31.36 C 26.90 30.98 24.73 27.93 23.68 24.86 C 23.40 21.21 25.13 17.39 28.52 15.78 Z" />
</g>
<g id="#fadc5dff">
<path fill="#fadc5d" opacity="1.00" d=" M 15.13 23.73 C 14.65 13.21 25.72 4.05 35.92 7.00 C 44.35 8.92 50.04 17.70 48.73 26.20 C 47.42 26.75 46.11 27.30 44.80 27.86 C 44.34 26.66 43.88 25.46 43.42 24.27 C 42.38 24.44 41.35 24.61 40.32 24.77 C 40.63 21.08 38.74 17.20 35.25 15.69 C 33.08 15.07 30.67 15.08 28.52 15.78 C 25.13 17.39 23.40 21.21 23.68 24.86 C 22.87 24.62 22.06 24.38 21.25 24.15 C 20.26 25.16 19.27 26.18 18.28 27.20 C 17.24 26.04 16.19 24.88 15.13 23.73 Z" />
</g>
<g id="#51451ffe">
<path fill="#51451f" opacity="1.00" d=" M 41.98 7.40 C 42.39 7.45 43.21 7.56 43.62 7.62 L 43.63 8.49 C 43.22 8.21 42.39 7.67 41.98 7.40 Z" />
</g>
<g id="#f2c64eff">
<path fill="#f2c64e" opacity="1.00" d=" M 15.13 23.73 C 16.19 24.88 17.24 26.04 18.28 27.20 C 19.27 26.18 20.26 25.16 21.25 24.15 C 22.06 24.38 22.87 24.62 23.68 24.86 C 24.73 27.93 26.90 30.98 30.38 31.36 C 34.92 32.41 39.28 29.17 40.32 24.77 C 41.35 24.61 42.38 24.44 43.42 24.27 C 43.88 25.46 44.34 26.66 44.80 27.86 C 46.11 27.30 47.42 26.75 48.73 26.20 C 47.95 29.87 45.74 32.92 43.94 36.13 L 43.74 36.18 C 36.34 38.36 28.31 38.35 20.87 36.38 C 17.49 33.24 15.42 28.40 15.13 23.73 Z" />
</g>
<g id="#eeb849ff">
<path fill="#eeb849" opacity="1.00" d=" M 20.87 36.38 C 28.31 38.35 36.34 38.36 43.74 36.18 C 40.22 43.34 35.93 50.12 32.02 57.07 C 27.76 50.33 24.26 43.14 19.99 36.40 L 20.87 36.38 Z" />
</g>
</svg>
