<?xml version="1.0" encoding="UTF-8" ?>
<!DOCTYPE svg PUBLIC "-//W3C//DTD SVG 1.1//EN" "http://www.w3.org/Graphics/SVG/1.1/DTD/svg11.dtd">
<svg width="64pt" height="64pt" viewBox="0 0 64 64" version="1.1" xmlns="http://www.w3.org/2000/svg">
<g id="#040204ff">
<path fill="#040204" opacity="1.00" d=" M 26.49 14.85 C 36.79 11.24 48.98 18.99 49.82 29.90 C 51.42 40.16 42.37 50.36 31.99 49.93 C 22.41 50.28 13.71 41.58 14.07 32.00 C 13.83 24.34 19.27 17.14 26.49 14.85 M 28.55 16.71 C 21.20 18.29 15.60 25.73 16.37 33.26 C 16.85 40.36 22.79 46.64 29.86 47.52 C 38.46 48.99 47.17 41.84 47.64 33.17 C 48.73 23.15 38.34 14.08 28.55 16.71 Z" />
<path fill="#040204" opacity="1.00" d=" M 24.12 24.14 C 27.64 20.33 33.79 20.01 38.12 22.58 C 33.07 27.88 27.88 33.07 22.58 38.12 C 20.03 33.80 20.33 27.67 24.12 24.14 Z" />
<path fill="#040204" opacity="1.00" d=" M 25.93 41.35 C 31.05 36.18 36.18 31.01 41.39 25.92 C 43.15 28.69 43.33 32.12 42.67 35.26 C 40.83 42.18 31.80 45.32 25.93 41.35 Z" />
</g>
<g id="#fdfbfdff">
<path fill="#fdfbfd" opacity="1.00" d=" M 28.55 16.71 C 38.34 14.08 48.73 23.15 47.64 33.17 C 47.17 41.84 38.46 48.99 29.86 47.52 C 22.79 46.64 16.85 40.36 16.37 33.26 C 15.60 25.73 21.20 18.29 28.55 16.71 M 24.12 24.14 C 20.33 27.67 20.03 33.80 22.58 38.12 C 27.88 33.07 33.07 27.88 38.12 22.58 C 33.79 20.01 27.64 20.33 24.12 24.14 M 25.93 41.35 C 31.80 45.32 40.83 42.18 42.67 35.26 C 43.33 32.12 43.15 28.69 41.39 25.92 C 36.18 31.01 31.05 36.18 25.93 41.35 Z" />
</g>
</svg>
