<?xml version="1.0" encoding="UTF-8" ?>
<!DOCTYPE svg PUBLIC "-//W3C//DTD SVG 1.1//EN" "http://www.w3.org/Graphics/SVG/1.1/DTD/svg11.dtd">
<svg width="64pt" height="64pt" viewBox="0 0 64 64" version="1.1" xmlns="http://www.w3.org/2000/svg">
<g id="#010101ff">
<path fill="#010101" opacity="1.00" d=" M 29.06 5.16 C 31.07 3.62 33.91 3.51 36.01 4.94 C 42.51 9.50 48.95 14.16 55.51 18.63 C 58.45 20.35 59.83 23.66 59.34 26.99 C 59.78 30.40 57.46 33.98 53.84 34.06 C 53.56 41.06 53.84 48.08 53.69 55.09 C 53.75 58.00 50.83 60.24 48.04 60.01 C 37.66 59.99 27.27 59.91 16.89 59.99 C 13.82 60.12 11.34 56.99 11.69 54.05 C 11.67 47.42 11.78 40.79 11.62 34.16 C 8.85 34.24 5.58 33.09 5.00 30.04 C 4.49 26.76 3.97 22.45 7.05 20.23 C 14.36 15.17 21.75 10.21 29.06 5.16 M 30.28 7.19 C 23.14 12.02 16.09 16.98 8.93 21.78 C 5.90 23.95 7.10 28.15 7.82 31.18 C 9.85 31.58 11.92 31.66 13.98 31.81 C 13.90 39.24 14.05 46.68 14.10 54.11 C 14.15 55.47 14.67 57.46 16.30 57.57 C 22.66 57.78 29.03 57.57 35.39 57.62 C 35.18 53.40 35.28 49.18 35.28 44.96 C 38.83 44.92 42.38 44.93 45.94 44.94 C 46.14 49.22 46.09 53.50 46.07 57.78 C 48.10 57.72 50.95 57.63 51.40 55.09 C 51.58 47.37 51.50 39.64 51.50 31.92 C 53.00 31.72 54.55 31.60 55.97 31.01 C 57.27 28.51 57.39 25.17 56.38 22.60 C 50.06 17.14 42.69 12.99 36.15 7.77 C 34.52 6.27 32.14 5.73 30.28 7.19 Z" />
<path fill="#010101" opacity="1.00" d=" M 19.70 27.06 C 23.32 27.05 26.95 27.09 30.57 27.09 L 30.58 27.24 C 30.35 30.72 30.29 34.21 30.40 37.69 C 26.80 37.66 23.20 37.62 19.60 37.75 C 19.69 34.19 19.67 30.63 19.70 27.06 Z" />
</g>
<g id="#eff0efff">
<path fill="#eff0ef" opacity="1.00" d=" M 30.28 7.19 C 32.14 5.73 34.52 6.27 36.15 7.77 C 42.69 12.99 50.06 17.14 56.38 22.60 C 57.39 25.17 57.27 28.51 55.97 31.01 C 54.55 31.60 53.00 31.72 51.50 31.92 C 45.37 32.61 39.20 32.36 33.06 32.27 C 32.21 30.60 31.40 28.92 30.58 27.24 L 30.57 27.09 C 26.95 27.09 23.32 27.05 19.70 27.06 C 19.67 30.63 19.69 34.19 19.60 37.75 C 17.86 36.23 16.56 34.32 15.49 32.29 C 15.11 32.17 14.36 31.93 13.98 31.81 C 11.92 31.66 9.85 31.58 7.82 31.18 C 7.10 28.15 5.90 23.95 8.93 21.78 C 16.09 16.98 23.14 12.02 30.28 7.19 Z" />
</g>
<g id="#d3d2d3ff">
<path fill="#d3d2d3" opacity="1.00" d=" M 30.58 27.24 C 31.40 28.92 32.21 30.60 33.06 32.27 C 39.20 32.36 45.37 32.61 51.50 31.92 C 51.50 39.64 51.58 47.37 51.40 55.09 C 50.95 57.63 48.10 57.72 46.07 57.78 C 46.09 53.50 46.14 49.22 45.94 44.94 C 42.38 44.93 38.83 44.92 35.28 44.96 C 35.28 49.18 35.18 53.40 35.39 57.62 C 29.03 57.57 22.66 57.78 16.30 57.57 C 14.67 57.46 14.15 55.47 14.10 54.11 C 14.05 46.68 13.90 39.24 13.98 31.81 C 14.36 31.93 15.11 32.17 15.49 32.29 C 16.56 34.32 17.86 36.23 19.60 37.75 C 23.20 37.62 26.80 37.66 30.40 37.69 C 30.29 34.21 30.35 30.72 30.58 27.24 Z" />
</g>
</svg>
