<?xml version="1.0" encoding="UTF-8" ?>
<!DOCTYPE svg PUBLIC "-//W3C//DTD SVG 1.1//EN" "http://www.w3.org/Graphics/SVG/1.1/DTD/svg11.dtd">
<svg width="64pt" height="64pt" viewBox="0 0 64 64" version="1.1" xmlns="http://www.w3.org/2000/svg">
<g id="#010101ff">
<path fill="#010101" opacity="1.00" d=" M 27.08 9.22 C 28.29 7.53 29.59 5.17 32.02 5.35 C 34.51 5.13 35.59 7.73 36.96 9.29 C 44.46 9.64 52.26 8.02 59.54 10.31 C 60.12 12.97 61.12 16.56 57.95 18.00 C 54.01 18.88 49.88 18.29 45.86 18.47 C 48.76 20.93 51.18 24.21 51.41 28.14 C 51.54 33.63 51.99 39.24 50.67 44.62 C 53.11 47.91 52.78 52.15 52.25 55.98 C 51.39 58.89 48.04 58.52 45.67 58.47 C 44.88 56.77 44.16 55.03 43.55 53.26 C 35.85 53.32 28.15 53.31 20.44 53.27 C 19.71 55.14 19.48 58.05 16.99 58.38 C 14.73 59.21 12.29 57.73 11.63 55.53 C 11.17 51.85 10.91 47.76 13.30 44.64 C 12.17 39.22 12.36 33.64 12.58 28.14 C 12.82 24.24 15.29 21.08 17.86 18.37 C 13.95 18.50 9.96 18.81 6.10 18.06 C 2.38 16.35 3.01 9.89 7.24 9.36 C 13.84 8.92 20.47 9.32 27.08 9.22 M 29.63 11.39 C 21.83 11.65 14.01 11.14 6.23 11.76 C 6.06 13.35 6.11 14.97 7.10 16.30 C 14.73 16.29 22.36 16.30 29.99 16.37 C 29.98 16.85 29.94 17.80 29.92 18.27 C 24.91 17.84 19.35 18.96 16.52 23.55 L 16.25 23.49 C 15.49 25.93 14.48 28.36 14.65 30.97 C 14.81 36.21 13.47 42.53 18.03 46.37 C 16.59 46.83 15.15 47.27 13.69 47.65 C 13.68 50.19 13.70 52.74 13.69 55.28 C 14.32 55.56 15.58 56.12 16.21 56.39 C 18.30 55.42 17.42 52.89 17.75 51.07 C 27.25 51.02 36.75 50.83 46.24 51.09 C 46.59 52.90 45.68 55.48 47.81 56.40 C 48.43 56.11 49.68 55.55 50.30 55.26 C 50.30 52.73 50.32 50.20 50.30 47.66 C 48.86 47.23 47.42 46.80 45.97 46.38 C 50.52 42.54 49.19 36.24 49.35 31.01 C 49.53 28.42 48.56 25.99 47.79 23.57 L 47.59 23.61 C 44.57 19.20 39.19 17.71 34.08 18.27 C 34.06 17.80 34.02 16.85 34.01 16.38 C 41.58 16.17 49.17 16.55 56.73 16.12 C 58.42 15.18 57.82 13.31 57.71 11.75 C 49.95 11.14 42.15 11.65 34.37 11.39 C 33.67 10.21 34.30 7.01 32.00 7.76 C 29.70 7.00 30.33 10.21 29.63 11.39 Z" />
<path fill="#010101" opacity="1.00" d=" M 20.58 24.35 C 23.32 22.43 26.69 22.22 29.92 22.18 C 29.93 22.72 29.95 23.80 29.95 24.33 C 29.98 27.32 29.97 30.30 29.93 33.28 C 26.14 33.27 22.35 33.30 18.56 33.22 C 18.63 30.16 19.00 27.04 20.58 24.35 Z" />
<path fill="#010101" opacity="1.00" d=" M 34.08 22.16 C 37.41 22.09 40.70 22.77 43.61 24.42 C 44.80 27.20 45.30 30.20 45.47 33.21 C 41.67 33.30 37.87 33.27 34.07 33.28 C 34.03 30.28 34.01 27.27 34.05 24.27 C 34.06 23.74 34.08 22.69 34.08 22.16 Z" />
</g>
<g id="#f1f2f1ff">
<path fill="#f1f2f1" opacity="1.00" d=" M 29.63 11.39 C 30.33 10.21 29.70 7.00 32.00 7.76 C 34.30 7.01 33.67 10.21 34.37 11.39 C 42.15 11.65 49.95 11.14 57.71 11.75 C 57.82 13.31 58.42 15.18 56.73 16.12 C 49.17 16.55 41.58 16.17 34.01 16.38 C 34.02 16.85 34.06 17.80 34.08 18.27 C 39.19 17.71 44.57 19.20 47.59 23.61 C 46.59 23.81 44.60 24.22 43.61 24.42 C 40.70 22.77 37.41 22.09 34.08 22.16 C 34.08 22.69 34.06 23.74 34.05 24.27 C 32.68 24.29 31.32 24.31 29.95 24.33 C 29.95 23.80 29.93 22.72 29.92 22.18 C 26.69 22.22 23.32 22.43 20.58 24.35 C 19.57 24.15 17.54 23.75 16.52 23.55 C 19.35 18.96 24.91 17.84 29.92 18.27 C 29.94 17.80 29.98 16.85 29.99 16.37 C 22.36 16.30 14.73 16.29 7.10 16.30 C 6.11 14.97 6.06 13.35 6.23 11.76 C 14.01 11.14 21.83 11.65 29.63 11.39 Z" />
</g>
<g id="#d4d4d4ff">
<path fill="#d4d4d4" opacity="1.00" d=" M 16.25 23.49 L 16.52 23.55 C 17.54 23.75 19.57 24.15 20.58 24.35 C 19.00 27.04 18.63 30.16 18.56 33.22 C 22.35 33.30 26.14 33.27 29.93 33.28 C 29.97 30.30 29.98 27.32 29.95 24.33 C 31.32 24.31 32.68 24.29 34.05 24.27 C 34.01 27.27 34.03 30.28 34.07 33.28 C 37.87 33.27 41.67 33.30 45.47 33.21 C 45.30 30.20 44.80 27.20 43.61 24.42 C 44.60 24.22 46.59 23.81 47.59 23.61 L 47.79 23.57 C 48.56 25.99 49.53 28.42 49.35 31.01 C 49.19 36.24 50.52 42.54 45.97 46.38 C 47.42 46.80 48.86 47.23 50.30 47.66 C 50.32 50.20 50.30 52.73 50.30 55.26 C 49.68 55.55 48.43 56.11 47.81 56.40 C 45.68 55.48 46.59 52.90 46.24 51.09 C 36.75 50.83 27.25 51.02 17.75 51.07 C 17.42 52.89 18.30 55.42 16.21 56.39 C 15.58 56.12 14.32 55.56 13.69 55.28 C 13.70 52.74 13.68 50.19 13.69 47.65 C 15.15 47.27 16.59 46.83 18.03 46.37 C 13.47 42.53 14.81 36.21 14.65 30.97 C 14.48 28.36 15.49 25.93 16.25 23.49 Z" />
</g>
</svg>
