<?xml version="1.0" encoding="UTF-8" ?>
<!DOCTYPE svg PUBLIC "-//W3C//DTD SVG 1.1//EN" "http://www.w3.org/Graphics/SVG/1.1/DTD/svg11.dtd">
<svg width="64pt" height="64pt" viewBox="0 0 64 64" version="1.1" xmlns="http://www.w3.org/2000/svg">
<g id="#020302e6">
<path fill="#020302" opacity="0.90" d=" M 38.29 11.27 C 39.79 6.69 45.94 4.32 50.03 7.01 C 52.57 8.64 53.76 11.55 54.38 14.38 C 56.90 15.27 59.88 16.32 60.88 19.09 C 62.98 23.73 59.82 29.53 54.93 30.62 C 52.56 31.40 50.19 30.35 47.96 29.60 C 40.63 34.52 33.70 40.02 26.46 45.09 C 26.92 47.76 27.85 50.70 26.39 53.25 C 24.68 57.48 19.00 59.52 15.09 57.06 C 12.11 55.62 11.30 52.17 10.60 49.24 C 8.06 48.49 5.10 47.83 3.73 45.28 C 0.70 41.02 3.26 34.47 8.14 32.94 C 11.08 31.61 14.22 32.85 16.91 34.17 C 24.18 29.12 31.23 23.74 38.40 18.55 C 37.92 16.17 37.24 13.61 38.29 11.27 M 41.17 11.07 C 39.15 13.48 40.37 16.69 41.77 19.05 C 39.51 20.72 37.27 22.44 34.95 24.03 C 29.77 28.03 24.45 31.84 19.15 35.68 L 19.03 35.48 C 18.45 35.98 17.30 36.99 16.73 37.49 C 14.68 35.73 12.08 33.64 9.23 35.04 C 6.35 35.68 5.10 38.47 4.39 41.03 C 5.24 45.19 9.53 47.37 13.52 46.62 C 12.13 50.14 14.28 53.78 17.20 55.71 C 18.35 55.69 19.49 55.69 20.63 55.71 C 22.32 54.32 24.69 52.98 24.77 50.52 C 25.12 48.39 24.00 46.45 23.06 44.65 C 25.04 43.25 26.98 41.79 28.85 40.26 L 28.99 40.30 C 34.43 36.09 40.19 32.29 45.64 28.07 C 46.40 27.52 47.16 26.96 47.92 26.41 C 50.07 28.05 53.12 29.42 55.67 27.76 C 58.56 26.40 60.19 22.62 58.44 19.75 C 57.42 17.15 54.26 16.98 51.92 16.45 C 52.02 13.33 50.81 10.45 48.44 8.41 C 45.69 7.82 42.69 8.53 41.17 11.07 Z" />
</g>
<g id="#f2f2f2ff">
<path fill="#f2f2f2" opacity="1.00" d=" M 41.17 11.07 C 42.69 8.53 45.69 7.82 48.44 8.41 C 50.81 10.45 52.02 13.33 51.92 16.45 C 54.26 16.98 57.42 17.15 58.44 19.75 C 60.19 22.62 58.56 26.40 55.67 27.76 C 53.12 29.42 50.07 28.05 47.92 26.41 C 47.16 26.96 46.40 27.52 45.64 28.07 C 42.83 27.35 39.98 26.85 37.11 26.49 C 36.39 25.67 35.67 24.85 34.95 24.03 C 37.27 22.44 39.51 20.72 41.77 19.05 C 40.37 16.69 39.15 13.48 41.17 11.07 Z" />
</g>
<g id="#e3e3e3ff">
<path fill="#e3e3e3" opacity="1.00" d=" M 19.15 35.68 C 24.45 31.84 29.77 28.03 34.95 24.03 C 35.67 24.85 36.39 25.67 37.11 26.49 C 39.98 26.85 42.83 27.35 45.64 28.07 C 40.19 32.29 34.43 36.09 28.99 40.30 L 28.85 40.26 C 26.26 39.21 23.53 38.57 20.76 38.24 C 20.36 37.60 19.56 36.32 19.15 35.68 Z" />
</g>
<g id="#d2d2d2ff">
<path fill="#d2d2d2" opacity="1.00" d=" M 9.23 35.04 C 12.08 33.64 14.68 35.73 16.73 37.49 C 17.30 36.99 18.45 35.98 19.03 35.48 L 19.15 35.68 C 19.56 36.32 20.36 37.60 20.76 38.24 C 23.53 38.57 26.26 39.21 28.85 40.26 C 26.98 41.79 25.04 43.25 23.06 44.65 C 24.00 46.45 25.12 48.39 24.77 50.52 C 24.69 52.98 22.32 54.32 20.63 55.71 C 19.49 55.69 18.35 55.69 17.20 55.71 C 14.28 53.78 12.13 50.14 13.52 46.62 C 9.53 47.37 5.24 45.19 4.39 41.03 C 5.10 38.47 6.35 35.68 9.23 35.04 Z" />
</g>
</svg>
