<?xml version="1.0" encoding="UTF-8" ?>
<!DOCTYPE svg PUBLIC "-//W3C//DTD SVG 1.1//EN" "http://www.w3.org/Graphics/SVG/1.1/DTD/svg11.dtd">
<svg width="64pt" height="64pt" viewBox="0 0 64 64" version="1.1" xmlns="http://www.w3.org/2000/svg">
<g id="#080907f7">
<path fill="#080907" opacity="0.97" d=" M 23.57 5.36 C 23.59 4.11 24.78 3.08 26.03 3.25 C 30.52 3.18 35.07 2.85 39.52 3.52 C 41.73 7.57 39.98 12.69 40.53 17.14 C 44.06 15.30 47.40 13.06 51.07 11.50 C 53.16 10.97 54.10 13.50 55.11 14.85 C 56.82 18.17 60.10 21.06 59.79 25.08 C 56.09 27.19 52.46 29.41 48.89 31.72 C 52.43 33.61 55.87 35.67 59.38 37.60 C 60.32 42.88 55.66 46.81 53.97 51.45 C 49.00 52.03 45.17 47.85 40.82 46.09 C 40.72 50.88 40.89 55.69 40.44 60.47 C 34.92 60.67 29.24 61.37 23.80 60.24 C 22.58 55.67 23.57 50.82 23.17 46.14 C 19.35 48.14 15.52 50.13 11.78 52.29 C 7.80 49.45 6.78 44.31 3.98 40.51 C 5.11 35.31 11.36 34.57 15.06 31.73 C 11.52 29.39 7.89 27.19 4.22 25.06 C 4.26 23.66 4.17 22.17 5.07 20.98 C 7.00 17.91 8.71 14.66 11.05 11.88 C 11.50 11.76 12.40 11.52 12.85 11.39 C 16.59 12.92 19.94 15.22 23.47 17.16 C 23.52 13.23 23.29 9.29 23.57 5.36 M 25.68 20.96 C 21.11 18.75 16.82 16.03 12.29 13.74 C 10.30 17.00 8.31 20.26 6.44 23.60 C 9.15 25.16 11.82 26.81 14.45 28.50 C 16.21 29.60 18.01 30.62 19.77 31.71 C 15.36 34.33 10.88 36.84 6.45 39.42 C 8.14 42.65 9.85 45.86 11.56 49.08 C 16.45 47.43 20.70 44.41 25.36 42.25 C 25.43 42.58 25.55 43.24 25.62 43.57 C 25.61 48.55 25.65 53.54 25.49 58.52 C 29.83 58.32 34.17 58.31 38.51 58.53 C 38.42 53.40 38.57 48.28 38.31 43.16 C 43.48 43.45 47.22 47.55 51.97 49.04 C 54.50 46.25 55.77 42.57 57.51 39.27 C 52.99 36.91 48.62 34.30 44.24 31.70 C 45.98 30.64 47.75 29.65 49.48 28.58 C 52.14 26.84 54.83 25.16 57.58 23.56 C 55.69 20.27 53.72 17.02 51.81 13.73 C 47.18 15.98 42.82 18.74 38.26 21.12 C 38.32 15.86 38.45 10.60 38.17 5.35 C 34.15 5.65 30.10 5.70 26.09 5.26 C 25.29 10.46 25.78 15.73 25.68 20.96 Z" />
</g>
<g id="#7ce56bff">
<path fill="#7ce56b" opacity="1.00" d=" M 25.68 20.96 C 25.78 15.73 25.29 10.46 26.09 5.26 C 30.10 5.70 34.15 5.65 38.17 5.35 C 38.45 10.60 38.32 15.86 38.26 21.12 C 42.82 18.74 47.18 15.98 51.81 13.73 C 53.72 17.02 55.69 20.27 57.58 23.56 C 54.83 25.16 52.14 26.84 49.48 28.58 C 37.81 28.42 26.13 28.50 14.45 28.50 C 11.82 26.81 9.15 25.16 6.44 23.60 C 8.31 20.26 10.30 17.00 12.29 13.74 C 16.82 16.03 21.11 18.75 25.68 20.96 Z" />
</g>
<g id="#6cc95cff">
<path fill="#6cc95c" opacity="1.00" d=" M 14.45 28.50 C 26.13 28.50 37.81 28.42 49.48 28.58 C 47.75 29.65 45.98 30.64 44.24 31.70 C 48.62 34.30 52.99 36.91 57.51 39.27 C 55.77 42.57 54.50 46.25 51.97 49.04 C 47.22 47.55 43.48 43.45 38.31 43.16 C 34.10 42.49 29.72 42.09 25.62 43.57 C 25.55 43.24 25.43 42.58 25.36 42.25 C 20.70 44.41 16.45 47.43 11.56 49.08 C 9.85 45.86 8.14 42.65 6.45 39.42 C 10.88 36.84 15.36 34.33 19.77 31.71 C 18.01 30.62 16.21 29.60 14.45 28.50 Z" />
</g>
<g id="#5fb54fff">
<path fill="#5fb54f" opacity="1.00" d=" M 25.62 43.57 C 29.72 42.09 34.10 42.49 38.31 43.16 C 38.57 48.28 38.42 53.40 38.51 58.53 C 34.17 58.31 29.83 58.32 25.49 58.52 C 25.65 53.54 25.61 48.55 25.62 43.57 Z" />
</g>
</svg>
