<?xml version="1.0" encoding="UTF-8" ?>
<!DOCTYPE svg PUBLIC "-//W3C//DTD SVG 1.1//EN" "http://www.w3.org/Graphics/SVG/1.1/DTD/svg11.dtd">
<svg width="64pt" height="64pt" viewBox="0 0 64 64" version="1.1" xmlns="http://www.w3.org/2000/svg">
<g id="#030103ff">
<path fill="#030103" opacity="1.00" d=" M 30.44 8.48 C 31.66 7.79 33.03 8.18 34.20 8.74 C 42.25 12.45 50.27 16.24 58.35 19.89 C 59.41 20.35 60.16 21.26 60.97 22.05 C 60.81 29.71 61.26 37.36 60.95 45.02 C 60.75 48.50 61.65 52.14 60.26 55.46 C 41.42 55.53 22.59 55.52 3.76 55.46 C 2.55 52.79 3.05 49.83 3.00 47.00 C 2.92 38.67 2.87 30.34 3.05 22.01 C 4.96 19.66 8.01 18.92 10.62 17.64 C 17.20 14.54 23.82 11.49 30.44 8.48 M 5.33 22.71 C 5.32 32.94 5.28 43.17 5.35 53.40 C 8.31 53.28 11.27 53.30 14.23 53.30 C 14.37 45.61 14.38 37.91 14.23 30.23 C 26.07 30.38 37.93 30.38 49.77 30.23 C 49.62 37.91 49.63 45.61 49.77 53.30 C 52.73 53.30 55.69 53.28 58.64 53.40 C 58.73 43.17 58.67 32.94 58.67 22.72 C 49.80 18.52 40.86 14.46 31.99 10.26 C 23.13 14.47 14.19 18.51 5.33 22.71 Z" />
</g>
<g id="#fffeffff">
<path fill="#fffeff" opacity="1.00" d=" M 5.33 22.71 C 14.19 18.51 23.13 14.47 31.99 10.26 C 40.86 14.46 49.80 18.52 58.67 22.72 C 58.67 32.94 58.73 43.17 58.64 53.40 C 55.69 53.28 52.73 53.30 49.77 53.30 C 49.63 45.61 49.62 37.91 49.77 30.23 C 37.93 30.38 26.07 30.38 14.23 30.23 C 14.38 37.91 14.37 45.61 14.23 53.30 C 11.27 53.30 8.31 53.28 5.35 53.40 C 5.28 43.17 5.32 32.94 5.33 22.71 Z" />
</g>
</svg>
