<?xml version="1.0" encoding="UTF-8" ?>
<!DOCTYPE svg PUBLIC "-//W3C//DTD SVG 1.1//EN" "http://www.w3.org/Graphics/SVG/1.1/DTD/svg11.dtd">
<svg width="64pt" height="64pt" viewBox="0 0 64 64" version="1.1" xmlns="http://www.w3.org/2000/svg">
<g id="#090609ff">
<path fill="#090609" opacity="1.00" d=" M 28.10 17.16 C 30.46 14.74 34.52 13.77 37.53 15.41 C 39.74 16.67 39.09 19.33 38.50 21.31 C 36.36 21.93 34.22 22.57 32.13 23.34 C 35.09 25.74 38.03 28.21 41.40 30.04 C 46.57 23.64 57.99 25.02 61.24 32.67 C 65.39 41.07 56.43 51.99 47.42 48.65 C 46.31 48.00 45.14 47.48 43.90 47.15 C 42.51 46.77 41.89 45.34 41.03 44.32 C 40.23 43.40 39.60 41.97 38.12 42.19 C 34.36 41.96 30.60 42.41 26.84 42.37 C 23.13 41.46 22.62 37.09 21.28 34.14 C 21.32 37.97 21.70 42.24 19.25 45.50 C 15.89 50.06 8.45 50.47 4.56 46.38 C 0.40 42.53 1.18 34.92 5.80 31.74 C 8.41 29.61 11.96 29.75 15.10 30.22 C 19.41 25.84 23.69 21.43 28.10 17.16 M 31.81 16.83 C 26.49 22.13 21.34 27.66 15.83 32.75 C 13.28 32.73 10.58 31.68 8.15 32.88 C 6.02 34.29 4.32 36.42 4.17 39.06 C 3.82 43.48 8.08 47.60 12.50 46.79 C 15.91 46.63 17.86 43.33 19.29 40.65 L 17.83 40.28 L 19.12 40.53 C 18.75 38.70 18.32 36.88 17.66 35.12 C 19.24 33.50 20.80 31.86 22.41 30.27 C 24.06 33.46 24.27 37.59 27.05 40.07 C 31.77 40.47 36.52 40.07 41.25 40.29 C 42.94 43.38 45.52 46.46 49.29 46.73 C 54.10 47.58 58.57 43.92 59.80 39.39 C 60.06 35.65 58.85 31.60 55.45 29.61 C 50.78 26.42 44.00 28.81 41.82 33.89 C 37.57 30.50 33.21 27.25 28.95 23.88 C 30.15 22.66 31.35 21.43 32.55 20.20 C 34.06 19.82 36.89 20.28 36.76 17.92 C 35.30 16.88 33.51 16.96 31.81 16.83 Z" />
<path fill="#090609" opacity="1.00" d=" M 44.24 35.16 C 46.14 32.65 49.12 30.24 52.46 31.57 C 56.03 32.40 57.00 36.36 56.86 39.54 C 55.34 41.49 53.62 43.77 50.87 43.77 C 48.13 44.26 46.22 41.92 44.34 40.36 C 46.54 40.31 48.77 40.39 50.96 40.05 C 52.70 39.31 53.38 36.74 51.69 35.57 C 49.23 35.18 46.72 35.31 44.24 35.16 Z" />
<path fill="#090609" opacity="1.00" d=" M 8.41 36.37 C 9.73 35.33 11.56 35.40 13.13 34.98 C 12.22 36.32 11.28 37.64 10.47 39.05 C 11.51 42.31 13.94 38.09 15.57 37.29 C 15.67 38.14 15.77 38.99 15.86 39.84 C 15.44 41.82 14.13 43.91 11.82 43.74 C 9.35 44.22 8.02 41.87 6.57 40.37 C 7.12 39.01 7.55 37.57 8.41 36.37 Z" />
</g>
<g id="#dfdfdfff">
<path fill="#dfdfdf" opacity="1.00" d=" M 31.81 16.83 C 33.51 16.96 35.30 16.88 36.76 17.92 C 36.89 20.28 34.06 19.82 32.55 20.20 C 31.35 21.43 30.15 22.66 28.95 23.88 C 33.21 27.25 37.57 30.50 41.82 33.89 C 44.00 28.81 50.78 26.42 55.45 29.61 C 58.85 31.60 60.06 35.65 59.80 39.39 C 59.06 39.43 57.59 39.50 56.86 39.54 C 57.00 36.36 56.03 32.40 52.46 31.57 C 49.12 30.24 46.14 32.65 44.24 35.16 C 46.72 35.31 49.23 35.18 51.69 35.57 C 53.38 36.74 52.70 39.31 50.96 40.05 C 48.77 40.39 46.54 40.31 44.34 40.36 C 43.57 40.34 42.02 40.31 41.25 40.29 C 36.52 40.07 31.77 40.47 27.05 40.07 C 24.27 37.59 24.06 33.46 22.41 30.27 C 20.80 31.86 19.24 33.50 17.66 35.12 C 18.32 36.88 18.75 38.70 19.12 40.53 L 17.83 40.28 C 17.33 40.17 16.35 39.95 15.86 39.84 C 15.77 38.99 15.67 38.14 15.57 37.29 C 13.94 38.09 11.51 42.31 10.47 39.05 C 11.28 37.64 12.22 36.32 13.13 34.98 C 11.56 35.40 9.73 35.33 8.41 36.37 C 7.55 37.57 7.12 39.01 6.57 40.37 C 5.97 40.04 4.77 39.39 4.17 39.06 C 4.32 36.42 6.02 34.29 8.15 32.88 C 10.58 31.68 13.28 32.73 15.83 32.75 C 21.34 27.66 26.49 22.13 31.81 16.83 Z" />
</g>
<g id="#c6c8c6ff">
<path fill="#c6c8c6" opacity="1.00" d=" M 4.17 39.06 C 4.77 39.39 5.97 40.04 6.57 40.37 C 8.02 41.87 9.35 44.22 11.82 43.74 C 14.13 43.91 15.44 41.82 15.86 39.84 C 16.35 39.95 17.33 40.17 17.83 40.28 L 19.29 40.65 C 17.86 43.33 15.91 46.63 12.50 46.79 C 8.08 47.60 3.82 43.48 4.17 39.06 Z" />
<path fill="#c6c8c6" opacity="1.00" d=" M 41.25 40.29 C 42.02 40.31 43.57 40.34 44.34 40.36 C 46.22 41.92 48.13 44.26 50.87 43.77 C 53.62 43.77 55.34 41.49 56.86 39.54 C 57.59 39.50 59.06 39.43 59.80 39.39 C 58.57 43.92 54.10 47.58 49.29 46.73 C 45.52 46.46 42.94 43.38 41.25 40.29 Z" />
</g>
<g id="#0606067b">
<path fill="#060606" opacity="0.48" d=" M 26.84 42.37 C 30.60 42.41 34.36 41.96 38.12 42.19 C 39.60 41.97 40.23 43.40 41.03 44.32 C 40.52 43.94 39.52 43.17 39.01 42.79 C 34.96 43.24 30.85 43.17 26.84 42.37 Z" />
<path fill="#060606" opacity="0.48" d=" M 43.90 47.15 C 45.14 47.48 46.31 48.00 47.42 48.65 C 46.40 50.08 43.47 48.90 43.90 47.15 Z" />
</g>
</svg>
