<?xml version="1.0" encoding="UTF-8" ?>
<!DOCTYPE svg PUBLIC "-//W3C//DTD SVG 1.1//EN" "http://www.w3.org/Graphics/SVG/1.1/DTD/svg11.dtd">
<svg width="64pt" height="64pt" viewBox="0 0 64 64" version="1.1" xmlns="http://www.w3.org/2000/svg">
<g id="#080405fa">
<path fill="#080405" opacity="0.98" d=" M 10.22 4.14 C 18.82 3.86 27.42 3.98 36.01 4.00 C 39.21 3.72 40.13 7.57 41.29 9.84 C 44.60 11.25 45.46 5.68 48.79 7.15 C 50.49 8.81 52.16 10.52 53.78 12.27 C 56.49 16.00 51.76 17.04 52.01 19.99 C 51.91 32.33 52.02 44.67 52.02 57.01 C 52.00 57.75 51.96 59.23 51.94 59.97 C 37.65 59.99 23.35 60.11 9.05 59.94 C 9.03 59.21 9.00 57.74 8.98 57.00 C 9.04 40.33 8.99 23.66 8.99 6.99 C 8.81 5.77 9.22 4.82 10.22 4.14 M 11.04 7.00 C 11.02 14.25 10.74 21.55 11.19 28.78 C 10.66 38.44 11.17 48.13 10.95 57.81 L 11.72 57.64 C 23.84 58.62 36.08 57.91 48.23 57.68 C 48.64 57.46 49.45 57.02 49.86 56.80 C 50.14 48.26 50.02 39.70 50.00 31.16 C 50.07 27.88 50.11 24.58 49.86 21.31 C 48.03 17.52 44.08 14.51 40.78 12.03 L 41.04 11.07 C 35.35 10.84 29.64 11.00 23.95 11.02 L 24.11 11.93 C 21.87 11.48 22.13 7.56 19.91 7.02 L 20.01 6.06 C 17.63 6.76 10.93 3.74 11.04 7.00 M 24.02 6.04 C 23.99 6.56 23.93 7.59 23.90 8.11 C 23.35 12.61 31.45 8.01 33.01 10.02 C 32.95 15.36 41.37 7.16 38.23 8.14 C 35.67 3.27 28.29 7.32 24.02 6.04 M 46.08 11.81 C 43.62 11.91 48.75 17.23 50.38 16.66 L 51.07 17.12 C 51.48 14.51 49.70 12.61 48.12 10.80 C 47.70 9.44 45.88 10.94 46.08 11.81 Z" />
<path fill="#080405" opacity="0.98" d=" M 14.50 26.25 C 12.24 24.52 14.07 21.20 16.76 21.74 C 20.21 21.97 23.67 21.88 27.13 21.84 C 27.30 22.15 27.64 22.78 27.81 23.09 C 24.26 24.21 17.12 20.86 14.98 24.05 C 14.86 24.60 14.62 25.70 14.50 26.25 Z" />
<path fill="#080405" opacity="0.98" d=" M 34.76 22.65 C 37.83 21.75 41.05 21.88 44.22 21.73 C 47.62 21.56 47.61 27.19 45.03 27.85 C 45.02 27.38 45.01 26.45 45.00 25.99 C 44.99 25.50 44.96 24.54 44.95 24.06 C 43.84 21.28 37.67 23.78 34.76 22.65 Z" />
<path fill="#080405" opacity="0.98" d=" M 18.98 29.38 C 18.40 26.60 23.73 25.72 22.82 28.78 C 22.15 30.11 22.01 31.61 22.00 33.08 C 21.97 34.35 21.98 35.62 22.02 36.90 C 21.54 36.68 20.58 36.24 20.09 36.02 C 20.87 32.93 16.01 29.24 19.18 37.97 C 19.29 39.28 19.52 41.90 19.63 43.22 C 19.55 44.49 19.26 45.74 19.12 47.01 C 18.44 49.36 19.68 51.37 21.01 53.17 C 19.38 53.01 17.79 52.54 16.28 51.90 C 16.67 48.68 17.66 45.54 17.73 42.29 C 17.83 39.12 17.88 35.96 17.84 32.80 L 17.98 31.98 C 18.35 31.13 18.69 30.26 18.98 29.38 Z" />
<path fill="#080405" opacity="0.98" d=" M 22.00 33.08 C 23.95 31.95 25.84 30.71 27.88 29.74 C 27.92 31.53 28.00 35.10 28.05 36.89 C 26.05 37.08 24.02 37.11 22.02 36.90 C 21.98 35.62 21.97 34.35 22.00 33.08 Z" />
<path fill="#080405" opacity="0.98" d=" M 32.08 29.62 C 35.42 30.55 38.87 33.14 38.09 37.02 C 36.08 37.11 34.05 37.06 32.05 36.86 C 32.06 35.05 32.07 31.43 32.08 29.62 Z" />
<path fill="#080405" opacity="0.98" d=" M 39.97 31.07 C 40.13 30.74 40.46 30.08 40.62 29.75 C 41.00 30.32 41.77 31.46 42.15 32.02 L 42.35 32.79 C 42.25 35.94 42.05 39.09 42.17 42.24 C 41.68 45.82 44.49 48.55 44.96 51.81 C 43.08 52.68 41.05 53.15 38.98 53.14 C 40.33 51.36 41.57 49.35 40.89 47.01 C 40.73 45.74 40.44 44.49 40.33 43.21 C 40.96 39.72 40.91 36.25 40.21 32.78 C 40.15 32.36 40.03 31.50 39.97 31.07 Z" />
<path fill="#080405" opacity="0.98" d=" M 22.02 47.97 C 27.36 47.92 32.70 47.92 38.04 47.94 C 37.83 48.28 37.42 48.94 37.21 49.27 C 32.40 49.12 27.59 48.92 22.78 49.23 C 22.59 48.92 22.21 48.28 22.02 47.97 Z" />
</g>
<g id="#6f1c2bff">
<path fill="#6f1c2b" opacity="1.00" d=" M 11.04 7.00 C 10.93 3.74 17.63 6.76 20.01 6.06 L 19.91 7.02 C 16.95 7.00 14.00 7.00 11.04 7.00 Z" />
<path fill="#6f1c2b" opacity="1.00" d=" M 40.78 12.03 C 44.08 14.51 48.03 17.52 49.86 21.31 C 45.95 19.30 42.96 15.77 40.78 12.03 Z" />
<path fill="#6f1c2b" opacity="1.00" d=" M 50.38 16.66 C 48.75 17.23 43.62 11.91 46.08 11.81 C 47.78 13.18 49.27 14.79 50.38 16.66 Z" />
<path fill="#6f1c2b" opacity="1.00" d=" M 17.73 42.29 C 16.48 39.23 17.14 35.91 17.84 32.80 C 17.88 35.96 17.83 39.12 17.73 42.29 Z" />
<path fill="#6f1c2b" opacity="1.00" d=" M 42.35 32.79 C 43.54 35.85 42.68 39.13 42.17 42.24 C 42.05 39.09 42.25 35.94 42.35 32.79 Z" />
<path fill="#6f1c2b" opacity="1.00" d=" M 22.78 49.23 C 27.59 48.92 32.40 49.12 37.21 49.27 L 36.75 50.03 C 32.25 49.98 27.74 50.01 23.23 50.03 L 22.78 49.23 Z" />
<path fill="#6f1c2b" opacity="1.00" d=" M 11.72 57.64 C 23.80 56.44 36.12 56.71 48.23 57.68 C 36.08 57.91 23.84 58.62 11.72 57.64 Z" />
</g>
<g id="#01000145">
<path fill="#010001" opacity="0.27" d=" M 24.02 6.04 C 28.29 7.32 35.67 3.27 38.23 8.14 L 37.32 8.34 C 33.14 8.22 28.96 8.18 24.79 8.23 L 23.90 8.11 C 23.93 7.59 23.99 6.56 24.02 6.04 Z" />
<path fill="#010001" opacity="0.27" d=" M 8.02 7.01 L 8.99 6.99 C 8.99 23.66 9.04 40.33 8.98 57.00 L 8.01 57.00 C 7.98 40.33 7.97 23.67 8.02 7.01 Z" />
<path fill="#010001" opacity="0.27" d=" M 52.01 19.99 L 52.98 20.00 C 53.01 32.33 53.07 44.65 52.97 56.98 L 52.02 57.01 C 52.02 44.67 51.91 32.33 52.01 19.99 Z" />
</g>
<g id="#c32d35ff">
<path fill="#c32d35" opacity="1.00" d=" M 11.04 7.00 C 14.00 7.00 16.95 7.00 19.91 7.02 C 22.13 7.56 21.87 11.48 24.11 11.93 C 29.66 12.15 35.22 11.99 40.78 12.03 C 42.96 15.77 45.95 19.30 49.86 21.31 C 50.11 24.58 50.07 27.88 50.00 31.16 C 47.40 31.58 44.77 31.81 42.15 32.02 C 41.77 31.46 41.00 30.32 40.62 29.75 C 40.94 27.52 43.44 28.28 45.03 27.85 C 47.61 27.19 47.62 21.56 44.22 21.73 C 39.78 20.87 35.11 20.96 30.95 18.98 C 31.90 20.31 32.96 21.56 33.99 22.82 C 33.47 23.05 32.43 23.52 31.91 23.75 C 30.17 24.15 31.78 20.65 29.99 21.13 C 28.13 20.56 29.96 24.20 28.17 23.83 L 27.81 23.09 C 27.64 22.78 27.30 22.15 27.13 21.84 C 24.02 20.68 20.56 20.64 16.76 21.74 C 14.07 21.20 12.24 24.52 14.50 26.25 C 15.36 28.02 17.35 28.55 18.98 29.38 C 18.69 30.26 18.35 31.13 17.98 31.98 C 15.05 33.70 11.63 32.23 11.19 28.78 C 10.74 21.55 11.02 14.25 11.04 7.00 Z" />
<path fill="#c32d35" opacity="1.00" d=" M 46.08 11.81 C 45.88 10.94 47.70 9.44 48.12 10.80 C 49.70 12.61 51.48 14.51 51.07 17.12 L 50.38 16.66 C 49.27 14.79 47.78 13.18 46.08 11.81 Z" />
</g>
<g id="#00000078">
<path fill="#000000" opacity="0.47" d=" M 23.90 8.11 L 24.79 8.23 C 28.88 8.83 33.26 9.63 37.32 8.34 L 38.23 8.14 C 41.37 7.16 32.95 15.36 33.01 10.02 C 31.45 8.01 23.35 12.61 23.90 8.11 Z" />
</g>
<g id="#392124ff">
<path fill="#392124" opacity="1.00" d=" M 23.95 11.02 C 29.64 11.00 35.35 10.84 41.04 11.07 L 40.78 12.03 C 35.22 11.99 29.66 12.15 24.11 11.93 L 23.95 11.02 Z" />
<path fill="#392124" opacity="1.00" d=" M 14.50 26.25 C 19.09 25.90 23.70 26.06 28.29 26.14 C 26.48 27.04 24.63 27.87 22.82 28.78 C 23.73 25.72 18.40 26.60 18.98 29.38 C 17.35 28.55 15.36 28.02 14.50 26.25 Z" />
<path fill="#392124" opacity="1.00" d=" M 31.84 26.09 C 36.22 25.95 40.61 26.01 45.00 25.99 C 45.01 26.45 45.02 27.38 45.03 27.85 C 43.44 28.28 40.94 27.52 40.62 29.75 C 40.46 30.08 40.13 30.74 39.97 31.07 C 37.43 29.14 34.68 27.52 31.84 26.09 Z" />
</g>
<g id="#952841ff">
<path fill="#952841" opacity="1.00" d=" M 30.95 18.98 C 35.11 20.96 39.78 20.87 44.22 21.73 C 41.05 21.88 37.83 21.75 34.76 22.65 L 33.99 22.82 C 32.96 21.56 31.90 20.31 30.95 18.98 Z" />
<path fill="#952841" opacity="1.00" d=" M 16.76 21.74 C 20.56 20.64 24.02 20.68 27.13 21.84 C 23.67 21.88 20.21 21.97 16.76 21.74 Z" />
<path fill="#952841" opacity="1.00" d=" M 11.19 28.78 C 11.63 32.23 15.05 33.70 17.98 31.98 L 17.84 32.80 C 17.14 35.91 16.48 39.23 17.73 42.29 C 17.66 45.54 16.67 48.68 16.28 51.90 C 17.79 52.54 19.38 53.01 21.01 53.17 C 21.93 52.26 22.51 51.09 23.23 50.03 C 27.74 50.01 32.25 49.98 36.75 50.03 C 37.48 51.08 38.06 52.25 38.98 53.14 C 41.05 53.15 43.08 52.68 44.96 51.81 C 44.49 48.55 41.68 45.82 42.17 42.24 C 42.68 39.13 43.54 35.85 42.35 32.79 L 42.15 32.02 C 44.77 31.81 47.40 31.58 50.00 31.16 C 50.02 39.70 50.14 48.26 49.86 56.80 C 49.45 57.02 48.64 57.46 48.23 57.68 C 36.12 56.71 23.80 56.44 11.72 57.64 L 10.95 57.81 C 11.17 48.13 10.66 38.44 11.19 28.78 Z" />
</g>
<g id="#f8f8f8ff">
<path fill="#f8f8f8" opacity="1.00" d=" M 28.17 23.83 C 29.96 24.20 28.13 20.56 29.99 21.13 C 31.78 20.65 30.17 24.15 31.91 23.75 C 36.25 23.97 40.60 23.98 44.95 24.06 C 44.96 24.54 44.99 25.50 45.00 25.99 C 40.61 26.01 36.22 25.95 31.84 26.09 C 34.68 27.52 37.43 29.14 39.97 31.07 C 40.03 31.50 40.15 32.36 40.21 32.78 C 40.15 33.30 40.05 34.33 40.00 34.84 C 39.39 35.59 38.75 36.32 38.09 37.02 C 38.87 33.14 35.42 30.55 32.08 29.62 C 30.73 28.99 29.14 28.79 27.88 29.74 C 25.84 30.71 23.95 31.95 22.00 33.08 C 22.01 31.61 22.15 30.11 22.82 28.78 C 24.63 27.87 26.48 27.04 28.29 26.14 C 23.70 26.06 19.09 25.90 14.50 26.25 C 14.62 25.70 14.86 24.60 14.98 24.05 C 19.37 23.95 23.78 24.16 28.17 23.83 Z" />
</g>
<g id="#b3b4b3ff">
<path fill="#b3b4b3" opacity="1.00" d=" M 14.98 24.05 C 17.12 20.86 24.26 24.21 27.81 23.09 L 28.17 23.83 C 23.78 24.16 19.37 23.95 14.98 24.05 Z" />
<path fill="#b3b4b3" opacity="1.00" d=" M 31.91 23.75 C 32.43 23.52 33.47 23.05 33.99 22.82 L 34.76 22.65 C 37.67 23.78 43.84 21.28 44.95 24.06 C 40.60 23.98 36.25 23.97 31.91 23.75 Z" />
<path fill="#b3b4b3" opacity="1.00" d=" M 19.18 37.97 C 16.01 29.24 20.87 32.93 20.09 36.02 C 19.98 37.82 19.75 41.42 19.63 43.22 C 19.52 41.90 19.29 39.28 19.18 37.97 Z" />
<path fill="#b3b4b3" opacity="1.00" d=" M 40.21 32.78 C 40.91 36.25 40.96 39.72 40.33 43.21 C 40.08 40.42 39.97 37.64 40.00 34.84 C 40.05 34.33 40.15 33.30 40.21 32.78 Z" />
<path fill="#b3b4b3" opacity="1.00" d=" M 19.12 47.01 C 26.37 46.99 33.63 46.99 40.89 47.01 C 41.57 49.35 40.33 51.36 38.98 53.14 C 38.06 52.25 37.48 51.08 36.75 50.03 L 37.21 49.27 C 37.42 48.94 37.83 48.28 38.04 47.94 C 32.70 47.92 27.36 47.92 22.02 47.97 C 22.21 48.28 22.59 48.92 22.78 49.23 L 23.23 50.03 C 22.51 51.09 21.93 52.26 21.01 53.17 C 19.68 51.37 18.44 49.36 19.12 47.01 Z" />
</g>
<g id="#d5d5d5ff">
<path fill="#d5d5d5" opacity="1.00" d=" M 27.88 29.74 C 29.14 28.79 30.73 28.99 32.08 29.62 C 30.73 31.25 29.24 36.16 32.05 36.86 C 34.05 37.06 36.08 37.11 38.09 37.02 C 38.75 36.32 39.39 35.59 40.00 34.84 C 39.97 37.64 40.08 40.42 40.33 43.21 C 40.44 44.49 40.73 45.74 40.89 47.01 C 33.63 46.99 26.37 46.99 19.12 47.01 C 19.26 45.74 19.55 44.49 19.63 43.22 C 19.75 41.42 19.98 37.82 20.09 36.02 C 20.58 36.24 21.54 36.68 22.02 36.90 C 24.02 37.11 26.05 37.08 28.05 36.89 C 30.79 36.76 29.77 30.92 27.88 29.74 Z" />
</g>
<g id="#646464ff">
<path fill="#646464" opacity="1.00" d=" M 27.88 29.74 C 29.77 30.92 30.79 36.76 28.05 36.89 C 28.00 35.10 27.92 31.53 27.88 29.74 Z" />
<path fill="#646464" opacity="1.00" d=" M 32.05 36.86 C 29.24 36.16 30.73 31.25 32.08 29.62 C 32.07 31.43 32.06 35.05 32.05 36.86 Z" />
</g>
</svg>
