<?xml version="1.0" encoding="UTF-8" ?>
<!DOCTYPE svg PUBLIC "-//W3C//DTD SVG 1.1//EN" "http://www.w3.org/Graphics/SVG/1.1/DTD/svg11.dtd">
<svg width="64pt" height="64pt" viewBox="0 0 64 64" version="1.1" xmlns="http://www.w3.org/2000/svg">
<g id="#0c0e0cfe">
<path fill="#0c0e0c" opacity="1.00" d=" M 28.48 6.40 C 30.58 6.33 32.68 6.15 34.77 6.35 C 37.39 6.97 36.47 10.16 36.85 12.10 C 44.07 14.10 49.89 19.90 51.74 27.19 C 53.60 27.48 56.19 26.74 57.27 28.77 C 57.77 30.88 57.75 33.13 57.29 35.24 C 56.09 37.12 53.59 36.53 51.73 36.83 C 49.85 44.05 44.05 49.89 36.87 51.88 C 36.46 53.83 37.40 56.97 34.81 57.65 C 32.70 57.85 30.58 57.66 28.47 57.59 C 27.38 55.85 27.42 53.80 27.41 51.82 C 20.06 49.97 14.51 43.91 12.32 36.78 C 10.35 36.80 8.16 36.86 6.83 35.13 C 6.97 32.73 7.12 30.33 7.26 27.93 C 9.35 27.19 12.83 28.04 13.25 25.10 C 15.43 18.75 20.98 13.91 27.41 12.18 C 27.43 10.20 27.37 8.13 28.48 6.40 M 29.68 8.86 C 29.70 10.65 29.70 12.44 29.70 14.23 C 21.63 15.05 15.94 22.07 14.29 29.62 C 12.52 29.64 10.74 29.66 8.96 29.72 C 8.98 31.25 8.98 32.78 8.98 34.32 C 10.75 34.34 12.51 34.37 14.27 34.40 C 15.95 41.94 21.66 48.93 29.72 49.75 C 29.72 51.54 29.71 53.33 29.69 55.11 C 31.22 55.42 32.77 55.49 34.33 55.31 C 34.33 53.57 34.33 51.84 34.33 50.10 C 38.73 48.84 43.15 46.93 45.96 43.12 C 48.52 40.67 48.42 36.64 51.13 34.33 C 52.57 35.03 53.96 34.33 55.34 33.99 C 55.34 32.67 55.34 31.34 55.35 30.02 C 53.52 29.28 51.57 29.42 49.65 29.53 C 48.79 21.54 42.04 15.49 34.41 13.92 C 34.37 12.13 34.35 10.35 34.30 8.57 C 32.75 8.47 31.21 8.57 29.68 8.86 Z" />
</g>
<g id="#ecececff">
<path fill="#ececec" opacity="1.00" d=" M 29.68 8.86 C 31.21 8.57 32.75 8.47 34.30 8.57 C 34.35 10.35 34.37 12.13 34.41 13.92 C 42.04 15.49 48.79 21.54 49.65 29.53 L 49.73 29.82 C 51.34 30.15 52.97 30.40 54.60 30.67 C 54.59 31.60 54.59 32.54 54.59 33.47 C 53.17 33.47 51.76 33.46 50.34 33.46 C 49.54 33.91 48.94 35.92 47.90 35.36 C 47.74 34.58 47.40 33.03 47.23 32.25 C 43.98 31.51 40.62 31.89 37.33 31.95 C 37.33 31.37 37.34 30.21 37.34 29.64 C 39.98 29.67 42.63 29.67 45.27 29.63 C 44.25 23.84 39.47 19.85 34.02 18.34 C 34.29 21.11 34.37 23.89 34.42 26.67 C 32.82 26.66 31.23 26.66 29.63 26.67 C 29.67 24.03 29.67 21.39 29.62 18.75 C 24.11 19.78 20.08 24.35 18.87 29.69 L 20.67 29.69 C 18.78 34.86 12.21 31.96 8.96 29.72 C 10.74 29.66 12.52 29.64 14.29 29.62 C 15.94 22.07 21.63 15.05 29.70 14.23 C 29.70 12.44 29.70 10.65 29.68 8.86 Z" />
</g>
<g id="#010101ff">
<path fill="#010101" opacity="1.00" d=" M 34.02 18.34 C 39.47 19.85 44.25 23.84 45.27 29.63 C 42.63 29.67 39.98 29.67 37.34 29.64 C 37.34 30.21 37.33 31.37 37.33 31.95 C 37.32 32.56 37.30 33.77 37.30 34.38 C 39.94 34.34 42.59 34.34 45.24 34.38 C 44.18 40.12 39.49 44.31 33.96 45.67 C 34.29 42.90 34.40 40.10 34.43 37.31 C 32.83 37.31 31.23 37.31 29.63 37.31 C 29.67 39.97 29.67 42.64 29.62 45.30 C 24.16 44.17 20.10 39.69 18.89 34.34 C 21.59 34.33 24.30 34.33 27.00 34.34 C 27.00 32.77 27.00 31.21 27.00 29.65 C 24.89 29.66 22.78 29.67 20.67 29.69 L 18.87 29.69 C 20.08 24.35 24.11 19.78 29.62 18.75 C 29.67 21.39 29.67 24.03 29.63 26.67 C 31.23 26.66 32.82 26.66 34.42 26.67 C 34.37 23.89 34.29 21.11 34.02 18.34 Z" />
</g>
<g id="#00000052">
<path fill="#000000" opacity="0.32" d=" M 4.04 28.03 C 4.85 28.00 6.45 27.95 7.26 27.93 C 7.12 30.33 6.97 32.73 6.83 35.13 C 6.32 33.60 5.72 32.02 4.05 31.44 C 4.04 30.30 4.04 29.16 4.04 28.03 Z" />
</g>
<g id="#dbdddbff">
<path fill="#dbdddb" opacity="1.00" d=" M 49.65 29.53 C 51.57 29.42 53.52 29.28 55.35 30.02 C 55.34 31.34 55.34 32.67 55.34 33.99 C 53.96 34.33 52.57 35.03 51.13 34.33 C 48.42 36.64 48.52 40.67 45.96 43.12 C 43.15 46.93 38.73 48.84 34.33 50.10 C 34.33 51.84 34.33 53.57 34.33 55.31 C 32.77 55.49 31.22 55.42 29.69 55.11 C 29.71 53.33 29.72 51.54 29.72 49.75 C 21.66 48.93 15.95 41.94 14.27 34.40 C 12.51 34.37 10.75 34.34 8.98 34.32 C 8.98 32.78 8.98 31.25 8.96 29.72 C 12.21 31.96 18.78 34.86 20.67 29.69 C 22.78 29.67 24.89 29.66 27.00 29.65 C 27.00 31.21 27.00 32.77 27.00 34.34 C 24.30 34.33 21.59 34.33 18.89 34.34 C 20.10 39.69 24.16 44.17 29.62 45.30 C 29.67 42.64 29.67 39.97 29.63 37.31 C 31.23 37.31 32.83 37.31 34.43 37.31 C 34.40 40.10 34.29 42.90 33.96 45.67 C 39.49 44.31 44.18 40.12 45.24 34.38 C 42.59 34.34 39.94 34.34 37.30 34.38 C 37.30 33.77 37.32 32.56 37.33 31.95 C 40.62 31.89 43.98 31.51 47.23 32.25 C 47.40 33.03 47.74 34.58 47.90 35.36 C 48.94 35.92 49.54 33.91 50.34 33.46 C 51.76 33.46 53.17 33.47 54.59 33.47 C 54.59 32.54 54.59 31.60 54.60 30.67 C 52.97 30.40 51.34 30.15 49.73 29.82 L 49.65 29.53 Z" />
</g>
</svg>
