<?xml version="1.0" encoding="UTF-8" ?>
<!DOCTYPE svg PUBLIC "-//W3C//DTD SVG 1.1//EN" "http://www.w3.org/Graphics/SVG/1.1/DTD/svg11.dtd">
<svg width="64pt" height="64pt" viewBox="0 0 64 64" version="1.1" xmlns="http://www.w3.org/2000/svg">
<g id="#080808f9">
<path fill="#080808" opacity="0.98" d=" M 26.37 15.58 C 31.82 13.70 38.78 14.75 42.40 19.57 C 44.79 23.01 44.69 27.98 42.33 31.42 C 40.60 33.66 38.06 35.07 36.25 37.23 C 35.91 40.91 36.40 44.61 36.33 48.31 C 33.14 49.88 29.57 49.29 26.19 48.89 C 25.98 44.27 25.63 39.62 26.08 35.00 C 26.96 31.35 30.21 29.06 32.93 26.79 C 32.88 26.08 32.78 24.66 32.73 23.95 C 29.79 23.67 29.62 26.61 28.85 28.72 C 25.71 29.37 22.49 29.00 19.33 28.82 C 18.00 23.41 21.18 17.52 26.37 15.58 M 24.93 19.03 C 22.32 20.78 21.61 24.04 21.13 26.94 C 23.12 26.97 25.10 26.98 27.08 26.98 C 27.18 24.13 29.41 21.24 32.49 21.65 C 35.31 21.95 36.28 25.67 34.91 27.80 C 33.03 30.09 30.53 31.78 28.81 34.20 C 28.19 35.73 28.15 37.42 27.84 39.02 C 29.69 39.02 31.54 39.03 33.40 39.00 C 33.67 34.79 37.70 32.91 40.28 30.19 C 42.90 26.96 41.75 22.40 39.33 19.42 C 35.07 16.75 29.18 15.89 24.93 19.03 M 28.36 41.36 C 28.34 43.26 28.32 45.16 28.33 47.06 C 30.21 47.02 32.09 46.98 33.97 46.95 C 33.97 45.07 33.97 43.20 33.98 41.33 C 32.11 41.32 30.23 41.33 28.36 41.36 Z" />
</g>
<g id="#fdfdfdff">
<path fill="#fdfdfd" opacity="1.00" d=" M 24.93 19.03 C 29.18 15.89 35.07 16.75 39.33 19.42 C 41.75 22.40 42.90 26.96 40.28 30.19 C 37.70 32.91 33.67 34.79 33.40 39.00 C 31.54 39.03 29.69 39.02 27.84 39.02 C 28.15 37.42 28.19 35.73 28.81 34.20 C 30.53 31.78 33.03 30.09 34.91 27.80 C 36.28 25.67 35.31 21.95 32.49 21.65 C 29.41 21.24 27.18 24.13 27.08 26.98 C 25.10 26.98 23.12 26.97 21.13 26.94 C 21.61 24.04 22.32 20.78 24.93 19.03 Z" />
<path fill="#fdfdfd" opacity="1.00" d=" M 28.36 41.36 C 30.23 41.33 32.11 41.32 33.98 41.33 C 33.97 43.20 33.97 45.07 33.97 46.95 C 32.09 46.98 30.21 47.02 28.33 47.06 C 28.32 45.16 28.34 43.26 28.36 41.36 Z" />
</g>
</svg>
