<?xml version="1.0" encoding="UTF-8" ?>
<!DOCTYPE svg PUBLIC "-//W3C//DTD SVG 1.1//EN" "http://www.w3.org/Graphics/SVG/1.1/DTD/svg11.dtd">
<svg width="64pt" height="64pt" viewBox="0 0 64 64" version="1.1" xmlns="http://www.w3.org/2000/svg">
<g id="#26465e97">
<path fill="#26465e" opacity="0.59" d=" M 3.10 0.00 L 60.76 0.00 L 60.29 0.54 C 52.55 1.47 44.73 0.74 36.96 0.96 C 25.84 0.70 14.68 1.55 3.61 0.44 L 3.10 0.00 Z" />
<path fill="#26465e" opacity="0.59" d=" M 0.81 3.29 C 1.06 1.91 1.90 1.15 3.34 1.01 C 3.04 2.47 2.20 3.23 0.81 3.29 Z" />
<path fill="#26465e" opacity="0.59" d=" M 60.74 0.88 C 62.05 1.08 62.81 1.85 63.02 3.18 C 61.53 3.15 60.77 2.38 60.74 0.88 Z" />
<path fill="#26465e" opacity="0.59" d=" M 0.00 3.28 L 0.52 3.74 C 0.72 5.16 0.87 6.57 0.95 8.00 C 1.10 25.70 0.75 43.43 1.08 61.11 L 0.00 59.47 L 0.00 3.28 Z" />
<path fill="#26465e" opacity="0.59" d=" M 63.44 3.67 L 64.00 3.22 L 64.00 59.56 L 63.10 60.92 C 62.96 45.29 63.10 29.66 63.02 14.03 C 62.97 10.57 62.96 7.10 63.44 3.67 Z" />
</g>
<g id="#09578eff">
<path fill="#09578e" opacity="1.00" d=" M 3.34 1.01 L 3.61 0.44 C 14.68 1.55 25.84 0.70 36.96 0.96 C 44.73 0.74 52.55 1.47 60.29 0.54 L 60.74 0.88 C 60.77 2.38 61.53 3.15 63.02 3.18 L 63.44 3.67 C 62.96 7.10 62.97 10.57 63.02 14.03 C 63.10 29.66 62.96 45.29 63.10 60.92 L 62.50 61.82 C 62.48 61.83 62.45 61.87 62.43 61.89 C 61.78 62.37 60.47 63.35 59.81 63.84 C 59.72 63.88 59.55 63.96 59.46 64.00 L 4.51 64.00 C 4.42 63.96 4.24 63.87 4.15 63.82 C 3.54 63.32 2.31 62.33 1.69 61.83 C 1.60 61.74 1.43 61.55 1.34 61.46 L 1.08 61.11 C 0.75 43.43 1.10 25.70 0.95 8.00 C 0.87 6.57 0.72 5.16 0.52 3.74 L 0.81 3.29 C 2.20 3.23 3.04 2.47 3.34 1.01 M 25.07 9.77 C 21.57 10.61 17.47 11.20 15.24 14.38 C 14.16 17.14 14.39 20.22 13.83 23.11 C 12.03 32.03 13.10 41.18 12.82 50.22 C 13.62 50.22 15.20 50.22 15.99 50.22 C 15.98 52.56 15.72 56.50 19.15 56.29 C 21.97 55.75 21.32 52.32 21.48 50.21 C 28.34 50.23 35.20 50.25 42.06 50.20 C 42.27 52.37 42.14 55.80 44.92 56.29 C 48.33 56.43 47.90 52.50 48.12 50.20 C 48.89 50.21 50.44 50.22 51.22 50.23 C 50.98 41.17 51.99 32.00 50.12 23.06 C 49.30 19.24 50.39 13.93 46.03 11.99 C 39.51 9.24 32.04 8.02 25.07 9.77 Z" />
<path fill="#09578e" opacity="1.00" d=" M 22.22 12.31 C 28.75 12.26 35.28 12.24 41.82 12.33 C 41.83 13.04 41.85 14.47 41.87 15.19 C 35.28 15.35 28.68 15.29 22.09 15.22 C 22.12 14.50 22.18 13.04 22.22 12.31 Z" />
<path fill="#09578e" opacity="1.00" d=" M 18.25 17.19 C 27.42 17.07 36.59 17.05 45.76 17.20 C 47.12 21.64 47.51 26.31 47.81 30.92 C 47.64 31.16 47.30 31.65 47.13 31.90 C 38.09 32.09 29.05 31.87 20.01 31.99 C 18.86 31.71 16.44 32.63 16.21 30.89 C 16.46 26.29 16.88 21.62 18.25 17.19 Z" />
<path fill="#09578e" opacity="1.00" d=" M 19.03 44.36 C 15.53 45.22 14.72 39.10 17.93 38.47 C 20.02 37.74 21.17 39.82 22.29 41.13 C 21.40 42.32 20.94 44.53 19.03 44.36 Z" />
<path fill="#09578e" opacity="1.00" d=" M 43.26 39.02 C 45.30 37.26 48.82 39.21 48.02 41.93 C 48.10 44.58 43.98 45.27 42.78 43.19 C 41.54 41.98 42.09 40.06 43.26 39.02 Z" />
</g>
<g id="#ffffffff">
<path fill="#ffffff" opacity="1.00" d=" M 25.07 9.77 C 32.04 8.02 39.51 9.24 46.03 11.99 C 50.39 13.93 49.30 19.24 50.12 23.06 C 51.99 32.00 50.98 41.17 51.22 50.23 C 50.44 50.22 48.89 50.21 48.12 50.20 C 47.90 52.50 48.33 56.43 44.92 56.29 C 42.14 55.80 42.27 52.37 42.06 50.20 C 35.20 50.25 28.34 50.23 21.48 50.21 C 21.32 52.32 21.97 55.75 19.15 56.29 C 15.72 56.50 15.98 52.56 15.99 50.22 C 15.20 50.22 13.62 50.22 12.82 50.22 C 13.10 41.18 12.03 32.03 13.83 23.11 C 14.39 20.22 14.16 17.14 15.24 14.38 C 17.47 11.20 21.57 10.61 25.07 9.77 M 22.22 12.31 C 22.18 13.04 22.12 14.50 22.09 15.22 C 28.68 15.29 35.28 15.35 41.87 15.19 C 41.85 14.47 41.83 13.04 41.82 12.33 C 35.28 12.24 28.75 12.26 22.22 12.31 M 18.25 17.19 C 16.88 21.62 16.46 26.29 16.21 30.89 C 16.44 32.63 18.86 31.71 20.01 31.99 C 29.05 31.87 38.09 32.09 47.13 31.90 C 47.30 31.65 47.64 31.16 47.81 30.92 C 47.51 26.31 47.12 21.64 45.76 17.20 C 36.59 17.05 27.42 17.07 18.25 17.19 M 19.03 44.36 C 20.94 44.53 21.40 42.32 22.29 41.13 C 21.17 39.82 20.02 37.74 17.93 38.47 C 14.72 39.10 15.53 45.22 19.03 44.36 M 43.26 39.02 C 42.09 40.06 41.54 41.98 42.78 43.19 C 43.98 45.27 48.10 44.58 48.02 41.93 C 48.82 39.21 45.30 37.26 43.26 39.02 Z" />
</g>
<g id="#7a9ab2fc">
<path fill="#7a9ab2" opacity="1.00" d=" M 1.34 61.46 C 1.43 61.55 1.60 61.74 1.69 61.83 L 1.49 61.65 L 1.34 61.46 Z" />
<path fill="#7a9ab2" opacity="1.00" d=" M 62.43 61.89 C 62.45 61.87 62.48 61.83 62.50 61.82 L 62.47 61.85 L 62.43 61.89 Z" />
</g>
<g id="#3c749cfe">
<path fill="#3c749c" opacity="1.00" d=" M 4.15 63.82 C 4.24 63.87 4.42 63.96 4.51 64.00 L 4.26 64.00 L 4.15 63.82 Z" />
<path fill="#3c749c" opacity="1.00" d=" M 59.46 64.00 C 59.55 63.96 59.72 63.88 59.81 63.84 L 59.70 64.00 L 59.46 64.00 Z" />
</g>
</svg>
