<?xml version="1.0" encoding="UTF-8" ?>
<!DOCTYPE svg PUBLIC "-//W3C//DTD SVG 1.1//EN" "http://www.w3.org/Graphics/SVG/1.1/DTD/svg11.dtd">
<svg width="64pt" height="64pt" viewBox="0 0 64 64" version="1.1" xmlns="http://www.w3.org/2000/svg">
<g id="#0a0a0afd">
<path fill="#0a0a0a" opacity="1.00" d=" M 14.65 14.82 C 17.10 12.45 21.16 14.13 24.27 13.64 C 25.09 17.85 24.66 22.14 24.66 26.40 C 25.16 26.55 26.17 26.86 26.68 27.01 C 27.14 22.56 26.43 17.98 27.68 13.63 C 30.59 13.98 33.99 12.93 36.59 14.31 C 38.76 18.22 35.74 23.65 38.34 27.45 C 39.53 23.30 38.93 18.94 39.61 14.74 C 41.93 12.61 45.65 14.09 48.54 13.54 C 50.44 16.92 49.48 20.97 49.37 24.64 C 48.81 26.01 49.91 27.46 51.40 27.07 C 51.96 27.10 53.08 27.16 53.64 27.19 C 53.74 30.39 53.75 33.60 53.64 36.80 C 53.06 36.83 51.89 36.87 51.31 36.89 C 49.77 36.47 48.81 38.06 49.35 39.39 C 49.41 42.86 50.46 46.88 48.76 50.05 C 45.76 50.54 42.71 50.23 39.68 50.30 C 38.92 45.72 39.63 40.99 38.28 36.50 C 35.88 40.43 38.65 45.66 36.62 49.65 C 33.81 51.11 30.26 50.02 27.16 50.08 C 26.93 45.74 26.88 41.39 26.93 37.04 C 26.41 37.21 25.38 37.54 24.86 37.71 C 24.46 41.89 25.14 46.14 24.29 50.30 C 21.10 49.83 17.10 51.45 14.50 49.13 C 14.61 45.17 14.80 41.21 14.98 37.26 C 14.27 37.16 12.85 36.98 12.14 36.89 C 11.68 36.82 10.76 36.69 10.30 36.63 C 10.28 33.50 10.26 30.37 10.33 27.24 C 10.90 27.20 12.04 27.11 12.61 27.06 C 14.09 27.42 15.19 26.01 14.63 24.63 C 14.35 21.38 14.14 18.06 14.65 14.82 M 16.74 16.03 C 16.74 20.33 16.73 24.64 16.74 28.95 C 15.37 28.94 14.00 28.93 12.62 28.93 C 12.63 30.98 12.63 33.02 12.62 35.07 C 14.00 35.07 15.37 35.06 16.74 35.05 C 16.73 39.37 16.74 43.70 16.74 48.03 C 18.62 48.01 20.50 48.00 22.37 47.99 C 22.38 43.69 22.39 39.40 22.35 35.11 C 24.67 35.06 27.00 35.04 29.33 35.04 C 29.32 39.37 29.32 43.69 29.32 48.02 C 31.21 48.02 33.10 48.02 34.98 48.03 C 35.04 43.69 35.02 39.36 35.04 35.02 C 37.24 35.04 39.44 35.07 41.64 35.10 C 41.61 39.40 41.62 43.69 41.63 47.99 C 43.50 48.00 45.38 48.01 47.26 48.02 C 47.26 43.70 47.27 39.37 47.26 35.05 C 48.63 35.06 50.00 35.07 51.38 35.07 C 51.37 33.02 51.37 30.98 51.37 28.93 C 50.00 28.93 48.63 28.94 47.26 28.95 C 47.27 24.63 47.26 20.30 47.26 15.98 C 45.38 15.98 43.50 15.98 41.63 15.98 C 41.62 20.29 41.61 24.59 41.64 28.90 C 39.44 28.93 37.24 28.97 35.04 28.99 C 35.02 24.66 35.02 20.34 35.03 16.02 C 33.13 16.02 31.22 16.00 29.32 15.97 C 29.32 20.30 29.32 24.62 29.33 28.95 C 27.00 28.95 24.67 28.94 22.35 28.90 C 22.39 24.58 22.38 20.27 22.37 15.96 C 20.49 15.99 18.62 16.02 16.74 16.03 Z" />
</g>
<g id="#fdfdfdff">
<path fill="#fdfdfd" opacity="1.00" d=" M 16.74 16.03 C 18.62 16.02 20.49 15.99 22.37 15.96 C 22.38 20.27 22.39 24.58 22.35 28.90 C 24.67 28.94 27.00 28.95 29.33 28.95 C 29.32 24.62 29.32 20.30 29.32 15.97 C 31.22 16.00 33.13 16.02 35.03 16.02 C 35.02 20.34 35.02 24.66 35.04 28.99 C 37.24 28.97 39.44 28.93 41.64 28.90 C 41.61 24.59 41.62 20.29 41.63 15.98 C 43.50 15.98 45.38 15.98 47.26 15.98 C 47.26 20.30 47.27 24.63 47.26 28.95 C 48.63 28.94 50.00 28.93 51.37 28.93 C 51.37 30.98 51.37 33.02 51.38 35.07 C 50.00 35.07 48.63 35.06 47.26 35.05 C 47.27 39.37 47.26 43.70 47.26 48.02 C 45.38 48.01 43.50 48.00 41.63 47.99 C 41.62 43.69 41.61 39.40 41.64 35.10 C 39.44 35.07 37.24 35.04 35.04 35.02 C 35.02 39.36 35.04 43.69 34.98 48.03 C 33.10 48.02 31.21 48.02 29.32 48.02 C 29.32 43.69 29.32 39.37 29.33 35.04 C 27.00 35.04 24.67 35.06 22.35 35.11 C 22.39 39.40 22.38 43.69 22.37 47.99 C 20.50 48.00 18.62 48.01 16.74 48.03 C 16.74 43.70 16.73 39.37 16.74 35.05 C 15.37 35.06 14.00 35.07 12.62 35.07 C 12.63 33.02 12.63 30.98 12.62 28.93 C 14.00 28.93 15.37 28.94 16.74 28.95 C 16.73 24.64 16.74 20.33 16.74 16.03 Z" />
</g>
<g id="#00000082">
<path fill="#000000" opacity="0.51" d=" M 12.61 27.06 C 10.95 25.89 13.23 23.02 14.63 24.63 C 15.19 26.01 14.09 27.42 12.61 27.06 Z" />
<path fill="#000000" opacity="0.51" d=" M 49.37 24.64 C 50.76 23.03 53.04 25.89 51.40 27.07 C 49.91 27.46 48.81 26.01 49.37 24.64 Z" />
<path fill="#000000" opacity="0.51" d=" M 12.14 36.89 C 12.85 36.98 14.27 37.16 14.98 37.26 C 14.80 41.21 14.61 45.17 14.50 49.13 C 14.02 45.72 14.92 41.85 12.64 38.95 C 12.51 38.44 12.26 37.40 12.14 36.89 Z" />
<path fill="#000000" opacity="0.51" d=" M 49.35 39.39 C 48.81 38.06 49.77 36.47 51.31 36.89 C 52.98 38.01 50.81 40.91 49.35 39.39 Z" />
</g>
</svg>
