<?xml version="1.0" encoding="UTF-8" ?>
<!DOCTYPE svg PUBLIC "-//W3C//DTD SVG 1.1//EN" "http://www.w3.org/Graphics/SVG/1.1/DTD/svg11.dtd">
<svg width="64pt" height="64pt" viewBox="0 0 64 64" version="1.1" xmlns="http://www.w3.org/2000/svg">
<g id="#070407fb">
<path fill="#070407" opacity="1.00" d=" M 20.85 24.33 C 22.12 17.98 29.63 15.37 35.40 16.48 C 36.85 17.46 38.50 18.09 40.03 18.94 C 41.92 20.18 42.69 22.41 43.61 24.36 C 46.40 24.13 49.75 25.29 50.25 28.40 C 50.51 34.23 50.28 40.08 50.27 45.91 C 38.10 46.18 25.93 46.08 13.76 45.97 C 13.73 40.02 13.48 34.05 13.80 28.10 C 14.56 24.91 18.01 24.16 20.85 24.33 M 23.22 26.33 C 20.94 26.29 18.50 26.25 16.50 27.55 C 15.49 32.85 16.33 38.36 16.09 43.74 C 26.70 43.68 37.31 43.68 47.91 43.74 C 47.85 38.83 48.10 33.92 47.86 29.02 C 47.98 27.60 46.40 27.13 45.57 26.32 C 44.08 26.36 42.59 26.38 41.10 26.39 C 41.09 24.23 40.15 22.33 38.84 20.66 C 35.32 19.37 31.51 19.60 27.84 19.84 C 24.81 20.37 22.93 23.35 23.22 26.33 Z" />
<path fill="#070407" opacity="1.00" d=" M 26.34 26.63 C 26.46 25.13 26.79 22.77 28.85 23.04 C 31.84 23.04 35.35 22.20 37.85 24.30 C 37.76 24.90 37.57 26.10 37.47 26.70 C 33.79 26.10 30.04 26.32 26.34 26.63 Z" />
</g>
<g id="#ffffffff">
<path fill="#ffffff" opacity="1.00" d=" M 23.22 26.33 C 22.93 23.35 24.81 20.37 27.84 19.84 C 31.51 19.60 35.32 19.37 38.84 20.66 C 40.15 22.33 41.09 24.23 41.10 26.39 C 42.59 26.38 44.08 26.36 45.57 26.32 C 46.40 27.13 47.98 27.60 47.86 29.02 C 48.10 33.92 47.85 38.83 47.91 43.74 C 37.31 43.68 26.70 43.68 16.09 43.74 C 16.33 38.36 15.49 32.85 16.50 27.55 C 18.50 26.25 20.94 26.29 23.22 26.33 M 26.34 26.63 C 30.04 26.32 33.79 26.10 37.47 26.70 C 37.57 26.10 37.76 24.90 37.85 24.30 C 35.35 22.20 31.84 23.04 28.85 23.04 C 26.79 22.77 26.46 25.13 26.34 26.63 Z" />
</g>
</svg>
