<?xml version="1.0" encoding="UTF-8" ?>
<!DOCTYPE svg PUBLIC "-//W3C//DTD SVG 1.1//EN" "http://www.w3.org/Graphics/SVG/1.1/DTD/svg11.dtd">
<svg width="64pt" height="64pt" viewBox="0 0 64 64" version="1.1" xmlns="http://www.w3.org/2000/svg">
<g id="#000000fe">
<path fill="#000000" opacity="1.00" d=" M 21.60 12.55 C 31.68 12.42 41.76 12.48 51.83 12.53 C 53.96 12.27 54.74 14.68 55.79 16.07 C 58.00 20.17 61.20 23.75 62.89 28.09 C 63.27 33.95 63.07 39.86 62.85 45.72 C 59.22 45.71 55.59 45.74 51.96 45.87 C 50.78 49.48 46.96 52.36 43.11 50.80 C 40.63 50.40 39.59 48.00 38.62 46.00 C 32.81 45.79 26.99 45.97 21.18 45.85 C 20.19 48.19 18.64 50.61 15.90 51.01 C 12.20 52.00 8.89 49.10 7.78 45.75 C 5.90 45.72 4.03 45.72 2.15 45.70 C 1.91 40.79 1.74 35.85 2.12 30.94 C 2.66 26.11 3.91 21.40 4.76 16.62 C 10.29 16.36 15.83 16.55 21.37 16.49 C 21.45 15.18 21.52 13.86 21.60 12.55 M 23.49 14.34 C 23.47 16.41 23.42 18.47 23.52 20.54 C 23.16 20.32 22.45 19.89 22.09 19.68 C 22.06 19.08 22.00 17.89 21.97 17.30 C 16.95 18.82 11.68 17.25 6.58 18.30 C 6.24 19.88 5.91 21.46 5.56 23.04 C 8.03 23.12 10.56 22.78 12.99 23.31 C 12.91 26.75 12.94 30.19 12.87 33.63 C 9.90 33.60 6.94 33.60 3.97 33.55 C 3.99 34.11 4.02 35.24 4.04 35.80 C 4.02 38.46 4.04 41.12 4.10 43.78 C 5.41 43.75 6.72 43.72 8.03 43.69 C 8.27 42.80 8.49 41.91 8.71 41.01 C 11.88 36.48 19.57 37.48 21.08 42.98 C 20.97 43.22 20.76 43.70 20.65 43.94 C 21.04 43.98 21.82 44.06 22.21 44.11 C 22.26 42.73 22.31 41.35 22.37 39.97 C 22.77 41.45 23.17 42.93 23.57 44.41 L 23.59 43.62 C 28.66 43.66 33.73 43.66 38.80 43.61 C 39.15 40.41 42.08 38.54 44.93 37.78 C 48.24 38.03 51.26 40.26 51.79 43.66 C 54.81 43.67 57.83 43.67 60.85 43.68 C 60.90 38.59 60.93 33.51 60.96 28.43 C 58.22 23.64 55.01 19.14 52.21 14.39 C 42.64 14.33 33.07 14.39 23.49 14.34 M 10.84 46.82 C 11.77 49.56 14.96 48.97 17.15 48.55 C 17.84 47.37 18.55 46.22 19.28 45.06 C 18.61 42.90 17.66 40.09 14.87 40.23 C 11.36 39.53 8.80 44.04 10.84 46.82 M 42.94 40.95 C 40.09 42.37 40.70 45.66 41.75 48.06 C 43.61 48.64 45.65 49.38 47.57 48.60 C 49.34 47.46 49.69 45.37 49.85 43.45 C 48.48 41.04 45.57 38.90 42.94 40.95 Z" />
</g>
<g id="#f0f1f0ff">
<path fill="#f0f1f0" opacity="1.00" d=" M 23.49 14.34 C 33.07 14.39 42.64 14.33 52.21 14.39 C 55.01 19.14 58.22 23.64 60.96 28.43 C 59.06 29.13 57.11 29.79 55.06 29.70 C 47.70 29.66 40.34 29.53 32.98 29.56 C 30.39 29.47 28.07 30.67 25.83 31.80 C 25.12 29.39 24.36 27.00 23.70 24.57 C 23.65 23.23 23.60 21.88 23.52 20.54 C 23.42 18.47 23.47 16.41 23.49 14.34 Z" />
<path fill="#f0f1f0" opacity="1.00" d=" M 6.58 18.30 C 11.02 18.50 15.46 18.47 19.90 18.36 C 20.42 18.99 20.95 19.62 21.46 20.25 C 21.37 22.83 21.36 25.41 21.37 27.99 C 18.93 25.87 16.05 24.34 12.99 23.31 C 10.56 22.78 8.03 23.12 5.56 23.04 C 5.91 21.46 6.24 19.88 6.58 18.30 Z" />
</g>
<g id="#1d1e1dff">
<path fill="#1d1e1d" opacity="1.00" d=" M 6.58 18.30 C 11.68 17.25 16.95 18.82 21.97 17.30 C 22.00 17.89 22.06 19.08 22.09 19.68 C 22.45 19.89 23.16 20.32 23.52 20.54 C 23.60 21.88 23.65 23.23 23.70 24.57 C 23.59 30.92 23.77 37.27 23.59 43.62 L 23.57 44.41 C 23.17 42.93 22.77 41.45 22.37 39.97 C 22.31 41.35 22.26 42.73 22.21 44.11 C 21.82 44.06 21.04 43.98 20.65 43.94 C 20.76 43.70 20.97 43.22 21.08 42.98 L 21.27 42.50 C 21.44 37.67 21.27 32.83 21.37 27.99 C 21.36 25.41 21.37 22.83 21.46 20.25 C 20.95 19.62 20.42 18.99 19.90 18.36 C 15.46 18.47 11.02 18.50 6.58 18.30 Z" />
</g>
<g id="#dcdfdcff">
<path fill="#dcdfdc" opacity="1.00" d=" M 12.99 23.31 C 16.05 24.34 18.93 25.87 21.37 27.99 C 21.27 32.83 21.44 37.67 21.27 42.50 L 21.08 42.98 C 19.57 37.48 11.88 36.48 8.71 41.01 C 6.70 39.72 4.74 38.19 4.04 35.80 C 4.02 35.24 3.99 34.11 3.97 33.55 C 6.94 33.60 9.90 33.60 12.87 33.63 C 12.94 30.19 12.91 26.75 12.99 23.31 Z" />
<path fill="#dcdfdc" opacity="1.00" d=" M 23.70 24.57 C 24.36 27.00 25.12 29.39 25.83 31.80 C 28.07 30.67 30.39 29.47 32.98 29.56 C 40.34 29.53 47.70 29.66 55.06 29.70 C 57.11 29.79 59.06 29.13 60.96 28.43 C 60.93 33.51 60.90 38.59 60.85 43.68 C 57.83 43.67 54.81 43.67 51.79 43.66 C 51.26 40.26 48.24 38.03 44.93 37.78 C 42.08 38.54 39.15 40.41 38.80 43.61 C 33.73 43.66 28.66 43.66 23.59 43.62 C 23.77 37.27 23.59 30.92 23.70 24.57 Z" />
</g>
<g id="#cecfceff">
<path fill="#cecfce" opacity="1.00" d=" M 4.04 35.80 C 4.74 38.19 6.70 39.72 8.71 41.01 C 8.49 41.91 8.27 42.80 8.03 43.69 C 6.72 43.72 5.41 43.75 4.10 43.78 C 4.04 41.12 4.02 38.46 4.04 35.80 Z" />
<path fill="#cecfce" opacity="1.00" d=" M 10.84 46.82 C 8.80 44.04 11.36 39.53 14.87 40.23 C 17.66 40.09 18.61 42.90 19.28 45.06 C 18.55 46.22 17.84 47.37 17.15 48.55 C 14.96 48.97 11.77 49.56 10.84 46.82 Z" />
<path fill="#cecfce" opacity="1.00" d=" M 42.94 40.95 C 45.57 38.90 48.48 41.04 49.85 43.45 C 49.69 45.37 49.34 47.46 47.57 48.60 C 45.65 49.38 43.61 48.64 41.75 48.06 C 40.70 45.66 40.09 42.37 42.94 40.95 Z" />
</g>
</svg>
