<?xml version="1.0" encoding="UTF-8" ?>
<!DOCTYPE svg PUBLIC "-//W3C//DTD SVG 1.1//EN" "http://www.w3.org/Graphics/SVG/1.1/DTD/svg11.dtd">
<svg width="64pt" height="64pt" viewBox="0 0 64 64" version="1.1" xmlns="http://www.w3.org/2000/svg">
<g id="#070707f5">
<path fill="#070707" opacity="0.96" d=" M 25.92 17.93 C 27.12 15.38 29.61 13.88 31.97 12.56 C 40.47 15.78 41.26 26.59 39.54 34.24 C 43.36 35.96 43.52 40.46 44.77 43.91 C 45.65 46.29 46.19 48.83 45.29 51.29 C 41.75 50.86 39.29 48.13 36.55 46.15 C 36.26 46.74 35.67 47.93 35.38 48.53 C 32.39 49.47 28.87 49.41 27.25 46.27 C 24.54 47.75 21.77 52.31 18.42 50.41 C 17.54 46.29 20.08 42.38 20.88 38.42 C 21.18 36.33 22.79 35.11 24.60 34.29 C 23.72 28.86 23.42 23.00 25.92 17.93 M 26.74 22.86 C 25.79 27.22 26.74 31.62 27.21 35.97 C 26.01 36.50 24.81 37.03 23.62 37.60 C 22.43 41.23 21.44 44.93 20.29 48.59 C 22.18 47.03 24.18 45.62 26.21 44.25 C 27.12 43.60 28.04 42.95 28.96 42.30 C 29.40 43.67 29.85 45.04 30.30 46.42 C 31.44 46.54 32.59 46.65 33.74 46.75 C 34.15 45.28 34.57 43.81 35.01 42.36 C 38.28 44.07 40.79 47.17 44.17 48.57 C 42.13 45.24 41.80 41.20 40.36 37.60 C 39.20 37.05 38.03 36.52 36.87 36.00 C 37.80 31.43 38.56 26.63 37.19 22.07 C 36.35 19.04 34.75 15.26 31.03 15.31 C 29.27 17.60 27.07 19.84 26.74 22.86 Z" />
</g>
<g id="#ffffffff">
<path fill="#ffffff" opacity="1.00" d=" M 26.74 22.86 C 27.07 19.84 29.27 17.60 31.03 15.31 C 34.75 15.26 36.35 19.04 37.19 22.07 C 38.56 26.63 37.80 31.43 36.87 36.00 C 38.03 36.52 39.20 37.05 40.36 37.60 C 41.80 41.20 42.13 45.24 44.17 48.57 C 40.79 47.17 38.28 44.07 35.01 42.36 C 34.57 43.81 34.15 45.28 33.74 46.75 C 32.59 46.65 31.44 46.54 30.30 46.42 C 29.85 45.04 29.40 43.67 28.96 42.30 C 28.04 42.95 27.12 43.60 26.21 44.25 C 24.18 45.62 22.18 47.03 20.29 48.59 C 21.44 44.93 22.43 41.23 23.62 37.60 C 24.81 37.03 26.01 36.50 27.21 35.97 C 26.74 31.62 25.79 27.22 26.74 22.86 Z" />
</g>
</svg>
