<?xml version="1.0" encoding="UTF-8" ?>
<!DOCTYPE svg PUBLIC "-//W3C//DTD SVG 1.1//EN" "http://www.w3.org/Graphics/SVG/1.1/DTD/svg11.dtd">
<svg width="64pt" height="64pt" viewBox="0 0 64 64" version="1.1" xmlns="http://www.w3.org/2000/svg">
<g id="#080708fc">
<path fill="#080708" opacity="1.00" d=" M 16.91 22.12 C 17.66 17.81 20.53 13.67 25.04 12.80 C 29.30 12.34 33.62 12.47 37.89 12.64 C 42.88 12.95 46.84 17.38 47.38 22.22 C 51.07 21.95 55.94 22.74 56.92 27.00 C 57.12 35.10 57.11 43.21 56.95 51.31 C 40.32 51.55 23.68 51.54 7.05 51.31 C 6.94 43.22 6.76 35.10 7.09 27.01 C 8.06 22.58 13.17 22.02 16.91 22.12 M 22.54 16.62 C 20.12 18.58 19.49 21.81 19.24 24.75 C 16.79 24.75 14.34 24.78 11.89 24.74 C 10.86 26.04 9.18 27.19 9.33 29.06 C 9.24 35.67 9.40 42.29 9.34 48.90 C 24.45 48.90 39.55 48.90 54.66 48.90 C 54.60 42.27 54.75 35.64 54.67 29.01 C 54.71 27.48 53.49 26.36 52.76 25.13 C 50.16 24.71 47.52 24.62 44.89 24.72 C 44.70 21.78 44.19 18.25 41.48 16.51 C 39.12 14.49 35.87 15.10 33.02 14.98 C 29.51 15.10 25.56 14.33 22.54 16.62 Z" />
<path fill="#080708" opacity="1.00" d=" M 24.20 24.71 C 24.45 23.07 24.19 20.71 26.08 19.96 C 30.04 19.46 34.05 19.92 38.04 19.72 C 39.58 20.99 40.30 22.73 40.12 24.73 C 34.81 24.72 29.50 24.75 24.20 24.71 Z" />
</g>
<g id="#e3e3e3ff">
<path fill="#e3e3e3" opacity="1.00" d=" M 22.54 16.62 C 25.56 14.33 29.51 15.10 33.02 14.98 C 35.87 15.10 39.12 14.49 41.48 16.51 C 44.19 18.25 44.70 21.78 44.89 24.72 C 47.52 24.62 50.16 24.71 52.76 25.13 C 53.49 26.36 54.71 27.48 54.67 29.01 C 54.75 35.64 54.60 42.27 54.66 48.90 C 39.55 48.90 24.45 48.90 9.34 48.90 C 9.40 42.29 9.24 35.67 9.33 29.06 C 9.18 27.19 10.86 26.04 11.89 24.74 C 14.34 24.78 16.79 24.75 19.24 24.75 C 19.49 21.81 20.12 18.58 22.54 16.62 M 24.20 24.71 C 29.50 24.75 34.81 24.72 40.12 24.73 C 40.30 22.73 39.58 20.99 38.04 19.72 C 34.05 19.92 30.04 19.46 26.08 19.96 C 24.19 20.71 24.45 23.07 24.20 24.71 Z" />
</g>
</svg>
