<?xml version="1.0" encoding="UTF-8" ?>
<!DOCTYPE svg PUBLIC "-//W3C//DTD SVG 1.1//EN" "http://www.w3.org/Graphics/SVG/1.1/DTD/svg11.dtd">
<svg width="64pt" height="64pt" viewBox="0 0 64 64" version="1.1" xmlns="http://www.w3.org/2000/svg">
<g id="#0c0c0cfc">
<path fill="#0c0c0c" opacity="1.00" d=" M 31.00 19.21 C 32.92 17.46 34.83 15.70 36.86 14.07 C 40.51 15.69 44.15 17.37 47.48 19.61 C 49.45 27.05 53.71 33.61 59.27 38.88 C 60.32 39.64 61.57 40.07 62.74 40.61 C 62.78 43.43 62.72 46.24 62.62 49.06 C 48.04 49.17 33.47 49.07 18.89 49.12 C 16.13 49.52 14.58 46.88 13.19 44.98 C 8.81 38.52 4.50 31.92 1.47 24.71 C 6.47 22.76 11.97 25.20 17.19 24.96 C 19.81 22.41 21.89 19.14 25.12 17.30 C 27.15 17.71 29.06 18.52 31.00 19.21 M 37.01 16.84 C 36.02 17.81 35.03 18.77 34.03 19.72 C 38.06 21.58 42.28 23.01 46.56 24.17 C 45.87 19.50 40.64 18.47 37.01 16.84 M 25.28 19.78 C 23.48 21.77 21.59 23.67 19.59 25.47 C 31.54 28.09 43.30 31.73 54.35 36.98 C 51.82 33.96 49.52 30.76 47.60 27.32 C 40.09 25.01 32.85 21.90 25.28 19.78 M 4.31 26.23 C 8.63 33.25 12.47 40.68 17.79 47.03 C 32.02 46.90 46.25 47.02 60.48 46.97 C 60.45 45.35 60.44 43.74 60.42 42.13 C 42.88 33.59 24.01 26.81 4.31 26.23 Z" />
</g>
<g id="#fefefeff">
<path fill="#fefefe" opacity="1.00" d=" M 37.01 16.84 C 40.64 18.47 45.87 19.50 46.56 24.17 C 42.28 23.01 38.06 21.58 34.03 19.72 C 35.03 18.77 36.02 17.81 37.01 16.84 Z" />
<path fill="#fefefe" opacity="1.00" d=" M 25.28 19.78 C 32.85 21.90 40.09 25.01 47.60 27.32 C 49.52 30.76 51.82 33.96 54.35 36.98 C 43.30 31.73 31.54 28.09 19.59 25.47 C 21.59 23.67 23.48 21.77 25.28 19.78 Z" />
<path fill="#fefefe" opacity="1.00" d=" M 4.31 26.23 C 24.01 26.81 42.88 33.59 60.42 42.13 C 60.44 43.74 60.45 45.35 60.48 46.97 C 46.25 47.02 32.02 46.90 17.79 47.03 C 12.47 40.68 8.63 33.25 4.31 26.23 Z" />
</g>
</svg>
