<?xml version="1.0" encoding="UTF-8" ?>
<!DOCTYPE svg PUBLIC "-//W3C//DTD SVG 1.1//EN" "http://www.w3.org/Graphics/SVG/1.1/DTD/svg11.dtd">
<svg width="64pt" height="64pt" viewBox="0 0 64 64" version="1.1" xmlns="http://www.w3.org/2000/svg">
<g id="#020202ff">
<path fill="#020202" opacity="1.00" d=" M 27.19 6.29 C 28.38 5.92 29.46 5.30 30.57 4.74 C 32.12 5.63 34.10 6.29 34.77 8.12 C 35.32 10.10 34.90 12.18 34.85 14.20 C 33.36 14.99 31.89 15.80 30.43 16.65 C 27.79 16.72 25.14 16.74 22.50 16.72 C 22.04 17.98 21.58 19.23 21.12 20.48 C 30.06 20.04 39.02 20.40 47.97 20.23 C 50.78 20.32 54.59 19.82 56.10 22.85 C 57.55 26.83 57.30 31.21 58.47 35.27 C 58.76 35.54 59.35 36.06 59.64 36.33 C 60.51 37.43 61.29 38.60 62.09 39.76 C 62.39 43.29 62.26 47.11 59.47 49.69 C 59.12 52.30 59.71 55.52 57.57 57.51 C 55.48 59.16 52.30 59.17 49.99 57.99 C 47.24 56.33 47.79 52.79 47.68 50.06 C 40.93 50.13 34.19 49.92 27.44 49.94 C 27.12 52.67 27.71 56.31 24.97 57.99 C 22.86 59.05 20.12 59.09 18.01 58.02 C 15.07 56.35 15.90 52.54 15.56 49.73 C 11.59 46.06 11.60 38.00 16.58 35.18 C 17.40 30.69 17.94 26.15 18.88 21.68 C 18.20 21.70 16.83 21.76 16.15 21.78 C 15.31 23.62 15.21 26.21 13.21 27.23 C 9.68 27.92 6.03 27.41 2.46 27.31 C 1.97 23.09 4.18 19.19 3.94 14.99 C 3.95 12.16 4.20 9.20 5.64 6.69 C 12.79 5.88 20.02 6.88 27.19 6.29 M 29.71 8.72 C 22.22 8.68 14.73 8.77 7.24 8.67 C 6.84 11.18 5.92 13.67 6.74 16.20 C 6.19 19.25 5.06 22.15 4.50 25.19 C 7.18 25.35 9.86 25.32 12.55 25.35 C 13.09 23.36 13.68 21.39 14.24 19.42 C 15.88 19.42 17.51 19.41 19.15 19.40 C 19.65 17.73 20.18 16.07 20.67 14.39 C 23.58 14.39 26.49 14.39 29.40 14.42 C 29.45 12.43 31.38 12.71 32.83 12.52 C 32.92 10.42 32.47 8.42 30.97 6.87 C 30.65 7.34 30.02 8.26 29.71 8.72 M 18.55 37.34 C 17.53 37.81 16.52 38.28 15.52 38.76 C 15.53 41.80 13.84 46.96 18.00 47.84 C 18.03 50.21 18.05 52.59 18.07 54.97 C 18.56 55.37 19.55 56.18 20.04 56.58 C 21.56 56.45 23.28 56.67 24.43 55.43 C 25.31 52.95 24.86 50.28 24.95 47.72 C 33.29 47.71 41.63 47.69 49.97 47.73 C 50.02 50.13 50.05 52.54 50.07 54.94 C 50.55 55.35 51.51 56.17 51.99 56.57 C 53.53 56.44 55.28 56.69 56.44 55.42 C 57.23 53.01 56.88 50.45 56.96 47.97 C 57.52 47.67 58.64 47.09 59.20 46.80 C 60.11 43.19 60.52 38.40 56.23 36.89 C 55.37 33.02 55.20 29.04 54.42 25.15 C 54.42 23.79 52.96 23.23 52.19 22.35 C 42.09 22.58 31.98 22.11 21.89 22.63 C 18.91 26.84 20.15 32.56 18.55 37.34 Z" />
<path fill="#020202" opacity="1.00" d=" M 15.44 14.48 C 16.51 14.45 17.59 14.43 18.67 14.41 C 18.29 15.46 17.90 16.51 17.50 17.55 C 16.91 17.58 15.72 17.64 15.12 17.67 C 15.22 16.61 15.33 15.54 15.44 14.48 Z" />
<path fill="#020202" opacity="1.00" d=" M 24.02 25.28 C 33.10 25.61 42.24 24.77 51.27 25.72 C 51.96 28.76 52.50 31.83 52.95 34.92 C 42.64 35.22 32.32 34.99 22.00 35.04 C 22.44 31.75 22.65 28.36 24.02 25.28 Z" />
</g>
<g id="#fffeffff">
<path fill="#fffeff" opacity="1.00" d=" M 29.71 8.72 C 30.02 8.26 30.65 7.34 30.97 6.87 C 32.47 8.42 32.92 10.42 32.83 12.52 C 31.38 12.71 29.45 12.43 29.40 14.42 C 26.49 14.39 23.58 14.39 20.67 14.39 C 20.18 16.07 19.65 17.73 19.15 19.40 C 17.51 19.41 15.88 19.42 14.24 19.42 C 13.68 21.39 13.09 23.36 12.55 25.35 C 9.86 25.32 7.18 25.35 4.50 25.19 C 5.06 22.15 6.19 19.25 6.74 16.20 C 5.92 13.67 6.84 11.18 7.24 8.67 C 14.73 8.77 22.22 8.68 29.71 8.72 M 15.44 14.48 C 15.33 15.54 15.22 16.61 15.12 17.67 C 15.72 17.64 16.91 17.58 17.50 17.55 C 17.90 16.51 18.29 15.46 18.67 14.41 C 17.59 14.43 16.51 14.45 15.44 14.48 Z" />
<path fill="#fffeff" opacity="1.00" d=" M 18.55 37.34 C 20.15 32.56 18.91 26.84 21.89 22.63 C 31.98 22.11 42.09 22.58 52.19 22.35 C 52.96 23.23 54.42 23.79 54.42 25.15 C 55.20 29.04 55.37 33.02 56.23 36.89 C 60.52 38.40 60.11 43.19 59.20 46.80 C 58.64 47.09 57.52 47.67 56.96 47.97 C 56.88 50.45 57.23 53.01 56.44 55.42 C 55.28 56.69 53.53 56.44 51.99 56.57 C 51.51 56.17 50.55 55.35 50.07 54.94 C 50.05 52.54 50.02 50.13 49.97 47.73 C 41.63 47.69 33.29 47.71 24.95 47.72 C 24.86 50.28 25.31 52.95 24.43 55.43 C 23.28 56.67 21.56 56.45 20.04 56.58 C 19.55 56.18 18.56 55.37 18.07 54.97 C 18.05 52.59 18.03 50.21 18.00 47.84 C 13.84 46.96 15.53 41.80 15.52 38.76 C 16.52 38.28 17.53 37.81 18.55 37.34 M 24.02 25.28 C 22.65 28.36 22.44 31.75 22.00 35.04 C 32.32 34.99 42.64 35.22 52.95 34.92 C 52.50 31.83 51.96 28.76 51.27 25.72 C 42.24 24.77 33.10 25.61 24.02 25.28 Z" />
</g>
<g id="#0000005e">
<path fill="#000000" opacity="0.37" d=" M 59.64 36.33 C 61.09 36.21 62.55 36.09 64.00 35.94 L 64.00 40.26 C 63.52 40.13 62.57 39.88 62.09 39.76 C 61.29 38.60 60.51 37.43 59.64 36.33 Z" />
</g>
</svg>
