<?xml version="1.0" encoding="UTF-8" ?>
<!DOCTYPE svg PUBLIC "-//W3C//DTD SVG 1.1//EN" "http://www.w3.org/Graphics/SVG/1.1/DTD/svg11.dtd">
<svg width="64pt" height="64pt" viewBox="0 0 64 64" version="1.1" xmlns="http://www.w3.org/2000/svg">
<g id="#010101ff">
<path fill="#010101" opacity="1.00" d=" M 23.41 6.68 C 27.29 5.00 31.19 7.49 34.02 9.98 C 37.82 13.33 40.76 17.56 42.84 22.16 C 42.72 20.36 42.60 18.57 42.49 16.77 C 43.13 16.45 44.40 15.82 45.03 15.50 C 57.13 22.82 60.34 41.88 50.21 52.13 C 44.11 57.75 35.07 58.91 27.11 58.28 C 20.46 56.58 12.94 53.92 9.49 47.49 C 6.65 42.48 7.99 36.26 10.57 31.44 C 12.65 27.79 13.31 23.44 15.97 20.13 C 18.66 22.16 20.32 25.14 22.30 27.80 C 23.89 24.71 25.61 21.52 25.68 17.95 C 26.20 14.01 24.11 10.45 23.41 6.68 M 25.95 8.05 C 26.81 10.94 28.12 13.83 27.96 16.92 C 27.99 22.80 24.94 28.05 21.71 32.74 C 20.44 29.34 18.52 26.27 16.46 23.30 C 14.87 29.02 11.23 33.93 10.00 39.77 C 9.98 43.49 11.16 47.37 14.07 49.83 C 17.33 52.95 21.91 53.75 25.72 55.91 C 22.03 51.93 21.09 46.12 22.66 41.01 C 24.81 43.29 27.25 45.55 30.59 45.62 C 32.39 44.06 33.81 42.13 34.72 39.92 C 35.52 37.25 36.38 34.39 35.47 31.62 C 35.76 31.76 36.34 32.03 36.63 32.17 C 39.50 35.12 42.38 38.58 42.35 42.93 C 42.49 47.60 39.81 51.55 37.79 55.54 C 42.96 54.25 48.65 52.27 51.15 47.11 C 54.81 41.77 54.53 34.93 52.84 28.94 C 51.29 24.54 48.42 20.85 44.96 17.77 C 45.57 21.69 45.77 25.96 42.92 29.11 C 41.04 21.68 36.81 14.90 30.80 10.13 C 29.33 9.13 27.57 8.71 25.95 8.05 Z" />
</g>
<g id="#ebeaebff">
<path fill="#ebeaeb" opacity="1.00" d=" M 25.95 8.05 C 27.57 8.71 29.33 9.13 30.80 10.13 C 36.81 14.90 41.04 21.68 42.92 29.11 C 45.77 25.96 45.57 21.69 44.96 17.77 C 48.42 20.85 51.29 24.54 52.84 28.94 C 52.24 30.09 51.63 31.24 51.02 32.38 C 46.23 32.39 41.42 32.60 36.63 32.17 C 36.34 32.03 35.76 31.76 35.47 31.62 C 36.38 34.39 35.52 37.25 34.72 39.92 C 26.48 39.53 18.24 39.99 10.00 39.77 C 11.23 33.93 14.87 29.02 16.46 23.30 C 18.52 26.27 20.44 29.34 21.71 32.74 C 24.94 28.05 27.99 22.80 27.96 16.92 C 28.12 13.83 26.81 10.94 25.95 8.05 Z" />
</g>
<g id="#dedfdeff">
<path fill="#dedfde" opacity="1.00" d=" M 52.84 28.94 C 54.53 34.93 54.81 41.77 51.15 47.11 C 48.65 52.27 42.96 54.25 37.79 55.54 C 39.81 51.55 42.49 47.60 42.35 42.93 C 42.38 38.58 39.50 35.12 36.63 32.17 C 41.42 32.60 46.23 32.39 51.02 32.38 C 51.63 31.24 52.24 30.09 52.84 28.94 Z" />
<path fill="#dedfde" opacity="1.00" d=" M 10.00 39.77 C 18.24 39.99 26.48 39.53 34.72 39.92 C 33.81 42.13 32.39 44.06 30.59 45.62 C 27.25 45.55 24.81 43.29 22.66 41.01 C 21.09 46.12 22.03 51.93 25.72 55.91 C 21.91 53.75 17.33 52.95 14.07 49.83 C 11.16 47.37 9.98 43.49 10.00 39.77 Z" />
</g>
</svg>
