<?xml version="1.0" encoding="UTF-8" ?>
<!DOCTYPE svg PUBLIC "-//W3C//DTD SVG 1.1//EN" "http://www.w3.org/Graphics/SVG/1.1/DTD/svg11.dtd">
<svg width="64pt" height="64pt" viewBox="0 0 64 64" version="1.1" xmlns="http://www.w3.org/2000/svg">
<g id="#000000ff">
<path fill="#000000" opacity="1.00" d=" M 2.76 2.75 C 6.12 1.87 9.61 2.40 13.04 2.28 C 25.46 2.38 37.90 2.06 50.32 2.45 C 51.21 9.91 50.50 17.47 50.72 24.97 C 50.49 28.75 51.31 32.69 50.18 36.35 C 48.87 36.96 47.33 36.63 45.94 36.75 C 35.15 36.70 24.36 36.75 13.57 36.72 C 13.41 43.31 13.82 49.92 13.44 56.50 C 12.23 58.32 9.79 57.57 7.97 57.76 C 6.22 57.45 3.44 58.58 2.77 56.26 C 2.65 38.43 2.68 20.59 2.76 2.75 M 4.86 4.60 C 5.01 13.44 4.90 22.28 4.93 31.11 C 4.90 39.20 5.01 47.29 4.86 55.38 C 7.01 55.41 9.16 55.46 11.31 55.52 C 11.17 50.56 11.33 45.60 11.24 40.63 C 11.24 38.54 11.26 36.44 11.30 34.34 C 15.43 34.44 19.56 34.29 23.68 34.46 C 23.66 31.20 23.70 27.94 23.75 24.68 C 19.59 24.78 15.43 24.69 11.27 24.71 C 11.27 21.25 11.27 17.79 11.27 14.34 C 15.40 14.35 19.53 14.25 23.66 14.43 C 23.73 11.13 23.81 7.82 23.73 4.51 C 17.44 4.45 11.15 4.45 4.86 4.60 M 36.30 4.49 C 36.16 7.80 36.27 11.12 36.34 14.43 C 40.39 14.25 44.44 14.36 48.50 14.33 C 48.51 11.08 48.52 7.83 48.51 4.58 C 44.44 4.42 40.37 4.48 36.30 4.49 M 24.12 14.32 C 23.85 17.72 24.00 21.12 24.13 24.52 C 28.04 24.46 31.95 24.46 35.87 24.52 C 35.98 21.12 36.15 17.72 35.88 14.32 C 31.96 14.43 28.04 14.43 24.12 14.32 M 36.25 24.68 C 36.30 27.94 36.34 31.20 36.32 34.46 C 40.38 34.32 44.44 34.34 48.51 34.46 C 48.45 31.21 48.47 27.96 48.49 24.71 C 44.41 24.73 40.33 24.77 36.25 24.68 Z" />
<path fill="#000000" opacity="1.00" d=" M 55.73 35.63 C 56.31 34.23 57.45 33.36 59.01 33.37 C 60.67 34.84 60.25 37.08 60.30 39.04 C 60.19 45.78 60.40 52.51 60.21 59.25 C 59.51 61.05 57.44 60.38 55.97 60.52 C 46.36 60.42 36.75 60.61 27.15 60.44 C 25.22 60.50 25.53 58.07 25.69 56.82 C 32.88 54.92 40.15 52.66 46.20 48.19 C 50.45 44.95 53.30 40.30 55.73 35.63 M 29.00 58.22 C 38.63 58.42 48.27 58.26 57.90 58.33 C 57.93 51.10 58.34 43.85 57.73 36.63 C 52.92 48.46 41.15 55.80 29.00 58.22 Z" />
</g>
<g id="#f2f1f2ff">
<path fill="#f2f1f2" opacity="1.00" d=" M 4.86 4.60 C 11.15 4.45 17.44 4.45 23.73 4.51 C 23.81 7.82 23.73 11.13 23.66 14.43 C 19.53 14.25 15.40 14.35 11.27 14.34 C 11.27 17.79 11.27 21.25 11.27 24.71 C 15.43 24.69 19.59 24.78 23.75 24.68 C 23.70 27.94 23.66 31.20 23.68 34.46 C 19.56 34.29 15.43 34.44 11.30 34.34 C 11.26 36.44 11.24 38.54 11.24 40.63 C 10.66 40.21 9.48 39.37 8.89 38.95 C 8.54 36.81 8.21 34.68 7.84 32.54 C 7.12 32.19 5.66 31.47 4.93 31.11 C 4.90 22.28 5.01 13.44 4.86 4.60 Z" />
<path fill="#f2f1f2" opacity="1.00" d=" M 36.30 4.49 C 40.37 4.48 44.44 4.42 48.51 4.58 C 48.52 7.83 48.51 11.08 48.50 14.33 C 44.44 14.36 40.39 14.25 36.34 14.43 C 36.27 11.12 36.16 7.80 36.30 4.49 Z" />
<path fill="#f2f1f2" opacity="1.00" d=" M 24.12 14.32 C 28.04 14.43 31.96 14.43 35.88 14.32 C 36.15 17.72 35.98 21.12 35.87 24.52 C 31.95 24.46 28.04 24.46 24.13 24.52 C 24.00 21.12 23.85 17.72 24.12 14.32 Z" />
<path fill="#f2f1f2" opacity="1.00" d=" M 36.25 24.68 C 40.33 24.77 44.41 24.73 48.49 24.71 C 48.47 27.96 48.45 31.21 48.51 34.46 C 44.44 34.34 40.38 34.32 36.32 34.46 C 36.34 31.20 36.30 27.94 36.25 24.68 Z" />
</g>
<g id="#d9d9d9ff">
<path fill="#d9d9d9" opacity="1.00" d=" M 4.93 31.11 C 5.66 31.47 7.12 32.19 7.84 32.54 C 8.21 34.68 8.54 36.81 8.89 38.95 C 9.48 39.37 10.66 40.21 11.24 40.63 C 11.33 45.60 11.17 50.56 11.31 55.52 C 9.16 55.46 7.01 55.41 4.86 55.38 C 5.01 47.29 4.90 39.20 4.93 31.11 Z" />
<path fill="#d9d9d9" opacity="1.00" d=" M 29.00 58.22 C 41.15 55.80 52.92 48.46 57.73 36.63 C 58.34 43.85 57.93 51.10 57.90 58.33 C 48.27 58.26 38.63 58.42 29.00 58.22 Z" />
</g>
</svg>
