<?xml version="1.0" encoding="UTF-8" ?>
<!DOCTYPE svg PUBLIC "-//W3C//DTD SVG 1.1//EN" "http://www.w3.org/Graphics/SVG/1.1/DTD/svg11.dtd">
<svg width="64pt" height="64pt" viewBox="0 0 64 64" version="1.1" xmlns="http://www.w3.org/2000/svg">
<g id="#040404f9">
<path fill="#040404" opacity="0.98" d=" M 8.57 3.55 C 13.98 2.38 19.54 3.15 25.02 2.94 C 32.81 3.06 41.45 1.95 48.20 6.74 C 55.54 11.88 57.05 22.24 54.17 30.26 C 51.83 36.91 44.88 41.00 38.10 41.60 C 33.60 41.90 29.08 41.67 24.57 41.74 C 24.43 47.98 24.60 54.23 24.44 60.48 C 19.71 61.36 14.83 61.23 10.06 60.84 C 8.10 60.63 8.63 58.45 8.46 57.07 C 8.55 39.23 8.37 21.39 8.57 3.55 M 10.62 5.34 C 10.74 10.30 10.71 15.26 10.69 20.22 C 10.75 25.30 10.52 30.38 10.79 35.45 C 10.51 43.17 10.84 50.90 10.66 58.62 C 14.56 58.68 18.46 58.65 22.36 58.62 C 22.27 52.33 22.32 46.03 22.35 39.74 C 29.77 38.66 38.00 41.03 44.91 37.15 C 48.97 35.31 51.66 31.39 52.77 27.16 L 52.86 27.14 C 54.01 21.39 53.03 15.01 49.00 10.56 C 45.95 7.89 42.31 5.52 38.11 5.52 C 28.96 5.05 19.78 5.40 10.62 5.34 Z" />
<path fill="#040404" opacity="0.98" d=" M 22.32 14.22 C 22.49 14.22 22.84 14.20 23.01 14.19 C 27.94 14.61 33.05 13.67 37.85 15.15 C 43.21 17.46 43.45 25.72 39.13 29.21 C 33.74 31.21 27.91 30.14 22.30 30.39 C 22.32 28.06 22.33 25.74 22.32 23.42 C 22.32 20.75 22.29 18.09 22.29 15.43 C 22.30 15.13 22.31 14.53 22.32 14.22 M 24.49 16.50 C 24.49 20.41 24.52 24.32 24.54 28.23 C 28.90 28.35 33.30 28.40 37.60 27.46 C 40.14 24.82 40.84 19.87 37.44 17.61 C 33.38 15.84 28.79 16.68 24.49 16.50 Z" />
</g>
<g id="#faf9faff">
<path fill="#faf9fa" opacity="1.00" d=" M 10.62 5.34 C 19.78 5.40 28.96 5.05 38.11 5.52 C 42.31 5.52 45.95 7.89 49.00 10.56 C 48.33 12.42 48.21 14.61 46.95 16.21 C 43.42 17.32 40.54 15.00 38.60 12.33 C 33.43 12.50 27.42 10.63 23.01 14.19 C 22.84 14.20 22.49 14.22 22.32 14.22 C 22.31 14.53 22.30 15.13 22.29 15.43 C 21.17 16.89 20.07 18.44 18.59 19.56 C 16.37 20.27 13.99 20.09 11.69 20.21 L 10.69 20.22 C 10.71 15.26 10.74 10.30 10.62 5.34 Z" />
</g>
<g id="#ecebecff">
<path fill="#ecebec" opacity="1.00" d=" M 49.00 10.56 C 53.03 15.01 54.01 21.39 52.86 27.14 L 52.77 27.16 C 51.60 27.48 50.44 27.81 49.28 28.13 C 47.87 32.67 41.28 33.69 39.13 29.21 C 43.45 25.72 43.21 17.46 37.85 15.15 C 33.05 13.67 27.94 14.61 23.01 14.19 C 27.42 10.63 33.43 12.50 38.60 12.33 C 40.54 15.00 43.42 17.32 46.95 16.21 C 48.21 14.61 48.33 12.42 49.00 10.56 Z" />
<path fill="#ecebec" opacity="1.00" d=" M 18.59 19.56 C 20.07 18.44 21.17 16.89 22.29 15.43 C 22.29 18.09 22.32 20.75 22.32 23.42 C 21.81 23.87 20.78 24.77 20.26 25.22 C 20.04 27.42 19.83 29.62 19.61 31.82 C 17.14 31.80 14.66 31.79 12.19 31.80 C 11.89 27.94 11.72 24.07 11.69 20.21 C 13.99 20.09 16.37 20.27 18.59 19.56 Z" />
</g>
<g id="#dddcddff">
<path fill="#dddcdd" opacity="1.00" d=" M 10.69 20.22 L 11.69 20.21 C 11.72 24.07 11.89 27.94 12.19 31.80 C 14.66 31.79 17.14 31.80 19.61 31.82 C 19.83 29.62 20.04 27.42 20.26 25.22 C 20.78 24.77 21.81 23.87 22.32 23.42 C 22.33 25.74 22.32 28.06 22.30 30.39 C 27.91 30.14 33.74 31.21 39.13 29.21 C 41.28 33.69 47.87 32.67 49.28 28.13 C 50.44 27.81 51.60 27.48 52.77 27.16 C 51.66 31.39 48.97 35.31 44.91 37.15 C 38.00 41.03 29.77 38.66 22.35 39.74 C 20.58 40.88 19.08 42.59 17.02 43.23 C 15.54 43.25 14.07 43.10 12.59 42.99 C 11.98 40.48 11.32 37.98 10.79 35.45 C 10.52 30.38 10.75 25.30 10.69 20.22 Z" />
</g>
<g id="#cdcccdff">
<path fill="#cdcccd" opacity="1.00" d=" M 10.79 35.45 C 11.32 37.98 11.98 40.48 12.59 42.99 C 14.07 43.10 15.54 43.25 17.02 43.23 C 19.08 42.59 20.58 40.88 22.35 39.74 C 22.32 46.03 22.27 52.33 22.36 58.62 C 18.46 58.65 14.56 58.68 10.66 58.62 C 10.84 50.90 10.51 43.17 10.79 35.45 Z" />
</g>
</svg>
