<?xml version="1.0" encoding="UTF-8" ?>
<!DOCTYPE svg PUBLIC "-//W3C//DTD SVG 1.1//EN" "http://www.w3.org/Graphics/SVG/1.1/DTD/svg11.dtd">
<svg width="64pt" height="64pt" viewBox="0 0 64 64" version="1.1" xmlns="http://www.w3.org/2000/svg">
<g id="#070407f6">
<path fill="#070407" opacity="0.96" d=" M 52.19 5.13 C 53.92 4.49 55.77 4.35 57.60 4.27 C 58.57 11.15 57.83 18.11 58.07 25.02 C 57.95 27.79 58.51 30.73 57.39 33.35 C 55.47 34.20 53.48 33.11 51.62 32.62 C 44.23 30.06 36.70 27.94 29.33 25.33 C 29.91 26.33 30.52 27.32 31.16 28.29 C 31.43 38.63 31.27 48.99 31.22 59.34 C 26.17 60.13 21.06 59.63 15.98 59.75 C 12.61 59.68 9.16 60.18 5.89 59.15 C 6.09 48.75 5.74 38.33 6.04 27.92 C 6.73 27.47 8.10 26.57 8.78 26.11 C 8.59 25.73 8.21 24.97 8.02 24.59 C 8.53 24.66 9.54 24.80 10.05 24.87 L 11.51 24.25 C 11.61 20.11 11.05 15.90 11.79 11.81 C 16.08 10.51 20.91 11.29 25.39 11.43 C 25.50 12.05 25.72 13.29 25.82 13.91 C 34.48 10.58 43.42 8.12 52.19 5.13 M 29.94 14.83 C 27.74 15.13 27.13 17.29 26.36 19.02 C 27.17 20.34 27.35 22.43 29.15 22.83 C 37.90 25.94 46.98 28.10 55.65 31.47 C 55.71 23.15 55.69 14.83 55.77 6.51 C 47.08 9.01 38.56 12.09 29.94 14.83 M 13.92 13.33 C 13.62 17.18 13.68 21.03 13.72 24.89 C 16.99 24.89 20.26 24.90 23.52 24.90 C 22.90 22.89 22.18 20.92 21.42 18.96 C 22.13 17.20 22.88 15.45 23.65 13.72 C 20.41 13.64 17.16 13.55 13.92 13.33 M 28.93 26.37 C 29.35 25.16 27.61 24.26 26.62 24.66 C 25.39 25.85 27.95 27.20 28.93 26.37 M 8.32 28.99 C 8.31 32.77 8.31 36.54 8.27 40.31 C 8.35 46.06 8.23 51.81 8.44 57.55 C 15.22 57.63 22.01 57.43 28.79 57.70 C 28.98 50.44 28.99 43.17 28.94 35.91 C 29.12 33.60 29.00 31.28 28.96 28.97 C 22.08 28.98 15.20 28.92 8.32 28.99 Z" />
</g>
<g id="#6e68adff">
<path fill="#6e68ad" opacity="1.00" d=" M 29.94 14.83 C 38.56 12.09 47.08 9.01 55.77 6.51 C 55.69 14.83 55.71 23.15 55.65 31.47 C 46.98 28.10 37.90 25.94 29.15 22.83 C 27.35 22.43 27.17 20.34 26.36 19.02 C 27.13 17.29 27.74 15.13 29.94 14.83 Z" />
<path fill="#6e68ad" opacity="1.00" d=" M 13.92 13.33 C 17.16 13.55 20.41 13.64 23.65 13.72 C 22.88 15.45 22.13 17.20 21.42 18.96 C 22.18 20.92 22.90 22.89 23.52 24.90 C 20.26 24.90 16.99 24.89 13.72 24.89 C 13.68 21.03 13.62 17.18 13.92 13.33 Z" />
</g>
<g id="#797b7986">
<path fill="#797b79" opacity="0.53" d=" M 8.57 23.94 C 8.94 24.17 9.68 24.64 10.05 24.87 C 9.54 24.80 8.53 24.66 8.02 24.59 L 8.57 23.94 Z" />
</g>
<g id="#5f55a3ff">
<path fill="#5f55a3" opacity="1.00" d=" M 8.32 28.99 C 15.20 28.92 22.08 28.98 28.96 28.97 C 29.00 31.28 29.12 33.60 28.94 35.91 C 28.20 37.31 28.03 39.84 26.00 39.88 C 20.11 40.19 14.17 41.02 8.27 40.31 C 8.31 36.54 8.31 32.77 8.32 28.99 Z" />
</g>
<g id="#55469bff">
<path fill="#55469b" opacity="1.00" d=" M 26.00 39.88 C 28.03 39.84 28.20 37.31 28.94 35.91 C 28.99 43.17 28.98 50.44 28.79 57.70 C 22.01 57.43 15.22 57.63 8.44 57.55 C 8.23 51.81 8.35 46.06 8.27 40.31 C 14.17 41.02 20.11 40.19 26.00 39.88 Z" />
</g>
</svg>
