<?xml version="1.0" encoding="UTF-8" ?>
<!DOCTYPE svg PUBLIC "-//W3C//DTD SVG 1.1//EN" "http://www.w3.org/Graphics/SVG/1.1/DTD/svg11.dtd">
<svg width="64pt" height="64pt" viewBox="0 0 64 64" version="1.1" xmlns="http://www.w3.org/2000/svg">
<g id="#0101014a">
<path fill="#010101" opacity="0.29" d=" M 8.17 4.09 C 23.46 3.90 38.75 3.96 54.04 4.07 L 53.81 5.05 C 40.19 4.98 26.59 4.96 12.97 4.98 C 11.25 4.95 9.55 5.28 7.91 5.81 L 6.99 6.04 C 7.29 5.56 7.88 4.58 8.17 4.09 Z" />
<path fill="#010101" opacity="0.29" d=" M 18.06 39.06 C 30.04 38.86 42.02 39.05 53.99 39.01 L 54.00 39.98 C 42.34 40.11 30.69 39.87 19.04 40.04 C 18.85 46.35 19.17 52.67 18.95 58.98 L 18.00 59.00 C 17.99 52.35 17.91 45.71 18.06 39.06 Z" />
<path fill="#010101" opacity="0.29" d=" M 9.00 60.00 C 11.67 60.00 14.33 60.00 17.00 60.00 C 16.13 62.22 11.42 60.54 9.03 60.95 L 9.00 60.00 Z" />
</g>
<g id="#030303fd">
<path fill="#030303" opacity="1.00" d=" M 7.91 5.81 C 9.55 5.28 11.25 4.95 12.97 4.98 C 26.59 4.96 40.19 4.98 53.81 5.05 C 54.09 5.34 54.66 5.92 54.95 6.20 C 55.04 16.80 54.99 27.40 55.00 38.00 C 54.75 38.25 54.25 38.75 53.99 39.01 C 42.02 39.05 30.04 38.86 18.06 39.06 C 17.91 45.71 17.99 52.35 18.00 59.00 C 17.75 59.25 17.25 59.75 17.00 60.00 C 14.33 60.00 11.67 60.00 9.00 60.00 C 8.75 59.75 8.25 59.24 8.00 58.99 C 7.96 41.26 8.10 23.53 7.91 5.81 M 9.03 7.00 C 8.96 24.00 8.98 41.00 9.02 58.00 L 9.99 57.99 C 11.49 57.99 14.49 58.00 15.99 58.00 C 16.03 55.25 15.95 52.50 15.74 49.75 C 16.49 45.57 15.73 41.26 16.04 37.04 C 20.02 37.01 24.00 36.99 27.99 36.96 C 30.49 36.14 28.16 30.30 28.98 27.98 L 29.01 26.99 C 31.75 26.99 37.23 26.98 39.97 26.98 L 40.00 26.00 L 40.96 25.98 C 40.25 23.65 43.25 16.78 39.99 17.07 C 36.33 16.88 32.66 16.96 29.00 17.02 L 28.97 16.03 C 28.23 13.66 31.25 6.87 27.99 7.05 C 22.00 6.86 16.00 6.97 10.01 7.03 L 9.03 7.00 M 41.06 7.01 C 41.75 9.44 38.74 15.89 42.01 16.01 L 42.00 16.99 C 44.75 16.98 50.26 16.98 53.02 16.97 C 55.25 18.90 54.27 2.49 52.95 8.12 C 49.92 5.09 44.71 8.03 41.06 7.01 M 40.97 27.02 L 41.07 27.98 C 40.86 30.98 41.01 33.97 41.02 36.97 C 45.01 37.08 49.01 37.08 53.00 36.97 C 53.25 34.47 53.74 29.47 53.99 26.98 L 53.02 27.05 C 49.00 26.92 44.98 26.91 40.97 27.02 Z" />
<path fill="#030303" opacity="1.00" d=" M 16.00 17.01 C 20.00 17.00 23.99 16.99 27.98 16.99 C 28.01 20.33 28.00 23.67 27.99 27.01 C 24.01 27.00 20.02 26.99 16.03 26.98 C 15.87 23.66 15.92 20.33 16.00 17.01 Z" />
</g>
<g id="#00000080">
<path fill="#000000" opacity="0.50" d=" M 6.99 6.04 L 7.91 5.81 C 8.10 23.53 7.96 41.26 8.00 58.99 L 7.02 59.00 C 6.97 41.35 7.00 23.69 6.99 6.04 Z" />
<path fill="#000000" opacity="0.50" d=" M 54.95 6.20 L 55.91 5.93 C 56.05 16.61 56.08 27.30 55.96 37.98 L 55.00 38.00 C 54.99 27.40 55.04 16.80 54.95 6.20 Z" />
</g>
<g id="#494a49ff">
<path fill="#494a49" opacity="1.00" d=" M 9.03 7.00 L 10.01 7.03 C 10.06 13.92 9.82 20.82 10.15 27.71 C 10.03 35.70 9.84 43.70 10.13 51.69 C 10.07 53.79 10.01 55.89 9.99 57.99 L 9.02 58.00 C 8.98 41.00 8.96 24.00 9.03 7.00 Z" />
<path fill="#494a49" opacity="1.00" d=" M 52.95 8.12 C 54.27 2.49 55.25 18.90 53.02 16.97 L 52.99 15.99 C 52.98 13.37 52.97 10.74 52.95 8.12 Z" />
<path fill="#494a49" opacity="1.00" d=" M 28.00 15.98 L 28.97 16.03 L 29.00 17.02 C 29.00 20.34 29.00 23.66 29.01 26.99 L 28.98 27.98 L 28.02 28.01 L 27.99 27.01 C 28.00 23.67 28.01 20.33 27.98 16.99 L 28.00 15.98 Z" />
<path fill="#494a49" opacity="1.00" d=" M 53.02 27.05 L 53.99 26.98 C 53.74 29.47 53.25 34.47 53.00 36.97 C 52.99 33.98 53.00 31.00 52.99 28.01 L 53.02 27.05 Z" />
</g>
<g id="#f1f2f1ff">
<path fill="#f1f2f1" opacity="1.00" d=" M 10.01 7.03 C 16.00 6.97 22.00 6.86 27.99 7.05 C 27.99 10.03 28.00 13.00 28.00 15.98 C 25.08 17.41 17.20 13.65 16.00 17.01 C 15.92 20.33 15.87 23.66 16.03 26.98 L 16.10 27.95 C 20.07 28.02 24.05 28.04 28.02 28.01 L 27.97 28.93 C 26.17 31.89 22.01 31.94 19.01 31.99 C 14.44 34.06 12.99 29.60 10.15 27.71 C 9.82 20.82 10.06 13.92 10.01 7.03 Z" />
<path fill="#f1f2f1" opacity="1.00" d=" M 41.06 7.01 C 44.71 8.03 49.92 5.09 52.95 8.12 C 52.97 10.74 52.98 13.37 52.99 15.99 C 49.33 15.99 45.67 16.00 42.01 16.01 C 38.74 15.89 41.75 9.44 41.06 7.01 Z" />
<path fill="#f1f2f1" opacity="1.00" d=" M 29.00 17.02 C 32.66 16.96 36.33 16.88 39.99 17.07 C 39.99 20.04 40.00 23.02 40.00 26.00 L 39.97 26.98 C 37.23 26.98 31.75 26.99 29.01 26.99 C 29.00 23.66 29.00 20.34 29.00 17.02 Z" />
<path fill="#f1f2f1" opacity="1.00" d=" M 43.84 28.05 C 45.67 28.06 49.35 28.06 51.18 28.06 C 52.24 33.69 43.10 32.99 43.84 28.05 Z" />
</g>
<g id="#737573ff">
<path fill="#737573" opacity="1.00" d=" M 27.99 7.05 C 31.25 6.87 28.23 13.66 28.97 16.03 L 28.00 15.98 C 28.00 13.00 27.99 10.03 27.99 7.05 Z" />
<path fill="#737573" opacity="1.00" d=" M 28.02 28.01 L 28.98 27.98 C 28.16 30.30 30.49 36.14 27.99 36.96 C 27.97 34.28 27.97 31.60 27.97 28.93 L 28.02 28.01 Z" />
</g>
<g id="#b0b1b0ff">
<path fill="#b0b1b0" opacity="1.00" d=" M 16.00 17.01 C 17.20 13.65 25.08 17.41 28.00 15.98 L 27.98 16.99 C 23.99 16.99 20.00 17.00 16.00 17.01 Z" />
<path fill="#b0b1b0" opacity="1.00" d=" M 42.01 16.01 C 45.67 16.00 49.33 15.99 52.99 15.99 L 53.02 16.97 C 50.26 16.98 44.75 16.98 42.00 16.99 L 42.01 16.01 Z" />
<path fill="#b0b1b0" opacity="1.00" d=" M 39.99 17.07 C 43.25 16.78 40.25 23.65 40.96 25.98 L 40.00 26.00 C 40.00 23.02 39.99 20.04 39.99 17.07 Z" />
<path fill="#b0b1b0" opacity="1.00" d=" M 16.03 26.98 C 20.02 26.99 24.01 27.00 27.99 27.01 L 28.02 28.01 C 24.05 28.04 20.07 28.02 16.10 27.95 L 16.03 26.98 Z" />
<path fill="#b0b1b0" opacity="1.00" d=" M 40.97 27.02 C 44.98 26.91 49.00 26.92 53.02 27.05 L 52.99 28.01 C 52.54 28.02 51.64 28.05 51.18 28.06 C 49.35 28.06 45.67 28.06 43.84 28.05 C 43.14 28.04 41.76 28.00 41.07 27.98 L 40.97 27.02 Z" />
<path fill="#b0b1b0" opacity="1.00" d=" M 13.90 55.09 C 14.79 53.41 15.18 51.54 15.74 49.75 C 15.95 52.50 16.03 55.25 15.99 58.00 C 14.49 58.00 11.49 57.99 9.99 57.99 C 10.01 55.89 10.07 53.79 10.13 51.69 C 11.60 52.63 12.03 54.76 13.90 55.09 Z" />
</g>
<g id="#d6d8d6ff">
<path fill="#d6d8d6" opacity="1.00" d=" M 10.15 27.71 C 12.99 29.60 14.44 34.06 19.01 31.99 C 22.01 31.94 26.17 31.89 27.97 28.93 C 27.97 31.60 27.97 34.28 27.99 36.96 C 24.00 36.99 20.02 37.01 16.04 37.04 C 15.73 41.26 16.49 45.57 15.74 49.75 C 15.18 51.54 14.79 53.41 13.90 55.09 C 12.03 54.76 11.60 52.63 10.13 51.69 C 9.84 43.70 10.03 35.70 10.15 27.71 Z" />
<path fill="#d6d8d6" opacity="1.00" d=" M 41.07 27.98 C 41.76 28.00 43.14 28.04 43.84 28.05 C 43.10 32.99 52.24 33.69 51.18 28.06 C 51.64 28.05 52.54 28.02 52.99 28.01 C 53.00 31.00 52.99 33.98 53.00 36.97 C 49.01 37.08 45.01 37.08 41.02 36.97 C 41.01 33.97 40.86 30.98 41.07 27.98 Z" />
</g>
</svg>
