<?xml version="1.0" encoding="UTF-8" ?>
<!DOCTYPE svg PUBLIC "-//W3C//DTD SVG 1.1//EN" "http://www.w3.org/Graphics/SVG/1.1/DTD/svg11.dtd">
<svg width="64pt" height="64pt" viewBox="0 0 64 64" version="1.1" xmlns="http://www.w3.org/2000/svg">
<g id="#02010242">
<path fill="#020102" opacity="0.26" d=" M 13.79 8.82 C 25.52 7.23 38.34 7.60 50.19 8.82 C 38.06 8.97 25.92 9.26 13.79 8.82 Z" />
<path fill="#020102" opacity="0.26" d=" M 2.70 40.27 C 1.59 37.59 1.34 33.25 3.06 31.03 C 2.91 34.11 2.81 37.19 2.70 40.27 Z" />
<path fill="#020102" opacity="0.26" d=" M 60.97 31.01 C 63.42 32.92 61.17 36.74 61.28 39.24 C 61.18 36.50 61.07 33.75 60.97 31.01 Z" />
</g>
<g id="#050505fd">
<path fill="#050505" opacity="1.00" d=" M 3.06 31.03 C 12.83 27.00 4.44 12.61 13.79 8.82 C 25.92 9.26 38.06 8.97 50.19 8.82 C 56.07 10.92 55.31 17.87 55.99 22.96 C 54.10 27.62 58.62 28.71 60.97 31.01 C 61.07 33.75 61.18 36.50 61.28 39.24 C 61.24 42.32 57.51 43.76 57.99 46.96 C 59.35 50.96 55.88 55.44 51.83 55.14 C 51.18 55.18 49.87 55.26 49.22 55.30 C 44.65 53.75 43.91 48.23 43.78 44.10 C 35.94 44.04 28.06 43.65 20.22 44.13 C 20.45 48.36 19.16 53.64 14.80 55.34 C 14.41 55.32 13.62 55.27 13.23 55.25 C 11.06 54.98 8.91 54.55 6.75 54.18 C 6.52 53.72 6.06 52.78 5.83 52.31 C 6.34 47.84 5.75 43.64 2.70 40.27 C 2.81 37.19 2.91 34.11 3.06 31.03 M 12.32 13.28 C 10.49 18.21 10.11 23.54 9.75 28.74 C 8.38 29.79 6.95 30.77 6.00 32.26 C 3.29 31.73 6.49 39.97 5.10 40.81 C 9.75 41.94 7.36 47.51 8.15 50.82 C 9.86 52.09 12.23 53.93 14.35 52.41 C 19.01 51.16 16.20 45.28 17.02 41.98 C 27.00 42.09 36.99 41.99 46.97 42.00 C 47.06 44.94 46.98 47.87 47.12 50.82 C 49.59 53.43 53.38 53.48 55.85 50.83 C 56.60 47.28 54.39 42.13 58.87 40.81 C 58.50 38.82 60.83 30.83 58.03 32.28 C 57.07 30.78 55.63 29.79 54.22 28.76 C 52.61 23.09 54.49 15.55 49.80 11.16 C 39.55 10.77 29.26 11.07 18.99 11.01 C 15.55 8.85 13.93 11.39 12.32 13.28 Z" />
<path fill="#050505" opacity="1.00" d=" M 13.98 25.96 C 14.70 22.36 13.98 16.85 17.06 15.02 C 26.04 14.98 35.03 15.02 44.02 14.98 C 49.81 14.64 49.05 21.87 50.06 25.95 C 38.03 26.04 26.00 26.05 13.98 25.96 Z" />
</g>
<g id="#e5e5e5ff">
<path fill="#e5e5e5" opacity="1.00" d=" M 12.32 13.28 C 13.93 11.39 15.55 8.85 18.99 11.01 C 29.26 11.07 39.55 10.77 49.80 11.16 C 54.49 15.55 52.61 23.09 54.22 28.76 C 55.63 29.79 57.07 30.78 58.03 32.28 C 56.27 34.81 54.56 37.84 51.02 37.64 C 37.13 36.32 23.16 37.48 9.25 36.82 C 8.10 35.35 7.11 33.76 6.00 32.26 C 6.95 30.77 8.38 29.79 9.75 28.74 C 10.11 23.54 10.49 18.21 12.32 13.28 M 16.98 14.04 L 17.06 15.02 C 13.98 16.85 14.70 22.36 13.98 25.96 C 26.00 26.05 38.03 26.04 50.06 25.95 C 49.05 21.87 49.81 14.64 44.02 14.98 L 43.97 14.03 C 34.98 13.90 25.98 13.98 16.98 14.04 Z" />
</g>
<g id="#5a5a5aff">
<path fill="#5a5a5a" opacity="1.00" d=" M 16.98 14.04 C 25.98 13.98 34.98 13.90 43.97 14.03 L 44.02 14.98 C 35.03 15.02 26.04 14.98 17.06 15.02 L 16.98 14.04 Z" />
</g>
<g id="#cfcfcfff">
<path fill="#cfcfcf" opacity="1.00" d=" M 5.10 40.81 C 6.49 39.97 3.29 31.73 6.00 32.26 C 7.11 33.76 8.10 35.35 9.25 36.82 C 23.16 37.48 37.13 36.32 51.02 37.64 C 54.56 37.84 56.27 34.81 58.03 32.28 C 60.83 30.83 58.50 38.82 58.87 40.81 C 54.39 42.13 56.60 47.28 55.85 50.83 C 53.38 53.48 49.59 53.43 47.12 50.82 C 46.98 47.87 47.06 44.94 46.97 42.00 L 46.92 41.04 C 36.97 40.92 27.02 40.93 17.06 41.02 L 17.02 41.98 C 16.20 45.28 19.01 51.16 14.35 52.41 C 12.23 53.93 9.86 52.09 8.15 50.82 C 7.36 47.51 9.75 41.94 5.10 40.81 Z" />
</g>
<g id="#979697ff">
<path fill="#979697" opacity="1.00" d=" M 17.06 41.02 C 27.02 40.93 36.97 40.92 46.92 41.04 L 46.97 42.00 C 36.99 41.99 27.00 42.09 17.02 41.98 L 17.06 41.02 Z" />
</g>
</svg>
