<?xml version="1.0" encoding="UTF-8" ?>
<!DOCTYPE svg PUBLIC "-//W3C//DTD SVG 1.1//EN" "http://www.w3.org/Graphics/SVG/1.1/DTD/svg11.dtd">
<svg width="64pt" height="64pt" viewBox="0 0 64 64" version="1.1" xmlns="http://www.w3.org/2000/svg">
<g id="#020302ed">
<path fill="#020302" opacity="0.93" d=" M 36.47 7.55 C 40.53 6.32 45.06 7.22 48.59 9.46 C 50.25 10.37 50.03 12.43 50.08 14.03 C 50.03 19.69 50.09 25.35 50.06 31.01 C 50.24 32.54 49.59 33.99 48.22 34.71 C 45.64 33.43 42.98 31.85 39.98 32.04 C 36.34 31.98 33.52 34.85 29.98 35.24 C 27.57 35.71 25.16 35.09 22.81 34.61 C 22.88 41.61 22.27 48.65 23.67 55.55 C 20.95 57.50 17.47 57.30 14.36 56.58 C 13.53 52.08 14.09 47.49 13.94 42.95 C 14.07 31.26 13.67 19.56 14.15 7.88 C 16.45 7.43 18.81 7.23 21.13 7.62 C 23.37 9.01 25.07 11.92 28.12 11.22 C 31.09 10.44 33.48 8.27 36.47 7.55 M 31.71 12.28 C 30.15 12.56 28.59 12.86 27.01 12.98 C 24.17 13.53 22.49 10.71 20.22 9.58 C 19.26 9.58 17.34 9.58 16.38 9.58 C 16.21 24.61 16.22 39.65 16.37 54.68 C 17.77 54.67 19.16 54.62 20.55 54.58 C 20.45 46.47 20.44 38.35 20.55 30.24 C 23.28 32.64 27.04 33.65 30.58 32.67 C 33.43 31.73 36.05 30.08 39.06 29.67 C 42.07 29.39 45.01 30.35 47.61 31.78 C 47.62 30.65 47.63 29.53 47.63 28.40 C 48.18 22.71 48.21 16.87 47.61 11.16 L 47.63 11.61 C 42.86 8.10 36.36 9.09 31.71 12.28 Z" />
</g>
<g id="#fefafdff">
<path fill="#fefafd" opacity="1.00" d=" M 31.71 12.28 C 36.36 9.09 42.86 8.10 47.63 11.61 C 47.68 12.44 47.77 14.11 47.82 14.95 C 42.77 11.52 36.23 12.35 31.48 15.85 C 31.54 14.96 31.65 13.18 31.71 12.28 Z" />
<path fill="#fefafd" opacity="1.00" d=" M 16.37 54.68 C 16.22 39.65 16.21 24.61 16.38 9.58 C 17.34 9.58 19.26 9.58 20.22 9.58 C 20.22 12.53 19.92 15.54 20.51 18.46 C 21.76 19.90 23.53 20.76 25.01 21.95 C 26.47 21.99 27.91 21.94 29.34 21.79 C 33.35 19.96 37.35 16.84 42.03 17.79 C 45.19 18.04 48.76 19.83 47.84 23.60 C 43.50 21.28 37.82 20.42 33.56 23.39 C 31.03 25.17 27.99 25.83 24.93 25.76 C 23.42 24.49 21.92 23.21 20.43 21.91 C 20.35 23.51 20.28 25.11 20.22 26.70 C 22.31 28.27 24.08 31.12 27.06 30.70 C 30.80 30.72 33.59 27.76 37.07 26.83 C 40.64 25.54 44.35 26.97 47.63 28.40 C 47.63 29.53 47.62 30.65 47.61 31.78 C 45.01 30.35 42.07 29.39 39.06 29.67 C 36.05 30.08 33.43 31.73 30.58 32.67 C 27.04 33.65 23.28 32.64 20.55 30.24 C 20.44 38.35 20.45 46.47 20.55 54.58 C 19.16 54.62 17.77 54.67 16.37 54.68 Z" />
</g>
<g id="#3a30c8ff">
<path fill="#3a30c8" opacity="1.00" d=" M 20.22 9.58 C 22.49 10.71 24.17 13.53 27.01 12.98 C 28.59 12.86 30.15 12.56 31.71 12.28 C 31.65 13.18 31.54 14.96 31.48 15.85 C 31.33 17.97 31.37 20.52 29.34 21.79 C 27.91 21.94 26.47 21.99 25.01 21.95 C 23.53 20.76 21.76 19.90 20.51 18.46 C 19.92 15.54 20.22 12.53 20.22 9.58 Z" />
</g>
<g id="#f70404ff">
<path fill="#f70404" opacity="1.00" d=" M 47.63 11.61 L 47.61 11.16 C 48.21 16.87 48.18 22.71 47.63 28.40 C 44.35 26.97 40.64 25.54 37.07 26.83 C 33.59 27.76 30.80 30.72 27.06 30.70 C 24.08 31.12 22.31 28.27 20.22 26.70 C 20.28 25.11 20.35 23.51 20.43 21.91 C 21.92 23.21 23.42 24.49 24.93 25.76 C 27.99 25.83 31.03 25.17 33.56 23.39 C 37.82 20.42 43.50 21.28 47.84 23.60 C 48.76 19.83 45.19 18.04 42.03 17.79 C 37.35 16.84 33.35 19.96 29.34 21.79 C 31.37 20.52 31.33 17.97 31.48 15.85 C 36.23 12.35 42.77 11.52 47.82 14.95 C 47.77 14.11 47.68 12.44 47.63 11.61 Z" />
</g>
</svg>
