<?xml version="1.0" encoding="UTF-8" ?>
<!DOCTYPE svg PUBLIC "-//W3C//DTD SVG 1.1//EN" "http://www.w3.org/Graphics/SVG/1.1/DTD/svg11.dtd">
<svg width="64pt" height="64pt" viewBox="0 0 64 64" version="1.1" xmlns="http://www.w3.org/2000/svg">
<g id="#010001ff">
<path fill="#010001" opacity="1.00" d=" M 2.77 4.87 C 2.53 3.08 4.56 2.53 5.94 2.71 C 20.76 2.66 35.59 2.76 50.41 2.67 C 51.25 13.11 50.70 23.61 50.70 34.08 C 52.78 34.53 55.82 33.81 56.89 36.21 C 57.95 38.94 58.09 41.93 58.60 44.79 C 59.46 45.91 60.33 47.02 61.15 48.17 C 61.12 50.76 60.98 53.38 60.07 55.82 C 59.18 58.34 58.39 62.18 54.89 61.78 C 51.83 62.30 50.00 59.63 49.27 57.05 C 45.07 57.03 40.87 57.02 36.67 57.02 C 35.76 59.48 34.13 62.37 31.00 61.78 C 27.49 62.03 26.64 58.04 25.53 55.52 C 23.85 51.96 24.04 47.44 27.26 44.81 C 27.74 42.32 28.13 39.81 28.51 37.30 C 23.55 37.30 18.58 37.29 13.61 37.28 C 13.42 44.15 13.92 51.03 13.22 57.88 C 9.70 58.18 6.15 58.11 2.67 57.50 C 2.81 39.96 2.58 22.41 2.77 4.87 M 4.95 4.94 C 4.95 7.23 4.94 9.52 4.88 11.81 C 4.99 18.40 4.92 24.99 4.92 31.57 C 4.92 39.59 4.94 47.62 4.91 55.64 C 7.03 55.66 9.15 55.69 11.28 55.72 C 11.15 48.90 11.39 42.07 11.20 35.25 C 15.34 34.87 19.51 35.12 23.66 35.09 C 23.69 31.70 23.71 28.31 23.68 24.92 C 19.54 24.94 15.40 24.94 11.27 24.92 C 11.27 22.39 11.29 19.85 11.24 17.31 C 11.27 16.65 11.32 15.33 11.35 14.67 C 15.45 14.69 19.55 14.72 23.65 14.66 C 23.75 11.42 23.72 8.17 23.69 4.93 C 17.44 4.95 11.20 4.93 4.95 4.94 M 36.30 4.92 C 36.27 8.17 36.25 11.41 36.35 14.66 C 40.40 14.72 44.45 14.68 48.50 14.67 C 48.50 11.43 48.50 8.19 48.50 4.95 C 44.43 4.93 40.36 4.95 36.30 4.92 M 23.90 15.06 C 24.07 18.28 24.13 21.49 24.09 24.71 C 28.03 24.65 31.96 24.64 35.90 24.72 C 35.89 21.50 35.87 18.28 36.07 15.06 C 32.01 15.07 27.96 15.07 23.90 15.06 M 36.29 24.92 C 36.28 28.08 36.31 31.23 36.35 34.38 C 40.39 34.28 44.43 34.31 48.47 34.32 C 48.48 31.20 48.50 28.07 48.52 24.95 C 44.44 24.92 40.37 24.94 36.29 24.92 M 30.76 36.68 C 29.85 40.43 30.91 45.12 27.85 48.02 C 25.99 49.77 26.76 52.44 27.37 54.56 C 27.70 54.59 28.37 54.64 28.71 54.66 C 28.86 56.28 29.15 57.87 29.59 59.43 C 30.54 59.42 32.44 59.41 33.39 59.40 C 33.59 57.91 33.79 56.41 34.01 54.93 C 39.96 54.31 45.98 54.71 51.95 54.67 C 51.99 56.28 52.23 57.86 52.66 59.42 C 53.58 59.42 55.41 59.43 56.33 59.43 C 56.56 58.00 56.82 56.57 57.11 55.15 C 57.70 54.50 58.29 53.85 58.87 53.19 C 58.92 51.74 58.97 50.28 59.03 48.83 C 58.18 48.07 57.32 47.31 56.47 46.56 C 56.05 43.27 55.57 39.99 55.11 36.71 C 47.00 36.41 38.87 36.45 30.76 36.68 Z" />
<path fill="#010001" opacity="1.00" d=" M 32.58 45.22 C 33.06 43.10 32.71 40.25 34.74 38.92 C 40.39 38.57 46.05 39.02 51.69 38.70 C 52.75 40.74 52.98 43.04 53.29 45.28 C 46.39 45.26 39.48 45.36 32.58 45.22 Z" />
</g>
<g id="#f7f7f7ff">
<path fill="#f7f7f7" opacity="1.00" d=" M 4.95 4.94 C 11.20 4.93 17.44 4.95 23.69 4.93 C 23.72 8.17 23.75 11.42 23.65 14.66 C 19.55 14.72 15.45 14.69 11.35 14.67 C 11.32 15.33 11.27 16.65 11.24 17.31 C 8.92 15.72 6.69 13.97 4.88 11.81 C 4.94 9.52 4.95 7.23 4.95 4.94 Z" />
<path fill="#f7f7f7" opacity="1.00" d=" M 36.30 4.92 C 40.36 4.95 44.43 4.93 48.50 4.95 C 48.50 8.19 48.50 11.43 48.50 14.67 C 44.45 14.68 40.40 14.72 36.35 14.66 C 36.25 11.41 36.27 8.17 36.30 4.92 Z" />
<path fill="#f7f7f7" opacity="1.00" d=" M 23.90 15.06 C 27.96 15.07 32.01 15.07 36.07 15.06 C 35.87 18.28 35.89 21.50 35.90 24.72 C 31.96 24.64 28.03 24.65 24.09 24.71 C 24.13 21.49 24.07 18.28 23.90 15.06 Z" />
</g>
<g id="#e0e2e0ff">
<path fill="#e0e2e0" opacity="1.00" d=" M 4.88 11.81 C 6.69 13.97 8.92 15.72 11.24 17.31 C 11.29 19.85 11.27 22.39 11.27 24.92 C 15.40 24.94 19.54 24.94 23.68 24.92 C 23.71 28.31 23.69 31.70 23.66 35.09 C 19.51 35.12 15.34 34.87 11.20 35.25 C 10.52 35.33 9.15 35.49 8.47 35.57 C 7.28 34.25 6.09 32.91 4.92 31.57 C 4.92 24.99 4.99 18.40 4.88 11.81 Z" />
<path fill="#e0e2e0" opacity="1.00" d=" M 36.29 24.92 C 40.37 24.94 44.44 24.92 48.52 24.95 C 48.50 28.07 48.48 31.20 48.47 34.32 C 44.43 34.31 40.39 34.28 36.35 34.38 C 36.31 31.23 36.28 28.08 36.29 24.92 Z" />
</g>
<g id="#cacbcaff">
<path fill="#cacbca" opacity="1.00" d=" M 4.92 31.57 C 6.09 32.91 7.28 34.25 8.47 35.57 C 9.15 35.49 10.52 35.33 11.20 35.25 C 11.39 42.07 11.15 48.90 11.28 55.72 C 9.15 55.69 7.03 55.66 4.91 55.64 C 4.94 47.62 4.92 39.59 4.92 31.57 Z" />
</g>
<g id="#8cc460ff">
<path fill="#8cc460" opacity="1.00" d=" M 30.76 36.68 C 38.87 36.45 47.00 36.41 55.11 36.71 C 55.57 39.99 56.05 43.27 56.47 46.56 C 57.32 47.31 58.18 48.07 59.03 48.83 C 58.97 50.28 58.92 51.74 58.87 53.19 C 58.29 53.85 57.70 54.50 57.11 55.15 C 55.40 54.97 53.68 54.79 51.95 54.67 C 45.98 54.71 39.96 54.31 34.01 54.93 C 32.24 54.87 30.47 54.78 28.71 54.66 C 28.37 54.64 27.70 54.59 27.37 54.56 C 26.76 52.44 25.99 49.77 27.85 48.02 C 30.91 45.12 29.85 40.43 30.76 36.68 M 32.58 45.22 C 39.48 45.36 46.39 45.26 53.29 45.28 C 52.98 43.04 52.75 40.74 51.69 38.70 C 46.05 39.02 40.39 38.57 34.74 38.92 C 32.71 40.25 33.06 43.10 32.58 45.22 Z" />
</g>
<g id="#00000043">
<path fill="#000000" opacity="0.26" d=" M 61.15 48.17 C 62.19 49.84 63.10 51.58 64.00 53.33 L 64.00 56.03 C 62.69 55.96 61.38 55.89 60.07 55.82 C 60.98 53.38 61.12 50.76 61.15 48.17 Z" />
</g>
<g id="#71ba50ff">
<path fill="#71ba50" opacity="1.00" d=" M 28.71 54.66 C 30.47 54.78 32.24 54.87 34.01 54.93 C 33.79 56.41 33.59 57.91 33.39 59.40 C 32.44 59.41 30.54 59.42 29.59 59.43 C 29.15 57.87 28.86 56.28 28.71 54.66 Z" />
<path fill="#71ba50" opacity="1.00" d=" M 51.95 54.67 C 53.68 54.79 55.40 54.97 57.11 55.15 C 56.82 56.57 56.56 58.00 56.33 59.43 C 55.41 59.43 53.58 59.42 52.66 59.42 C 52.23 57.86 51.99 56.28 51.95 54.67 Z" />
</g>
</svg>
