<?xml version="1.0" encoding="UTF-8" ?>
<!DOCTYPE svg PUBLIC "-//W3C//DTD SVG 1.1//EN" "http://www.w3.org/Graphics/SVG/1.1/DTD/svg11.dtd">
<svg width="64pt" height="64pt" viewBox="0 0 64 64" version="1.1" xmlns="http://www.w3.org/2000/svg">
<g id="#000000ff">
<path fill="#000000" opacity="1.00" d=" M 31.85 0.00 L 32.11 0.00 C 42.79 6.16 53.53 12.27 64.00 18.78 L 64.00 64.00 L 56.91 64.00 C 56.87 62.24 53.85 61.93 54.36 64.00 L 28.15 64.00 C 25.64 62.66 22.81 62.31 20.01 62.47 C 15.30 62.71 10.28 61.65 5.94 64.00 L 0.00 64.00 L 0.00 17.72 C 10.44 11.52 21.21 5.86 31.85 0.00 M 2.08 18.84 C 2.18 33.18 2.08 47.52 2.17 61.85 C 2.96 61.84 4.54 61.82 5.33 61.81 C 5.43 49.05 5.15 36.28 5.49 23.53 C 23.17 23.44 40.85 23.40 58.53 23.55 C 58.84 36.30 58.61 49.06 58.67 61.81 C 59.46 61.82 61.04 61.84 61.83 61.85 C 61.82 47.87 61.77 33.88 61.92 19.89 C 51.99 13.94 41.97 8.16 32.00 2.28 C 22.03 7.82 11.99 13.22 2.08 18.84 M 7.46 25.60 C 7.46 26.13 7.48 27.18 7.49 27.71 C 23.85 27.67 40.22 27.74 56.59 27.68 L 56.48 25.59 C 40.14 25.61 23.80 25.58 7.46 25.60 M 7.27 31.90 C 23.77 32.05 40.28 32.10 56.77 31.87 C 56.67 31.37 56.48 30.38 56.38 29.88 C 40.12 29.89 23.87 29.89 7.61 29.88 C 7.52 30.38 7.35 31.40 7.27 31.90 M 7.46 34.16 C 7.48 43.09 7.49 52.02 7.45 60.96 C 13.86 61.03 20.27 61.02 26.68 60.97 C 26.59 57.01 26.64 53.06 26.80 49.11 C 31.01 49.05 35.23 49.03 39.45 49.04 C 39.46 44.84 39.46 40.64 39.49 36.44 C 44.39 36.14 49.29 36.21 54.19 36.25 C 54.66 44.45 54.33 52.67 54.38 60.88 C 54.91 60.93 55.97 61.04 56.50 61.09 C 56.54 52.10 56.55 43.11 56.49 34.12 C 40.15 34.18 23.81 34.10 7.46 34.16 M 45.97 38.45 C 44.55 39.64 46.63 41.83 47.90 40.51 C 49.32 39.33 47.24 37.12 45.97 38.45 M 50.20 38.30 C 50.14 39.70 50.08 41.10 50.03 42.49 C 48.08 42.59 46.14 42.71 44.19 42.58 C 43.82 41.15 43.65 39.69 43.45 38.23 L 41.58 38.50 C 41.59 42.02 41.59 45.54 41.60 49.06 C 45.16 49.06 48.71 49.06 52.27 49.06 C 52.27 45.53 52.28 42.00 52.29 38.46 C 51.77 38.42 50.72 38.34 50.20 38.30 M 28.81 51.20 C 28.81 54.76 28.81 58.31 28.82 61.87 C 32.36 61.87 35.91 61.87 39.46 61.87 C 39.46 58.29 39.47 54.71 39.46 51.13 C 38.94 51.15 37.90 51.18 37.39 51.20 C 37.32 52.61 37.25 54.02 37.18 55.43 C 35.14 55.41 33.11 55.39 31.08 55.35 C 31.01 53.93 30.93 52.52 30.87 51.11 C 30.35 51.13 29.33 51.18 28.81 51.20 M 33.28 51.36 C 32.71 52.99 33.24 53.57 34.87 53.10 C 35.44 51.47 34.91 50.89 33.28 51.36 M 41.54 51.36 C 41.59 54.86 41.59 58.36 41.60 61.87 C 45.16 61.87 48.72 61.87 52.27 61.87 C 52.27 58.31 52.28 54.76 52.28 51.20 C 51.76 51.18 50.70 51.14 50.17 51.12 C 50.13 52.53 50.08 53.94 50.03 55.35 C 47.97 55.38 45.91 55.40 43.86 55.41 C 43.79 53.96 43.72 52.52 43.66 51.07 C 43.13 51.14 42.07 51.28 41.54 51.36 M 46.15 51.39 C 45.65 53.05 46.21 53.61 47.80 53.06 C 48.30 51.39 47.75 50.84 46.15 51.39 Z" />
<path fill="#000000" opacity="1.00" d=" M 25.69 15.02 C 29.90 14.90 34.11 14.90 38.31 15.03 C 38.34 17.11 38.35 19.19 38.36 21.27 C 34.12 21.44 29.88 21.43 25.64 21.27 C 25.65 19.19 25.67 17.10 25.69 15.02 M 27.72 17.06 C 27.72 17.59 27.72 18.65 27.72 19.18 C 30.57 19.18 33.43 19.18 36.28 19.18 C 36.28 18.65 36.28 17.59 36.28 17.06 C 33.43 17.06 30.57 17.06 27.72 17.06 Z" />
</g>
<g id="#4398d1ff">
<path fill="#4398d1" opacity="1.00" d=" M 2.08 18.84 C 11.99 13.22 22.03 7.82 32.00 2.28 C 41.97 8.16 51.99 13.94 61.92 19.89 C 61.77 33.88 61.82 47.87 61.83 61.85 C 61.04 61.84 59.46 61.82 58.67 61.81 C 58.61 49.06 58.84 36.30 58.53 23.55 C 40.85 23.40 23.17 23.44 5.49 23.53 C 5.15 36.28 5.43 49.05 5.33 61.81 C 4.54 61.82 2.96 61.84 2.17 61.85 C 2.08 47.52 2.18 33.18 2.08 18.84 M 25.69 15.02 C 25.67 17.10 25.65 19.19 25.64 21.27 C 29.88 21.43 34.12 21.44 38.36 21.27 C 38.35 19.19 38.34 17.11 38.31 15.03 C 34.11 14.90 29.90 14.90 25.69 15.02 Z" />
</g>
<g id="#e4e4e4ff">
<path fill="#e4e4e4" opacity="1.00" d=" M 27.72 17.06 C 30.57 17.06 33.43 17.06 36.28 17.06 C 36.28 17.59 36.28 18.65 36.28 19.18 C 33.43 19.18 30.57 19.18 27.72 19.18 C 27.72 18.65 27.72 17.59 27.72 17.06 Z" />
<path fill="#e4e4e4" opacity="1.00" d=" M 7.46 25.60 C 23.80 25.58 40.14 25.61 56.48 25.59 L 56.59 27.68 C 40.22 27.74 23.85 27.67 7.49 27.71 C 7.48 27.18 7.46 26.13 7.46 25.60 Z" />
<path fill="#e4e4e4" opacity="1.00" d=" M 7.27 31.90 C 7.35 31.40 7.52 30.38 7.61 29.88 C 23.87 29.89 40.12 29.89 56.38 29.88 C 56.48 30.38 56.67 31.37 56.77 31.87 C 40.28 32.10 23.77 32.05 7.27 31.90 Z" />
</g>
<g id="#505050ff">
<path fill="#505050" opacity="1.00" d=" M 7.46 34.16 C 23.81 34.10 40.15 34.18 56.49 34.12 C 56.55 43.11 56.54 52.10 56.50 61.09 C 55.97 61.04 54.91 60.93 54.38 60.88 C 54.33 52.67 54.66 44.45 54.19 36.25 C 49.29 36.21 44.39 36.14 39.49 36.44 C 39.46 40.64 39.46 44.84 39.45 49.04 C 35.23 49.03 31.01 49.05 26.80 49.11 C 26.64 53.06 26.59 57.01 26.68 60.97 C 20.27 61.02 13.86 61.03 7.45 60.96 C 7.49 52.02 7.48 43.09 7.46 34.16 Z" />
</g>
<g id="#fea930ff">
<path fill="#fea930" opacity="1.00" d=" M 45.97 38.45 C 47.24 37.12 49.32 39.33 47.90 40.51 C 46.63 41.83 44.55 39.64 45.97 38.45 Z" />
<path fill="#fea930" opacity="1.00" d=" M 50.20 38.30 C 50.72 38.34 51.77 38.42 52.29 38.46 C 52.28 42.00 52.27 45.53 52.27 49.06 C 48.71 49.06 45.16 49.06 41.60 49.06 C 41.59 45.54 41.59 42.02 41.58 38.50 L 43.45 38.23 C 43.65 39.69 43.82 41.15 44.19 42.58 C 46.14 42.71 48.08 42.59 50.03 42.49 C 50.08 41.10 50.14 39.70 50.20 38.30 Z" />
<path fill="#fea930" opacity="1.00" d=" M 28.81 51.20 C 29.33 51.18 30.35 51.13 30.87 51.11 C 30.93 52.52 31.01 53.93 31.08 55.35 C 33.11 55.39 35.14 55.41 37.18 55.43 C 37.25 54.02 37.32 52.61 37.39 51.20 C 37.90 51.18 38.94 51.15 39.46 51.13 C 39.47 54.71 39.46 58.29 39.46 61.87 C 35.91 61.87 32.36 61.87 28.82 61.87 C 28.81 58.31 28.81 54.76 28.81 51.20 Z" />
<path fill="#fea930" opacity="1.00" d=" M 41.54 51.36 C 42.07 51.28 43.13 51.14 43.66 51.07 C 43.72 52.52 43.79 53.96 43.86 55.41 C 45.91 55.40 47.97 55.38 50.03 55.35 C 50.08 53.94 50.13 52.53 50.17 51.12 C 50.70 51.14 51.76 51.18 52.28 51.20 C 52.28 54.76 52.27 58.31 52.27 61.87 C 48.72 61.87 45.16 61.87 41.60 61.87 C 41.59 58.36 41.59 54.86 41.54 51.36 Z" />
</g>
<g id="#d78828ff">
<path fill="#d78828" opacity="1.00" d=" M 33.28 51.36 C 34.91 50.89 35.44 51.47 34.87 53.10 C 33.24 53.57 32.71 52.99 33.28 51.36 Z" />
<path fill="#d78828" opacity="1.00" d=" M 46.15 51.39 C 47.75 50.84 48.30 51.39 47.80 53.06 C 46.21 53.61 45.65 53.05 46.15 51.39 Z" />
</g>
</svg>
