<?xml version="1.0" encoding="UTF-8" ?>
<!DOCTYPE svg PUBLIC "-//W3C//DTD SVG 1.1//EN" "http://www.w3.org/Graphics/SVG/1.1/DTD/svg11.dtd">
<svg width="64pt" height="64pt" viewBox="0 0 64 64" version="1.1" xmlns="http://www.w3.org/2000/svg">
<g id="#010200ff">
<path fill="#010200" opacity="1.00" d=" M 29.39 5.43 C 31.68 3.79 34.98 4.35 37.02 6.15 C 40.46 8.80 44.21 11.04 47.59 13.76 C 49.56 15.65 51.87 17.13 54.31 18.35 C 60.84 21.23 60.66 32.86 53.26 34.42 C 53.28 40.95 53.34 47.47 53.28 53.99 C 53.42 56.81 50.80 59.36 48.00 59.26 C 37.67 59.33 27.33 59.30 17.01 59.28 C 14.05 59.54 11.05 57.10 11.29 54.03 C 11.19 47.46 11.32 40.90 11.24 34.33 C 4.08 33.82 2.92 22.97 8.57 19.71 C 15.57 15.05 22.37 10.08 29.39 5.43 M 31.28 7.15 C 23.75 11.85 16.69 17.28 9.27 22.17 C 6.94 23.54 7.42 26.74 7.66 29.01 C 8.07 31.92 11.44 31.68 13.60 31.82 C 13.61 34.50 13.62 37.18 13.61 39.86 C 13.67 44.88 13.42 49.90 13.74 54.90 C 13.97 56.99 16.43 56.87 17.96 56.93 C 27.93 56.86 37.91 57.05 47.87 56.84 C 49.92 57.05 51.28 54.90 51.06 53.05 C 51.08 46.00 51.04 38.95 51.06 31.90 C 53.06 31.53 56.09 31.65 56.34 28.95 C 56.57 26.42 57.08 23.13 54.61 21.49 C 48.27 17.15 42.07 12.59 35.77 8.19 C 34.42 7.46 32.82 5.96 31.28 7.15 Z" />
<path fill="#010200" opacity="1.00" d=" M 34.88 27.84 C 36.78 25.41 38.19 22.33 41.03 20.84 C 42.32 20.27 44.61 20.20 44.87 22.04 C 45.52 26.14 41.59 28.82 39.36 31.70 C 40.15 33.22 40.94 34.74 41.72 36.27 C 42.94 38.70 44.29 41.08 45.75 43.38 C 44.62 44.85 43.47 46.31 42.32 47.76 C 39.75 44.25 37.05 40.84 34.39 37.40 C 32.45 39.54 30.49 41.67 28.51 43.76 C 29.95 45.96 29.80 48.28 27.92 50.13 C 25.42 47.27 22.47 44.86 19.13 43.03 C 19.79 42.09 20.45 41.15 21.11 40.21 C 22.36 40.50 23.60 40.80 24.85 41.09 C 26.03 39.48 27.21 37.86 28.38 36.24 C 28.91 35.49 29.44 34.74 29.96 34.00 C 26.05 32.06 22.17 30.08 18.26 28.14 C 19.35 26.80 20.43 25.45 21.51 24.11 C 25.95 25.40 30.40 26.67 34.88 27.84 Z" />
</g>
<g id="#f6d658ff">
<path fill="#f6d658" opacity="1.00" d=" M 31.28 7.15 C 32.82 5.96 34.42 7.46 35.77 8.19 C 42.07 12.59 48.27 17.15 54.61 21.49 C 57.08 23.13 56.57 26.42 56.34 28.95 C 56.09 31.65 53.06 31.53 51.06 31.90 C 50.43 32.00 49.19 32.20 48.56 32.30 C 48.15 33.37 47.74 34.44 47.33 35.51 C 45.46 35.76 43.59 36.01 41.72 36.27 C 40.94 34.74 40.15 33.22 39.36 31.70 C 41.59 28.82 45.52 26.14 44.87 22.04 C 44.61 20.20 42.32 20.27 41.03 20.84 C 38.19 22.33 36.78 25.41 34.88 27.84 C 30.40 26.67 25.95 25.40 21.51 24.11 C 20.43 25.45 19.35 26.80 18.26 28.14 C 22.17 30.08 26.05 32.06 29.96 34.00 C 29.44 34.74 28.91 35.49 28.38 36.24 C 27.60 36.15 26.03 35.97 25.25 35.88 C 22.64 39.78 17.77 39.63 13.61 39.86 C 13.62 37.18 13.61 34.50 13.60 31.82 C 11.44 31.68 8.07 31.92 7.66 29.01 C 7.42 26.74 6.94 23.54 9.27 22.17 C 16.69 17.28 23.75 11.85 31.28 7.15 Z" />
</g>
<g id="#0a0a07a7">
<path fill="#0a0a07" opacity="0.65" d=" M 47.59 13.76 C 50.06 14.93 52.32 16.49 54.31 18.35 C 51.87 17.13 49.56 15.65 47.59 13.76 Z" />
</g>
<g id="#eeb747ff">
<path fill="#eeb747" opacity="1.00" d=" M 48.56 32.30 C 49.19 32.20 50.43 32.00 51.06 31.90 C 51.04 38.95 51.08 46.00 51.06 53.05 C 51.28 54.90 49.92 57.05 47.87 56.84 C 37.91 57.05 27.93 56.86 17.96 56.93 C 16.43 56.87 13.97 56.99 13.74 54.90 C 13.42 49.90 13.67 44.88 13.61 39.86 C 17.77 39.63 22.64 39.78 25.25 35.88 C 26.03 35.97 27.60 36.15 28.38 36.24 C 27.21 37.86 26.03 39.48 24.85 41.09 C 23.60 40.80 22.36 40.50 21.11 40.21 C 20.45 41.15 19.79 42.09 19.13 43.03 C 22.47 44.86 25.42 47.27 27.92 50.13 C 29.80 48.28 29.95 45.96 28.51 43.76 C 30.49 41.67 32.45 39.54 34.39 37.40 C 37.05 40.84 39.75 44.25 42.32 47.76 C 43.47 46.31 44.62 44.85 45.75 43.38 C 44.29 41.08 42.94 38.70 41.72 36.27 C 43.59 36.01 45.46 35.76 47.33 35.51 C 47.74 34.44 48.15 33.37 48.56 32.30 Z" />
</g>
</svg>
