<?xml version="1.0" encoding="UTF-8" ?>
<!DOCTYPE svg PUBLIC "-//W3C//DTD SVG 1.1//EN" "http://www.w3.org/Graphics/SVG/1.1/DTD/svg11.dtd">
<svg width="64pt" height="64pt" viewBox="0 0 64 64" version="1.1" xmlns="http://www.w3.org/2000/svg">
<g id="#040406ff">
<path fill="#040406" opacity="1.00" d=" M 18.41 15.52 C 20.83 14.29 24.25 13.59 26.43 15.64 C 27.04 16.93 27.19 18.38 27.50 19.76 C 30.69 20.34 33.95 20.31 37.10 19.53 C 35.99 14.55 43.36 12.43 45.76 16.29 C 47.80 23.36 43.69 30.39 44.91 37.54 C 46.88 37.90 49.46 37.91 50.22 40.22 C 50.69 43.34 51.51 48.22 47.59 49.39 C 44.69 49.53 40.65 50.68 38.91 47.57 C 34.16 47.42 29.40 47.57 24.65 47.44 C 24.33 47.93 23.68 48.90 23.35 49.39 C 20.14 49.41 15.71 50.72 13.79 47.24 C 13.21 44.99 13.66 42.58 13.52 40.27 C 14.79 38.29 17.00 37.86 19.20 37.75 C 20.46 30.23 15.86 22.97 18.41 15.52 M 21.24 16.67 C 18.05 21.17 21.36 26.69 21.78 31.55 C 21.57 35.26 21.43 38.97 21.37 42.68 C 22.99 43.63 24.59 44.61 26.19 45.59 C 31.23 42.68 31.04 36.35 29.53 31.46 L 28.75 31.90 C 27.86 28.41 24.69 25.72 24.94 21.94 C 24.90 20.21 24.62 18.51 24.25 16.83 C 23.49 16.79 21.99 16.71 21.24 16.67 M 39.50 17.93 C 39.88 21.48 39.62 25.12 37.48 28.12 L 37.04 28.08 C 34.56 31.71 32.90 35.81 33.59 40.30 C 34.81 41.86 36.07 43.39 37.27 44.96 C 39.18 44.81 40.97 44.15 42.63 43.23 C 42.90 38.34 41.86 33.40 42.92 28.57 C 43.88 25.19 44.16 21.68 44.03 18.18 C 43.55 17.71 42.59 16.78 42.12 16.31 C 41.46 16.72 40.15 17.53 39.50 17.93 M 28.18 22.49 C 29.31 24.73 30.73 26.80 32.03 28.94 C 33.55 26.80 35.13 24.69 36.20 22.28 C 33.53 22.53 30.85 22.57 28.18 22.49 M 15.76 40.84 C 15.70 43.03 15.64 45.25 16.45 47.32 C 18.28 47.28 20.12 47.29 21.95 47.33 C 19.77 45.51 18.53 42.97 18.40 40.13 C 17.53 40.40 16.65 40.64 15.76 40.84 M 44.99 39.91 C 44.97 41.30 44.95 42.68 44.92 44.06 C 43.86 45.12 42.79 46.17 41.73 47.23 C 43.69 47.25 45.65 47.28 47.62 47.33 C 48.39 45.02 48.37 42.59 47.94 40.22 C 47.20 40.14 45.72 39.99 44.99 39.91 Z" />
</g>
<g id="#446fdeff">
<path fill="#446fde" opacity="1.00" d=" M 21.24 16.67 C 21.99 16.71 23.49 16.79 24.25 16.83 C 24.62 18.51 24.90 20.21 24.94 21.94 C 24.69 25.72 27.86 28.41 28.75 31.90 C 27.86 32.41 26.98 32.92 26.10 33.43 C 24.66 32.80 23.21 32.18 21.78 31.55 C 21.36 26.69 18.05 21.17 21.24 16.67 Z" />
<path fill="#446fde" opacity="1.00" d=" M 39.50 17.93 C 40.15 17.53 41.46 16.72 42.12 16.31 C 42.59 16.78 43.55 17.71 44.03 18.18 C 44.16 21.68 43.88 25.19 42.92 28.57 C 41.11 28.42 39.29 28.27 37.48 28.12 C 39.62 25.12 39.88 21.48 39.50 17.93 Z" />
</g>
<g id="#c0b8b5ff">
<path fill="#c0b8b5" opacity="1.00" d=" M 28.18 22.49 C 30.85 22.57 33.53 22.53 36.20 22.28 C 35.13 24.69 33.55 26.80 32.03 28.94 C 30.73 26.80 29.31 24.73 28.18 22.49 Z" />
</g>
<g id="#2d58b0ff">
<path fill="#2d58b0" opacity="1.00" d=" M 37.04 28.08 L 37.48 28.12 C 39.29 28.27 41.11 28.42 42.92 28.57 C 41.86 33.40 42.90 38.34 42.63 43.23 C 40.97 44.15 39.18 44.81 37.27 44.96 C 36.07 43.39 34.81 41.86 33.59 40.30 C 32.90 35.81 34.56 31.71 37.04 28.08 Z" />
<path fill="#2d58b0" opacity="1.00" d=" M 21.78 31.55 C 23.21 32.18 24.66 32.80 26.10 33.43 C 26.98 32.92 27.86 32.41 28.75 31.90 L 29.53 31.46 C 31.04 36.35 31.23 42.68 26.19 45.59 C 24.59 44.61 22.99 43.63 21.37 42.68 C 21.43 38.97 21.57 35.26 21.78 31.55 Z" />
</g>
<g id="#c3c9c3ff">
<path fill="#c3c9c3" opacity="1.00" d=" M 15.76 40.84 C 16.65 40.64 17.53 40.40 18.40 40.13 C 18.53 42.97 19.77 45.51 21.95 47.33 C 20.12 47.29 18.28 47.28 16.45 47.32 C 15.64 45.25 15.70 43.03 15.76 40.84 Z" />
<path fill="#c3c9c3" opacity="1.00" d=" M 44.99 39.91 C 45.72 39.99 47.20 40.14 47.94 40.22 C 48.37 42.59 48.39 45.02 47.62 47.33 C 45.65 47.28 43.69 47.25 41.73 47.23 C 42.79 46.17 43.86 45.12 44.92 44.06 C 44.95 42.68 44.97 41.30 44.99 39.91 Z" />
</g>
</svg>
