<?xml version="1.0" encoding="UTF-8" ?>
<!DOCTYPE svg PUBLIC "-//W3C//DTD SVG 1.1//EN" "http://www.w3.org/Graphics/SVG/1.1/DTD/svg11.dtd">
<svg width="64pt" height="64pt" viewBox="0 0 64 64" version="1.1" xmlns="http://www.w3.org/2000/svg">
<g id="#0b0608fe">
<path fill="#0b0608" opacity="1.00" d=" M 16.10 8.41 C 22.07 4.98 29.05 2.77 35.97 4.00 C 40.22 4.52 44.17 6.30 47.85 8.42 C 49.36 7.57 50.72 5.68 52.67 6.26 C 54.60 7.65 56.13 9.52 57.74 11.25 C 57.69 11.79 57.57 12.88 57.51 13.42 C 56.73 14.17 55.99 14.95 55.27 15.75 C 61.47 25.22 61.56 38.03 55.48 47.57 C 56.18 48.72 56.83 49.89 57.42 51.09 C 56.08 53.38 54.16 55.33 51.99 56.82 C 50.39 57.26 49.17 55.91 47.90 55.22 C 38.28 61.33 25.45 61.30 15.90 55.04 C 14.93 55.98 13.94 56.90 12.95 57.82 C 10.19 56.55 7.81 54.50 6.26 51.89 C 6.05 50.11 7.72 49.02 8.59 47.70 C 2.51 38.17 2.43 25.38 8.64 15.90 C 7.48 14.44 6.44 12.88 5.62 11.21 C 7.65 9.25 9.47 6.98 11.95 5.54 C 13.50 6.24 14.77 7.39 16.10 8.41 M 15.85 11.66 C 14.63 10.44 13.41 9.22 12.19 8.00 C 10.89 9.30 9.60 10.59 8.30 11.89 C 9.47 13.11 10.70 14.28 11.71 15.63 C 6.72 22.58 5.09 31.52 7.42 39.79 L 7.64 39.76 C 8.48 42.76 10.06 45.46 11.88 47.98 C 10.86 49.01 9.84 50.04 8.83 51.08 C 9.88 52.40 10.93 53.72 11.97 55.05 C 13.30 54.04 14.62 53.01 15.95 52.00 C 18.45 53.74 21.07 55.38 24.03 56.22 C 32.15 59.19 41.38 56.74 48.25 51.88 C 49.08 52.85 49.93 53.80 50.75 54.77 C 52.06 53.37 53.42 52.01 54.83 50.71 C 53.93 49.81 53.02 48.91 52.12 48.01 C 54.19 45.66 55.66 42.86 56.31 39.78 L 56.56 39.84 C 58.81 31.57 57.54 22.35 52.09 15.57 C 53.22 14.47 54.36 13.36 55.49 12.25 C 54.23 10.97 52.95 9.69 51.68 8.40 C 50.49 9.47 49.28 10.53 48.10 11.61 C 38.92 4.24 24.97 4.09 15.85 11.66 Z" />
<path fill="#0b0608" opacity="1.00" d=" M 28.85 29.75 C 29.86 29.68 30.87 29.64 31.88 29.62 C 31.64 30.52 31.37 31.40 31.08 32.28 C 30.16 32.32 29.26 32.43 28.37 32.62 C 28.60 31.68 28.76 30.72 28.85 29.75 Z" />
</g>
<g id="#c32b33ff">
<path fill="#c32b33" opacity="1.00" d=" M 15.85 11.66 C 24.97 4.09 38.92 4.24 48.10 11.61 C 49.28 10.53 50.49 9.47 51.68 8.40 C 52.95 9.69 54.23 10.97 55.49 12.25 C 54.36 13.36 53.22 14.47 52.09 15.57 C 57.54 22.35 58.81 31.57 56.56 39.84 L 56.31 39.78 C 54.65 39.43 52.99 39.09 51.33 38.73 C 53.77 32.37 52.04 25.46 48.98 19.66 C 48.23 19.71 46.73 19.81 45.98 19.86 C 45.05 18.18 44.21 16.45 43.34 14.73 C 36.21 10.12 26.97 10.70 19.83 14.97 C 20.10 15.75 20.65 17.30 20.92 18.08 C 19.06 19.15 17.00 19.76 14.89 20.07 C 11.70 25.79 10.41 32.67 12.66 38.97 C 10.99 39.23 9.31 39.49 7.64 39.76 L 7.42 39.79 C 5.09 31.52 6.72 22.58 11.71 15.63 C 10.70 14.28 9.47 13.11 8.30 11.89 C 9.60 10.59 10.89 9.30 12.19 8.00 C 13.41 9.22 14.63 10.44 15.85 11.66 Z" />
</g>
<g id="#000000ff">
<path fill="#000000" opacity="1.00" d=" M 19.83 14.97 C 26.97 10.70 36.21 10.12 43.34 14.73 C 44.21 16.45 45.05 18.18 45.98 19.86 C 46.73 19.81 48.23 19.71 48.98 19.66 C 52.04 25.46 53.77 32.37 51.33 38.73 C 50.53 40.41 49.64 42.03 48.77 43.67 C 48.13 43.62 46.84 43.52 46.20 43.47 C 45.36 44.36 44.52 45.25 43.68 46.14 C 43.70 46.80 43.75 48.14 43.77 48.81 C 40.05 50.52 36.19 52.33 32.00 52.26 C 27.78 52.32 23.88 50.51 20.14 48.78 C 20.26 47.98 20.50 46.38 20.62 45.58 C 18.82 44.80 17.01 44.04 15.19 43.32 C 14.32 41.88 13.44 40.45 12.66 38.97 C 10.41 32.67 11.70 25.79 14.89 20.07 C 17.00 19.76 19.06 19.15 20.92 18.08 C 20.65 17.30 20.10 15.75 19.83 14.97 M 44.20 21.57 C 44.29 21.85 44.47 22.42 44.55 22.70 C 36.13 22.65 27.71 22.72 19.29 22.67 C 19.28 24.03 19.32 25.39 19.43 26.74 L 18.31 26.41 C 18.32 27.54 18.33 28.66 18.34 29.79 C 18.62 29.93 19.18 30.20 19.46 30.33 C 18.29 33.94 17.21 37.59 16.44 41.31 C 19.63 41.36 22.82 41.31 26.01 41.30 C 26.49 39.20 27.16 37.14 27.70 35.06 C 29.38 35.06 31.06 35.05 32.74 35.04 C 33.48 33.27 34.00 31.42 34.78 29.67 C 38.01 29.68 41.24 29.69 44.48 29.68 C 44.50 29.19 44.55 28.20 44.58 27.71 C 45.41 27.73 47.07 27.76 47.90 27.77 C 47.92 26.04 47.94 24.31 47.98 22.58 C 47.58 22.64 46.78 22.76 46.38 22.82 L 46.92 21.63 L 44.20 21.57 Z" />
</g>
<g id="#fefdfdff">
<path fill="#fefdfd" opacity="1.00" d=" M 44.20 21.57 L 46.92 21.63 L 46.38 22.82 C 46.78 22.76 47.58 22.64 47.98 22.58 C 47.94 24.31 47.92 26.04 47.90 27.77 C 47.07 27.76 45.41 27.73 44.58 27.71 C 44.55 28.20 44.50 29.19 44.48 29.68 C 41.24 29.69 38.01 29.68 34.78 29.67 C 34.00 31.42 33.48 33.27 32.74 35.04 C 31.06 35.05 29.38 35.06 27.70 35.06 C 27.16 37.14 26.49 39.20 26.01 41.30 C 22.82 41.31 19.63 41.36 16.44 41.31 C 17.21 37.59 18.29 33.94 19.46 30.33 C 19.18 30.20 18.62 29.93 18.34 29.79 C 18.33 28.66 18.32 27.54 18.31 26.41 L 19.43 26.74 C 19.32 25.39 19.28 24.03 19.29 22.67 C 27.71 22.72 36.13 22.65 44.55 22.70 C 44.47 22.42 44.29 21.85 44.20 21.57 M 28.85 29.75 C 28.76 30.72 28.60 31.68 28.37 32.62 C 29.26 32.43 30.16 32.32 31.08 32.28 C 31.37 31.40 31.64 30.52 31.88 29.62 C 30.87 29.64 29.86 29.68 28.85 29.75 Z" />
</g>
<g id="#922741ff">
<path fill="#922741" opacity="1.00" d=" M 12.66 38.97 C 13.44 40.45 14.32 41.88 15.19 43.32 C 17.01 44.04 18.82 44.80 20.62 45.58 C 20.50 46.38 20.26 47.98 20.14 48.78 C 23.88 50.51 27.78 52.32 32.00 52.26 C 36.19 52.33 40.05 50.52 43.77 48.81 C 43.75 48.14 43.70 46.80 43.68 46.14 C 44.52 45.25 45.36 44.36 46.20 43.47 C 46.84 43.52 48.13 43.62 48.77 43.67 C 49.64 42.03 50.53 40.41 51.33 38.73 C 52.99 39.09 54.65 39.43 56.31 39.78 C 55.66 42.86 54.19 45.66 52.12 48.01 C 53.02 48.91 53.93 49.81 54.83 50.71 C 53.42 52.01 52.06 53.37 50.75 54.77 C 49.93 53.80 49.08 52.85 48.25 51.88 C 41.38 56.74 32.15 59.19 24.03 56.22 C 21.07 55.38 18.45 53.74 15.95 52.00 C 14.62 53.01 13.30 54.04 11.97 55.05 C 10.93 53.72 9.88 52.40 8.83 51.08 C 9.84 50.04 10.86 49.01 11.88 47.98 C 10.06 45.46 8.48 42.76 7.64 39.76 C 9.31 39.49 10.99 39.23 12.66 38.97 Z" />
</g>
</svg>
