<?xml version="1.0" encoding="UTF-8" ?>
<!DOCTYPE svg PUBLIC "-//W3C//DTD SVG 1.1//EN" "http://www.w3.org/Graphics/SVG/1.1/DTD/svg11.dtd">
<svg width="64pt" height="64pt" viewBox="0 0 64 64" version="1.1" xmlns="http://www.w3.org/2000/svg">
<g id="#050505ce">
<path fill="#050505" opacity="0.81" d=" M 5.16 7.21 C 6.02 3.78 10.13 3.68 12.99 3.75 C 18.67 4.02 24.56 2.98 30.05 4.92 C 32.02 11.85 33.54 18.89 35.44 25.83 C 37.55 25.81 39.66 25.79 41.77 25.77 C 41.82 21.83 41.47 17.87 41.96 13.95 C 42.83 10.85 46.18 9.76 48.92 8.89 C 49.29 9.39 50.03 10.39 50.40 10.89 C 46.27 14.81 47.37 20.68 47.35 25.78 C 52.42 26.33 58.27 24.28 62.67 27.55 C 60.49 32.15 59.40 37.24 56.62 41.56 C 59.78 45.25 60.46 51.18 56.95 54.87 C 53.37 59.45 45.67 59.48 42.08 54.90 C 38.67 51.44 39.36 46.04 41.62 42.16 C 40.19 42.18 38.75 42.20 37.31 42.22 C 37.25 43.56 37.18 44.91 37.12 46.25 C 35.41 46.23 33.70 46.22 31.99 46.20 C 31.54 43.45 31.10 40.68 30.19 38.03 C 28.94 34.50 26.39 31.55 23.13 29.73 C 18.45 27.29 12.55 27.20 7.90 29.75 C 6.48 30.67 5.14 31.71 3.80 32.73 C 2.67 31.66 0.20 31.03 0.64 29.04 C 0.43 26.60 3.20 25.86 4.73 24.59 C 5.08 18.81 4.26 12.95 5.16 7.21 M 7.25 6.25 C 5.07 12.34 6.86 18.99 6.16 25.31 C 4.84 27.28 0.77 27.87 2.88 30.90 C 5.03 29.29 7.43 28.06 9.86 26.93 C 13.64 26.16 17.36 26.15 21.14 26.93 C 24.60 28.43 28.12 30.33 30.02 33.74 C 31.71 36.21 32.08 39.21 33.07 41.96 C 33.12 42.67 33.20 44.09 33.24 44.79 C 33.84 44.80 35.04 44.80 35.64 44.80 C 35.82 43.42 36.06 42.04 36.36 40.68 C 38.76 40.76 41.16 40.78 43.56 40.81 C 43.32 43.72 40.83 45.99 41.18 48.97 C 41.07 51.79 43.47 53.67 45.16 55.59 C 47.82 57.18 51.17 57.26 53.80 55.56 C 54.70 54.61 55.62 53.69 56.56 52.80 C 58.48 49.83 58.24 45.83 55.67 43.32 C 53.41 41.28 56.34 39.19 57.22 37.32 C 58.29 34.19 59.37 31.07 60.60 28.01 C 56.24 26.25 51.05 27.59 46.36 27.30 C 45.46 21.80 44.92 15.65 47.82 10.62 C 46.12 11.65 44.65 13.00 43.22 14.37 C 42.98 18.67 43.75 23.08 42.64 27.30 C 39.93 27.19 37.21 27.19 34.49 27.29 C 33.98 25.90 33.53 24.49 33.02 23.11 C 32.76 21.76 32.47 20.42 32.12 19.09 C 31.79 17.75 31.47 16.42 31.10 15.09 C 30.79 13.76 30.47 12.42 30.12 11.10 C 29.76 9.45 29.30 7.83 28.75 6.24 C 25.36 4.69 21.57 5.37 17.97 5.24 C 14.39 5.36 10.63 4.71 7.25 6.25 Z" />
<path fill="#050505" opacity="0.81" d=" M 9.70 9.36 C 14.88 8.13 20.26 9.19 25.52 8.69 C 26.89 10.13 27.39 12.06 27.96 13.90 C 28.22 15.27 28.53 16.63 29.00 17.94 C 29.10 18.87 29.30 20.73 29.40 21.66 C 23.17 22.97 16.70 21.81 10.37 22.32 C 9.20 18.10 10.10 13.67 9.70 9.36 M 11.23 10.23 C 11.22 13.75 11.21 17.26 11.22 20.78 C 16.80 20.80 22.38 20.81 27.96 20.77 C 26.87 17.34 26.87 13.35 24.70 10.39 C 20.23 9.96 15.72 10.32 11.23 10.23 Z" />
<path fill="#050505" opacity="0.81" d=" M 7.90 29.75 C 12.96 28.78 18.10 28.28 23.13 29.73 C 25.45 32.52 27.80 35.30 30.19 38.03 C 30.96 43.41 30.38 49.45 26.70 53.71 C 24.30 56.62 20.44 57.41 17.17 58.94 C 14.42 58.40 11.62 58.06 8.98 57.11 C 6.65 56.21 5.09 54.16 3.27 52.55 C 1.98 50.24 0.64 47.82 0.95 45.04 C 0.71 44.74 0.24 44.14 0.00 43.84 L 0.00 43.24 C 1.12 40.83 1.50 38.12 2.90 35.83 C 4.29 33.59 6.20 31.75 7.90 29.75 M 12.06 31.01 C 11.40 31.09 10.08 31.27 9.42 31.35 C 8.20 32.60 6.86 33.73 5.38 34.65 C 5.00 36.67 3.54 38.20 2.88 40.11 C 1.87 42.43 2.24 45.02 2.29 47.48 C 3.30 48.58 4.33 49.77 4.33 51.36 C 5.79 52.06 6.94 53.13 7.51 54.67 C 11.02 56.38 15.10 57.70 18.93 56.15 C 23.58 55.48 27.47 51.57 28.15 46.93 C 29.01 44.55 28.85 42.00 28.70 39.53 C 27.85 38.47 27.07 37.37 26.38 36.21 C 23.24 31.77 17.45 28.41 12.06 31.01 Z" />
<path fill="#050505" opacity="0.81" d=" M 5.77 39.84 C 6.93 37.04 9.04 34.92 11.84 33.78 C 14.28 33.81 16.72 33.81 19.15 33.78 C 21.96 34.91 24.07 37.05 25.22 39.84 C 25.20 42.29 25.20 44.73 25.23 47.18 C 24.08 49.50 22.51 51.58 20.41 53.12 C 14.91 54.90 7.86 53.07 5.77 47.17 C 5.80 44.72 5.80 42.28 5.77 39.84 M 9.43 37.36 C 6.73 39.83 6.66 44.01 7.71 47.28 C 9.65 51.83 15.32 52.95 19.67 51.62 C 22.53 49.25 24.64 45.84 23.81 41.97 C 23.38 35.19 13.84 32.85 9.43 37.36 Z" />
<path fill="#050505" opacity="0.81" d=" M 10.66 41.67 C 12.20 39.45 14.52 38.34 17.24 38.53 C 18.26 39.59 19.29 40.64 20.31 41.70 C 20.32 42.61 20.34 44.43 20.35 45.34 C 18.84 47.63 16.47 48.72 13.72 48.52 C 12.71 47.46 11.69 46.40 10.68 45.34 C 10.67 44.42 10.66 42.59 10.66 41.67 M 14.50 40.34 C 12.43 41.20 11.16 44.19 13.28 45.74 C 14.58 47.52 17.22 46.91 18.25 45.17 C 20.14 42.92 17.06 39.33 14.50 40.34 Z" />
<path fill="#050505" opacity="0.81" d=" M 43.04 48.03 C 43.28 45.79 45.08 44.21 46.59 42.73 C 48.52 42.77 50.45 42.78 52.39 42.75 C 53.35 43.69 54.31 44.63 55.25 45.59 C 55.23 47.53 55.23 49.47 55.25 51.41 C 54.31 52.36 53.36 53.31 52.40 54.25 C 50.46 54.23 48.51 54.23 46.57 54.28 C 44.86 52.61 42.74 50.65 43.04 48.03 M 47.25 44.21 C 46.24 45.56 45.25 46.94 44.27 48.32 C 45.16 49.91 46.17 51.42 47.30 52.84 C 48.72 52.80 50.13 52.77 51.55 52.74 C 52.28 52.03 53.01 51.32 53.75 50.61 C 53.75 49.22 53.76 47.83 53.76 46.44 C 53.03 45.72 52.31 44.99 51.59 44.26 C 50.14 44.24 48.69 44.22 47.25 44.21 Z" />
</g>
<g id="#fafafaff">
<path fill="#fafafa" opacity="1.00" d=" M 7.25 6.25 C 10.63 4.71 14.39 5.36 17.97 5.24 C 21.57 5.37 25.36 4.69 28.75 6.24 C 29.30 7.83 29.76 9.45 30.12 11.10 C 30.47 12.42 30.79 13.76 31.10 15.09 C 31.47 16.42 31.79 17.75 32.12 19.09 C 32.47 20.42 32.76 21.76 33.02 23.11 C 33.53 24.49 33.98 25.90 34.49 27.29 C 37.21 27.19 39.93 27.19 42.64 27.30 C 43.75 23.08 42.98 18.67 43.22 14.37 C 44.65 13.00 46.12 11.65 47.82 10.62 C 44.92 15.65 45.46 21.80 46.36 27.30 C 51.05 27.59 56.24 26.25 60.60 28.01 C 59.37 31.07 58.29 34.19 57.22 37.32 C 56.34 39.19 53.41 41.28 55.67 43.32 C 58.24 45.83 58.48 49.83 56.56 52.80 C 55.62 53.69 54.70 54.61 53.80 55.56 C 51.17 57.26 47.82 57.18 45.16 55.59 C 43.47 53.67 41.07 51.79 41.18 48.97 C 40.83 45.99 43.32 43.72 43.56 40.81 C 41.16 40.78 38.76 40.76 36.36 40.68 C 36.06 42.04 35.82 43.42 35.64 44.80 C 35.04 44.80 33.84 44.80 33.24 44.79 C 33.20 44.09 33.12 42.67 33.07 41.96 C 32.08 39.21 31.71 36.21 30.02 33.74 C 28.12 30.33 24.60 28.43 21.14 26.93 C 17.36 26.15 13.64 26.16 9.86 26.93 C 7.43 28.06 5.03 29.29 2.88 30.90 C 0.77 27.87 4.84 27.28 6.16 25.31 C 6.86 18.99 5.07 12.34 7.25 6.25 M 9.70 9.36 C 10.10 13.67 9.20 18.10 10.37 22.32 C 16.70 21.81 23.17 22.97 29.40 21.66 C 29.30 20.73 29.10 18.87 29.00 17.94 C 28.53 16.63 28.22 15.27 27.96 13.90 C 27.39 12.06 26.89 10.13 25.52 8.69 C 20.26 9.19 14.88 8.13 9.70 9.36 M 43.04 48.03 C 42.74 50.65 44.86 52.61 46.57 54.28 C 48.51 54.23 50.46 54.23 52.40 54.25 C 53.36 53.31 54.31 52.36 55.25 51.41 C 55.23 49.47 55.23 47.53 55.25 45.59 C 54.31 44.63 53.35 43.69 52.39 42.75 C 50.45 42.78 48.52 42.77 46.59 42.73 C 45.08 44.21 43.28 45.79 43.04 48.03 Z" />
<path fill="#fafafa" opacity="1.00" d=" M 12.06 31.01 C 17.45 28.41 23.24 31.77 26.38 36.21 C 27.07 37.37 27.85 38.47 28.70 39.53 C 28.85 42.00 29.01 44.55 28.15 46.93 C 27.47 51.57 23.58 55.48 18.93 56.15 C 15.10 57.70 11.02 56.38 7.51 54.67 C 6.94 53.13 5.79 52.06 4.33 51.36 C 4.33 49.77 3.30 48.58 2.29 47.48 C 2.24 45.02 1.87 42.43 2.88 40.11 C 3.54 38.20 5.00 36.67 5.38 34.65 C 6.86 33.73 8.20 32.60 9.42 31.35 C 10.08 31.27 11.40 31.09 12.06 31.01 M 5.77 39.84 C 5.80 42.28 5.80 44.72 5.77 47.17 C 7.86 53.07 14.91 54.90 20.41 53.12 C 22.51 51.58 24.08 49.50 25.23 47.18 C 25.20 44.73 25.20 42.29 25.22 39.84 C 24.07 37.05 21.96 34.91 19.15 33.78 C 16.72 33.81 14.28 33.81 11.84 33.78 C 9.04 34.92 6.93 37.04 5.77 39.84 Z" />
<path fill="#fafafa" opacity="1.00" d=" M 14.50 40.34 C 17.06 39.33 20.14 42.92 18.25 45.17 C 17.22 46.91 14.58 47.52 13.28 45.74 C 11.16 44.19 12.43 41.20 14.50 40.34 Z" />
</g>
</svg>
