<?xml version="1.0" encoding="UTF-8" ?>
<!DOCTYPE svg PUBLIC "-//W3C//DTD SVG 1.1//EN" "http://www.w3.org/Graphics/SVG/1.1/DTD/svg11.dtd">
<svg width="64pt" height="64pt" viewBox="0 0 64 64" version="1.1" xmlns="http://www.w3.org/2000/svg">
<g id="#010001ff">
<path fill="#010001" opacity="1.00" d=" M 29.46 3.65 C 31.76 2.14 34.76 2.45 36.79 4.23 C 43.90 9.43 51.38 14.13 58.20 19.70 C 59.92 22.42 59.27 25.87 59.11 28.91 C 58.16 31.13 55.94 32.39 53.75 33.09 C 53.62 40.03 53.86 46.97 53.65 53.90 C 53.56 57.71 49.24 59.20 46.02 59.03 C 36.36 58.76 26.68 59.24 17.02 58.80 C 14.03 58.86 11.34 56.06 11.71 53.05 C 11.68 46.33 11.69 39.62 11.74 32.91 C 8.87 32.99 6.06 31.63 4.89 28.90 C 4.56 25.41 3.99 20.75 7.49 18.62 C 14.90 13.76 22.08 8.54 29.46 3.65 M 24.16 10.15 C 18.69 14.04 12.85 17.48 7.61 21.67 C 6.70 24.58 6.25 28.72 9.38 30.46 C 10.82 30.39 12.26 30.36 13.70 30.32 L 14.02 32.14 C 14.01 39.90 13.73 47.69 14.40 55.42 C 15.83 56.16 17.40 56.63 19.03 56.49 C 24.44 56.46 29.86 56.46 35.27 56.49 C 35.22 52.23 35.29 47.98 35.27 43.73 C 38.86 43.70 42.44 43.71 46.02 43.75 C 46.05 48.03 46.07 52.30 46.10 56.58 C 48.11 56.65 50.68 56.38 51.31 54.05 C 51.71 46.80 51.44 39.52 51.51 32.25 C 51.51 31.79 51.52 30.86 51.52 30.39 C 53.36 30.45 55.93 30.61 56.62 28.40 C 57.14 26.15 57.14 23.65 56.54 21.42 C 53.92 18.64 50.31 17.07 47.40 14.61 C 42.41 11.39 38.10 7.07 32.55 4.78 C 29.42 5.99 26.95 8.35 24.16 10.15 Z" />
<path fill="#010001" opacity="1.00" d=" M 19.73 25.69 C 23.35 25.65 26.98 25.62 30.59 25.82 C 30.58 26.11 30.57 26.70 30.56 26.99 C 30.32 30.15 30.30 33.32 30.41 36.49 C 26.86 36.48 23.30 36.46 19.75 36.44 C 19.78 32.86 19.79 29.27 19.73 25.69 Z" />
</g>
<g id="#ecedecff">
<path fill="#ecedec" opacity="1.00" d=" M 24.16 10.15 C 26.95 8.35 29.42 5.99 32.55 4.78 C 38.10 7.07 42.41 11.39 47.40 14.61 C 50.31 17.07 53.92 18.64 56.54 21.42 C 57.14 23.65 57.14 26.15 56.62 28.40 C 55.93 30.61 53.36 30.45 51.52 30.39 C 51.52 30.86 51.51 31.79 51.51 32.25 C 45.62 29.99 39.28 30.76 33.13 30.48 C 32.26 29.32 31.41 28.16 30.56 26.99 C 30.57 26.70 30.58 26.11 30.59 25.82 C 26.98 25.62 23.35 25.65 19.73 25.69 C 19.24 27.96 18.75 30.24 18.26 32.52 C 16.84 32.41 15.43 32.29 14.02 32.14 L 13.70 30.32 C 12.26 30.36 10.82 30.39 9.38 30.46 C 6.25 28.72 6.70 24.58 7.61 21.67 C 12.85 17.48 18.69 14.04 24.16 10.15 Z" />
</g>
<g id="#cfd0cfff">
<path fill="#cfd0cf" opacity="1.00" d=" M 18.26 32.52 C 18.75 30.24 19.24 27.96 19.73 25.69 C 19.79 29.27 19.78 32.86 19.75 36.44 C 23.30 36.46 26.86 36.48 30.41 36.49 C 30.30 33.32 30.32 30.15 30.56 26.99 C 31.41 28.16 32.26 29.32 33.13 30.48 C 39.28 30.76 45.62 29.99 51.51 32.25 C 51.44 39.52 51.71 46.80 51.31 54.05 C 50.68 56.38 48.11 56.65 46.10 56.58 C 46.07 52.30 46.05 48.03 46.02 43.75 C 42.44 43.71 38.86 43.70 35.27 43.73 C 35.29 47.98 35.22 52.23 35.27 56.49 C 29.86 56.46 24.44 56.46 19.03 56.49 C 17.40 56.63 15.83 56.16 14.40 55.42 C 13.73 47.69 14.01 39.90 14.02 32.14 C 15.43 32.29 16.84 32.41 18.26 32.52 Z" />
</g>
</svg>
