<?xml version="1.0" encoding="UTF-8" ?>
<!DOCTYPE svg PUBLIC "-//W3C//DTD SVG 1.1//EN" "http://www.w3.org/Graphics/SVG/1.1/DTD/svg11.dtd">
<svg width="64pt" height="64pt" viewBox="0 0 64 64" version="1.1" xmlns="http://www.w3.org/2000/svg">
<g id="#0a090afe">
<path fill="#0a090a" opacity="1.00" d=" M 15.82 12.86 C 16.30 11.18 18.17 11.05 19.59 11.42 C 22.33 12.23 24.65 13.97 27.28 15.04 C 30.18 15.51 33.16 15.38 36.08 15.17 C 39.88 14.30 43.10 10.33 47.28 11.54 C 50.13 14.95 46.87 19.98 49.34 23.54 C 51.16 26.39 53.36 29.17 53.53 32.70 C 51.40 33.83 48.98 34.54 47.14 36.15 C 45.26 38.53 44.56 41.55 43.39 44.29 C 42.77 44.47 41.51 44.84 40.88 45.02 C 39.46 48.77 36.47 52.86 32.02 52.74 C 27.58 52.92 24.53 48.79 23.12 45.02 C 22.49 44.84 21.24 44.47 20.61 44.29 C 19.43 41.53 18.73 38.48 16.81 36.10 C 14.79 34.55 12.32 33.72 10.18 32.36 C 10.94 28.60 13.46 25.69 15.28 22.44 C 16.15 19.34 15.00 16.00 15.82 12.86 M 17.68 13.65 C 17.61 16.63 17.93 19.59 18.05 22.56 C 16.22 25.44 14.23 28.24 12.91 31.40 C 14.89 32.23 17.01 32.98 18.63 34.47 C 20.67 36.77 21.39 39.82 22.06 42.74 C 22.78 41.62 23.53 40.52 24.30 39.43 C 25.63 42.53 25.53 46.37 28.10 48.84 C 30.39 51.40 35.00 50.83 36.72 47.87 C 38.87 45.49 37.80 41.68 40.26 39.50 C 40.56 40.36 41.18 42.09 41.48 42.95 C 42.80 37.93 45.35 32.36 51.10 31.46 C 49.81 28.24 47.76 25.43 45.93 22.52 C 46.07 19.57 46.38 16.62 46.32 13.66 C 42.12 13.67 39.23 17.86 35.00 17.64 C 32.42 17.65 29.84 17.74 27.27 17.54 C 23.92 16.64 21.28 13.75 17.68 13.65 Z" />
<path fill="#0a090a" opacity="1.00" d=" M 19.84 15.90 C 22.17 17.33 24.51 18.74 26.80 20.23 C 24.84 21.35 22.81 22.36 20.67 23.07 C 20.02 20.74 19.51 18.33 19.84 15.90 Z" />
<path fill="#0a090a" opacity="1.00" d=" M 37.22 20.22 C 39.51 18.72 41.86 17.31 44.20 15.90 C 44.24 18.28 43.85 20.62 43.49 22.96 C 41.25 22.42 39.17 21.43 37.22 20.22 Z" />
<path fill="#0a090a" opacity="1.00" d=" M 21.62 32.03 C 24.31 29.89 27.79 31.18 28.85 34.32 C 29.01 35.17 29.34 36.88 29.51 37.73 C 25.55 38.85 23.59 34.59 21.62 32.03 Z" />
<path fill="#0a090a" opacity="1.00" d=" M 36.89 31.92 C 38.32 30.30 40.70 31.33 42.36 31.98 C 40.40 34.47 38.60 37.57 35.17 38.07 C 35.13 35.93 35.15 33.46 36.89 31.92 Z" />
<path fill="#0a090a" opacity="1.00" d=" M 29.04 46.08 C 30.96 44.80 33.05 44.81 34.96 46.08 C 35.05 46.84 35.23 48.36 35.32 49.12 C 33.13 49.85 30.87 49.85 28.68 49.11 C 28.77 48.36 28.95 46.84 29.04 46.08 Z" />
</g>
<g id="#fefefeff">
<path fill="#fefefe" opacity="1.00" d=" M 17.68 13.65 C 21.28 13.75 23.92 16.64 27.27 17.54 C 29.84 17.74 32.42 17.65 35.00 17.64 C 39.23 17.86 42.12 13.67 46.32 13.66 C 46.38 16.62 46.07 19.57 45.93 22.52 C 47.76 25.43 49.81 28.24 51.10 31.46 C 45.35 32.36 42.80 37.93 41.48 42.95 C 41.18 42.09 40.56 40.36 40.26 39.50 C 37.80 41.68 38.87 45.49 36.72 47.87 C 35.00 50.83 30.39 51.40 28.10 48.84 C 25.53 46.37 25.63 42.53 24.30 39.43 C 23.53 40.52 22.78 41.62 22.06 42.74 C 21.39 39.82 20.67 36.77 18.63 34.47 C 17.01 32.98 14.89 32.23 12.91 31.40 C 14.23 28.24 16.22 25.44 18.05 22.56 C 17.93 19.59 17.61 16.63 17.68 13.65 M 19.84 15.90 C 19.51 18.33 20.02 20.74 20.67 23.07 C 22.81 22.36 24.84 21.35 26.80 20.23 C 24.51 18.74 22.17 17.33 19.84 15.90 M 37.22 20.22 C 39.17 21.43 41.25 22.42 43.49 22.96 C 43.85 20.62 44.24 18.28 44.20 15.90 C 41.86 17.31 39.51 18.72 37.22 20.22 M 21.62 32.03 C 23.59 34.59 25.55 38.85 29.51 37.73 C 29.34 36.88 29.01 35.17 28.85 34.32 C 27.79 31.18 24.31 29.89 21.62 32.03 M 36.89 31.92 C 35.15 33.46 35.13 35.93 35.17 38.07 C 38.60 37.57 40.40 34.47 42.36 31.98 C 40.70 31.33 38.32 30.30 36.89 31.92 M 29.04 46.08 C 28.95 46.84 28.77 48.36 28.68 49.11 C 30.87 49.85 33.13 49.85 35.32 49.12 C 35.23 48.36 35.05 46.84 34.96 46.08 C 33.05 44.81 30.96 44.80 29.04 46.08 Z" />
</g>
</svg>
