<?xml version="1.0" encoding="UTF-8" ?>
<!DOCTYPE svg PUBLIC "-//W3C//DTD SVG 1.1//EN" "http://www.w3.org/Graphics/SVG/1.1/DTD/svg11.dtd">
<svg width="64pt" height="64pt" viewBox="0 0 64 64" version="1.1" xmlns="http://www.w3.org/2000/svg">
<g id="#b4bac0fc">
<path fill="#b4bac0" opacity="1.00" d=" M 10.87 0.00 L 21.95 0.00 L 21.69 1.05 C 20.12 1.01 18.55 0.97 16.97 0.98 C 13.55 0.70 9.90 0.63 11.22 5.97 L 10.77 4.99 C 10.09 3.35 9.98 1.58 10.87 0.00 Z" />
<path fill="#b4bac0" opacity="1.00" d=" M 32.08 16.76 C 32.02 15.62 32.30 14.58 32.92 13.65 C 33.48 13.98 34.62 14.65 35.18 14.98 C 34.83 16.76 34.34 19.07 36.03 20.35 L 36.02 21.09 C 32.79 21.60 35.15 16.75 32.08 16.76 Z" />
<path fill="#b4bac0" opacity="1.00" d=" M 12.37 21.16 C 12.88 19.04 13.33 16.92 13.74 14.78 C 13.80 15.60 13.92 17.26 13.97 18.09 C 13.97 22.14 14.07 26.24 13.33 30.24 C 12.97 27.49 12.54 24.76 12.18 22.02 L 12.37 21.16 Z" />
<path fill="#b4bac0" opacity="1.00" d=" M 47.94 20.12 C 47.27 17.10 49.96 15.91 52.12 14.64 C 52.70 15.38 52.76 16.29 52.29 17.35 L 51.60 17.88 C 50.03 18.03 48.80 18.83 47.94 20.12 Z" />
<path fill="#b4bac0" opacity="1.00" d=" M 44.08 26.10 C 45.30 24.13 48.77 24.65 50.93 24.02 C 51.02 24.74 51.19 26.16 51.28 26.87 C 50.79 27.24 49.81 27.96 49.32 28.32 C 49.60 27.29 49.84 26.25 50.05 25.21 C 49.02 25.45 48.00 25.70 46.97 25.95 C 46.25 25.99 44.80 26.07 44.08 26.10 Z" />
<path fill="#b4bac0" opacity="1.00" d=" M 32.83 28.20 L 33.73 27.73 C 34.07 28.22 34.73 29.20 35.06 29.70 C 34.51 29.84 33.42 30.13 32.88 30.28 C 31.36 31.40 30.80 33.37 31.20 36.21 C 31.53 33.47 29.96 29.79 32.83 28.20 Z" />
<path fill="#b4bac0" opacity="1.00" d=" M 42.86 47.81 C 44.10 46.98 45.66 46.94 47.06 46.52 C 47.20 46.85 47.48 47.51 47.62 47.84 C 44.11 54.15 37.64 58.45 31.10 61.20 C 31.14 60.73 31.23 59.80 31.27 59.34 C 36.81 56.51 42.21 53.04 46.15 48.13 C 45.33 48.05 43.68 47.89 42.86 47.81 Z" />
<path fill="#b4bac0" opacity="1.00" d=" M 31.03 63.21 C 33.42 61.92 35.79 62.18 38.14 64.00 L 31.01 64.00 L 31.03 63.21 Z" />
</g>
<g id="#996f57fe">
<path fill="#996f57" opacity="1.00" d=" M 21.95 0.00 L 39.88 0.00 C 42.21 1.82 44.56 2.09 46.92 0.78 C 46.68 2.19 46.29 3.56 45.91 4.94 C 44.13 6.59 38.84 9.87 47.51 8.56 C 52.18 11.73 57.05 14.83 63.00 14.17 C 63.83 18.72 58.08 19.16 55.24 21.05 C 53.99 20.04 52.75 19.01 51.60 17.88 L 52.29 17.35 C 53.45 16.75 55.95 16.83 55.93 15.13 C 54.49 14.03 52.76 13.07 50.89 13.45 C 49.31 13.02 47.76 12.43 46.15 12.11 C 42.13 11.83 36.27 8.95 33.61 12.60 C 33.43 12.86 33.09 13.39 32.92 13.65 C 32.30 14.58 32.02 15.62 32.08 16.76 C 32.35 19.04 31.59 20.48 29.14 20.22 L 29.06 19.34 C 30.64 19.32 31.22 18.62 30.79 17.25 C 27.55 15.56 23.97 14.39 21.15 11.98 L 21.03 11.13 C 21.27 10.88 21.75 10.38 21.99 10.13 C 24.20 10.52 26.37 8.75 25.28 6.50 C 24.98 4.17 22.91 2.87 21.69 1.05 L 21.95 0.00 Z" />
<path fill="#996f57" opacity="1.00" d=" M 52.68 23.82 C 56.14 22.25 59.58 20.64 63.04 19.08 C 63.03 19.55 63.02 20.48 63.01 20.95 C 67.26 28.24 54.73 24.75 59.03 32.02 C 58.85 36.77 61.58 41.28 60.21 46.01 C 60.75 48.66 59.50 53.77 63.11 54.95 L 64.00 55.45 L 64.00 56.37 C 61.89 55.79 59.85 55.00 57.86 54.08 C 57.31 52.94 56.74 51.81 56.16 50.68 C 55.95 49.39 55.74 48.10 55.45 46.83 C 54.84 43.52 53.93 40.24 53.93 36.84 C 53.95 36.12 53.98 34.67 53.99 33.95 C 53.96 33.52 53.90 32.66 53.87 32.23 C 53.64 29.40 53.02 26.63 52.68 23.82 Z" />
</g>
<g id="#755745fd">
<path fill="#755745" opacity="1.00" d=" M 39.88 0.00 L 47.07 0.00 L 46.92 0.78 C 44.56 2.09 42.21 1.82 39.88 0.00 Z" />
<path fill="#755745" opacity="1.00" d=" M 45.91 4.94 C 51.76 4.66 57.33 2.53 62.92 0.95 C 62.99 5.13 63.06 9.32 64.00 13.42 L 64.00 26.58 C 62.24 35.92 63.06 45.50 63.11 54.95 C 59.50 53.77 60.75 48.66 60.21 46.01 C 61.58 41.28 58.85 36.77 59.03 32.02 C 54.73 24.75 67.26 28.24 63.01 20.95 C 63.02 20.48 63.03 19.55 63.04 19.08 C 59.58 20.64 56.14 22.25 52.68 23.82 L 51.80 23.91 C 50.10 21.41 53.87 22.11 55.24 21.05 C 58.08 19.16 63.83 18.72 63.00 14.17 C 57.05 14.83 52.18 11.73 47.51 8.56 C 38.84 9.87 44.13 6.59 45.91 4.94 Z" />
<path fill="#755745" opacity="1.00" d=" M 1.00 31.94 C 3.41 23.54 1.33 12.41 8.67 6.35 C 9.52 7.46 12.52 8.94 9.98 9.93 C 5.63 12.22 9.45 18.56 8.24 22.24 C 8.12 22.88 7.89 24.15 7.78 24.78 C 7.00 28.22 6.90 31.74 7.24 35.23 C 7.01 37.50 6.59 39.74 6.02 41.95 L 5.07 42.20 L 4.20 42.39 C -1.64 42.98 1.76 35.54 1.00 31.94 Z" />
<path fill="#755745" opacity="1.00" d=" M 21.15 11.98 C 23.97 14.39 27.55 15.56 30.79 17.25 C 31.22 18.62 30.64 19.32 29.06 19.34 C 25.50 18.04 22.01 16.52 18.81 14.49 C 20.24 14.24 21.02 13.41 21.15 11.98 Z" />
</g>
<g id="#5c6e9bfb">
<path fill="#5c6e9b" opacity="1.00" d=" M 47.07 0.00 L 62.99 0.00 L 62.92 0.95 C 57.33 2.53 51.76 4.66 45.91 4.94 C 46.29 3.56 46.68 2.19 46.92 0.78 L 47.07 0.00 Z" />
<path fill="#5c6e9b" opacity="1.00" d=" M 13.74 14.78 C 13.14 10.29 16.68 13.54 18.81 14.49 C 22.01 16.52 25.50 18.04 29.06 19.34 L 29.14 20.22 C 28.81 20.66 28.16 21.54 27.83 21.98 C 23.49 19.79 18.61 19.32 13.97 18.09 C 13.92 17.26 13.80 15.60 13.74 14.78 Z" />
<path fill="#5c6e9b" opacity="1.00" d=" M 34.16 22.04 C 36.91 22.09 39.55 22.99 42.27 23.26 C 39.49 24.87 36.55 26.18 33.73 27.73 L 32.83 28.20 C 32.74 27.91 32.57 27.32 32.48 27.03 C 32.90 25.33 33.01 23.45 34.16 22.04 Z" />
<path fill="#5c6e9b" opacity="1.00" d=" M 50.93 24.02 L 51.80 23.91 L 52.68 23.82 C 53.02 26.63 53.64 29.40 53.87 32.23 C 52.87 30.51 52.04 28.71 51.28 26.87 C 51.19 26.16 51.02 24.74 50.93 24.02 Z" />
<path fill="#5c6e9b" opacity="1.00" d=" M 36.84 29.18 C 36.90 26.58 39.86 25.88 41.99 26.00 C 40.90 26.99 39.88 28.06 39.04 29.27 C 38.30 29.26 37.57 29.23 36.84 29.18 Z" />
</g>
<g id="#5b483cc3">
<path fill="#5b483c" opacity="0.76" d=" M 62.99 0.00 L 64.00 0.00 L 64.00 13.42 C 63.06 9.32 62.99 5.13 62.92 0.95 L 62.99 0.00 Z" />
<path fill="#5b483c" opacity="0.76" d=" M 63.11 54.95 C 63.06 45.50 62.24 35.92 64.00 26.58 L 64.00 55.45 L 63.11 54.95 Z" />
<path fill="#5b483c" opacity="0.76" d=" M 0.00 32.12 L 1.00 31.94 C 1.76 35.54 -1.64 42.98 4.20 42.39 C 2.82 42.73 1.41 42.98 0.00 43.22 L 0.00 32.12 Z" />
</g>
<g id="#cad9e2fe">
<path fill="#cad9e2" opacity="1.00" d=" M 11.22 5.97 C 9.90 0.63 13.55 0.70 16.97 0.98 C 17.08 4.62 16.49 8.43 17.80 11.93 C 14.04 12.00 12.29 9.15 11.22 5.97 Z" />
<path fill="#cad9e2" opacity="1.00" d=" M 46.15 12.11 C 47.76 12.43 49.31 13.02 50.89 13.45 C 51.20 13.75 51.81 14.34 52.12 14.64 C 49.96 15.91 47.27 17.10 47.94 20.12 C 47.89 20.65 47.80 21.70 47.76 22.23 C 46.56 20.19 48.73 14.35 44.98 14.98 C 40.65 13.89 44.14 19.90 43.75 22.34 C 41.17 21.91 38.58 21.58 36.02 21.09 L 36.03 20.35 C 37.68 18.90 36.45 16.20 35.18 14.98 C 34.62 14.65 33.48 13.98 32.92 13.65 C 33.09 13.39 33.43 12.86 33.61 12.60 C 37.64 13.09 41.67 13.89 45.75 13.93 C 45.85 13.47 46.05 12.57 46.15 12.11 Z" />
<path fill="#cad9e2" opacity="1.00" d=" M 9.34 15.74 C 10.82 17.25 11.67 19.20 12.37 21.16 L 12.18 22.02 C 8.25 19.46 9.54 26.89 8.30 29.25 C 8.12 27.76 7.95 26.27 7.78 24.78 C 7.89 24.15 8.12 22.88 8.24 22.24 C 8.51 20.62 9.07 17.36 9.34 15.74 Z" />
<path fill="#cad9e2" opacity="1.00" d=" M 46.97 25.95 C 48.00 25.70 49.02 25.45 50.05 25.21 C 49.84 26.25 49.60 27.29 49.32 28.32 C 49.02 28.77 48.41 29.67 48.11 30.13 C 46.60 28.99 45.42 27.65 46.97 25.95 Z" />
<path fill="#cad9e2" opacity="1.00" d=" M 35.06 29.70 C 35.50 29.57 36.39 29.31 36.84 29.18 C 37.57 29.23 38.30 29.26 39.04 29.27 C 40.41 29.33 41.78 29.39 43.15 29.21 C 42.97 34.02 35.33 29.16 32.88 30.28 C 33.42 30.13 34.51 29.84 35.06 29.70 Z" />
<path fill="#cad9e2" opacity="1.00" d=" M 28.30 33.91 C 29.59 33.92 30.13 34.58 29.90 35.87 C 28.24 36.58 26.62 37.38 24.93 38.02 C 26.03 36.64 27.18 35.28 28.30 33.91 Z" />
<path fill="#cad9e2" opacity="1.00" d=" M 53.29 33.79 L 53.99 33.95 C 53.98 34.67 53.95 36.12 53.93 36.84 C 50.51 38.30 47.40 40.39 43.96 41.78 C 43.62 41.22 40.95 40.24 42.90 40.02 C 47.40 39.31 50.05 36.35 53.29 33.79 Z" />
<path fill="#cad9e2" opacity="1.00" d=" M 40.28 44.72 C 40.35 43.12 41.84 42.59 43.14 42.12 C 45.35 46.21 39.53 46.66 37.09 48.49 C 34.71 46.31 39.94 46.78 40.28 44.72 Z" />
<path fill="#cad9e2" opacity="1.00" d=" M 47.06 46.52 C 48.42 45.70 49.76 44.83 51.14 44.05 C 48.15 51.01 45.09 58.04 38.90 62.82 C 42.74 63.00 46.57 63.39 50.38 64.00 L 38.14 64.00 C 35.79 62.18 33.42 61.92 31.03 63.21 C 31.05 62.71 31.09 61.70 31.10 61.20 C 37.64 58.45 44.11 54.15 47.62 47.84 C 47.48 47.51 47.20 46.85 47.06 46.52 Z" />
<path fill="#cad9e2" opacity="1.00" d=" M 31.94 53.87 C 30.32 52.11 32.18 46.71 33.33 51.11 C 33.28 51.64 33.18 52.70 33.13 53.23 C 32.83 53.39 32.24 53.71 31.94 53.87 Z" />
</g>
<g id="#f4f6f8ff">
<path fill="#f4f6f8" opacity="1.00" d=" M 16.97 0.98 C 18.55 0.97 20.12 1.01 21.69 1.05 C 22.91 2.87 24.98 4.17 25.28 6.50 C 23.60 7.04 21.82 8.11 21.99 10.13 C 21.75 10.38 21.27 10.88 21.03 11.13 C 19.96 11.41 18.88 11.67 17.80 11.93 C 16.49 8.43 17.08 4.62 16.97 0.98 Z" />
<path fill="#f4f6f8" opacity="1.00" d=" M 33.61 12.60 C 36.27 8.95 42.13 11.83 46.15 12.11 C 46.05 12.57 45.85 13.47 45.75 13.93 C 41.67 13.89 37.64 13.09 33.61 12.60 Z" />
<path fill="#f4f6f8" opacity="1.00" d=" M 35.18 14.98 C 36.45 16.20 37.68 18.90 36.03 20.35 C 34.34 19.07 34.83 16.76 35.18 14.98 Z" />
<path fill="#f4f6f8" opacity="1.00" d=" M 43.75 22.34 C 44.14 19.90 40.65 13.89 44.98 14.98 C 48.73 14.35 46.56 20.19 47.76 22.23 C 47.83 24.13 44.89 22.39 43.75 22.34 Z" />
<path fill="#f4f6f8" opacity="1.00" d=" M 8.30 29.25 C 9.54 26.89 8.25 19.46 12.18 22.02 C 12.54 24.76 12.97 27.49 13.33 30.24 C 12.81 34.49 13.01 38.78 13.02 43.05 C 17.61 43.42 21.40 40.52 24.93 38.02 C 26.62 37.38 28.24 36.58 29.90 35.87 C 29.96 36.69 30.08 38.33 30.13 39.15 C 30.96 38.46 31.31 37.48 31.20 36.21 C 30.80 33.37 31.36 31.40 32.88 30.28 C 35.33 29.16 42.97 34.02 43.15 29.21 L 43.39 28.27 C 43.56 27.73 43.91 26.64 44.08 26.10 C 44.80 26.07 46.25 25.99 46.97 25.95 C 45.42 27.65 46.60 28.99 48.11 30.13 C 44.93 33.95 50.23 33.07 53.29 33.79 C 50.05 36.35 47.40 39.31 42.90 40.02 C 40.95 40.24 43.62 41.22 43.96 41.78 L 43.14 42.12 C 41.84 42.59 40.35 43.12 40.28 44.72 C 39.94 46.78 34.71 46.31 37.09 48.49 C 35.85 49.39 34.58 50.23 33.33 51.11 C 32.18 46.71 30.32 52.11 31.94 53.87 C 30.65 54.56 29.31 55.15 27.99 55.77 C 24.46 56.57 21.50 58.15 21.13 62.11 C 21.10 60.38 21.05 58.66 20.89 56.94 C 18.06 57.19 15.36 58.14 12.63 58.87 C 10.00 56.98 5.74 56.24 5.60 52.29 C 5.77 48.84 5.95 45.40 6.02 41.95 C 6.59 39.74 7.01 37.50 7.24 35.23 C 7.51 33.74 8.04 30.75 8.30 29.25 Z" />
<path fill="#f4f6f8" opacity="1.00" d=" M 43.96 41.78 C 47.40 40.39 50.51 38.30 53.93 36.84 C 53.93 40.24 54.84 43.52 55.45 46.83 C 54.10 50.40 51.50 53.28 49.91 56.71 C 53.01 56.42 54.55 58.13 55.02 61.02 C 54.23 61.99 53.50 63.00 52.75 64.00 L 50.38 64.00 C 46.57 63.39 42.74 63.00 38.90 62.82 C 45.09 58.04 48.15 51.01 51.14 44.05 C 49.76 44.83 48.42 45.70 47.06 46.52 C 45.66 46.94 44.10 46.98 42.86 47.81 C 39.97 50.21 36.67 51.97 33.13 53.23 C 33.18 52.70 33.28 51.64 33.33 51.11 C 34.58 50.23 35.85 49.39 37.09 48.49 C 39.53 46.66 45.35 46.21 43.14 42.12 L 43.96 41.78 Z" />
</g>
<g id="#9e9b98fd">
<path fill="#9e9b98" opacity="1.00" d=" M 8.67 6.35 C 9.33 5.83 10.03 5.38 10.77 4.99 L 11.22 5.97 C 12.29 9.15 14.04 12.00 17.80 11.93 C 18.88 11.67 19.96 11.41 21.03 11.13 L 21.15 11.98 C 21.02 13.41 20.24 14.24 18.81 14.49 C 16.68 13.54 13.14 10.29 13.74 14.78 C 13.33 16.92 12.88 19.04 12.37 21.16 C 11.67 19.20 10.82 17.25 9.34 15.74 C 9.07 17.36 8.51 20.62 8.24 22.24 C 9.45 18.56 5.63 12.22 9.98 9.93 C 12.52 8.94 9.52 7.46 8.67 6.35 Z" />
<path fill="#9e9b98" opacity="1.00" d=" M 21.99 10.13 C 21.82 8.11 23.60 7.04 25.28 6.50 C 26.37 8.75 24.20 10.52 21.99 10.13 Z" />
<path fill="#9e9b98" opacity="1.00" d=" M 50.89 13.45 C 52.76 13.07 54.49 14.03 55.93 15.13 C 55.95 16.83 53.45 16.75 52.29 17.35 C 52.76 16.29 52.70 15.38 52.12 14.64 C 51.81 14.34 51.20 13.75 50.89 13.45 Z" />
<path fill="#9e9b98" opacity="1.00" d=" M 32.08 16.76 C 35.15 16.75 32.79 21.60 36.02 21.09 C 38.58 21.58 41.17 21.91 43.75 22.34 C 44.89 22.39 47.83 24.13 47.76 22.23 C 47.80 21.70 47.89 20.65 47.94 20.12 C 48.80 18.83 50.03 18.03 51.60 17.88 C 52.75 19.01 53.99 20.04 55.24 21.05 C 53.87 22.11 50.10 21.41 51.80 23.91 L 50.93 24.02 C 48.77 24.65 45.30 24.13 44.08 26.10 C 43.91 26.64 43.56 27.73 43.39 28.27 C 43.04 27.70 42.34 26.57 41.99 26.00 C 39.86 25.88 36.90 26.58 36.84 29.18 C 36.39 29.31 35.50 29.57 35.06 29.70 C 34.73 29.20 34.07 28.22 33.73 27.73 C 36.55 26.18 39.49 24.87 42.27 23.26 C 39.55 22.99 36.91 22.09 34.16 22.04 C 33.01 23.45 32.90 25.33 32.48 27.03 C 31.64 25.31 33.08 21.22 30.04 22.00 C 28.07 21.77 29.28 25.04 28.70 26.25 C 28.35 24.84 28.07 23.41 27.83 21.98 C 28.16 21.54 28.81 20.66 29.14 20.22 C 31.59 20.48 32.35 19.04 32.08 16.76 Z" />
<path fill="#9e9b98" opacity="1.00" d=" M 7.24 35.23 C 6.90 31.74 7.00 28.22 7.78 24.78 C 7.95 26.27 8.12 27.76 8.30 29.25 C 8.04 30.75 7.51 33.74 7.24 35.23 Z" />
<path fill="#9e9b98" opacity="1.00" d=" M 33.13 53.23 C 36.67 51.97 39.97 50.21 42.86 47.81 C 43.68 47.89 45.33 48.05 46.15 48.13 C 42.21 53.04 36.81 56.51 31.27 59.34 C 31.23 59.80 31.14 60.73 31.10 61.20 C 31.09 61.70 31.05 62.71 31.03 63.21 L 31.01 64.00 L 30.10 64.00 C 29.90 61.05 31.13 57.29 27.99 55.77 C 29.31 55.15 30.65 54.56 31.94 53.87 C 32.24 53.71 32.83 53.39 33.13 53.23 Z" />
<path fill="#9e9b98" opacity="1.00" d=" M 57.86 54.08 C 59.85 55.00 61.89 55.79 64.00 56.37 L 64.00 59.21 C 61.88 57.65 58.82 56.74 57.86 54.08 Z" />
<path fill="#9e9b98" opacity="1.00" d=" M 56.79 59.19 C 57.09 58.88 57.69 58.26 57.99 57.94 C 58.00 59.46 58.01 62.49 58.02 64.00 L 52.75 64.00 C 53.50 63.00 54.23 61.99 55.02 61.02 C 55.63 60.43 56.22 59.82 56.79 59.19 Z" />
</g>
<g id="#7792d8ff">
<path fill="#7792d8" opacity="1.00" d=" M 13.97 18.09 C 18.61 19.32 23.49 19.79 27.83 21.98 C 28.07 23.41 28.35 24.84 28.70 26.25 C 28.72 28.81 29.03 31.42 28.30 33.91 C 27.18 35.28 26.03 36.64 24.93 38.02 C 21.40 40.52 17.61 43.42 13.02 43.05 C 13.01 38.78 12.81 34.49 13.33 30.24 C 14.07 26.24 13.97 22.14 13.97 18.09 Z" />
<path fill="#7792d8" opacity="1.00" d=" M 41.99 26.00 C 42.34 26.57 43.04 27.70 43.39 28.27 L 43.15 29.21 C 41.78 29.39 40.41 29.33 39.04 29.27 C 39.88 28.06 40.90 26.99 41.99 26.00 Z" />
<path fill="#7792d8" opacity="1.00" d=" M 51.28 26.87 C 52.04 28.71 52.87 30.51 53.87 32.23 C 53.90 32.66 53.96 33.52 53.99 33.95 L 53.29 33.79 C 50.23 33.07 44.93 33.95 48.11 30.13 C 48.41 29.67 49.02 28.77 49.32 28.32 C 49.81 27.96 50.79 27.24 51.28 26.87 Z" />
<path fill="#7792d8" opacity="1.00" d=" M 55.45 46.83 C 55.74 48.10 55.95 49.39 56.16 50.68 C 55.25 53.52 53.70 57.32 56.79 59.19 C 56.22 59.82 55.63 60.43 55.02 61.02 C 54.55 58.13 53.01 56.42 49.91 56.71 C 51.50 53.28 54.10 50.40 55.45 46.83 Z" />
</g>
<g id="#e5caa6fd">
<path fill="#e5caa6" opacity="1.00" d=" M 28.70 26.25 C 29.28 25.04 28.07 21.77 30.04 22.00 C 33.08 21.22 31.64 25.31 32.48 27.03 C 32.57 27.32 32.74 27.91 32.83 28.20 C 29.96 29.79 31.53 33.47 31.20 36.21 C 31.31 37.48 30.96 38.46 30.13 39.15 C 30.08 38.33 29.96 36.69 29.90 35.87 C 30.13 34.58 29.59 33.92 28.30 33.91 C 29.03 31.42 28.72 28.81 28.70 26.25 Z" />
<path fill="#e5caa6" opacity="1.00" d=" M 56.16 50.68 C 56.74 51.81 57.31 52.94 57.86 54.08 C 58.82 56.74 61.88 57.65 64.00 59.21 L 64.00 64.00 L 58.02 64.00 C 58.01 62.49 58.00 59.46 57.99 57.94 C 57.69 58.26 57.09 58.88 56.79 59.19 C 53.70 57.32 55.25 53.52 56.16 50.68 Z" />
<path fill="#e5caa6" opacity="1.00" d=" M 12.63 58.87 C 15.36 58.14 18.06 57.19 20.89 56.94 C 21.05 58.66 21.10 60.38 21.13 62.11 C 20.84 62.58 20.26 63.53 19.97 64.00 L 16.19 64.00 C 14.27 62.89 13.42 60.83 12.63 58.87 Z" />
</g>
<g id="#7e7a7ba6">
<path fill="#7e7a7b" opacity="0.65" d=" M 5.07 42.20 L 6.02 41.95 C 5.95 45.40 5.77 48.84 5.60 52.29 C 4.58 49.03 5.10 45.55 5.07 42.20 Z" />
</g>
</svg>
