<?xml version="1.0" encoding="UTF-8" ?>
<!DOCTYPE svg PUBLIC "-//W3C//DTD SVG 1.1//EN" "http://www.w3.org/Graphics/SVG/1.1/DTD/svg11.dtd">
<svg width="64pt" height="64pt" viewBox="0 0 64 64" version="1.1" xmlns="http://www.w3.org/2000/svg">
<g id="#020000ff">
<path fill="#020000" opacity="1.00" d=" M 26.82 9.58 C 26.93 7.13 26.74 4.42 28.60 2.52 C 31.21 2.87 34.19 2.09 36.49 3.68 C 37.16 5.57 37.02 7.62 37.18 9.59 C 45.90 11.29 52.45 18.49 54.79 26.85 C 56.79 27.00 58.80 27.16 60.81 27.32 C 61.89 30.35 61.91 33.67 60.77 36.69 C 58.78 36.83 56.80 36.97 54.81 37.12 C 52.48 45.51 45.80 52.60 37.15 54.44 C 36.96 56.40 37.35 58.56 36.40 60.36 C 33.85 61.87 30.16 61.81 27.58 60.37 C 26.75 58.51 27.01 56.39 26.82 54.40 C 18.19 52.61 11.51 45.49 9.21 37.14 C 7.21 36.99 5.21 36.83 3.21 36.68 C 2.09 33.66 2.09 30.34 3.22 27.32 C 5.22 27.17 7.23 27.01 9.23 26.85 C 11.48 18.47 18.22 11.40 26.82 9.58 M 29.34 5.10 C 29.38 7.16 29.41 9.21 29.43 11.27 C 26.71 12.16 23.88 12.80 21.33 14.15 C 16.05 17.59 12.34 23.08 11.08 29.27 C 8.94 29.31 6.80 29.35 4.66 29.40 C 4.72 31.17 4.79 32.93 4.86 34.70 C 6.93 34.71 9.00 34.72 11.07 34.73 C 12.63 43.71 20.01 51.21 29.07 52.60 C 29.18 54.74 29.28 56.88 29.35 59.02 C 31.12 59.03 32.90 59.03 34.67 59.02 C 35.09 56.66 33.46 52.34 37.00 52.01 C 45.28 50.18 51.39 42.84 52.99 34.70 C 55.05 34.70 57.11 34.71 59.17 34.71 C 59.21 32.94 59.25 31.17 59.29 29.41 C 57.17 29.36 55.05 29.32 52.93 29.27 C 51.28 20.09 43.65 13.01 34.61 11.25 C 34.61 9.20 34.63 7.15 34.65 5.10 C 32.88 5.10 31.11 5.10 29.34 5.10 Z" />
<path fill="#020000" opacity="1.00" d=" M 16.95 29.40 C 17.10 22.76 23.34 18.10 29.32 16.65 C 29.37 19.75 29.37 22.84 29.35 25.93 C 31.12 25.94 32.88 25.94 34.65 25.93 C 34.63 22.83 34.62 19.73 34.67 16.63 C 40.62 18.12 46.97 22.75 47.00 29.41 C 43.99 29.36 40.97 29.33 37.95 29.37 C 37.97 31.14 37.99 32.91 38.03 34.68 C 41.13 34.70 44.23 34.67 47.33 34.70 C 46.37 41.08 40.87 45.77 34.81 47.22 C 34.73 44.14 34.72 41.06 34.69 37.99 C 32.90 37.98 31.10 37.98 29.31 37.99 C 29.28 41.06 29.26 44.14 29.19 47.21 C 23.13 45.78 17.64 41.08 16.67 34.71 C 19.77 34.68 22.87 34.70 25.96 34.68 C 26.00 32.91 26.02 31.14 26.04 29.37 C 23.01 29.33 19.98 29.36 16.95 29.40 Z" />
</g>
<g id="#c22b2eff">
<path fill="#c22b2e" opacity="1.00" d=" M 29.34 5.10 C 31.11 5.10 32.88 5.10 34.65 5.10 C 34.63 7.15 34.61 9.20 34.61 11.25 C 43.65 13.01 51.28 20.09 52.93 29.27 C 55.05 29.32 57.17 29.36 59.29 29.41 C 59.25 31.17 59.21 32.94 59.17 34.71 C 57.11 34.71 55.05 34.70 52.99 34.70 C 51.39 42.84 45.28 50.18 37.00 52.01 C 33.46 52.34 35.09 56.66 34.67 59.02 C 32.90 59.03 31.12 59.03 29.35 59.02 C 29.28 56.88 29.18 54.74 29.07 52.60 C 20.01 51.21 12.63 43.71 11.07 34.73 C 9.00 34.72 6.93 34.71 4.86 34.70 C 4.79 32.93 4.72 31.17 4.66 29.40 C 6.80 29.35 8.94 29.31 11.08 29.27 C 12.34 23.08 16.05 17.59 21.33 14.15 C 23.88 12.80 26.71 12.16 29.43 11.27 C 29.41 9.21 29.38 7.16 29.34 5.10 M 16.95 29.40 C 19.98 29.36 23.01 29.33 26.04 29.37 C 26.02 31.14 26.00 32.91 25.96 34.68 C 22.87 34.70 19.77 34.68 16.67 34.71 C 17.64 41.08 23.13 45.78 29.19 47.21 C 29.26 44.14 29.28 41.06 29.31 37.99 C 31.10 37.98 32.90 37.98 34.69 37.99 C 34.72 41.06 34.73 44.14 34.81 47.22 C 40.87 45.77 46.37 41.08 47.33 34.70 C 44.23 34.67 41.13 34.70 38.03 34.68 C 37.99 32.91 37.97 31.14 37.95 29.37 C 40.97 29.33 43.99 29.36 47.00 29.41 C 46.97 22.75 40.62 18.12 34.67 16.63 C 34.62 19.73 34.63 22.83 34.65 25.93 C 32.88 25.94 31.12 25.94 29.35 25.93 C 29.37 22.84 29.37 19.75 29.32 16.65 C 23.34 18.10 17.10 22.76 16.95 29.40 Z" />
</g>
</svg>
