<?xml version="1.0" encoding="UTF-8" ?>
<!DOCTYPE svg PUBLIC "-//W3C//DTD SVG 1.1//EN" "http://www.w3.org/Graphics/SVG/1.1/DTD/svg11.dtd">
<svg width="64pt" height="64pt" viewBox="0 0 64 64" version="1.1" xmlns="http://www.w3.org/2000/svg">
<g id="#000100ff">
<path fill="#000100" opacity="1.00" d=" M 22.54 2.21 C 28.10 1.85 33.71 1.59 39.27 2.09 C 41.82 3.09 43.68 5.51 45.13 7.76 C 45.91 11.03 45.33 14.46 45.58 17.80 C 49.27 19.46 49.36 25.87 45.56 27.47 C 44.92 39.01 46.63 50.73 44.44 62.14 C 36.08 61.97 27.71 62.36 19.36 61.88 C 17.75 50.50 18.83 38.98 18.49 27.53 C 14.88 25.65 14.59 19.57 18.41 17.79 C 18.59 14.64 18.25 11.47 18.71 8.34 C 19.60 6.09 21.22 4.22 22.54 2.21 M 24.26 4.31 C 23.13 5.87 22.04 7.46 20.94 9.04 C 20.94 13.02 20.93 16.99 20.93 20.97 C 20.28 20.97 18.99 20.96 18.34 20.96 C 18.33 21.79 18.33 23.44 18.33 24.26 C 18.98 24.28 20.29 24.32 20.94 24.33 C 21.16 36.11 20.41 47.92 21.45 59.66 C 28.49 59.75 35.54 59.74 42.58 59.67 C 43.22 55.15 43.07 50.58 42.89 46.03 C 43.13 38.80 43.05 31.57 43.06 24.33 C 43.71 24.31 45.01 24.28 45.67 24.26 C 45.67 23.43 45.67 21.78 45.66 20.96 C 44.98 20.96 43.62 20.97 42.93 20.98 C 42.93 16.95 43.04 12.93 43.08 8.90 C 41.60 7.38 40.10 5.87 38.71 4.27 C 33.89 4.30 29.07 4.23 24.26 4.31 Z" />
<path fill="#000100" opacity="1.00" d=" M 24.04 15.07 C 29.45 15.05 34.87 15.05 40.29 15.08 C 40.90 17.50 41.46 19.93 41.94 22.38 C 35.35 22.43 28.77 22.29 22.19 22.50 C 22.75 20.01 23.37 17.53 24.04 15.07 Z" />
<path fill="#000100" opacity="1.00" d=" M 29.28 34.18 C 29.73 31.29 28.10 27.34 30.87 25.35 C 32.49 25.58 34.37 25.41 35.26 27.11 C 35.48 29.65 35.34 32.21 35.32 34.75 C 35.90 34.98 37.08 35.44 37.67 35.66 C 37.60 37.90 37.47 40.14 37.27 42.37 C 33.92 42.81 30.53 42.79 27.18 42.47 C 27.35 39.57 25.82 35.62 29.28 34.18 M 29.21 37.54 C 29.29 38.56 29.36 39.58 29.44 40.60 C 31.35 40.60 33.25 40.59 35.16 40.59 C 35.26 39.43 35.35 38.27 35.43 37.10 C 34.80 37.07 33.56 37.00 32.93 36.96 C 32.99 33.66 33.11 30.36 33.00 27.05 C 28.89 29.34 34.29 36.34 29.21 37.54 Z" />
<path fill="#000100" opacity="1.00" d=" M 22.12 44.51 C 28.72 44.47 35.33 44.46 41.94 44.54 C 41.40 46.59 40.87 48.64 40.35 50.69 C 34.92 50.67 29.49 50.70 24.06 50.67 C 23.36 48.63 22.73 46.57 22.12 44.51 Z" />
</g>
<g id="#fcfdfcff">
<path fill="#fcfdfc" opacity="1.00" d=" M 24.26 4.31 C 29.07 4.23 33.89 4.30 38.71 4.27 C 40.10 5.87 41.60 7.38 43.08 8.90 C 43.04 12.93 42.93 16.95 42.93 20.98 C 43.62 20.97 44.98 20.96 45.66 20.96 C 45.67 21.78 45.67 23.43 45.67 24.26 C 45.01 24.28 43.71 24.31 43.06 24.33 C 43.05 31.57 43.13 38.80 42.89 46.03 C 43.07 50.58 43.22 55.15 42.58 59.67 C 35.54 59.74 28.49 59.75 21.45 59.66 C 20.41 47.92 21.16 36.11 20.94 24.33 C 20.29 24.32 18.98 24.28 18.33 24.26 C 18.33 23.44 18.33 21.79 18.34 20.96 C 18.99 20.96 20.28 20.97 20.93 20.97 C 20.93 16.99 20.94 13.02 20.94 9.04 C 22.04 7.46 23.13 5.87 24.26 4.31 M 24.04 15.07 C 23.37 17.53 22.75 20.01 22.19 22.50 C 28.77 22.29 35.35 22.43 41.94 22.38 C 41.46 19.93 40.90 17.50 40.29 15.08 C 34.87 15.05 29.45 15.05 24.04 15.07 M 29.28 34.18 C 25.82 35.62 27.35 39.57 27.18 42.47 C 30.53 42.79 33.92 42.81 37.27 42.37 C 37.47 40.14 37.60 37.90 37.67 35.66 C 37.08 35.44 35.90 34.98 35.32 34.75 C 35.34 32.21 35.48 29.65 35.26 27.11 C 34.37 25.41 32.49 25.58 30.87 25.35 C 28.10 27.34 29.73 31.29 29.28 34.18 M 22.12 44.51 C 22.73 46.57 23.36 48.63 24.06 50.67 C 29.49 50.70 34.92 50.67 40.35 50.69 C 40.87 48.64 41.40 46.59 41.94 44.54 C 35.33 44.46 28.72 44.47 22.12 44.51 Z" />
<path fill="#fcfdfc" opacity="1.00" d=" M 29.21 37.54 C 34.29 36.34 28.89 29.34 33.00 27.05 C 33.11 30.36 32.99 33.66 32.93 36.96 C 33.56 37.00 34.80 37.07 35.43 37.10 C 35.35 38.27 35.26 39.43 35.16 40.59 C 33.25 40.59 31.35 40.60 29.44 40.60 C 29.36 39.58 29.29 38.56 29.21 37.54 Z" />
</g>
</svg>
