<?xml version="1.0" encoding="UTF-8" ?>
<!DOCTYPE svg PUBLIC "-//W3C//DTD SVG 1.1//EN" "http://www.w3.org/Graphics/SVG/1.1/DTD/svg11.dtd">
<svg width="64pt" height="64pt" viewBox="0 0 64 64" version="1.1" xmlns="http://www.w3.org/2000/svg">
<g id="#0d0c0af5">
<path fill="#0d0c0a" opacity="0.96" d=" M 47.66 7.70 C 50.95 6.19 54.07 8.45 56.69 10.22 C 58.33 11.38 60.64 12.60 60.38 14.97 C 60.26 19.93 57.56 24.32 56.60 29.11 C 55.37 35.33 54.65 41.72 52.32 47.65 C 50.76 52.22 46.14 54.68 41.96 56.44 C 38.38 55.91 34.95 54.20 32.18 51.86 C 29.55 49.21 25.50 49.35 22.47 47.39 C 18.72 45.20 17.15 40.19 12.56 39.33 C 5.11 37.47 1.12 27.67 5.25 21.14 C 8.45 15.17 17.14 13.60 22.42 17.73 C 24.94 19.20 26.03 21.99 27.07 24.56 C 32.25 24.25 37.67 26.57 39.93 31.47 C 41.32 29.74 43.28 28.28 43.97 26.09 C 42.85 22.97 40.53 20.34 39.89 17.03 C 40.78 12.91 43.18 8.60 47.66 7.70 M 43.74 12.62 C 44.24 13.48 45.24 15.20 45.74 16.05 C 44.91 15.92 43.26 15.66 42.44 15.53 C 42.11 19.52 45.43 22.51 46.78 26.03 C 45.63 28.12 44.38 30.16 42.98 32.10 L 42.68 32.08 C 41.25 33.90 39.83 35.73 38.57 37.68 C 38.60 35.72 38.13 33.81 37.66 31.93 C 34.90 27.98 30.06 26.05 25.37 27.36 C 24.24 23.69 22.48 19.55 18.46 18.33 C 11.92 15.55 4.08 22.61 6.27 29.43 C 7.29 34.45 11.92 37.47 16.72 38.19 C 19.25 40.19 20.67 43.27 23.35 45.10 C 25.88 46.82 28.94 47.38 31.84 48.16 C 34.53 50.95 37.92 53.52 41.88 53.90 C 44.74 52.28 48.49 50.98 49.66 47.59 C 50.91 44.07 52.36 40.52 52.52 36.75 L 52.67 37.62 C 53.56 34.17 53.89 30.61 54.57 27.12 C 55.84 22.80 58.06 18.70 58.04 14.08 C 55.46 12.37 52.86 10.69 50.06 9.35 C 47.83 10.20 45.70 11.27 43.74 12.62 Z" />
</g>
<g id="#f0bc8cff">
<path fill="#f0bc8c" opacity="1.00" d=" M 43.74 12.62 C 45.70 11.27 47.83 10.20 50.06 9.35 C 52.86 10.69 55.46 12.37 58.04 14.08 C 58.06 18.70 55.84 22.80 54.57 27.12 C 53.89 30.61 53.56 34.17 52.67 37.62 L 52.52 36.75 C 52.29 35.35 52.02 33.97 51.76 32.58 C 48.84 32.45 45.91 32.29 42.98 32.10 C 44.38 30.16 45.63 28.12 46.78 26.03 C 45.43 22.51 42.11 19.52 42.44 15.53 C 43.26 15.66 44.91 15.92 45.74 16.05 C 45.24 15.20 44.24 13.48 43.74 12.62 Z" />
<path fill="#f0bc8c" opacity="1.00" d=" M 6.27 29.43 C 4.08 22.61 11.92 15.55 18.46 18.33 C 22.48 19.55 24.24 23.69 25.37 27.36 C 30.06 26.05 34.90 27.98 37.66 31.93 C 28.96 33.63 20.00 31.36 11.38 33.57 C 13.13 35.14 14.94 36.65 16.72 38.19 C 11.92 37.47 7.29 34.45 6.27 29.43 Z" />
</g>
<g id="#f9d3b0ff">
<path fill="#f9d3b0" opacity="1.00" d=" M 11.38 33.57 C 20.00 31.36 28.96 33.63 37.66 31.93 C 38.13 33.81 38.60 35.72 38.57 37.68 C 39.83 35.73 41.25 33.90 42.68 32.08 L 42.98 32.10 C 45.91 32.29 48.84 32.45 51.76 32.58 C 52.02 33.97 52.29 35.35 52.52 36.75 C 52.36 40.52 50.91 44.07 49.66 47.59 C 48.49 50.98 44.74 52.28 41.88 53.90 C 37.92 53.52 34.53 50.95 31.84 48.16 C 28.94 47.38 25.88 46.82 23.35 45.10 C 20.67 43.27 19.25 40.19 16.72 38.19 C 14.94 36.65 13.13 35.14 11.38 33.57 Z" />
</g>
</svg>
