<?xml version="1.0" encoding="UTF-8" ?>
<!DOCTYPE svg PUBLIC "-//W3C//DTD SVG 1.1//EN" "http://www.w3.org/Graphics/SVG/1.1/DTD/svg11.dtd">
<svg width="64pt" height="64pt" viewBox="0 0 64 64" version="1.1" xmlns="http://www.w3.org/2000/svg">
<g id="#020302fe">
<path fill="#020302" opacity="1.00" d=" M 12.51 15.98 C 12.23 14.31 13.05 12.19 15.08 12.54 C 27.13 12.59 39.20 12.18 51.23 12.78 C 51.80 25.64 51.44 38.54 51.41 51.41 C 38.55 51.45 25.66 51.78 12.80 51.25 C 12.13 39.51 12.65 27.73 12.51 15.98 M 14.70 14.73 C 14.67 26.25 14.63 37.76 14.77 49.27 C 26.26 49.31 37.75 49.33 49.24 49.26 C 49.36 37.75 49.35 26.24 49.29 14.73 C 37.76 14.62 26.23 14.62 14.70 14.73 Z" />
<path fill="#020302" opacity="1.00" d=" M 29.29 20.90 C 29.32 19.79 29.34 18.68 29.35 17.57 C 30.88 17.61 32.41 17.68 33.94 17.77 L 34.42 17.98 C 34.43 18.65 34.44 19.99 34.45 20.66 C 36.76 21.52 38.88 22.78 40.17 24.95 C 40.27 25.88 40.36 26.80 40.44 27.73 C 38.89 27.71 37.35 27.70 35.80 27.69 C 35.45 24.68 32.32 24.57 29.93 24.47 C 29.47 25.17 28.55 26.56 28.10 27.26 C 31.65 30.52 37.72 29.08 40.52 33.40 C 42.40 37.82 39.28 42.81 34.60 43.39 C 34.59 44.19 34.59 45.78 34.59 46.57 C 33.02 46.58 31.46 46.62 29.90 46.66 C 29.83 45.78 29.68 44.03 29.61 43.15 C 25.63 42.91 23.02 39.28 22.45 35.60 C 24.09 35.54 25.74 35.49 27.38 35.45 C 27.98 39.09 32.71 40.72 35.50 38.44 C 37.11 37.29 35.89 34.90 34.22 34.64 C 30.50 33.58 26.43 32.87 23.73 29.81 C 22.85 26.18 24.43 22.00 28.44 21.26 L 29.29 20.90 Z" />
</g>
<g id="#e1e2e1ff">
<path fill="#e1e2e1" opacity="1.00" d=" M 14.70 14.73 C 26.23 14.62 37.76 14.62 49.29 14.73 C 49.35 26.24 49.36 37.75 49.24 49.26 C 37.75 49.33 26.26 49.31 14.77 49.27 C 14.63 37.76 14.67 26.25 14.70 14.73 M 15.78 15.88 C 15.50 19.85 15.70 23.83 16.09 27.78 C 17.21 28.06 18.32 28.33 19.44 28.61 C 19.71 29.70 19.99 30.79 20.26 31.89 C 21.49 31.94 22.72 31.98 23.96 32.00 C 23.90 31.45 23.79 30.36 23.73 29.81 C 26.43 32.87 30.50 33.58 34.22 34.64 C 35.89 34.90 37.11 37.29 35.50 38.44 C 32.71 40.72 27.98 39.09 27.38 35.45 C 25.74 35.49 24.09 35.54 22.45 35.60 C 23.02 39.28 25.63 42.91 29.61 43.15 C 29.68 44.03 29.83 45.78 29.90 46.66 C 31.46 46.62 33.02 46.58 34.59 46.57 C 34.59 45.78 34.59 44.19 34.60 43.39 C 39.28 42.81 42.40 37.82 40.52 33.40 C 37.72 29.08 31.65 30.52 28.10 27.26 C 28.55 26.56 29.47 25.17 29.93 24.47 C 32.32 24.57 35.45 24.68 35.80 27.69 C 37.35 27.70 38.89 27.71 40.44 27.73 C 40.45 28.87 40.40 30.00 40.29 31.13 C 42.41 31.71 43.83 30.55 44.79 28.76 C 45.82 28.41 46.85 28.07 47.88 27.72 C 48.26 23.80 48.54 19.84 48.13 15.90 C 42.79 15.48 37.41 15.49 32.06 15.84 C 32.67 16.50 33.30 17.14 33.94 17.77 C 32.41 17.68 30.88 17.61 29.35 17.57 C 29.34 18.68 29.32 19.79 29.29 20.90 L 28.44 21.26 C 28.35 19.44 28.25 17.62 28.15 15.80 C 24.03 15.45 19.90 15.54 15.78 15.88 Z" />
</g>
<g id="#f2f1f2ff">
<path fill="#f2f1f2" opacity="1.00" d=" M 15.78 15.88 C 19.90 15.54 24.03 15.45 28.15 15.80 C 28.25 17.62 28.35 19.44 28.44 21.26 C 24.43 22.00 22.85 26.18 23.73 29.81 C 23.79 30.36 23.90 31.45 23.96 32.00 C 22.72 31.98 21.49 31.94 20.26 31.89 C 19.99 30.79 19.71 29.70 19.44 28.61 C 18.32 28.33 17.21 28.06 16.09 27.78 C 15.70 23.83 15.50 19.85 15.78 15.88 Z" />
<path fill="#f2f1f2" opacity="1.00" d=" M 32.06 15.84 C 37.41 15.49 42.79 15.48 48.13 15.90 C 48.54 19.84 48.26 23.80 47.88 27.72 C 46.85 28.07 45.82 28.41 44.79 28.76 C 43.83 30.55 42.41 31.71 40.29 31.13 C 40.40 30.00 40.45 28.87 40.44 27.73 C 40.36 26.80 40.27 25.88 40.17 24.95 C 38.88 22.78 36.76 21.52 34.45 20.66 C 34.44 19.99 34.43 18.65 34.42 17.98 L 33.94 17.77 C 33.30 17.14 32.67 16.50 32.06 15.84 Z" />
</g>
</svg>
