<?xml version="1.0" encoding="UTF-8" ?>
<!DOCTYPE svg PUBLIC "-//W3C//DTD SVG 1.1//EN" "http://www.w3.org/Graphics/SVG/1.1/DTD/svg11.dtd">
<svg width="64pt" height="64pt" viewBox="0 0 64 64" version="1.1" xmlns="http://www.w3.org/2000/svg">
<g id="#01000146">
<path fill="#010001" opacity="0.27" d=" M 12.94 3.08 C 17.30 3.02 21.68 2.82 26.04 3.07 L 25.81 4.05 C 21.60 4.02 17.40 4.00 13.20 4.04 L 12.94 3.08 Z" />
<path fill="#010001" opacity="0.27" d=" M 26.95 5.20 L 27.92 4.94 C 28.09 18.62 28.00 32.30 27.99 45.98 L 27.03 46.01 C 26.84 32.41 27.15 18.80 26.95 5.20 Z" />
<path fill="#010001" opacity="0.27" d=" M 13.00 60.00 C 25.67 60.00 38.33 59.99 51.00 60.01 L 51.00 60.98 C 38.34 60.98 25.68 61.10 13.02 60.96 L 13.00 60.00 Z" />
</g>
<g id="#060506fa">
<path fill="#060506" opacity="0.98" d=" M 13.20 4.04 C 17.40 4.00 21.60 4.02 25.81 4.05 C 26.09 4.34 26.66 4.91 26.95 5.20 C 27.15 18.80 26.84 32.41 27.03 46.01 L 27.09 46.97 C 35.15 47.04 43.21 47.17 51.26 46.83 C 52.16 50.82 51.94 54.93 52.03 58.99 C 51.77 59.24 51.26 59.75 51.00 60.01 C 38.33 59.99 25.67 60.00 13.00 60.00 C 12.75 59.75 12.25 59.24 12.00 58.99 C 12.05 41.06 11.92 23.13 12.05 5.20 C 12.34 4.91 12.91 4.33 13.20 4.04 M 13.04 6.01 C 12.95 23.34 12.99 40.68 13.03 58.02 L 14.00 57.94 C 25.99 58.15 38.00 57.97 49.99 57.97 L 50.95 57.99 C 50.24 55.58 53.26 49.01 50.00 49.01 L 49.98 48.05 C 41.67 47.84 33.35 48.03 25.03 48.01 C 24.94 44.58 24.94 41.15 24.71 37.74 C 25.64 31.84 24.75 25.72 24.78 19.76 C 25.36 15.21 24.92 10.59 24.97 6.02 C 22.23 6.02 16.74 6.02 14.00 6.02 L 13.04 6.01 Z" />
</g>
<g id="#00000081">
<path fill="#000000" opacity="0.51" d=" M 11.09 4.97 L 12.05 5.20 C 11.92 23.13 12.05 41.06 12.00 58.99 L 11.02 59.00 C 11.05 40.99 10.85 22.97 11.09 4.97 Z" />
<path fill="#000000" opacity="0.51" d=" M 51.05 45.97 C 51.53 45.98 52.48 46.02 52.95 46.04 C 53.00 50.35 53.16 54.67 52.96 58.98 L 52.03 58.99 C 51.94 54.93 52.16 50.82 51.26 46.83 L 51.05 45.97 Z" />
</g>
<g id="#4a4a4aff">
<path fill="#4a4a4a" opacity="1.00" d=" M 13.04 6.01 L 14.00 6.02 C 14.04 11.27 13.85 16.53 14.17 21.77 C 14.05 27.77 13.94 33.78 14.11 39.78 C 14.03 45.83 13.99 51.89 14.00 57.94 L 13.03 58.02 C 12.99 40.68 12.95 23.34 13.04 6.01 Z" />
<path fill="#4a4a4a" opacity="1.00" d=" M 50.00 49.01 C 53.26 49.01 50.24 55.58 50.95 57.99 L 49.99 57.97 C 50.00 54.98 49.99 51.99 50.00 49.01 Z" />
</g>
<g id="#f5f4f5ff">
<path fill="#f5f4f5" opacity="1.00" d=" M 14.00 6.02 C 16.74 6.02 22.23 6.02 24.97 6.02 C 24.92 10.59 25.36 15.21 24.78 19.76 C 25.05 23.06 23.59 29.03 19.07 27.98 C 15.93 27.52 15.57 24.03 14.17 21.77 C 13.85 16.53 14.04 11.27 14.00 6.02 Z" />
</g>
<g id="#ddddddff">
<path fill="#dddddd" opacity="1.00" d=" M 19.07 27.98 C 23.59 29.03 25.05 23.06 24.78 19.76 C 24.75 25.72 25.64 31.84 24.71 37.74 C 23.97 39.77 23.32 41.82 22.62 43.86 C 18.02 46.28 16.30 42.40 14.11 39.78 C 13.94 33.78 14.05 27.77 14.17 21.77 C 15.57 24.03 15.93 27.52 19.07 27.98 Z" />
</g>
<g id="#c7c6c7ff">
<path fill="#c7c6c7" opacity="1.00" d=" M 22.62 43.86 C 23.32 41.82 23.97 39.77 24.71 37.74 C 24.94 41.15 24.94 44.58 25.03 48.01 L 25.08 48.97 C 33.39 49.11 41.69 48.97 50.00 49.01 C 49.99 51.99 50.00 54.98 49.99 57.97 C 38.00 57.97 25.99 58.15 14.00 57.94 C 13.99 51.89 14.03 45.83 14.11 39.78 C 16.30 42.40 18.02 46.28 22.62 43.86 Z" />
</g>
<g id="#000100bb">
<path fill="#000100" opacity="0.73" d=" M 27.03 46.01 L 27.99 45.98 C 35.68 46.00 43.36 45.94 51.05 45.97 L 51.26 46.83 C 43.21 47.17 35.15 47.04 27.09 46.97 L 27.03 46.01 Z" />
</g>
<g id="#666766ff">
<path fill="#666766" opacity="1.00" d=" M 25.03 48.01 C 33.35 48.03 41.67 47.84 49.98 48.05 L 50.00 49.01 C 41.69 48.97 33.39 49.11 25.08 48.97 L 25.03 48.01 Z" />
</g>
</svg>
