<?xml version="1.0" encoding="UTF-8" ?>
<!DOCTYPE svg PUBLIC "-//W3C//DTD SVG 1.1//EN" "http://www.w3.org/Graphics/SVG/1.1/DTD/svg11.dtd">
<svg width="64pt" height="64pt" viewBox="0 0 64 64" version="1.1" xmlns="http://www.w3.org/2000/svg">
<g id="#050505fe">
<path fill="#050505" opacity="1.00" d=" M 38.39 10.38 C 41.18 8.32 42.91 4.06 46.94 4.58 C 46.90 7.39 47.05 10.34 45.82 12.95 C 44.53 15.92 42.00 18.05 39.95 20.47 C 44.23 18.50 47.08 14.44 51.39 12.54 C 54.22 11.19 57.39 10.92 60.44 10.44 C 60.91 11.68 62.47 13.64 60.75 14.62 C 56.22 17.52 49.68 19.61 49.40 26.02 C 52.03 25.31 54.47 24.11 56.85 22.80 C 57.31 23.39 58.21 24.57 58.67 25.16 C 57.86 28.38 57.07 32.13 54.05 34.03 C 51.38 35.50 48.31 36.18 45.88 38.09 C 47.81 37.72 49.71 37.20 51.60 36.65 C 53.94 39.33 51.75 42.63 49.69 44.69 C 46.22 48.55 40.62 49.39 37.20 53.29 C 32.76 58.06 25.96 60.24 19.56 59.35 C 10.20 58.21 2.25 49.56 2.25 40.07 C 1.71 32.12 6.47 24.14 13.67 20.76 C 17.40 18.96 22.05 19.41 25.14 16.31 C 28.86 12.80 34.77 14.02 38.39 10.38 M 39.58 12.53 C 35.61 15.95 29.69 15.04 25.75 18.58 C 29.60 20.01 33.71 21.23 36.57 24.38 C 40.86 27.99 42.39 33.64 43.01 38.98 C 42.72 41.99 42.29 44.99 41.19 47.82 C 44.73 45.64 48.47 43.45 50.53 39.67 C 48.92 40.04 47.30 40.51 45.62 40.52 C 44.34 39.63 44.34 38.02 44.05 36.65 C 46.47 33.28 51.26 33.99 53.92 30.99 C 55.22 29.67 55.48 27.71 56.24 26.09 C 53.65 27.20 49.80 29.39 47.48 26.59 C 47.18 24.98 47.46 23.34 47.54 21.72 C 50.44 17.59 54.88 15.02 59.39 12.98 C 56.86 13.31 54.23 13.50 52.01 14.88 C 47.46 16.83 44.87 21.75 39.79 22.72 C 39.06 22.07 38.02 21.66 37.63 20.72 C 37.84 18.29 40.13 16.97 41.52 15.23 C 43.58 13.03 44.41 10.05 45.10 7.19 C 43.25 8.96 41.53 10.86 39.58 12.53 M 17.44 21.77 C 10.60 23.71 5.28 30.14 4.58 37.21 C 3.50 45.14 8.70 53.26 16.13 56.05 C 24.73 59.70 35.62 54.94 39.07 46.31 C 42.91 38.47 39.37 28.40 32.17 23.84 C 27.89 20.97 22.35 20.44 17.44 21.77 Z" />
<path fill="#050505" opacity="1.00" d=" M 21.62 25.73 C 30.21 24.85 38.10 34.14 35.37 42.48 C 33.53 51.36 21.28 55.89 14.43 49.60 C 8.56 45.47 7.55 36.40 12.04 30.91 C 14.42 28.07 17.90 26.10 21.62 25.73 M 11.72 33.56 C 14.13 34.74 16.82 34.73 19.44 34.75 C 20.09 32.41 20.58 30.03 20.88 27.61 C 17.05 28.15 14.05 30.62 11.72 33.56 M 24.39 27.49 C 24.59 29.94 24.95 32.39 25.79 34.71 C 28.31 34.70 30.83 34.56 33.33 34.27 C 31.50 30.77 28.21 28.40 24.39 27.49 M 19.81 36.87 C 18.41 38.21 19.42 40.18 19.64 41.78 C 20.32 42.01 21.68 42.45 22.35 42.67 C 23.32 42.49 24.28 42.32 25.24 42.15 C 26.41 39.76 26.08 37.21 23.99 35.46 C 22.63 35.93 20.76 35.62 19.81 36.87 M 11.19 36.94 C 10.10 40.77 11.75 44.58 14.28 47.43 C 15.37 45.31 16.28 43.11 17.00 40.84 C 15.11 39.47 13.17 38.17 11.19 36.94 M 27.73 41.00 C 28.32 43.38 29.27 45.65 30.42 47.81 C 33.34 45.20 34.20 41.31 34.52 37.57 C 32.11 38.40 29.86 39.60 27.73 41.00 M 16.79 49.69 C 20.38 50.94 24.32 51.15 27.86 49.63 C 26.30 48.12 24.81 46.51 22.99 45.30 C 20.35 45.57 18.66 48.05 16.79 49.69 Z" />
</g>
<g id="#fcfcfcff">
<path fill="#fcfcfc" opacity="1.00" d=" M 39.58 12.53 C 41.53 10.86 43.25 8.96 45.10 7.19 C 44.41 10.05 43.58 13.03 41.52 15.23 C 40.13 16.97 37.84 18.29 37.63 20.72 C 38.02 21.66 39.06 22.07 39.79 22.72 C 44.87 21.75 47.46 16.83 52.01 14.88 C 54.23 13.50 56.86 13.31 59.39 12.98 C 54.88 15.02 50.44 17.59 47.54 21.72 C 47.46 23.34 47.18 24.98 47.48 26.59 C 49.80 29.39 53.65 27.20 56.24 26.09 C 55.48 27.71 55.22 29.67 53.92 30.99 C 51.26 33.99 46.47 33.28 44.05 36.65 C 44.34 38.02 44.34 39.63 45.62 40.52 C 47.30 40.51 48.92 40.04 50.53 39.67 C 48.47 43.45 44.73 45.64 41.19 47.82 C 42.29 44.99 42.72 41.99 43.01 38.98 C 42.39 33.64 40.86 27.99 36.57 24.38 C 33.71 21.23 29.60 20.01 25.75 18.58 C 29.69 15.04 35.61 15.95 39.58 12.53 Z" />
<path fill="#fcfcfc" opacity="1.00" d=" M 17.44 21.77 C 22.35 20.44 27.89 20.97 32.17 23.84 C 39.37 28.40 42.91 38.47 39.07 46.31 C 35.62 54.94 24.73 59.70 16.13 56.05 C 8.70 53.26 3.50 45.14 4.58 37.21 C 5.28 30.14 10.60 23.71 17.44 21.77 M 21.62 25.73 C 17.90 26.10 14.42 28.07 12.04 30.91 C 7.55 36.40 8.56 45.47 14.43 49.60 C 21.28 55.89 33.53 51.36 35.37 42.48 C 38.10 34.14 30.21 24.85 21.62 25.73 Z" />
<path fill="#fcfcfc" opacity="1.00" d=" M 11.72 33.56 C 14.05 30.62 17.05 28.15 20.88 27.61 C 20.58 30.03 20.09 32.41 19.44 34.75 C 16.82 34.73 14.13 34.74 11.72 33.56 Z" />
<path fill="#fcfcfc" opacity="1.00" d=" M 24.39 27.49 C 28.21 28.40 31.50 30.77 33.33 34.27 C 30.83 34.56 28.31 34.70 25.79 34.71 C 24.95 32.39 24.59 29.94 24.39 27.49 Z" />
<path fill="#fcfcfc" opacity="1.00" d=" M 19.81 36.87 C 20.76 35.62 22.63 35.93 23.99 35.46 C 26.08 37.21 26.41 39.76 25.24 42.15 C 24.28 42.32 23.32 42.49 22.35 42.67 C 21.68 42.45 20.32 42.01 19.64 41.78 C 19.42 40.18 18.41 38.21 19.81 36.87 Z" />
<path fill="#fcfcfc" opacity="1.00" d=" M 11.19 36.94 C 13.17 38.17 15.11 39.47 17.00 40.84 C 16.28 43.11 15.37 45.31 14.28 47.43 C 11.75 44.58 10.10 40.77 11.19 36.94 Z" />
<path fill="#fcfcfc" opacity="1.00" d=" M 27.73 41.00 C 29.86 39.60 32.11 38.40 34.52 37.57 C 34.20 41.31 33.34 45.20 30.42 47.81 C 29.27 45.65 28.32 43.38 27.73 41.00 Z" />
<path fill="#fcfcfc" opacity="1.00" d=" M 16.79 49.69 C 18.66 48.05 20.35 45.57 22.99 45.30 C 24.81 46.51 26.30 48.12 27.86 49.63 C 24.32 51.15 20.38 50.94 16.79 49.69 Z" />
</g>
</svg>
