<?xml version="1.0" encoding="UTF-8" ?>
<!DOCTYPE svg PUBLIC "-//W3C//DTD SVG 1.1//EN" "http://www.w3.org/Graphics/SVG/1.1/DTD/svg11.dtd">
<svg width="64pt" height="64pt" viewBox="0 0 64 64" version="1.1" xmlns="http://www.w3.org/2000/svg">
<g id="#1a171c61">
<path fill="#1a171c" opacity="0.38" d=" M 25.80 8.18 C 29.56 6.19 34.45 6.66 38.43 7.91 C 34.22 8.10 30.00 7.98 25.80 8.18 Z" />
<path fill="#1a171c" opacity="0.38" d=" M 23.54 14.05 C 22.60 12.62 23.14 8.90 25.28 9.19 C 25.22 10.96 24.42 12.56 23.54 14.05 Z" />
<path fill="#1a171c" opacity="0.38" d=" M 38.63 8.56 C 41.38 9.87 40.91 14.04 41.88 16.64 C 40.43 14.11 39.51 11.33 38.63 8.56 Z" />
<path fill="#1a171c" opacity="0.38" d=" M 16.89 20.87 C 15.75 19.19 18.85 17.04 20.20 18.44 C 19.23 19.42 18.08 20.20 16.89 20.87 Z" />
<path fill="#1a171c" opacity="0.38" d=" M 9.44 26.32 C 8.39 24.83 11.03 22.94 12.23 24.21 C 11.49 25.14 10.53 25.85 9.44 26.32 Z" />
<path fill="#1a171c" opacity="0.38" d=" M 51.71 43.21 C 53.51 41.87 55.32 40.55 57.15 39.25 C 56.53 41.36 54.51 42.38 52.91 43.64 C 53.75 46.20 55.62 48.69 54.75 51.51 C 53.59 48.79 52.65 46.00 51.71 43.21 Z" />
<path fill="#1a171c" opacity="0.38" d=" M 9.76 54.17 C 13.86 54.19 17.97 54.08 22.07 54.22 C 18.06 54.96 13.62 55.99 9.76 54.17 Z" />
</g>
<g id="#070508ff">
<path fill="#070508" opacity="1.00" d=" M 25.39 8.20 L 25.80 8.18 C 30.00 7.98 34.22 8.10 38.43 7.91 C 38.48 8.07 38.58 8.39 38.63 8.56 C 39.51 11.33 40.43 14.11 41.88 16.64 C 48.54 22.59 56.86 26.65 63.04 33.13 C 62.50 36.22 59.25 37.37 57.15 39.25 C 55.32 40.55 53.51 41.87 51.71 43.21 C 52.65 46.00 53.59 48.79 54.75 51.51 C 54.93 51.93 55.29 52.79 55.46 53.22 C 51.45 55.61 46.24 53.93 41.74 54.34 C 41.39 53.80 40.68 52.72 40.32 52.18 C 37.21 53.36 34.98 56.03 31.99 57.46 C 29.02 55.84 26.56 53.43 23.48 52.00 C 23.13 52.56 22.43 53.67 22.07 54.22 C 17.97 54.08 13.86 54.19 9.76 54.17 L 8.77 54.17 C 8.90 53.31 9.16 51.60 9.29 50.75 C 10.86 48.54 10.95 45.54 12.47 43.23 C 12.20 43.04 11.67 42.66 11.40 42.47 C 8.18 40.45 5.07 38.23 2.22 35.72 C 1.11 34.77 0.64 32.85 2.02 31.91 C 4.33 29.85 6.93 28.11 9.44 26.32 C 10.53 25.85 11.49 25.14 12.23 24.21 C 13.62 22.89 15.27 21.89 16.89 20.87 C 18.08 20.20 19.23 19.42 20.20 18.44 C 21.66 17.27 22.67 15.69 23.54 14.05 C 24.42 12.56 25.22 10.96 25.28 9.19 L 25.39 8.20 M 27.27 10.02 C 25.70 14.39 23.94 18.70 22.39 23.08 L 22.46 23.24 C 19.69 29.35 17.19 35.89 15.54 42.31 L 15.33 41.82 C 13.81 45.25 12.54 48.79 11.34 52.34 C 14.57 52.28 17.80 52.26 21.03 52.27 C 21.96 49.40 23.08 46.59 23.75 43.64 C 28.93 42.19 34.51 43.10 39.85 43.18 C 40.85 46.21 41.90 49.22 42.92 52.24 C 46.13 52.27 49.35 52.25 52.57 52.28 C 51.46 48.88 50.41 45.45 48.87 42.21 C 47.09 37.29 45.52 32.27 43.40 27.49 C 41.41 21.66 39.04 15.96 37.20 10.07 C 33.89 9.95 30.58 9.97 27.27 10.02 M 7.51 30.52 L 7.68 31.11 C 6.34 31.61 3.48 32.61 4.45 34.40 C 7.32 36.57 10.33 38.57 13.12 40.85 C 15.09 36.54 16.86 32.06 18.06 27.46 C 19.60 25.70 20.10 23.27 20.78 21.08 C 16.19 23.98 12.06 27.55 7.51 30.52 M 43.37 20.74 C 44.44 24.82 46.38 28.58 47.66 32.57 L 47.73 32.56 C 48.59 35.40 49.62 38.19 50.78 40.93 C 53.60 38.13 57.90 36.64 59.96 33.27 C 59.04 32.61 58.13 31.93 57.22 31.24 L 56.78 31.30 C 52.72 27.29 47.58 24.58 43.37 20.74 M 24.14 49.04 C 26.71 50.99 29.40 52.79 32.02 54.68 C 34.51 52.75 37.19 51.08 39.55 48.98 C 39.08 47.65 38.62 46.32 38.16 44.99 C 34.08 44.99 30.00 45.00 25.92 44.99 C 25.31 46.34 24.72 47.69 24.14 49.04 Z" />
<path fill="#070508" opacity="1.00" d=" M 29.32 28.38 C 30.36 26.70 30.05 22.78 32.74 23.23 C 33.89 25.62 34.58 28.18 35.49 30.67 C 35.98 32.24 36.33 33.84 36.62 35.46 C 33.42 35.52 30.20 35.70 27.04 35.19 C 27.76 32.91 28.54 30.64 29.32 28.38 Z" />
</g>
<g id="#c6dff6ff">
<path fill="#c6dff6" opacity="1.00" d=" M 27.27 10.02 C 30.58 9.97 33.89 9.95 37.20 10.07 C 39.04 15.96 41.41 21.66 43.40 27.49 C 40.78 28.58 38.14 29.64 35.49 30.67 C 34.58 28.18 33.89 25.62 32.74 23.23 C 30.05 22.78 30.36 26.70 29.32 28.38 C 27.73 28.18 26.16 27.89 24.58 27.70 C 23.89 26.21 23.18 24.72 22.46 23.24 L 22.39 23.08 C 23.94 18.70 25.70 14.39 27.27 10.02 Z" />
</g>
<g id="#cf8fc8ff">
<path fill="#cf8fc8" opacity="1.00" d=" M 7.51 30.52 C 12.06 27.55 16.19 23.98 20.78 21.08 C 20.10 23.27 19.60 25.70 18.06 27.46 C 16.15 27.94 15.76 29.76 15.28 31.39 C 13.16 32.58 10.89 33.48 8.47 33.81 C 8.27 33.13 7.87 31.78 7.68 31.11 L 7.51 30.52 Z" />
<path fill="#cf8fc8" opacity="1.00" d=" M 43.37 20.74 C 47.58 24.58 52.72 27.29 56.78 31.30 C 53.75 31.68 50.74 32.09 47.73 32.56 L 47.66 32.57 C 46.38 28.58 44.44 24.82 43.37 20.74 Z" />
</g>
<g id="#c5c0e2ff">
<path fill="#c5c0e2" opacity="1.00" d=" M 15.54 42.31 C 17.19 35.89 19.69 29.35 22.46 23.24 C 23.18 24.72 23.89 26.21 24.58 27.70 C 26.16 27.89 27.73 28.18 29.32 28.38 C 28.54 30.64 27.76 32.91 27.04 35.19 C 30.20 35.70 33.42 35.52 36.62 35.46 C 36.33 33.84 35.98 32.24 35.49 30.67 C 38.14 29.64 40.78 28.58 43.40 27.49 C 45.52 32.27 47.09 37.29 48.87 42.21 C 47.82 43.70 46.42 44.84 44.78 45.59 C 44.22 44.61 43.67 43.63 43.12 42.65 C 42.30 42.78 40.66 43.05 39.85 43.18 C 34.51 43.10 28.93 42.19 23.75 43.64 C 21.39 44.22 18.96 44.45 16.54 44.64 C 16.29 44.06 15.79 42.89 15.54 42.31 Z" />
</g>
<g id="#bc8ac5ff">
<path fill="#bc8ac5" opacity="1.00" d=" M 15.28 31.39 C 15.76 29.76 16.15 27.94 18.06 27.46 C 16.86 32.06 15.09 36.54 13.12 40.85 C 10.33 38.57 7.32 36.57 4.45 34.40 C 3.48 32.61 6.34 31.61 7.68 31.11 C 7.87 31.78 8.27 33.13 8.47 33.81 C 10.89 33.48 13.16 32.58 15.28 31.39 Z" />
<path fill="#bc8ac5" opacity="1.00" d=" M 56.78 31.30 L 57.22 31.24 C 58.13 31.93 59.04 32.61 59.96 33.27 C 57.90 36.64 53.60 38.13 50.78 40.93 C 49.62 38.19 48.59 35.40 47.73 32.56 C 50.74 32.09 53.75 31.68 56.78 31.30 Z" />
</g>
<g id="#c2acd5ff">
<path fill="#c2acd5" opacity="1.00" d=" M 11.40 42.47 C 11.67 42.66 12.20 43.04 12.47 43.23 C 10.95 45.54 10.86 48.54 9.29 50.75 C 9.51 49.42 9.79 48.10 9.90 46.76 L 10.64 46.67 C 10.95 45.26 11.83 43.98 11.40 42.47 Z" />
<path fill="#c2acd5" opacity="1.00" d=" M 15.33 41.82 L 15.54 42.31 C 15.79 42.89 16.29 44.06 16.54 44.64 C 18.96 44.45 21.39 44.22 23.75 43.64 C 23.08 46.59 21.96 49.40 21.03 52.27 C 17.80 52.26 14.57 52.28 11.34 52.34 C 12.54 48.79 13.81 45.25 15.33 41.82 Z" />
<path fill="#c2acd5" opacity="1.00" d=" M 48.87 42.21 C 50.41 45.45 51.46 48.88 52.57 52.28 C 49.35 52.25 46.13 52.27 42.92 52.24 C 41.90 49.22 40.85 46.21 39.85 43.18 C 40.66 43.05 42.30 42.78 43.12 42.65 C 43.67 43.63 44.22 44.61 44.78 45.59 C 46.42 44.84 47.82 43.70 48.87 42.21 Z" />
</g>
<g id="#8177b4ff">
<path fill="#8177b4" opacity="1.00" d=" M 24.14 49.04 C 24.72 47.69 25.31 46.34 25.92 44.99 C 30.00 45.00 34.08 44.99 38.16 44.99 C 38.62 46.32 39.08 47.65 39.55 48.98 C 37.19 51.08 34.51 52.75 32.02 54.68 C 29.40 52.79 26.71 50.99 24.14 49.04 Z" />
</g>
</svg>
