<?xml version="1.0" encoding="UTF-8" ?>
<!DOCTYPE svg PUBLIC "-//W3C//DTD SVG 1.1//EN" "http://www.w3.org/Graphics/SVG/1.1/DTD/svg11.dtd">
<svg width="64pt" height="64pt" viewBox="0 0 64 64" version="1.1" xmlns="http://www.w3.org/2000/svg">
<g id="#060806f3">
<path fill="#060806" opacity="0.95" d=" M 29.06 5.13 C 31.29 3.38 34.53 3.59 36.70 5.33 C 43.21 10.18 50.03 14.62 56.56 19.45 C 59.79 21.57 59.52 25.72 59.21 29.09 C 59.06 31.81 56.52 33.97 53.87 34.07 C 53.59 41.08 53.87 48.10 53.72 55.11 C 53.78 58.02 50.87 60.27 48.08 60.02 C 37.68 60.08 27.29 60.09 16.89 60.02 C 13.78 60.14 11.29 56.95 11.67 53.98 C 11.66 47.37 11.77 40.76 11.59 34.16 C 8.77 34.28 5.68 32.97 4.92 30.01 C 4.59 26.72 3.91 22.49 6.99 20.24 C 14.34 15.19 21.71 10.18 29.06 5.13 M 30.27 7.19 C 23.11 12.08 15.99 17.01 8.82 21.87 C 6.22 23.80 6.82 27.55 7.59 30.25 C 8.89 32.39 11.92 31.37 13.99 31.89 C 13.97 39.30 14.01 46.72 14.08 54.14 C 14.07 55.80 15.11 57.95 17.07 57.63 C 27.37 57.65 37.67 57.65 47.97 57.64 C 49.93 57.77 51.79 55.99 51.49 53.98 C 51.45 46.64 51.55 39.31 51.50 31.97 C 53.23 31.70 55.03 31.49 56.50 30.47 C 56.73 27.61 58.10 23.72 55.42 21.63 C 48.93 16.74 42.10 12.34 35.63 7.44 C 34.14 5.96 31.92 6.02 30.27 7.19 Z" />
</g>
<g id="#ebebebff">
<path fill="#ebebeb" opacity="1.00" d=" M 30.27 7.19 C 31.92 6.02 34.14 5.96 35.63 7.44 C 42.10 12.34 48.93 16.74 55.42 21.63 C 58.10 23.72 56.73 27.61 56.50 30.47 C 55.03 31.49 53.23 31.70 51.50 31.97 C 45.70 32.93 39.82 32.38 33.97 32.49 C 27.31 32.37 20.61 32.95 13.99 31.89 C 11.92 31.37 8.89 32.39 7.59 30.25 C 6.82 27.55 6.22 23.80 8.82 21.87 C 15.99 17.01 23.11 12.08 30.27 7.19 Z" />
</g>
<g id="#cfcfcfff">
<path fill="#cfcfcf" opacity="1.00" d=" M 13.99 31.89 C 20.61 32.95 27.31 32.37 33.97 32.49 C 39.82 32.38 45.70 32.93 51.50 31.97 C 51.55 39.31 51.45 46.64 51.49 53.98 C 51.79 55.99 49.93 57.77 47.97 57.64 C 37.67 57.65 27.37 57.65 17.07 57.63 C 15.11 57.95 14.07 55.80 14.08 54.14 C 14.01 46.72 13.97 39.30 13.99 31.89 Z" />
</g>
</svg>
