<?xml version="1.0" encoding="UTF-8" ?>
<!DOCTYPE svg PUBLIC "-//W3C//DTD SVG 1.1//EN" "http://www.w3.org/Graphics/SVG/1.1/DTD/svg11.dtd">
<svg width="64pt" height="64pt" viewBox="0 0 64 64" version="1.1" xmlns="http://www.w3.org/2000/svg">
<g id="#070100fe">
<path fill="#070100" opacity="1.00" d=" M 22.93 9.38 C 23.34 6.83 24.76 3.72 27.85 3.98 C 36.75 4.12 45.66 3.71 54.55 4.23 C 54.95 5.80 55.42 7.36 55.32 8.99 C 55.21 24.33 55.33 39.66 55.27 55.00 C 55.57 57.45 53.60 59.93 51.07 59.92 C 41.71 60.23 32.33 59.76 22.96 60.07 C 19.90 60.00 16.72 60.36 13.75 59.44 C 10.96 57.61 11.87 53.87 11.69 51.05 C 12.01 40.32 11.15 29.54 12.17 18.85 C 11.33 17.90 10.46 16.97 9.60 16.04 C 9.59 15.24 9.58 13.64 9.57 12.84 C 11.88 10.49 14.22 8.14 16.90 6.21 C 18.40 7.43 19.83 8.73 21.26 10.03 C 21.68 9.87 22.51 9.54 22.93 9.38 M 26.69 6.28 C 26.28 7.04 25.46 8.55 25.06 9.31 C 29.74 9.72 34.46 9.71 39.14 9.37 C 39.70 8.25 40.43 7.23 41.25 6.29 C 36.40 6.41 31.54 6.17 26.69 6.28 M 40.31 11.61 C 34.57 11.71 28.83 11.59 23.09 11.71 C 21.94 12.86 20.79 14.02 19.64 15.17 C 17.74 17.05 15.87 18.97 13.99 20.87 C 13.96 23.16 13.86 25.45 14.00 27.74 C 13.97 37.14 13.96 46.55 14.08 55.95 C 14.40 56.36 15.05 57.18 15.38 57.59 C 27.77 57.71 40.16 57.66 52.54 57.61 C 53.31 47.73 52.93 37.79 53.01 27.88 C 53.14 22.51 52.99 17.14 52.93 11.77 C 53.06 9.97 52.98 8.17 52.97 6.37 C 49.93 6.39 46.88 6.39 43.84 6.38 C 42.65 8.12 41.46 9.85 40.31 11.61 M 15.43 11.32 C 13.89 12.12 12.55 13.22 11.25 14.35 C 12.06 15.29 12.88 16.22 13.69 17.16 C 15.73 15.41 17.67 13.54 19.56 11.64 C 18.59 10.73 17.61 9.82 16.63 8.92 C 16.33 9.52 15.73 10.72 15.43 11.32 Z" />
<path fill="#070100" opacity="1.00" d=" M 17.66 22.20 C 18.20 22.18 19.28 22.12 19.82 22.09 C 23.91 24.94 26.91 29.07 30.59 32.41 C 31.64 33.14 32.47 34.69 33.92 34.51 C 39.13 30.38 43.04 24.79 48.55 20.98 C 48.56 24.78 45.15 26.91 42.81 29.34 C 40.22 31.84 37.73 34.43 35.21 36.99 C 39.86 42.04 45.41 46.31 49.37 51.97 C 46.20 52.30 44.34 49.57 42.35 47.62 C 39.47 44.56 36.48 41.60 33.40 38.74 C 29.40 42.65 25.62 46.78 21.56 50.63 C 20.53 51.79 18.87 51.60 17.51 51.96 C 21.56 46.35 27.10 42.07 31.78 37.00 C 29.51 34.66 27.24 32.34 24.90 30.08 C 22.32 27.61 19.83 25.05 17.66 22.20 Z" />
</g>
<g id="#c82d34ff">
<path fill="#c82d34" opacity="1.00" d=" M 40.31 11.61 C 41.46 9.85 42.65 8.12 43.84 6.38 C 46.88 6.39 49.93 6.39 52.97 6.37 C 52.98 8.17 53.06 9.97 52.93 11.77 C 52.66 14.50 52.17 17.20 51.71 19.90 C 41.22 20.52 30.68 20.42 20.19 19.84 C 20.00 18.29 19.81 16.73 19.64 15.17 C 20.79 14.02 21.94 12.86 23.09 11.71 C 28.83 11.59 34.57 11.71 40.31 11.61 Z" />
<path fill="#c82d34" opacity="1.00" d=" M 15.43 11.32 C 15.73 10.72 16.33 9.52 16.63 8.92 C 17.61 9.82 18.59 10.73 19.56 11.64 C 17.67 13.54 15.73 15.41 13.69 17.16 C 12.88 16.22 12.06 15.29 11.25 14.35 C 12.55 13.22 13.89 12.12 15.43 11.32 Z" />
</g>
<g id="#b42b39ff">
<path fill="#b42b39" opacity="1.00" d=" M 51.71 19.90 C 52.17 17.20 52.66 14.50 52.93 11.77 C 52.99 17.14 53.14 22.51 53.01 27.88 C 52.57 29.42 52.08 30.98 51.21 32.35 C 48.01 33.37 44.10 32.90 42.81 29.34 C 45.15 26.91 48.56 24.78 48.55 20.98 C 43.04 24.79 39.13 30.38 33.92 34.51 C 32.47 34.69 31.64 33.14 30.59 32.41 C 26.91 29.07 23.91 24.94 19.82 22.09 C 19.28 22.12 18.20 22.18 17.66 22.20 C 19.83 25.05 22.32 27.61 24.90 30.08 C 24.42 30.72 23.47 32.01 22.99 32.66 C 21.05 32.60 19.09 32.63 17.16 32.33 C 15.64 31.19 14.80 29.42 14.00 27.74 C 13.86 25.45 13.96 23.16 13.99 20.87 C 15.87 18.97 17.74 17.05 19.64 15.17 C 19.81 16.73 20.00 18.29 20.19 19.84 C 30.68 20.42 41.22 20.52 51.71 19.90 Z" />
</g>
<g id="#962842ff">
<path fill="#962842" opacity="1.00" d=" M 14.00 27.74 C 14.80 29.42 15.64 31.19 17.16 32.33 C 19.09 32.63 21.05 32.60 22.99 32.66 C 23.47 32.01 24.42 30.72 24.90 30.08 C 27.24 32.34 29.51 34.66 31.78 37.00 C 27.10 42.07 21.56 46.35 17.51 51.96 C 18.87 51.60 20.53 51.79 21.56 50.63 C 25.62 46.78 29.40 42.65 33.40 38.74 C 36.48 41.60 39.47 44.56 42.35 47.62 C 44.34 49.57 46.20 52.30 49.37 51.97 C 45.41 46.31 39.86 42.04 35.21 36.99 C 37.73 34.43 40.22 31.84 42.81 29.34 C 44.10 32.90 48.01 33.37 51.21 32.35 C 52.08 30.98 52.57 29.42 53.01 27.88 C 52.93 37.79 53.31 47.73 52.54 57.61 C 40.16 57.66 27.77 57.71 15.38 57.59 C 15.05 57.18 14.40 56.36 14.08 55.95 C 13.96 46.55 13.97 37.14 14.00 27.74 Z" />
</g>
</svg>
