<?xml version="1.0" encoding="UTF-8" ?>
<!DOCTYPE svg PUBLIC "-//W3C//DTD SVG 1.1//EN" "http://www.w3.org/Graphics/SVG/1.1/DTD/svg11.dtd">
<svg width="250pt" height="250pt" viewBox="0 0 250 250" version="1.1" xmlns="http://www.w3.org/2000/svg">
<g id="#afc877ff">
<path fill="#afc877" opacity="1.00" d=" M 0.00 0.00 L 46.37 0.00 C 43.03 5.54 40.43 11.48 37.07 17.01 C 33.28 22.48 36.20 29.29 37.13 35.20 C 42.36 28.65 46.94 21.60 51.88 14.83 C 53.79 12.58 53.18 9.60 52.83 6.93 C 49.80 8.49 46.95 10.35 44.00 12.05 C 45.34 8.01 46.77 4.00 48.24 0.00 L 113.15 0.00 C 112.06 6.32 109.54 12.25 107.25 18.20 C 104.11 26.43 100.87 34.61 97.82 42.87 C 96.74 46.07 94.71 48.80 92.53 51.34 C 84.81 60.02 77.36 68.94 69.67 77.65 C 64.19 84.23 57.73 90.30 54.49 98.42 C 50.94 104.85 52.14 112.45 52.21 119.48 C 52.05 120.98 51.66 122.48 50.71 123.69 C 48.04 127.44 45.14 131.04 42.45 134.78 C 33.79 133.69 25.92 138.58 18.95 143.08 C 11.12 149.73 6.21 159.01 0.00 167.06 L 0.00 155.58 C 2.66 146.21 3.70 136.47 6.00 127.01 C 6.91 123.11 9.91 120.21 11.36 116.55 C 11.91 113.04 11.02 109.50 10.71 106.00 C 7.16 107.51 3.60 108.97 0.00 110.36 L 0.00 104.47 C 5.07 102.23 10.37 100.39 15.01 97.28 C 11.82 89.14 7.61 81.41 4.89 73.10 C 8.24 69.82 12.76 67.68 15.57 63.95 C 14.97 59.84 13.19 56.01 11.67 52.17 C 7.43 55.28 5.21 60.66 0.00 62.48 L 0.00 0.00 M 54.60 19.72 C 49.30 28.80 42.12 36.67 36.75 45.68 C 36.57 52.41 37.77 59.13 38.27 65.83 C 40.95 67.86 44.04 69.26 46.71 71.29 C 47.09 73.77 46.45 76.28 46.21 78.76 C 51.02 79.82 56.00 80.45 60.93 80.05 C 63.41 77.38 64.69 73.73 66.00 70.35 C 63.81 69.72 61.62 69.07 59.45 68.38 C 58.61 59.55 59.70 50.76 60.96 42.04 C 57.56 44.44 53.93 46.86 51.56 50.36 C 50.70 53.17 50.39 56.12 49.69 58.98 C 47.67 55.67 46.14 52.10 44.36 48.67 C 47.38 43.05 51.07 37.82 54.41 32.39 C 59.43 25.71 59.30 16.92 60.80 9.04 C 57.76 11.90 56.76 16.23 54.60 19.72 M 82.54 38.61 C 80.22 43.06 76.00 46.03 72.93 49.89 C 71.01 52.34 68.67 54.46 66.94 57.06 C 66.42 61.16 66.40 65.37 66.84 69.48 C 73.96 62.06 80.42 54.01 87.09 46.18 C 88.47 44.49 89.96 42.85 90.97 40.90 C 91.40 37.06 90.82 33.20 90.55 29.37 C 90.04 24.58 90.26 19.74 89.65 14.95 C 85.83 22.30 85.54 30.94 82.54 38.61 Z" />
<path fill="#afc877" opacity="1.00" d=" M 132.75 0.00 L 188.72 0.00 C 193.83 5.28 198.83 10.69 204.20 15.71 C 213.90 24.28 224.73 31.47 235.86 38.03 C 240.53 40.79 245.45 43.12 250.00 46.08 L 250.00 63.05 C 246.30 60.98 242.44 59.23 238.70 57.24 C 233.91 54.81 229.13 51.92 223.67 51.39 C 219.35 50.83 214.90 51.41 210.66 50.30 C 206.32 48.24 203.11 44.49 199.30 41.66 C 195.78 39.05 192.76 35.18 188.13 34.64 C 178.09 33.25 167.62 30.26 157.68 33.73 C 155.28 39.39 153.40 45.38 152.10 51.41 C 157.07 54.23 162.07 57.03 166.99 59.94 C 171.44 62.89 177.00 61.89 182.04 62.26 C 182.26 68.86 180.51 75.34 180.77 81.95 C 180.95 94.01 180.38 106.09 181.02 118.14 C 185.95 117.25 190.43 114.91 195.11 113.23 C 202.41 110.51 209.66 107.65 216.99 105.03 C 218.63 104.38 220.34 103.83 221.77 102.76 C 224.09 99.93 224.99 96.19 227.45 93.45 C 228.94 92.98 230.51 93.67 231.99 93.92 C 237.95 95.52 243.99 96.79 250.00 98.22 L 250.00 103.83 C 244.82 102.62 239.62 101.29 234.28 100.98 C 234.96 106.55 235.11 112.21 236.35 117.68 C 240.36 120.37 245.60 120.86 250.00 122.97 L 250.00 158.53 C 246.31 162.99 242.25 167.15 239.01 171.95 C 242.67 170.87 246.35 169.84 250.00 168.71 L 250.00 250.00 L 175.45 250.00 C 180.28 248.64 184.90 246.65 189.35 244.35 C 193.09 242.36 197.36 242.00 201.45 241.22 C 197.74 237.86 192.78 236.19 189.26 232.66 C 188.59 228.46 188.93 224.14 187.91 219.98 C 184.26 224.73 180.98 229.79 178.05 235.01 C 176.37 237.89 175.52 241.67 172.32 243.28 C 168.10 245.53 163.78 247.59 159.64 250.00 L 143.57 250.00 C 147.90 245.30 149.70 239.11 152.21 233.39 C 158.88 231.11 166.33 230.54 172.07 226.08 C 179.32 220.46 183.80 211.88 185.96 203.10 C 187.77 194.98 183.77 187.33 180.90 180.00 C 177.04 170.47 176.91 160.08 176.26 149.98 C 175.99 126.72 175.65 103.46 175.67 80.20 C 173.35 80.15 171.03 80.14 168.72 80.24 C 163.73 85.80 165.91 93.70 165.44 100.45 C 166.47 101.00 167.49 101.55 168.52 102.10 C 168.09 104.61 167.30 107.26 168.61 109.66 C 169.14 124.79 168.23 139.96 169.43 155.07 C 169.84 165.17 170.99 175.47 175.14 184.80 C 177.24 190.27 180.38 196.04 178.83 202.08 C 177.17 208.72 173.83 215.14 168.62 219.68 C 163.92 223.69 157.53 224.27 151.83 226.01 C 151.85 220.88 149.61 216.14 147.23 211.73 C 142.99 204.50 135.92 199.74 130.02 194.01 C 122.28 187.10 114.75 179.96 106.89 173.20 C 100.86 168.45 97.59 161.22 92.06 155.99 C 87.65 151.46 82.27 147.47 79.59 141.58 C 77.14 132.81 78.22 123.16 81.89 114.87 C 89.81 95.36 97.61 75.81 105.54 56.30 C 113.26 36.91 124.45 19.14 132.75 0.00 M 155.25 98.29 C 152.38 98.73 153.98 102.21 155.82 102.91 C 157.74 102.03 157.66 98.31 155.25 98.29 M 137.85 102.82 C 135.35 105.29 131.28 105.97 129.73 109.40 C 128.97 111.14 127.80 112.62 126.01 113.36 C 124.90 113.02 123.80 112.69 122.70 112.37 C 122.31 111.26 121.93 110.15 121.55 109.05 C 120.57 109.46 119.47 109.78 118.87 110.74 C 116.12 113.46 118.66 118.04 115.67 120.62 C 113.26 122.90 114.94 126.61 113.20 129.25 C 112.31 130.72 111.98 132.58 112.92 134.13 C 114.24 136.46 114.30 139.15 114.32 141.75 C 115.25 142.87 116.19 143.98 117.14 145.09 C 117.10 148.71 117.20 153.76 121.51 154.91 C 121.91 153.81 122.30 152.71 122.70 151.62 C 123.84 151.26 124.97 150.90 126.10 150.54 C 129.03 151.35 129.43 154.73 131.52 156.53 C 133.35 158.06 135.50 159.15 137.34 160.67 C 138.48 161.48 139.48 162.76 141.03 162.64 C 145.97 163.75 148.79 158.75 151.56 155.60 C 153.89 153.20 152.10 149.99 151.47 147.28 C 150.60 147.50 149.73 147.70 148.85 147.86 C 147.14 147.57 147.83 145.52 147.38 144.33 C 146.57 142.59 144.84 141.43 143.00 141.05 C 140.23 140.49 138.63 137.95 136.77 136.08 C 139.03 133.83 139.67 129.98 136.89 127.86 C 138.62 125.87 140.25 123.34 143.07 122.87 C 144.85 122.52 146.61 121.45 147.27 119.69 C 147.58 118.25 147.50 116.62 148.73 115.57 C 149.63 116.02 150.54 116.47 151.45 116.92 C 151.83 114.37 153.87 111.42 152.05 109.02 C 149.91 106.23 147.67 103.28 144.67 101.40 C 142.35 101.17 139.50 100.78 137.85 102.82 M 215.65 118.54 C 206.75 120.89 197.88 123.36 188.96 125.64 C 187.69 126.09 186.19 126.20 185.16 127.15 C 180.46 134.14 180.44 142.90 181.21 150.98 C 188.42 149.77 194.96 146.04 202.21 145.02 C 196.85 150.75 189.79 154.68 184.41 160.32 C 183.98 165.07 182.81 169.95 183.40 174.68 C 186.40 181.06 190.48 186.91 194.22 192.87 C 203.46 185.64 211.85 177.40 221.15 170.24 C 228.63 164.01 236.64 158.40 243.78 151.80 C 240.45 146.90 236.58 142.42 233.03 137.69 C 237.11 133.49 242.50 130.81 247.00 127.07 C 241.60 125.03 235.65 125.55 230.16 123.81 C 229.96 120.92 229.78 118.03 229.68 115.13 C 224.86 115.62 220.30 117.31 215.65 118.54 M 102.03 133.05 C 101.96 133.88 101.81 135.53 101.74 136.36 C 102.58 136.30 104.25 136.18 105.09 136.13 C 104.90 135.50 104.53 134.24 104.34 133.61 C 103.76 133.47 102.61 133.19 102.03 133.05 M 102.14 143.77 C 104.76 144.64 103.74 141.44 104.01 139.93 C 101.37 139.28 101.18 142.04 102.14 143.77 M 218.20 183.23 C 215.48 187.36 213.78 192.04 211.25 196.28 C 208.97 200.09 206.94 204.04 205.00 208.03 C 203.08 212.07 200.07 215.69 199.42 220.24 C 199.13 223.00 197.61 226.13 199.33 228.70 C 202.26 233.86 205.56 238.79 208.63 243.86 C 210.37 237.11 210.56 230.04 212.45 223.31 C 216.79 218.08 221.98 213.59 226.70 208.69 C 229.58 205.58 233.13 203.00 235.36 199.35 C 236.42 195.31 236.33 191.06 237.23 186.98 C 237.48 184.89 238.42 182.62 237.25 180.65 C 230.89 181.43 224.53 182.26 218.20 183.23 M 237.29 211.16 C 233.57 214.83 230.75 219.32 226.77 222.74 C 224.17 225.19 221.03 227.00 218.52 229.54 C 217.63 231.81 218.24 234.36 218.24 236.75 C 220.98 237.68 224.15 237.78 226.58 239.41 C 228.46 242.19 229.20 245.55 230.84 248.47 C 235.44 244.83 238.51 239.75 242.76 235.78 C 243.88 234.59 245.18 233.51 245.87 232.00 C 246.04 228.37 246.12 224.59 245.02 221.09 C 242.94 217.44 240.11 214.25 237.29 211.16 Z" />
<path fill="#afc877" opacity="1.00" d=" M 84.79 66.24 C 83.61 72.02 79.95 76.92 77.10 81.99 C 70.00 93.30 63.32 104.88 55.95 116.02 C 56.21 112.15 55.81 108.21 56.56 104.39 C 58.27 99.02 60.92 93.90 64.64 89.64 C 71.32 81.81 78.24 74.18 84.79 66.24 Z" />
<path fill="#afc877" opacity="1.00" d=" M 59.75 131.66 C 70.79 117.15 78.74 100.57 89.33 85.78 C 85.47 95.14 81.76 104.56 77.90 113.93 C 74.25 122.30 73.34 131.86 75.18 140.79 C 76.36 146.93 81.65 150.88 85.35 155.53 C 81.00 152.67 77.23 149.06 73.11 145.91 C 67.93 141.93 63.01 137.39 59.75 131.66 Z" />
<path fill="#afc877" opacity="1.00" d=" M 45.02 151.03 C 47.87 148.06 49.93 144.44 52.81 141.49 C 57.29 144.31 62.32 146.25 66.42 149.64 C 70.29 152.80 74.21 155.90 78.08 159.05 C 70.98 155.39 62.49 153.66 54.82 156.61 C 45.17 159.71 38.31 167.44 31.05 174.04 C 21.73 183.49 10.25 190.33 0.00 198.67 L 0.00 196.51 C 15.55 181.91 30.02 166.20 45.02 151.03 Z" />
<path fill="#afc877" opacity="1.00" d=" M 45.43 166.41 C 51.24 161.93 58.46 158.37 65.99 159.28 C 72.82 160.02 78.56 164.20 84.00 168.06 C 90.16 172.47 97.61 174.77 103.49 179.60 C 114.15 189.24 124.75 198.94 135.44 208.54 C 140.54 213.31 144.56 219.86 144.73 227.00 C 145.75 235.90 139.82 243.47 134.58 250.00 L 104.17 250.00 C 107.13 246.19 110.85 243.03 113.55 239.01 C 110.92 237.01 108.27 234.78 104.98 233.97 C 99.98 233.52 94.95 234.29 90.04 235.22 C 90.60 238.34 91.66 241.41 91.69 244.61 C 89.71 246.79 87.20 248.41 84.74 250.00 L 83.23 250.00 C 82.49 246.03 82.09 241.78 79.58 238.45 C 77.18 235.18 74.91 231.79 72.16 228.80 C 71.15 227.61 69.38 228.08 68.02 228.04 C 63.94 228.32 59.89 228.92 55.83 229.44 C 60.54 237.00 69.72 241.24 72.54 250.00 L 40.86 250.00 C 42.44 247.84 44.54 245.73 45.01 243.02 C 44.18 238.40 41.30 234.41 40.58 229.76 C 41.31 225.26 45.02 221.76 45.68 217.26 C 40.30 213.47 34.33 210.43 28.22 208.00 C 25.88 211.68 24.79 216.43 20.92 218.90 C 18.12 220.84 15.30 222.75 12.69 224.95 C 15.25 226.74 17.81 228.55 20.04 230.74 C 18.87 233.14 17.78 235.59 16.71 238.04 C 20.06 240.67 24.01 242.27 27.65 244.43 C 29.81 245.42 29.69 248.05 30.30 250.00 L 0.00 250.00 L 0.00 203.45 C 7.11 198.45 13.95 193.09 20.99 187.98 C 29.85 181.64 37.10 173.39 45.43 166.41 M 77.19 187.22 C 75.20 189.12 73.56 191.33 72.20 193.72 C 77.89 196.08 83.72 198.09 89.31 200.65 C 90.39 204.42 91.64 208.17 91.99 212.10 C 87.59 211.32 84.01 208.37 79.80 207.04 C 79.51 207.19 78.93 207.49 78.64 207.64 C 78.05 211.14 77.45 214.74 77.66 218.30 C 79.12 220.79 81.00 223.05 83.15 224.97 C 85.65 226.01 88.45 225.13 91.07 225.16 C 95.97 225.06 100.84 224.45 105.73 224.38 C 109.45 225.93 111.51 230.20 115.62 231.00 C 115.80 225.21 118.02 219.72 118.13 213.94 C 114.49 213.73 110.78 214.55 107.20 213.80 C 103.54 208.85 102.25 202.39 98.19 197.76 C 91.41 193.86 84.18 190.75 77.19 187.22 M 32.18 197.07 C 30.26 198.43 29.79 200.99 31.03 202.97 C 33.18 203.68 35.36 203.39 37.17 202.01 C 41.67 208.37 47.05 214.10 52.03 220.09 C 57.39 219.43 62.70 218.35 67.88 216.83 C 68.14 213.57 67.87 210.29 68.22 207.04 C 69.08 204.88 70.60 203.09 71.87 201.17 C 68.69 200.96 65.51 200.41 62.31 200.53 C 59.59 201.46 57.57 203.72 54.93 204.86 C 48.79 204.05 42.99 201.58 36.98 200.13 L 36.89 199.05 C 35.71 197.72 34.12 196.28 32.18 197.07 Z" />
</g>
<g id="#a0b76fff">
<path fill="#a0b76f" opacity="1.00" d=" M 46.37 0.00 L 48.24 0.00 C 46.77 4.00 45.34 8.01 44.00 12.05 C 46.95 10.35 49.80 8.49 52.83 6.93 C 53.18 9.60 53.79 12.58 51.88 14.83 C 46.94 21.60 42.36 28.65 37.13 35.20 C 36.20 29.29 33.28 22.48 37.07 17.01 C 40.43 11.48 43.03 5.54 46.37 0.00 Z" />
<path fill="#a0b76f" opacity="1.00" d=" M 54.60 19.72 C 56.76 16.23 57.76 11.90 60.80 9.04 C 59.30 16.92 59.43 25.71 54.41 32.39 C 51.07 37.82 47.38 43.05 44.36 48.67 C 46.14 52.10 47.67 55.67 49.69 58.98 C 50.39 56.12 50.70 53.17 51.56 50.36 C 53.93 46.86 57.56 44.44 60.96 42.04 C 59.70 50.76 58.61 59.55 59.45 68.38 C 61.62 69.07 63.81 69.72 66.00 70.35 C 64.69 73.73 63.41 77.38 60.93 80.05 C 56.00 80.45 51.02 79.82 46.21 78.76 C 46.45 76.28 47.09 73.77 46.71 71.29 C 44.04 69.26 40.95 67.86 38.27 65.83 C 37.77 59.13 36.57 52.41 36.75 45.68 C 42.12 36.67 49.30 28.80 54.60 19.72 Z" />
<path fill="#a0b76f" opacity="1.00" d=" M 82.54 38.61 C 85.54 30.94 85.83 22.30 89.65 14.95 C 90.26 19.74 90.04 24.58 90.55 29.37 C 90.82 33.20 91.40 37.06 90.97 40.90 C 89.96 42.85 88.47 44.49 87.09 46.18 C 80.42 54.01 73.96 62.06 66.84 69.48 C 66.40 65.37 66.42 61.16 66.94 57.06 C 68.67 54.46 71.01 52.34 72.93 49.89 C 76.00 46.03 80.22 43.06 82.54 38.61 Z" />
<path fill="#a0b76f" opacity="1.00" d=" M 157.68 33.73 C 167.62 30.26 178.09 33.25 188.13 34.64 C 192.76 35.18 195.78 39.05 199.30 41.66 C 203.11 44.49 206.32 48.24 210.66 50.30 C 214.90 51.41 219.35 50.83 223.67 51.39 C 229.13 51.92 233.91 54.81 238.70 57.24 C 242.44 59.23 246.30 60.98 250.00 63.05 L 250.00 98.22 C 243.99 96.79 237.95 95.52 231.99 93.92 C 230.51 93.67 228.94 92.98 227.45 93.45 C 224.99 96.19 224.09 99.93 221.77 102.76 C 220.34 103.83 218.63 104.38 216.99 105.03 C 209.66 107.65 202.41 110.51 195.11 113.23 C 190.43 114.91 185.95 117.25 181.02 118.14 C 180.38 106.09 180.95 94.01 180.77 81.95 C 180.51 75.34 182.26 68.86 182.04 62.26 C 177.00 61.89 171.44 62.89 166.99 59.94 C 162.07 57.03 157.07 54.23 152.10 51.41 C 153.40 45.38 155.28 39.39 157.68 33.73 Z" />
<path fill="#a0b76f" opacity="1.00" d=" M 0.00 62.48 C 5.21 60.66 7.43 55.28 11.67 52.17 C 13.19 56.01 14.97 59.84 15.57 63.95 C 12.76 67.68 8.24 69.82 4.89 73.10 C 7.61 81.41 11.82 89.14 15.01 97.28 C 10.37 100.39 5.07 102.23 0.00 104.47 L 0.00 62.48 Z" />
<path fill="#a0b76f" opacity="1.00" d=" M 234.28 100.98 C 239.62 101.29 244.82 102.62 250.00 103.83 L 250.00 122.97 C 245.60 120.86 240.36 120.37 236.35 117.68 C 235.11 112.21 234.96 106.55 234.28 100.98 Z" />
<path fill="#a0b76f" opacity="1.00" d=" M 0.00 110.36 C 3.60 108.97 7.16 107.51 10.71 106.00 C 11.02 109.50 11.91 113.04 11.36 116.55 C 9.91 120.21 6.91 123.11 6.00 127.01 C 3.70 136.47 2.66 146.21 0.00 155.58 L 0.00 110.36 Z" />
<path fill="#a0b76f" opacity="1.00" d=" M 215.65 118.54 C 220.30 117.31 224.86 115.62 229.68 115.13 C 229.78 118.03 229.96 120.92 230.16 123.81 C 235.65 125.55 241.60 125.03 247.00 127.07 C 242.50 130.81 237.11 133.49 233.03 137.69 C 236.58 142.42 240.45 146.90 243.78 151.80 C 236.64 158.40 228.63 164.01 221.15 170.24 C 211.85 177.40 203.46 185.64 194.22 192.87 C 190.48 186.91 186.40 181.06 183.40 174.68 C 182.81 169.95 183.98 165.07 184.41 160.32 C 189.79 154.68 196.85 150.75 202.21 145.02 C 194.96 146.04 188.42 149.77 181.21 150.98 C 180.44 142.90 180.46 134.14 185.16 127.15 C 186.19 126.20 187.69 126.09 188.96 125.64 C 197.88 123.36 206.75 120.89 215.65 118.54 Z" />
<path fill="#a0b76f" opacity="1.00" d=" M 218.20 183.23 C 224.53 182.26 230.89 181.43 237.25 180.65 C 238.42 182.62 237.48 184.89 237.23 186.98 C 236.33 191.06 236.42 195.31 235.36 199.35 C 233.13 203.00 229.58 205.58 226.70 208.69 C 221.98 213.59 216.79 218.08 212.45 223.31 C 210.56 230.04 210.37 237.11 208.63 243.86 C 205.56 238.79 202.26 233.86 199.33 228.70 C 197.61 226.13 199.13 223.00 199.42 220.24 C 200.07 215.69 203.08 212.07 205.00 208.03 C 206.94 204.04 208.97 200.09 211.25 196.28 C 213.78 192.04 215.48 187.36 218.20 183.23 Z" />
<path fill="#a0b76f" opacity="1.00" d=" M 77.19 187.22 C 84.18 190.75 91.41 193.86 98.19 197.76 C 102.25 202.39 103.54 208.85 107.20 213.80 C 110.78 214.55 114.49 213.73 118.13 213.94 C 118.02 219.72 115.80 225.21 115.62 231.00 C 111.51 230.20 109.45 225.93 105.73 224.38 C 100.84 224.45 95.97 225.06 91.07 225.16 C 88.45 225.13 85.65 226.01 83.15 224.97 C 81.00 223.05 79.12 220.79 77.66 218.30 C 77.45 214.74 78.05 211.14 78.64 207.64 C 78.93 207.49 79.51 207.19 79.80 207.04 C 84.01 208.37 87.59 211.32 91.99 212.10 C 91.64 208.17 90.39 204.42 89.31 200.65 C 83.72 198.09 77.89 196.08 72.20 193.72 C 73.56 191.33 75.20 189.12 77.19 187.22 Z" />
<path fill="#a0b76f" opacity="1.00" d=" M 36.98 200.13 C 42.99 201.58 48.79 204.05 54.93 204.86 C 57.57 203.72 59.59 201.46 62.31 200.53 C 65.51 200.41 68.69 200.96 71.87 201.17 C 70.60 203.09 69.08 204.88 68.22 207.04 C 67.87 210.29 68.14 213.57 67.88 216.83 C 62.70 218.35 57.39 219.43 52.03 220.09 C 47.05 214.10 41.67 208.37 37.17 202.01 C 37.12 201.54 37.03 200.60 36.98 200.13 Z" />
<path fill="#a0b76f" opacity="1.00" d=" M 28.22 208.00 C 34.33 210.43 40.30 213.47 45.68 217.26 C 45.02 221.76 41.31 225.26 40.58 229.76 C 41.30 234.41 44.18 238.40 45.01 243.02 C 44.54 245.73 42.44 247.84 40.86 250.00 L 30.30 250.00 C 29.69 248.05 29.81 245.42 27.65 244.43 C 24.01 242.27 20.06 240.67 16.71 238.04 C 17.78 235.59 18.87 233.14 20.04 230.74 C 17.81 228.55 15.25 226.74 12.69 224.95 C 15.30 222.75 18.12 220.84 20.92 218.90 C 24.79 216.43 25.88 211.68 28.22 208.00 Z" />
<path fill="#a0b76f" opacity="1.00" d=" M 237.29 211.16 C 240.11 214.25 242.94 217.44 245.02 221.09 C 246.12 224.59 246.04 228.37 245.87 232.00 C 245.18 233.51 243.88 234.59 242.76 235.78 C 238.51 239.75 235.44 244.83 230.84 248.47 C 229.20 245.55 228.46 242.19 226.58 239.41 C 224.15 237.78 220.98 237.68 218.24 236.75 C 218.24 234.36 217.63 231.81 218.52 229.54 C 221.03 227.00 224.17 225.19 226.77 222.74 C 230.75 219.32 233.57 214.83 237.29 211.16 Z" />
<path fill="#a0b76f" opacity="1.00" d=" M 178.05 235.01 C 180.98 229.79 184.26 224.73 187.91 219.98 C 188.93 224.14 188.59 228.46 189.26 232.66 C 192.78 236.19 197.74 237.86 201.45 241.22 C 197.36 242.00 193.09 242.36 189.35 244.35 C 184.90 246.65 180.28 248.64 175.45 250.00 L 159.64 250.00 C 163.78 247.59 168.10 245.53 172.32 243.28 C 175.52 241.67 176.37 237.89 178.05 235.01 Z" />
<path fill="#a0b76f" opacity="1.00" d=" M 55.83 229.44 C 59.89 228.92 63.94 228.32 68.02 228.04 C 69.38 228.08 71.15 227.61 72.16 228.80 C 74.91 231.79 77.18 235.18 79.58 238.45 C 82.09 241.78 82.49 246.03 83.23 250.00 L 72.54 250.00 C 69.72 241.24 60.54 237.00 55.83 229.44 Z" />
<path fill="#a0b76f" opacity="1.00" d=" M 90.04 235.22 C 94.95 234.29 99.98 233.52 104.98 233.97 C 108.27 234.78 110.92 237.01 113.55 239.01 C 110.85 243.03 107.13 246.19 104.17 250.00 L 84.74 250.00 C 87.20 248.41 89.71 246.79 91.69 244.61 C 91.66 241.41 90.60 238.34 90.04 235.22 Z" />
</g>
<g id="#fefbd9ff">
<path fill="#fefbd9" opacity="1.00" d=" M 113.15 0.00 L 119.03 0.00 C 115.30 14.11 109.20 27.41 104.22 41.08 C 101.42 49.39 96.40 56.65 92.53 64.45 C 89.26 70.56 86.38 76.88 82.85 82.85 C 74.41 96.38 66.27 110.11 57.64 123.52 C 57.44 124.18 57.04 125.50 56.84 126.16 C 60.28 122.65 62.58 118.27 65.15 114.13 C 70.76 105.11 76.27 96.02 81.87 86.98 C 86.75 79.56 90.33 71.41 94.50 63.59 C 105.76 42.62 116.46 21.34 127.01 0.00 L 132.75 0.00 C 124.45 19.14 113.26 36.91 105.54 56.30 C 103.99 56.16 103.52 57.76 102.83 58.76 C 98.14 67.66 93.73 76.72 89.33 85.78 C 78.74 100.57 70.79 117.15 59.75 131.66 C 58.82 132.91 57.86 134.13 56.96 135.39 C 56.31 136.35 55.71 137.35 55.10 138.34 C 54.41 139.43 53.67 140.51 52.81 141.49 C 49.93 144.44 47.87 148.06 45.02 151.03 C 30.02 166.20 15.55 181.91 0.00 196.51 L 0.00 189.25 C 13.84 175.32 27.70 161.42 41.26 147.22 C 43.25 144.65 46.26 142.35 46.53 138.89 C 43.89 141.51 41.88 144.65 39.32 147.34 C 26.33 160.77 13.21 174.07 0.00 187.27 L 0.00 179.85 C 10.16 169.72 20.16 159.44 30.09 149.09 C 33.25 145.69 36.90 142.70 39.36 138.72 C 38.54 138.81 36.89 138.97 36.06 139.06 C 38.63 138.37 41.16 137.27 42.45 134.78 C 45.14 131.04 48.04 127.44 50.71 123.69 C 51.66 122.48 52.05 120.98 52.21 119.48 C 52.64 119.49 53.51 119.52 53.95 119.54 C 54.62 118.37 55.27 117.18 55.95 116.02 C 63.32 104.88 70.00 93.30 77.10 81.99 C 79.95 76.92 83.61 72.02 84.79 66.24 C 87.67 61.50 91.89 57.04 92.53 51.34 C 94.71 48.80 96.74 46.07 97.82 42.87 C 100.87 34.61 104.11 26.43 107.25 18.20 C 109.54 12.25 112.06 6.32 113.15 0.00 M 48.49 136.40 C 51.43 135.07 54.06 131.69 54.24 128.46 C 51.73 130.52 49.48 133.27 48.49 136.40 Z" />
</g>
<g id="#afc876ff">
<path fill="#afc876" opacity="1.00" d=" M 119.03 0.00 L 127.01 0.00 C 116.46 21.34 105.76 42.62 94.50 63.59 C 90.33 71.41 86.75 79.56 81.87 86.98 C 76.27 96.02 70.76 105.11 65.15 114.13 C 62.58 118.27 60.28 122.65 56.84 126.16 C 57.04 125.50 57.44 124.18 57.64 123.52 C 66.27 110.11 74.41 96.38 82.85 82.85 C 86.38 76.88 89.26 70.56 92.53 64.45 C 96.40 56.65 101.42 49.39 104.22 41.08 C 109.20 27.41 115.30 14.11 119.03 0.00 Z" />
<path fill="#afc876" opacity="1.00" d=" M 55.10 138.34 C 55.71 137.35 56.31 136.35 56.96 135.39 C 58.92 137.82 60.96 140.18 63.04 142.52 C 60.38 141.14 57.74 139.74 55.10 138.34 Z" />
</g>
<g id="#c1d983ff">
<path fill="#c1d983" opacity="1.00" d=" M 188.72 0.00 L 250.00 0.00 L 250.00 46.08 C 245.45 43.12 240.53 40.79 235.86 38.03 C 224.73 31.47 213.90 24.28 204.20 15.71 C 198.83 10.69 193.83 5.28 188.72 0.00 Z" />
</g>
<g id="#fefefeff">
<path fill="#fefefe" opacity="1.00" d=" M 69.67 77.65 C 77.36 68.94 84.81 60.02 92.53 51.34 C 91.89 57.04 87.67 61.50 84.79 66.24 C 78.24 74.18 71.32 81.81 64.64 89.64 C 60.92 93.90 58.27 99.02 56.56 104.39 C 55.81 108.21 56.21 112.15 55.95 116.02 C 55.27 117.18 54.62 118.37 53.95 119.54 C 53.51 119.52 52.64 119.49 52.21 119.48 C 52.14 112.45 50.94 104.85 54.49 98.42 C 57.73 90.30 64.19 84.23 69.67 77.65 Z" />
</g>
<g id="#fffffeff">
<path fill="#fffffe" opacity="1.00" d=" M 102.83 58.76 C 103.52 57.76 103.99 56.16 105.54 56.30 C 97.61 75.81 89.81 95.36 81.89 114.87 C 78.22 123.16 77.14 132.81 79.59 141.58 C 82.27 147.47 87.65 151.46 92.06 155.99 C 97.59 161.22 100.86 168.45 106.89 173.20 C 114.75 179.96 122.28 187.10 130.02 194.01 C 135.92 199.74 142.99 204.50 147.23 211.73 C 149.61 216.14 151.85 220.88 151.83 226.01 C 157.53 224.27 163.92 223.69 168.62 219.68 C 173.83 215.14 177.17 208.72 178.83 202.08 C 180.38 196.04 177.24 190.27 175.14 184.80 C 170.99 175.47 169.84 165.17 169.43 155.07 C 168.23 139.96 169.14 124.79 168.61 109.66 C 168.83 99.86 168.40 90.04 168.72 80.24 C 171.03 80.14 173.35 80.15 175.67 80.20 C 175.65 103.46 175.99 126.72 176.26 149.98 C 176.91 160.08 177.04 170.47 180.90 180.00 C 183.77 187.33 187.77 194.98 185.96 203.10 C 183.80 211.88 179.32 220.46 172.07 226.08 C 166.33 230.54 158.88 231.11 152.21 233.39 C 149.70 239.11 147.90 245.30 143.57 250.00 L 134.58 250.00 C 139.82 243.47 145.75 235.90 144.73 227.00 C 144.56 219.86 140.54 213.31 135.44 208.54 C 124.75 198.94 114.15 189.24 103.49 179.60 C 97.61 174.77 90.16 172.47 84.00 168.06 C 78.56 164.20 72.82 160.02 65.99 159.28 C 58.46 158.37 51.24 161.93 45.43 166.41 C 37.10 173.39 29.85 181.64 20.99 187.98 C 13.95 193.09 7.11 198.45 0.00 203.45 L 0.00 198.67 C 10.25 190.33 21.73 183.49 31.05 174.04 C 38.31 167.44 45.17 159.71 54.82 156.61 C 62.49 153.66 70.98 155.39 78.08 159.05 C 74.21 155.90 70.29 152.80 66.42 149.64 C 62.32 146.25 57.29 144.31 52.81 141.49 C 53.67 140.51 54.41 139.43 55.10 138.34 C 57.74 139.74 60.38 141.14 63.04 142.52 C 60.96 140.18 58.92 137.82 56.96 135.39 C 57.86 134.13 58.82 132.91 59.75 131.66 C 63.01 137.39 67.93 141.93 73.11 145.91 C 77.23 149.06 81.00 152.67 85.35 155.53 C 81.65 150.88 76.36 146.93 75.18 140.79 C 73.34 131.86 74.25 122.30 77.90 113.93 C 81.76 104.56 85.47 95.14 89.33 85.78 C 93.73 76.72 98.14 67.66 102.83 58.76 Z" />
</g>
<g id="#9aa492ff">
<path fill="#9aa492" opacity="1.00" d=" M 165.44 100.45 C 165.91 93.70 163.73 85.80 168.72 80.24 C 168.40 90.04 168.83 99.86 168.61 109.66 C 167.30 107.26 168.09 104.61 168.52 102.10 C 167.49 101.55 166.47 101.00 165.44 100.45 Z" />
</g>
<g id="#9daa91ff">
<path fill="#9daa91" opacity="1.00" d=" M 155.25 98.29 C 157.66 98.31 157.74 102.03 155.82 102.91 C 153.98 102.21 152.38 98.73 155.25 98.29 Z" />
</g>
<g id="#9aa595ff">
<path fill="#9aa595" opacity="1.00" d=" M 137.85 102.82 C 139.50 100.78 142.35 101.17 144.67 101.40 C 147.67 103.28 149.91 106.23 152.05 109.02 C 153.87 111.42 151.83 114.37 151.45 116.92 C 150.54 116.47 149.63 116.02 148.73 115.57 C 147.50 116.62 147.58 118.25 147.27 119.69 C 146.61 121.45 144.85 122.52 143.07 122.87 C 140.25 123.34 138.62 125.87 136.89 127.86 C 139.67 129.98 139.03 133.83 136.77 136.08 C 138.63 137.95 140.23 140.49 143.00 141.05 C 144.84 141.43 146.57 142.59 147.38 144.33 C 147.83 145.52 147.14 147.57 148.85 147.86 C 149.73 147.70 150.60 147.50 151.47 147.28 C 152.10 149.99 153.89 153.20 151.56 155.60 C 148.79 158.75 145.97 163.75 141.03 162.64 C 139.48 162.76 138.48 161.48 137.34 160.67 C 135.50 159.15 133.35 158.06 131.52 156.53 C 129.43 154.73 129.03 151.35 126.10 150.54 C 124.97 150.90 123.84 151.26 122.70 151.62 C 122.30 152.71 121.91 153.81 121.51 154.91 C 117.20 153.76 117.10 148.71 117.14 145.09 C 116.19 143.98 115.25 142.87 114.32 141.75 C 114.30 139.15 114.24 136.46 112.92 134.13 C 111.98 132.58 112.31 130.72 113.20 129.25 C 114.94 126.61 113.26 122.90 115.67 120.62 C 118.66 118.04 116.12 113.46 118.87 110.74 C 119.47 109.78 120.57 109.46 121.55 109.05 C 121.93 110.15 122.31 111.26 122.70 112.37 C 123.80 112.69 124.90 113.02 126.01 113.36 C 127.80 112.62 128.97 111.14 129.73 109.40 C 131.28 105.97 135.35 105.29 137.85 102.82 Z" />
</g>
<g id="#c2d38fff">
<path fill="#c2d38f" opacity="1.00" d=" M 48.49 136.40 C 49.48 133.27 51.73 130.52 54.24 128.46 C 54.06 131.69 51.43 135.07 48.49 136.40 Z" />
</g>
<g id="#9eab91ff">
<path fill="#9eab91" opacity="1.00" d=" M 102.03 133.05 C 102.61 133.19 103.76 133.47 104.34 133.61 C 104.53 134.24 104.90 135.50 105.09 136.13 C 104.25 136.18 102.58 136.30 101.74 136.36 C 101.81 135.53 101.96 133.88 102.03 133.05 Z" />
</g>
<g id="#fffefeff">
<path fill="#fffefe" opacity="1.00" d=" M 18.95 143.08 C 25.92 138.58 33.79 133.69 42.45 134.78 C 41.16 137.27 38.63 138.37 36.06 139.06 C 28.46 141.55 20.79 145.35 15.92 151.93 C 10.49 159.06 5.57 166.58 0.00 173.60 L 0.00 167.06 C 6.21 159.01 11.12 149.73 18.95 143.08 Z" />
</g>
<g id="#afc878ff">
<path fill="#afc878" opacity="1.00" d=" M 15.92 151.93 C 20.79 145.35 28.46 141.55 36.06 139.06 C 36.89 138.97 38.54 138.81 39.36 138.72 C 36.90 142.70 33.25 145.69 30.09 149.09 C 20.16 159.44 10.16 169.72 0.00 179.85 L 0.00 173.60 C 5.57 166.58 10.49 159.06 15.92 151.93 Z" />
<path fill="#afc878" opacity="1.00" d=" M 39.32 147.34 C 41.88 144.65 43.89 141.51 46.53 138.89 C 46.26 142.35 43.25 144.65 41.26 147.22 C 27.70 161.42 13.84 175.32 0.00 189.25 L 0.00 187.27 C 13.21 174.07 26.33 160.77 39.32 147.34 Z" />
</g>
<g id="#9eab90ff">
<path fill="#9eab90" opacity="1.00" d=" M 102.14 143.77 C 101.18 142.04 101.37 139.28 104.01 139.93 C 103.74 141.44 104.76 144.64 102.14 143.77 Z" />
</g>
<g id="#a0b76eff">
<path fill="#a0b76e" opacity="1.00" d=" M 239.01 171.95 C 242.25 167.15 246.31 162.99 250.00 158.53 L 250.00 168.71 C 246.35 169.84 242.67 170.87 239.01 171.95 Z" />
</g>
<g id="#9ca993ff">
<path fill="#9ca993" opacity="1.00" d=" M 32.18 197.07 C 34.12 196.28 35.71 197.72 36.89 199.05 L 36.98 200.13 C 37.03 200.60 37.12 201.54 37.17 202.01 C 35.36 203.39 33.18 203.68 31.03 202.97 C 29.79 200.99 30.26 198.43 32.18 197.07 Z" />
</g>
</svg>
