<?xml version="1.0" encoding="UTF-8" ?>
<!DOCTYPE svg PUBLIC "-//W3C//DTD SVG 1.1//EN" "http://www.w3.org/Graphics/SVG/1.1/DTD/svg11.dtd">
<svg width="250pt" height="250pt" viewBox="0 0 250 250" version="1.1" xmlns="http://www.w3.org/2000/svg">
<g id="#adbeaeff">
<path fill="#adbeae" opacity="1.00" d=" M 0.00 0.00 L 112.23 0.00 C 108.12 14.30 102.11 27.94 96.99 41.90 C 95.15 47.02 92.73 52.01 89.00 56.04 C 79.84 66.54 70.79 77.12 61.63 87.61 C 54.96 95.12 51.34 104.65 46.74 113.45 C 44.18 118.17 43.90 123.60 44.62 128.83 C 48.88 124.90 48.27 118.75 50.93 113.97 C 53.57 108.87 56.04 103.67 58.77 98.62 C 61.58 93.37 65.77 89.10 69.60 84.62 C 74.12 79.46 78.50 74.19 83.06 69.06 C 70.05 95.82 53.40 120.66 34.79 143.83 C 24.63 157.56 11.33 168.49 0.00 181.18 L 0.00 175.28 C 6.01 167.24 12.14 159.29 18.39 151.43 C 21.57 147.29 25.57 143.87 29.69 140.70 C 33.62 137.46 39.71 137.45 42.15 132.41 C 32.38 131.99 24.76 138.93 18.31 145.33 C 11.83 152.78 5.98 160.76 0.00 168.61 L 0.00 0.00 Z" />
<path fill="#adbeae" opacity="1.00" d=" M 119.68 0.00 L 128.02 0.00 C 120.87 18.00 111.73 35.13 101.19 51.37 C 107.00 34.12 114.84 17.58 119.68 0.00 Z" />
<path fill="#adbeae" opacity="1.00" d=" M 136.74 0.00 L 163.37 0.00 C 162.02 3.72 160.79 7.48 159.14 11.08 C 154.95 20.53 151.63 30.39 146.54 39.42 C 141.10 49.38 136.19 59.63 130.36 69.36 C 122.42 81.05 115.08 93.18 106.23 104.23 C 92.12 123.27 76.01 140.70 60.91 158.94 C 48.99 173.30 36.18 186.88 23.85 200.88 C 16.09 209.15 7.80 216.90 0.00 225.13 L 0.00 204.80 C 10.68 196.17 22.51 188.94 32.36 179.31 C 38.92 173.49 44.72 166.38 53.07 163.06 C 56.35 161.94 58.69 159.36 60.57 156.57 C 53.59 157.86 46.90 160.81 41.47 165.42 C 37.35 168.94 33.48 172.74 29.51 176.44 C 20.55 185.27 9.78 191.89 0.00 199.73 L 0.00 199.52 C 7.15 191.83 15.13 184.98 22.27 177.28 C 28.25 170.93 34.82 165.10 40.34 158.33 C 56.46 138.04 72.00 117.17 85.23 94.86 C 82.49 102.94 78.85 110.69 75.86 118.68 C 73.22 125.80 73.03 133.55 73.82 141.02 C 75.03 139.62 76.23 138.21 77.42 136.80 C 77.28 130.49 77.81 124.05 80.35 118.20 C 86.85 102.37 93.02 86.40 99.63 70.61 C 105.05 60.56 111.18 50.89 116.86 40.98 C 124.93 28.07 130.82 13.97 136.74 0.00 M 54.73 141.95 C 57.85 145.40 61.09 148.82 65.18 151.14 C 66.75 149.37 68.34 147.60 69.93 145.83 C 66.62 142.31 62.66 139.50 58.87 136.54 C 57.48 138.33 56.10 140.14 54.73 141.95 Z" />
<path fill="#adbeae" opacity="1.00" d=" M 167.21 0.00 L 250.00 0.00 L 250.00 250.00 L 143.99 250.00 C 147.27 246.04 148.56 241.00 150.75 236.45 C 151.35 234.65 153.46 234.52 154.98 233.95 C 160.69 232.44 166.76 231.32 171.47 227.51 C 178.66 221.69 183.23 213.03 185.13 204.08 C 187.07 193.26 179.53 184.09 177.60 173.87 C 174.47 158.13 175.43 141.98 175.14 126.03 C 174.62 111.26 174.91 96.48 174.75 81.70 C 172.37 81.69 169.99 81.69 167.61 81.69 C 167.70 105.30 167.82 128.91 168.22 152.52 C 168.89 163.26 169.26 174.29 173.37 184.40 C 175.69 190.61 179.49 197.02 177.87 203.89 C 176.19 210.55 172.79 216.98 167.54 221.50 C 162.86 225.32 156.62 225.97 151.02 227.68 C 150.31 218.63 145.41 210.27 138.66 204.35 C 127.08 193.94 115.70 183.29 103.95 173.06 C 99.04 168.24 95.81 161.99 90.77 157.27 C 86.62 153.40 82.61 149.37 79.18 144.83 C 78.30 145.89 77.42 146.95 76.55 148.01 C 79.60 151.93 83.14 155.40 86.57 158.98 C 82.64 156.05 78.84 152.93 75.03 149.84 C 73.49 151.61 71.96 153.39 70.42 155.17 C 72.69 157.07 74.97 158.97 77.20 160.92 C 74.40 159.63 71.59 158.35 68.72 157.21 C 67.76 158.43 66.81 159.66 65.87 160.90 C 71.37 162.13 76.40 164.79 80.88 168.17 C 85.78 171.82 91.27 174.51 96.66 177.32 C 101.78 179.90 105.75 184.13 109.95 187.93 C 118.01 195.25 126.08 202.57 134.13 209.90 C 139.30 214.54 143.26 220.93 143.82 227.97 C 145.00 236.29 140.00 243.89 134.94 250.00 L 0.00 250.00 L 0.00 229.39 C 7.04 222.30 14.11 215.23 21.14 208.13 C 28.20 201.16 34.46 193.45 41.20 186.19 C 59.22 166.47 76.08 145.75 93.44 125.46 C 99.65 118.26 105.23 110.56 111.05 103.06 C 117.57 94.77 123.03 85.73 128.98 77.04 C 136.29 66.85 141.39 55.34 147.42 44.39 C 155.47 30.28 160.50 14.74 167.21 0.00 Z" />
</g>
<g id="#282828ff">
<path fill="#282828" opacity="1.00" d=" M 112.23 0.00 L 119.68 0.00 C 114.84 17.58 107.00 34.12 101.19 51.37 C 111.73 35.13 120.87 18.00 128.02 0.00 L 136.74 0.00 C 130.82 13.97 124.93 28.07 116.86 40.98 C 111.18 50.89 105.05 60.56 99.63 70.61 C 93.02 86.40 86.85 102.37 80.35 118.20 C 77.81 124.05 77.28 130.49 77.42 136.80 C 76.23 138.21 75.03 139.62 73.82 141.02 C 73.03 133.55 73.22 125.80 75.86 118.68 C 78.85 110.69 82.49 102.94 85.23 94.86 C 72.00 117.17 56.46 138.04 40.34 158.33 C 34.82 165.10 28.25 170.93 22.27 177.28 C 15.13 184.98 7.15 191.83 0.00 199.52 L 0.00 181.18 C 11.33 168.49 24.63 157.56 34.79 143.83 C 53.40 120.66 70.05 95.82 83.06 69.06 C 78.50 74.19 74.12 79.46 69.60 84.62 C 65.77 89.10 61.58 93.37 58.77 98.62 C 56.04 103.67 53.57 108.87 50.93 113.97 C 48.27 118.75 48.88 124.90 44.62 128.83 C 43.90 123.60 44.18 118.17 46.74 113.45 C 51.34 104.65 54.96 95.12 61.63 87.61 C 70.79 77.12 79.84 66.54 89.00 56.04 C 92.73 52.01 95.15 47.02 96.99 41.90 C 102.11 27.94 108.12 14.30 112.23 0.00 Z" />
<path fill="#282828" opacity="1.00" d=" M 167.61 81.69 C 169.99 81.69 172.37 81.69 174.75 81.70 C 174.91 96.48 174.62 111.26 175.14 126.03 C 175.43 141.98 174.47 158.13 177.60 173.87 C 179.53 184.09 187.07 193.26 185.13 204.08 C 183.23 213.03 178.66 221.69 171.47 227.51 C 166.76 231.32 160.69 232.44 154.98 233.95 C 153.46 234.52 151.35 234.65 150.75 236.45 C 148.56 241.00 147.27 246.04 143.99 250.00 L 134.94 250.00 C 140.00 243.89 145.00 236.29 143.82 227.97 C 143.26 220.93 139.30 214.54 134.13 209.90 C 126.08 202.57 118.01 195.25 109.95 187.93 C 105.75 184.13 101.78 179.90 96.66 177.32 C 91.27 174.51 85.78 171.82 80.88 168.17 C 76.40 164.79 71.37 162.13 65.87 160.90 C 66.81 159.66 67.76 158.43 68.72 157.21 C 71.59 158.35 74.40 159.63 77.20 160.92 C 74.97 158.97 72.69 157.07 70.42 155.17 C 71.96 153.39 73.49 151.61 75.03 149.84 C 78.84 152.93 82.64 156.05 86.57 158.98 C 83.14 155.40 79.60 151.93 76.55 148.01 C 77.42 146.95 78.30 145.89 79.18 144.83 C 82.61 149.37 86.62 153.40 90.77 157.27 C 95.81 161.99 99.04 168.24 103.95 173.06 C 115.70 183.29 127.08 193.94 138.66 204.35 C 145.41 210.27 150.31 218.63 151.02 227.68 C 156.62 225.97 162.86 225.32 167.54 221.50 C 172.79 216.98 176.19 210.55 177.87 203.89 C 179.49 197.02 175.69 190.61 173.37 184.40 C 169.26 174.29 168.89 163.26 168.22 152.52 C 167.82 128.91 167.70 105.30 167.61 81.69 Z" />
<path fill="#282828" opacity="1.00" d=" M 18.31 145.33 C 24.76 138.93 32.38 131.99 42.15 132.41 C 39.71 137.45 33.62 137.46 29.69 140.70 C 25.57 143.87 21.57 147.29 18.39 151.43 C 12.14 159.29 6.01 167.24 0.00 175.28 L 0.00 168.61 C 5.98 160.76 11.83 152.78 18.31 145.33 Z" />
<path fill="#282828" opacity="1.00" d=" M 54.73 141.95 C 56.10 140.14 57.48 138.33 58.87 136.54 C 62.66 139.50 66.62 142.31 69.93 145.83 C 68.34 147.60 66.75 149.37 65.18 151.14 C 61.09 148.82 57.85 145.40 54.73 141.95 Z" />
<path fill="#282828" opacity="1.00" d=" M 41.47 165.42 C 46.90 160.81 53.59 157.86 60.57 156.57 C 58.69 159.36 56.35 161.94 53.07 163.06 C 44.72 166.38 38.92 173.49 32.36 179.31 C 22.51 188.94 10.68 196.17 0.00 204.80 L 0.00 199.73 C 9.78 191.89 20.55 185.27 29.51 176.44 C 33.48 172.74 37.35 168.94 41.47 165.42 Z" />
</g>
<g id="#dedddeff">
<path fill="#deddde" opacity="1.00" d=" M 163.37 0.00 L 167.21 0.00 C 160.50 14.74 155.47 30.28 147.42 44.39 C 141.39 55.34 136.29 66.85 128.98 77.04 C 123.03 85.73 117.57 94.77 111.05 103.06 C 105.23 110.56 99.65 118.26 93.44 125.46 C 76.08 145.75 59.22 166.47 41.20 186.19 C 34.46 193.45 28.20 201.16 21.14 208.13 C 14.11 215.23 7.04 222.30 0.00 229.39 L 0.00 225.13 C 7.80 216.90 16.09 209.15 23.85 200.88 C 36.18 186.88 48.99 173.30 60.91 158.94 C 76.01 140.70 92.12 123.27 106.23 104.23 C 115.08 93.18 122.42 81.05 130.36 69.36 C 136.19 59.63 141.10 49.38 146.54 39.42 C 151.63 30.39 154.95 20.53 159.14 11.08 C 160.79 7.48 162.02 3.72 163.37 0.00 Z" />
</g>
</svg>
