<?xml version="1.0" encoding="UTF-8" ?>
<!DOCTYPE svg PUBLIC "-//W3C//DTD SVG 1.1//EN" "http://www.w3.org/Graphics/SVG/1.1/DTD/svg11.dtd">
<svg width="64pt" height="64pt" viewBox="0 0 64 64" version="1.1" xmlns="http://www.w3.org/2000/svg">
<g id="#020301f3">
<path fill="#020301" opacity="0.95" d=" M 24.87 9.51 C 25.25 7.42 24.02 4.47 26.10 3.10 C 29.94 2.68 33.82 2.92 37.67 3.23 C 37.84 5.20 37.93 7.18 38.22 9.14 C 40.99 10.49 44.07 11.51 46.14 13.93 C 49.25 16.94 50.10 21.46 49.64 25.62 C 45.58 26.82 41.05 24.88 37.26 26.87 C 43.00 26.76 48.94 30.55 50.66 36.16 C 52.13 41.24 50.67 47.13 46.77 50.75 C 44.52 52.71 41.67 53.75 38.90 54.74 C 38.82 56.69 38.73 58.65 38.61 60.61 C 34.35 61.17 29.93 61.54 25.73 60.39 C 25.73 58.50 25.73 56.60 25.70 54.71 C 19.62 53.20 13.94 48.60 13.07 42.11 C 13.05 40.38 11.80 37.78 13.95 36.87 C 17.65 36.49 21.39 36.75 25.10 36.76 C 25.78 39.15 26.07 42.34 28.75 43.36 C 31.54 44.29 35.19 44.63 37.56 42.58 C 39.30 41.29 37.23 39.61 35.97 39.06 C 29.95 36.82 22.95 36.49 17.92 32.07 C 13.12 27.77 13.06 19.83 16.83 14.85 C 18.75 12.13 21.92 10.79 24.87 9.51 M 27.25 5.31 C 27.26 7.29 27.27 9.27 27.29 11.25 C 21.27 12.53 15.88 17.58 16.31 24.11 C 17.08 30.65 23.78 33.60 29.49 34.70 C 33.46 35.85 38.90 36.03 40.75 40.45 C 40.56 41.38 40.37 42.31 40.19 43.24 C 35.26 48.80 24.18 46.94 23.08 38.98 C 20.37 38.96 17.67 38.97 14.97 39.00 C 15.14 44.10 18.01 49.33 23.05 50.99 L 22.94 52.40 L 23.37 51.26 C 24.93 51.81 26.51 52.35 28.10 52.84 C 28.08 54.77 28.06 56.71 28.04 58.64 C 30.87 58.63 33.71 58.64 36.54 58.63 C 36.52 56.68 36.50 54.72 36.48 52.76 C 39.23 52.05 42.14 51.43 44.40 49.58 C 48.59 46.46 49.95 40.44 48.01 35.67 C 45.79 30.86 40.25 29.50 35.68 28.00 L 35.73 29.08 C 32.94 26.22 27.72 27.47 25.06 24.11 C 25.01 22.71 25.11 21.32 25.35 19.93 C 29.27 15.65 38.87 17.07 39.38 23.71 C 42.18 23.69 44.98 23.70 47.78 23.69 C 47.15 19.82 45.77 15.61 42.08 13.65 C 41.49 13.23 40.32 12.40 39.73 11.98 L 38.73 13.16 L 39.06 11.86 C 37.96 11.67 36.85 11.47 35.75 11.28 C 35.73 9.29 35.71 7.30 35.67 5.32 C 32.86 5.28 30.05 5.29 27.25 5.31 M 27.59 20.57 C 27.48 21.49 27.37 22.41 27.25 23.33 C 30.63 24.45 34.12 25.26 37.40 26.67 C 36.90 24.87 36.85 22.85 35.70 21.31 C 33.45 19.31 30.25 20.07 27.59 20.57 Z" />
</g>
<g id="#acd06cff">
<path fill="#acd06c" opacity="1.00" d=" M 27.25 5.31 C 30.05 5.29 32.86 5.28 35.67 5.32 C 35.71 7.30 35.73 9.29 35.75 11.28 C 36.85 11.47 37.96 11.67 39.06 11.86 L 38.73 13.16 L 39.73 11.98 C 40.32 12.40 41.49 13.23 42.08 13.65 C 45.77 15.61 47.15 19.82 47.78 23.69 C 44.98 23.70 42.18 23.69 39.38 23.71 C 38.87 17.07 29.27 15.65 25.35 19.93 C 24.44 21.31 23.60 22.73 22.74 24.14 C 20.60 24.14 18.45 24.13 16.31 24.11 C 15.88 17.58 21.27 12.53 27.29 11.25 C 27.27 9.27 27.26 7.29 27.25 5.31 Z" />
</g>
<g id="#8fc662ff">
<path fill="#8fc662" opacity="1.00" d=" M 22.74 24.14 C 23.60 22.73 24.44 21.31 25.35 19.93 C 25.11 21.32 25.01 22.71 25.06 24.11 C 27.72 27.47 32.94 26.22 35.73 29.08 L 35.68 28.00 C 40.25 29.50 45.79 30.86 48.01 35.67 C 47.57 36.99 47.06 38.29 46.46 39.55 C 44.60 40.08 42.66 40.21 40.75 40.45 C 38.90 36.03 33.46 35.85 29.49 34.70 C 23.78 33.60 17.08 30.65 16.31 24.11 C 18.45 24.13 20.60 24.14 22.74 24.14 Z" />
</g>
<g id="#6eb853ff">
<path fill="#6eb853" opacity="1.00" d=" M 48.01 35.67 C 49.95 40.44 48.59 46.46 44.40 49.58 C 42.14 51.43 39.23 52.05 36.48 52.76 C 36.50 54.72 36.52 56.68 36.54 58.63 C 33.71 58.64 30.87 58.63 28.04 58.64 C 28.06 56.71 28.08 54.77 28.10 52.84 C 26.51 52.35 24.93 51.81 23.37 51.26 L 22.94 52.40 L 23.05 50.99 C 18.01 49.33 15.14 44.10 14.97 39.00 C 17.67 38.97 20.37 38.96 23.08 38.98 C 24.18 46.94 35.26 48.80 40.19 43.24 C 40.37 42.31 40.56 41.38 40.75 40.45 C 42.66 40.21 44.60 40.08 46.46 39.55 C 47.06 38.29 47.57 36.99 48.01 35.67 Z" />
</g>
</svg>
