<?xml version="1.0" encoding="UTF-8" ?>
<!DOCTYPE svg PUBLIC "-//W3C//DTD SVG 1.1//EN" "http://www.w3.org/Graphics/SVG/1.1/DTD/svg11.dtd">
<svg width="64pt" height="64pt" viewBox="0 0 64 64" version="1.1" xmlns="http://www.w3.org/2000/svg">
<g id="#010101ff">
<path fill="#010101" opacity="1.00" d=" M 15.49 26.45 C 18.62 22.26 17.29 16.04 21.70 12.65 C 24.84 12.78 28.22 12.26 31.05 13.98 C 37.07 17.23 45.26 15.45 50.15 20.86 C 55.72 26.48 54.72 36.81 48.18 41.26 C 44.75 43.99 40.19 43.77 36.08 43.34 C 33.98 47.65 29.90 51.20 24.92 51.32 C 16.94 52.37 9.24 44.93 10.27 36.88 C 10.04 32.63 13.24 29.63 15.49 26.45 M 22.35 15.35 C 20.22 17.77 20.49 21.52 19.50 24.51 C 17.93 27.26 16.06 29.79 13.98 32.17 C 9.87 38.58 14.44 48.14 22.01 48.95 C 26.68 49.84 30.97 47.09 33.59 43.42 C 32.54 42.70 31.50 41.97 30.45 41.24 C 28.13 45.14 22.31 46.46 18.92 43.18 C 15.66 40.76 15.71 35.45 18.49 32.68 C 20.17 30.67 23.08 30.84 25.45 30.49 C 25.68 28.58 26.11 26.70 26.73 24.87 C 26.14 23.84 25.56 22.80 25.02 21.74 C 26.05 20.19 29.03 18.95 26.94 16.62 C 28.36 17.60 29.81 16.70 31.08 16.08 C 28.31 15.16 25.23 14.82 22.35 15.35 M 29.62 21.30 L 28.91 20.02 C 28.44 20.81 27.98 21.60 27.52 22.39 L 28.77 22.63 C 28.45 23.20 27.80 24.33 27.48 24.90 C 28.08 26.01 28.64 27.13 29.19 28.27 C 28.28 33.75 31.96 39.43 37.26 40.95 C 44.08 43.41 51.93 37.08 51.53 30.00 C 51.45 26.15 49.28 22.56 46.06 20.51 C 43.01 18.64 39.24 19.37 36.03 17.93 C 33.32 16.89 30.58 18.76 29.62 21.30 Z" />
<path fill="#010101" opacity="1.00" d=" M 22.85 16.82 C 23.41 16.68 24.52 16.41 25.08 16.28 C 25.29 17.33 25.51 18.38 25.63 19.45 C 24.50 20.11 23.30 19.39 22.19 19.13 C 22.35 18.55 22.69 17.40 22.85 16.82 Z" />
<path fill="#010101" opacity="1.00" d=" M 21.08 23.81 C 21.37 22.64 21.68 21.46 21.99 20.29 C 23.04 21.32 23.91 22.51 24.48 23.88 C 23.63 23.86 21.93 23.83 21.08 23.81 Z" />
<path fill="#010101" opacity="1.00" d=" M 37.35 23.56 C 42.22 21.33 48.55 25.67 47.46 31.12 C 47.26 36.55 39.87 39.36 35.87 35.91 C 31.41 33.03 32.61 25.47 37.35 23.56 Z" />
</g>
<g id="#fafafaff">
<path fill="#fafafa" opacity="1.00" d=" M 22.35 15.35 C 25.23 14.82 28.31 15.16 31.08 16.08 C 29.81 16.70 28.36 17.60 26.94 16.62 C 29.03 18.95 26.05 20.19 25.02 21.74 C 25.56 22.80 26.14 23.84 26.73 24.87 C 26.11 26.70 25.68 28.58 25.45 30.49 C 23.08 30.84 20.17 30.67 18.49 32.68 C 15.71 35.45 15.66 40.76 18.92 43.18 C 22.31 46.46 28.13 45.14 30.45 41.24 C 31.50 41.97 32.54 42.70 33.59 43.42 C 30.97 47.09 26.68 49.84 22.01 48.95 C 14.44 48.14 9.87 38.58 13.98 32.17 C 16.06 29.79 17.93 27.26 19.50 24.51 C 20.49 21.52 20.22 17.77 22.35 15.35 M 22.85 16.82 C 22.69 17.40 22.35 18.55 22.19 19.13 C 23.30 19.39 24.50 20.11 25.63 19.45 C 25.51 18.38 25.29 17.33 25.08 16.28 C 24.52 16.41 23.41 16.68 22.85 16.82 M 21.08 23.81 C 21.93 23.83 23.63 23.86 24.48 23.88 C 23.91 22.51 23.04 21.32 21.99 20.29 C 21.68 21.46 21.37 22.64 21.08 23.81 Z" />
<path fill="#fafafa" opacity="1.00" d=" M 29.62 21.30 C 30.58 18.76 33.32 16.89 36.03 17.93 C 39.24 19.37 43.01 18.64 46.06 20.51 C 49.28 22.56 51.45 26.15 51.53 30.00 C 51.93 37.08 44.08 43.41 37.26 40.95 C 31.96 39.43 28.28 33.75 29.19 28.27 C 28.64 27.13 28.08 26.01 27.48 24.90 C 27.80 24.33 28.45 23.20 28.77 22.63 L 27.52 22.39 C 27.98 21.60 28.44 20.81 28.91 20.02 L 29.62 21.30 M 37.35 23.56 C 32.61 25.47 31.41 33.03 35.87 35.91 C 39.87 39.36 47.26 36.55 47.46 31.12 C 48.55 25.67 42.22 21.33 37.35 23.56 Z" />
</g>
</svg>
