<?xml version="1.0" encoding="UTF-8" ?>
<!DOCTYPE svg PUBLIC "-//W3C//DTD SVG 1.1//EN" "http://www.w3.org/Graphics/SVG/1.1/DTD/svg11.dtd">
<svg width="64pt" height="64pt" viewBox="0 0 64 64" version="1.1" xmlns="http://www.w3.org/2000/svg">
<g id="#010401ff">
<path fill="#010401" opacity="1.00" d=" M 13.64 22.69 C 19.89 17.36 25.11 10.73 32.00 6.22 C 38.90 10.69 44.04 17.38 50.38 22.58 C 53.51 22.98 56.67 22.46 59.80 22.79 C 62.68 23.95 62.09 27.56 62.01 30.04 C 62.20 32.20 60.24 33.59 58.34 33.95 C 57.19 40.94 56.20 47.96 55.07 54.96 C 54.70 56.78 52.79 57.79 51.04 57.58 C 38.69 57.59 26.33 57.55 13.98 57.59 C 12.72 57.49 11.24 57.81 10.19 56.89 C 8.40 55.58 8.78 53.08 8.35 51.16 C 7.34 45.44 6.65 39.67 5.65 33.95 C 3.78 33.59 1.80 32.23 1.99 30.08 C 1.91 27.61 1.29 24.00 4.15 22.80 C 7.30 22.53 10.48 22.81 13.64 22.69 M 31.24 9.08 C 26.55 13.65 21.85 18.21 17.11 22.73 C 16.35 23.45 15.59 24.16 14.82 24.88 C 11.88 24.91 8.93 24.93 5.98 24.92 C 5.55 25.24 4.68 25.87 4.25 26.19 C 4.23 27.93 4.34 29.68 4.71 31.39 C 5.40 31.40 6.77 31.42 7.46 31.44 C 7.82 33.17 8.25 34.89 8.74 36.60 L 8.30 36.67 C 8.78 39.13 9.24 41.60 9.62 44.08 C 10.23 47.84 10.18 51.86 12.02 55.30 C 25.31 55.59 38.61 55.34 51.90 55.37 C 53.87 51.97 53.75 47.83 54.37 44.04 C 54.80 41.55 55.32 39.06 55.52 36.52 C 55.78 34.81 56.15 33.12 56.52 31.43 C 57.19 31.42 58.53 31.39 59.19 31.38 C 59.69 29.69 59.75 27.94 59.74 26.20 C 59.31 25.88 58.44 25.24 58.01 24.92 C 55.05 24.91 52.10 24.91 49.14 24.91 C 47.75 23.51 46.33 22.15 44.96 20.74 C 40.63 17.13 36.91 12.88 32.76 9.09 C 32.38 9.09 31.62 9.09 31.24 9.08 Z" />
<path fill="#010401" opacity="1.00" d=" M 24.00 24.64 C 26.20 21.42 29.38 19.06 31.99 16.20 C 34.72 18.89 37.39 21.64 40.19 24.27 C 34.83 25.03 29.39 24.34 24.00 24.64 M 29.00 22.48 C 31.00 22.54 33.00 22.54 35.00 22.46 C 34.00 21.43 33.00 20.40 31.99 19.38 C 30.99 20.41 29.99 21.44 29.00 22.48 Z" />
<path fill="#010401" opacity="1.00" d=" M 16.26 33.93 C 17.06 32.59 18.62 32.23 19.95 31.65 C 21.00 32.66 21.98 33.77 22.32 35.23 C 22.34 38.83 22.27 42.43 22.35 46.02 C 21.95 46.58 21.16 47.69 20.76 48.25 C 19.08 48.36 17.51 48.01 16.25 46.85 C 16.26 46.18 16.27 44.86 16.28 44.20 C 16.27 40.77 16.27 37.35 16.26 33.93 Z" />
<path fill="#010401" opacity="1.00" d=" M 30.53 32.30 C 32.78 30.91 35.39 33.17 35.06 35.60 C 35.05 37.00 35.05 38.40 35.06 39.80 C 35.11 42.62 35.18 45.50 34.17 48.18 C 32.71 48.16 31.24 48.15 29.78 48.14 C 28.85 45.44 28.88 42.58 28.93 39.76 C 28.93 38.61 28.93 37.46 28.93 36.31 C 29.06 34.89 28.92 32.96 30.53 32.30 Z" />
<path fill="#010401" opacity="1.00" d=" M 41.62 40.17 C 41.51 37.17 41.20 33.60 44.04 31.66 C 45.38 32.20 46.83 32.66 47.73 33.88 C 47.72 37.31 47.73 40.73 47.72 44.16 C 47.73 44.84 47.74 46.21 47.74 46.90 C 46.61 47.58 45.46 48.67 44.02 48.21 C 42.04 47.96 41.67 45.66 41.67 44.04 C 41.67 42.75 41.65 41.46 41.62 40.17 Z" />
</g>
<g id="#aacd6dff">
<path fill="#aacd6d" opacity="1.00" d=" M 31.24 9.08 C 31.62 9.09 32.38 9.09 32.76 9.09 C 36.91 12.88 40.63 17.13 44.96 20.74 C 44.62 21.43 43.93 22.82 43.59 23.52 C 42.46 23.76 41.32 24.02 40.19 24.27 C 37.39 21.64 34.72 18.89 31.99 16.20 C 29.38 19.06 26.20 21.42 24.00 24.64 C 23.86 25.44 23.57 27.03 23.43 27.83 C 22.57 27.75 21.72 27.67 20.86 27.59 C 19.88 25.78 18.64 24.12 17.11 22.73 C 21.85 18.21 26.55 13.65 31.24 9.08 Z" />
</g>
<g id="#95c763ff">
<path fill="#95c763" opacity="1.00" d=" M 44.96 20.74 C 46.33 22.15 47.75 23.51 49.14 24.91 C 52.10 24.91 55.05 24.91 58.01 24.92 C 58.44 25.24 59.31 25.88 59.74 26.20 C 59.75 27.94 59.69 29.69 59.19 31.38 C 58.53 31.39 57.19 31.42 56.52 31.43 C 56.15 33.12 55.78 34.81 55.52 36.52 C 52.81 36.11 49.63 36.22 47.73 33.88 C 46.83 32.66 45.38 32.20 44.04 31.66 C 41.20 33.60 41.51 37.17 41.62 40.17 C 40.93 38.92 40.19 37.71 39.45 36.49 C 37.98 36.21 36.52 35.91 35.06 35.60 C 35.39 33.17 32.78 30.91 30.53 32.30 C 28.92 32.96 29.06 34.89 28.93 36.31 C 26.72 36.01 24.51 35.67 22.32 35.23 C 21.98 33.77 21.00 32.66 19.95 31.65 C 18.62 32.23 17.06 32.59 16.26 33.93 C 14.37 36.12 11.35 36.08 8.74 36.60 C 8.25 34.89 7.82 33.17 7.46 31.44 C 6.77 31.42 5.40 31.40 4.71 31.39 C 4.34 29.68 4.23 27.93 4.25 26.19 C 4.68 25.87 5.55 25.24 5.98 24.92 C 8.93 24.93 11.88 24.91 14.82 24.88 C 15.59 24.16 16.35 23.45 17.11 22.73 C 18.64 24.12 19.88 25.78 20.86 27.59 C 21.72 27.67 22.57 27.75 23.43 27.83 C 23.57 27.03 23.86 25.44 24.00 24.64 C 29.39 24.34 34.83 25.03 40.19 24.27 C 41.32 24.02 42.46 23.76 43.59 23.52 C 43.93 22.82 44.62 21.43 44.96 20.74 Z" />
</g>
<g id="#75ba56ff">
<path fill="#75ba56" opacity="1.00" d=" M 8.74 36.60 C 11.35 36.08 14.37 36.12 16.26 33.93 C 16.27 37.35 16.27 40.77 16.28 44.20 C 14.06 44.16 11.84 44.13 9.62 44.08 C 9.24 41.60 8.78 39.13 8.30 36.67 L 8.74 36.60 Z" />
<path fill="#75ba56" opacity="1.00" d=" M 47.73 33.88 C 49.63 36.22 52.81 36.11 55.52 36.52 C 55.32 39.06 54.80 41.55 54.37 44.04 C 52.15 44.09 49.94 44.13 47.72 44.16 C 47.73 40.73 47.72 37.31 47.73 33.88 Z" />
<path fill="#75ba56" opacity="1.00" d=" M 22.32 35.23 C 24.51 35.67 26.72 36.01 28.93 36.31 C 28.93 37.46 28.93 38.61 28.93 39.76 C 28.69 42.17 28.11 44.53 27.60 46.90 C 27.04 46.90 25.94 46.91 25.39 46.92 C 24.68 46.20 23.98 45.49 23.27 44.78 C 22.96 45.20 22.66 45.61 22.35 46.02 C 22.27 42.43 22.34 38.83 22.32 35.23 Z" />
<path fill="#75ba56" opacity="1.00" d=" M 35.06 35.60 C 36.52 35.91 37.98 36.21 39.45 36.49 C 40.19 37.71 40.93 38.92 41.62 40.17 C 41.65 41.46 41.67 42.75 41.67 44.04 C 40.70 45.01 39.74 45.99 38.78 46.99 C 38.17 46.94 36.95 46.84 36.34 46.79 C 35.84 44.47 35.28 42.16 35.06 39.80 C 35.05 38.40 35.05 37.00 35.06 35.60 Z" />
</g>
<g id="#63b34eff">
<path fill="#63b34e" opacity="1.00" d=" M 27.60 46.90 C 28.11 44.53 28.69 42.17 28.93 39.76 C 28.88 42.58 28.85 45.44 29.78 48.14 C 31.24 48.15 32.71 48.16 34.17 48.18 C 35.18 45.50 35.11 42.62 35.06 39.80 C 35.28 42.16 35.84 44.47 36.34 46.79 C 36.95 46.84 38.17 46.94 38.78 46.99 C 39.74 45.99 40.70 45.01 41.67 44.04 C 41.67 45.66 42.04 47.96 44.02 48.21 C 45.46 48.67 46.61 47.58 47.74 46.90 C 47.74 46.21 47.73 44.84 47.72 44.16 C 49.94 44.13 52.15 44.09 54.37 44.04 C 53.75 47.83 53.87 51.97 51.90 55.37 C 38.61 55.34 25.31 55.59 12.02 55.30 C 10.18 51.86 10.23 47.84 9.62 44.08 C 11.84 44.13 14.06 44.16 16.28 44.20 C 16.27 44.86 16.26 46.18 16.25 46.85 C 17.51 48.01 19.08 48.36 20.76 48.25 C 21.16 47.69 21.95 46.58 22.35 46.02 C 22.66 45.61 22.96 45.20 23.27 44.78 C 23.98 45.49 24.68 46.20 25.39 46.92 C 25.94 46.91 27.04 46.90 27.60 46.90 Z" />
</g>
</svg>
