<?xml version="1.0" encoding="UTF-8" ?>
<!DOCTYPE svg PUBLIC "-//W3C//DTD SVG 1.1//EN" "http://www.w3.org/Graphics/SVG/1.1/DTD/svg11.dtd">
<svg width="64pt" height="64pt" viewBox="0 0 64 64" version="1.1" xmlns="http://www.w3.org/2000/svg">
<g id="#040504f4">
<path fill="#040504" opacity="0.96" d=" M 7.99 9.01 C 6.75 7.59 5.59 4.59 8.10 3.81 C 13.08 3.55 18.08 3.72 23.06 3.80 C 26.40 8.42 29.09 13.45 32.13 18.26 C 35.75 13.68 37.89 7.85 42.15 3.87 C 47.16 3.48 52.20 3.75 57.22 3.80 C 57.36 4.88 57.91 6.11 57.19 7.12 C 52.01 15.09 46.51 22.85 41.36 30.84 C 46.94 39.19 52.53 47.53 58.05 55.91 C 58.86 56.98 58.67 58.37 58.82 59.63 C 53.37 60.83 47.56 60.39 42.04 59.97 C 38.08 55.09 35.38 49.30 31.70 44.20 C 28.12 49.50 25.04 55.14 21.13 60.21 C 16.40 60.27 11.66 60.44 6.93 60.20 C 5.43 60.04 4.75 58.63 5.19 57.27 C 10.62 48.06 17.41 39.67 22.70 30.38 C 17.48 23.48 13.07 16.01 7.99 9.01 M 8.93 6.56 C 14.37 13.40 18.78 21.01 23.90 28.09 C 24.81 29.15 25.25 30.48 25.45 31.85 C 22.73 33.89 21.78 37.43 19.47 39.88 C 15.46 45.88 11.47 51.89 7.47 57.90 C 11.63 57.91 15.80 57.94 19.96 57.94 C 22.88 53.12 26.39 48.68 29.01 43.69 L 29.29 43.65 C 30.10 42.34 30.95 41.05 31.82 39.79 C 32.73 41.15 33.63 42.53 34.48 43.93 C 37.15 48.67 40.56 52.98 42.95 57.88 C 47.48 57.99 52.01 57.90 56.54 57.90 C 52.54 51.89 48.51 45.91 44.56 39.87 C 42.39 36.92 40.43 33.81 38.52 30.67 C 39.20 29.72 39.87 28.76 40.52 27.79 C 45.18 20.42 50.31 13.35 54.99 5.99 C 50.91 6.46 46.27 5.06 42.51 6.65 C 38.93 11.90 35.66 17.39 32.29 22.78 C 28.66 17.26 25.28 11.58 21.75 5.99 C 17.49 6.24 13.08 5.38 8.93 6.56 Z" />
</g>
<g id="#f4f3f4ff">
<path fill="#f4f3f4" opacity="1.00" d=" M 8.93 6.56 C 13.08 5.38 17.49 6.24 21.75 5.99 C 25.28 11.58 28.66 17.26 32.29 22.78 C 35.66 17.39 38.93 11.90 42.51 6.65 C 46.27 5.06 50.91 6.46 54.99 5.99 C 50.31 13.35 45.18 20.42 40.52 27.79 C 35.35 28.44 29.50 27.92 25.45 31.85 C 25.25 30.48 24.81 29.15 23.90 28.09 C 18.78 21.01 14.37 13.40 8.93 6.56 Z" />
</g>
<g id="#dcdcdcff">
<path fill="#dcdcdc" opacity="1.00" d=" M 25.45 31.85 C 29.50 27.92 35.35 28.44 40.52 27.79 C 39.87 28.76 39.20 29.72 38.52 30.67 C 40.43 33.81 42.39 36.92 44.56 39.87 C 44.19 41.14 43.82 42.41 43.46 43.68 C 40.47 43.83 37.47 43.91 34.48 43.93 C 33.63 42.53 32.73 41.15 31.82 39.79 C 30.95 41.05 30.10 42.34 29.29 43.65 L 29.01 43.69 C 26.23 44.11 23.43 44.42 20.63 44.64 C 20.24 43.06 19.85 41.47 19.47 39.88 C 21.78 37.43 22.73 33.89 25.45 31.85 Z" />
</g>
<g id="#cbcbcbff">
<path fill="#cbcbcb" opacity="1.00" d=" M 7.47 57.90 C 11.47 51.89 15.46 45.88 19.47 39.88 C 19.85 41.47 20.24 43.06 20.63 44.64 C 23.43 44.42 26.23 44.11 29.01 43.69 C 26.39 48.68 22.88 53.12 19.96 57.94 C 15.80 57.94 11.63 57.91 7.47 57.90 Z" />
<path fill="#cbcbcb" opacity="1.00" d=" M 44.56 39.87 C 48.51 45.91 52.54 51.89 56.54 57.90 C 52.01 57.90 47.48 57.99 42.95 57.88 C 40.56 52.98 37.15 48.67 34.48 43.93 C 37.47 43.91 40.47 43.83 43.46 43.68 C 43.82 42.41 44.19 41.14 44.56 39.87 Z" />
</g>
</svg>
