<?xml version="1.0" encoding="UTF-8" ?>
<!DOCTYPE svg PUBLIC "-//W3C//DTD SVG 1.1//EN" "http://www.w3.org/Graphics/SVG/1.1/DTD/svg11.dtd">
<svg width="64pt" height="64pt" viewBox="0 0 64 64" version="1.1" xmlns="http://www.w3.org/2000/svg">
<g id="#010001ff">
<path fill="#010001" opacity="1.00" d=" M 17.28 11.31 C 18.87 10.04 20.77 9.29 22.68 8.67 C 28.86 11.21 33.50 16.31 39.28 19.55 C 45.83 19.99 52.42 19.57 58.99 19.72 C 60.19 19.76 61.33 20.06 62.42 20.60 C 63.08 29.06 62.54 37.57 62.73 46.05 C 63.12 48.84 61.05 51.85 58.10 51.82 C 42.39 51.50 26.67 52.14 10.96 51.72 C 8.72 51.98 6.49 50.21 6.36 47.94 C 6.14 42.84 6.36 37.73 6.29 32.63 C 0.80 32.46 -0.76 25.11 2.51 21.59 C 7.32 18.01 12.45 14.86 17.28 11.31 M 5.97 22.00 C 3.40 23.45 2.15 27.29 4.30 29.61 C 5.60 30.20 7.09 29.90 8.48 30.02 C 8.45 35.95 8.56 41.88 8.44 47.81 C 8.92 48.25 9.88 49.12 10.36 49.55 C 14.51 49.75 18.67 49.47 22.83 49.67 C 23.10 46.43 23.11 43.19 23.06 39.94 C 25.80 39.94 28.53 39.94 31.26 39.94 C 31.24 43.17 31.25 46.39 31.34 49.62 C 32.86 49.62 34.37 49.63 35.88 49.65 C 36.20 42.26 35.72 34.86 36.11 27.48 C 42.82 27.56 49.54 27.49 56.26 27.52 C 56.32 34.87 56.24 42.22 56.31 49.57 C 57.96 49.55 60.42 49.14 60.39 46.99 C 60.64 38.66 60.47 30.31 60.47 21.97 C 53.13 21.97 45.78 22.16 38.45 21.91 C 32.87 18.52 28.16 13.60 22.13 11.06 C 16.56 14.44 11.42 18.44 5.97 22.00 Z" />
<path fill="#010001" opacity="1.00" d=" M 12.69 27.51 C 15.29 27.52 17.89 27.52 20.49 27.51 C 20.47 30.18 20.48 32.86 20.52 35.53 C 17.90 35.47 15.27 35.47 12.64 35.53 C 12.76 32.86 12.75 30.18 12.69 27.51 Z" />
</g>
<g id="#fffeffff">
<path fill="#fffeff" opacity="1.00" d=" M 5.97 22.00 C 11.42 18.44 16.56 14.44 22.13 11.06 C 28.16 13.60 32.87 18.52 38.45 21.91 C 45.78 22.16 53.13 21.97 60.47 21.97 C 60.47 30.31 60.64 38.66 60.39 46.99 C 60.42 49.14 57.96 49.55 56.31 49.57 C 56.24 42.22 56.32 34.87 56.26 27.52 C 49.54 27.49 42.82 27.56 36.11 27.48 C 35.72 34.86 36.20 42.26 35.88 49.65 C 34.37 49.63 32.86 49.62 31.34 49.62 C 31.25 46.39 31.24 43.17 31.26 39.94 C 28.53 39.94 25.80 39.94 23.06 39.94 C 23.11 43.19 23.10 46.43 22.83 49.67 C 18.67 49.47 14.51 49.75 10.36 49.55 C 9.88 49.12 8.92 48.25 8.44 47.81 C 8.56 41.88 8.45 35.95 8.48 30.02 C 7.09 29.90 5.60 30.20 4.30 29.61 C 2.15 27.29 3.40 23.45 5.97 22.00 M 12.69 27.51 C 12.75 30.18 12.76 32.86 12.64 35.53 C 15.27 35.47 17.90 35.47 20.52 35.53 C 20.48 32.86 20.47 30.18 20.49 27.51 C 17.89 27.52 15.29 27.52 12.69 27.51 Z" />
</g>
</svg>
