<?xml version="1.0" encoding="UTF-8" ?>
<!DOCTYPE svg PUBLIC "-//W3C//DTD SVG 1.1//EN" "http://www.w3.org/Graphics/SVG/1.1/DTD/svg11.dtd">
<svg width="64pt" height="64pt" viewBox="0 0 64 64" version="1.1" xmlns="http://www.w3.org/2000/svg">
<g id="#edeeedfc">
<path fill="#edeeed" opacity="1.00" d=" M 11.95 2.17 C 24.27 1.63 36.67 2.12 49.03 1.92 C 50.62 1.89 53.46 1.80 53.48 4.06 C 53.68 21.37 53.47 38.69 53.58 56.01 C 53.51 57.38 53.71 58.84 53.19 60.15 C 52.05 61.15 50.48 61.05 49.08 61.08 C 37.70 61.04 26.32 61.04 14.95 61.08 C 13.52 61.06 11.93 61.14 10.78 60.13 C 10.33 58.81 10.47 57.40 10.42 56.04 C 10.47 39.33 10.44 22.63 10.43 5.92 C 10.49 4.58 10.23 2.59 11.95 2.17 M 12.77 4.26 C 12.63 22.43 13.00 40.60 12.57 58.76 C 15.88 61.15 20.22 59.10 23.99 59.58 C 33.12 60.45 42.28 59.18 51.41 60.04 L 51.35 58.66 C 51.09 40.53 51.30 22.40 51.24 4.26 C 38.41 4.32 25.59 4.32 12.77 4.26 Z" />
</g>
<g id="#050405ff">
<path fill="#050405" opacity="1.00" d=" M 12.77 4.26 C 25.59 4.32 38.41 4.32 51.24 4.26 C 51.30 22.40 51.09 40.53 51.35 58.66 C 46.56 58.69 41.76 58.69 36.97 58.67 C 36.95 55.02 36.94 51.37 36.94 47.73 C 33.53 47.72 30.11 47.72 26.70 47.74 C 26.70 51.38 26.69 55.02 26.65 58.66 C 21.96 58.73 17.27 58.61 12.57 58.76 C 13.00 40.60 12.63 22.43 12.77 4.26 M 17.99 12.29 C 17.65 14.56 17.64 16.86 17.62 19.15 C 19.91 19.31 22.20 19.30 24.49 19.30 C 24.48 17.05 24.50 14.81 24.49 12.56 C 22.32 12.50 20.16 12.43 17.99 12.29 M 28.51 12.51 C 28.51 14.78 28.51 17.05 28.47 19.33 C 30.82 19.23 33.18 19.23 35.53 19.33 C 35.49 17.05 35.49 14.78 35.49 12.51 C 33.16 12.51 30.84 12.51 28.51 12.51 M 39.53 12.54 C 39.49 14.80 39.52 17.05 39.51 19.30 C 41.80 19.30 44.09 19.31 46.38 19.15 C 46.36 16.86 46.35 14.57 46.00 12.30 C 43.85 12.43 41.69 12.50 39.53 12.54 M 17.68 23.28 C 17.68 25.50 17.68 27.72 17.67 29.94 C 19.94 29.96 22.21 29.98 24.49 29.99 C 24.49 27.76 24.50 25.52 24.51 23.29 C 22.23 23.28 19.96 23.29 17.68 23.28 M 28.53 23.34 C 28.43 25.57 28.36 27.82 28.70 30.05 C 30.92 30.00 33.13 30.02 35.35 30.04 C 35.43 27.78 35.48 25.51 35.42 23.25 C 33.12 23.26 30.83 23.26 28.53 23.34 M 39.49 23.29 C 39.49 25.52 39.50 27.76 39.51 29.99 C 41.79 29.98 44.06 29.96 46.33 29.94 C 46.32 27.72 46.31 25.50 46.32 23.28 C 44.04 23.28 41.76 23.29 39.49 23.29 M 17.67 34.06 C 17.68 36.34 17.68 38.63 17.68 40.92 C 19.95 40.93 22.23 40.94 24.51 40.95 C 24.51 38.64 24.50 36.32 24.49 34.01 C 22.21 34.02 19.94 34.04 17.67 34.06 M 28.56 34.58 C 28.28 36.68 28.48 38.82 28.41 40.94 C 30.74 40.92 33.07 40.93 35.40 40.95 C 35.53 38.62 35.48 36.28 35.34 33.95 C 33.15 34.25 30.44 33.32 28.56 34.58 M 39.51 34.01 C 39.50 36.32 39.49 38.64 39.49 40.95 C 41.77 40.94 44.04 40.93 46.32 40.92 C 46.32 38.63 46.32 36.34 46.33 34.06 C 44.06 34.04 41.79 34.02 39.51 34.01 Z" />
</g>
<g id="#fcfdfcff">
<path fill="#fcfdfc" opacity="1.00" d=" M 17.99 12.29 C 20.16 12.43 22.32 12.50 24.49 12.56 C 24.50 14.81 24.48 17.05 24.49 19.30 C 22.20 19.30 19.91 19.31 17.62 19.15 C 17.64 16.86 17.65 14.56 17.99 12.29 Z" />
<path fill="#fcfdfc" opacity="1.00" d=" M 28.51 12.51 C 30.84 12.51 33.16 12.51 35.49 12.51 C 35.49 14.78 35.49 17.05 35.53 19.33 C 33.18 19.23 30.82 19.23 28.47 19.33 C 28.51 17.05 28.51 14.78 28.51 12.51 Z" />
<path fill="#fcfdfc" opacity="1.00" d=" M 39.53 12.54 C 41.69 12.50 43.85 12.43 46.00 12.30 C 46.35 14.57 46.36 16.86 46.38 19.15 C 44.09 19.31 41.80 19.30 39.51 19.30 C 39.52 17.05 39.49 14.80 39.53 12.54 Z" />
<path fill="#fcfdfc" opacity="1.00" d=" M 17.68 23.28 C 19.96 23.29 22.23 23.28 24.51 23.29 C 24.50 25.52 24.49 27.76 24.49 29.99 C 22.21 29.98 19.94 29.96 17.67 29.94 C 17.68 27.72 17.68 25.50 17.68 23.28 Z" />
<path fill="#fcfdfc" opacity="1.00" d=" M 28.53 23.34 C 30.83 23.26 33.12 23.26 35.42 23.25 C 35.48 25.51 35.43 27.78 35.35 30.04 C 33.13 30.02 30.92 30.00 28.70 30.05 C 28.36 27.82 28.43 25.57 28.53 23.34 Z" />
<path fill="#fcfdfc" opacity="1.00" d=" M 39.49 23.29 C 41.76 23.29 44.04 23.28 46.32 23.28 C 46.31 25.50 46.32 27.72 46.33 29.94 C 44.06 29.96 41.79 29.98 39.51 29.99 C 39.50 27.76 39.49 25.52 39.49 23.29 Z" />
<path fill="#fcfdfc" opacity="1.00" d=" M 17.67 34.06 C 19.94 34.04 22.21 34.02 24.49 34.01 C 24.50 36.32 24.51 38.64 24.51 40.95 C 22.23 40.94 19.95 40.93 17.68 40.92 C 17.68 38.63 17.68 36.34 17.67 34.06 Z" />
<path fill="#fcfdfc" opacity="1.00" d=" M 28.56 34.58 C 30.44 33.32 33.15 34.25 35.34 33.95 C 35.48 36.28 35.53 38.62 35.40 40.95 C 33.07 40.93 30.74 40.92 28.41 40.94 C 28.48 38.82 28.28 36.68 28.56 34.58 Z" />
<path fill="#fcfdfc" opacity="1.00" d=" M 39.51 34.01 C 41.79 34.02 44.06 34.04 46.33 34.06 C 46.32 36.34 46.32 38.63 46.32 40.92 C 44.04 40.93 41.77 40.94 39.49 40.95 C 39.49 38.64 39.50 36.32 39.51 34.01 Z" />
<path fill="#fcfdfc" opacity="1.00" d=" M 26.70 47.74 C 30.11 47.72 33.53 47.72 36.94 47.73 C 36.94 51.37 36.95 55.02 36.97 58.67 C 41.76 58.69 46.56 58.69 51.35 58.66 L 51.41 60.04 C 42.28 59.18 33.12 60.45 23.99 59.58 C 20.22 59.10 15.88 61.15 12.57 58.76 C 17.27 58.61 21.96 58.73 26.65 58.66 C 26.69 55.02 26.70 51.38 26.70 47.74 Z" />
</g>
</svg>
