<?xml version="1.0" encoding="UTF-8" ?>
<!DOCTYPE svg PUBLIC "-//W3C//DTD SVG 1.1//EN" "http://www.w3.org/Graphics/SVG/1.1/DTD/svg11.dtd">
<svg width="64pt" height="64pt" viewBox="0 0 64 64" version="1.1" xmlns="http://www.w3.org/2000/svg">
<g id="#020402fe">
<path fill="#020402" opacity="1.00" d=" M 12.72 37.28 C 8.69 31.36 12.74 22.13 19.99 21.58 C 24.52 20.74 28.43 23.71 30.86 27.23 C 36.58 27.30 42.29 27.27 48.01 27.23 C 49.53 27.32 51.57 26.98 52.42 28.62 C 53.14 30.78 52.56 33.10 52.50 35.31 C 51.46 35.65 50.42 35.99 49.39 36.33 C 49.42 38.49 49.25 40.67 47.95 42.49 C 44.20 41.89 40.07 43.25 36.57 41.64 C 36.09 39.88 35.98 38.06 35.78 36.26 C 34.04 36.28 32.31 36.30 30.58 36.33 C 27.19 43.01 16.68 43.75 12.72 37.28 M 13.01 30.64 C 11.78 36.70 19.03 41.94 24.52 39.40 C 26.93 38.68 28.19 36.39 29.39 34.38 C 32.10 34.40 34.81 34.39 37.53 34.39 C 37.84 36.67 36.88 40.30 39.94 40.89 C 41.74 39.23 41.30 36.68 41.45 34.50 C 42.05 34.44 43.24 34.32 43.84 34.26 C 43.99 36.43 43.68 38.77 44.87 40.73 C 48.36 41.07 47.39 36.98 47.54 34.75 C 50.75 35.21 52.56 30.80 49.82 29.09 C 43.03 28.73 36.21 29.07 29.41 28.93 C 27.84 26.47 25.92 23.65 22.73 23.37 C 18.19 22.56 13.43 25.98 13.01 30.64 Z" />
<path fill="#020402" opacity="1.00" d=" M 18.34 28.38 C 20.56 25.99 24.02 27.77 25.79 29.78 C 25.63 31.61 25.80 33.77 24.18 35.04 C 22.37 36.72 19.82 35.86 17.78 35.18 C 17.22 32.98 15.99 29.99 18.34 28.38 Z" />
</g>
<g id="#fafbfaff">
<path fill="#fafbfa" opacity="1.00" d=" M 13.01 30.64 C 13.43 25.98 18.19 22.56 22.73 23.37 C 25.92 23.65 27.84 26.47 29.41 28.93 C 36.21 29.07 43.03 28.73 49.82 29.09 C 52.56 30.80 50.75 35.21 47.54 34.75 C 47.39 36.98 48.36 41.07 44.87 40.73 C 43.68 38.77 43.99 36.43 43.84 34.26 C 43.24 34.32 42.05 34.44 41.45 34.50 C 41.30 36.68 41.74 39.23 39.94 40.89 C 36.88 40.30 37.84 36.67 37.53 34.39 C 34.81 34.39 32.10 34.40 29.39 34.38 C 28.19 36.39 26.93 38.68 24.52 39.40 C 19.03 41.94 11.78 36.70 13.01 30.64 M 18.34 28.38 C 15.99 29.99 17.22 32.98 17.78 35.18 C 19.82 35.86 22.37 36.72 24.18 35.04 C 25.80 33.77 25.63 31.61 25.79 29.78 C 24.02 27.77 20.56 25.99 18.34 28.38 Z" />
</g>
</svg>
