<?xml version="1.0" encoding="UTF-8" ?>
<!DOCTYPE svg PUBLIC "-//W3C//DTD SVG 1.1//EN" "http://www.w3.org/Graphics/SVG/1.1/DTD/svg11.dtd">
<svg width="64pt" height="64pt" viewBox="0 0 64 64" version="1.1" xmlns="http://www.w3.org/2000/svg">
<g id="#000000ff">
<path fill="#000000" opacity="1.00" d=" M 15.03 16.04 C 17.73 13.53 21.32 11.96 25.00 11.73 C 27.69 11.83 29.78 13.72 31.98 15.04 C 34.17 13.70 36.33 11.90 39.01 11.73 C 42.68 11.96 46.27 13.53 48.97 16.03 C 51.83 18.69 53.18 22.48 55.66 25.42 C 57.22 27.25 59.32 28.51 60.92 30.29 C 61.69 32.42 61.53 34.79 61.46 37.01 C 60.44 38.75 58.48 39.63 57.01 40.93 C 52.98 43.90 50.13 48.53 45.26 50.28 C 36.67 52.84 27.36 52.81 18.77 50.28 C 13.60 48.51 10.94 43.34 6.55 40.43 C 5.24 39.44 3.70 38.68 2.67 37.37 C 2.21 35.59 2.54 33.74 2.66 31.95 C 2.64 29.67 5.04 28.71 6.41 27.30 C 10.21 24.30 11.52 19.30 15.03 16.04 M 17.12 16.89 C 13.33 22.42 9.87 28.29 4.39 32.36 C 6.89 32.51 9.62 33.22 11.94 31.93 C 15.84 29.88 19.31 26.72 23.83 26.10 C 29.22 25.32 34.77 25.32 40.16 26.10 C 44.46 26.68 47.82 29.59 51.49 31.63 C 53.87 33.12 56.79 32.72 59.45 32.73 C 56.59 29.28 52.80 26.60 50.79 22.49 C 48.67 17.98 44.26 14.35 39.16 14.18 C 36.00 14.68 33.57 17.20 30.34 17.63 C 29.31 16.51 28.27 15.40 27.24 14.28 C 23.63 13.86 20.30 15.38 17.12 16.89 M 3.32 35.51 C 9.11 38.99 12.94 44.95 18.88 48.15 C 27.28 51.00 36.79 51.05 45.18 48.11 C 51.07 44.95 54.84 39.03 60.60 35.59 C 55.68 34.37 51.86 39.74 46.84 38.27 C 41.35 36.74 35.81 34.82 30.00 35.39 C 25.14 35.30 20.75 37.84 15.97 38.11 C 11.48 38.40 7.87 34.24 3.32 35.51 Z" />
</g>
<g id="#b0285eff">
<path fill="#b0285e" opacity="1.00" d=" M 17.12 16.89 C 20.30 15.38 23.63 13.86 27.24 14.28 C 28.27 15.40 29.31 16.51 30.34 17.63 C 33.57 17.20 36.00 14.68 39.16 14.18 C 44.26 14.35 48.67 17.98 50.79 22.49 C 52.80 26.60 56.59 29.28 59.45 32.73 C 56.79 32.72 53.87 33.12 51.49 31.63 C 47.82 29.59 44.46 26.68 40.16 26.10 C 34.77 25.32 29.22 25.32 23.83 26.10 C 19.31 26.72 15.84 29.88 11.94 31.93 C 9.62 33.22 6.89 32.51 4.39 32.36 C 9.87 28.29 13.33 22.42 17.12 16.89 Z" />
</g>
<g id="#d13849ff">
<path fill="#d13849" opacity="1.00" d=" M 3.32 35.51 C 7.87 34.24 11.48 38.40 15.97 38.11 C 20.75 37.84 25.14 35.30 30.00 35.39 C 35.81 34.82 41.35 36.74 46.84 38.27 C 51.86 39.74 55.68 34.37 60.60 35.59 C 54.84 39.03 51.07 44.95 45.18 48.11 C 36.79 51.05 27.28 51.00 18.88 48.15 C 12.94 44.95 9.11 38.99 3.32 35.51 Z" />
</g>
</svg>
