<?xml version="1.0" encoding="UTF-8" ?>
<!DOCTYPE svg PUBLIC "-//W3C//DTD SVG 1.1//EN" "http://www.w3.org/Graphics/SVG/1.1/DTD/svg11.dtd">
<svg width="64pt" height="64pt" viewBox="0 0 64 64" version="1.1" xmlns="http://www.w3.org/2000/svg">
<g id="#060706ff">
<path fill="#060706" opacity="1.00" d=" M 11.67 4.75 C 18.96 2.31 27.20 2.30 34.46 4.87 C 38.33 6.07 39.95 9.99 41.63 13.28 C 42.75 13.43 44.99 13.72 46.11 13.86 C 45.78 13.52 45.12 12.84 44.79 12.50 C 48.44 14.13 52.58 14.84 55.85 17.22 C 58.67 20.44 59.96 24.68 61.97 28.41 C 61.99 31.38 61.49 34.31 60.97 37.23 C 60.12 41.74 60.35 47.21 55.73 49.73 C 54.64 53.20 53.63 57.32 50.04 59.06 C 44.40 61.48 37.59 61.58 32.05 58.81 C 28.92 57.19 28.00 53.53 26.75 50.53 C 22.32 50.34 17.63 50.41 13.62 48.23 C 9.55 45.96 9.91 40.33 6.37 37.53 C 3.58 35.29 4.01 31.41 3.27 28.25 C 2.83 24.45 0.89 20.41 2.75 16.70 C 4.88 12.26 6.34 6.35 11.67 4.75 M 9.54 8.60 C 7.11 11.88 5.77 15.84 4.02 19.51 C 4.43 21.94 4.77 24.42 5.63 26.74 C 6.10 30.50 5.37 35.99 10.17 37.10 C 11.30 40.74 12.32 44.69 15.57 47.05 C 15.89 45.69 16.33 44.37 16.86 43.08 C 17.44 43.33 18.59 43.83 19.17 44.08 C 19.33 45.85 18.79 48.12 21.03 48.70 C 21.44 45.67 21.90 42.63 22.03 39.57 C 20.87 38.99 19.07 39.23 18.33 38.02 C 18.94 34.40 20.17 30.91 20.58 27.25 L 21.02 27.06 C 22.37 23.90 23.86 20.80 25.37 17.71 C 29.24 14.97 33.91 13.62 38.62 13.48 C 38.15 12.06 37.69 10.65 37.26 9.22 C 34.50 7.26 31.30 5.81 27.88 5.58 C 21.71 4.93 14.84 4.92 9.54 8.60 M 27.88 19.00 C 25.52 21.65 24.72 25.34 22.85 28.34 C 22.57 29.40 22.16 30.50 22.46 31.61 C 23.34 35.66 24.20 39.71 24.57 43.84 C 24.74 45.85 26.87 46.67 28.33 47.63 C 29.55 51.13 30.46 55.07 33.74 57.27 C 34.35 55.91 34.92 54.53 35.44 53.14 C 36.00 53.67 37.11 54.73 37.66 55.27 C 37.57 55.91 37.40 57.19 37.31 57.83 C 37.85 57.83 38.93 57.82 39.47 57.82 C 38.75 55.48 40.51 54.25 42.16 53.11 C 42.46 54.93 42.68 56.76 42.85 58.59 L 44.72 58.59 C 44.68 57.78 44.61 56.18 44.57 55.38 C 45.08 54.83 46.11 53.73 46.63 53.18 C 47.32 54.66 48.01 56.14 48.68 57.62 C 51.69 55.09 53.08 51.44 53.61 47.63 C 55.03 46.68 57.55 46.28 57.55 44.14 C 58.04 39.79 58.79 35.49 59.84 31.24 L 60.34 31.14 C 58.88 27.84 57.42 24.55 55.88 21.29 C 54.49 18.00 50.74 16.88 47.55 16.21 C 40.97 15.18 33.65 15.25 27.88 19.00 Z" />
<path fill="#060706" opacity="1.00" d=" M 7.82 28.74 C 8.15 26.41 8.68 24.10 9.59 21.93 C 12.60 23.05 15.61 24.20 18.45 25.69 C 18.42 26.33 18.35 27.61 18.32 28.25 C 16.70 29.40 15.27 31.16 13.15 31.33 C 10.96 31.77 9.36 29.98 7.82 28.74 Z" />
<path fill="#060706" opacity="1.00" d=" M 26.07 32.45 C 26.46 32.21 27.24 31.74 27.63 31.50 C 30.37 32.69 33.06 33.98 35.79 35.19 C 35.65 35.75 35.38 36.86 35.25 37.42 C 33.74 41.23 29.24 40.95 25.95 40.09 C 25.69 37.55 25.53 34.97 26.07 32.45 Z" />
<path fill="#060706" opacity="1.00" d=" M 44.82 36.66 C 47.71 34.66 50.98 33.26 54.37 32.39 C 55.60 35.57 56.04 39.20 53.42 41.85 C 51.67 41.66 49.86 41.70 48.16 41.16 C 46.39 40.25 45.76 38.26 44.82 36.66 Z" />
<path fill="#060706" opacity="1.00" d=" M 37.42 49.62 C 37.56 46.61 38.28 43.65 39.75 41.01 C 44.36 40.89 43.95 46.39 44.66 49.59 C 42.25 49.62 39.84 49.63 37.42 49.62 Z" />
</g>
<g id="#f3f3f3ff">
<path fill="#f3f3f3" opacity="1.00" d=" M 9.54 8.60 C 14.84 4.92 21.71 4.93 27.88 5.58 C 31.30 5.81 34.50 7.26 37.26 9.22 C 37.69 10.65 38.15 12.06 38.62 13.48 C 33.91 13.62 29.24 14.97 25.37 17.71 C 23.86 20.80 22.37 23.90 21.02 27.06 L 20.58 27.25 C 20.02 27.50 18.88 28.00 18.32 28.25 C 18.35 27.61 18.42 26.33 18.45 25.69 C 15.61 24.20 12.60 23.05 9.59 21.93 C 8.68 24.10 8.15 26.41 7.82 28.74 C 7.27 28.24 6.18 27.24 5.63 26.74 C 4.77 24.42 4.43 21.94 4.02 19.51 C 5.77 15.84 7.11 11.88 9.54 8.60 Z" />
<path fill="#f3f3f3" opacity="1.00" d=" M 27.88 19.00 C 33.65 15.25 40.97 15.18 47.55 16.21 C 50.74 16.88 54.49 18.00 55.88 21.29 C 57.42 24.55 58.88 27.84 60.34 31.14 L 59.84 31.24 C 58.01 31.60 56.18 31.96 54.37 32.39 C 50.98 33.26 47.71 34.66 44.82 36.66 C 43.97 37.61 43.17 38.60 42.36 39.58 C 39.83 39.45 36.96 39.69 35.25 37.42 C 35.38 36.86 35.65 35.75 35.79 35.19 C 33.06 33.98 30.37 32.69 27.63 31.50 C 27.24 31.74 26.46 32.21 26.07 32.45 C 25.01 31.07 23.94 29.70 22.85 28.34 C 24.72 25.34 25.52 21.65 27.88 19.00 Z" />
</g>
<g id="#e0e0e0ff">
<path fill="#e0e0e0" opacity="1.00" d=" M 5.63 26.74 C 6.18 27.24 7.27 28.24 7.82 28.74 C 9.36 29.98 10.96 31.77 13.15 31.33 C 15.27 31.16 16.70 29.40 18.32 28.25 C 18.88 28.00 20.02 27.50 20.58 27.25 C 20.17 30.91 18.94 34.40 18.33 38.02 C 19.07 39.23 20.87 38.99 22.03 39.57 C 21.90 42.63 21.44 45.67 21.03 48.70 C 18.79 48.12 19.33 45.85 19.17 44.08 C 18.59 43.83 17.44 43.33 16.86 43.08 C 16.33 44.37 15.89 45.69 15.57 47.05 C 12.32 44.69 11.30 40.74 10.17 37.10 C 5.37 35.99 6.10 30.50 5.63 26.74 Z" />
<path fill="#e0e0e0" opacity="1.00" d=" M 22.85 28.34 C 23.94 29.70 25.01 31.07 26.07 32.45 C 25.53 34.97 25.69 37.55 25.95 40.09 C 29.24 40.95 33.74 41.23 35.25 37.42 C 36.96 39.69 39.83 39.45 42.36 39.58 C 43.17 38.60 43.97 37.61 44.82 36.66 C 45.76 38.26 46.39 40.25 48.16 41.16 C 49.86 41.70 51.67 41.66 53.42 41.85 C 56.04 39.20 55.60 35.57 54.37 32.39 C 56.18 31.96 58.01 31.60 59.84 31.24 C 58.79 35.49 58.04 39.79 57.55 44.14 C 57.55 46.28 55.03 46.68 53.61 47.63 C 53.08 51.44 51.69 55.09 48.68 57.62 C 48.01 56.14 47.32 54.66 46.63 53.18 C 46.11 53.73 45.08 54.83 44.57 55.38 C 44.61 56.18 44.68 57.78 44.72 58.59 L 42.85 58.59 C 42.68 56.76 42.46 54.93 42.16 53.11 C 40.51 54.25 38.75 55.48 39.47 57.82 C 38.93 57.82 37.85 57.83 37.31 57.83 C 37.40 57.19 37.57 55.91 37.66 55.27 C 37.11 54.73 36.00 53.67 35.44 53.14 C 34.92 54.53 34.35 55.91 33.74 57.27 C 30.46 55.07 29.55 51.13 28.33 47.63 C 26.87 46.67 24.74 45.85 24.57 43.84 C 24.20 39.71 23.34 35.66 22.46 31.61 C 22.16 30.50 22.57 29.40 22.85 28.34 M 37.42 49.62 C 39.84 49.63 42.25 49.62 44.66 49.59 C 43.95 46.39 44.36 40.89 39.75 41.01 C 38.28 43.65 37.56 46.61 37.42 49.62 Z" />
</g>
<g id="#0000002b">
<path fill="#000000" opacity="0.17" d=" M 61.97 28.41 C 62.47 28.31 63.49 28.09 64.00 27.99 L 64.00 35.38 C 63.00 36.01 61.99 36.62 60.97 37.23 C 61.49 34.31 61.99 31.38 61.97 28.41 Z" />
</g>
</svg>
