<?xml version="1.0" encoding="UTF-8" ?>
<!DOCTYPE svg PUBLIC "-//W3C//DTD SVG 1.1//EN" "http://www.w3.org/Graphics/SVG/1.1/DTD/svg11.dtd">
<svg width="64pt" height="64pt" viewBox="0 0 64 64" version="1.1" xmlns="http://www.w3.org/2000/svg">
<g id="#000000fd">
<path fill="#000000" opacity="1.00" d=" M 3.07 15.78 C 8.68 15.53 14.29 15.51 19.90 15.80 C 19.92 17.29 19.93 18.78 19.94 20.27 C 32.99 20.29 46.05 20.25 59.10 20.27 C 61.01 20.08 62.72 20.91 64.00 22.27 L 64.00 24.73 C 63.02 25.92 61.83 27.14 60.13 26.93 C 46.73 27.09 33.32 26.91 19.92 26.99 C 19.94 33.26 19.86 39.53 19.97 45.80 C 21.28 46.38 22.53 47.08 23.62 48.03 C 15.77 48.73 7.87 48.30 0.00 48.30 L 0.00 46.78 C 0.76 46.60 2.28 46.25 3.03 46.08 C 3.08 35.98 3.02 25.88 3.07 15.78 M 5.10 17.65 C 5.08 27.22 5.10 36.78 5.09 46.34 C 9.35 46.35 13.61 46.34 17.87 46.34 C 17.87 39.87 17.88 33.40 17.87 26.94 C 17.26 26.97 16.05 27.04 15.44 27.08 C 13.38 28.80 10.24 29.77 7.96 27.86 C 4.72 25.62 5.42 20.09 9.12 18.72 C 12.25 17.26 14.75 20.50 17.84 20.49 C 17.86 19.55 17.87 18.60 17.88 17.66 C 13.62 17.66 9.36 17.66 5.10 17.65 M 10.44 20.42 C 8.18 20.81 7.05 23.83 8.51 25.60 C 9.88 27.61 13.36 27.24 14.21 24.93 C 15.35 22.58 12.92 19.72 10.44 20.42 M 16.47 22.29 C 16.46 22.95 16.44 24.28 16.43 24.95 C 17.97 24.94 19.51 24.94 21.06 24.94 C 21.94 24.07 22.82 23.19 23.71 22.32 C 21.30 22.32 18.88 22.31 16.47 22.29 M 26.42 22.40 C 25.61 23.26 24.80 24.12 23.97 24.98 C 24.68 24.97 26.10 24.95 26.81 24.94 C 27.67 24.04 28.53 23.14 29.39 22.24 C 28.65 22.28 27.16 22.36 26.42 22.40 M 32.30 22.31 C 31.42 23.18 30.54 24.05 29.66 24.93 C 31.66 24.93 33.67 24.94 35.67 24.94 C 36.53 24.06 37.40 23.19 38.26 22.32 C 36.28 22.31 34.29 22.31 32.30 22.31 M 41.19 22.26 C 40.28 23.21 39.38 24.17 38.48 25.14 C 40.84 25.33 42.58 24.02 44.02 22.34 C 43.32 22.32 41.90 22.28 41.19 22.26 M 44.21 24.93 C 46.21 24.93 48.20 24.94 50.20 24.95 C 51.08 24.07 51.96 23.19 52.85 22.32 C 50.86 22.32 48.88 22.31 46.89 22.31 C 46.00 23.18 45.11 24.05 44.21 24.93 M 53.05 24.92 C 53.78 24.93 55.24 24.94 55.97 24.95 C 56.85 24.02 57.72 23.07 58.57 22.11 C 56.21 21.90 54.49 23.25 53.05 24.92 M 59.39 24.97 C 60.52 25.94 62.61 24.29 61.85 22.97 C 60.75 22.04 58.77 23.73 59.39 24.97 Z" />
<path fill="#000000" opacity="1.00" d=" M 7.30 32.11 C 8.15 29.54 11.06 30.49 13.09 30.36 C 14.34 30.27 15.20 30.86 15.65 32.12 C 12.88 32.51 10.07 32.51 7.30 32.11 Z" />
</g>
<g id="#dcebefff">
<path fill="#dcebef" opacity="1.00" d=" M 5.10 17.65 C 9.36 17.66 13.62 17.66 17.88 17.66 C 17.87 18.60 17.86 19.55 17.84 20.49 C 14.75 20.50 12.25 17.26 9.12 18.72 C 5.42 20.09 4.72 25.62 7.96 27.86 C 10.24 29.77 13.38 28.80 15.44 27.08 C 16.05 27.04 17.26 26.97 17.87 26.94 C 17.88 33.40 17.87 39.87 17.87 46.34 C 13.61 46.34 9.35 46.35 5.09 46.34 C 5.10 36.78 5.08 27.22 5.10 17.65 M 7.30 32.11 C 10.07 32.51 12.88 32.51 15.65 32.12 C 15.20 30.86 14.34 30.27 13.09 30.36 C 11.06 30.49 8.15 29.54 7.30 32.11 Z" />
<path fill="#dcebef" opacity="1.00" d=" M 16.47 22.29 C 18.88 22.31 21.30 22.32 23.71 22.32 C 22.82 23.19 21.94 24.07 21.06 24.94 C 19.51 24.94 17.97 24.94 16.43 24.95 C 16.44 24.28 16.46 22.95 16.47 22.29 Z" />
<path fill="#dcebef" opacity="1.00" d=" M 32.30 22.31 C 34.29 22.31 36.28 22.31 38.26 22.32 C 37.40 23.19 36.53 24.06 35.67 24.94 C 33.67 24.94 31.66 24.93 29.66 24.93 C 30.54 24.05 31.42 23.18 32.30 22.31 Z" />
<path fill="#dcebef" opacity="1.00" d=" M 44.21 24.93 C 45.11 24.05 46.00 23.18 46.89 22.31 C 48.88 22.31 50.86 22.32 52.85 22.32 C 51.96 23.19 51.08 24.07 50.20 24.95 C 48.20 24.94 46.21 24.93 44.21 24.93 Z" />
<path fill="#dcebef" opacity="1.00" d=" M 59.39 24.97 C 58.77 23.73 60.75 22.04 61.85 22.97 C 62.61 24.29 60.52 25.94 59.39 24.97 Z" />
</g>
<g id="#fd5d65ff">
<path fill="#fd5d65" opacity="1.00" d=" M 10.44 20.42 C 12.92 19.72 15.35 22.58 14.21 24.93 C 13.36 27.24 9.88 27.61 8.51 25.60 C 7.05 23.83 8.18 20.81 10.44 20.42 Z" />
<path fill="#fd5d65" opacity="1.00" d=" M 26.42 22.40 C 27.16 22.36 28.65 22.28 29.39 22.24 C 28.53 23.14 27.67 24.04 26.81 24.94 C 26.10 24.95 24.68 24.97 23.97 24.98 C 24.80 24.12 25.61 23.26 26.42 22.40 Z" />
<path fill="#fd5d65" opacity="1.00" d=" M 41.19 22.26 C 41.90 22.28 43.32 22.32 44.02 22.34 C 42.58 24.02 40.84 25.33 38.48 25.14 C 39.38 24.17 40.28 23.21 41.19 22.26 Z" />
<path fill="#fd5d65" opacity="1.00" d=" M 53.05 24.92 C 54.49 23.25 56.21 21.90 58.57 22.11 C 57.72 23.07 56.85 24.02 55.97 24.95 C 55.24 24.94 53.78 24.93 53.05 24.92 Z" />
</g>
</svg>
