<?xml version="1.0" encoding="UTF-8" ?>
<!DOCTYPE svg PUBLIC "-//W3C//DTD SVG 1.1//EN" "http://www.w3.org/Graphics/SVG/1.1/DTD/svg11.dtd">
<svg width="64pt" height="64pt" viewBox="0 0 64 64" version="1.1" xmlns="http://www.w3.org/2000/svg">
<g id="#000000fe">
<path fill="#000000" opacity="1.00" d=" M 33.21 5.25 C 36.02 3.50 40.21 2.28 42.68 5.26 C 46.42 9.75 48.70 15.25 51.74 20.23 C 50.40 21.16 49.05 22.08 47.71 23.01 C 48.44 24.42 49.17 25.83 49.90 27.24 C 47.01 29.03 44.08 30.75 41.16 32.49 C 41.82 33.51 42.47 34.54 43.13 35.56 C 44.69 36.44 46.24 37.32 47.78 38.22 C 50.69 38.21 53.60 38.23 56.52 38.27 C 56.64 33.87 55.88 29.31 57.10 25.02 C 58.55 22.70 61.73 23.62 64.00 23.11 L 64.00 60.62 C 61.64 60.53 58.43 61.37 56.99 58.87 C 56.05 54.55 56.55 50.10 56.52 45.72 C 53.60 45.75 50.68 45.79 47.77 45.90 C 45.24 47.23 42.23 49.27 39.41 47.40 C 36.20 45.95 36.33 42.17 36.24 39.20 C 35.87 38.43 35.12 36.89 34.75 36.13 C 29.13 39.36 23.55 42.66 17.90 45.82 C 16.94 44.49 15.99 43.15 15.04 41.81 C 13.64 42.55 12.24 43.29 10.83 44.03 C 8.72 40.63 6.69 37.18 4.75 33.69 C 5.28 33.27 6.35 32.43 6.88 32.01 C 3.54 31.12 1.17 28.66 0.00 25.47 L 0.00 24.54 C 11.01 18.00 22.16 11.72 33.21 5.25 M 33.23 8.11 C 23.18 14.01 13.06 19.78 2.98 25.62 C 3.27 26.14 3.85 27.18 4.14 27.70 C 6.30 27.01 8.97 23.75 10.72 26.72 C 9.51 27.52 8.29 28.31 7.06 29.09 C 12.73 30.62 18.40 32.14 24.06 33.66 C 32.21 28.95 40.36 24.26 48.50 19.54 C 45.94 15.40 43.92 10.91 40.99 7.00 C 38.76 4.41 35.50 6.90 33.23 8.11 M 24.34 36.32 C 20.63 35.31 16.92 34.30 13.20 33.33 C 14.96 36.42 16.74 39.51 18.53 42.60 C 27.91 37.18 37.30 31.76 46.68 26.35 C 46.37 25.81 45.75 24.73 45.44 24.19 C 38.40 28.22 31.41 32.35 24.34 36.32 M 59.30 26.45 C 58.60 31.60 59.16 36.84 59.00 42.03 C 59.15 47.19 58.64 52.39 59.27 57.52 C 59.80 57.85 60.85 58.50 61.38 58.83 C 61.58 47.61 61.57 36.39 61.38 25.17 C 60.86 25.49 59.82 26.13 59.30 26.45 M 7.96 34.27 C 9.21 36.44 10.46 38.61 11.71 40.78 C 12.25 40.47 13.34 39.85 13.88 39.54 C 12.63 37.37 11.38 35.20 10.13 33.03 C 9.59 33.34 8.50 33.96 7.96 34.27 M 37.23 34.36 C 36.05 36.42 39.31 38.55 40.49 36.12 C 39.91 34.44 39.07 32.69 37.23 34.36 M 41.36 38.34 C 39.43 38.91 38.15 40.97 38.75 42.96 C 39.32 45.95 43.62 46.78 45.37 44.31 C 47.82 41.71 44.62 37.25 41.36 38.34 M 48.59 40.74 C 48.59 41.37 48.59 42.63 48.59 43.26 C 51.22 43.25 53.86 43.25 56.50 43.25 C 56.50 42.42 56.50 41.58 56.50 40.75 C 53.86 40.75 51.22 40.75 48.59 40.74 Z" />
<path fill="#000000" opacity="1.00" d=" M 33.61 17.16 C 36.22 15.36 38.74 12.53 42.20 12.79 C 42.19 15.18 39.67 15.99 37.97 17.04 C 36.63 18.01 35.05 17.80 33.61 17.16 Z" />
<path fill="#000000" opacity="1.00" d=" M 42.30 17.44 C 42.89 17.63 44.06 18.01 44.64 18.20 C 43.09 20.37 40.43 21.39 38.07 22.44 C 37.74 22.04 37.09 21.25 36.77 20.86 C 38.42 19.45 40.29 18.28 42.30 17.44 Z" />
<path fill="#000000" opacity="1.00" d=" M 34.15 22.18 C 35.77 21.63 36.33 22.18 35.84 23.82 C 34.22 24.36 33.65 23.82 34.15 22.18 Z" />
<path fill="#000000" opacity="1.00" d=" M 11.07 23.69 C 12.34 22.17 14.60 24.42 13.25 25.77 C 11.98 27.35 9.61 25.05 11.07 23.69 Z" />
<path fill="#000000" opacity="1.00" d=" M 40.16 42.23 C 41.39 41.44 42.63 40.65 43.86 39.86 C 44.44 41.74 43.08 42.88 41.80 43.95 C 41.39 43.52 40.57 42.66 40.16 42.23 Z" />
</g>
<g id="#ff9d21ff">
<path fill="#ff9d21" opacity="1.00" d=" M 33.23 8.11 C 35.50 6.90 38.76 4.41 40.99 7.00 C 43.92 10.91 45.94 15.40 48.50 19.54 C 40.36 24.26 32.21 28.95 24.06 33.66 C 18.40 32.14 12.73 30.62 7.06 29.09 C 8.29 28.31 9.51 27.52 10.72 26.72 C 8.97 23.75 6.30 27.01 4.14 27.70 C 3.85 27.18 3.27 26.14 2.98 25.62 C 13.06 19.78 23.18 14.01 33.23 8.11 M 33.61 17.16 C 35.05 17.80 36.63 18.01 37.97 17.04 C 39.67 15.99 42.19 15.18 42.20 12.79 C 38.74 12.53 36.22 15.36 33.61 17.16 M 42.30 17.44 C 40.29 18.28 38.42 19.45 36.77 20.86 C 37.09 21.25 37.74 22.04 38.07 22.44 C 40.43 21.39 43.09 20.37 44.64 18.20 C 44.06 18.01 42.89 17.63 42.30 17.44 M 34.15 22.18 C 33.65 23.82 34.22 24.36 35.84 23.82 C 36.33 22.18 35.77 21.63 34.15 22.18 M 11.07 23.69 C 9.61 25.05 11.98 27.35 13.25 25.77 C 14.60 24.42 12.34 22.17 11.07 23.69 Z" />
</g>
<g id="#70b2cfff">
<path fill="#70b2cf" opacity="1.00" d=" M 24.34 36.32 C 31.41 32.35 38.40 28.22 45.44 24.19 C 45.75 24.73 46.37 25.81 46.68 26.35 C 37.30 31.76 27.91 37.18 18.53 42.60 C 16.74 39.51 14.96 36.42 13.20 33.33 C 16.92 34.30 20.63 35.31 24.34 36.32 Z" />
<path fill="#70b2cf" opacity="1.00" d=" M 59.30 26.45 C 59.82 26.13 60.86 25.49 61.38 25.17 C 61.57 36.39 61.58 47.61 61.38 58.83 C 60.85 58.50 59.80 57.85 59.27 57.52 C 58.64 52.39 59.15 47.19 59.00 42.03 C 59.16 36.84 58.60 31.60 59.30 26.45 Z" />
</g>
<g id="#f3e7c4ff">
<path fill="#f3e7c4" opacity="1.00" d=" M 7.96 34.27 C 8.50 33.96 9.59 33.34 10.13 33.03 C 11.38 35.20 12.63 37.37 13.88 39.54 C 13.34 39.85 12.25 40.47 11.71 40.78 C 10.46 38.61 9.21 36.44 7.96 34.27 Z" />
<path fill="#f3e7c4" opacity="1.00" d=" M 48.59 40.74 C 51.22 40.75 53.86 40.75 56.50 40.75 C 56.50 41.58 56.50 42.42 56.50 43.25 C 53.86 43.25 51.22 43.25 48.59 43.26 C 48.59 42.63 48.59 41.37 48.59 40.74 Z" />
</g>
<g id="#a79f87ff">
<path fill="#a79f87" opacity="1.00" d=" M 37.23 34.36 C 39.07 32.69 39.91 34.44 40.49 36.12 C 39.31 38.55 36.05 36.42 37.23 34.36 Z" />
</g>
<g id="#d06532ff">
<path fill="#d06532" opacity="1.00" d=" M 41.36 38.34 C 44.62 37.25 47.82 41.71 45.37 44.31 C 43.62 46.78 39.32 45.95 38.75 42.96 C 38.15 40.97 39.43 38.91 41.36 38.34 M 40.16 42.23 C 40.57 42.66 41.39 43.52 41.80 43.95 C 43.08 42.88 44.44 41.74 43.86 39.86 C 42.63 40.65 41.39 41.44 40.16 42.23 Z" />
</g>
</svg>
