<?xml version="1.0" encoding="UTF-8" ?>
<!DOCTYPE svg PUBLIC "-//W3C//DTD SVG 1.1//EN" "http://www.w3.org/Graphics/SVG/1.1/DTD/svg11.dtd">
<svg width="64pt" height="64pt" viewBox="0 0 64 64" version="1.1" xmlns="http://www.w3.org/2000/svg">
<g id="#050305fe">
<path fill="#050305" opacity="1.00" d=" M 18.33 8.43 C 22.88 8.35 28.36 6.36 32.00 10.00 C 37.92 5.63 46.23 8.86 53.01 8.95 C 56.98 8.92 62.19 12.15 59.94 17.02 C 59.73 25.04 56.16 34.89 47.17 36.32 C 46.41 40.70 48.71 46.39 44.56 49.53 C 45.44 52.75 43.58 56.48 40.22 56.62 C 35.08 56.00 29.85 55.82 24.72 56.70 C 22.73 57.00 20.64 55.79 20.45 53.67 C 21.11 48.74 15.18 46.16 17.05 41.00 C 19.77 34.61 12.37 35.19 9.25 32.74 C 6.00 26.46 3.08 19.42 4.15 12.20 C 7.53 7.86 13.58 9.29 18.33 8.43 M 10.70 11.63 C 7.80 11.89 3.37 12.90 6.19 17.59 C 10.45 17.47 5.62 27.42 8.59 25.67 C 9.56 31.43 15.83 33.83 21.00 34.20 C 20.85 36.21 20.06 38.12 20.05 40.15 C 19.95 41.65 19.87 43.19 20.20 44.67 C 22.18 47.49 21.25 52.43 24.12 53.99 L 25.05 54.01 L 24.98 54.98 C 28.74 54.98 36.25 54.97 40.01 54.97 L 39.98 53.99 C 43.21 53.68 40.89 48.85 43.30 47.27 C 45.95 45.33 45.13 41.92 44.86 39.00 C 44.29 37.46 43.85 35.85 44.01 34.19 C 46.44 33.93 49.27 33.73 50.86 31.59 C 52.60 31.91 54.92 29.59 54.57 27.84 C 56.59 27.11 55.90 24.83 55.96 23.18 C 56.39 21.25 55.04 18.02 57.80 17.59 L 57.91 13.17 C 52.96 10.38 46.55 11.25 41.02 10.10 C 39.69 10.57 33.08 9.31 34.02 12.99 C 37.49 19.28 32.73 17.89 30.09 17.96 C 29.59 15.35 31.16 11.96 28.81 10.11 C 22.75 9.75 16.71 11.16 10.70 11.63 Z" />
<path fill="#050305" opacity="1.00" d=" M 17.17 18.04 C 20.09 17.94 23.00 17.99 25.92 18.05 C 25.99 19.80 26.12 23.29 26.19 25.03 C 24.80 31.50 14.47 31.42 12.67 25.26 C 12.29 21.71 13.52 18.87 17.17 18.04 Z" />
<path fill="#050305" opacity="1.00" d=" M 38.08 18.03 C 42.68 17.77 47.27 18.49 51.82 19.09 C 51.98 20.46 52.11 21.83 52.19 23.21 C 52.50 30.88 38.55 32.71 37.74 25.20 C 37.83 23.41 38.00 19.82 38.08 18.03 Z" />
<path fill="#050305" opacity="1.00" d=" M 31.16 24.07 C 32.03 24.25 32.89 24.46 33.74 24.73 C 34.90 28.34 35.16 32.85 37.18 35.79 C 41.42 36.53 39.94 40.80 39.10 44.04 C 35.91 44.83 33.90 48.36 30.01 47.00 C 27.89 47.39 27.99 44.23 26.07 43.90 C 23.58 43.32 24.04 40.92 24.23 38.93 C 28.54 35.22 30.15 29.47 31.16 24.07 Z" />
</g>
<g id="#e858c1ff">
<path fill="#e858c1" opacity="1.00" d=" M 10.70 11.63 C 16.71 11.16 22.75 9.75 28.81 10.11 C 31.16 11.96 29.59 15.35 30.09 17.96 C 32.73 17.89 37.49 19.28 34.02 12.99 C 33.08 9.31 39.69 10.57 41.02 10.10 C 46.55 11.25 52.96 10.38 57.91 13.17 L 57.80 17.59 C 55.04 18.02 56.39 21.25 55.96 23.18 C 54.72 23.63 53.43 23.69 52.19 23.21 C 52.11 21.83 51.98 20.46 51.82 19.09 C 47.27 18.49 42.68 17.77 38.08 18.03 C 38.00 19.82 37.83 23.41 37.74 25.20 C 37.33 22.37 35.39 23.69 33.74 24.73 C 32.89 24.46 32.03 24.25 31.16 24.07 C 29.43 23.83 27.66 24.03 26.19 25.03 C 26.12 23.29 25.99 19.80 25.92 18.05 C 23.00 17.99 20.09 17.94 17.17 18.04 C 13.63 17.04 11.39 19.31 11.65 22.83 C 10.58 23.73 9.50 24.61 8.59 25.67 C 5.62 27.42 10.45 17.47 6.19 17.59 C 3.37 12.90 7.80 11.89 10.70 11.63 Z" />
</g>
<g id="#442443ff">
<path fill="#442443" opacity="1.00" d=" M 11.65 22.83 C 11.39 19.31 13.63 17.04 17.17 18.04 C 13.52 18.87 12.29 21.71 12.67 25.26 C 12.41 24.65 11.90 23.43 11.65 22.83 Z" />
<path fill="#442443" opacity="1.00" d=" M 50.86 31.59 C 51.23 29.71 52.71 28.25 54.57 27.84 C 54.92 29.59 52.60 31.91 50.86 31.59 Z" />
<path fill="#442443" opacity="1.00" d=" M 25.05 54.01 C 30.03 53.99 35.00 54.01 39.98 53.99 L 40.01 54.97 C 36.25 54.97 28.74 54.98 24.98 54.98 L 25.05 54.01 Z" />
</g>
<g id="#b960b7ff">
<path fill="#b960b7" opacity="1.00" d=" M 8.59 25.67 C 9.50 24.61 10.58 23.73 11.65 22.83 C 11.90 23.43 12.41 24.65 12.67 25.26 C 14.47 31.42 24.80 31.50 26.19 25.03 C 27.66 24.03 29.43 23.83 31.16 24.07 C 30.15 29.47 28.54 35.22 24.23 38.93 C 22.93 37.93 21.41 39.91 20.05 40.15 C 20.06 38.12 20.85 36.21 21.00 34.20 C 15.83 33.83 9.56 31.43 8.59 25.67 Z" />
<path fill="#b960b7" opacity="1.00" d=" M 33.74 24.73 C 35.39 23.69 37.33 22.37 37.74 25.20 C 38.55 32.71 52.50 30.88 52.19 23.21 C 53.43 23.69 54.72 23.63 55.96 23.18 C 55.90 24.83 56.59 27.11 54.57 27.84 C 52.71 28.25 51.23 29.71 50.86 31.59 C 49.27 33.73 46.44 33.93 44.01 34.19 C 43.85 35.85 44.29 37.46 44.86 39.00 C 43.74 39.48 42.60 39.92 41.49 40.44 C 40.87 41.81 41.10 43.98 39.10 44.04 C 39.94 40.80 41.42 36.53 37.18 35.79 C 35.16 32.85 34.90 28.34 33.74 24.73 Z" />
</g>
<g id="#826eb3ff">
<path fill="#826eb3" opacity="1.00" d=" M 20.05 40.15 C 21.41 39.91 22.93 37.93 24.23 38.93 C 24.04 40.92 23.58 43.32 26.07 43.90 C 27.99 44.23 27.89 47.39 30.01 47.00 C 33.90 48.36 35.91 44.83 39.10 44.04 C 41.10 43.98 40.87 41.81 41.49 40.44 C 42.60 39.92 43.74 39.48 44.86 39.00 C 45.13 41.92 45.95 45.33 43.30 47.27 C 40.89 48.85 43.21 53.68 39.98 53.99 C 35.00 54.01 30.03 53.99 25.05 54.01 L 24.12 53.99 C 23.21 50.67 24.30 45.85 20.20 44.67 C 19.87 43.19 19.95 41.65 20.05 40.15 Z" />
</g>
<g id="#72457bff">
<path fill="#72457b" opacity="1.00" d=" M 20.20 44.67 C 24.30 45.85 23.21 50.67 24.12 53.99 C 21.25 52.43 22.18 47.49 20.20 44.67 Z" />
</g>
<g id="#050605c0">
<path fill="#050605" opacity="0.75" d=" M 24.72 56.70 C 29.85 55.82 35.08 56.00 40.22 56.62 C 35.07 56.96 29.86 57.36 24.72 56.70 Z" />
</g>
</svg>
