<?xml version="1.0" encoding="UTF-8" ?>
<!DOCTYPE svg PUBLIC "-//W3C//DTD SVG 1.1//EN" "http://www.w3.org/Graphics/SVG/1.1/DTD/svg11.dtd">
<svg width="64pt" height="64pt" viewBox="0 0 64 64" version="1.1" xmlns="http://www.w3.org/2000/svg">
<g id="#000000ff">
<path fill="#000000" opacity="1.00" d=" M 0.00 37.74 C 4.29 24.45 15.72 14.21 29.04 10.43 C 32.69 10.51 34.85 14.29 34.65 17.62 C 44.39 24.99 54.25 32.21 64.00 39.57 L 64.00 43.18 C 59.33 43.92 54.55 43.27 49.84 43.52 C 49.95 46.21 50.10 50.05 46.84 50.96 C 43.67 52.21 40.70 49.04 41.10 45.92 C 39.10 47.12 36.75 47.02 34.79 45.80 C 35.08 49.56 35.29 55.55 30.02 55.60 C 23.96 54.90 25.86 47.74 25.52 43.54 C 18.36 43.43 11.19 43.56 4.02 43.48 C 2.10 43.41 0.91 41.84 0.00 40.36 L 0.00 37.74 M 12.00 39.21 C 17.16 39.43 22.43 38.87 27.52 39.47 C 28.72 43.67 27.43 48.41 28.16 52.76 C 29.40 53.97 31.45 53.69 32.00 51.98 C 32.02 48.66 31.97 45.34 32.02 42.01 C 32.43 41.77 33.26 41.29 33.67 41.05 C 35.10 42.42 35.75 44.67 37.99 44.94 C 40.32 44.92 40.67 41.51 42.99 42.00 C 43.58 44.31 42.31 47.08 44.13 49.00 C 49.77 49.36 44.68 41.19 48.00 39.01 C 51.69 39.22 55.40 39.18 59.07 39.65 C 50.55 32.87 41.61 26.55 32.91 19.97 C 23.82 23.07 15.75 30.23 12.00 39.21 Z" />
<path fill="#000000" opacity="1.00" d=" M 29.50 23.47 C 31.42 22.12 34.50 22.26 36.00 24.19 C 36.78 28.76 26.50 27.55 29.50 23.47 Z" />
<path fill="#000000" opacity="1.00" d=" M 34.06 29.10 C 35.69 28.51 38.88 28.46 38.83 30.83 C 37.84 34.14 30.35 31.69 34.06 29.10 Z" />
<path fill="#000000" opacity="1.00" d=" M 21.25 30.29 C 24.43 29.12 30.76 29.46 30.53 33.99 C 28.41 37.91 21.95 37.91 19.15 34.69 C 18.02 32.89 19.50 30.92 21.25 30.29 Z" />
<path fill="#000000" opacity="1.00" d=" M 40.47 32.50 C 42.97 30.93 47.23 30.98 48.72 33.91 C 48.69 36.15 45.91 37.13 43.98 37.00 C 41.63 37.34 37.86 34.79 40.47 32.50 Z" />
</g>
<g id="#ec971fff">
<path fill="#ec971f" opacity="1.00" d=" M 12.00 39.21 C 15.75 30.23 23.82 23.07 32.91 19.97 C 41.61 26.55 50.55 32.87 59.07 39.65 C 55.40 39.18 51.69 39.22 48.00 39.01 C 44.68 41.19 49.77 49.36 44.13 49.00 C 42.31 47.08 43.58 44.31 42.99 42.00 C 40.67 41.51 40.32 44.92 37.99 44.94 C 35.75 44.67 35.10 42.42 33.67 41.05 C 33.26 41.29 32.43 41.77 32.02 42.01 C 31.97 45.34 32.02 48.66 32.00 51.98 C 31.45 53.69 29.40 53.97 28.16 52.76 C 27.43 48.41 28.72 43.67 27.52 39.47 C 22.43 38.87 17.16 39.43 12.00 39.21 M 29.50 23.47 C 26.50 27.55 36.78 28.76 36.00 24.19 C 34.50 22.26 31.42 22.12 29.50 23.47 M 34.06 29.10 C 30.35 31.69 37.84 34.14 38.83 30.83 C 38.88 28.46 35.69 28.51 34.06 29.10 M 21.25 30.29 C 19.50 30.92 18.02 32.89 19.15 34.69 C 21.95 37.91 28.41 37.91 30.53 33.99 C 30.76 29.46 24.43 29.12 21.25 30.29 M 40.47 32.50 C 37.86 34.79 41.63 37.34 43.98 37.00 C 45.91 37.13 48.69 36.15 48.72 33.91 C 47.23 30.98 42.97 30.93 40.47 32.50 Z" />
</g>
</svg>
