<?xml version="1.0" encoding="UTF-8" ?>
<!DOCTYPE svg PUBLIC "-//W3C//DTD SVG 1.1//EN" "http://www.w3.org/Graphics/SVG/1.1/DTD/svg11.dtd">
<svg width="64pt" height="64pt" viewBox="0 0 64 64" version="1.1" xmlns="http://www.w3.org/2000/svg">
<g id="#05040493">
<path fill="#050404" opacity="0.58" d=" M 23.01 6.02 C 33.34 5.97 43.66 5.95 53.98 6.03 L 54.02 6.99 C 43.67 7.00 33.33 6.99 22.98 7.00 L 23.01 6.02 Z" />
<path fill="#050404" opacity="0.58" d=" M 31.73 21.77 C 36.65 20.85 41.72 20.60 46.94 21.02 C 46.97 21.47 47.02 22.38 47.05 22.83 C 42.00 21.77 36.83 22.24 31.73 21.77 Z" />
<path fill="#050404" opacity="0.58" d=" M 29.02 48.02 C 29.22 39.95 28.18 31.51 29.78 23.74 C 30.06 31.81 30.15 39.89 29.96 47.97 L 29.02 48.02 Z" />
</g>
<g id="#090607fe">
<path fill="#090607" opacity="1.00" d=" M 19.02 10.04 C 19.44 8.41 21.15 6.73 22.98 7.00 C 33.33 6.99 43.67 7.00 54.02 6.99 C 55.85 6.74 57.56 8.41 57.99 10.04 C 58.02 16.03 57.97 22.02 58.00 28.00 C 57.98 34.68 57.99 41.35 58.02 48.02 C 57.86 51.19 56.47 55.20 53.04 56.07 C 48.17 59.68 42.01 57.35 37.34 54.67 C 31.48 46.70 36.27 33.55 46.92 33.75 C 46.95 31.02 47.01 25.56 47.05 22.83 C 47.02 22.38 46.97 21.47 46.94 21.02 C 41.72 20.60 36.65 20.85 31.73 21.77 C 31.00 22.35 30.35 23.00 29.78 23.74 C 28.18 31.51 29.22 39.95 29.02 48.02 C 29.14 57.68 15.31 60.47 8.97 55.08 C 2.03 47.98 7.08 32.95 18.00 33.93 L 18.95 33.83 C 19.13 25.90 18.94 17.97 19.02 10.04 M 22.99 8.04 L 23.04 9.02 C 21.80 9.13 21.13 9.80 21.02 11.04 L 20.06 11.01 C 19.84 19.42 19.91 27.84 20.27 36.25 C 18.52 36.98 15.12 35.02 13.14 37.41 C 11.41 37.10 9.10 39.41 9.41 41.14 C 5.60 46.14 9.01 53.96 15.00 55.07 C 20.67 56.82 28.15 52.56 27.03 46.01 L 27.98 45.98 C 28.12 37.33 27.88 28.68 28.04 20.04 C 35.02 19.90 42.00 20.10 48.98 19.98 C 48.83 25.49 49.52 31.09 48.05 36.49 C 39.87 34.19 33.08 46.88 39.23 52.77 C 44.27 57.53 53.59 55.60 55.91 48.94 C 56.27 42.64 55.98 36.31 55.92 30.01 C 56.12 26.67 55.97 23.33 56.03 20.00 C 54.47 17.25 58.64 9.81 53.97 9.01 L 54.00 8.04 C 43.66 7.94 33.32 7.96 22.99 8.04 Z" />
</g>
<g id="#431926ff">
<path fill="#431926" opacity="1.00" d=" M 22.99 8.04 C 33.32 7.96 43.66 7.94 54.00 8.04 L 53.97 9.01 C 43.66 9.01 33.35 8.95 23.04 9.02 L 22.99 8.04 Z" />
<path fill="#431926" opacity="1.00" d=" M 27.07 19.06 C 34.38 18.89 41.69 18.91 49.01 19.01 L 48.98 19.98 C 42.00 20.10 35.02 19.90 28.04 20.04 C 27.88 28.68 28.12 37.33 27.98 45.98 L 27.03 46.01 C 26.99 40.34 27.02 34.67 26.97 29.00 C 27.00 25.69 26.98 22.37 27.07 19.06 Z" />
</g>
<g id="#d53f7fff">
<path fill="#d53f7f" opacity="1.00" d=" M 21.02 11.04 C 21.13 9.80 21.80 9.13 23.04 9.02 C 33.35 8.95 43.66 9.01 53.97 9.01 C 58.64 9.81 54.47 17.25 56.03 20.00 C 55.97 23.33 56.12 26.67 55.92 30.01 C 54.00 29.49 52.05 29.09 50.07 28.86 C 48.91 26.40 51.54 20.31 49.01 19.01 C 41.69 18.91 34.38 18.89 27.07 19.06 C 26.98 22.37 27.00 25.69 26.97 29.00 C 25.00 29.00 23.03 29.00 21.05 29.01 C 21.01 23.02 20.97 17.03 21.02 11.04 Z" />
</g>
<g id="#060606bf">
<path fill="#060606" opacity="0.75" d=" M 18.06 10.01 L 19.02 10.04 C 18.94 17.97 19.13 25.90 18.95 33.83 L 18.00 33.93 C 18.03 25.95 17.84 17.98 18.06 10.01 Z" />
</g>
<g id="#0302024b">
<path fill="#030202" opacity="0.29" d=" M 57.99 10.04 L 58.96 9.99 C 58.99 15.99 59.17 21.99 58.96 27.99 L 58.00 28.00 C 57.97 22.02 58.02 16.03 57.99 10.04 Z" />
</g>
<g id="#6b2842ff">
<path fill="#6b2842" opacity="1.00" d=" M 20.06 11.01 L 21.02 11.04 C 20.97 17.03 21.01 23.02 21.05 29.01 C 21.48 31.58 21.22 33.99 20.27 36.25 C 19.91 27.84 19.84 19.42 20.06 11.01 Z" />
</g>
<g id="#904853ff">
<path fill="#904853" opacity="1.00" d=" M 49.01 19.01 C 51.54 20.31 48.91 26.40 50.07 28.86 C 49.23 31.06 51.95 38.17 48.05 36.49 C 49.52 31.09 48.83 25.49 48.98 19.98 L 49.01 19.01 Z" />
<path fill="#904853" opacity="1.00" d=" M 9.41 41.14 C 9.10 39.41 11.41 37.10 13.14 37.41 C 12.78 39.29 11.29 40.78 9.41 41.14 Z" />
</g>
<g id="#01010133">
<path fill="#010101" opacity="0.20" d=" M 58.00 28.00 L 58.96 27.99 C 59.01 34.65 59.15 41.31 58.95 47.96 L 58.02 48.02 C 57.99 41.35 57.98 34.68 58.00 28.00 Z" />
</g>
<g id="#d37179ff">
<path fill="#d37179" opacity="1.00" d=" M 21.05 29.01 C 23.03 29.00 25.00 29.00 26.97 29.00 C 27.02 34.67 26.99 40.34 27.03 46.01 C 28.15 52.56 20.67 56.82 15.00 55.07 C 9.01 53.96 5.60 46.14 9.41 41.14 C 11.29 40.78 12.78 39.29 13.14 37.41 C 15.12 35.02 18.52 36.98 20.27 36.25 C 21.22 33.99 21.48 31.58 21.05 29.01 Z" />
<path fill="#d37179" opacity="1.00" d=" M 50.07 28.86 C 52.05 29.09 54.00 29.49 55.92 30.01 C 55.98 36.31 56.27 42.64 55.91 48.94 C 53.59 55.60 44.27 57.53 39.23 52.77 C 33.08 46.88 39.87 34.19 48.05 36.49 C 51.95 38.17 49.23 31.06 50.07 28.86 Z" />
</g>
</svg>
