<?xml version="1.0" encoding="UTF-8" ?>
<!DOCTYPE svg PUBLIC "-//W3C//DTD SVG 1.1//EN" "http://www.w3.org/Graphics/SVG/1.1/DTD/svg11.dtd">
<svg width="64pt" height="64pt" viewBox="0 0 64 64" version="1.1" xmlns="http://www.w3.org/2000/svg">
<g id="#070607fe">
<path fill="#070607" opacity="1.00" d=" M 29.06 15.11 C 32.20 13.04 38.26 12.43 39.51 16.99 C 39.93 20.26 36.77 21.76 33.97 21.33 C 33.53 21.70 32.65 22.45 32.20 22.83 C 35.30 25.38 38.45 27.86 41.80 30.08 C 45.71 25.14 53.37 23.82 58.50 27.63 C 63.86 31.24 65.11 39.22 61.57 44.51 C 58.10 49.43 50.97 51.28 45.64 48.34 C 44.30 47.51 42.45 46.78 42.21 45.00 C 42.09 43.75 41.47 43.05 40.35 42.92 C 36.19 42.49 32.02 42.91 27.86 42.76 C 25.14 42.73 22.56 40.55 22.32 37.78 C 22.11 37.72 21.69 37.58 21.47 37.51 C 21.49 36.78 21.51 35.32 21.52 34.59 L 20.12 34.63 C 21.13 39.61 20.50 45.83 15.48 48.44 C 9.32 52.40 0.20 47.32 0.47 39.98 C -0.15 33.05 7.54 27.81 13.91 30.11 C 19.07 25.22 23.90 19.99 29.06 15.11 M 29.72 17.46 C 24.62 22.53 19.66 27.74 14.48 32.72 C 10.50 31.18 4.06 32.28 3.49 37.17 L 3.11 36.64 C 1.55 41.13 4.30 46.72 9.21 47.38 C 13.68 48.37 18.05 44.47 18.31 40.05 C 18.00 38.67 18.51 35.93 16.55 35.82 C 18.06 33.54 20.08 31.71 22.07 29.87 C 23.58 33.24 23.89 37.39 26.44 40.16 C 31.59 40.77 36.81 40.36 41.99 40.45 C 43.43 44.98 48.24 48.22 53.01 47.37 C 58.23 46.59 61.77 41.40 61.44 36.26 C 60.30 32.84 58.29 29.31 54.57 28.28 C 49.68 26.30 44.58 29.53 42.11 33.70 C 37.88 29.90 33.00 26.91 28.81 23.05 C 30.13 21.73 31.45 20.42 32.81 19.13 C 34.30 19.19 37.71 19.22 36.56 16.75 C 34.51 15.39 31.38 15.55 29.72 17.46 Z" />
<path fill="#070607" opacity="1.00" d=" M 45.35 35.21 C 46.78 33.47 48.41 31.36 50.90 31.38 C 54.17 30.95 56.87 33.44 57.87 36.36 C 57.84 39.78 55.80 44.00 51.85 43.78 C 49.11 44.19 47.18 42.11 45.48 40.34 C 47.70 40.26 49.93 40.24 52.16 40.23 C 52.75 39.17 53.34 38.11 53.95 37.05 C 53.44 36.62 52.44 35.76 51.93 35.33 C 49.74 35.31 47.55 35.29 45.35 35.21 Z" />
<path fill="#070607" opacity="1.00" d=" M 7.99 35.96 C 9.25 35.40 10.65 35.42 11.99 35.34 C 10.71 37.00 9.43 38.76 9.52 40.99 C 11.20 39.98 12.85 38.90 14.50 37.84 C 14.70 39.88 14.84 42.52 12.52 43.41 C 9.90 45.23 7.25 42.96 6.01 40.68 C 6.50 39.09 6.14 36.73 7.99 35.96 Z" />
</g>
<g id="#dfdfdfff">
<path fill="#dfdfdf" opacity="1.00" d=" M 29.72 17.46 C 31.38 15.55 34.51 15.39 36.56 16.75 C 37.71 19.22 34.30 19.19 32.81 19.13 C 31.45 20.42 30.13 21.73 28.81 23.05 C 33.00 26.91 37.88 29.90 42.11 33.70 C 44.58 29.53 49.68 26.30 54.57 28.28 C 58.29 29.31 60.30 32.84 61.44 36.26 C 60.55 36.29 58.76 36.34 57.87 36.36 C 56.87 33.44 54.17 30.95 50.90 31.38 C 48.41 31.36 46.78 33.47 45.35 35.21 C 47.55 35.29 49.74 35.31 51.93 35.33 C 52.44 35.76 53.44 36.62 53.95 37.05 C 53.34 38.11 52.75 39.17 52.16 40.23 C 49.93 40.24 47.70 40.26 45.48 40.34 C 44.31 40.38 43.15 40.42 41.99 40.45 C 36.81 40.36 31.59 40.77 26.44 40.16 C 23.89 37.39 23.58 33.24 22.07 29.87 C 20.08 31.71 18.06 33.54 16.55 35.82 C 15.04 35.59 13.52 35.44 11.99 35.34 C 10.65 35.42 9.25 35.40 7.99 35.96 C 6.14 36.73 6.50 39.09 6.01 40.68 C 5.17 39.51 4.31 38.35 3.49 37.17 C 4.06 32.28 10.50 31.18 14.48 32.72 C 19.66 27.74 24.62 22.53 29.72 17.46 Z" />
</g>
<g id="#c6c5c6ff">
<path fill="#c6c5c6" opacity="1.00" d=" M 11.99 35.34 C 13.52 35.44 15.04 35.59 16.55 35.82 C 18.51 35.93 18.00 38.67 18.31 40.05 C 18.05 44.47 13.68 48.37 9.21 47.38 C 4.30 46.72 1.55 41.13 3.11 36.64 L 3.49 37.17 C 4.31 38.35 5.17 39.51 6.01 40.68 C 7.25 42.96 9.90 45.23 12.52 43.41 C 14.84 42.52 14.70 39.88 14.50 37.84 C 12.85 38.90 11.20 39.98 9.52 40.99 C 9.43 38.76 10.71 37.00 11.99 35.34 Z" />
<path fill="#c6c5c6" opacity="1.00" d=" M 57.87 36.36 C 58.76 36.34 60.55 36.29 61.44 36.26 C 61.77 41.40 58.23 46.59 53.01 47.37 C 48.24 48.22 43.43 44.98 41.99 40.45 C 43.15 40.42 44.31 40.38 45.48 40.34 C 47.18 42.11 49.11 44.19 51.85 43.78 C 55.80 44.00 57.84 39.78 57.87 36.36 Z" />
</g>
<g id="#3b3b3bfe">
<path fill="#3b3b3b" opacity="1.00" d=" M 40.35 42.92 C 41.47 43.05 42.09 43.75 42.21 45.00 C 40.68 45.22 40.06 44.52 40.35 42.92 Z" />
</g>
</svg>
