<?xml version="1.0" encoding="UTF-8" ?>
<!DOCTYPE svg PUBLIC "-//W3C//DTD SVG 1.1//EN" "http://www.w3.org/Graphics/SVG/1.1/DTD/svg11.dtd">
<svg width="64pt" height="64pt" viewBox="0 0 64 64" version="1.1" xmlns="http://www.w3.org/2000/svg">
<g id="#090909f6">
<path fill="#090909" opacity="0.96" d=" M 14.61 24.50 C 14.22 20.89 14.26 17.23 14.99 13.67 C 18.15 13.64 21.30 13.64 24.46 13.68 C 24.86 17.91 24.78 22.16 24.69 26.39 C 25.19 26.55 26.20 26.85 26.70 27.00 C 26.91 22.56 26.85 18.10 27.41 13.68 C 30.53 14.15 34.70 12.44 37.11 14.90 C 37.63 19.21 36.95 23.62 38.00 27.88 C 39.41 23.26 39.04 18.39 39.89 13.69 C 42.97 13.65 46.04 13.65 49.12 13.69 C 49.69 17.26 49.76 20.90 49.38 24.50 C 48.87 25.89 50.06 27.47 51.57 27.07 C 52.08 27.07 53.09 27.08 53.60 27.08 C 53.76 30.35 53.76 33.63 53.61 36.90 C 53.09 36.89 52.04 36.88 51.52 36.87 C 49.98 36.48 48.85 38.10 49.38 39.49 C 49.78 43.08 49.67 46.71 49.16 50.27 C 45.94 50.30 42.73 50.30 39.52 50.27 C 39.23 45.53 39.40 40.72 37.99 36.13 C 36.98 40.39 37.62 44.78 37.09 49.08 C 34.62 51.55 30.38 49.84 27.18 50.19 C 26.87 45.57 27.11 40.92 26.52 36.32 C 23.20 40.13 25.43 45.69 24.48 50.28 C 21.25 49.88 17.19 51.41 14.55 49.13 C 14.40 45.14 14.66 41.16 14.76 37.17 C 14.11 37.11 12.81 36.97 12.16 36.91 C 11.70 36.86 10.79 36.76 10.33 36.71 C 10.24 33.51 10.24 30.29 10.39 27.09 C 10.90 27.08 11.92 27.07 12.42 27.07 C 13.93 27.46 15.14 25.89 14.61 24.50 M 16.74 15.98 C 16.74 20.30 16.73 24.63 16.74 28.95 C 15.36 28.94 13.99 28.93 12.62 28.92 C 12.62 30.97 12.62 33.03 12.62 35.08 C 13.99 35.07 15.37 35.06 16.74 35.04 C 16.73 39.37 16.74 43.70 16.74 48.03 C 18.62 48.02 20.50 48.00 22.38 47.99 C 22.38 43.69 22.39 39.39 22.37 35.09 C 24.69 35.04 27.00 35.04 29.32 35.05 C 29.32 39.38 29.32 43.70 29.32 48.02 C 31.23 48.04 33.13 48.02 35.03 48.03 C 35.03 43.69 35.01 39.35 35.05 35.02 C 37.25 35.03 39.44 35.06 41.63 35.10 C 41.61 39.40 41.62 43.69 41.62 47.99 C 43.50 48.01 45.38 48.01 47.26 48.04 C 47.26 43.70 47.27 39.37 47.26 35.04 C 48.63 35.06 50.01 35.07 51.38 35.08 C 51.38 33.03 51.38 30.97 51.38 28.92 C 50.00 28.93 48.63 28.94 47.26 28.96 C 47.27 24.63 47.26 20.30 47.26 15.98 C 45.38 15.97 43.50 15.97 41.63 15.97 C 41.62 20.28 41.61 24.59 41.63 28.90 C 39.44 28.94 37.25 28.97 35.05 28.98 C 35.01 24.64 35.03 20.31 35.03 15.97 C 33.13 15.98 31.22 15.96 29.32 15.98 C 29.32 20.30 29.32 24.62 29.32 28.94 C 27.00 28.96 24.69 28.95 22.37 28.91 C 22.39 24.59 22.38 20.28 22.37 15.97 C 20.50 15.97 18.62 15.97 16.74 15.98 Z" />
</g>
<g id="#fdfdfdff">
<path fill="#fdfdfd" opacity="1.00" d=" M 16.74 15.98 C 18.62 15.97 20.50 15.97 22.37 15.97 C 22.38 20.28 22.39 24.59 22.37 28.91 C 24.69 28.95 27.00 28.96 29.32 28.94 C 29.32 24.62 29.32 20.30 29.32 15.98 C 31.22 15.96 33.13 15.98 35.03 15.97 C 35.03 20.31 35.01 24.64 35.05 28.98 C 37.25 28.97 39.44 28.94 41.63 28.90 C 41.61 24.59 41.62 20.28 41.63 15.97 C 43.50 15.97 45.38 15.97 47.26 15.98 C 47.26 20.30 47.27 24.63 47.26 28.96 C 48.63 28.94 50.00 28.93 51.38 28.92 C 51.38 30.97 51.38 33.03 51.38 35.08 C 50.01 35.07 48.63 35.06 47.26 35.04 C 47.27 39.37 47.26 43.70 47.26 48.04 C 45.38 48.01 43.50 48.01 41.62 47.99 C 41.62 43.69 41.61 39.40 41.63 35.10 C 39.44 35.06 37.25 35.03 35.05 35.02 C 35.01 39.35 35.03 43.69 35.03 48.03 C 33.13 48.02 31.23 48.04 29.32 48.02 C 29.32 43.70 29.32 39.38 29.32 35.05 C 27.00 35.04 24.69 35.04 22.37 35.09 C 22.39 39.39 22.38 43.69 22.38 47.99 C 20.50 48.00 18.62 48.02 16.74 48.03 C 16.74 43.70 16.73 39.37 16.74 35.04 C 15.37 35.06 13.99 35.07 12.62 35.08 C 12.62 33.03 12.62 30.97 12.62 28.92 C 13.99 28.93 15.36 28.94 16.74 28.95 C 16.73 24.63 16.74 20.30 16.74 15.98 Z" />
</g>
<g id="#0000006a">
<path fill="#000000" opacity="0.42" d=" M 12.42 27.07 C 11.04 25.82 13.17 23.18 14.61 24.50 C 15.14 25.89 13.93 27.46 12.42 27.07 Z" />
<path fill="#000000" opacity="0.42" d=" M 49.38 24.50 C 50.83 23.18 52.96 25.82 51.57 27.07 C 50.06 27.47 48.87 25.89 49.38 24.50 Z" />
<path fill="#000000" opacity="0.42" d=" M 12.16 36.91 C 12.81 36.97 14.11 37.11 14.76 37.17 C 14.66 41.16 14.40 45.14 14.55 49.13 C 14.37 45.60 14.36 41.92 12.50 38.78 C 12.41 38.31 12.24 37.38 12.16 36.91 Z" />
<path fill="#000000" opacity="0.42" d=" M 49.38 39.49 C 48.85 38.10 49.98 36.48 51.52 36.87 C 52.94 38.09 50.85 40.79 49.38 39.49 Z" />
</g>
</svg>
