<?xml version="1.0" encoding="UTF-8" ?>
<!DOCTYPE svg PUBLIC "-//W3C//DTD SVG 1.1//EN" "http://www.w3.org/Graphics/SVG/1.1/DTD/svg11.dtd">
<svg width="64pt" height="64pt" viewBox="0 0 64 64" version="1.1" xmlns="http://www.w3.org/2000/svg">
<g id="#060606ed">
<path fill="#060606" opacity="0.93" d=" M 11.41 3.39 C 25.12 3.10 38.86 3.11 52.57 3.38 C 53.26 8.00 53.44 12.76 52.37 17.34 C 43.94 17.27 35.50 17.39 27.07 17.26 C 27.07 19.99 27.06 22.72 27.06 25.44 C 34.04 25.74 41.02 25.36 47.99 25.62 C 49.23 25.44 49.57 27.01 49.57 27.92 C 49.73 30.91 49.79 33.92 49.47 36.90 C 49.40 38.15 48.17 38.97 46.98 38.83 C 40.35 38.98 33.71 38.82 27.08 38.85 C 26.65 46.04 27.88 53.43 26.44 60.48 C 21.46 61.10 16.40 60.77 11.40 60.59 C 10.66 55.78 10.98 50.91 10.94 46.06 C 10.92 34.04 10.97 22.02 10.91 10.00 C 10.90 7.79 11.11 5.58 11.41 3.39 M 13.29 5.57 L 13.32 5.89 C 13.08 23.40 13.38 40.91 13.31 58.43 C 17.11 58.35 20.91 58.39 24.71 58.36 C 24.53 51.04 25.00 43.71 24.61 36.41 C 32.15 36.58 39.70 36.41 47.25 36.47 C 47.24 33.56 47.24 30.66 47.24 27.76 C 39.72 27.70 32.21 27.72 24.69 27.74 C 24.73 23.51 24.72 19.28 24.70 15.05 C 33.35 15.02 42.01 15.06 50.66 15.02 C 50.67 11.87 50.67 8.72 50.71 5.57 C 38.24 5.64 25.76 5.65 13.29 5.57 Z" />
</g>
<g id="#fefcfeff">
<path fill="#fefcfe" opacity="1.00" d=" M 13.29 5.57 C 25.76 5.65 38.24 5.64 50.71 5.57 C 50.67 8.72 50.67 11.87 50.66 15.02 C 50.31 14.35 49.61 13.02 49.26 12.35 C 37.42 11.45 25.56 12.74 13.71 12.22 C 13.63 10.11 13.48 8.00 13.32 5.89 L 13.29 5.57 Z" />
</g>
<g id="#cacbcaff">
<path fill="#cacbca" opacity="1.00" d=" M 13.32 5.89 C 13.48 8.00 13.63 10.11 13.71 12.22 C 13.82 16.24 13.70 20.25 13.69 24.26 C 13.65 30.84 14.02 37.40 14.42 43.96 C 17.36 44.34 20.32 44.50 23.28 44.52 C 23.53 41.80 23.78 39.08 24.03 36.36 L 24.61 36.41 C 25.00 43.71 24.53 51.04 24.71 58.36 C 20.91 58.39 17.11 58.35 13.31 58.43 C 13.38 40.91 13.08 23.40 13.32 5.89 Z" />
</g>
<g id="#eff1efff">
<path fill="#eff1ef" opacity="1.00" d=" M 13.71 12.22 C 25.56 12.74 37.42 11.45 49.26 12.35 C 49.61 13.02 50.31 14.35 50.66 15.02 C 42.01 15.06 33.35 15.02 24.70 15.05 C 24.72 19.28 24.73 23.51 24.69 27.74 L 24.06 27.74 C 24.01 25.30 23.95 22.85 23.87 20.41 C 22.75 21.56 21.62 22.70 20.47 23.83 C 21.11 23.61 22.37 23.17 23.00 22.95 C 22.99 24.36 22.98 25.78 22.97 27.19 C 19.75 26.67 16.61 25.71 13.69 24.26 C 13.70 20.25 13.82 16.24 13.71 12.22 Z" />
</g>
<g id="#dedfdeff">
<path fill="#dedfde" opacity="1.00" d=" M 23.87 20.41 C 23.95 22.85 24.01 25.30 24.06 27.74 L 24.69 27.74 C 32.21 27.72 39.72 27.70 47.24 27.76 C 47.24 30.66 47.24 33.56 47.25 36.47 C 39.70 36.41 32.15 36.58 24.61 36.41 L 24.03 36.36 C 23.78 39.08 23.53 41.80 23.28 44.52 C 20.32 44.50 17.36 44.34 14.42 43.96 C 14.02 37.40 13.65 30.84 13.69 24.26 C 16.61 25.71 19.75 26.67 22.97 27.19 C 22.98 25.78 22.99 24.36 23.00 22.95 C 22.37 23.17 21.11 23.61 20.47 23.83 C 21.62 22.70 22.75 21.56 23.87 20.41 Z" />
</g>
</svg>
