<?xml version="1.0" encoding="UTF-8" ?>
<!DOCTYPE svg PUBLIC "-//W3C//DTD SVG 1.1//EN" "http://www.w3.org/Graphics/SVG/1.1/DTD/svg11.dtd">
<svg width="64pt" height="64pt" viewBox="0 0 64 64" version="1.1" xmlns="http://www.w3.org/2000/svg">
<g id="#060606ff">
<path fill="#060606" opacity="1.00" d=" M 15.17 16.06 C 15.14 14.08 17.82 14.93 19.03 14.68 C 28.95 14.83 38.88 14.48 48.79 14.88 C 49.46 26.03 48.74 37.21 48.99 48.38 C 39.43 49.72 29.69 48.51 20.06 49.03 C 18.46 48.76 14.95 49.65 15.11 47.07 C 15.01 36.74 14.65 26.38 15.17 16.06 M 16.96 16.96 C 16.95 20.44 16.94 23.92 17.00 27.41 C 16.90 33.82 16.98 40.24 16.94 46.65 C 26.93 46.67 36.91 46.63 46.89 46.67 C 47.03 42.97 47.11 39.26 46.97 35.56 C 46.88 29.36 47.13 23.16 47.04 16.96 C 37.01 16.95 26.99 16.95 16.96 16.96 Z" />
<path fill="#060606" opacity="1.00" d=" M 26.81 20.81 C 30.78 18.71 35.44 19.82 39.15 21.92 C 40.00 23.93 41.16 26.13 40.18 28.32 C 39.59 31.12 36.87 32.53 35.06 34.46 C 34.56 35.19 34.08 35.93 33.60 36.67 C 32.19 36.64 30.78 36.62 29.37 36.58 C 29.81 35.18 30.26 33.79 30.70 32.39 C 32.55 30.61 34.35 28.78 36.10 26.91 C 35.34 25.55 35.03 23.26 32.95 23.52 C 29.99 22.73 28.59 25.51 27.23 27.56 C 26.17 27.54 24.06 27.50 23.00 27.48 C 23.88 25.11 24.19 21.98 26.81 20.81 Z" />
<path fill="#060606" opacity="1.00" d=" M 29.67 39.06 C 31.11 39.04 32.56 39.02 34.00 39.00 C 34.03 40.68 34.04 42.36 34.06 44.04 C 32.59 44.04 31.13 44.04 29.67 44.05 C 29.67 42.39 29.67 40.72 29.67 39.06 Z" />
</g>
<g id="#eaebeaff">
<path fill="#eaebea" opacity="1.00" d=" M 16.96 16.96 C 26.99 16.95 37.01 16.95 47.04 16.96 C 47.13 23.16 46.88 29.36 46.97 35.56 C 42.97 35.64 38.84 36.05 35.06 34.46 C 36.87 32.53 39.59 31.12 40.18 28.32 C 41.16 26.13 40.00 23.93 39.15 21.92 C 35.44 19.82 30.78 18.71 26.81 20.81 C 24.19 21.98 23.88 25.11 23.00 27.48 C 24.06 27.50 26.17 27.54 27.23 27.56 C 28.59 25.51 29.99 22.73 32.95 23.52 C 35.03 23.26 35.34 25.55 36.10 26.91 C 34.35 28.78 32.55 30.61 30.70 32.39 C 27.54 32.51 24.37 32.56 21.21 32.54 C 19.82 30.82 18.42 29.10 17.00 27.41 C 16.94 23.92 16.95 20.44 16.96 16.96 Z" />
</g>
<g id="#cdcecdff">
<path fill="#cdcecd" opacity="1.00" d=" M 17.00 27.41 C 18.42 29.10 19.82 30.82 21.21 32.54 C 24.37 32.56 27.54 32.51 30.70 32.39 C 30.26 33.79 29.81 35.18 29.37 36.58 C 30.78 36.62 32.19 36.64 33.60 36.67 C 34.08 35.93 34.56 35.19 35.06 34.46 C 38.84 36.05 42.97 35.64 46.97 35.56 C 47.11 39.26 47.03 42.97 46.89 46.67 C 36.91 46.63 26.93 46.67 16.94 46.65 C 16.98 40.24 16.90 33.82 17.00 27.41 M 29.67 39.06 C 29.67 40.72 29.67 42.39 29.67 44.05 C 31.13 44.04 32.59 44.04 34.06 44.04 C 34.04 42.36 34.03 40.68 34.00 39.00 C 32.56 39.02 31.11 39.04 29.67 39.06 Z" />
</g>
</svg>
