<?xml version="1.0" encoding="UTF-8" ?>
<!DOCTYPE svg PUBLIC "-//W3C//DTD SVG 1.1//EN" "http://www.w3.org/Graphics/SVG/1.1/DTD/svg11.dtd">
<svg width="64pt" height="64pt" viewBox="0 0 64 64" version="1.1" xmlns="http://www.w3.org/2000/svg">
<g id="#050605f6">
<path fill="#050605" opacity="0.96" d=" M 34.15 6.96 C 34.58 6.83 35.44 6.57 35.87 6.43 C 36.07 9.32 35.95 12.22 36.18 15.10 C 41.97 23.22 48.26 30.97 54.30 38.91 C 56.29 38.99 58.29 39.04 60.29 39.07 C 61.07 46.62 57.42 56.50 48.87 57.52 C 40.05 57.65 31.21 57.67 22.39 57.51 C 12.68 56.96 3.83 48.87 3.54 38.95 C 6.05 38.93 8.55 38.93 11.06 38.92 C 18.75 28.27 26.25 17.44 34.15 6.96 M 13.84 38.66 C 20.54 38.67 27.24 38.68 33.94 38.66 C 34.08 29.37 34.06 20.08 33.98 10.79 C 27.03 19.90 20.71 29.48 13.84 38.66 M 35.99 18.84 C 35.82 25.45 36.27 32.06 35.97 38.67 C 41.06 38.69 46.15 38.64 51.24 38.69 C 46.21 32.04 41.35 25.24 35.99 18.84 M 5.77 40.66 C 7.33 48.78 14.71 55.26 23.03 55.41 C 31.69 55.43 40.36 55.63 49.02 55.36 C 55.61 54.15 58.30 46.78 58.42 40.81 C 40.87 40.84 23.32 41.11 5.77 40.66 Z" />
</g>
<g id="#e9e7e9ff">
<path fill="#e9e7e9" opacity="1.00" d=" M 13.84 38.66 C 20.71 29.48 27.03 19.90 33.98 10.79 C 34.06 20.08 34.08 29.37 33.94 38.66 C 27.24 38.68 20.54 38.67 13.84 38.66 Z" />
<path fill="#e9e7e9" opacity="1.00" d=" M 35.99 18.84 C 41.35 25.24 46.21 32.04 51.24 38.69 C 46.15 38.64 41.06 38.69 35.97 38.67 C 36.27 32.06 35.82 25.45 35.99 18.84 Z" />
</g>
<g id="#d8d9d8ff">
<path fill="#d8d9d8" opacity="1.00" d=" M 5.77 40.66 C 23.32 41.11 40.87 40.84 58.42 40.81 C 58.30 46.78 55.61 54.15 49.02 55.36 C 40.36 55.63 31.69 55.43 23.03 55.41 C 14.71 55.26 7.33 48.78 5.77 40.66 Z" />
</g>
</svg>
