<?xml version="1.0"?>
<svg width="64" height="64" xmlns="http://www.w3.org/2000/svg" xmlns:svg="http://www.w3.org/2000/svg">
 <g class="layer">
  <title>Layer 1</title>
  <g id="#030403fc">
   <path d="m6.75,6.6c3.92,-0.3 7.93,-0.44 11.82,0.09c2.03,2.3 0.46,6.14 0.9,9c1.82,0.02 3.65,0.05 5.47,0.08c-0.11,-3.08 -0.08,-6.17 0.5,-9.2c4.36,-0.23 8.74,-0.22 13.11,-0.01c0.59,3.03 0.61,6.13 0.51,9.21c1.82,-0.03 3.64,-0.06 5.47,-0.08c0.16,-2.86 -0.6,-6 0.44,-8.71c3.69,-1.19 7.82,-0.44 11.67,-0.46c2.19,0.2 1.8,2.95 1.88,4.52c-0.05,15.03 0.28,30.07 -0.18,45.08c-0.26,0.31 -0.77,0.94 -1.03,1.26c-4.39,0.5 -8.84,0.06 -13.26,0.23c-1.41,-0.17 -3.4,0.41 -4.34,-0.99c-0.68,-5.51 0.23,-11.1 -0.44,-16.61c-0.72,-4.04 -4.21,-6.59 -7.43,-8.66c-3.24,2.09 -6.68,4.71 -7.39,8.76c-0.51,5.28 0.14,10.6 -0.27,15.88c-0.23,0.35 -0.68,1.04 -0.91,1.39c-5.02,0.48 -10.11,0.13 -15.16,0.18c-2,0.29 -3.03,-1.87 -2.69,-3.59c0.08,-15.34 -0.18,-30.7 0.13,-46.04c0.3,-0.33 0.9,-1 1.2,-1.33m1,2.15c-0.04,15.5 -0.04,31 0,46.51c4.73,0 9.46,-0.05 14.18,0.07c0.15,-5.17 -0.19,-10.35 0.22,-15.5c0.57,-5.15 5.09,-8.4 9.08,-11.02c4.88,1.6 8.98,5.6 10.33,10.61c0.33,5.25 0.03,10.53 0.12,15.79c4.86,0.11 9.72,0.01 14.57,0.05c0,-15.51 0,-31.01 0,-46.51c-3.15,0 -6.31,0.01 -9.46,-0.05c-0.12,3.11 -0.12,6.23 -0.12,9.34c-3.34,0 -6.67,-0.02 -10.01,-0.08c0.05,-3.08 0.05,-6.16 0.05,-9.25c-3.14,0.05 -6.28,0.05 -9.41,0c-0.02,3.08 -0.02,6.15 0.04,9.23c-3.34,0.05 -6.67,0.11 -10.01,0.1c0,-3.11 -0.01,-6.22 -0.11,-9.34c-3.16,0.06 -6.31,0.05 -9.47,0.05z" fill="#030403" id="svg_1" opacity="1"/>
  </g>
  <g id="#ffffffff">
   <path d="m7.75,8.75c3.16,0 6.31,0.01 9.47,-0.05c0.1,3.12 0.11,6.23 0.11,9.34c3.34,0.01 6.67,-0.05 10.01,-0.1c-0.06,-3.08 -0.06,-6.15 -0.04,-9.23c3.13,0.05 6.27,0.05 9.41,0c0,3.09 0,6.17 -0.05,9.25c3.34,0.06 6.67,0.08 10.01,0.08c0,-3.11 0,-6.23 0.12,-9.34c3.15,0.06 6.31,0.05 9.46,0.05c0,15.5 0,31 0,46.51c-4.85,-0.04 -9.71,0.06 -14.57,-0.05c-0.09,-5.26 0.21,-10.54 -0.12,-15.79c-1.35,-5.01 -5.45,-9.01 -10.33,-10.61c-3.99,2.62 -8.51,5.87 -9.08,11.02c-0.41,5.15 -0.07,10.33 -0.22,15.5c-4.72,-0.12 -9.45,-0.07 -14.18,-0.07c-0.04,-15.51 -0.04,-31.01 0,-46.51z" fill="#f77e2b" id="svg_2" opacity="1"/>
  </g>
 </g>
</svg>