<?xml version="1.0" encoding="UTF-8" ?>
<!DOCTYPE svg PUBLIC "-//W3C//DTD SVG 1.1//EN" "http://www.w3.org/Graphics/SVG/1.1/DTD/svg11.dtd">
<svg width="64pt" height="64pt" viewBox="0 0 64 64" version="1.1" xmlns="http://www.w3.org/2000/svg">
<g id="#050505f7">
<path fill="#050505" opacity="0.97" d=" M 20.28 5.29 C 24.35 3.40 28.91 3.13 33.32 2.82 L 33.38 3.20 C 33.42 3.45 33.51 3.95 33.55 4.20 C 37.20 3.50 40.98 3.82 44.31 5.51 C 50.93 8.77 54.77 16.12 53.89 23.43 C 48.96 23.88 43.96 24.13 39.04 23.37 C 39.61 16.98 31.91 14.45 27.06 17.02 C 25.38 17.76 25.51 19.76 25.18 21.26 C 32.01 24.23 39.58 24.84 46.39 27.87 C 48.08 28.65 49.98 28.34 51.77 28.39 C 51.71 29.10 51.57 30.52 51.51 31.24 C 56.41 36.66 56.95 45.08 53.33 51.33 C 50.62 56.45 44.90 59.07 39.49 60.28 C 32.16 61.49 24.15 61.14 17.56 57.40 C 11.50 54.03 7.84 46.99 8.35 40.10 C 8.81 37.91 11.33 38.53 12.95 38.38 C 16.28 38.51 19.74 37.95 22.99 38.86 C 23.73 41.84 24.09 45.53 27.40 46.81 C 31.91 48.70 39.50 48.65 40.92 42.82 C 33.51 36.60 22.28 38.48 14.93 31.98 C 10.30 28.26 9.11 21.68 10.63 16.16 C 11.88 11.26 15.74 7.34 20.28 5.29 M 20.17 7.95 C 15.52 10.35 12.54 15.25 12.15 20.42 C 12.31 24.37 13.87 28.55 17.35 30.73 C 23.86 35.88 32.83 35.04 39.89 38.96 C 41.78 39.90 42.42 41.94 43.20 43.73 C 42.31 45.27 42.02 47.36 40.34 48.30 C 33.58 52.59 21.36 50.10 20.99 40.72 C 17.51 40.74 14.03 40.72 10.55 40.72 C 10.65 44.45 11.51 48.27 14.05 51.13 C 19.13 57.66 28.13 59.13 35.89 58.41 C 42.83 57.97 50.02 54.40 52.66 47.62 C 53.91 42.45 53.64 36.34 49.35 32.61 C 41.97 26.76 31.87 27.30 23.75 22.99 C 23.02 20.65 22.85 18.22 24.06 15.99 C 28.38 13.02 33.87 13.42 38.47 15.49 C 39.93 17.28 40.86 19.40 41.40 21.63 C 44.84 21.54 48.28 21.62 51.71 21.51 C 51.82 15.23 47.70 9.20 41.75 7.12 C 34.86 4.58 26.82 4.69 20.17 7.95 Z" />
</g>
<g id="#0101018c">
<path fill="#010101" opacity="0.55" d=" M 33.38 3.20 C 37.13 2.66 41.08 3.53 44.31 5.51 C 40.98 3.82 37.20 3.50 33.55 4.20 C 33.51 3.95 33.42 3.45 33.38 3.20 Z" />
</g>
<g id="#f4f2f4ff">
<path fill="#f4f2f4" opacity="1.00" d=" M 20.17 7.95 C 26.82 4.69 34.86 4.58 41.75 7.12 C 47.70 9.20 51.82 15.23 51.71 21.51 C 48.28 21.62 44.84 21.54 41.40 21.63 C 40.86 19.40 39.93 17.28 38.47 15.49 C 33.87 13.42 28.38 13.02 24.06 15.99 C 23.11 16.45 22.15 16.90 21.19 17.34 C 20.76 18.46 20.33 19.58 19.91 20.71 C 17.32 20.60 14.73 20.51 12.15 20.42 C 12.54 15.25 15.52 10.35 20.17 7.95 Z" />
</g>
<g id="#dddcddff">
<path fill="#dddcdd" opacity="1.00" d=" M 21.19 17.34 C 22.15 16.90 23.11 16.45 24.06 15.99 C 22.85 18.22 23.02 20.65 23.75 22.99 C 31.87 27.30 41.97 26.76 49.35 32.61 C 53.64 36.34 53.91 42.45 52.66 47.62 C 50.20 47.51 47.75 47.40 45.29 47.31 C 44.54 46.14 43.82 44.96 43.20 43.73 C 42.42 41.94 41.78 39.90 39.89 38.96 C 32.83 35.04 23.86 35.88 17.35 30.73 C 13.87 28.55 12.31 24.37 12.15 20.42 C 14.73 20.51 17.32 20.60 19.91 20.71 C 20.33 19.58 20.76 18.46 21.19 17.34 Z" />
</g>
<g id="#c9c9c9ff">
<path fill="#c9c9c9" opacity="1.00" d=" M 10.55 40.72 C 14.03 40.72 17.51 40.74 20.99 40.72 C 21.36 50.10 33.58 52.59 40.34 48.30 C 42.02 47.36 42.31 45.27 43.20 43.73 C 43.82 44.96 44.54 46.14 45.29 47.31 C 47.75 47.40 50.20 47.51 52.66 47.62 C 50.02 54.40 42.83 57.97 35.89 58.41 C 28.13 59.13 19.13 57.66 14.05 51.13 C 11.51 48.27 10.65 44.45 10.55 40.72 Z" />
</g>
</svg>
