<?xml version="1.0" encoding="UTF-8" ?>
<!DOCTYPE svg PUBLIC "-//W3C//DTD SVG 1.1//EN" "http://www.w3.org/Graphics/SVG/1.1/DTD/svg11.dtd">
<svg width="64pt" height="64pt" viewBox="0 0 64 64" version="1.1" xmlns="http://www.w3.org/2000/svg">
<g id="#10101095">
<path fill="#101010" opacity="0.58" d=" M 22.78 20.69 C 24.66 20.67 26.55 20.59 28.43 20.57 C 28.36 21.34 28.22 22.90 28.15 23.68 C 39.22 23.57 50.30 23.68 61.38 23.62 C 61.33 26.87 61.33 30.12 61.37 33.37 C 57.02 33.37 52.66 33.40 48.31 33.34 C 48.35 35.06 48.40 36.78 48.43 38.50 C 44.57 38.41 40.68 38.70 36.83 38.24 C 36.24 38.15 35.06 37.97 34.47 37.88 C 34.10 37.05 33.37 35.40 33.00 34.58 C 31.93 35.91 31.40 37.47 31.64 39.16 C 30.22 39.22 28.80 39.28 27.39 39.34 C 27.36 39.82 27.31 40.80 27.28 41.29 C 26.73 41.31 25.64 41.35 25.10 41.37 C 25.21 42.12 25.44 43.61 25.56 44.36 C 22.94 44.33 20.32 44.31 17.71 44.32 C 17.71 41.75 17.70 39.18 17.65 36.61 C 18.41 36.66 19.92 36.75 20.68 36.80 C 20.67 36.13 20.65 34.78 20.65 34.11 C 17.26 34.17 13.87 34.20 10.48 34.22 C 10.49 34.77 10.51 35.86 10.52 36.40 C 7.89 36.35 5.26 36.33 2.62 36.34 C 2.69 32.10 2.69 27.86 2.62 23.63 C 4.85 23.62 7.07 23.62 9.30 23.60 C 9.57 24.76 9.86 25.91 10.15 27.06 L 9.71 26.70 C 8.34 24.89 6.17 24.94 4.13 24.92 C 4.13 28.24 4.13 31.55 4.11 34.87 C 5.47 34.89 6.83 34.92 8.19 34.94 C 8.63 34.28 9.49 32.96 9.93 32.30 C 13.92 31.46 18.02 32.04 22.04 32.35 C 22.03 34.09 22.03 35.84 22.02 37.58 C 21.43 37.83 20.26 38.33 19.67 38.57 C 19.69 40.01 19.71 41.44 19.72 42.87 C 20.90 42.86 22.07 42.89 23.25 42.98 C 25.60 39.71 28.26 36.64 31.47 34.16 C 31.74 33.46 32.28 32.06 32.55 31.35 C 34.97 32.45 35.18 34.99 35.38 37.33 C 39.14 37.41 42.89 37.43 46.65 37.39 C 46.89 35.74 46.99 34.06 47.49 32.46 C 51.45 31.31 55.74 32.15 59.83 31.95 C 59.84 29.66 59.86 27.37 59.89 25.08 C 49.02 25.00 38.15 25.10 27.28 25.03 C 27.04 24.18 26.57 22.47 26.33 21.62 C 24.45 23.52 22.79 25.64 20.79 27.41 C 17.95 28.01 15.01 27.64 12.16 27.35 L 11.19 25.80 C 14.18 25.73 17.18 25.73 20.18 25.73 C 21.00 24.97 21.85 24.22 22.68 23.47 C 22.71 22.77 22.76 21.38 22.78 20.69 Z" />
</g>
<g id="#000000ff">
<path fill="#000000" opacity="1.00" d=" M 20.79 27.41 C 22.79 25.64 24.45 23.52 26.33 21.62 C 26.57 22.47 27.04 24.18 27.28 25.03 C 38.15 25.10 49.02 25.00 59.89 25.08 C 59.86 27.37 59.84 29.66 59.83 31.95 C 55.74 32.15 51.45 31.31 47.49 32.46 C 46.99 34.06 46.89 35.74 46.65 37.39 C 42.89 37.43 39.14 37.41 35.38 37.33 C 35.18 34.99 34.97 32.45 32.55 31.35 C 32.28 32.06 31.74 33.46 31.47 34.16 C 28.26 36.64 25.60 39.71 23.25 42.98 C 22.07 42.89 20.90 42.86 19.72 42.87 C 19.71 41.44 19.69 40.01 19.67 38.57 C 20.26 38.33 21.43 37.83 22.02 37.58 C 22.03 35.84 22.03 34.09 22.04 32.35 C 18.02 32.04 13.92 31.46 9.93 32.30 C 9.49 32.96 8.63 34.28 8.19 34.94 C 6.83 34.92 5.47 34.89 4.11 34.87 C 4.13 31.55 4.13 28.24 4.13 24.92 C 6.17 24.94 8.34 24.89 9.71 26.70 L 10.15 27.06 C 10.65 27.13 11.66 27.28 12.16 27.35 C 15.01 27.64 17.95 28.01 20.79 27.41 Z" />
</g>
<g id="#6264626c">
<path fill="#626462" opacity="0.42" d=" M 31.64 39.16 C 31.40 37.47 31.93 35.91 33.00 34.58 C 33.37 35.40 34.10 37.05 34.47 37.88 C 35.06 37.97 36.24 38.15 36.83 38.24 C 35.77 39.99 34.06 40.67 31.70 40.28 L 31.64 39.16 Z" />
</g>
</svg>
