<?xml version="1.0" encoding="UTF-8" ?>
<!DOCTYPE svg PUBLIC "-//W3C//DTD SVG 1.1//EN" "http://www.w3.org/Graphics/SVG/1.1/DTD/svg11.dtd">
<svg width="64pt" height="64pt" viewBox="0 0 64 64" version="1.1" xmlns="http://www.w3.org/2000/svg">
<g id="#080808fe">
<path fill="#080808" opacity="1.00" d=" M 27.84 4.89 C 31.13 2.49 36.56 3.62 38.25 7.45 C 39.94 10.50 38.80 14.58 35.92 16.48 C 36.74 16.50 38.38 16.55 39.20 16.57 C 42.76 21.54 45.60 26.98 48.75 32.20 C 51.69 36.60 44.55 40.49 40.94 38.25 C 40.88 44.81 41.23 51.40 40.85 57.95 C 39.54 61.65 34.78 60.37 32.00 59.36 C 29.73 60.36 27.26 60.34 24.83 60.39 C 23.90 59.11 22.73 57.81 22.95 56.09 C 22.91 50.15 22.91 44.20 23.01 38.25 C 19.77 39.97 14.66 37.90 14.41 34.03 C 17.52 28.02 20.98 22.14 24.81 16.56 C 25.60 16.54 27.20 16.51 28.00 16.49 C 24.06 13.99 23.93 7.45 27.84 4.89 M 30.37 5.84 C 27.07 7.52 26.00 12.35 29.33 14.60 C 32.94 17.13 37.75 13.27 36.67 9.15 C 36.18 8.52 35.22 7.26 34.74 6.63 C 33.29 6.31 31.83 6.06 30.37 5.84 M 26.02 18.67 C 23.03 23.37 20.33 28.25 17.49 33.04 C 16.56 35.07 18.32 36.61 20.24 36.77 C 22.36 34.44 23.73 31.56 25.41 28.92 C 25.43 38.63 24.92 48.39 25.69 58.07 C 27.10 57.81 29.09 58.44 29.87 56.81 C 30.14 51.12 29.88 45.42 29.98 39.73 C 31.33 39.73 32.67 39.73 34.02 39.73 C 34.12 45.43 33.85 51.14 34.13 56.84 C 34.93 58.44 36.90 57.80 38.31 58.08 C 39.09 48.39 38.57 38.63 38.59 28.91 C 40.21 31.65 41.85 34.38 43.74 36.94 C 45.42 36.37 47.56 35.15 46.51 33.05 C 43.69 28.24 40.82 23.46 37.98 18.66 C 34.00 18.74 30.01 18.72 26.02 18.67 Z" />
</g>
<g id="#fefefeff">
<path fill="#fefefe" opacity="1.00" d=" M 30.37 5.84 C 31.83 6.06 33.29 6.31 34.74 6.63 C 35.22 7.26 36.18 8.52 36.67 9.15 C 37.75 13.27 32.94 17.13 29.33 14.60 C 26.00 12.35 27.07 7.52 30.37 5.84 Z" />
<path fill="#fefefe" opacity="1.00" d=" M 26.02 18.67 C 30.01 18.72 34.00 18.74 37.98 18.66 C 40.82 23.46 43.69 28.24 46.51 33.05 C 47.56 35.15 45.42 36.37 43.74 36.94 C 41.85 34.38 40.21 31.65 38.59 28.91 C 38.57 38.63 39.09 48.39 38.31 58.08 C 36.90 57.80 34.93 58.44 34.13 56.84 C 33.85 51.14 34.12 45.43 34.02 39.73 C 32.67 39.73 31.33 39.73 29.98 39.73 C 29.88 45.42 30.14 51.12 29.87 56.81 C 29.09 58.44 27.10 57.81 25.69 58.07 C 24.92 48.39 25.43 38.63 25.41 28.92 C 23.73 31.56 22.36 34.44 20.24 36.77 C 18.32 36.61 16.56 35.07 17.49 33.04 C 20.33 28.25 23.03 23.37 26.02 18.67 Z" />
</g>
</svg>
