<?xml version="1.0" encoding="UTF-8" ?>
<!DOCTYPE svg PUBLIC "-//W3C//DTD SVG 1.1//EN" "http://www.w3.org/Graphics/SVG/1.1/DTD/svg11.dtd">
<svg width="64pt" height="64pt" viewBox="0 0 64 64" version="1.1" xmlns="http://www.w3.org/2000/svg">
<g id="#040403fc">
<path fill="#040403" opacity="1.00" d=" M 26.97 16.98 C 26.91 11.62 36.80 12.57 36.35 17.73 C 39.11 19.71 42.05 21.76 43.20 25.14 C 43.12 28.20 39.85 30.46 42.64 33.25 C 44.26 35.75 44.33 38.92 43.81 41.77 C 42.07 43.86 39.77 45.29 37.27 46.30 C 36.59 48.82 37.99 53.41 32.00 50.02 C 24.74 53.68 28.71 46.40 24.99 44.99 C 24.59 44.05 24.19 43.10 23.81 42.16 C 26.49 43.42 29.64 44.26 29.39 47.87 C 33.95 49.89 35.14 47.72 35.40 44.42 C 40.31 43.96 44.37 38.20 40.42 34.08 C 38.20 28.47 26.97 32.02 28.14 25.24 C 30.17 22.09 34.41 24.66 36.45 26.58 C 43.11 30.52 41.17 26.03 39.97 24.03 C 38.23 21.39 34.58 20.50 33.49 17.35 C 30.86 16.12 29.55 19.94 27.49 21.00 C 25.39 19.44 22.96 23.18 23.05 25.16 C 21.39 30.77 27.23 33.90 31.97 34.07 C 33.31 34.70 34.68 35.30 35.87 36.19 C 35.49 38.89 36.94 44.24 30.97 41.01 C 26.97 41.44 27.26 33.91 21.91 37.03 C 22.07 38.42 22.38 39.78 22.75 41.12 C 22.31 41.09 21.42 41.03 20.98 41.01 C 17.70 41.35 19.76 35.70 21.19 34.20 C 22.55 30.78 19.53 26.32 21.94 22.96 C 22.83 20.25 26.77 19.86 26.97 16.98 Z" />
</g>
<g id="#9fca68ff">
<path fill="#9fca68" opacity="1.00" d=" M 27.49 21.00 C 29.55 19.94 30.86 16.12 33.49 17.35 C 34.58 20.50 38.23 21.39 39.97 24.03 C 41.17 26.03 43.11 30.52 36.45 26.58 C 34.41 24.66 30.17 22.09 28.14 25.24 C 26.97 32.02 38.20 28.47 40.42 34.08 C 36.93 36.84 34.96 30.54 31.06 31.89 C 31.29 32.43 31.74 33.52 31.97 34.07 C 27.23 33.90 21.39 30.77 23.05 25.16 C 24.58 23.83 26.05 22.43 27.49 21.00 Z" />
</g>
<g id="#354826ff">
<path fill="#354826" opacity="1.00" d=" M 23.05 25.16 C 22.96 23.18 25.39 19.44 27.49 21.00 C 26.05 22.43 24.58 23.83 23.05 25.16 Z" />
</g>
<g id="#00000066">
<path fill="#000000" opacity="0.40" d=" M 43.20 25.14 C 46.03 24.23 44.25 31.88 42.64 33.25 C 39.85 30.46 43.12 28.20 43.20 25.14 Z" />
</g>
<g id="#74b454ff">
<path fill="#74b454" opacity="1.00" d=" M 31.06 31.89 C 34.96 30.54 36.93 36.84 40.42 34.08 C 44.37 38.20 40.31 43.96 35.40 44.42 C 35.14 47.72 33.95 49.89 29.39 47.87 C 29.64 44.26 26.49 43.42 23.81 42.16 C 23.55 41.90 23.02 41.38 22.75 41.12 C 22.38 39.78 22.07 38.42 21.91 37.03 C 27.26 33.91 26.97 41.44 30.97 41.01 C 36.94 44.24 35.49 38.89 35.87 36.19 C 34.68 35.30 33.31 34.70 31.97 34.07 C 31.74 33.52 31.29 32.43 31.06 31.89 Z" />
</g>
<g id="#010101c7">
<path fill="#010101" opacity="0.78" d=" M 20.98 41.01 C 21.42 41.03 22.31 41.09 22.75 41.12 C 23.02 41.38 23.55 41.90 23.81 42.16 C 24.19 43.10 24.59 44.05 24.99 44.99 C 22.31 45.73 20.26 43.69 20.98 41.01 Z" />
</g>
</svg>
