<?xml version="1.0" encoding="UTF-8" ?>
<!DOCTYPE svg PUBLIC "-//W3C//DTD SVG 1.1//EN" "http://www.w3.org/Graphics/SVG/1.1/DTD/svg11.dtd">
<svg width="64pt" height="64pt" viewBox="0 0 64 64" version="1.1" xmlns="http://www.w3.org/2000/svg">
<g id="#070707fd">
<path fill="#070707" opacity="1.00" d=" M 25.92 12.00 C 31.42 9.92 38.02 10.71 42.70 14.32 C 44.88 16.08 46.00 18.72 47.53 21.00 C 47.11 24.09 46.92 27.42 45.18 30.12 C 43.11 32.86 40.24 34.83 37.71 37.12 C 37.25 42.21 38.72 47.44 37.47 52.44 C 33.29 53.51 28.36 53.79 24.45 51.63 C 24.51 48.84 24.09 45.93 25.15 43.26 C 26.76 39.30 25.22 34.50 28.06 30.96 C 29.85 28.08 33.80 26.67 34.23 23.00 C 33.55 21.20 30.54 21.23 29.98 23.09 C 29.37 24.66 29.03 26.32 28.60 27.94 C 24.90 27.96 21.01 28.72 17.44 27.50 C 16.00 21.26 19.90 14.20 25.92 12.00 M 26.65 14.38 C 22.00 16.18 19.92 21.01 19.36 25.65 C 21.80 25.67 24.24 25.66 26.69 25.71 C 27.07 23.38 27.66 20.99 29.59 19.43 C 31.58 19.55 34.15 18.57 35.60 20.38 C 37.75 23.00 36.63 27.06 33.89 28.80 C 30.40 31.23 27.91 35.31 28.42 39.68 C 30.64 39.73 32.85 39.74 35.07 39.75 C 34.16 33.51 41.64 32.43 43.54 27.57 C 45.53 23.69 44.30 18.48 40.67 16.00 C 36.70 13.03 31.23 13.02 26.65 14.38 M 27.74 43.07 C 27.74 45.50 27.74 47.93 27.74 50.37 C 30.29 50.38 32.84 50.40 35.39 50.39 C 35.45 47.94 35.48 45.49 35.40 43.05 C 32.85 43.04 30.30 43.05 27.74 43.07 Z" />
</g>
<g id="#fefdfeff">
<path fill="#fefdfe" opacity="1.00" d=" M 26.65 14.38 C 31.23 13.02 36.70 13.03 40.67 16.00 C 44.30 18.48 45.53 23.69 43.54 27.57 C 41.64 32.43 34.16 33.51 35.07 39.75 C 32.85 39.74 30.64 39.73 28.42 39.68 C 27.91 35.31 30.40 31.23 33.89 28.80 C 36.63 27.06 37.75 23.00 35.60 20.38 C 34.15 18.57 31.58 19.55 29.59 19.43 C 27.66 20.99 27.07 23.38 26.69 25.71 C 24.24 25.66 21.80 25.67 19.36 25.65 C 19.92 21.01 22.00 16.18 26.65 14.38 Z" />
<path fill="#fefdfe" opacity="1.00" d=" M 27.74 43.07 C 30.30 43.05 32.85 43.04 35.40 43.05 C 35.48 45.49 35.45 47.94 35.39 50.39 C 32.84 50.40 30.29 50.38 27.74 50.37 C 27.74 47.93 27.74 45.50 27.74 43.07 Z" />
</g>
</svg>
