<?xml version="1.0" encoding="UTF-8" ?>
<!DOCTYPE svg PUBLIC "-//W3C//DTD SVG 1.1//EN" "http://www.w3.org/Graphics/SVG/1.1/DTD/svg11.dtd">
<svg width="64pt" height="64pt" viewBox="0 0 64 64" version="1.1" xmlns="http://www.w3.org/2000/svg">
<g id="#070407fe">
<path fill="#070407" opacity="1.00" d=" M 15.73 8.68 C 21.67 3.00 30.63 2.29 38.35 3.70 C 46.13 5.08 53.31 11.84 53.62 19.97 C 54.04 24.05 50.73 27.39 51.36 31.48 C 50.69 31.42 49.36 31.29 48.69 31.23 C 46.16 33.89 43.08 35.94 40.53 38.59 C 38.40 40.74 38.27 43.96 38.13 46.81 C 38.60 51.29 38.37 55.80 38.43 60.30 C 34.13 61.58 29.57 61.10 25.18 60.65 C 24.51 56.14 24.29 51.44 25.36 46.97 C 23.31 40.33 26.14 32.80 31.45 28.48 C 34.00 25.97 37.88 24.39 38.95 20.71 C 39.52 19.42 38.81 17.97 37.89 17.06 C 35.11 14.53 30.57 14.52 27.51 16.56 C 24.90 18.21 25.07 21.95 22.69 23.79 C 18.63 24.37 14.45 24.25 10.43 23.47 C 10.14 18.10 12.03 12.60 15.73 8.68 M 21.57 7.44 C 16.00 9.91 13.17 15.86 12.44 21.62 C 15.57 21.65 18.70 21.66 21.83 21.66 C 22.86 18.53 24.48 15.23 27.62 13.77 C 30.41 12.26 33.63 12.66 36.59 13.33 C 39.32 14.79 41.90 17.36 41.51 20.73 C 41.07 24.80 36.95 26.56 34.61 29.40 C 34.38 29.36 33.93 29.28 33.70 29.25 C 31.65 31.48 29.36 33.64 28.21 36.51 C 27.10 39.17 27.12 42.10 27.01 44.93 C 30.08 44.93 33.15 44.92 36.22 44.92 C 36.39 43.01 35.98 40.88 37.13 39.19 C 39.89 34.84 44.66 32.41 48.10 28.68 L 46.83 28.51 L 48.19 28.27 C 49.59 26.09 51.19 23.83 51.31 21.14 C 51.57 16.13 48.62 11.37 44.48 8.71 C 37.72 4.45 28.80 4.40 21.57 7.44 M 27.12 48.72 C 27.12 52.03 27.13 55.34 27.14 58.65 C 30.18 58.63 33.22 58.62 36.26 58.59 C 36.24 55.32 36.24 52.05 36.24 48.79 C 33.20 48.79 30.16 48.79 27.12 48.72 Z" />
</g>
<g id="#f5f4f5ff">
<path fill="#f5f4f5" opacity="1.00" d=" M 21.57 7.44 C 28.80 4.40 37.72 4.45 44.48 8.71 C 48.62 11.37 51.57 16.13 51.31 21.14 C 51.19 23.83 49.59 26.09 48.19 28.27 L 46.83 28.51 C 42.79 29.43 38.75 30.87 34.61 29.40 C 36.95 26.56 41.07 24.80 41.51 20.73 C 41.90 17.36 39.32 14.79 36.59 13.33 C 33.63 12.66 30.41 12.26 27.62 13.77 C 24.48 15.23 22.86 18.53 21.83 21.66 C 18.70 21.66 15.57 21.65 12.44 21.62 C 13.17 15.86 16.00 9.91 21.57 7.44 Z" />
</g>
<g id="#d6d6d6ff">
<path fill="#d6d6d6" opacity="1.00" d=" M 34.61 29.40 C 38.75 30.87 42.79 29.43 46.83 28.51 L 48.10 28.68 C 44.66 32.41 39.89 34.84 37.13 39.19 C 35.98 40.88 36.39 43.01 36.22 44.92 C 33.15 44.92 30.08 44.93 27.01 44.93 C 27.12 42.10 27.10 39.17 28.21 36.51 C 29.36 33.64 31.65 31.48 33.70 29.25 C 33.93 29.28 34.38 29.36 34.61 29.40 Z" />
<path fill="#d6d6d6" opacity="1.00" d=" M 27.12 48.72 C 30.16 48.79 33.20 48.79 36.24 48.79 C 36.24 52.05 36.24 55.32 36.26 58.59 C 33.22 58.62 30.18 58.63 27.14 58.65 C 27.13 55.34 27.12 52.03 27.12 48.72 Z" />
</g>
</svg>
