<?xml version="1.0" encoding="UTF-8" ?>
<!DOCTYPE svg PUBLIC "-//W3C//DTD SVG 1.1//EN" "http://www.w3.org/Graphics/SVG/1.1/DTD/svg11.dtd">
<svg width="64pt" height="64pt" viewBox="0 0 64 64" version="1.1" xmlns="http://www.w3.org/2000/svg">
<g id="#030303f4">
<path fill="#030303" opacity="0.96" d=" M 32.39 16.32 C 34.96 12.42 40.68 11.23 44.53 13.97 C 43.24 16.39 41.76 18.72 40.68 21.25 C 43.37 20.46 45.14 18.19 47.11 16.36 C 51.39 19.57 50.29 26.50 46.34 29.50 C 44.04 31.35 40.50 31.04 38.68 33.57 C 36.80 35.66 35.14 37.93 33.42 40.15 C 33.29 42.95 33.13 46.02 31.19 48.24 C 28.45 51.74 23.14 52.52 19.44 50.06 C 20.70 47.61 22.14 45.25 23.34 42.77 C 20.66 43.35 19.07 45.67 17.19 47.43 C 16.58 47.05 15.38 46.30 14.77 45.92 C 14.20 42.87 13.70 39.42 15.66 36.73 C 17.35 33.83 20.74 32.84 23.78 32.08 C 26.04 29.34 28.41 26.68 30.60 23.88 C 30.73 21.29 30.74 18.48 32.39 16.32 M 33.10 24.54 C 30.46 28.01 27.73 31.40 24.74 34.57 C 23.14 34.85 21.54 35.14 19.95 35.48 C 17.41 37.87 15.90 40.95 16.59 44.55 C 18.43 42.89 20.00 40.98 21.68 39.17 C 23.50 40.65 25.08 42.40 26.98 43.79 C 25.26 45.48 23.69 47.32 22.50 49.42 C 27.85 49.78 32.39 44.73 30.83 39.43 C 33.57 36.03 36.25 32.58 39.28 29.43 C 44.70 29.83 48.67 24.48 47.35 19.35 C 45.64 21.09 43.97 22.86 42.42 24.74 C 40.59 23.30 38.99 21.59 37.08 20.26 C 38.80 18.54 40.35 16.67 41.81 14.72 C 36.34 13.75 31.49 19.24 33.10 24.54 Z" />
</g>
<g id="#e5e4e5ff">
<path fill="#e5e4e5" opacity="1.00" d=" M 33.10 24.54 C 31.49 19.24 36.34 13.75 41.81 14.72 C 40.35 16.67 38.80 18.54 37.08 20.26 C 38.99 21.59 40.59 23.30 42.42 24.74 C 43.97 22.86 45.64 21.09 47.35 19.35 C 48.67 24.48 44.70 29.83 39.28 29.43 C 36.25 32.58 33.57 36.03 30.83 39.43 C 32.39 44.73 27.85 49.78 22.50 49.42 C 23.69 47.32 25.26 45.48 26.98 43.79 C 25.08 42.40 23.50 40.65 21.68 39.17 C 20.00 40.98 18.43 42.89 16.59 44.55 C 15.90 40.95 17.41 37.87 19.95 35.48 C 21.54 35.14 23.14 34.85 24.74 34.57 C 27.73 31.40 30.46 28.01 33.10 24.54 Z" />
</g>
</svg>
