<?xml version="1.0" encoding="UTF-8" ?>
<!DOCTYPE svg PUBLIC "-//W3C//DTD SVG 1.1//EN" "http://www.w3.org/Graphics/SVG/1.1/DTD/svg11.dtd">
<svg width="64pt" height="64pt" viewBox="0 0 64 64" version="1.1" xmlns="http://www.w3.org/2000/svg">
<g id="#0804048e">
<path fill="#080404" opacity="0.56" d=" M 52.10 14.03 C 50.70 10.76 56.66 11.35 57.04 13.93 C 55.39 13.95 53.74 13.98 52.10 14.03 Z" />
<path fill="#080404" opacity="0.56" d=" M 5.76 50.57 C 10.52 49.28 15.56 50.16 20.36 50.72 L 20.00 51.77 C 15.28 51.73 10.06 53.18 5.76 50.57 Z" />
</g>
<g id="#080202fb">
<path fill="#080202" opacity="1.00" d=" M 49.83 15.89 C 50.60 15.32 51.36 14.70 52.10 14.03 C 53.74 13.98 55.39 13.95 57.04 13.93 C 58.25 14.77 58.85 16.22 59.84 17.29 C 59.93 20.51 60.00 23.73 60.02 26.95 C 60.09 29.87 53.56 26.34 54.75 30.92 C 49.23 31.17 43.68 30.75 38.16 31.11 C 36.39 33.10 37.24 36.31 35.26 38.25 C 33.38 41.43 29.20 39.46 26.14 40.13 C 24.47 43.57 26.03 51.32 20.36 50.72 C 15.56 50.16 10.52 49.28 5.76 50.57 C 5.31 50.67 4.42 50.87 3.97 50.98 C 4.25 45.63 6.40 40.55 7.43 35.32 C 9.08 31.39 5.17 26.69 8.12 23.19 C 9.66 21.11 8.07 17.84 10.17 16.03 C 23.39 15.78 36.62 16.33 49.83 15.89 M 52.69 17.83 C 38.84 18.31 24.98 17.76 11.12 18.05 C 8.88 18.62 10.38 23.23 9.47 25.45 C 7.01 28.53 12.30 28.88 10.84 31.92 C 9.60 37.28 7.29 42.44 6.95 47.97 L 7.97 48.00 L 8.02 48.98 C 10.76 48.98 16.25 48.99 18.99 49.00 L 19.01 48.02 C 23.15 49.14 22.68 43.76 22.97 41.04 C 25.11 41.38 22.88 37.48 25.07 38.05 C 27.14 37.13 33.78 40.39 32.92 36.96 C 34.90 36.56 34.51 32.89 34.96 31.09 C 38.85 26.36 46.93 30.48 52.19 28.69 C 54.73 28.76 50.57 20.47 57.98 25.87 C 57.79 22.83 59.10 18.81 56.09 16.91 C 55.09 15.31 52.64 15.85 52.69 17.83 Z" />
<path fill="#080202" opacity="1.00" d=" M 27.20 29.15 C 29.82 28.97 34.66 27.73 31.00 34.00 C 25.43 38.24 24.70 30.96 27.20 29.15 Z" />
</g>
<g id="#04030447">
<path fill="#040304" opacity="0.28" d=" M 9.93 15.07 C 23.32 14.92 36.72 14.99 50.11 15.03 L 49.83 15.89 C 36.62 16.33 23.39 15.78 10.17 16.03 L 9.93 15.07 Z" />
<path fill="#040304" opacity="0.28" d=" M 59.84 17.29 L 60.85 16.94 C 60.89 19.46 60.96 24.50 61.00 27.02 L 60.02 26.95 C 60.00 23.73 59.93 20.51 59.84 17.29 Z" />
</g>
<g id="#c11f21ff">
<path fill="#c11f21" opacity="1.00" d=" M 52.69 17.83 C 52.64 15.85 55.09 15.31 56.09 16.91 C 59.10 18.81 57.79 22.83 57.98 25.87 C 50.57 20.47 54.73 28.76 52.19 28.69 C 46.55 27.95 40.82 27.78 35.14 28.06 C 35.10 28.82 35.01 30.33 34.96 31.09 C 34.51 32.89 34.90 36.56 32.92 36.96 C 29.64 36.99 26.37 36.86 23.10 37.09 C 23.01 38.41 22.97 39.72 22.97 41.04 C 22.68 43.76 23.15 49.14 19.01 48.02 C 15.33 48.00 11.65 48.00 7.97 48.00 L 6.95 47.97 C 7.29 42.44 9.60 37.28 10.84 31.92 C 12.30 28.88 7.01 28.53 9.47 25.45 C 11.67 23.72 10.62 20.52 11.12 18.05 C 24.98 17.76 38.84 18.31 52.69 17.83 M 27.20 29.15 C 24.70 30.96 25.43 38.24 31.00 34.00 C 34.66 27.73 29.82 28.97 27.20 29.15 Z" />
</g>
<g id="#3a0e0dff">
<path fill="#3a0e0d" opacity="1.00" d=" M 9.47 25.45 C 10.38 23.23 8.88 18.62 11.12 18.05 C 10.62 20.52 11.67 23.72 9.47 25.45 Z" />
<path fill="#3a0e0d" opacity="1.00" d=" M 7.97 48.00 C 11.65 48.00 15.33 48.00 19.01 48.02 L 18.99 49.00 C 16.25 48.99 10.76 48.98 8.02 48.98 L 7.97 48.00 Z" />
</g>
<g id="#891618ff">
<path fill="#891618" opacity="1.00" d=" M 35.14 28.06 C 40.82 27.78 46.55 27.95 52.19 28.69 C 46.93 30.48 38.85 26.36 34.96 31.09 C 35.01 30.33 35.10 28.82 35.14 28.06 Z" />
<path fill="#891618" opacity="1.00" d=" M 23.10 37.09 C 26.37 36.86 29.64 36.99 32.92 36.96 C 33.78 40.39 27.14 37.13 25.07 38.05 C 22.88 37.48 25.11 41.38 22.97 41.04 C 22.97 39.72 23.01 38.41 23.10 37.09 Z" />
</g>
</svg>
