<?xml version="1.0" encoding="UTF-8" ?>
<!DOCTYPE svg PUBLIC "-//W3C//DTD SVG 1.1//EN" "http://www.w3.org/Graphics/SVG/1.1/DTD/svg11.dtd">
<svg width="64pt" height="64pt" viewBox="0 0 64 64" version="1.1" xmlns="http://www.w3.org/2000/svg">
<g id="#020202d2">
<path fill="#020202" opacity="0.82" d=" M 7.14 5.98 C 6.95 4.42 8.28 2.95 9.88 3.14 C 13.89 3.11 17.93 2.96 21.94 3.25 C 23.25 3.29 23.58 5.03 23.64 6.07 C 23.67 11.83 23.52 17.58 23.66 23.34 C 29.22 23.41 34.79 23.43 40.35 23.33 C 40.46 17.57 40.33 11.82 40.36 6.06 C 40.30 4.64 41.18 2.85 42.88 3.17 C 46.89 3.09 50.93 2.98 54.94 3.22 C 56.69 3.48 56.95 5.47 56.88 6.91 C 56.87 23.97 56.92 41.03 56.85 58.10 C 57.03 59.65 55.64 61.05 54.08 60.86 C 50.04 60.89 45.99 61.03 41.97 60.76 C 40.44 60.35 40.31 58.39 40.34 57.09 C 40.40 50.71 40.41 44.32 40.35 37.94 C 34.78 37.83 29.21 37.84 23.63 37.93 C 23.57 44.60 23.63 51.27 23.64 57.94 C 23.71 59.39 22.77 61.15 21.07 60.83 C 17.07 60.90 13.04 61.02 9.04 60.78 C 7.30 60.49 7.05 58.52 7.12 57.09 C 7.13 40.06 7.08 23.02 7.14 5.98 M 10.05 5.22 C 9.09 15.20 9.99 25.32 9.66 35.36 C 9.65 43.01 9.69 50.66 9.69 58.31 C 13.49 58.42 17.30 58.31 21.09 58.58 C 21.56 50.98 21.23 43.35 21.32 35.73 L 21.57 35.48 C 28.59 35.62 35.75 35.12 42.67 35.70 C 42.74 43.32 42.50 50.95 42.86 58.56 C 46.67 58.33 50.50 58.42 54.32 58.30 C 54.27 49.20 54.44 40.09 54.28 30.99 C 54.13 22.41 54.83 13.76 53.97 5.23 C 50.30 5.72 46.59 5.69 42.92 5.34 C 42.31 12.22 42.85 19.15 42.66 26.05 C 35.55 26.04 28.45 26.04 21.34 26.06 C 21.15 19.15 21.68 12.23 21.08 5.34 C 17.41 5.69 13.71 5.73 10.05 5.22 Z" />
</g>
<g id="#eaebeaff">
<path fill="#eaebea" opacity="1.00" d=" M 10.05 5.22 C 13.71 5.73 17.41 5.69 21.08 5.34 C 21.68 12.23 21.15 19.15 21.34 26.06 C 28.45 26.04 35.55 26.04 42.66 26.05 C 42.85 19.15 42.31 12.22 42.92 5.34 C 46.59 5.69 50.30 5.72 53.97 5.23 C 54.83 13.76 54.13 22.41 54.28 30.99 C 51.60 32.66 51.53 35.79 51.24 38.59 C 49.30 38.53 47.37 38.48 45.43 38.41 C 44.52 37.49 43.62 36.58 42.67 35.70 C 35.75 35.12 28.59 35.62 21.57 35.48 L 21.32 35.73 C 18.59 40.12 12.48 39.07 9.66 35.36 C 9.99 25.32 9.09 15.20 10.05 5.22 Z" />
</g>
<g id="#cececeff">
<path fill="#cecece" opacity="1.00" d=" M 51.24 38.59 C 51.53 35.79 51.60 32.66 54.28 30.99 C 54.44 40.09 54.27 49.20 54.32 58.30 C 50.50 58.42 46.67 58.33 42.86 58.56 C 42.50 50.95 42.74 43.32 42.67 35.70 C 43.62 36.58 44.52 37.49 45.43 38.41 C 47.37 38.48 49.30 38.53 51.24 38.59 Z" />
<path fill="#cecece" opacity="1.00" d=" M 9.66 35.36 C 12.48 39.07 18.59 40.12 21.32 35.73 C 21.23 43.35 21.56 50.98 21.09 58.58 C 17.30 58.31 13.49 58.42 9.69 58.31 C 9.69 50.66 9.65 43.01 9.66 35.36 Z" />
</g>
</svg>
