<?xml version="1.0" encoding="UTF-8" ?>
<!DOCTYPE svg PUBLIC "-//W3C//DTD SVG 1.1//EN" "http://www.w3.org/Graphics/SVG/1.1/DTD/svg11.dtd">
<svg width="64pt" height="64pt" viewBox="0 0 64 64" version="1.1" xmlns="http://www.w3.org/2000/svg">
<g id="#020302fe">
<path fill="#020302" opacity="1.00" d=" M 14.30 9.29 C 26.09 8.85 38.01 8.72 49.75 9.29 C 57.38 11.93 54.15 21.70 56.30 27.62 C 58.33 28.59 59.91 30.20 60.86 32.24 C 60.93 34.83 60.98 37.42 61.03 40.01 C 62.51 44.54 53.90 43.06 58.02 49.02 C 58.14 52.50 55.69 57.56 50.99 55.04 C 47.82 55.82 44.23 53.54 45.01 50.02 C 44.98 48.53 44.94 45.56 44.92 44.07 C 36.30 43.92 27.69 43.88 19.08 44.06 C 19.05 45.55 18.99 48.53 18.96 50.02 C 19.03 51.88 17.85 53.47 16.82 54.90 C 13.94 54.90 11.04 55.24 8.16 54.88 C 5.35 52.00 6.37 47.82 5.84 44.18 C 4.09 43.31 2.37 42.31 2.97 40.02 C 2.99 37.42 3.04 34.83 3.11 32.24 C 5.31 28.79 9.59 26.19 8.45 21.35 C 8.19 16.81 9.31 10.85 14.30 9.29 M 13.99 11.03 L 14.03 12.01 C 10.33 14.00 11.07 20.19 10.10 23.99 C 12.67 29.32 6.57 29.82 5.06 33.10 C 5.13 36.30 3.26 42.38 8.05 42.08 C 8.75 44.44 5.73 51.11 9.00 50.96 C 9.60 54.96 16.50 53.43 16.92 49.95 C 17.06 47.32 17.12 44.68 17.08 42.04 C 27.02 41.95 36.97 41.95 46.91 42.03 C 47.09 44.94 47.01 47.83 47.21 50.74 C 48.63 53.59 54.44 54.66 54.99 50.96 C 57.49 50.17 55.13 44.33 55.97 42.06 C 59.04 42.61 59.35 39.21 59.01 37.02 C 61.07 32.39 56.57 31.10 54.22 28.75 C 53.03 23.65 53.31 18.28 51.73 13.26 C 51.17 12.18 50.26 11.76 49.02 11.99 L 48.99 11.02 C 37.32 10.97 25.66 10.95 13.99 11.03 Z" />
<path fill="#020302" opacity="1.00" d=" M 15.20 16.02 C 26.11 15.99 37.03 15.99 47.94 16.01 C 50.48 17.36 48.80 23.46 50.02 25.96 C 49.52 25.97 48.51 26.00 48.00 26.02 C 37.33 25.98 26.67 25.99 16.00 26.02 C 10.97 26.68 15.50 18.87 15.20 16.02 Z" />
</g>
<g id="#c8c7c8ff">
<path fill="#c8c7c8" opacity="1.00" d=" M 13.99 11.03 C 25.66 10.95 37.32 10.97 48.99 11.02 L 49.02 11.99 C 37.35 12.02 25.69 11.96 14.03 12.01 L 13.99 11.03 Z" />
<path fill="#c8c7c8" opacity="1.00" d=" M 16.00 27.00 C 26.66 27.00 37.33 27.00 48.00 27.00 L 48.00 27.98 C 37.34 28.00 26.68 28.09 16.02 27.96 L 16.00 27.00 Z" />
<path fill="#c8c7c8" opacity="1.00" d=" M 9.02 42.11 C 13.30 40.89 17.40 38.76 22.00 39.06 C 33.10 38.77 44.46 38.07 54.99 42.08 C 54.99 45.04 55.02 48.00 54.99 50.96 C 54.44 54.66 48.63 53.59 47.21 50.74 C 47.01 47.83 47.09 44.94 46.91 42.03 C 36.97 41.95 27.02 41.95 17.08 42.04 C 17.12 44.68 17.06 47.32 16.92 49.95 C 16.50 53.43 9.60 54.96 9.00 50.96 C 8.99 48.01 8.99 45.06 9.02 42.11 Z" />
</g>
<g id="#e2e1e2ff">
<path fill="#e2e1e2" opacity="1.00" d=" M 10.10 23.99 C 11.07 20.19 10.33 14.00 14.03 12.01 C 25.69 11.96 37.35 12.02 49.02 11.99 C 50.26 11.76 51.17 12.18 51.73 13.26 C 53.31 18.28 53.03 23.65 54.22 28.75 C 56.57 31.10 61.07 32.39 59.01 37.02 C 59.35 39.21 59.04 42.61 55.97 42.06 L 54.99 42.08 C 44.46 38.07 33.10 38.77 22.00 39.06 C 17.40 38.76 13.30 40.89 9.02 42.11 L 8.05 42.08 C 3.26 42.38 5.13 36.30 5.06 33.10 C 6.57 29.82 12.67 29.32 10.10 23.99 M 17.00 14.02 L 17.00 14.99 C 16.49 15.01 15.48 15.04 14.97 15.05 L 15.20 16.02 C 15.50 18.87 10.97 26.68 16.00 26.02 L 16.00 27.00 L 16.02 27.96 C 26.68 28.09 37.34 28.00 48.00 27.98 L 48.00 27.00 L 48.00 26.02 C 48.51 26.00 49.52 25.97 50.02 25.96 C 48.80 23.46 50.48 17.36 47.94 16.01 L 48.01 15.02 L 47.00 15.00 L 46.99 14.02 C 37.00 13.96 27.00 13.96 17.00 14.02 Z" />
</g>
<g id="#5d5c5dff">
<path fill="#5d5c5d" opacity="1.00" d=" M 17.00 14.02 C 27.00 13.96 37.00 13.96 46.99 14.02 L 47.00 15.00 C 37.00 14.99 27.00 15.02 17.00 14.99 L 17.00 14.02 Z" />
</g>
<g id="#141314ff">
<path fill="#141314" opacity="1.00" d=" M 14.97 15.05 C 15.48 15.04 16.49 15.01 17.00 14.99 C 27.00 15.02 37.00 14.99 47.00 15.00 L 48.01 15.02 L 47.94 16.01 C 37.03 15.99 26.11 15.99 15.20 16.02 L 14.97 15.05 Z" />
</g>
<g id="#929292ff">
<path fill="#929292" opacity="1.00" d=" M 16.00 26.02 C 26.67 25.99 37.33 25.98 48.00 26.02 L 48.00 27.00 C 37.33 27.00 26.66 27.00 16.00 27.00 L 16.00 26.02 Z" />
<path fill="#929292" opacity="1.00" d=" M 8.05 42.08 L 9.02 42.11 C 8.99 45.06 8.99 48.01 9.00 50.96 C 5.73 51.11 8.75 44.44 8.05 42.08 Z" />
<path fill="#929292" opacity="1.00" d=" M 54.99 42.08 L 55.97 42.06 C 55.13 44.33 57.49 50.17 54.99 50.96 C 55.02 48.00 54.99 45.04 54.99 42.08 Z" />
</g>
<g id="#00000042">
<path fill="#000000" opacity="0.26" d=" M 2.11 31.96 L 3.11 32.24 C 3.04 34.83 2.99 37.42 2.97 40.02 C 0.78 39.07 2.46 34.38 2.11 31.96 Z" />
<path fill="#000000" opacity="0.26" d=" M 60.86 32.24 L 61.88 31.96 C 61.54 34.38 63.23 39.08 61.03 40.01 C 60.98 37.42 60.93 34.83 60.86 32.24 Z" />
<path fill="#000000" opacity="0.26" d=" M 19.08 44.06 C 27.69 43.88 36.30 43.92 44.92 44.07 C 44.94 45.56 44.98 48.53 45.01 50.02 L 44.08 49.97 L 43.87 45.05 C 35.95 45.03 28.02 44.80 20.11 45.07 L 19.90 49.97 L 18.96 50.02 C 18.99 48.53 19.05 45.55 19.08 44.06 Z" />
</g>
</svg>
