<?xml version="1.0" encoding="UTF-8" ?>
<!DOCTYPE svg PUBLIC "-//W3C//DTD SVG 1.1//EN" "http://www.w3.org/Graphics/SVG/1.1/DTD/svg11.dtd">
<svg width="64pt" height="64pt" viewBox="0 0 64 64" version="1.1" xmlns="http://www.w3.org/2000/svg">
<g id="#020201ff">
<path fill="#020201" opacity="1.00" d=" M 9.40 3.08 C 11.12 2.86 12.88 2.86 14.60 3.07 C 16.30 6.29 19.81 7.76 21.43 11.04 C 24.31 9.06 27.13 6.98 30.13 5.19 C 32.32 3.80 35.17 4.63 37.02 6.21 C 43.44 11.14 50.47 15.22 56.79 20.28 C 59.38 22.73 59.10 26.76 58.54 29.98 C 57.99 32.50 55.40 33.56 53.23 34.32 C 53.32 40.89 53.33 47.45 53.28 54.02 C 53.36 57.28 50.16 59.82 47.01 59.50 C 37.04 59.50 27.06 59.56 17.08 59.48 C 14.13 59.64 11.13 57.19 11.30 54.12 C 11.16 47.54 11.34 40.95 11.22 34.37 C 8.92 33.67 5.90 32.63 5.51 29.86 C 5.22 27.25 4.87 24.55 3.06 22.50 C 3.01 21.01 2.99 19.52 2.99 18.02 C 3.83 18.01 5.52 17.98 6.37 17.97 C 5.26 16.78 4.12 15.63 2.92 14.53 C 2.99 13.14 2.98 11.70 3.70 10.45 C 3.94 9.24 4.14 7.90 5.45 7.38 C 7.31 6.49 8.16 4.59 9.40 3.08 M 9.84 4.43 C 9.74 5.90 9.24 7.21 7.80 7.80 C 5.44 9.03 3.57 12.17 5.26 14.66 C 7.60 18.13 12.44 17.43 15.71 19.53 C 15.62 20.50 15.53 21.47 15.44 22.44 C 13.53 22.52 11.61 22.56 9.70 22.57 C 9.15 21.53 8.61 20.49 8.06 19.44 C 6.67 19.53 5.28 19.62 3.89 19.72 C 4.51 22.92 7.06 25.58 10.39 25.89 C 10.39 26.53 10.38 27.81 10.38 28.45 C 11.37 28.46 12.37 28.47 13.37 28.49 C 13.78 27.59 14.19 26.68 14.61 25.78 C 17.64 25.19 20.58 22.54 19.78 19.19 C 18.87 14.42 12.97 14.70 9.35 13.33 C 9.39 12.38 9.44 11.43 9.48 10.48 C 12.12 10.10 14.73 10.60 15.97 13.21 C 17.27 13.00 18.57 12.78 19.86 12.55 C 19.04 10.57 18.15 8.36 15.90 7.65 C 14.28 7.33 14.14 5.90 14.13 4.49 C 12.70 4.45 11.27 4.43 9.84 4.43 M 20.62 14.48 C 19.07 15.67 20.72 17.34 21.25 18.60 C 22.31 19.66 22.22 20.62 21.00 21.47 C 21.01 22.03 21.01 23.14 21.02 23.70 C 19.93 24.68 18.78 25.60 17.48 26.30 C 15.83 26.88 16.14 29.25 14.56 29.90 C 12.77 30.18 10.95 30.06 9.14 30.08 C 9.23 28.59 8.08 27.73 7.10 26.83 C 7.55 28.27 7.58 30.09 8.91 31.07 C 10.32 31.92 12.08 31.53 13.63 31.77 C 14.00 39.57 12.75 47.41 13.82 55.16 C 14.37 56.86 16.34 57.42 17.95 57.30 C 25.31 57.30 32.67 57.28 40.03 57.29 C 43.26 57.27 46.55 57.57 49.69 56.64 C 50.00 56.15 50.60 55.17 50.90 54.68 C 51.19 47.08 51.02 39.47 51.06 31.86 C 52.85 31.53 55.08 31.74 56.16 29.95 C 56.44 27.51 57.15 24.55 55.55 22.44 C 49.67 17.92 43.46 13.88 37.54 9.42 C 35.70 8.09 33.45 6.19 31.05 7.41 C 27.43 9.53 24.07 12.10 20.62 14.48 M 12.29 12.30 C 12.78 12.78 12.78 12.78 12.29 12.30 M 11.60 20.17 C 11.91 21.43 12.69 21.64 13.94 20.80 C 13.63 19.54 12.85 19.32 11.60 20.17 Z" />
<path fill="#020201" opacity="1.00" d=" M 28.86 20.65 C 30.63 20.56 32.40 20.45 34.16 20.35 C 34.22 21.21 34.32 22.92 34.37 23.78 C 38.19 24.69 41.60 27.65 40.97 31.93 C 39.37 31.61 37.73 31.46 36.10 31.32 C 35.75 30.51 35.40 29.69 35.05 28.88 C 34.04 28.51 33.03 28.13 32.03 27.75 C 30.92 28.07 29.81 28.39 28.70 28.71 C 28.50 29.35 28.10 30.62 27.90 31.26 C 30.93 33.30 34.63 33.63 37.97 34.89 C 41.59 36.11 42.61 40.94 41.04 44.08 C 39.82 46.61 37.02 47.48 34.63 48.51 C 34.68 49.24 34.76 50.71 34.81 51.45 C 33.01 51.50 31.21 51.55 29.41 51.60 C 29.40 50.76 29.37 49.07 29.36 48.22 C 26.41 47.47 23.95 45.70 22.30 43.14 C 22.32 42.29 22.37 40.59 22.39 39.74 C 23.89 39.73 25.38 39.72 26.88 39.71 C 27.68 43.47 32.20 45.30 35.44 43.27 C 36.99 42.85 36.92 40.21 35.55 39.66 C 32.08 37.45 27.27 37.91 24.35 34.69 C 22.35 32.90 23.20 29.97 23.34 27.65 C 24.97 26.10 26.82 24.82 28.87 23.92 C 28.87 23.10 28.86 21.47 28.86 20.65 Z" />
</g>
<g id="#86bb5fff">
<path fill="#86bb5f" opacity="1.00" d=" M 9.84 4.43 C 11.27 4.43 12.70 4.45 14.13 4.49 C 14.14 5.90 14.28 7.33 15.90 7.65 C 18.15 8.36 19.04 10.57 19.86 12.55 C 18.57 12.78 17.27 13.00 15.97 13.21 C 14.73 10.60 12.12 10.10 9.48 10.48 C 9.44 11.43 9.39 12.38 9.35 13.33 C 12.97 14.70 18.87 14.42 19.78 19.19 C 20.58 22.54 17.64 25.19 14.61 25.78 C 14.19 26.68 13.78 27.59 13.37 28.49 C 12.37 28.47 11.37 28.46 10.38 28.45 C 10.38 27.81 10.39 26.53 10.39 25.89 C 7.06 25.58 4.51 22.92 3.89 19.72 C 5.28 19.62 6.67 19.53 8.06 19.44 C 8.61 20.49 9.15 21.53 9.70 22.57 C 11.61 22.56 13.53 22.52 15.44 22.44 C 15.53 21.47 15.62 20.50 15.71 19.53 C 12.44 17.43 7.60 18.13 5.26 14.66 C 3.57 12.17 5.44 9.03 7.80 7.80 C 9.24 7.21 9.74 5.90 9.84 4.43 Z" />
</g>
<g id="#f1f1f1ff">
<path fill="#f1f1f1" opacity="1.00" d=" M 20.62 14.48 C 24.07 12.10 27.43 9.53 31.05 7.41 C 33.45 6.19 35.70 8.09 37.54 9.42 C 43.46 13.88 49.67 17.92 55.55 22.44 C 57.15 24.55 56.44 27.51 56.16 29.95 C 55.08 31.74 52.85 31.53 51.06 31.86 C 47.72 32.39 44.29 32.91 40.97 31.93 C 41.60 27.65 38.19 24.69 34.37 23.78 C 34.32 22.92 34.22 21.21 34.16 20.35 C 32.40 20.45 30.63 20.56 28.86 20.65 C 28.86 21.47 28.87 23.10 28.87 23.92 C 26.82 24.82 24.97 26.10 23.34 27.65 C 22.71 27.95 21.45 28.57 20.81 28.88 C 20.35 29.80 19.89 30.73 19.43 31.67 C 17.78 31.99 16.12 32.31 14.47 32.62 C 13.87 40.12 14.02 47.65 13.82 55.16 C 12.75 47.41 14.00 39.57 13.63 31.77 C 12.08 31.53 10.32 31.92 8.91 31.07 C 7.58 30.09 7.55 28.27 7.10 26.83 C 8.08 27.73 9.23 28.59 9.14 30.08 C 10.95 30.06 12.77 30.18 14.56 29.90 C 16.14 29.25 15.83 26.88 17.48 26.30 C 18.78 25.60 19.93 24.68 21.02 23.70 C 21.01 23.14 21.01 22.03 21.00 21.47 C 22.22 20.62 22.31 19.66 21.25 18.60 C 20.72 17.34 19.07 15.67 20.62 14.48 Z" />
<path fill="#f1f1f1" opacity="1.00" d=" M 11.60 20.17 C 12.85 19.32 13.63 19.54 13.94 20.80 C 12.69 21.64 11.91 21.43 11.60 20.17 Z" />
</g>
<g id="#d0d1d0ff">
<path fill="#d0d1d0" opacity="1.00" d=" M 20.81 28.88 C 21.45 28.57 22.71 27.95 23.34 27.65 C 23.20 29.97 22.35 32.90 24.35 34.69 C 27.27 37.91 32.08 37.45 35.55 39.66 C 36.92 40.21 36.99 42.85 35.44 43.27 C 32.20 45.30 27.68 43.47 26.88 39.71 C 25.38 39.72 23.89 39.73 22.39 39.74 C 22.37 40.59 22.32 42.29 22.30 43.14 C 23.95 45.70 26.41 47.47 29.36 48.22 C 29.37 49.07 29.40 50.76 29.41 51.60 C 31.21 51.55 33.01 51.50 34.81 51.45 C 34.76 50.71 34.68 49.24 34.63 48.51 C 37.02 47.48 39.82 46.61 41.04 44.08 C 42.61 40.94 41.59 36.11 37.97 34.89 C 34.63 33.63 30.93 33.30 27.90 31.26 C 28.10 30.62 28.50 29.35 28.70 28.71 C 29.81 28.39 30.92 28.07 32.03 27.75 C 33.03 28.13 34.04 28.51 35.05 28.88 C 35.40 29.69 35.75 30.51 36.10 31.32 C 37.73 31.46 39.37 31.61 40.97 31.93 C 44.29 32.91 47.72 32.39 51.06 31.86 C 51.02 39.47 51.19 47.08 50.90 54.68 C 50.60 55.17 50.00 56.15 49.69 56.64 C 46.55 57.57 43.26 57.27 40.03 57.29 C 32.67 57.28 25.31 57.30 17.95 57.30 C 16.34 57.42 14.37 56.86 13.82 55.16 C 14.02 47.65 13.87 40.12 14.47 32.62 C 16.12 32.31 17.78 31.99 19.43 31.67 C 19.89 30.73 20.35 29.80 20.81 28.88 Z" />
</g>
</svg>
