<?xml version="1.0" encoding="UTF-8" ?>
<!DOCTYPE svg PUBLIC "-//W3C//DTD SVG 1.1//EN" "http://www.w3.org/Graphics/SVG/1.1/DTD/svg11.dtd">
<svg width="64pt" height="64pt" viewBox="0 0 64 64" version="1.1" xmlns="http://www.w3.org/2000/svg">
<g id="#040200ff">
<path fill="#040200" opacity="1.00" d=" M 7.96 20.15 C 15.37 15.13 22.58 9.78 30.15 5.00 C 34.32 3.02 37.87 6.81 41.06 8.95 C 44.76 11.99 49.28 14.00 52.63 17.45 C 53.16 18.36 53.93 18.91 54.96 19.12 C 59.11 20.16 59.17 25.48 58.71 28.90 C 58.47 31.84 55.61 33.06 53.48 34.48 C 52.87 41.33 53.68 48.25 53.16 55.10 C 52.65 57.89 49.62 59.48 46.96 59.29 C 36.96 59.28 26.94 59.34 16.94 59.26 C 13.93 59.59 11.32 57.08 11.32 54.11 C 11.11 47.47 11.39 40.82 11.19 34.18 C 9.11 33.36 6.42 32.80 5.70 30.33 C 4.71 26.96 4.54 22.23 7.96 20.15 M 9.93 21.66 C 6.85 23.16 7.19 27.10 7.88 29.90 C 9.33 31.56 11.65 31.39 13.63 31.67 C 13.62 33.30 13.61 34.93 13.60 36.57 C 13.70 42.65 13.39 48.76 13.74 54.83 C 15.00 57.71 18.56 56.77 21.03 56.95 C 30.77 56.65 40.56 57.45 50.27 56.48 C 51.84 48.31 50.76 39.91 51.00 31.64 C 52.78 31.19 54.98 31.50 56.17 29.79 C 56.60 27.57 56.44 25.30 56.47 23.05 C 52.69 19.93 48.56 17.27 44.59 14.40 C 40.60 11.71 36.95 8.49 32.59 6.39 C 24.78 11.07 17.46 16.55 9.93 21.66 Z" />
<path fill="#040200" opacity="1.00" d=" M 30.59 23.01 C 31.33 22.07 32.07 21.13 32.82 20.19 C 33.20 20.90 33.95 22.34 34.32 23.06 C 39.17 23.04 44.07 22.75 48.86 23.63 C 48.40 24.31 47.48 25.67 47.02 26.35 C 42.49 26.35 37.95 26.28 33.41 26.22 C 37.31 27.00 41.85 27.79 43.21 32.18 C 43.46 36.07 43.26 40.00 42.36 43.80 C 44.02 46.09 43.89 48.84 42.39 51.19 C 41.75 49.81 41.13 48.43 40.53 47.04 C 35.33 47.08 30.13 47.04 24.93 47.09 C 23.95 48.44 23.00 49.80 22.05 51.17 C 21.70 49.26 21.41 47.35 21.14 45.44 C 21.56 45.09 22.40 44.38 22.82 44.03 C 21.83 39.93 21.79 35.68 22.16 31.50 C 23.19 30.08 24.38 28.79 25.56 27.48 C 27.61 27.22 29.65 26.91 31.68 26.51 C 26.49 25.87 21.01 27.34 16.09 25.11 C 16.62 24.59 17.67 23.55 18.19 23.03 C 22.32 23.06 26.46 23.05 30.59 23.01 M 25.80 30.63 C 25.31 32.42 24.90 34.22 24.56 36.03 C 26.72 36.05 28.89 36.05 31.06 36.05 C 31.04 33.96 31.03 31.88 31.01 29.79 C 29.27 30.06 27.53 30.35 25.80 30.63 M 34.06 30.07 C 34.08 32.03 34.08 34.00 34.07 35.96 C 36.22 35.92 38.37 35.89 40.52 35.83 C 40.35 33.66 39.55 31.64 38.07 30.03 C 36.73 30.05 35.40 30.06 34.06 30.07 Z" />
</g>
<g id="#f7d659ff">
<path fill="#f7d659" opacity="1.00" d=" M 9.93 21.66 C 17.46 16.55 24.78 11.07 32.59 6.39 C 36.95 8.49 40.60 11.71 44.59 14.40 C 48.56 17.27 52.69 19.93 56.47 23.05 C 56.44 25.30 56.60 27.57 56.17 29.79 C 54.98 31.50 52.78 31.19 51.00 31.64 C 48.83 31.96 47.93 33.96 46.90 35.61 C 46.50 35.65 45.70 35.74 45.30 35.78 C 44.60 34.58 43.90 33.39 43.21 32.18 C 41.85 27.79 37.31 27.00 33.41 26.22 C 37.95 26.28 42.49 26.35 47.02 26.35 C 47.48 25.67 48.40 24.31 48.86 23.63 C 44.07 22.75 39.17 23.04 34.32 23.06 C 33.95 22.34 33.20 20.90 32.82 20.19 C 32.07 21.13 31.33 22.07 30.59 23.01 C 26.46 23.05 22.32 23.06 18.19 23.03 C 17.67 23.55 16.62 24.59 16.09 25.11 C 21.01 27.34 26.49 25.87 31.68 26.51 C 29.65 26.91 27.61 27.22 25.56 27.48 C 24.38 28.79 23.19 30.08 22.16 31.50 C 21.05 32.88 20.07 34.44 18.63 35.49 C 16.99 36.03 15.28 36.24 13.60 36.57 C 13.61 34.93 13.62 33.30 13.63 31.67 C 11.65 31.39 9.33 31.56 7.88 29.90 C 7.19 27.10 6.85 23.16 9.93 21.66 Z" />
<path fill="#f7d659" opacity="1.00" d=" M 34.06 30.07 C 35.40 30.06 36.73 30.05 38.07 30.03 C 39.55 31.64 40.35 33.66 40.52 35.83 C 38.37 35.89 36.22 35.92 34.07 35.96 C 34.08 34.00 34.08 32.03 34.06 30.07 Z" />
</g>
<g id="#080806a6">
<path fill="#080806" opacity="0.65" d=" M 52.63 17.45 C 54.32 16.82 55.10 17.38 54.96 19.12 C 53.93 18.91 53.16 18.36 52.63 17.45 Z" />
</g>
<g id="#eeb747ff">
<path fill="#eeb747" opacity="1.00" d=" M 25.80 30.63 C 27.53 30.35 29.27 30.06 31.01 29.79 C 31.03 31.88 31.04 33.96 31.06 36.05 C 28.89 36.05 26.72 36.05 24.56 36.03 C 24.90 34.22 25.31 32.42 25.80 30.63 Z" />
<path fill="#eeb747" opacity="1.00" d=" M 18.63 35.49 C 20.07 34.44 21.05 32.88 22.16 31.50 C 21.79 35.68 21.83 39.93 22.82 44.03 C 22.40 44.38 21.56 45.09 21.14 45.44 C 21.41 47.35 21.70 49.26 22.05 51.17 C 23.00 49.80 23.95 48.44 24.93 47.09 C 30.13 47.04 35.33 47.08 40.53 47.04 C 41.13 48.43 41.75 49.81 42.39 51.19 C 43.89 48.84 44.02 46.09 42.36 43.80 C 43.26 40.00 43.46 36.07 43.21 32.18 C 43.90 33.39 44.60 34.58 45.30 35.78 C 45.70 35.74 46.50 35.65 46.90 35.61 C 47.93 33.96 48.83 31.96 51.00 31.64 C 50.76 39.91 51.84 48.31 50.27 56.48 C 40.56 57.45 30.77 56.65 21.03 56.95 C 18.56 56.77 15.00 57.71 13.74 54.83 C 13.39 48.76 13.70 42.65 13.60 36.57 C 15.28 36.24 16.99 36.03 18.63 35.49 Z" />
</g>
</svg>
