<?xml version="1.0" encoding="UTF-8" ?>
<!DOCTYPE svg PUBLIC "-//W3C//DTD SVG 1.1//EN" "http://www.w3.org/Graphics/SVG/1.1/DTD/svg11.dtd">
<svg width="64pt" height="64pt" viewBox="0 0 64 64" version="1.1" xmlns="http://www.w3.org/2000/svg">
<g id="#020302ff">
<path fill="#020302" opacity="1.00" d=" M 21.15 3.17 C 25.76 2.60 30.43 3.12 35.06 2.92 C 37.95 3.03 41.23 2.41 43.67 4.35 C 45.67 5.94 48.41 7.28 49.18 9.89 C 49.50 15.14 49.19 20.41 49.30 25.67 C 50.03 25.67 51.49 25.68 52.22 25.68 C 52.66 28.11 53.35 30.89 52.15 33.18 C 51.22 33.45 50.27 33.66 49.32 33.83 C 49.31 42.65 49.22 51.47 49.36 60.29 C 46.36 61.36 43.14 60.96 40.02 60.98 C 33.67 61.00 27.31 60.82 20.96 61.08 C 18.83 61.20 16.70 60.97 14.66 60.33 C 14.75 51.51 14.71 42.68 14.67 33.86 C 13.68 33.65 12.70 33.41 11.73 33.13 C 10.75 30.78 11.33 28.15 11.72 25.72 C 12.47 25.71 13.96 25.68 14.71 25.67 C 14.69 20.15 14.72 14.63 14.69 9.11 C 16.68 6.99 18.36 4.28 21.15 3.17 M 21.41 5.31 C 19.98 6.89 18.29 8.25 17.11 10.02 C 16.76 13.44 17.00 16.88 16.94 20.31 C 16.93 22.85 16.91 25.38 16.94 27.92 C 15.78 27.96 14.62 28.01 13.47 28.06 C 13.56 29.18 13.65 30.29 13.74 31.41 C 14.55 31.38 16.15 31.33 16.96 31.30 C 16.82 40.42 17.11 49.55 16.97 58.67 C 26.99 58.66 37.01 58.65 47.04 58.67 C 46.87 49.55 47.19 40.41 47.04 31.28 C 47.85 31.32 49.48 31.39 50.30 31.43 C 50.34 30.25 50.37 29.08 50.39 27.91 C 49.56 27.92 47.88 27.96 47.05 27.98 C 47.06 25.42 47.06 22.87 47.06 20.31 C 47.05 16.92 47.04 13.52 47.06 10.13 C 45.06 8.43 43.07 6.62 40.73 5.42 C 34.30 5.10 27.85 5.40 21.41 5.31 Z" />
<path fill="#020302" opacity="1.00" d=" M 21.84 20.00 C 28.75 19.89 35.66 19.83 42.57 20.09 C 43.14 22.58 43.82 25.05 44.53 27.51 C 36.17 27.47 27.80 27.48 19.43 27.51 C 20.28 25.02 21.06 22.51 21.84 20.00 Z" />
<path fill="#020302" opacity="1.00" d=" M 28.41 30.33 C 30.05 28.68 33.94 28.67 35.59 30.33 C 35.90 35.27 35.56 40.23 35.74 45.18 C 37.04 45.41 38.34 45.67 39.63 45.95 C 39.73 49.40 39.88 52.88 39.41 56.32 C 34.50 56.83 29.52 56.80 24.61 56.34 C 24.11 52.90 24.28 49.42 24.35 45.96 C 25.65 45.67 26.96 45.40 28.27 45.15 C 28.43 40.21 28.10 35.26 28.41 30.33 M 30.48 47.66 C 29.11 47.71 27.74 47.78 26.37 47.86 C 26.42 49.95 26.44 52.03 26.42 54.11 C 30.15 54.41 33.91 54.44 37.65 54.07 C 37.58 51.90 37.57 49.72 37.40 47.56 C 36.11 47.63 34.82 47.70 33.53 47.78 C 33.65 42.30 33.63 36.82 33.58 31.35 C 32.79 31.34 31.22 31.34 30.43 31.34 C 30.37 36.78 30.33 42.22 30.48 47.66 Z" />
</g>
<g id="#f7f6f7ff">
<path fill="#f7f6f7" opacity="1.00" d=" M 21.41 5.31 C 27.85 5.40 34.30 5.10 40.73 5.42 C 43.07 6.62 45.06 8.43 47.06 10.13 C 47.04 13.52 47.05 16.92 47.06 20.31 C 45.56 20.23 44.06 20.16 42.57 20.09 C 35.66 19.83 28.75 19.89 21.84 20.00 C 20.21 20.09 18.58 20.20 16.94 20.31 C 17.00 16.88 16.76 13.44 17.11 10.02 C 18.29 8.25 19.98 6.89 21.41 5.31 Z" />
</g>
<g id="#dfe0dfff">
<path fill="#dfe0df" opacity="1.00" d=" M 16.94 20.31 C 18.58 20.20 20.21 20.09 21.84 20.00 C 21.06 22.51 20.28 25.02 19.43 27.51 C 27.80 27.48 36.17 27.47 44.53 27.51 C 43.82 25.05 43.14 22.58 42.57 20.09 C 44.06 20.16 45.56 20.23 47.06 20.31 C 47.06 22.87 47.06 25.42 47.05 27.98 C 47.88 27.96 49.56 27.92 50.39 27.91 C 50.37 29.08 50.34 30.25 50.30 31.43 C 49.48 31.39 47.85 31.32 47.04 31.28 C 47.19 40.41 46.87 49.55 47.04 58.67 C 37.01 58.65 26.99 58.66 16.97 58.67 C 17.11 49.55 16.82 40.42 16.96 31.30 C 16.15 31.33 14.55 31.38 13.74 31.41 C 13.65 30.29 13.56 29.18 13.47 28.06 C 14.62 28.01 15.78 27.96 16.94 27.92 C 16.91 25.38 16.93 22.85 16.94 20.31 M 28.41 30.33 C 28.10 35.26 28.43 40.21 28.27 45.15 C 26.96 45.40 25.65 45.67 24.35 45.96 C 24.28 49.42 24.11 52.90 24.61 56.34 C 29.52 56.80 34.50 56.83 39.41 56.32 C 39.88 52.88 39.73 49.40 39.63 45.95 C 38.34 45.67 37.04 45.41 35.74 45.18 C 35.56 40.23 35.90 35.27 35.59 30.33 C 33.94 28.67 30.05 28.68 28.41 30.33 Z" />
<path fill="#dfe0df" opacity="1.00" d=" M 30.48 47.66 C 30.33 42.22 30.37 36.78 30.43 31.34 C 31.22 31.34 32.79 31.34 33.58 31.35 C 33.63 36.82 33.65 42.30 33.53 47.78 C 34.82 47.70 36.11 47.63 37.40 47.56 C 37.57 49.72 37.58 51.90 37.65 54.07 C 33.91 54.44 30.15 54.41 26.42 54.11 C 26.44 52.03 26.42 49.95 26.37 47.86 C 27.74 47.78 29.11 47.71 30.48 47.66 Z" />
</g>
</svg>
