<?xml version="1.0" encoding="UTF-8" ?>
<!DOCTYPE svg PUBLIC "-//W3C//DTD SVG 1.1//EN" "http://www.w3.org/Graphics/SVG/1.1/DTD/svg11.dtd">
<svg width="64pt" height="64pt" viewBox="0 0 64 64" version="1.1" xmlns="http://www.w3.org/2000/svg">
<g id="#050605ff">
<path fill="#050605" opacity="1.00" d=" M 17.74 20.83 C 18.37 16.03 21.98 11.52 27.14 11.57 C 32.42 11.84 38.59 10.16 43.09 13.75 C 45.35 15.34 46.04 18.09 46.67 20.62 C 49.29 20.94 52.36 20.58 54.41 22.60 C 56.35 24.53 56.13 27.43 56.14 29.94 C 56.03 35.32 56.18 40.69 56.10 46.06 C 56.40 47.78 54.67 49.02 53.10 48.74 C 39.40 48.78 25.71 48.73 12.01 48.76 C 10.62 48.73 8.41 48.84 8.23 46.95 C 7.51 41.35 8.06 35.66 8.03 30.03 C 8.18 27.57 7.73 24.61 9.76 22.75 C 11.82 20.55 15.00 20.86 17.74 20.83 M 20.20 23.30 C 17.68 23.35 15.08 23.00 12.62 23.72 C 10.84 24.80 10.33 27.08 10.39 29.02 C 10.39 34.70 10.44 40.39 10.39 46.07 C 24.79 46.67 39.23 46.05 53.65 46.38 C 53.59 39.67 53.85 32.95 53.55 26.25 C 52.55 22.23 47.40 23.44 44.34 23.30 C 44.20 20.76 43.81 17.88 41.87 16.03 C 37.90 12.82 32.52 14.34 27.86 14.05 C 22.97 13.72 19.83 18.87 20.20 23.30 Z" />
<path fill="#050605" opacity="1.00" d=" M 26.13 18.27 C 29.93 18.43 33.75 18.13 37.55 18.38 C 39.71 19.11 39.88 21.55 39.95 23.46 C 34.79 23.42 29.62 23.50 24.46 23.41 C 24.42 21.53 25.03 19.78 26.13 18.27 Z" />
<path fill="#050605" opacity="1.00" d=" M 23.39 28.91 C 23.10 27.45 25.08 27.00 25.84 26.05 C 27.95 28.18 30.09 30.29 32.17 32.45 C 34.52 30.42 36.49 28.00 38.89 26.02 C 39.64 26.87 40.40 27.72 41.16 28.57 C 39.13 30.78 36.99 32.88 34.86 34.99 C 36.91 37.15 39.00 39.28 41.16 41.33 C 40.30 42.34 39.41 43.33 38.52 44.32 C 36.39 42.13 34.24 39.98 32.04 37.87 C 29.95 39.89 27.89 41.94 25.92 44.08 C 24.78 43.33 23.76 42.43 23.09 41.22 C 25.44 39.40 27.83 37.48 29.18 34.77 C 27.18 32.89 25.04 31.12 23.39 28.91 Z" />
</g>
<g id="#ffffffff">
<path fill="#ffffff" opacity="1.00" d=" M 20.20 23.30 C 19.83 18.87 22.97 13.72 27.86 14.05 C 32.52 14.34 37.90 12.82 41.87 16.03 C 43.81 17.88 44.20 20.76 44.34 23.30 C 47.40 23.44 52.55 22.23 53.55 26.25 C 53.85 32.95 53.59 39.67 53.65 46.38 C 39.23 46.05 24.79 46.67 10.39 46.07 C 10.44 40.39 10.39 34.70 10.39 29.02 C 10.33 27.08 10.84 24.80 12.62 23.72 C 15.08 23.00 17.68 23.35 20.20 23.30 M 26.13 18.27 C 25.03 19.78 24.42 21.53 24.46 23.41 C 29.62 23.50 34.79 23.42 39.95 23.46 C 39.88 21.55 39.71 19.11 37.55 18.38 C 33.75 18.13 29.93 18.43 26.13 18.27 M 23.39 28.91 C 25.04 31.12 27.18 32.89 29.18 34.77 C 27.83 37.48 25.44 39.40 23.09 41.22 C 23.76 42.43 24.78 43.33 25.92 44.08 C 27.89 41.94 29.95 39.89 32.04 37.87 C 34.24 39.98 36.39 42.13 38.52 44.32 C 39.41 43.33 40.30 42.34 41.16 41.33 C 39.00 39.28 36.91 37.15 34.86 34.99 C 36.99 32.88 39.13 30.78 41.16 28.57 C 40.40 27.72 39.64 26.87 38.89 26.02 C 36.49 28.00 34.52 30.42 32.17 32.45 C 30.09 30.29 27.95 28.18 25.84 26.05 C 25.08 27.00 23.10 27.45 23.39 28.91 Z" />
</g>
</svg>
