<?xml version="1.0" encoding="UTF-8" ?>
<!DOCTYPE svg PUBLIC "-//W3C//DTD SVG 1.1//EN" "http://www.w3.org/Graphics/SVG/1.1/DTD/svg11.dtd">
<svg width="64pt" height="64pt" viewBox="0 0 64 64" version="1.1" xmlns="http://www.w3.org/2000/svg">
<g id="#010201ff">
<path fill="#010201" opacity="1.00" d=" M 29.36 5.32 C 30.03 5.11 31.37 4.68 32.04 4.46 C 38.56 6.64 44.86 9.50 51.34 11.82 C 53.20 12.24 54.62 13.95 54.36 15.91 C 54.25 26.68 51.29 37.49 45.80 46.76 C 42.41 51.99 38.01 57.34 32.00 59.43 C 27.37 58.04 23.75 54.09 20.73 50.40 C 13.84 41.44 10.61 30.15 9.71 19.01 C 9.74 16.79 8.96 13.65 11.37 12.38 C 17.34 9.96 23.39 7.73 29.36 5.32 M 30.47 7.43 C 24.26 9.75 18.18 12.41 11.91 14.56 C 11.83 23.17 13.91 31.62 17.10 39.57 C 20.29 46.54 24.89 53.50 31.97 56.98 C 35.33 55.45 38.19 52.95 40.50 50.08 C 48.52 40.18 51.70 27.21 52.18 14.69 C 46.60 12.58 41.06 10.39 35.52 8.18 C 33.91 7.63 32.17 6.54 30.47 7.43 Z" />
<path fill="#010201" opacity="1.00" d=" M 28.52 15.95 C 30.84 15.93 33.16 15.94 35.48 15.95 C 35.49 18.66 35.51 21.36 35.53 24.07 C 38.18 23.98 40.83 23.95 43.48 23.93 C 43.48 26.40 43.49 28.88 43.53 31.35 C 40.86 31.26 38.19 31.24 35.51 31.30 C 35.44 36.00 35.64 40.71 35.50 45.41 C 33.64 46.43 30.28 46.50 28.49 45.36 C 28.37 40.68 28.55 35.99 28.50 31.31 C 25.82 31.25 23.14 31.25 20.47 31.35 C 20.51 28.88 20.52 26.40 20.52 23.93 C 23.17 23.96 25.82 23.99 28.47 24.07 C 28.49 21.36 28.51 18.66 28.52 15.95 Z" />
</g>
<g id="#ffffffff">
<path fill="#ffffff" opacity="1.00" d=" M 30.47 7.43 C 32.17 6.54 33.91 7.63 35.52 8.18 C 41.06 10.39 46.60 12.58 52.18 14.69 C 51.70 27.21 48.52 40.18 40.50 50.08 C 38.19 52.95 35.33 55.45 31.97 56.98 C 24.89 53.50 20.29 46.54 17.10 39.57 C 13.91 31.62 11.83 23.17 11.91 14.56 C 18.18 12.41 24.26 9.75 30.47 7.43 M 28.52 15.95 C 28.51 18.66 28.49 21.36 28.47 24.07 C 25.82 23.99 23.17 23.96 20.52 23.93 C 20.52 26.40 20.51 28.88 20.47 31.35 C 23.14 31.25 25.82 31.25 28.50 31.31 C 28.55 35.99 28.37 40.68 28.49 45.36 C 30.28 46.50 33.64 46.43 35.50 45.41 C 35.64 40.71 35.44 36.00 35.51 31.30 C 38.19 31.24 40.86 31.26 43.53 31.35 C 43.49 28.88 43.48 26.40 43.48 23.93 C 40.83 23.95 38.18 23.98 35.53 24.07 C 35.51 21.36 35.49 18.66 35.48 15.95 C 33.16 15.94 30.84 15.93 28.52 15.95 Z" />
</g>
</svg>
