<?xml version="1.0" encoding="UTF-8" ?>
<!DOCTYPE svg PUBLIC "-//W3C//DTD SVG 1.1//EN" "http://www.w3.org/Graphics/SVG/1.1/DTD/svg11.dtd">
<svg width="64pt" height="64pt" viewBox="0 0 64 64" version="1.1" xmlns="http://www.w3.org/2000/svg">
<g id="#0000004c">
<path fill="#000000" opacity="0.30" d=" M 28.54 0.00 L 30.77 0.00 C 32.34 0.59 33.89 1.24 35.46 1.82 C 32.75 1.83 30.04 1.89 27.33 1.98 C 27.63 1.49 28.24 0.50 28.54 0.00 Z" />
</g>
<g id="#030403ff">
<path fill="#030403" opacity="1.00" d=" M 14.72 14.43 C 15.63 7.95 21.23 3.42 27.33 1.98 C 30.04 1.89 32.75 1.83 35.46 1.82 C 39.68 2.83 44.17 4.43 46.66 8.24 C 50.25 13.03 49.76 19.36 49.48 25.00 C 49.35 29.25 47.10 33.12 43.63 35.52 C 45.55 36.09 47.97 35.94 49.38 37.60 C 51.60 40.84 52.32 45.01 50.58 48.62 C 51.83 50.91 53.73 53.92 51.52 56.28 C 49.25 58.70 46.87 62.44 43.03 61.76 C 40.27 61.64 39.39 58.61 38.19 56.63 C 36.14 55.71 34.07 54.83 31.99 53.96 C 29.93 54.83 27.86 55.71 25.81 56.63 C 24.61 58.60 23.74 61.63 20.97 61.75 C 17.14 62.44 14.77 58.73 12.51 56.32 C 10.26 53.96 12.14 50.91 13.45 48.64 C 11.63 45.04 12.37 40.85 14.60 37.62 C 15.98 35.89 18.44 36.06 20.39 35.57 C 13.43 30.99 13.94 21.70 14.72 14.43 M 19.40 9.43 C 15.80 13.85 16.79 19.92 16.83 25.19 C 17.40 28.96 19.64 34.35 24.27 33.79 C 24.87 35.61 25.22 37.83 27.12 38.80 C 29.89 39.81 33.01 39.71 35.88 39.15 C 38.64 38.62 39.21 35.57 39.83 33.30 C 40.42 33.60 41.00 33.90 41.59 34.19 C 44.93 32.02 47.16 28.38 47.24 24.35 C 47.20 19.36 48.06 13.65 44.63 9.48 C 38.57 2.08 25.50 2.07 19.40 9.43 M 21.12 35.62 C 22.07 37.19 23.03 38.77 23.95 40.36 C 26.56 41.58 29.12 43.02 31.95 43.67 C 34.85 43.07 37.44 41.53 40.10 40.30 C 41.03 38.65 41.99 37.02 42.92 35.38 C 41.17 37.50 39.73 40.21 37.00 41.19 C 31.63 42.66 24.46 42.20 22.01 36.31 C 21.79 36.14 21.34 35.79 21.12 35.62 M 15.96 40.07 C 15.56 41.66 14.95 43.17 14.23 44.64 C 14.89 45.99 15.99 46.94 17.35 47.57 C 20.27 44.80 23.41 48.04 26.30 48.93 C 24.06 49.92 21.82 50.90 19.51 51.70 C 18.18 51.20 16.84 50.75 15.48 50.35 C 14.95 51.19 13.88 52.86 13.35 53.70 C 14.32 54.97 15.52 56.03 16.95 56.77 C 17.34 57.68 17.73 58.60 18.11 59.51 C 19.59 59.33 21.06 59.10 22.53 58.82 C 22.57 57.89 22.66 56.03 22.70 55.09 C 25.80 53.90 28.92 52.77 32.00 51.52 C 35.07 52.77 38.19 53.90 41.29 55.08 C 41.34 56.03 41.44 57.91 41.49 58.85 C 42.95 59.11 44.42 59.33 45.90 59.51 C 46.28 58.60 46.65 57.69 47.03 56.78 C 48.44 55.99 49.70 54.98 50.65 53.66 C 50.12 52.84 49.06 51.18 48.53 50.36 C 47.16 50.76 45.81 51.20 44.47 51.70 C 42.16 50.89 39.92 49.92 37.69 48.93 C 40.17 48.32 42.54 45.62 45.21 46.83 C 47.21 48.11 49.08 46.41 49.79 44.58 C 48.67 42.41 47.86 40.11 46.64 38.00 C 45.77 38.28 44.04 38.86 43.18 39.15 C 43.07 39.78 42.86 41.06 42.75 41.70 C 39.28 43.50 35.69 45.11 32.01 46.38 C 28.32 45.11 24.73 43.51 21.26 41.71 C 21.15 41.07 20.93 39.79 20.82 39.15 C 20.02 38.87 18.43 38.32 17.64 38.04 C 17.22 38.55 16.38 39.57 15.96 40.07 Z" />
<path fill="#030403" opacity="1.00" d=" M 20.75 27.54 C 18.19 22.78 26.00 16.91 29.40 21.54 C 31.34 24.44 27.63 27.31 26.28 29.67 C 24.31 29.69 21.45 29.92 20.75 27.54 Z" />
<path fill="#030403" opacity="1.00" d=" M 33.34 23.23 C 34.41 21.97 35.33 20.36 37.04 19.87 C 39.85 20.16 43.29 21.95 43.36 25.14 C 43.72 27.01 42.23 28.39 41.31 29.82 C 37.01 30.58 34.92 26.44 33.34 23.23 Z" />
<path fill="#030403" opacity="1.00" d=" M 29.64 27.57 C 31.24 27.53 32.84 27.56 34.44 27.67 C 34.11 29.81 35.51 34.32 31.95 34.04 C 28.50 34.12 29.95 29.70 29.64 27.57 Z" />
</g>
<g id="#fefdfeff">
<path fill="#fefdfe" opacity="1.00" d=" M 19.40 9.43 C 25.50 2.07 38.57 2.08 44.63 9.48 C 48.06 13.65 47.20 19.36 47.24 24.35 C 47.16 28.38 44.93 32.02 41.59 34.19 C 41.00 33.90 40.42 33.60 39.83 33.30 C 39.21 35.57 38.64 38.62 35.88 39.15 C 33.01 39.71 29.89 39.81 27.12 38.80 C 25.22 37.83 24.87 35.61 24.27 33.79 C 19.64 34.35 17.40 28.96 16.83 25.19 C 16.79 19.92 15.80 13.85 19.40 9.43 M 20.75 27.54 C 21.45 29.92 24.31 29.69 26.28 29.67 C 27.63 27.31 31.34 24.44 29.40 21.54 C 26.00 16.91 18.19 22.78 20.75 27.54 M 33.34 23.23 C 34.92 26.44 37.01 30.58 41.31 29.82 C 42.23 28.39 43.72 27.01 43.36 25.14 C 43.29 21.95 39.85 20.16 37.04 19.87 C 35.33 20.36 34.41 21.97 33.34 23.23 M 29.64 27.57 C 29.95 29.70 28.50 34.12 31.95 34.04 C 35.51 34.32 34.11 29.81 34.44 27.67 C 32.84 27.56 31.24 27.53 29.64 27.57 Z" />
<path fill="#fefdfe" opacity="1.00" d=" M 15.96 40.07 C 16.38 39.57 17.22 38.55 17.64 38.04 C 18.43 38.32 20.02 38.87 20.82 39.15 C 20.93 39.79 21.15 41.07 21.26 41.71 C 24.73 43.51 28.32 45.11 32.01 46.38 C 35.69 45.11 39.28 43.50 42.75 41.70 C 42.86 41.06 43.07 39.78 43.18 39.15 C 44.04 38.86 45.77 38.28 46.64 38.00 C 47.86 40.11 48.67 42.41 49.79 44.58 C 49.08 46.41 47.21 48.11 45.21 46.83 C 42.54 45.62 40.17 48.32 37.69 48.93 C 39.92 49.92 42.16 50.89 44.47 51.70 C 45.81 51.20 47.16 50.76 48.53 50.36 C 49.06 51.18 50.12 52.84 50.65 53.66 C 49.70 54.98 48.44 55.99 47.03 56.78 C 46.65 57.69 46.28 58.60 45.90 59.51 C 44.42 59.33 42.95 59.11 41.49 58.85 C 41.44 57.91 41.34 56.03 41.29 55.08 C 38.19 53.90 35.07 52.77 32.00 51.52 C 28.92 52.77 25.80 53.90 22.70 55.09 C 22.66 56.03 22.57 57.89 22.53 58.82 C 21.06 59.10 19.59 59.33 18.11 59.51 C 17.73 58.60 17.34 57.68 16.95 56.77 C 15.52 56.03 14.32 54.97 13.35 53.70 C 13.88 52.86 14.95 51.19 15.48 50.35 C 16.84 50.75 18.18 51.20 19.51 51.70 C 21.82 50.90 24.06 49.92 26.30 48.93 C 23.41 48.04 20.27 44.80 17.35 47.57 C 15.99 46.94 14.89 45.99 14.23 44.64 C 14.95 43.17 15.56 41.66 15.96 40.07 Z" />
</g>
</svg>
