<?xml version="1.0" encoding="UTF-8" ?>
<!DOCTYPE svg PUBLIC "-//W3C//DTD SVG 1.1//EN" "http://www.w3.org/Graphics/SVG/1.1/DTD/svg11.dtd">
<svg width="64pt" height="64pt" viewBox="0 0 64 64" version="1.1" xmlns="http://www.w3.org/2000/svg">
<g id="#090a08f7">
<path fill="#090a08" opacity="0.97" d=" M 8.89 7.91 C 14.01 1.15 24.11 0.82 30.98 4.98 C 38.25 9.19 42.65 17.62 42.24 25.98 C 42.70 30.28 41.92 35.46 45.31 38.77 C 49.92 43.90 53.68 49.72 57.96 55.12 C 55.58 57.91 52.61 60.10 49.62 62.19 C 43.69 57.06 40.01 49.93 34.67 44.27 C 29.18 39.53 21.03 41.09 15.38 36.65 C 6.48 30.65 1.98 16.96 8.89 7.91 M 7.79 15.86 C 7.53 20.44 8.84 24.90 10.94 28.93 C 14.05 32.78 17.99 36.60 23.12 37.26 L 23.86 37.10 L 24.04 37.61 C 29.64 38.64 35.03 40.79 39.20 44.76 L 38.25 44.98 C 42.31 49.54 45.61 54.72 49.86 59.11 C 51.55 57.71 53.25 56.32 54.94 54.93 C 51.57 50.67 48.33 46.29 44.70 42.25 L 44.40 42.50 C 42.75 39.73 40.89 37.01 40.43 33.74 L 40.35 34.24 C 40.47 30.36 39.86 26.51 39.67 22.64 C 39.80 19.47 38.18 16.60 36.97 13.78 L 36.60 14.08 C 33.08 7.75 25.42 3.46 18.17 4.78 C 12.74 5.84 8.99 10.66 7.79 15.86 Z" />
<path fill="#090a08" opacity="0.97" d=" M 12.13 15.85 C 13.05 12.16 16.23 9.25 20.01 8.75 C 25.59 8.47 31.04 11.80 33.67 16.69 C 35.33 19.90 36.01 23.53 35.60 27.13 C 34.00 31.30 29.75 34.69 25.09 33.61 C 18.67 33.03 14.33 27.54 12.26 21.87 C 12.17 19.87 12.09 17.86 12.13 15.85 M 20.13 11.14 C 16.77 11.46 14.38 14.72 14.32 17.97 C 14.25 24.47 19.53 30.67 26.02 31.46 C 29.71 31.81 33.39 28.71 33.33 24.93 C 33.68 17.93 27.37 10.64 20.13 11.14 Z" />
<path fill="#090a08" opacity="0.97" d=" M 49.30 14.43 C 53.51 13.33 58.25 16.58 58.45 20.99 C 59.31 26.12 53.74 30.58 48.89 29.12 C 46.39 27.99 43.91 25.94 43.61 23.02 C 42.74 19.20 45.49 15.16 49.30 14.43 M 46.84 17.85 C 46.45 19.76 45.02 21.80 46.10 23.72 C 47.30 26.68 51.24 27.91 53.89 26.09 C 56.27 24.65 56.12 21.61 56.38 19.20 L 56.04 19.61 C 54.76 18.56 53.63 17.30 52.15 16.53 C 50.29 16.44 48.58 17.34 46.84 17.85 Z" />
</g>
<g id="#f0ecc3ff">
<path fill="#f0ecc3" opacity="1.00" d=" M 7.79 15.86 C 8.99 10.66 12.74 5.84 18.17 4.78 C 25.42 3.46 33.08 7.75 36.60 14.08 C 35.57 14.89 34.59 15.76 33.67 16.69 C 31.04 11.80 25.59 8.47 20.01 8.75 C 16.23 9.25 13.05 12.16 12.13 15.85 C 11.43 16.47 10.73 17.10 10.03 17.72 C 9.28 17.10 8.54 16.48 7.79 15.86 Z" />
</g>
<g id="#d9d9b1ff">
<path fill="#d9d9b1" opacity="1.00" d=" M 36.60 14.08 L 36.97 13.78 C 38.18 16.60 39.80 19.47 39.67 22.64 C 39.31 24.38 38.89 26.10 38.48 27.83 C 37.52 27.60 36.56 27.36 35.60 27.13 C 36.01 23.53 35.33 19.90 33.67 16.69 C 34.59 15.76 35.57 14.89 36.60 14.08 Z" />
<path fill="#d9d9b1" opacity="1.00" d=" M 7.79 15.86 C 8.54 16.48 9.28 17.10 10.03 17.72 C 10.73 17.10 11.43 16.47 12.13 15.85 C 12.09 17.86 12.17 19.87 12.26 21.87 C 11.93 24.24 11.44 26.59 10.94 28.93 C 8.84 24.90 7.53 20.44 7.79 15.86 Z" />
</g>
<g id="#caf001ff">
<path fill="#caf001" opacity="1.00" d=" M 46.84 17.85 C 48.58 17.34 50.29 16.44 52.15 16.53 C 53.63 17.30 54.76 18.56 56.04 19.61 C 54.82 21.27 53.23 23.00 50.91 22.47 C 48.22 22.68 47.80 19.64 46.84 17.85 Z" />
</g>
<g id="#8dc900ff">
<path fill="#8dc900" opacity="1.00" d=" M 46.10 23.72 C 45.02 21.80 46.45 19.76 46.84 17.85 C 47.80 19.64 48.22 22.68 50.91 22.47 C 53.23 23.00 54.82 21.27 56.04 19.61 L 56.38 19.20 C 56.12 21.61 56.27 24.65 53.89 26.09 C 51.24 27.91 47.30 26.68 46.10 23.72 Z" />
</g>
<g id="#b3b196ff">
<path fill="#b3b196" opacity="1.00" d=" M 12.26 21.87 C 14.33 27.54 18.67 33.03 25.09 33.61 C 29.75 34.69 34.00 31.30 35.60 27.13 C 36.56 27.36 37.52 27.60 38.48 27.83 C 38.89 26.10 39.31 24.38 39.67 22.64 C 39.86 26.51 40.47 30.36 40.35 34.24 C 40.23 34.96 39.99 36.40 39.87 37.12 C 34.57 37.30 28.84 34.53 23.86 37.10 L 23.12 37.26 C 17.99 36.60 14.05 32.78 10.94 28.93 C 11.44 26.59 11.93 24.24 12.26 21.87 Z" />
</g>
<g id="#969681ff">
<path fill="#969681" opacity="1.00" d=" M 40.35 34.24 L 40.43 33.74 C 40.89 37.01 42.75 39.73 44.40 42.50 C 44.20 42.70 43.79 43.10 43.59 43.30 C 42.19 43.97 40.71 44.43 39.20 44.76 C 35.03 40.79 29.64 38.64 24.04 37.61 L 23.86 37.10 C 28.84 34.53 34.57 37.30 39.87 37.12 C 39.99 36.40 40.23 34.96 40.35 34.24 Z" />
</g>
<g id="#787a6dff">
<path fill="#787a6d" opacity="1.00" d=" M 44.40 42.50 L 44.70 42.25 C 48.33 46.29 51.57 50.67 54.94 54.93 C 53.25 56.32 51.55 57.71 49.86 59.11 C 45.61 54.72 42.31 49.54 38.25 44.98 L 39.20 44.76 C 40.71 44.43 42.19 43.97 43.59 43.30 C 43.79 43.10 44.20 42.70 44.40 42.50 Z" />
</g>
</svg>
