<?xml version="1.0" encoding="UTF-8" ?>
<!DOCTYPE svg PUBLIC "-//W3C//DTD SVG 1.1//EN" "http://www.w3.org/Graphics/SVG/1.1/DTD/svg11.dtd">
<svg width="64pt" height="64pt" viewBox="0 0 64 64" version="1.1" xmlns="http://www.w3.org/2000/svg">
<g id="#0a090afe">
<path fill="#0a090a" opacity="1.00" d=" M 27.37 10.27 C 28.72 6.22 35.29 6.23 36.63 10.29 C 37.79 12.52 36.21 14.70 35.14 16.58 C 35.05 18.88 35.08 21.19 35.05 23.49 C 38.66 23.43 42.30 23.37 45.88 23.90 C 46.13 34.01 45.82 44.12 46.05 54.23 C 41.43 55.17 36.68 54.57 31.99 54.71 C 27.33 54.57 22.60 55.17 17.98 54.24 C 17.97 44.10 17.80 33.96 18.16 23.82 C 21.74 23.42 25.35 23.42 28.94 23.49 C 28.92 21.19 28.94 18.88 28.86 16.58 C 27.79 14.70 26.20 12.51 27.37 10.27 M 28.77 11.90 C 29.59 13.34 30.65 15.30 32.67 14.66 C 35.27 14.38 35.41 10.23 32.82 9.78 C 31.06 8.94 29.92 10.96 28.77 11.90 M 31.26 17.34 C 31.30 20.13 31.29 22.92 31.40 25.71 C 27.72 25.68 24.03 25.74 20.35 25.65 C 20.26 34.59 20.28 43.54 20.31 52.48 C 28.10 52.45 35.90 52.45 43.69 52.48 C 43.70 43.54 43.75 34.59 43.65 25.65 C 39.97 25.74 36.29 25.68 32.60 25.71 C 32.72 22.92 32.69 20.12 32.71 17.32 C 32.34 17.33 31.62 17.34 31.26 17.34 Z" />
<path fill="#0a090a" opacity="1.00" d=" M 30.40 31.21 C 34.54 30.26 38.80 32.96 39.94 36.98 C 41.77 41.95 37.25 47.79 32.03 47.49 C 27.44 47.79 23.18 43.26 23.75 38.71 C 24.01 35.17 26.81 31.72 30.40 31.21 M 29.62 34.42 C 28.80 35.30 28.01 36.21 27.24 37.13 C 27.08 37.79 26.75 39.12 26.58 39.78 C 27.55 41.29 28.13 43.33 29.95 44.05 C 31.72 45.20 33.63 44.12 35.37 43.55 C 36.17 41.92 37.50 40.30 37.19 38.36 C 36.63 36.83 35.45 35.66 34.49 34.39 C 32.87 34.19 31.23 34.19 29.62 34.42 Z" />
</g>
<g id="#fffeffff">
<path fill="#fffeff" opacity="1.00" d=" M 28.77 11.90 C 29.92 10.96 31.06 8.94 32.82 9.78 C 35.41 10.23 35.27 14.38 32.67 14.66 C 30.65 15.30 29.59 13.34 28.77 11.90 Z" />
<path fill="#fffeff" opacity="1.00" d=" M 31.26 17.34 C 31.62 17.34 32.34 17.33 32.71 17.32 C 32.69 20.12 32.72 22.92 32.60 25.71 C 36.29 25.68 39.97 25.74 43.65 25.65 C 43.75 34.59 43.70 43.54 43.69 52.48 C 35.90 52.45 28.10 52.45 20.31 52.48 C 20.28 43.54 20.26 34.59 20.35 25.65 C 24.03 25.74 27.72 25.68 31.40 25.71 C 31.29 22.92 31.30 20.13 31.26 17.34 M 30.40 31.21 C 26.81 31.72 24.01 35.17 23.75 38.71 C 23.18 43.26 27.44 47.79 32.03 47.49 C 37.25 47.79 41.77 41.95 39.94 36.98 C 38.80 32.96 34.54 30.26 30.40 31.21 Z" />
<path fill="#fffeff" opacity="1.00" d=" M 29.62 34.42 C 31.23 34.19 32.87 34.19 34.49 34.39 C 35.45 35.66 36.63 36.83 37.19 38.36 C 37.50 40.30 36.17 41.92 35.37 43.55 C 33.63 44.12 31.72 45.20 29.95 44.05 C 28.13 43.33 27.55 41.29 26.58 39.78 C 26.75 39.12 27.08 37.79 27.24 37.13 C 28.01 36.21 28.80 35.30 29.62 34.42 Z" />
</g>
</svg>
