<?xml version="1.0" encoding="UTF-8" ?>
<!DOCTYPE svg PUBLIC "-//W3C//DTD SVG 1.1//EN" "http://www.w3.org/Graphics/SVG/1.1/DTD/svg11.dtd">
<svg width="64pt" height="64pt" viewBox="0 0 64 64" version="1.1" xmlns="http://www.w3.org/2000/svg">
<g id="#050406f8">
<path fill="#050406" opacity="0.97" d=" M 17.43 20.40 C 18.86 18.83 20.45 15.71 22.97 16.69 C 25.73 19.41 27.84 22.72 30.44 25.60 C 31.93 27.16 32.73 29.15 33.00 31.28 C 31.18 31.70 29.34 32.02 27.49 32.28 C 27.91 34.54 28.26 37.24 30.58 38.39 C 32.60 40.12 36.65 40.54 36.56 43.81 C 33.75 46.80 29.00 45.96 25.41 45.17 C 19.60 43.60 16.32 37.89 15.60 32.24 C 13.90 31.86 11.18 32.34 10.63 30.14 C 11.56 26.18 15.30 23.72 17.43 20.40 M 13.21 29.67 C 14.65 29.64 16.10 29.60 17.55 29.54 C 17.64 30.07 17.82 31.12 17.91 31.64 C 18.42 35.93 20.44 40.69 24.75 42.34 C 27.59 43.78 30.84 43.31 33.91 43.25 C 29.01 41.27 24.65 37.19 25.24 31.48 C 25.33 31.07 25.50 30.24 25.58 29.83 C 27.27 29.69 28.97 29.64 30.66 29.58 C 27.56 26.15 24.86 22.38 21.91 18.82 C 18.90 22.35 15.96 25.94 13.21 29.67 Z" />
<path fill="#050406" opacity="0.97" d=" M 28.88 18.88 C 34.00 17.44 40.15 18.13 44.03 22.07 C 46.85 24.51 47.57 28.35 48.43 31.78 C 50.42 32.15 54.73 31.60 53.37 34.86 C 51.47 37.76 49.13 40.36 46.89 43.00 C 45.67 44.36 44.45 45.73 43.24 47.10 L 42.67 47.75 C 39.01 46.54 37.43 42.69 34.96 40.04 C 33.56 37.96 31.02 36.13 31.22 33.37 C 32.18 31.46 34.90 32.27 36.59 31.74 C 35.94 29.75 35.69 27.37 33.97 25.96 C 32.07 24.42 29.71 23.62 27.78 22.14 C 27.16 20.71 27.53 19.62 28.88 18.88 M 29.90 20.82 C 33.17 22.33 36.38 24.35 38.21 27.58 C 38.31 29.78 38.47 31.98 38.62 34.18 C 36.85 34.27 35.09 34.35 33.32 34.40 C 36.39 37.83 39.21 41.47 42.10 45.06 C 45.07 41.55 48.06 38.05 50.80 34.35 C 49.35 34.36 47.90 34.37 46.45 34.40 C 46.04 31.85 45.58 29.30 44.73 26.85 C 42.15 21.23 35.50 19.68 29.90 20.82 Z" />
</g>
<g id="#94d2f3ff">
<path fill="#94d2f3" opacity="1.00" d=" M 13.21 29.67 C 15.96 25.94 18.90 22.35 21.91 18.82 C 24.86 22.38 27.56 26.15 30.66 29.58 C 28.97 29.64 27.27 29.69 25.58 29.83 C 25.50 30.24 25.33 31.07 25.24 31.48 C 24.21 32.18 23.17 32.86 22.12 33.54 C 20.72 32.90 19.31 32.27 17.91 31.64 C 17.82 31.12 17.64 30.07 17.55 29.54 C 16.10 29.60 14.65 29.64 13.21 29.67 Z" />
<path fill="#94d2f3" opacity="1.00" d=" M 29.90 20.82 C 35.50 19.68 42.15 21.23 44.73 26.85 C 43.93 28.77 44.38 31.77 42.07 32.63 C 40.58 31.11 39.38 29.34 38.21 27.58 C 36.38 24.35 33.17 22.33 29.90 20.82 Z" />
</g>
<g id="#7dbeddff">
<path fill="#7dbedd" opacity="1.00" d=" M 44.73 26.85 C 45.58 29.30 46.04 31.85 46.45 34.40 C 47.90 34.37 49.35 34.36 50.80 34.35 C 48.06 38.05 45.07 41.55 42.10 45.06 C 39.21 41.47 36.39 37.83 33.32 34.40 C 35.09 34.35 36.85 34.27 38.62 34.18 C 38.47 31.98 38.31 29.78 38.21 27.58 C 39.38 29.34 40.58 31.11 42.07 32.63 C 44.38 31.77 43.93 28.77 44.73 26.85 Z" />
<path fill="#7dbedd" opacity="1.00" d=" M 17.91 31.64 C 19.31 32.27 20.72 32.90 22.12 33.54 C 23.17 32.86 24.21 32.18 25.24 31.48 C 24.65 37.19 29.01 41.27 33.91 43.25 C 30.84 43.31 27.59 43.78 24.75 42.34 C 20.44 40.69 18.42 35.93 17.91 31.64 Z" />
</g>
<g id="#0000006c">
<path fill="#000000" opacity="0.42" d=" M 43.24 47.10 C 44.45 45.73 45.67 44.36 46.89 43.00 C 48.05 44.48 48.04 46.36 48.14 48.14 C 46.48 47.99 44.70 48.07 43.24 47.10 Z" />
</g>
</svg>
