<?xml version="1.0" encoding="UTF-8" ?>
<!DOCTYPE svg PUBLIC "-//W3C//DTD SVG 1.1//EN" "http://www.w3.org/Graphics/SVG/1.1/DTD/svg11.dtd">
<svg width="64pt" height="64pt" viewBox="0 0 64 64" version="1.1" xmlns="http://www.w3.org/2000/svg">
<g id="#000000ff">
<path fill="#000000" opacity="1.00" d=" M 19.77 2.84 C 21.28 1.68 23.28 2.03 25.05 1.94 C 31.30 2.13 37.57 1.65 43.80 2.30 C 45.17 4.46 44.26 7.42 44.56 9.89 C 42.36 10.72 40.01 10.82 37.69 10.91 C 40.84 12.16 43.92 13.55 46.94 15.09 C 47.94 14.14 48.94 13.20 49.94 12.25 C 52.81 13.20 55.08 15.42 56.49 18.04 C 56.35 19.82 54.74 20.96 53.77 22.30 C 57.29 28.23 58.74 35.43 57.10 42.20 C 54.90 52.51 45.60 60.76 35.13 61.83 C 23.85 63.38 12.11 56.48 8.14 45.78 C 4.56 36.87 6.52 26.04 13.09 19.02 C 16.61 14.97 21.52 12.52 26.59 11.01 C 24.58 10.81 22.55 10.70 20.53 10.62 C 19.03 8.31 19.30 5.42 19.77 2.84 M 21.57 4.32 C 21.61 5.37 21.68 7.46 21.71 8.51 C 23.83 8.50 25.95 8.50 28.06 8.49 C 28.49 10.00 28.84 11.53 29.03 13.09 C 19.77 14.46 11.01 21.64 9.54 31.10 L 9.95 31.59 L 9.19 31.89 C 5.98 44.74 16.64 58.74 29.82 59.61 C 39.04 60.65 48.25 55.42 52.72 47.43 C 56.34 40.73 56.57 32.14 52.66 25.51 L 52.74 24.96 C 51.92 23.98 51.11 23.00 50.30 22.01 C 51.54 20.72 52.77 19.41 54.01 18.13 C 52.99 17.16 51.95 16.22 50.88 15.31 C 49.18 15.65 48.06 17.26 46.63 18.16 C 43.36 15.44 39.31 14.00 35.22 13.06 C 35.36 11.51 35.55 9.97 35.95 8.46 C 38.06 8.50 40.17 8.51 42.29 8.52 C 42.32 7.47 42.39 5.37 42.43 4.32 C 35.48 4.22 28.52 4.22 21.57 4.32 Z" />
<path fill="#000000" opacity="1.00" d=" M 15.34 32.08 C 17.25 24.71 24.26 19.02 31.96 19.25 C 39.82 18.88 47.21 24.85 48.81 32.50 C 50.07 38.36 48.28 44.91 43.79 48.97 C 38.40 53.92 29.91 54.94 23.53 51.31 C 16.94 47.48 13.75 39.46 15.34 32.08 M 29.31 22.45 C 29.26 27.72 29.28 32.98 29.39 38.24 C 32.17 40.89 34.77 43.72 37.71 46.19 C 38.87 44.83 40.01 43.45 41.16 42.08 C 38.95 40.07 36.80 37.99 34.66 35.89 C 34.81 31.20 35.62 26.43 34.51 21.80 C 32.78 22.02 31.04 22.23 29.31 22.45 Z" />
</g>
<g id="#f5f4f5ff">
<path fill="#f5f4f5" opacity="1.00" d=" M 21.57 4.32 C 28.52 4.22 35.48 4.22 42.43 4.32 C 42.39 5.37 42.32 7.47 42.29 8.52 C 40.17 8.51 38.06 8.50 35.95 8.46 C 35.55 9.97 35.36 11.51 35.22 13.06 C 39.31 14.00 43.36 15.44 46.63 18.16 C 48.06 17.26 49.18 15.65 50.88 15.31 C 51.95 16.22 52.99 17.16 54.01 18.13 C 52.77 19.41 51.54 20.72 50.30 22.01 C 51.11 23.00 51.92 23.98 52.74 24.96 L 52.66 25.51 C 52.39 27.48 52.12 29.45 51.86 31.42 C 51.10 31.69 49.58 32.23 48.81 32.50 C 47.21 24.85 39.82 18.88 31.96 19.25 C 24.26 19.02 17.25 24.71 15.34 32.08 C 13.55 31.90 11.75 31.73 9.95 31.59 L 9.54 31.10 C 11.01 21.64 19.77 14.46 29.03 13.09 C 28.84 11.53 28.49 10.00 28.06 8.49 C 25.95 8.50 23.83 8.50 21.71 8.51 C 21.68 7.46 21.61 5.37 21.57 4.32 Z" />
</g>
<g id="#dcdbdcff">
<path fill="#dcdbdc" opacity="1.00" d=" M 29.31 22.45 C 31.04 22.23 32.78 22.02 34.51 21.80 C 35.62 26.43 34.81 31.20 34.66 35.89 C 36.80 37.99 38.95 40.07 41.16 42.08 C 40.01 43.45 38.87 44.83 37.71 46.19 C 34.77 43.72 32.17 40.89 29.39 38.24 C 29.28 32.98 29.26 27.72 29.31 22.45 Z" />
<path fill="#dcdbdc" opacity="1.00" d=" M 52.66 25.51 C 56.57 32.14 56.34 40.73 52.72 47.43 C 48.25 55.42 39.04 60.65 29.82 59.61 C 16.64 58.74 5.98 44.74 9.19 31.89 L 9.95 31.59 C 11.75 31.73 13.55 31.90 15.34 32.08 C 13.75 39.46 16.94 47.48 23.53 51.31 C 29.91 54.94 38.40 53.92 43.79 48.97 C 48.28 44.91 50.07 38.36 48.81 32.50 C 49.58 32.23 51.10 31.69 51.86 31.42 C 52.12 29.45 52.39 27.48 52.66 25.51 Z" />
</g>
</svg>
