<?xml version="1.0" encoding="UTF-8" ?>
<!DOCTYPE svg PUBLIC "-//W3C//DTD SVG 1.1//EN" "http://www.w3.org/Graphics/SVG/1.1/DTD/svg11.dtd">
<svg width="64pt" height="64pt" viewBox="0 0 64 64" version="1.1" xmlns="http://www.w3.org/2000/svg">
<g id="#0b090bfe">
<path fill="#0b090b" opacity="1.00" d=" M 37.70 5.77 C 43.26 3.18 50.49 3.53 55.18 7.73 C 59.74 11.84 59.70 20.03 54.96 23.99 C 53.58 25.33 51.87 26.31 50.60 27.77 C 49.59 29.28 49.89 31.23 50.21 32.91 C 50.48 35.96 50.28 39.02 50.17 42.07 C 46.78 43.48 42.96 42.70 39.41 42.54 C 38.24 38.42 39.04 34.18 39.49 30.03 C 39.04 26.18 40.61 22.09 43.78 19.78 C 45.19 18.49 47.57 17.36 46.68 15.04 C 46.33 13.21 43.59 13.97 42.91 15.20 C 42.54 16.50 42.39 17.84 42.21 19.17 C 39.01 20.78 34.97 20.16 31.55 19.47 C 30.38 14.16 33.26 8.64 37.70 5.77 M 37.31 8.89 C 34.79 11.07 33.68 14.46 33.49 17.71 C 35.69 17.68 37.89 17.67 40.10 17.70 C 39.79 14.46 42.35 11.06 45.84 11.77 C 49.97 12.10 50.16 18.22 47.09 20.10 C 43.79 22.38 41.01 25.97 41.73 30.24 C 43.71 30.30 45.69 30.37 47.67 30.47 C 46.92 26.87 50.20 24.58 52.77 22.79 C 57.38 19.47 57.33 11.61 52.41 8.57 C 47.96 5.38 41.71 5.89 37.31 8.89 M 40.97 33.65 C 40.97 35.92 40.97 38.19 41.00 40.46 C 43.29 40.45 45.59 40.46 47.88 40.50 C 47.94 38.21 47.98 35.92 48.02 33.62 C 45.67 33.62 43.32 33.63 40.97 33.65 Z" />
<path fill="#0b090b" opacity="1.00" d=" M 5.56 25.90 C 5.65 24.53 5.12 22.54 6.98 22.17 C 9.58 21.82 12.28 21.75 14.88 22.14 C 17.21 22.64 17.97 25.12 19.14 26.86 C 21.62 30.77 23.92 34.79 26.57 38.59 C 26.85 33.70 26.57 28.80 26.77 23.91 C 27.02 21.46 30.26 22.18 31.96 21.91 C 33.93 22.11 37.71 21.17 37.91 24.09 C 38.31 30.38 38.13 36.70 38.26 43.00 C 37.30 48.47 38.88 54.12 37.49 59.53 C 34.41 59.78 31.32 59.82 28.24 59.66 C 25.82 58.89 25.20 56.16 23.87 54.30 C 21.50 50.60 19.30 46.77 16.69 43.23 C 16.51 48.16 16.94 53.09 16.65 58.02 C 15.56 61.15 10.91 59.27 8.56 59.53 L 8.48 59.48 C 8.46 59.51 8.43 59.57 8.42 59.60 L 8.27 59.91 C 7.63 59.69 6.35 59.25 5.71 59.03 C 5.38 48.00 5.70 36.94 5.56 25.90 M 7.76 24.23 C 7.73 27.34 7.65 30.47 7.78 33.58 C 7.64 41.58 7.76 49.57 7.80 57.57 C 10.05 57.58 12.30 57.55 14.55 57.48 C 14.19 51.78 14.47 46.07 14.39 40.37 C 14.38 38.72 14.38 37.08 14.39 35.43 C 16.29 36.67 16.86 38.98 18.13 40.73 C 21.95 46.17 24.93 52.16 28.79 57.58 C 31.02 57.56 33.24 57.56 35.47 57.57 C 35.81 51.88 35.83 46.14 35.58 40.45 C 35.71 35.06 35.62 29.67 35.71 24.29 C 33.49 24.34 31.26 24.35 29.04 24.34 C 29.06 26.77 29.08 29.19 29.03 31.62 C 28.84 36.70 29.16 41.78 28.82 46.85 C 25.94 42.51 23.30 38.02 20.66 33.54 C 18.58 30.51 16.64 27.38 14.72 24.24 C 12.40 24.24 10.08 24.23 7.76 24.23 Z" />
</g>
<g id="#f1f0f1ff">
<path fill="#f1f0f1" opacity="1.00" d=" M 37.31 8.89 C 41.71 5.89 47.96 5.38 52.41 8.57 C 57.33 11.61 57.38 19.47 52.77 22.79 C 50.20 24.58 46.92 26.87 47.67 30.47 C 45.69 30.37 43.71 30.30 41.73 30.24 C 41.01 25.97 43.79 22.38 47.09 20.10 C 50.16 18.22 49.97 12.10 45.84 11.77 C 42.35 11.06 39.79 14.46 40.10 17.70 C 37.89 17.67 35.69 17.68 33.49 17.71 C 33.68 14.46 34.79 11.07 37.31 8.89 Z" />
<path fill="#f1f0f1" opacity="1.00" d=" M 29.04 24.34 C 31.26 24.35 33.49 24.34 35.71 24.29 C 35.62 29.67 35.71 35.06 35.58 40.45 C 34.59 38.00 34.54 35.36 34.78 32.76 C 32.92 32.12 30.98 31.80 29.03 31.62 C 29.08 29.19 29.06 26.77 29.04 24.34 Z" />
</g>
<g id="#dbdbdbff">
<path fill="#dbdbdb" opacity="1.00" d=" M 7.76 24.23 C 10.08 24.23 12.40 24.24 14.72 24.24 C 16.64 27.38 18.58 30.51 20.66 33.54 C 20.52 35.34 20.36 37.15 20.19 38.96 C 19.68 39.40 18.65 40.28 18.13 40.73 C 16.86 38.98 16.29 36.67 14.39 35.43 C 14.38 37.08 14.38 38.72 14.39 40.37 C 12.90 40.37 11.41 40.31 9.93 40.20 C 8.42 38.40 8.38 35.79 7.78 33.58 C 7.65 30.47 7.73 27.34 7.76 24.23 Z" />
<path fill="#dbdbdb" opacity="1.00" d=" M 40.97 33.65 C 43.32 33.63 45.67 33.62 48.02 33.62 C 47.98 35.92 47.94 38.21 47.88 40.50 C 45.59 40.46 43.29 40.45 41.00 40.46 C 40.97 38.19 40.97 35.92 40.97 33.65 Z" />
</g>
<g id="#ccccccff">
<path fill="#cccccc" opacity="1.00" d=" M 29.03 31.62 C 30.98 31.80 32.92 32.12 34.78 32.76 C 34.54 35.36 34.59 38.00 35.58 40.45 C 35.83 46.14 35.81 51.88 35.47 57.57 C 33.24 57.56 31.02 57.56 28.79 57.58 C 24.93 52.16 21.95 46.17 18.13 40.73 C 18.65 40.28 19.68 39.40 20.19 38.96 C 20.36 37.15 20.52 35.34 20.66 33.54 C 23.30 38.02 25.94 42.51 28.82 46.85 C 29.16 41.78 28.84 36.70 29.03 31.62 Z" />
<path fill="#cccccc" opacity="1.00" d=" M 7.78 33.58 C 8.38 35.79 8.42 38.40 9.93 40.20 C 11.41 40.31 12.90 40.37 14.39 40.37 C 14.47 46.07 14.19 51.78 14.55 57.48 C 12.30 57.55 10.05 57.58 7.80 57.57 C 7.76 49.57 7.64 41.58 7.78 33.58 Z" />
</g>
<g id="#3e3b3efe">
<path fill="#3e3b3e" opacity="1.00" d=" M 8.42 59.60 C 8.43 59.57 8.46 59.51 8.48 59.48 L 8.56 59.53 L 8.42 59.60 Z" />
</g>
</svg>
