<?xml version="1.0" encoding="UTF-8" ?>
<!DOCTYPE svg PUBLIC "-//W3C//DTD SVG 1.1//EN" "http://www.w3.org/Graphics/SVG/1.1/DTD/svg11.dtd">
<svg width="64pt" height="64pt" viewBox="0 0 64 64" version="1.1" xmlns="http://www.w3.org/2000/svg">
<g id="#060606dd">
<path fill="#060606" opacity="0.87" d=" M 15.38 4.60 C 18.36 4.25 21.65 3.98 24.37 5.50 C 29.51 8.16 34.71 10.70 39.91 13.24 C 40.28 14.11 40.65 14.97 41.02 15.84 C 35.82 20.00 29.31 22.02 23.58 25.34 C 23.59 33.56 23.55 41.78 23.60 50.00 C 27.63 50.49 32.63 50.02 35.58 53.37 C 37.22 55.52 34.77 57.89 32.74 58.46 C 27.64 59.89 22.21 59.85 16.98 59.19 C 14.35 58.73 10.91 58.11 10.15 55.05 C 10.27 52.79 12.50 51.96 14.07 50.82 C 14.27 36.53 14.14 22.23 14.14 7.94 C 14.27 6.75 13.80 4.99 15.38 4.60 M 16.41 6.91 C 16.57 22.24 16.50 37.57 16.44 52.90 C 15.02 53.53 13.64 54.25 12.30 55.05 C 18.96 58.18 27.16 58.17 33.88 55.23 C 33.52 54.85 32.79 54.09 32.42 53.70 C 28.78 52.82 25.06 52.30 21.31 52.49 C 21.24 43.24 21.42 33.99 21.22 24.74 L 22.09 23.66 L 22.70 24.27 C 23.04 24.05 23.71 23.60 24.05 23.37 L 24.74 21.85 C 29.40 19.87 33.87 17.49 38.34 15.15 C 32.57 12.91 27.48 8.44 21.24 7.76 L 21.39 6.47 C 19.72 6.61 18.06 6.75 16.41 6.91 Z" />
<path fill="#060606" opacity="0.87" d=" M 38.57 48.63 C 40.49 46.31 42.57 43.35 45.99 43.65 C 51.63 42.99 55.67 50.10 52.73 54.75 C 50.53 59.41 43.12 59.96 40.23 55.73 C 38.59 53.73 38.75 51.05 38.57 48.63 M 41.50 48.35 C 40.55 51.11 41.19 54.70 44.23 55.81 C 48.62 58.20 53.94 51.35 49.95 47.88 C 47.71 44.94 43.70 45.91 41.50 48.35 Z" />
</g>
<g id="#fefcfeff">
<path fill="#fefcfe" opacity="1.00" d=" M 16.41 6.91 C 18.06 6.75 19.72 6.61 21.39 6.47 L 21.24 7.76 C 20.81 11.57 20.99 15.40 21.02 19.22 C 21.06 21.06 21.13 22.90 21.22 24.74 C 21.42 33.99 21.24 43.24 21.31 52.49 C 25.06 52.30 28.78 52.82 32.42 53.70 C 32.79 54.09 33.52 54.85 33.88 55.23 C 27.16 58.17 18.96 58.18 12.30 55.05 C 13.64 54.25 15.02 53.53 16.44 52.90 C 16.50 37.57 16.57 22.24 16.41 6.91 Z" />
<path fill="#fefcfe" opacity="1.00" d=" M 41.50 48.35 C 43.70 45.91 47.71 44.94 49.95 47.88 C 53.94 51.35 48.62 58.20 44.23 55.81 C 41.19 54.70 40.55 51.11 41.50 48.35 Z" />
</g>
<g id="#fe4a4aff">
<path fill="#fe4a4a" opacity="1.00" d=" M 21.24 7.76 C 27.48 8.44 32.57 12.91 38.34 15.15 C 33.87 17.49 29.40 19.87 24.74 21.85 C 23.52 20.95 22.27 20.09 21.02 19.22 C 20.99 15.40 20.81 11.57 21.24 7.76 Z" />
</g>
<g id="#b7514fff">
<path fill="#b7514f" opacity="1.00" d=" M 21.02 19.22 C 22.27 20.09 23.52 20.95 24.74 21.85 L 24.05 23.37 C 23.56 23.44 22.58 23.59 22.09 23.66 L 21.22 24.74 C 21.13 22.90 21.06 21.06 21.02 19.22 Z" />
</g>
<g id="#5e1515ff">
<path fill="#5e1515" opacity="1.00" d=" M 22.09 23.66 C 22.58 23.59 23.56 23.44 24.05 23.37 C 23.71 23.60 23.04 24.05 22.70 24.27 L 22.09 23.66 Z" />
</g>
</svg>
