<?xml version="1.0" encoding="UTF-8" ?>
<!DOCTYPE svg PUBLIC "-//W3C//DTD SVG 1.1//EN" "http://www.w3.org/Graphics/SVG/1.1/DTD/svg11.dtd">
<svg width="64pt" height="64pt" viewBox="0 0 64 64" version="1.1" xmlns="http://www.w3.org/2000/svg">
<g id="#070707fe">
<path fill="#070707" opacity="1.00" d=" M 8.65 2.71 C 10.60 2.33 12.63 2.23 14.59 2.57 C 15.75 3.18 15.84 4.72 16.47 5.75 C 19.26 7.18 20.96 9.81 21.48 12.87 C 21.14 13.49 20.46 14.72 20.12 15.33 C 21.06 17.11 22.08 19.01 21.74 21.11 C 21.53 24.13 18.92 26.16 16.57 27.67 C 16.17 28.60 15.80 29.54 15.45 30.49 C 13.25 30.47 11.00 30.69 8.83 30.21 C 8.49 29.32 8.18 28.42 7.89 27.51 C 5.98 26.32 3.80 25.13 3.03 22.85 C 1.93 20.84 2.06 17.82 4.66 17.13 C 3.00 14.96 2.64 12.03 3.69 9.52 C 4.66 8.06 6.11 7.02 7.35 5.81 C 7.72 4.75 8.15 3.72 8.65 2.71 M 10.18 4.70 C 10.04 6.06 10.03 7.74 8.46 8.25 C 5.87 9.29 5.11 12.19 5.56 14.74 C 7.19 16.04 8.90 17.36 11.03 17.72 C 12.87 18.45 16.13 18.31 16.11 21.00 C 14.68 23.90 11.35 23.04 8.90 22.20 C 8.69 21.58 8.29 20.34 8.08 19.71 C 7.15 19.74 5.29 19.80 4.36 19.83 C 4.99 23.00 7.62 25.04 10.64 25.78 C 10.63 26.40 10.62 27.63 10.61 28.24 C 11.39 28.24 12.96 28.22 13.75 28.22 C 13.49 25.50 16.25 24.80 18.18 23.91 C 19.51 21.65 20.07 18.13 17.62 16.40 C 15.00 14.89 11.88 14.66 9.08 13.57 C 9.03 12.90 8.94 11.54 8.90 10.86 C 11.35 10.00 14.63 9.76 15.64 12.77 C 16.76 12.74 17.89 12.69 19.01 12.65 C 18.96 8.59 13.06 8.65 13.51 4.58 C 12.67 4.61 11.01 4.67 10.18 4.70 Z" />
</g>
<g id="#ecececff">
<path fill="#ececec" opacity="1.00" d=" M 10.18 4.70 C 11.01 4.67 12.67 4.61 13.51 4.58 C 13.06 8.65 18.96 8.59 19.01 12.65 C 17.89 12.69 16.76 12.74 15.64 12.77 C 14.63 9.76 11.35 10.00 8.90 10.86 C 8.94 11.54 9.03 12.90 9.08 13.57 C 11.88 14.66 15.00 14.89 17.62 16.40 C 20.07 18.13 19.51 21.65 18.18 23.91 C 16.25 24.80 13.49 25.50 13.75 28.22 C 12.96 28.22 11.39 28.24 10.61 28.24 C 10.62 27.63 10.63 26.40 10.64 25.78 C 7.62 25.04 4.99 23.00 4.36 19.83 C 5.29 19.80 7.15 19.74 8.08 19.71 C 8.29 20.34 8.69 21.58 8.90 22.20 C 11.35 23.04 14.68 23.90 16.11 21.00 C 16.13 18.31 12.87 18.45 11.03 17.72 C 8.90 17.36 7.19 16.04 5.56 14.74 C 5.11 12.19 5.87 9.29 8.46 8.25 C 10.03 7.74 10.04 6.06 10.18 4.70 Z" />
</g>
</svg>
