<?xml version="1.0" encoding="UTF-8" ?>
<!DOCTYPE svg PUBLIC "-//W3C//DTD SVG 1.1//EN" "http://www.w3.org/Graphics/SVG/1.1/DTD/svg11.dtd">
<svg width="64pt" height="64pt" viewBox="0 0 64 64" version="1.1" xmlns="http://www.w3.org/2000/svg">
<g id="#040404fe">
<path fill="#040404" opacity="1.00" d=" M 27.43 4.27 C 29.64 1.17 34.23 0.88 36.39 4.22 C 43.49 4.48 50.61 3.93 57.68 4.48 C 59.61 4.47 59.75 6.72 60.56 7.97 C 59.74 9.61 59.10 11.69 57.09 12.22 C 53.46 12.80 49.76 12.44 46.10 12.44 C 52.73 17.96 52.23 27.63 50.65 35.28 C 53.03 37.99 52.26 41.76 52.25 45.07 C 52.38 48.32 48.23 49.76 45.75 48.28 C 44.03 47.32 44.03 45.13 43.40 43.48 C 40.76 43.50 38.12 43.50 35.48 43.51 C 36.04 47.76 31.67 49.65 30.46 53.05 C 30.91 53.40 31.81 54.09 32.26 54.43 C 34.51 53.22 34.79 50.30 36.52 48.57 C 37.79 47.68 39.30 48.35 40.65 48.57 C 40.21 53.01 39.42 58.64 34.77 60.62 C 29.42 62.96 22.83 58.02 23.54 52.23 C 23.80 48.55 27.17 46.46 29.02 43.62 C 25.86 43.48 22.69 43.50 19.52 43.47 C 19.18 44.83 18.84 46.18 18.52 47.54 C 16.49 48.90 14.08 48.96 11.79 48.30 C 10.06 44.12 8.97 37.92 13.19 34.89 C 11.84 27.31 11.35 17.89 17.89 12.44 C 14.23 12.44 10.53 12.80 6.90 12.22 C 3.65 11.23 3.26 7.31 4.75 4.70 C 12.27 3.79 19.88 4.48 27.43 4.27 M 29.28 6.57 C 21.54 6.36 13.77 6.15 6.05 6.68 C 6.17 7.43 6.43 8.92 6.56 9.67 C 14.24 11.10 22.21 9.91 30.01 10.36 C 29.99 10.84 29.94 11.79 29.92 12.27 C 27.65 12.30 25.34 12.10 23.10 12.52 C 18.84 13.84 15.59 17.73 14.97 22.14 C 14.43 27.32 13.74 33.45 18.12 37.26 C 16.51 37.32 14.90 37.37 13.29 37.42 C 12.60 40.27 11.99 43.78 13.86 46.29 C 17.02 47.48 17.06 43.41 17.05 41.32 C 26.68 41.30 36.32 41.30 45.95 41.33 C 46.18 43.20 45.36 46.12 47.95 46.55 C 51.68 45.45 49.39 40.47 49.92 37.64 C 48.59 37.49 47.26 37.35 45.93 37.23 C 47.00 35.16 49.33 33.78 49.23 31.19 C 49.46 25.61 49.98 18.78 45.09 14.90 C 42.20 11.92 37.92 12.14 34.11 12.28 C 34.07 11.80 33.98 10.84 33.94 10.36 C 41.08 10.23 48.23 10.42 55.37 10.25 C 57.55 10.45 57.63 8.23 58.12 6.71 C 50.37 6.13 42.56 6.35 34.79 6.59 C 33.93 5.67 33.50 3.89 31.99 3.86 C 30.50 3.87 30.10 5.64 29.28 6.57 M 31.28 43.22 C 30.58 46.80 26.78 48.37 25.70 51.70 C 24.43 56.40 30.41 61.04 34.55 58.38 C 37.50 56.57 38.20 52.96 38.29 49.76 C 36.52 52.29 35.51 56.15 31.91 56.53 C 30.62 55.90 29.55 54.93 28.42 54.07 C 28.11 51.22 29.57 48.92 32.16 47.80 C 32.59 46.56 33.02 45.32 33.45 44.09 C 32.73 43.79 32.00 43.50 31.28 43.22 Z" />
<path fill="#040404" opacity="1.00" d=" M 20.15 19.15 C 21.10 17.79 22.68 17.14 24.07 16.33 C 24.67 16.31 25.86 16.27 26.46 16.25 C 26.39 19.86 26.41 23.47 26.37 27.09 C 23.93 27.06 21.50 27.05 19.06 27.03 C 19.25 24.41 18.49 21.43 20.15 19.15 Z" />
<path fill="#040404" opacity="1.00" d=" M 28.51 16.29 C 30.81 16.25 33.11 16.24 35.40 16.20 C 35.60 19.84 35.47 23.47 35.37 27.11 C 33.12 27.09 30.87 27.10 28.62 27.11 C 28.50 23.51 28.43 19.90 28.51 16.29 Z" />
<path fill="#040404" opacity="1.00" d=" M 37.35 16.20 C 40.50 16.11 43.89 17.83 44.76 21.05 C 45.01 23.03 44.91 25.04 44.94 27.03 C 42.40 27.05 39.86 27.06 37.33 27.07 C 37.30 23.45 37.26 19.82 37.35 16.20 Z" />
</g>
<g id="#fefefeff">
<path fill="#fefefe" opacity="1.00" d=" M 29.28 6.57 C 30.10 5.64 30.50 3.87 31.99 3.86 C 33.50 3.89 33.93 5.67 34.79 6.59 C 42.56 6.35 50.37 6.13 58.12 6.71 C 57.63 8.23 57.55 10.45 55.37 10.25 C 48.23 10.42 41.08 10.23 33.94 10.36 C 33.98 10.84 34.07 11.80 34.11 12.28 C 37.92 12.14 42.20 11.92 45.09 14.90 C 49.98 18.78 49.46 25.61 49.23 31.19 C 49.33 33.78 47.00 35.16 45.93 37.23 C 47.26 37.35 48.59 37.49 49.92 37.64 C 49.39 40.47 51.68 45.45 47.95 46.55 C 45.36 46.12 46.18 43.20 45.95 41.33 C 36.32 41.30 26.68 41.30 17.05 41.32 C 17.06 43.41 17.02 47.48 13.86 46.29 C 11.99 43.78 12.60 40.27 13.29 37.42 C 14.90 37.37 16.51 37.32 18.12 37.26 C 13.74 33.45 14.43 27.32 14.97 22.14 C 15.59 17.73 18.84 13.84 23.10 12.52 C 25.34 12.10 27.65 12.30 29.92 12.27 C 29.94 11.79 29.99 10.84 30.01 10.36 C 22.21 9.91 14.24 11.10 6.56 9.67 C 6.43 8.92 6.17 7.43 6.05 6.68 C 13.77 6.15 21.54 6.36 29.28 6.57 M 20.15 19.15 C 18.49 21.43 19.25 24.41 19.06 27.03 C 21.50 27.05 23.93 27.06 26.37 27.09 C 26.41 23.47 26.39 19.86 26.46 16.25 C 25.86 16.27 24.67 16.31 24.07 16.33 C 22.68 17.14 21.10 17.79 20.15 19.15 M 28.51 16.29 C 28.43 19.90 28.50 23.51 28.62 27.11 C 30.87 27.10 33.12 27.09 35.37 27.11 C 35.47 23.47 35.60 19.84 35.40 16.20 C 33.11 16.24 30.81 16.25 28.51 16.29 M 37.35 16.20 C 37.26 19.82 37.30 23.45 37.33 27.07 C 39.86 27.06 42.40 27.05 44.94 27.03 C 44.91 25.04 45.01 23.03 44.76 21.05 C 43.89 17.83 40.50 16.11 37.35 16.20 Z" />
<path fill="#fefefe" opacity="1.00" d=" M 31.28 43.22 C 32.00 43.50 32.73 43.79 33.45 44.09 C 33.02 45.32 32.59 46.56 32.16 47.80 C 29.57 48.92 28.11 51.22 28.42 54.07 C 29.55 54.93 30.62 55.90 31.91 56.53 C 35.51 56.15 36.52 52.29 38.29 49.76 C 38.20 52.96 37.50 56.57 34.55 58.38 C 30.41 61.04 24.43 56.40 25.70 51.70 C 26.78 48.37 30.58 46.80 31.28 43.22 Z" />
</g>
</svg>
