<?xml version="1.0" encoding="UTF-8" ?>
<!DOCTYPE svg PUBLIC "-//W3C//DTD SVG 1.1//EN" "http://www.w3.org/Graphics/SVG/1.1/DTD/svg11.dtd">
<svg width="64pt" height="64pt" viewBox="0 0 64 64" version="1.1" xmlns="http://www.w3.org/2000/svg">
<g id="#22222227">
<path fill="#222222" opacity="0.15" d=" M 8.66 19.01 C 18.14 18.98 27.62 18.84 37.10 19.08 C 37.23 21.22 37.43 23.34 37.53 25.48 C 45.70 25.65 53.87 25.30 62.04 25.64 C 62.06 28.73 62.00 31.82 61.87 34.91 C 53.77 35.23 45.64 34.66 37.55 35.32 C 37.32 35.93 36.87 37.15 36.64 37.77 C 33.58 37.96 30.23 37.15 27.36 38.30 C 24.66 40.85 20.74 42.93 20.41 47.02 C 15.51 47.30 10.61 46.93 5.72 46.89 C 5.59 44.61 5.58 42.33 5.62 40.04 C 6.54 39.34 7.47 38.64 8.39 37.94 C 6.63 37.85 4.87 37.77 3.11 37.69 C 2.92 34.67 2.89 31.65 3.17 28.64 C 4.87 27.41 6.62 26.22 8.34 25.02 C 8.42 23.01 8.61 21.01 8.66 19.01 M 10.45 21.06 C 10.44 22.26 10.43 23.46 10.42 24.67 C 13.99 24.65 17.56 24.69 21.12 24.76 C 21.04 25.45 20.87 26.83 20.79 27.52 C 16.49 27.51 12.19 27.51 7.89 27.47 C 8.24 29.72 7.16 30.63 5.00 30.47 C 4.97 32.21 4.95 33.96 4.93 35.70 C 7.70 35.70 10.47 35.71 13.24 35.73 C 13.26 36.40 13.29 37.74 13.31 38.41 C 12.61 38.49 11.22 38.64 10.52 38.72 C 10.49 39.34 10.44 40.60 10.41 41.23 C 9.72 41.28 8.35 41.37 7.67 41.42 C 7.69 42.29 7.73 44.03 7.76 44.91 C 11.42 44.91 15.08 44.92 18.74 44.92 C 18.71 44.08 18.65 42.40 18.62 41.56 C 19.31 41.47 20.70 41.30 21.39 41.21 C 21.42 40.55 21.48 39.23 21.50 38.56 C 22.16 38.49 23.46 38.36 24.11 38.29 C 24.18 37.68 24.33 36.46 24.40 35.85 C 27.95 35.50 31.52 35.74 35.08 35.80 C 35.15 35.10 35.30 33.70 35.37 32.99 C 43.56 32.90 51.76 32.93 59.95 32.94 C 59.93 31.13 59.92 29.32 59.91 27.51 C 49.01 27.54 38.12 27.52 27.22 27.51 C 27.14 26.83 26.96 25.45 26.87 24.76 C 29.68 24.69 32.50 24.66 35.31 24.62 C 35.29 23.73 35.24 21.95 35.21 21.06 C 26.96 21.05 18.70 21.03 10.45 21.06 Z" />
</g>
<g id="#010101ff">
<path fill="#010101" opacity="1.00" d=" M 10.45 21.06 C 18.70 21.03 26.96 21.05 35.21 21.06 C 35.24 21.95 35.29 23.73 35.31 24.62 C 32.50 24.66 29.68 24.69 26.87 24.76 C 26.96 25.45 27.14 26.83 27.22 27.51 C 38.12 27.52 49.01 27.54 59.91 27.51 C 59.92 29.32 59.93 31.13 59.95 32.94 C 51.76 32.93 43.56 32.90 35.37 32.99 C 35.30 33.70 35.15 35.10 35.08 35.80 C 31.52 35.74 27.95 35.50 24.40 35.85 C 24.33 36.46 24.18 37.68 24.11 38.29 C 23.46 38.36 22.16 38.49 21.50 38.56 C 21.48 39.23 21.42 40.55 21.39 41.21 C 20.70 41.30 19.31 41.47 18.62 41.56 C 18.65 42.40 18.71 44.08 18.74 44.92 C 15.08 44.92 11.42 44.91 7.76 44.91 C 7.73 44.03 7.69 42.29 7.67 41.42 C 8.35 41.37 9.72 41.28 10.41 41.23 C 10.44 40.60 10.49 39.34 10.52 38.72 C 11.22 38.64 12.61 38.49 13.31 38.41 C 13.29 37.74 13.26 36.40 13.24 35.73 C 10.47 35.71 7.70 35.70 4.93 35.70 C 4.95 33.96 4.97 32.21 5.00 30.47 C 7.16 30.63 8.24 29.72 7.89 27.47 C 12.19 27.51 16.49 27.51 20.79 27.52 C 20.87 26.83 21.04 25.45 21.12 24.76 C 17.56 24.69 13.99 24.65 10.42 24.67 C 10.43 23.46 10.44 22.26 10.45 21.06 Z" />
</g>
</svg>
