<?xml version="1.0" encoding="UTF-8" ?>
<!DOCTYPE svg PUBLIC "-//W3C//DTD SVG 1.1//EN" "http://www.w3.org/Graphics/SVG/1.1/DTD/svg11.dtd">
<svg width="64pt" height="64pt" viewBox="0 0 64 64" version="1.1" xmlns="http://www.w3.org/2000/svg">
<g id="#080808fe">
<path fill="#080808" opacity="1.00" d=" M 25.86 15.09 C 27.14 12.94 29.93 13.86 31.99 13.62 C 34.04 13.87 36.84 12.94 38.12 15.08 C 38.61 18.62 38.26 22.21 38.23 25.77 C 42.09 26.21 47.05 24.22 50.12 27.04 C 50.02 30.62 51.63 35.33 48.93 38.14 C 45.38 38.47 41.80 38.22 38.23 38.24 C 37.78 42.10 39.77 47.05 36.95 50.14 C 33.66 50.40 30.34 50.40 27.05 50.13 C 26.75 49.81 26.15 49.16 25.86 48.84 C 25.45 45.32 25.75 41.77 25.77 38.24 C 22.21 38.22 18.64 38.48 15.10 38.14 C 14.79 37.83 14.18 37.21 13.87 36.90 C 13.53 33.66 13.55 30.36 13.86 27.11 C 14.56 26.01 15.57 25.54 16.88 25.67 C 19.84 25.55 22.80 25.69 25.76 25.76 C 25.75 22.21 25.45 18.63 25.86 15.09 M 27.94 16.02 C 27.95 17.58 27.89 19.16 28.06 20.72 C 27.99 23.10 27.97 25.49 27.92 27.87 C 23.97 28.10 20.02 27.89 16.07 27.95 C 16.09 30.60 16.10 33.24 16.09 35.89 C 19.88 35.84 23.68 35.82 27.48 35.85 L 28.04 36.32 C 27.89 40.18 28.07 44.05 28.12 47.91 C 30.71 47.89 33.30 47.89 35.89 47.91 C 35.91 43.91 36.03 39.91 36.02 35.91 C 39.99 35.78 43.95 35.84 47.91 35.89 C 47.90 33.24 47.92 30.60 47.94 27.95 C 43.97 27.92 40.00 27.98 36.03 28.02 C 36.01 26.29 35.96 24.56 35.90 22.83 C 36.18 20.57 36.03 18.28 36.04 16.01 C 33.34 15.93 30.64 15.93 27.94 16.02 Z" />
</g>
<g id="#88f474ff">
<path fill="#88f474" opacity="1.00" d=" M 27.94 16.02 C 30.64 15.93 33.34 15.93 36.04 16.01 C 36.03 18.28 36.18 20.57 35.90 22.83 C 35.46 24.09 34.98 25.34 34.50 26.59 C 32.81 26.60 31.12 26.61 29.44 26.64 C 28.95 24.67 28.41 22.72 28.06 20.72 C 27.89 19.16 27.95 17.58 27.94 16.02 Z" />
</g>
<g id="#75d865ff">
<path fill="#75d865" opacity="1.00" d=" M 28.06 20.72 C 28.41 22.72 28.95 24.67 29.44 26.64 C 31.12 26.61 32.81 26.60 34.50 26.59 C 34.98 25.34 35.46 24.09 35.90 22.83 C 35.96 24.56 36.01 26.29 36.03 28.02 C 40.00 27.98 43.97 27.92 47.94 27.95 C 47.92 30.60 47.90 33.24 47.91 35.89 C 43.95 35.84 39.99 35.78 36.02 35.91 C 34.58 37.01 33.18 38.81 31.13 38.40 C 29.91 38.03 29.02 37.06 28.04 36.32 L 27.48 35.85 C 23.68 35.82 19.88 35.84 16.09 35.89 C 16.10 33.24 16.09 30.60 16.07 27.95 C 20.02 27.89 23.97 28.10 27.92 27.87 C 27.97 25.49 27.99 23.10 28.06 20.72 Z" />
</g>
<g id="#5cb24dff">
<path fill="#5cb24d" opacity="1.00" d=" M 31.13 38.40 C 33.18 38.81 34.58 37.01 36.02 35.91 C 36.03 39.91 35.91 43.91 35.89 47.91 C 33.30 47.89 30.71 47.89 28.12 47.91 C 28.07 44.05 27.89 40.18 28.04 36.32 C 29.02 37.06 29.91 38.03 31.13 38.40 Z" />
</g>
</svg>
