<?xml version="1.0" encoding="UTF-8" ?>
<!DOCTYPE svg PUBLIC "-//W3C//DTD SVG 1.1//EN" "http://www.w3.org/Graphics/SVG/1.1/DTD/svg11.dtd">
<svg width="64pt" height="64pt" viewBox="0 0 64 64" version="1.1" xmlns="http://www.w3.org/2000/svg">
<g id="#040102fe">
<path fill="#040102" opacity="1.00" d=" M 9.65 4.31 C 16.75 3.46 23.88 4.34 30.99 3.94 C 33.97 4.23 38.07 2.85 39.92 5.99 C 41.18 7.19 40.06 9.61 42.20 10.02 C 44.23 9.65 44.94 6.97 47.07 6.57 C 50.21 7.63 51.88 10.88 54.44 12.82 C 54.43 13.64 54.42 15.26 54.41 16.08 C 53.48 17.03 52.47 17.91 51.69 19.00 C 51.83 19.50 52.12 20.50 52.27 21.00 C 52.28 32.65 52.32 44.31 52.25 55.96 C 52.24 58.68 49.58 60.27 47.09 60.03 C 36.05 59.98 25.02 59.95 13.98 60.05 C 11.54 60.23 8.88 58.58 8.74 56.01 C 8.69 40.31 8.74 24.62 8.72 8.93 C 8.24 7.25 8.81 5.75 9.65 4.31 M 11.12 6.34 C 10.78 10.78 11.08 15.23 11.08 19.68 C 10.84 27.44 10.98 35.21 11.00 42.97 C 11.33 47.84 10.59 52.80 11.58 57.60 C 23.92 57.63 36.26 57.77 48.58 57.54 C 48.91 57.14 49.55 56.36 49.88 55.97 C 50.14 44.63 49.97 33.29 50.04 21.95 C 50.43 20.65 49.27 19.93 48.39 19.33 C 45.99 16.72 43.44 14.26 40.95 11.75 C 35.21 11.44 29.44 11.80 23.69 11.57 C 22.61 9.81 21.41 8.14 20.22 6.46 C 17.19 6.24 14.15 6.44 11.12 6.34 M 22.67 6.40 C 23.72 7.20 24.89 7.78 24.54 9.32 C 29.25 9.56 34.30 10.11 38.84 9.03 C 38.47 8.37 37.71 7.03 37.34 6.36 C 32.46 6.11 27.56 6.35 22.67 6.40 M 44.42 11.64 C 46.47 13.34 47.97 15.74 50.34 17.02 C 50.92 16.44 52.07 15.28 52.65 14.70 C 51.43 13.46 50.45 11.00 48.35 11.70 C 48.35 11.23 48.35 10.29 48.35 9.82 L 47.15 9.11 C 46.23 9.94 45.32 10.79 44.42 11.64 Z" />
<path fill="#040102" opacity="1.00" d=" M 25.46 19.39 C 27.23 17.94 29.04 15.42 31.65 16.37 C 35.45 18.46 38.20 21.99 39.75 26.01 C 41.76 24.81 43.04 20.80 45.71 22.03 C 45.60 22.48 45.37 23.38 45.26 23.83 C 43.64 25.51 41.88 27.06 40.44 28.90 C 40.49 31.62 41.77 34.26 41.16 36.99 C 40.57 39.63 40.71 42.35 40.74 45.04 C 41.87 47.73 45.64 48.71 45.83 51.81 C 43.46 52.58 42.19 50.35 40.76 48.94 C 40.34 50.11 39.85 51.25 39.28 52.35 C 37.84 52.62 36.37 52.61 34.91 52.74 C 33.81 55.77 30.58 55.97 27.89 55.19 C 27.30 54.37 26.70 53.55 26.09 52.74 C 24.64 52.61 23.17 52.62 21.74 52.36 C 21.19 51.25 20.71 50.11 20.28 48.95 C 18.72 50.01 17.48 53.31 15.28 51.62 C 15.58 48.66 19.25 47.66 20.26 45.00 C 20.52 39.59 19.02 34.28 20.54 28.95 C 19.51 27.42 18.10 26.21 16.77 24.96 C 16.44 24.60 15.78 23.87 15.45 23.51 C 15.53 22.97 15.68 21.88 15.76 21.34 C 18.06 22.15 19.35 24.44 21.21 25.89 C 22.52 23.67 23.35 21.03 25.46 19.39 M 28.11 19.05 C 23.86 22.03 22.24 27.33 21.52 32.03 C 20.94 37.08 21.78 42.19 21.77 47.27 C 21.64 48.65 22.43 49.89 22.70 51.22 C 23.62 51.24 25.48 51.28 26.41 51.29 C 26.42 50.63 26.45 49.32 26.47 48.66 C 26.78 48.41 27.41 47.93 27.73 47.68 C 29.97 48.16 32.81 46.76 34.53 48.67 C 34.55 49.32 34.58 50.63 34.59 51.29 C 35.52 51.28 37.38 51.25 38.30 51.24 C 38.56 49.90 39.35 48.66 39.23 47.27 C 39.22 42.18 40.07 37.06 39.48 31.99 C 38.71 26.86 36.72 21.00 31.71 18.27 C 30.74 16.21 29.14 18.34 28.11 19.05 M 28.08 49.40 C 28.19 50.79 28.32 52.17 28.42 53.56 C 29.81 53.55 31.20 53.55 32.60 53.56 C 32.69 52.17 32.81 50.79 32.91 49.40 C 31.30 49.40 29.69 49.40 28.08 49.40 Z" />
<path fill="#040102" opacity="1.00" d=" M 23.37 33.59 C 28.12 33.49 32.88 33.44 37.63 33.61 C 37.54 35.27 38.36 36.77 38.51 38.42 C 38.19 38.62 37.56 39.03 37.24 39.23 C 32.74 39.19 28.24 39.19 23.75 39.23 C 23.43 39.03 22.80 38.61 22.49 38.41 C 22.63 36.76 23.46 35.26 23.37 33.59 Z" />
</g>
<g id="#c12c35ff">
<path fill="#c12c35" opacity="1.00" d=" M 11.12 6.34 C 14.15 6.44 17.19 6.24 20.22 6.46 C 21.41 8.14 22.61 9.81 23.69 11.57 C 29.44 11.80 35.21 11.44 40.95 11.75 C 43.44 14.26 45.99 16.72 48.39 19.33 C 48.49 20.90 48.55 22.48 48.37 24.06 C 47.59 24.00 46.04 23.89 45.26 23.83 C 45.37 23.38 45.60 22.48 45.71 22.03 C 43.04 20.80 41.76 24.81 39.75 26.01 C 38.20 21.99 35.45 18.46 31.65 16.37 C 29.04 15.42 27.23 17.94 25.46 19.39 C 23.35 21.03 22.52 23.67 21.21 25.89 C 19.35 24.44 18.06 22.15 15.76 21.34 C 15.68 21.88 15.53 22.97 15.45 23.51 C 15.78 23.87 16.44 24.60 16.77 24.96 C 16.61 26.41 16.08 27.66 15.16 28.70 C 14.33 28.60 12.69 28.41 11.86 28.32 C 11.44 25.45 11.28 22.56 11.08 19.68 C 11.08 15.23 10.78 10.78 11.12 6.34 Z" />
<path fill="#c12c35" opacity="1.00" d=" M 44.42 11.64 C 45.32 10.79 46.23 9.94 47.15 9.11 L 48.35 9.82 C 48.35 10.29 48.35 11.23 48.35 11.70 C 50.45 11.00 51.43 13.46 52.65 14.70 C 52.07 15.28 50.92 16.44 50.34 17.02 C 47.97 15.74 46.47 13.34 44.42 11.64 Z" />
</g>
<g id="#f6f5f6ff">
<path fill="#f6f5f6" opacity="1.00" d=" M 28.11 19.05 C 29.14 18.34 30.74 16.21 31.71 18.27 C 36.72 21.00 38.71 26.86 39.48 31.99 C 39.33 32.43 39.02 33.32 38.87 33.77 C 38.56 33.73 37.94 33.65 37.63 33.61 C 32.88 33.44 28.12 33.49 23.37 33.59 C 23.03 33.61 22.36 33.65 22.03 33.67 C 21.90 33.26 21.65 32.44 21.52 32.03 C 22.24 27.33 23.86 22.03 28.11 19.05 Z" />
</g>
<g id="#982842ff">
<path fill="#982842" opacity="1.00" d=" M 48.39 19.33 C 49.27 19.93 50.43 20.65 50.04 21.95 C 49.97 33.29 50.14 44.63 49.88 55.97 C 49.55 56.36 48.91 57.14 48.58 57.54 C 36.26 57.77 23.92 57.63 11.58 57.60 C 10.59 52.80 11.33 47.84 11.00 42.97 C 10.98 35.21 10.84 27.44 11.08 19.68 C 11.28 22.56 11.44 25.45 11.86 28.32 C 12.69 28.41 14.33 28.60 15.16 28.70 C 16.08 27.66 16.61 26.41 16.77 24.96 C 18.10 26.21 19.51 27.42 20.54 28.95 C 19.02 34.28 20.52 39.59 20.26 45.00 C 19.25 47.66 15.58 48.66 15.28 51.62 C 17.48 53.31 18.72 50.01 20.28 48.95 C 20.71 50.11 21.19 51.25 21.74 52.36 C 23.17 52.62 24.64 52.61 26.09 52.74 C 26.70 53.55 27.30 54.37 27.89 55.19 C 30.58 55.97 33.81 55.77 34.91 52.74 C 36.37 52.61 37.84 52.62 39.28 52.35 C 39.85 51.25 40.34 50.11 40.76 48.94 C 42.19 50.35 43.46 52.58 45.83 51.81 C 45.64 48.71 41.87 47.73 40.74 45.04 C 40.71 42.35 40.57 39.63 41.16 36.99 C 41.77 34.26 40.49 31.62 40.44 28.90 C 41.88 27.06 43.64 25.51 45.26 23.83 C 46.04 23.89 47.59 24.00 48.37 24.06 C 48.55 22.48 48.49 20.90 48.39 19.33 Z" />
</g>
<g id="#ddddddff">
<path fill="#dddddd" opacity="1.00" d=" M 21.77 47.27 C 21.78 42.19 20.94 37.08 21.52 32.03 C 21.65 32.44 21.90 33.26 22.03 33.67 C 22.36 33.65 23.03 33.61 23.37 33.59 C 23.46 35.26 22.63 36.76 22.49 38.41 C 22.80 38.61 23.43 39.03 23.75 39.23 C 28.24 39.19 32.74 39.19 37.24 39.23 C 37.56 39.03 38.19 38.62 38.51 38.42 C 38.36 36.77 37.54 35.27 37.63 33.61 C 37.94 33.65 38.56 33.73 38.87 33.77 C 39.02 33.32 39.33 32.43 39.48 31.99 C 40.07 37.06 39.22 42.18 39.23 47.27 C 39.35 48.66 38.56 49.90 38.30 51.24 C 37.38 51.25 35.52 51.28 34.59 51.29 C 34.58 50.63 34.55 49.32 34.53 48.67 C 32.81 46.76 29.97 48.16 27.73 47.68 C 27.41 47.93 26.78 48.41 26.47 48.66 C 26.45 49.32 26.42 50.63 26.41 51.29 C 25.48 51.28 23.62 51.24 22.70 51.22 C 22.43 49.89 21.64 48.65 21.77 47.27 Z" />
<path fill="#dddddd" opacity="1.00" d=" M 28.08 49.40 C 29.69 49.40 31.30 49.40 32.91 49.40 C 32.81 50.79 32.69 52.17 32.60 53.56 C 31.20 53.55 29.81 53.55 28.42 53.56 C 28.32 52.17 28.19 50.79 28.08 49.40 Z" />
</g>
</svg>
