<?xml version="1.0" encoding="UTF-8" ?>
<!DOCTYPE svg PUBLIC "-//W3C//DTD SVG 1.1//EN" "http://www.w3.org/Graphics/SVG/1.1/DTD/svg11.dtd">
<svg width="64pt" height="64pt" viewBox="0 0 64 64" version="1.1" xmlns="http://www.w3.org/2000/svg">
<g id="#010000ff">
<path fill="#010000" opacity="1.00" d=" M 24.95 7.99 C 27.28 6.15 29.12 3.58 31.97 2.49 C 34.97 3.82 36.94 6.67 39.80 8.25 C 43.88 10.81 48.74 11.51 53.45 11.75 C 55.07 15.98 54.27 20.55 54.34 24.95 C 54.20 31.56 54.62 38.61 51.45 44.65 C 47.64 52.57 40.46 58.94 32.03 61.46 C 22.62 58.63 14.71 51.12 11.33 41.89 C 9.77 37.75 9.61 33.27 9.65 28.90 C 9.71 23.32 9.14 17.70 10.11 12.17 L 11.30 12.37 C 13.23 12.89 15.26 12.62 16.97 11.59 L 17.26 11.45 C 20.00 10.76 22.83 9.99 24.95 7.99 M 11.97 14.15 C 12.12 18.01 11.82 21.89 12.21 25.73 C 11.58 31.72 12.20 37.89 14.54 43.47 C 18.13 50.50 24.39 56.55 31.97 58.96 C 39.57 56.65 45.87 50.53 49.43 43.49 C 51.74 37.84 52.46 31.65 51.99 25.59 C 52.37 21.79 51.97 17.96 52.00 14.16 C 44.35 14.16 37.36 10.56 32.00 5.28 C 26.62 10.52 19.62 14.16 11.97 14.15 Z" />
<path fill="#010000" opacity="1.00" d=" M 28.21 27.46 C 29.38 23.54 30.66 19.65 32.00 15.78 C 33.34 19.65 34.62 23.54 35.79 27.46 C 39.79 27.47 43.81 27.29 47.79 27.72 C 44.47 29.92 41.26 32.28 38.08 34.68 C 39.18 37.92 40.34 41.14 41.27 44.44 L 40.65 45.36 C 37.79 43.23 34.90 41.16 32.00 39.08 C 28.88 41.30 25.77 43.54 22.64 45.75 L 22.82 44.35 C 23.63 41.05 24.80 37.87 25.91 34.67 C 22.74 32.28 19.54 29.94 16.24 27.72 C 20.21 27.27 24.22 27.46 28.21 27.46 Z" />
</g>
<g id="#e16b6bff">
<path fill="#e16b6b" opacity="1.00" d=" M 11.97 14.15 C 19.62 14.16 26.62 10.52 32.00 5.28 C 37.36 10.56 44.35 14.16 52.00 14.16 C 51.97 17.96 52.37 21.79 51.99 25.59 C 51.60 26.53 51.20 27.46 50.79 28.39 C 49.79 28.15 48.79 27.93 47.79 27.72 C 43.81 27.29 39.79 27.47 35.79 27.46 C 34.62 23.54 33.34 19.65 32.00 15.78 C 30.66 19.65 29.38 23.54 28.21 27.46 C 24.22 27.46 20.21 27.27 16.24 27.72 C 15.20 28.00 14.16 28.29 13.13 28.59 C 12.81 27.64 12.51 26.69 12.21 25.73 C 11.82 21.89 12.12 18.01 11.97 14.15 Z" />
</g>
<g id="#5b2323f3">
<path fill="#5b2323" opacity="0.95" d=" M 17.26 11.45 C 19.35 9.44 22.27 8.82 24.95 7.99 C 22.83 9.99 20.00 10.76 17.26 11.45 Z" />
<path fill="#5b2323" opacity="0.95" d=" M 11.30 12.37 C 12.05 10.70 15.42 10.82 16.97 11.59 C 15.26 12.62 13.23 12.89 11.30 12.37 Z" />
</g>
<g id="#cc4d4cff">
<path fill="#cc4d4c" opacity="1.00" d=" M 12.21 25.73 C 12.51 26.69 12.81 27.64 13.13 28.59 C 14.16 28.29 15.20 28.00 16.24 27.72 C 19.54 29.94 22.74 32.28 25.91 34.67 C 24.80 37.87 23.63 41.05 22.82 44.35 C 20.06 44.03 17.30 43.77 14.54 43.47 C 12.20 37.89 11.58 31.72 12.21 25.73 Z" />
<path fill="#cc4d4c" opacity="1.00" d=" M 50.79 28.39 C 51.20 27.46 51.60 26.53 51.99 25.59 C 52.46 31.65 51.74 37.84 49.43 43.49 C 46.71 43.78 43.98 44.05 41.27 44.44 C 40.34 41.14 39.18 37.92 38.08 34.68 C 41.26 32.28 44.47 29.92 47.79 27.72 C 48.79 27.93 49.79 28.15 50.79 28.39 Z" />
</g>
<g id="#bc3938ff">
<path fill="#bc3938" opacity="1.00" d=" M 22.64 45.75 C 25.77 43.54 28.88 41.30 32.00 39.08 C 34.90 41.16 37.79 43.23 40.65 45.36 L 41.27 44.44 C 43.98 44.05 46.71 43.78 49.43 43.49 C 45.87 50.53 39.57 56.65 31.97 58.96 C 24.39 56.55 18.13 50.50 14.54 43.47 C 17.30 43.77 20.06 44.03 22.82 44.35 L 22.64 45.75 Z" />
</g>
</svg>
