<?xml version="1.0" encoding="UTF-8" ?>
<!DOCTYPE svg PUBLIC "-//W3C//DTD SVG 1.1//EN" "http://www.w3.org/Graphics/SVG/1.1/DTD/svg11.dtd">
<svg width="64pt" height="64pt" viewBox="0 0 64 64" version="1.1" xmlns="http://www.w3.org/2000/svg">
<g id="#232021ff">
<path fill="#232021" opacity="1.00" d=" M 15.62 5.78 C 15.91 5.55 16.49 5.07 16.77 4.83 C 24.83 4.54 32.90 4.83 40.96 4.70 C 43.50 4.73 46.19 4.37 48.54 5.59 C 48.44 8.53 48.67 11.49 48.39 14.43 C 47.36 16.01 45.31 15.34 43.73 15.59 C 43.94 19.44 42.93 23.60 44.85 27.16 C 49.15 36.24 53.36 45.37 57.65 54.45 C 58.54 56.00 59.05 58.69 56.71 59.18 C 41.49 59.44 26.25 59.17 11.02 59.31 C 9.22 59.24 7.15 59.67 5.73 58.23 C 5.30 56.61 6.01 55.10 6.69 53.69 C 11.12 44.37 15.46 35.02 19.76 25.64 C 20.83 22.42 20.07 18.91 20.26 15.57 C 18.75 15.50 17.25 15.42 15.74 15.32 C 15.51 12.15 15.25 8.95 15.62 5.78 M 17.64 7.09 C 17.67 9.17 17.72 11.25 17.79 13.33 C 19.34 13.32 20.89 13.30 22.44 13.28 C 22.14 17.56 22.87 21.95 22.06 26.17 C 17.43 36.50 12.50 46.70 7.80 57.00 C 23.93 56.90 40.06 56.91 56.20 56.99 C 51.86 47.66 47.58 38.31 43.17 29.02 C 40.38 24.24 42.08 18.55 41.56 13.33 C 43.14 13.29 44.73 13.25 46.32 13.20 C 46.32 11.15 46.32 9.11 46.32 7.07 C 36.76 7.02 27.20 6.99 17.64 7.09 Z" />
<path fill="#232021" opacity="1.00" d=" M 28.58 16.20 C 30.36 15.96 31.81 16.81 33.01 18.05 C 32.99 18.76 32.94 20.16 32.92 20.86 C 31.48 23.48 28.35 22.91 26.60 20.98 C 26.62 20.28 26.67 18.88 26.70 18.18 C 27.17 17.69 28.11 16.70 28.58 16.20 Z" />
<path fill="#232021" opacity="1.00" d=" M 33.00 26.45 C 33.82 26.18 35.46 25.63 36.27 25.36 C 38.37 26.46 38.56 28.61 38.47 30.73 C 37.52 31.33 36.57 31.93 35.63 32.53 C 32.50 32.19 31.59 28.92 33.00 26.45 Z" />
<path fill="#232021" opacity="1.00" d=" M 22.31 35.50 C 28.02 34.42 34.25 35.38 40.16 35.04 C 41.72 34.64 42.15 36.43 42.74 37.42 C 45.27 42.51 47.39 47.79 49.91 52.89 C 37.97 52.97 26.03 52.97 14.09 52.88 C 16.97 47.15 19.20 41.11 22.31 35.50 Z" />
</g>
<g id="#fdfdfdff">
<path fill="#fdfdfd" opacity="1.00" d=" M 17.64 7.09 C 27.20 6.99 36.76 7.02 46.32 7.07 C 46.32 9.11 46.32 11.15 46.32 13.20 C 44.73 13.25 43.14 13.29 41.56 13.33 C 42.08 18.55 40.38 24.24 43.17 29.02 C 47.58 38.31 51.86 47.66 56.20 56.99 C 40.06 56.91 23.93 56.90 7.80 57.00 C 12.50 46.70 17.43 36.50 22.06 26.17 C 22.87 21.95 22.14 17.56 22.44 13.28 C 20.89 13.30 19.34 13.32 17.79 13.33 C 17.72 11.25 17.67 9.17 17.64 7.09 M 28.58 16.20 C 28.11 16.70 27.17 17.69 26.70 18.18 C 26.67 18.88 26.62 20.28 26.60 20.98 C 28.35 22.91 31.48 23.48 32.92 20.86 C 32.94 20.16 32.99 18.76 33.01 18.05 C 31.81 16.81 30.36 15.96 28.58 16.20 M 33.00 26.45 C 31.59 28.92 32.50 32.19 35.63 32.53 C 36.57 31.93 37.52 31.33 38.47 30.73 C 38.56 28.61 38.37 26.46 36.27 25.36 C 35.46 25.63 33.82 26.18 33.00 26.45 M 22.31 35.50 C 19.20 41.11 16.97 47.15 14.09 52.88 C 26.03 52.97 37.97 52.97 49.91 52.89 C 47.39 47.79 45.27 42.51 42.74 37.42 C 42.15 36.43 41.72 34.64 40.16 35.04 C 34.25 35.38 28.02 34.42 22.31 35.50 Z" />
</g>
</svg>
