<?xml version="1.0" encoding="UTF-8" ?>
<!DOCTYPE svg PUBLIC "-//W3C//DTD SVG 1.1//EN" "http://www.w3.org/Graphics/SVG/1.1/DTD/svg11.dtd">
<svg width="64pt" height="64pt" viewBox="0 0 64 64" version="1.1" xmlns="http://www.w3.org/2000/svg">
<g id="#000000d8">
<path fill="#000000" opacity="0.85" d=" M 18.25 6.19 C 27.58 -0.31 40.71 -0.46 50.30 5.64 C 57.40 9.71 61.55 17.29 64.00 24.85 L 64.00 36.24 C 62.50 42.45 59.51 48.53 54.76 52.89 C 50.58 56.98 45.02 58.89 39.55 60.53 C 39.17 59.22 38.80 57.90 38.43 56.58 C 42.63 54.84 46.89 53.18 50.80 50.81 C 50.79 48.83 50.77 46.85 50.71 44.87 C 50.24 44.35 49.30 43.32 48.82 42.80 C 48.85 40.75 50.94 39.42 51.97 37.80 C 49.92 36.94 47.80 36.28 45.78 35.35 C 44.53 34.00 44.12 32.11 43.37 30.47 C 41.35 29.25 37.70 28.11 38.91 25.02 C 39.73 20.51 46.10 21.11 47.48 16.98 C 48.70 12.71 45.77 7.78 41.56 6.50 C 38.28 5.88 34.90 6.20 31.58 6.31 C 33.67 9.25 37.09 10.69 39.82 12.91 C 37.89 14.44 35.97 15.98 34.13 17.61 C 35.80 20.34 34.82 23.24 33.39 25.80 C 29.50 24.99 27.08 21.03 22.91 21.17 C 22.39 22.36 21.87 23.54 21.35 24.73 C 21.82 25.20 22.74 26.14 23.20 26.61 C 24.27 26.21 25.34 25.82 26.41 25.42 C 27.59 28.01 28.43 30.73 29.24 33.46 C 31.00 34.36 32.71 35.36 34.34 36.48 C 30.63 37.97 26.78 39.18 22.77 39.39 C 23.49 37.44 24.33 35.55 25.20 33.67 C 22.00 32.28 18.55 31.34 15.67 29.31 C 13.21 27.11 12.32 23.77 11.14 20.80 C 9.98 25.31 9.37 29.91 8.88 34.53 C 7.77 35.42 6.43 35.95 5.18 36.60 C 3.06 25.13 8.29 12.41 18.25 6.19 M 21.33 6.34 C 19.11 8.08 16.39 9.20 14.48 11.31 C 11.98 14.83 8.82 18.08 7.98 22.48 C 6.14 25.98 5.95 29.90 6.23 33.76 C 6.62 33.76 7.39 33.75 7.77 33.75 C 7.78 31.75 7.79 29.75 7.88 27.76 C 8.90 26.27 8.80 24.46 8.86 22.73 C 9.30 21.75 9.71 20.77 10.11 19.77 C 10.82 19.79 12.25 19.81 12.97 19.83 C 13.12 22.31 14.44 24.44 15.46 26.63 C 16.09 27.27 16.73 27.91 17.37 28.55 C 20.26 30.01 23.27 31.19 26.38 32.10 C 26.21 34.15 26.38 36.33 25.28 38.18 C 26.93 37.40 28.62 36.71 30.30 35.98 C 26.38 34.88 27.16 30.30 25.63 27.38 C 24.18 28.50 22.12 28.60 21.04 26.94 C 18.27 24.98 20.83 21.71 22.20 19.71 C 26.22 19.12 29.65 21.29 32.19 24.20 C 32.58 23.42 33.37 21.84 33.77 21.06 C 31.07 17.67 33.97 14.01 37.41 13.00 C 35.06 11.80 32.95 10.21 30.75 8.77 C 30.79 7.46 30.83 6.15 30.86 4.84 C 34.64 4.85 38.43 4.66 42.21 4.87 C 47.55 6.35 49.76 12.21 49.26 17.30 C 48.13 20.88 44.59 22.10 41.46 23.44 C 41.09 24.15 40.35 25.56 39.98 26.27 C 41.39 27.61 43.14 28.44 44.94 29.13 C 45.28 30.70 45.60 32.32 46.50 33.68 C 47.34 35.24 49.32 34.63 50.75 34.89 C 51.86 36.19 53.79 37.31 53.25 39.34 C 52.42 40.55 51.30 41.50 50.23 42.49 C 50.69 42.63 51.60 42.92 52.06 43.07 C 52.32 45.88 52.27 48.71 52.16 51.52 C 48.77 54.94 43.72 55.80 39.53 57.88 C 47.57 57.86 54.40 52.09 58.47 45.57 C 62.09 39.31 64.71 31.55 62.17 24.46 C 60.53 19.94 58.28 15.59 55.14 11.93 C 52.24 8.56 48.31 6.35 44.40 4.37 C 43.94 4.31 43.02 4.19 42.56 4.14 C 40.07 2.71 36.98 3.17 34.26 2.37 C 29.95 3.63 24.98 3.41 21.33 6.34 Z" />
<path fill="#000000" opacity="0.85" d=" M 4.24 41.03 C 5.16 39.70 5.83 37.59 7.84 37.75 C 14.06 37.65 19.68 41.13 25.83 41.59 C 30.43 40.57 34.74 38.02 39.65 38.84 C 38.01 39.97 36.36 41.07 34.71 42.19 C 37.32 41.10 39.88 39.88 42.39 38.59 C 43.45 40.11 46.35 41.64 44.82 43.74 C 41.66 48.00 36.16 49.32 31.65 51.66 C 32.65 51.63 34.64 51.56 35.64 51.52 C 36.17 54.55 36.77 57.74 35.82 60.75 C 34.97 61.93 33.48 62.36 32.28 63.09 C 29.61 60.31 26.28 57.88 25.23 53.97 C 18.17 55.75 11.17 57.75 4.03 59.20 C 3.01 58.72 1.99 58.24 0.98 57.76 C 1.28 56.53 1.59 55.30 1.89 54.06 C 1.25 52.85 0.60 51.64 0.00 50.41 L 0.00 47.55 C 3.13 47.68 5.98 49.00 8.97 49.75 C 10.71 49.10 12.33 48.19 13.97 47.32 C 10.67 45.31 7.45 43.17 4.24 41.03 M 6.07 40.14 C 9.00 42.14 12.07 43.94 14.91 46.06 C 15.00 46.75 15.18 48.13 15.27 48.81 C 13.53 49.46 11.84 50.23 10.28 51.23 C 6.88 51.80 4.16 49.54 1.03 48.77 C 1.74 50.08 2.44 51.39 3.15 52.71 C 3.17 54.35 3.21 56.02 3.83 57.56 C 11.81 56.14 19.59 53.82 27.35 51.54 C 32.07 50.20 36.17 47.43 40.66 45.54 C 41.75 44.45 42.81 43.34 43.85 42.21 C 41.73 40.10 39.20 42.04 37.25 43.27 C 35.39 43.33 33.44 43.34 33.34 40.97 C 31.26 41.58 29.18 42.21 27.23 43.16 C 26.37 43.15 24.66 43.14 23.80 43.13 C 22.54 42.45 21.14 42.17 19.74 41.94 C 17.34 41.24 14.89 40.73 12.53 39.90 C 10.49 38.82 8.03 38.94 6.07 40.14 M 27.18 55.51 C 29.21 57.36 31.14 59.31 33.11 61.23 C 35.76 59.28 34.57 55.83 34.75 53.06 C 32.10 53.42 29.63 54.48 27.18 55.51 Z" />
</g>
<g id="#ffffffff">
<path fill="#ffffff" opacity="1.00" d=" M 21.33 6.34 C 24.98 3.41 29.95 3.63 34.26 2.37 C 36.98 3.17 40.07 2.71 42.56 4.14 C 43.02 4.19 43.94 4.31 44.40 4.37 C 48.31 6.35 52.24 8.56 55.14 11.93 C 58.28 15.59 60.53 19.94 62.17 24.46 C 64.71 31.55 62.09 39.31 58.47 45.57 C 54.40 52.09 47.57 57.86 39.53 57.88 C 43.72 55.80 48.77 54.94 52.16 51.52 C 52.27 48.71 52.32 45.88 52.06 43.07 C 51.60 42.92 50.69 42.63 50.23 42.49 C 51.30 41.50 52.42 40.55 53.25 39.34 C 53.79 37.31 51.86 36.19 50.75 34.89 C 49.32 34.63 47.34 35.24 46.50 33.68 C 45.60 32.32 45.28 30.70 44.94 29.13 C 43.14 28.44 41.39 27.61 39.98 26.27 C 40.35 25.56 41.09 24.15 41.46 23.44 C 44.59 22.10 48.13 20.88 49.26 17.30 C 49.76 12.21 47.55 6.35 42.21 4.87 C 38.43 4.66 34.64 4.85 30.86 4.84 C 30.83 6.15 30.79 7.46 30.75 8.77 C 32.95 10.21 35.06 11.80 37.41 13.00 C 33.97 14.01 31.07 17.67 33.77 21.06 C 33.37 21.84 32.58 23.42 32.19 24.20 C 29.65 21.29 26.22 19.12 22.20 19.71 C 20.83 21.71 18.27 24.98 21.04 26.94 C 22.12 28.60 24.18 28.50 25.63 27.38 C 27.16 30.30 26.38 34.88 30.30 35.98 C 28.62 36.71 26.93 37.40 25.28 38.18 C 26.38 36.33 26.21 34.15 26.38 32.10 C 23.27 31.19 20.26 30.01 17.37 28.55 C 16.73 27.91 16.09 27.27 15.46 26.63 C 14.44 24.44 13.12 22.31 12.97 19.83 C 12.25 19.81 10.82 19.79 10.11 19.77 C 9.71 20.77 9.30 21.75 8.86 22.73 C 8.80 24.46 8.90 26.27 7.88 27.76 C 7.79 29.75 7.78 31.75 7.77 33.75 C 7.39 33.75 6.62 33.76 6.23 33.76 C 5.95 29.90 6.14 25.98 7.98 22.48 C 8.82 18.08 11.98 14.83 14.48 11.31 C 16.39 9.20 19.11 8.08 21.33 6.34 Z" />
<path fill="#ffffff" opacity="1.00" d=" M 6.07 40.14 C 8.03 38.94 10.49 38.82 12.53 39.90 C 14.89 40.73 17.34 41.24 19.74 41.94 C 21.14 42.17 22.54 42.45 23.80 43.13 C 24.66 43.14 26.37 43.15 27.23 43.16 C 29.18 42.21 31.26 41.58 33.34 40.97 C 33.44 43.34 35.39 43.33 37.25 43.27 C 39.20 42.04 41.73 40.10 43.85 42.21 C 42.81 43.34 41.75 44.45 40.66 45.54 C 36.17 47.43 32.07 50.20 27.35 51.54 C 19.59 53.82 11.81 56.14 3.83 57.56 C 3.21 56.02 3.17 54.35 3.15 52.71 C 2.44 51.39 1.74 50.08 1.03 48.77 C 4.16 49.54 6.88 51.80 10.28 51.23 C 11.84 50.23 13.53 49.46 15.27 48.81 C 15.18 48.13 15.00 46.75 14.91 46.06 C 12.07 43.94 9.00 42.14 6.07 40.14 Z" />
<path fill="#ffffff" opacity="1.00" d=" M 27.18 55.51 C 29.63 54.48 32.10 53.42 34.75 53.06 C 34.57 55.83 35.76 59.28 33.11 61.23 C 31.14 59.31 29.21 57.36 27.18 55.51 Z" />
</g>
</svg>
