<?xml version="1.0" encoding="UTF-8" ?>
<!DOCTYPE svg PUBLIC "-//W3C//DTD SVG 1.1//EN" "http://www.w3.org/Graphics/SVG/1.1/DTD/svg11.dtd">
<svg width="64pt" height="64pt" viewBox="0 0 64 64" version="1.1" xmlns="http://www.w3.org/2000/svg">
<g id="#010401fd">
<path fill="#010401" opacity="1.00" d=" M 26.60 17.91 C 27.06 16.68 27.00 15.12 27.97 14.15 C 30.64 13.75 33.34 13.99 36.01 14.11 C 36.27 15.31 36.52 16.50 36.77 17.70 C 38.51 18.78 40.47 19.69 41.69 21.40 C 43.52 23.71 43.33 26.84 43.68 29.60 C 42.78 29.47 41.00 29.20 40.11 29.06 C 42.65 31.68 45.23 35.14 44.07 39.03 C 43.48 42.80 40.03 44.88 36.88 46.36 C 36.69 47.62 36.49 48.88 36.28 50.13 C 33.40 50.06 30.51 49.96 27.63 49.71 C 27.53 48.60 27.43 47.49 27.34 46.39 C 25.11 45.15 22.77 43.85 21.30 41.69 C 19.83 39.62 19.86 36.95 19.46 34.54 C 21.15 34.28 22.84 34.09 24.53 33.92 C 21.36 31.79 19.56 27.82 20.91 24.08 C 21.57 21.11 24.31 19.53 26.60 17.91 M 29.35 16.26 C 29.30 17.30 29.25 18.33 29.20 19.37 C 26.06 20.65 23.66 23.13 22.36 26.25 C 23.11 28.16 23.55 30.49 25.58 31.52 C 29.07 33.56 33.28 33.87 36.85 35.78 C 36.87 36.65 36.90 38.40 36.92 39.27 C 34.47 40.24 31.66 41.15 29.11 40.01 C 27.92 39.03 27.36 37.55 26.55 36.29 C 24.89 36.32 23.23 36.35 21.57 36.40 C 22.48 40.55 25.67 43.58 29.78 44.52 C 29.72 45.30 29.58 46.86 29.52 47.63 C 31.16 47.65 32.80 47.66 34.44 47.68 C 34.43 46.90 34.40 45.34 34.39 44.57 C 36.22 43.79 38.05 43.00 39.87 42.19 C 40.28 41.54 41.11 40.23 41.53 39.58 C 42.04 37.14 41.47 34.73 40.52 32.48 C 36.97 30.09 32.56 29.89 28.78 28.06 C 26.24 26.84 28.51 22.94 30.93 23.50 C 33.68 22.98 35.60 25.00 36.95 27.07 C 38.47 27.01 40.00 26.95 41.53 26.88 C 40.68 23.16 37.90 20.46 34.24 19.50 C 34.29 18.70 34.41 17.11 34.46 16.31 C 32.76 16.29 31.05 16.27 29.35 16.26 M 30.67 25.97 C 30.54 27.31 32.84 27.77 33.57 26.83 C 33.73 25.46 31.41 25.04 30.67 25.97 M 28.42 35.49 C 29.87 38.38 32.67 38.56 35.49 37.74 C 33.23 36.71 30.85 36.01 28.42 35.49 Z" />
</g>
<g id="#9fcb68ff">
<path fill="#9fcb68" opacity="1.00" d=" M 29.35 16.26 C 31.05 16.27 32.76 16.29 34.46 16.31 C 34.41 17.11 34.29 18.70 34.24 19.50 C 37.90 20.46 40.68 23.16 41.53 26.88 C 40.00 26.95 38.47 27.01 36.95 27.07 C 35.60 25.00 33.68 22.98 30.93 23.50 C 28.51 22.94 26.24 26.84 28.78 28.06 C 32.56 29.89 36.97 30.09 40.52 32.48 C 41.47 34.73 42.04 37.14 41.53 39.58 C 39.99 39.47 38.45 39.37 36.92 39.27 C 36.90 38.40 36.87 36.65 36.85 35.78 C 33.28 33.87 29.07 33.56 25.58 31.52 C 23.55 30.49 23.11 28.16 22.36 26.25 C 23.66 23.13 26.06 20.65 29.20 19.37 C 29.25 18.33 29.30 17.30 29.35 16.26 Z" />
</g>
<g id="#71b754ff">
<path fill="#71b754" opacity="1.00" d=" M 21.57 36.40 C 23.23 36.35 24.89 36.32 26.55 36.29 C 27.36 37.55 27.92 39.03 29.11 40.01 C 31.66 41.15 34.47 40.24 36.92 39.27 C 38.45 39.37 39.99 39.47 41.53 39.58 C 41.11 40.23 40.28 41.54 39.87 42.19 C 38.05 43.00 36.22 43.79 34.39 44.57 C 34.40 45.34 34.43 46.90 34.44 47.68 C 32.80 47.66 31.16 47.65 29.52 47.63 C 29.58 46.86 29.72 45.30 29.78 44.52 C 25.67 43.58 22.48 40.55 21.57 36.40 Z" />
</g>
</svg>
