<?xml version="1.0" encoding="UTF-8" ?>
<!DOCTYPE svg PUBLIC "-//W3C//DTD SVG 1.1//EN" "http://www.w3.org/Graphics/SVG/1.1/DTD/svg11.dtd">
<svg width="64pt" height="64pt" viewBox="0 0 64 64" version="1.1" xmlns="http://www.w3.org/2000/svg">
<g id="#000000ff">
<path fill="#000000" opacity="1.00" d=" M 25.68 3.60 C 33.41 3.33 41.15 3.62 48.88 3.44 C 49.02 8.36 49.04 13.29 48.93 18.22 C 43.97 18.17 39.02 18.19 34.06 18.22 C 34.03 26.69 33.88 35.17 34.13 43.64 C 37.69 44.19 40.93 45.96 43.03 48.93 C 44.08 54.39 38.70 57.61 34.04 58.22 C 28.71 58.86 22.41 58.63 18.40 54.57 C 16.78 53.14 17.20 50.84 16.96 48.92 C 19.03 45.97 22.30 44.40 25.69 43.50 C 25.66 30.20 25.70 16.90 25.68 3.60 M 27.73 5.37 C 27.69 22.06 27.73 38.75 27.71 55.44 C 29.16 55.27 32.32 56.69 32.04 54.13 C 32.08 41.45 31.75 28.76 32.06 16.08 C 37.04 16.32 42.04 16.44 47.03 16.34 C 47.08 12.66 47.08 8.98 46.99 5.30 C 41.97 5.33 36.96 5.30 31.94 5.32 C 30.54 5.34 29.13 5.35 27.73 5.37 Z" />
</g>
<g id="#fdfdfdff">
<path fill="#fdfdfd" opacity="1.00" d=" M 27.73 5.37 C 29.13 5.35 30.54 5.34 31.94 5.32 C 31.96 8.91 32.05 12.49 32.06 16.08 C 31.75 28.76 32.08 41.45 32.04 54.13 C 32.32 56.69 29.16 55.27 27.71 55.44 C 27.73 38.75 27.69 22.06 27.73 5.37 Z" />
</g>
<g id="#be3838ff">
<path fill="#be3838" opacity="1.00" d=" M 31.94 5.32 C 36.96 5.30 41.97 5.33 46.99 5.30 C 47.08 8.98 47.08 12.66 47.03 16.34 C 42.04 16.44 37.04 16.32 32.06 16.08 C 32.05 12.49 31.96 8.91 31.94 5.32 Z" />
</g>
</svg>
