<?xml version="1.0" encoding="UTF-8" ?>
<!DOCTYPE svg PUBLIC "-//W3C//DTD SVG 1.1//EN" "http://www.w3.org/Graphics/SVG/1.1/DTD/svg11.dtd">
<svg width="64pt" height="64pt" viewBox="0 0 64 64" version="1.1" xmlns="http://www.w3.org/2000/svg">
<g id="#030404eb">
<path fill="#030404" opacity="0.92" d=" M 27.63 4.58 C 29.95 1.63 34.81 2.02 36.87 5.06 C 40.58 10.02 38.62 16.47 39.07 22.16 C 44.70 24.50 50.29 26.96 55.97 29.19 C 57.39 29.79 59.27 30.50 59.44 32.28 C 59.77 35.72 59.46 39.18 59.43 42.63 C 52.27 41.98 45.39 39.73 38.35 38.42 C 38.14 42.07 37.97 45.72 37.80 49.37 C 39.87 50.34 43.20 50.96 43.05 53.90 C 42.89 56.19 44.08 60.26 41.04 60.99 C 38.00 60.91 35.06 59.97 32.02 59.86 C 28.72 59.90 25.52 60.96 22.21 60.92 C 20.15 59.33 21.08 56.21 20.95 53.96 C 20.71 50.98 24.18 50.36 26.23 49.30 C 26.11 45.66 25.94 42.03 25.70 38.39 C 19.40 39.60 13.23 41.46 6.90 42.47 C 3.78 42.85 4.59 38.92 4.39 36.99 C 4.55 34.60 3.71 30.94 6.62 29.91 C 12.77 27.18 19.01 24.69 25.19 22.03 C 25.23 16.23 23.54 9.46 27.63 4.58 M 29.35 6.35 C 25.38 11.32 28.08 17.94 27.44 23.68 C 20.48 26.50 13.62 29.54 6.66 32.34 C 6.68 34.96 6.71 37.58 6.71 40.20 C 13.75 38.58 20.82 37.15 27.83 35.43 C 27.91 36.50 28.09 38.65 28.17 39.72 C 28.32 43.49 28.48 47.25 28.60 51.02 C 26.82 51.69 25.06 52.39 23.29 53.07 C 23.30 54.92 23.32 56.77 23.32 58.62 C 29.07 57.05 34.94 57.41 40.71 58.64 C 40.75 56.82 40.81 54.99 40.86 53.16 C 39.14 52.46 37.42 51.78 35.70 51.08 C 35.64 47.28 35.68 43.48 36.01 39.69 C 36.03 38.63 36.07 36.50 36.10 35.44 C 43.15 37.09 50.24 38.59 57.30 40.24 C 57.29 37.64 57.33 35.03 57.35 32.42 C 50.33 29.46 43.26 26.56 36.30 23.44 C 36.55 17.82 38.35 11.21 34.64 6.34 C 33.53 4.33 30.50 4.41 29.35 6.35 Z" />
</g>
<g id="#88bfc2ff">
<path fill="#88bfc2" opacity="1.00" d=" M 29.35 6.35 C 30.50 4.41 33.53 4.33 34.64 6.34 C 38.35 11.21 36.55 17.82 36.30 23.44 C 36.16 24.16 35.88 25.61 35.74 26.33 C 33.48 26.43 31.22 26.52 28.97 26.64 C 28.46 25.65 27.95 24.67 27.44 23.68 C 28.08 17.94 25.38 11.32 29.35 6.35 Z" />
</g>
<g id="#7eaeb4ff">
<path fill="#7eaeb4" opacity="1.00" d=" M 6.66 32.34 C 13.62 29.54 20.48 26.50 27.44 23.68 C 27.95 24.67 28.46 25.65 28.97 26.64 C 31.22 26.52 33.48 26.43 35.74 26.33 C 35.88 25.61 36.16 24.16 36.30 23.44 C 43.26 26.56 50.33 29.46 57.35 32.42 C 57.33 35.03 57.29 37.64 57.30 40.24 C 50.24 38.59 43.15 37.09 36.10 35.44 C 36.07 36.50 36.03 38.63 36.01 39.69 C 33.41 40.05 30.77 40.07 28.17 39.72 C 28.09 38.65 27.91 36.50 27.83 35.43 C 20.82 37.15 13.75 38.58 6.71 40.20 C 6.71 37.58 6.68 34.96 6.66 32.34 Z" />
</g>
<g id="#6e99a6ff">
<path fill="#6e99a6" opacity="1.00" d=" M 28.17 39.72 C 30.77 40.07 33.41 40.05 36.01 39.69 C 35.68 43.48 35.64 47.28 35.70 51.08 C 37.42 51.78 39.14 52.46 40.86 53.16 C 40.81 54.99 40.75 56.82 40.71 58.64 C 34.94 57.41 29.07 57.05 23.32 58.62 C 23.32 56.77 23.30 54.92 23.29 53.07 C 25.06 52.39 26.82 51.69 28.60 51.02 C 28.48 47.25 28.32 43.49 28.17 39.72 Z" />
</g>
</svg>
