<?xml version="1.0" encoding="UTF-8" ?>
<!DOCTYPE svg PUBLIC "-//W3C//DTD SVG 1.1//EN" "http://www.w3.org/Graphics/SVG/1.1/DTD/svg11.dtd">
<svg width="64pt" height="64pt" viewBox="0 0 64 64" version="1.1" xmlns="http://www.w3.org/2000/svg">
<g id="#060806f3">
<path fill="#060806" opacity="0.95" d=" M 29.01 5.16 C 31.24 3.38 34.51 3.57 36.69 5.32 C 43.21 10.18 50.03 14.62 56.57 19.45 C 59.77 21.54 59.50 25.64 59.23 28.98 C 59.13 31.72 56.57 34.00 53.88 34.05 C 53.60 41.04 53.85 48.04 53.73 55.04 C 53.83 57.99 50.87 60.28 48.03 60.03 C 37.66 60.07 27.27 60.09 16.90 60.02 C 14.45 60.17 12.55 58.18 11.77 56.04 C 11.51 48.75 11.85 41.44 11.59 34.14 C 8.74 34.30 5.65 32.93 4.89 29.95 C 4.61 26.65 3.91 22.41 7.04 20.20 C 14.37 15.19 21.70 10.18 29.01 5.16 M 26.09 10.01 C 20.39 14.04 14.59 17.91 8.83 21.85 C 6.23 23.75 6.88 27.42 7.53 30.11 C 8.89 32.32 11.85 31.45 13.99 31.87 C 13.96 39.26 14.03 46.66 14.07 54.05 C 14.04 55.74 15.08 57.96 17.08 57.64 C 27.38 57.65 37.68 57.64 47.98 57.64 C 49.89 57.77 51.76 56.02 51.50 54.06 C 51.46 46.67 51.54 39.28 51.51 31.90 C 52.73 31.72 53.95 31.57 55.17 31.38 C 55.53 31.07 56.24 30.45 56.60 30.14 C 56.72 27.53 57.86 24.28 55.95 22.10 C 49.88 17.27 43.23 13.23 37.10 8.48 C 35.80 7.63 34.62 6.43 33.02 6.22 C 30.28 6.58 28.37 8.69 26.09 10.01 Z" />
</g>
<g id="#ebebebff">
<path fill="#ebebeb" opacity="1.00" d=" M 26.09 10.01 C 28.37 8.69 30.28 6.58 33.02 6.22 C 34.62 6.43 35.80 7.63 37.10 8.48 C 43.23 13.23 49.88 17.27 55.95 22.10 C 57.86 24.28 56.72 27.53 56.60 30.14 C 56.24 30.45 55.53 31.07 55.17 31.38 C 53.95 31.57 52.73 31.72 51.51 31.90 C 45.73 32.97 39.84 32.46 34.00 32.55 C 27.33 32.45 20.61 33.02 13.99 31.87 C 11.85 31.45 8.89 32.32 7.53 30.11 C 6.88 27.42 6.23 23.75 8.83 21.85 C 14.59 17.91 20.39 14.04 26.09 10.01 Z" />
</g>
<g id="#cfcfcfff">
<path fill="#cfcfcf" opacity="1.00" d=" M 13.99 31.87 C 20.61 33.02 27.33 32.45 34.00 32.55 C 39.84 32.46 45.73 32.97 51.51 31.90 C 51.54 39.28 51.46 46.67 51.50 54.06 C 51.76 56.02 49.89 57.77 47.98 57.64 C 37.68 57.64 27.38 57.65 17.08 57.64 C 15.08 57.96 14.04 55.74 14.07 54.05 C 14.03 46.66 13.96 39.26 13.99 31.87 Z" />
</g>
</svg>
