<?xml version="1.0" encoding="UTF-8" ?>
<!DOCTYPE svg PUBLIC "-//W3C//DTD SVG 1.1//EN" "http://www.w3.org/Graphics/SVG/1.1/DTD/svg11.dtd">
<svg width="64pt" height="64pt" viewBox="0 0 64 64" version="1.1" xmlns="http://www.w3.org/2000/svg">
<g id="#020302f2">
<path fill="#020302" opacity="0.95" d=" M 33.31 6.28 C 34.01 4.70 35.43 3.77 36.89 2.99 C 37.86 4.17 38.79 5.46 38.89 7.05 C 39.73 12.57 40.71 18.08 41.49 23.61 C 47.24 23.95 53.01 23.38 58.74 23.88 C 59.28 24.34 60.37 25.25 60.91 25.70 C 60.06 27.20 58.95 28.53 57.43 29.38 C 52.90 32.21 48.83 35.71 44.19 38.37 C 44.26 44.69 45.91 50.85 46.52 57.12 C 46.91 58.78 46.10 61.17 43.95 60.54 C 38.42 56.91 33.36 52.58 28.11 48.55 C 22.19 52.16 16.15 55.57 10.26 59.23 C 8.96 60.19 7.36 60.33 5.79 60.21 C 5.86 58.61 5.61 56.90 6.41 55.43 C 9.04 49.70 11.86 44.06 14.32 38.26 C 10.86 34.51 6.97 31.10 3.96 26.98 C 3.80 26.39 3.46 25.22 3.29 24.64 C 4.48 24.12 5.66 23.38 7.01 23.47 C 12.43 23.29 17.84 23.69 23.25 23.64 C 26.43 17.75 30.15 12.18 33.31 6.28 M 24.22 26.10 C 18.06 25.98 11.92 25.42 5.76 25.75 C 8.67 29.14 12.21 31.96 14.90 35.54 C 15.84 36.39 17.38 37.20 16.70 38.74 C 14.14 45.18 10.75 51.27 7.98 57.63 C 14.95 53.87 21.45 49.23 28.61 45.88 C 33.73 50.01 38.95 54.02 44.29 57.83 C 43.52 50.91 41.81 44.07 41.64 37.09 C 47.27 33.88 52.34 29.78 57.84 26.34 C 51.76 25.67 45.63 26.25 39.54 25.95 C 38.38 19.24 37.34 12.51 36.30 5.78 C 32.53 12.69 28.57 19.54 24.22 26.10 Z" />
</g>
<g id="#ffffffff">
<path fill="#ffffff" opacity="1.00" d=" M 24.22 26.10 C 28.57 19.54 32.53 12.69 36.30 5.78 C 37.34 12.51 38.38 19.24 39.54 25.95 C 45.63 26.25 51.76 25.67 57.84 26.34 C 52.34 29.78 47.27 33.88 41.64 37.09 C 41.81 44.07 43.52 50.91 44.29 57.83 C 38.95 54.02 33.73 50.01 28.61 45.88 C 21.45 49.23 14.95 53.87 7.98 57.63 C 10.75 51.27 14.14 45.18 16.70 38.74 C 17.38 37.20 15.84 36.39 14.90 35.54 C 12.21 31.96 8.67 29.14 5.76 25.75 C 11.92 25.42 18.06 25.98 24.22 26.10 Z" />
</g>
</svg>
