<?xml version="1.0" encoding="UTF-8" ?>
<!DOCTYPE svg PUBLIC "-//W3C//DTD SVG 1.1//EN" "http://www.w3.org/Graphics/SVG/1.1/DTD/svg11.dtd">
<svg width="64pt" height="64pt" viewBox="0 0 64 64" version="1.1" xmlns="http://www.w3.org/2000/svg">
<g id="#010201ff">
<path fill="#010201" opacity="1.00" d=" M 8.04 20.22 C 15.43 15.21 22.62 9.89 30.18 5.15 C 32.08 4.01 34.65 4.41 36.35 5.75 C 39.42 7.91 42.38 10.22 45.50 12.31 C 45.56 12.34 45.66 12.41 45.71 12.44 C 46.10 12.67 46.89 13.12 47.28 13.35 L 47.41 13.60 C 47.69 14.10 48.24 15.10 48.51 15.60 C 50.24 16.61 52.07 17.42 53.87 18.29 C 54.33 18.56 55.26 19.11 55.72 19.39 C 55.75 19.41 55.80 19.45 55.83 19.47 C 59.28 21.70 59.24 26.36 58.55 29.94 C 58.02 32.47 55.43 33.58 53.23 34.31 C 53.32 40.91 53.32 47.51 53.28 54.10 C 53.31 57.33 50.13 59.82 47.02 59.50 C 37.08 59.50 27.14 59.55 17.20 59.48 C 14.21 59.69 11.13 57.24 11.30 54.12 C 11.17 47.53 11.34 40.94 11.23 34.36 C 8.88 33.69 6.01 32.62 5.45 29.93 C 4.85 26.59 4.68 22.19 8.04 20.22 M 29.91 8.03 C 23.01 12.75 16.18 17.59 9.22 22.22 C 6.75 23.52 7.58 26.79 7.65 29.05 C 7.99 31.96 11.50 31.68 13.63 31.77 C 13.65 39.51 13.62 47.25 13.65 54.99 C 14.24 56.76 16.22 57.47 17.94 57.32 C 25.31 57.31 32.68 57.29 40.04 57.30 C 43.31 57.31 46.62 57.55 49.81 56.68 C 52.16 52.85 50.66 48.16 51.06 43.92 C 51.06 39.89 51.07 35.85 51.06 31.82 C 52.86 31.56 55.12 31.75 56.17 29.92 C 56.45 27.49 57.15 24.55 55.56 22.44 C 49.09 17.55 42.37 13.02 35.83 8.22 C 34.18 6.80 31.63 6.63 29.91 8.03 Z" />
<path fill="#010201" opacity="1.00" d=" M 28.87 20.67 C 30.61 20.56 32.35 20.44 34.09 20.32 C 34.17 21.19 34.32 22.92 34.40 23.79 C 38.21 24.68 41.44 27.62 41.08 31.82 C 39.41 31.58 37.73 31.47 36.05 31.36 C 35.72 30.54 35.40 29.73 35.07 28.91 C 34.05 28.53 33.04 28.15 32.02 27.77 C 30.92 28.09 29.82 28.41 28.71 28.73 C 28.52 29.36 28.13 30.61 27.93 31.24 C 31.16 33.50 35.24 33.59 38.73 35.22 C 40.47 35.99 41.03 37.93 41.85 39.48 C 42.50 44.10 38.75 47.42 34.63 48.45 C 34.67 49.20 34.75 50.68 34.78 51.43 C 33.00 51.48 31.22 51.54 29.44 51.59 C 29.42 50.75 29.38 49.05 29.36 48.21 C 26.65 47.43 24.16 45.98 22.60 43.58 C 22.44 42.28 22.34 40.98 22.24 39.68 C 23.83 39.70 25.43 39.72 27.02 39.75 C 27.70 43.59 32.30 45.22 35.48 43.23 C 37.00 42.71 36.91 40.27 35.54 39.68 C 32.07 37.45 27.24 37.94 24.33 34.70 C 22.29 32.85 23.22 29.84 23.38 27.47 C 25.06 26.07 26.87 24.83 28.87 23.93 C 28.87 23.11 28.87 21.48 28.87 20.67 Z" />
</g>
<g id="#f0f0f0ff">
<path fill="#f0f0f0" opacity="1.00" d=" M 29.91 8.03 C 31.63 6.63 34.18 6.80 35.83 8.22 C 42.37 13.02 49.09 17.55 55.56 22.44 C 57.15 24.55 56.45 27.49 56.17 29.92 C 55.12 31.75 52.86 31.56 51.06 31.82 C 47.74 32.26 44.37 32.57 41.08 31.82 C 41.44 27.62 38.21 24.68 34.40 23.79 C 34.32 22.92 34.17 21.19 34.09 20.32 C 32.35 20.44 30.61 20.56 28.87 20.67 C 28.87 21.48 28.87 23.11 28.87 23.93 C 26.87 24.83 25.06 26.07 23.38 27.47 C 21.66 28.43 20.09 29.63 18.94 31.25 C 17.39 31.66 15.84 32.04 14.29 32.42 C 13.95 36.36 13.91 40.32 14.00 44.27 C 14.03 47.85 13.72 51.42 13.65 54.99 C 13.62 47.25 13.65 39.51 13.63 31.77 C 11.50 31.68 7.99 31.96 7.65 29.05 C 7.58 26.79 6.75 23.52 9.22 22.22 C 16.18 17.59 23.01 12.75 29.91 8.03 Z" />
</g>
<g id="#363836f6">
<path fill="#363836" opacity="0.96" d=" M 45.50 12.31 C 45.56 12.34 45.66 12.41 45.71 12.44 C 45.66 12.41 45.56 12.34 45.50 12.31 Z" />
<path fill="#363836" opacity="0.96" d=" M 47.41 13.60 C 49.76 14.88 51.91 16.47 53.87 18.29 C 52.07 17.42 50.24 16.61 48.51 15.60 C 48.24 15.10 47.69 14.10 47.41 13.60 Z" />
<path fill="#363836" opacity="0.96" d=" M 55.72 19.39 C 55.75 19.41 55.80 19.45 55.83 19.47 C 55.80 19.45 55.75 19.41 55.72 19.39 Z" />
</g>
<g id="#d8d9d8ff">
<path fill="#d8d9d8" opacity="1.00" d=" M 18.94 31.25 C 20.09 29.63 21.66 28.43 23.38 27.47 C 23.22 29.84 22.29 32.85 24.33 34.70 C 27.24 37.94 32.07 37.45 35.54 39.68 C 36.91 40.27 37.00 42.71 35.48 43.23 C 32.30 45.22 27.70 43.59 27.02 39.75 C 25.43 39.72 23.83 39.70 22.24 39.68 C 22.34 40.98 22.44 42.28 22.60 43.58 C 19.73 43.83 16.87 44.07 14.00 44.27 C 13.91 40.32 13.95 36.36 14.29 32.42 C 15.84 32.04 17.39 31.66 18.94 31.25 Z" />
<path fill="#d8d9d8" opacity="1.00" d=" M 28.71 28.73 C 29.82 28.41 30.92 28.09 32.02 27.77 C 33.04 28.15 34.05 28.53 35.07 28.91 C 35.40 29.73 35.72 30.54 36.05 31.36 C 37.73 31.47 39.41 31.58 41.08 31.82 C 44.37 32.57 47.74 32.26 51.06 31.82 C 51.07 35.85 51.06 39.89 51.06 43.92 C 49.12 43.87 47.19 43.83 45.25 43.80 C 44.06 42.40 42.88 40.99 41.85 39.48 C 41.03 37.93 40.47 35.99 38.73 35.22 C 35.24 33.59 31.16 33.50 27.93 31.24 C 28.13 30.61 28.52 29.36 28.71 28.73 Z" />
</g>
<g id="#c9cac9ff">
<path fill="#c9cac9" opacity="1.00" d=" M 41.85 39.48 C 42.88 40.99 44.06 42.40 45.25 43.80 C 47.19 43.83 49.12 43.87 51.06 43.92 C 50.66 48.16 52.16 52.85 49.81 56.68 C 46.62 57.55 43.31 57.31 40.04 57.30 C 32.68 57.29 25.31 57.31 17.94 57.32 C 16.22 57.47 14.24 56.76 13.65 54.99 C 13.72 51.42 14.03 47.85 14.00 44.27 C 16.87 44.07 19.73 43.83 22.60 43.58 C 24.16 45.98 26.65 47.43 29.36 48.21 C 29.38 49.05 29.42 50.75 29.44 51.59 C 31.22 51.54 33.00 51.48 34.78 51.43 C 34.75 50.68 34.67 49.20 34.63 48.45 C 38.75 47.42 42.50 44.10 41.85 39.48 Z" />
</g>
</svg>
