<?xml version="1.0" encoding="UTF-8" ?>
<!DOCTYPE svg PUBLIC "-//W3C//DTD SVG 1.1//EN" "http://www.w3.org/Graphics/SVG/1.1/DTD/svg11.dtd">
<svg width="64pt" height="64pt" viewBox="0 0 64 64" version="1.1" xmlns="http://www.w3.org/2000/svg">
<g id="#040504fc">
<path fill="#040504" opacity="1.00" d=" M 5.02 8.04 C 5.79 3.36 13.26 7.46 16.00 5.98 C 19.46 3.82 21.08 6.39 22.67 8.30 C 25.09 13.74 26.45 19.58 28.85 25.04 C 30.66 27.54 29.32 32.73 32.81 33.97 C 37.13 25.12 36.83 13.89 43.22 6.15 L 48.00 5.98 C 50.75 7.46 58.20 3.35 58.99 8.04 C 59.02 24.68 59.00 41.32 58.99 57.97 C 55.52 56.89 47.76 60.08 46.00 57.01 C 46.01 52.96 46.02 48.91 46.05 44.86 C 46.45 42.78 46.45 36.96 44.32 39.75 C 42.07 45.76 40.53 52.05 37.73 57.85 C 33.55 57.98 29.35 58.22 25.18 57.92 C 24.84 52.23 21.87 47.17 20.33 41.75 C 20.18 40.41 19.42 39.79 18.05 39.89 C 17.93 45.59 17.98 51.29 17.99 56.99 L 17.97 57.97 C 13.65 57.99 9.32 58.18 5.01 57.94 C 5.02 41.31 4.96 24.68 5.02 8.04 M 6.07 8.04 C 5.89 24.02 6.01 40.00 6.04 55.98 C 8.53 55.98 13.53 55.99 16.02 56.00 L 15.94 55.03 C 16.13 45.27 16.11 35.49 15.74 25.74 C 15.85 25.30 16.06 24.43 16.17 24.00 C 18.62 25.44 17.81 30.57 19.74 31.63 C 20.98 39.71 25.62 46.87 27.23 54.92 L 28.09 54.98 L 27.99 55.94 C 30.33 55.53 35.33 57.23 35.91 54.98 L 36.77 54.91 C 38.32 46.86 43.18 39.71 44.23 31.62 C 46.14 30.32 45.52 25.72 47.80 23.85 C 47.91 25.16 48.05 26.47 48.23 27.78 C 47.86 36.86 47.94 45.95 48.04 55.03 C 50.52 55.27 55.47 55.74 57.95 55.98 C 58.04 40.38 58.09 24.77 57.90 9.17 C 57.43 8.87 56.47 8.28 55.99 7.98 C 51.64 7.87 47.28 8.01 42.93 8.09 L 43.20 9.05 C 41.35 13.67 40.23 18.55 39.47 23.46 C 37.30 25.69 36.79 29.07 36.06 32.00 C 33.84 34.56 34.92 40.57 31.20 40.97 C 30.58 38.07 30.48 33.64 27.97 32.07 C 26.36 24.18 23.34 16.67 20.76 9.07 L 21.05 8.08 C 16.69 7.85 12.32 7.95 7.96 7.95 C 7.49 7.98 6.54 8.02 6.07 8.04 Z" />
</g>
<g id="#010101be">
<path fill="#010101" opacity="0.75" d=" M 4.04 7.99 L 5.02 8.04 C 4.96 24.68 5.02 41.31 5.01 57.94 L 4.03 58.02 C 3.97 41.34 3.96 24.67 4.04 7.99 Z" />
<path fill="#010101" opacity="0.75" d=" M 58.99 8.04 L 59.96 7.99 C 60.04 24.66 60.03 41.34 59.97 58.01 L 58.99 57.97 C 59.00 41.32 59.02 24.68 58.99 8.04 Z" />
</g>
<g id="#898889ff">
<path fill="#898889" opacity="1.00" d=" M 6.07 8.04 C 6.54 8.02 7.49 7.98 7.96 7.95 L 7.71 8.81 C 7.37 9.75 7.22 10.71 7.25 11.71 C 6.91 21.05 6.80 30.41 7.27 39.74 C 7.81 44.44 5.59 49.81 7.76 54.22 C 9.05 56.94 13.47 54.36 15.94 55.03 L 16.02 56.00 C 13.53 55.99 8.53 55.98 6.04 55.98 C 6.01 40.00 5.89 24.02 6.07 8.04 Z" />
<path fill="#898889" opacity="1.00" d=" M 55.99 7.98 C 56.47 8.28 57.43 8.87 57.90 9.17 C 58.09 24.77 58.04 40.38 57.95 55.98 C 55.47 55.74 50.52 55.27 48.04 55.03 C 50.62 54.58 54.45 56.15 56.21 54.21 C 57.71 48.60 56.75 42.57 56.78 36.79 C 56.90 28.46 57.45 20.09 56.72 11.78 C 56.61 10.81 56.44 9.85 56.19 8.91 L 55.99 7.98 Z" />
<path fill="#898889" opacity="1.00" d=" M 28.09 54.98 C 30.70 54.99 33.30 54.99 35.91 54.98 C 35.33 57.23 30.33 55.53 27.99 55.94 L 28.09 54.98 Z" />
</g>
<g id="#b5b5b5ff">
<path fill="#b5b5b5" opacity="1.00" d=" M 7.96 7.95 C 12.32 7.95 16.69 7.85 21.05 8.08 L 20.76 9.07 C 16.41 8.99 12.06 8.97 7.71 8.81 L 7.96 7.95 Z" />
<path fill="#b5b5b5" opacity="1.00" d=" M 42.93 8.09 C 47.28 8.01 51.64 7.87 55.99 7.98 L 56.19 8.91 C 51.86 8.97 47.53 8.99 43.20 9.05 L 42.93 8.09 Z" />
<path fill="#b5b5b5" opacity="1.00" d=" M 56.21 54.21 C 56.03 48.40 55.77 42.55 56.78 36.79 C 56.75 42.57 57.71 48.60 56.21 54.21 Z" />
<path fill="#b5b5b5" opacity="1.00" d=" M 7.27 39.74 C 8.87 44.39 7.54 49.43 7.76 54.22 C 5.59 49.81 7.81 44.44 7.27 39.74 Z" />
</g>
<g id="#f1f1f1ff">
<path fill="#f1f1f1" opacity="1.00" d=" M 7.25 11.71 C 7.22 10.71 7.37 9.75 7.71 8.81 C 12.06 8.97 16.41 8.99 20.76 9.07 C 23.34 16.67 26.36 24.18 27.97 32.07 C 25.23 31.93 22.44 30.56 19.74 31.63 C 17.81 30.57 18.62 25.44 16.17 24.00 C 16.06 24.43 15.85 25.30 15.74 25.74 C 15.58 27.98 14.95 30.04 13.86 31.91 C 11.93 31.62 10.03 31.15 8.13 30.72 C 7.47 24.43 9.05 17.86 7.25 11.71 Z" />
<path fill="#f1f1f1" opacity="1.00" d=" M 43.20 9.05 C 47.53 8.99 51.86 8.97 56.19 8.91 C 56.44 9.85 56.61 10.81 56.72 11.78 C 55.74 18.07 56.34 24.45 55.84 30.76 C 53.95 31.17 52.06 31.62 50.15 31.89 C 49.32 30.61 48.81 29.17 48.23 27.78 C 48.05 26.47 47.91 25.16 47.80 23.85 C 45.52 25.72 46.14 30.32 44.23 31.62 C 41.52 31.13 38.77 31.84 36.06 32.00 C 36.79 29.07 37.30 25.69 39.47 23.46 C 40.23 18.55 41.35 13.67 43.20 9.05 Z" />
</g>
<g id="#d2d2d2ff">
<path fill="#d2d2d2" opacity="1.00" d=" M 7.25 11.71 C 9.05 17.86 7.47 24.43 8.13 30.72 C 10.03 31.15 11.93 31.62 13.86 31.91 C 14.95 30.04 15.58 27.98 15.74 25.74 C 16.11 35.49 16.13 45.27 15.94 55.03 C 13.47 54.36 9.05 56.94 7.76 54.22 C 7.54 49.43 8.87 44.39 7.27 39.74 C 6.80 30.41 6.91 21.05 7.25 11.71 Z" />
<path fill="#d2d2d2" opacity="1.00" d=" M 55.84 30.76 C 56.34 24.45 55.74 18.07 56.72 11.78 C 57.45 20.09 56.90 28.46 56.78 36.79 C 55.77 42.55 56.03 48.40 56.21 54.21 C 54.45 56.15 50.62 54.58 48.04 55.03 C 47.94 45.95 47.86 36.86 48.23 27.78 C 48.81 29.17 49.32 30.61 50.15 31.89 C 52.06 31.62 53.95 31.17 55.84 30.76 Z" />
<path fill="#d2d2d2" opacity="1.00" d=" M 19.74 31.63 C 22.44 30.56 25.23 31.93 27.97 32.07 C 30.48 33.64 30.58 38.07 31.20 40.97 C 34.92 40.57 33.84 34.56 36.06 32.00 C 38.77 31.84 41.52 31.13 44.23 31.62 C 43.18 39.71 38.32 46.86 36.77 54.91 L 35.91 54.98 C 33.30 54.99 30.70 54.99 28.09 54.98 L 27.23 54.92 C 25.62 46.87 20.98 39.71 19.74 31.63 Z" />
</g>
<g id="#00000033">
<path fill="#000000" opacity="0.20" d=" M 44.32 39.75 C 46.45 36.96 46.45 42.78 46.05 44.86 L 45.44 44.94 C 44.33 43.43 45.17 41.38 44.32 39.75 Z" />
</g>
<g id="#0101015e">
<path fill="#010101" opacity="0.37" d=" M 18.05 39.89 C 19.42 39.79 20.18 40.41 20.33 41.75 C 18.47 46.60 19.25 51.90 18.94 56.98 L 17.99 56.99 C 17.98 51.29 17.93 45.59 18.05 39.89 Z" />
<path fill="#010101" opacity="0.37" d=" M 45.44 44.94 L 46.05 44.86 C 46.02 48.91 46.01 52.96 46.00 57.01 C 43.47 54.42 43.72 48.61 45.44 44.94 Z" />
</g>
</svg>
