<?xml version="1.0" encoding="UTF-8" ?>
<!DOCTYPE svg PUBLIC "-//W3C//DTD SVG 1.1//EN" "http://www.w3.org/Graphics/SVG/1.1/DTD/svg11.dtd">
<svg width="64pt" height="64pt" viewBox="0 0 64 64" version="1.1" xmlns="http://www.w3.org/2000/svg">
<g id="#020303fe">
<path fill="#020303" opacity="1.00" d=" M 15.76 2.96 C 17.75 2.17 19.82 1.41 22.00 1.59 C 32.52 1.91 43.05 1.82 53.57 1.72 C 54.08 6.10 54.41 10.56 53.82 14.95 C 52.88 18.44 49.63 15.21 47.94 14.10 C 43.66 14.03 39.37 14.06 35.09 13.93 C 35.09 15.22 35.08 16.50 35.07 17.78 C 37.35 17.72 39.65 17.85 41.91 17.48 C 43.63 16.80 44.84 15.25 46.35 14.21 C 47.07 15.35 48.03 16.47 47.94 17.92 C 48.19 22.94 48.36 28.03 47.32 32.98 C 43.85 30.15 39.43 29.57 35.09 29.91 C 35.09 31.19 35.08 32.47 35.07 33.75 C 41.22 33.27 47.63 34.68 53.48 32.14 C 54.32 36.60 54.13 41.14 53.83 45.64 C 47.60 46.30 41.34 46.05 35.10 45.98 C 35.14 49.17 34.67 52.46 35.44 55.60 C 37.92 57.48 42.17 58.16 41.70 62.17 C 33.34 62.31 24.98 62.28 16.61 62.26 C 16.52 61.10 16.44 59.94 16.33 58.79 C 18.42 57.80 20.71 57.09 22.47 55.54 C 23.08 47.06 22.46 38.53 22.77 30.03 C 18.73 29.58 14.68 30.02 11.55 32.85 C 9.15 29.72 10.08 25.64 9.90 21.99 C 10.01 19.33 9.40 16.22 11.63 14.23 C 13.06 15.37 14.49 16.52 15.91 17.69 C 18.21 17.72 20.52 17.77 22.82 17.81 C 22.84 14.86 22.78 11.92 22.66 8.98 C 20.07 7.34 17.43 5.61 15.76 2.96 M 20.02 3.91 C 21.80 5.13 23.55 6.43 24.99 8.06 C 25.26 12.03 25.30 16.01 24.90 19.98 C 20.69 19.55 15.77 21.14 12.25 18.07 C 12.41 21.67 12.25 25.28 12.28 28.88 C 16.29 27.17 20.69 27.75 24.93 27.72 C 24.94 28.94 24.95 30.17 24.96 31.39 C 24.86 39.26 25.05 47.13 24.90 54.99 C 24.82 57.74 21.90 58.94 19.87 60.14 C 25.83 60.05 31.79 60.01 37.75 60.15 C 35.96 58.94 34.30 57.54 32.71 56.08 C 32.74 51.96 32.69 47.84 32.70 43.72 C 39.04 43.71 45.39 43.69 51.73 43.73 C 51.70 40.99 51.70 38.25 51.73 35.51 C 45.47 36.22 39.14 35.98 32.86 35.79 C 32.68 33.10 32.68 30.41 32.67 27.72 C 37.03 28.07 41.94 26.56 45.78 29.24 C 45.62 25.52 45.62 21.80 45.72 18.09 C 41.96 20.91 37.08 19.83 32.72 20.06 C 32.72 17.28 32.72 14.49 32.72 11.71 C 39.04 12.13 45.64 10.64 51.72 12.89 C 51.71 9.91 51.71 6.92 51.72 3.94 C 41.15 3.91 30.58 3.97 20.02 3.91 Z" />
</g>
<g id="#bbcee3ff">
<path fill="#bbcee3" opacity="1.00" d=" M 20.02 3.91 C 30.58 3.97 41.15 3.91 51.72 3.94 C 51.71 6.92 51.71 9.91 51.72 12.89 C 45.64 10.64 39.04 12.13 32.72 11.71 C 32.72 14.49 32.72 17.28 32.72 20.06 C 37.08 19.83 41.96 20.91 45.72 18.09 C 45.62 21.80 45.62 25.52 45.78 29.24 C 41.94 26.56 37.03 28.07 32.67 27.72 C 32.68 30.41 32.68 33.10 32.86 35.79 C 30.69 33.60 27.82 32.39 24.96 31.39 C 24.95 30.17 24.94 28.94 24.93 27.72 C 20.69 27.75 16.29 27.17 12.28 28.88 C 12.25 25.28 12.41 21.67 12.25 18.07 C 15.77 21.14 20.69 19.55 24.90 19.98 C 25.30 16.01 25.26 12.03 24.99 8.06 C 23.55 6.43 21.80 5.13 20.02 3.91 Z" />
</g>
<g id="#d8b1d1ff">
<path fill="#d8b1d1" opacity="1.00" d=" M 24.96 31.39 C 27.82 32.39 30.69 33.60 32.86 35.79 C 39.14 35.98 45.47 36.22 51.73 35.51 C 51.70 38.25 51.70 40.99 51.73 43.73 C 45.39 43.69 39.04 43.71 32.70 43.72 C 32.69 47.84 32.74 51.96 32.71 56.08 C 34.30 57.54 35.96 58.94 37.75 60.15 C 31.79 60.01 25.83 60.05 19.87 60.14 C 21.90 58.94 24.82 57.74 24.90 54.99 C 25.05 47.13 24.86 39.26 24.96 31.39 Z" />
</g>
</svg>
