<?xml version="1.0" encoding="UTF-8" ?>
<!DOCTYPE svg PUBLIC "-//W3C//DTD SVG 1.1//EN" "http://www.w3.org/Graphics/SVG/1.1/DTD/svg11.dtd">
<svg width="64pt" height="64pt" viewBox="0 0 64 64" version="1.1" xmlns="http://www.w3.org/2000/svg">
<g id="#282427fc">
<path fill="#282427" opacity="1.00" d=" M 29.60 4.52 C 30.20 4.31 31.41 3.88 32.01 3.67 C 32.61 3.89 33.82 4.32 34.43 4.54 C 38.15 11.73 39.23 19.90 39.14 27.90 C 43.05 23.25 47.46 18.87 52.72 15.77 C 54.57 14.54 58.03 15.61 57.66 18.19 C 57.25 25.25 52.46 30.99 48.47 36.47 C 51.96 36.49 57.21 33.88 59.38 37.84 C 59.54 43.54 52.67 45.12 48.49 47.05 C 49.42 48.95 50.51 51.76 48.08 53.07 C 44.21 54.39 40.06 53.38 36.20 52.54 C 35.86 54.88 35.50 57.22 34.76 59.47 C 34.07 59.64 32.68 60.00 31.99 60.18 C 31.29 60.00 29.90 59.63 29.21 59.45 C 28.50 57.20 28.13 54.86 27.77 52.54 C 23.92 53.39 19.78 54.38 15.92 53.06 C 13.47 51.77 14.60 48.95 15.51 47.05 C 12.02 45.60 8.19 44.35 5.60 41.46 C 3.92 39.71 4.27 36.43 6.84 35.80 C 9.75 35.52 12.65 36.13 15.53 36.47 C 11.53 30.97 6.73 25.23 6.34 18.16 C 5.99 15.60 9.44 14.55 11.28 15.77 C 16.54 18.86 20.94 23.26 24.85 27.90 C 24.77 19.89 25.84 11.70 29.60 4.52 M 28.04 36.64 C 23.34 28.69 16.88 21.48 8.63 17.15 C 9.41 27.21 17.20 34.83 23.84 41.71 C 18.44 39.31 12.55 37.87 6.60 38.10 C 9.70 44.00 17.23 44.96 22.97 46.83 C 20.32 47.36 17.80 48.44 15.91 50.44 C 20.63 52.62 25.73 50.69 30.30 49.10 C 30.22 52.40 30.11 55.86 32.00 58.75 C 33.88 55.85 33.79 52.39 33.70 49.09 C 38.27 50.69 43.35 52.63 48.09 50.44 C 46.19 48.45 43.68 47.36 41.03 46.83 C 46.75 44.94 54.34 44.01 57.38 38.10 C 51.44 37.88 45.54 39.30 40.14 41.74 C 46.79 34.84 54.57 27.23 55.38 17.16 C 47.10 21.46 40.67 28.69 35.96 36.64 C 37.18 26.18 37.60 14.80 32.00 5.43 C 26.41 14.80 26.79 26.18 28.04 36.64 Z" />
</g>
<g id="#fefefeff">
<path fill="#fefefe" opacity="1.00" d=" M 28.04 36.64 C 26.79 26.18 26.41 14.80 32.00 5.43 C 37.60 14.80 37.18 26.18 35.96 36.64 C 40.67 28.69 47.10 21.46 55.38 17.16 C 54.57 27.23 46.79 34.84 40.14 41.74 C 45.54 39.30 51.44 37.88 57.38 38.10 C 54.34 44.01 46.75 44.94 41.03 46.83 C 43.68 47.36 46.19 48.45 48.09 50.44 C 43.35 52.63 38.27 50.69 33.70 49.09 C 33.79 52.39 33.88 55.85 32.00 58.75 C 30.11 55.86 30.22 52.40 30.30 49.10 C 25.73 50.69 20.63 52.62 15.91 50.44 C 17.80 48.44 20.32 47.36 22.97 46.83 C 17.23 44.96 9.70 44.00 6.60 38.10 C 12.55 37.87 18.44 39.31 23.84 41.71 C 17.20 34.83 9.41 27.21 8.63 17.15 C 16.88 21.48 23.34 28.69 28.04 36.64 Z" />
</g>
</svg>
