<?xml version="1.0" encoding="UTF-8" ?>
<!DOCTYPE svg PUBLIC "-//W3C//DTD SVG 1.1//EN" "http://www.w3.org/Graphics/SVG/1.1/DTD/svg11.dtd">
<svg width="64pt" height="64pt" viewBox="0 0 64 64" version="1.1" xmlns="http://www.w3.org/2000/svg">
<g id="#000100ff">
<path fill="#000100" opacity="1.00" d=" M 4.59 5.74 C 22.86 5.62 41.12 5.57 59.38 5.77 C 59.64 7.16 59.97 8.54 60.03 9.95 C 59.93 22.96 59.93 35.97 60.03 48.98 C 59.85 51.32 60.46 54.03 59.20 56.10 C 56.55 56.88 53.70 56.48 50.98 56.58 C 42.00 56.07 33.00 56.35 24.00 56.27 C 17.63 56.14 11.22 57.15 4.87 56.24 C 3.66 54.41 4.11 52.07 3.95 50.00 C 3.94 39.01 4.11 28.03 3.97 17.04 C 3.96 13.27 3.69 9.45 4.59 5.74 M 6.31 7.92 C 6.39 14.85 6.18 21.78 6.52 28.70 C 5.87 37.23 6.55 45.82 6.37 54.37 C 9.34 54.35 12.31 54.26 15.27 54.27 C 15.28 52.27 15.26 50.28 15.26 48.28 C 26.33 48.25 37.40 48.26 48.48 48.28 C 48.47 50.30 48.68 52.31 48.64 54.33 C 51.63 54.27 54.62 54.35 57.62 54.35 C 57.49 47.10 58.04 39.83 57.49 32.59 C 57.77 24.37 57.62 16.15 57.69 7.92 C 40.56 7.92 23.44 7.92 6.31 7.92 Z" />
<path fill="#000100" opacity="1.00" d=" M 15.25 18.32 C 26.34 18.32 37.43 18.31 48.53 18.32 C 48.52 18.82 48.51 19.82 48.50 20.32 C 48.47 21.86 48.46 23.40 48.45 24.94 C 37.40 24.95 26.36 24.95 15.32 24.94 C 15.30 23.39 15.29 21.83 15.27 20.28 C 15.26 19.79 15.25 18.81 15.25 18.32 Z" />
<path fill="#000100" opacity="1.00" d=" M 15.26 28.05 C 26.35 28.07 37.45 28.01 48.55 28.09 C 48.52 29.32 48.49 30.55 48.47 31.78 C 48.46 32.57 48.44 34.16 48.43 34.96 C 37.39 34.96 26.35 34.95 15.31 34.97 C 15.31 34.18 15.31 32.62 15.31 31.84 C 15.29 30.58 15.28 29.31 15.26 28.05 Z" />
<path fill="#000100" opacity="1.00" d=" M 15.27 38.04 C 26.34 38.05 37.41 38.03 48.48 38.06 C 48.48 40.48 48.47 42.91 48.49 45.34 C 37.43 45.34 26.38 45.32 15.32 45.35 C 15.32 42.91 15.27 40.48 15.27 38.04 Z" />
</g>
<g id="#d1c7b4ff">
<path fill="#d1c7b4" opacity="1.00" d=" M 6.31 7.92 C 23.44 7.92 40.56 7.92 57.69 7.92 C 57.62 16.15 57.77 24.37 57.49 32.59 L 57.38 31.62 C 56.95 27.95 56.59 24.27 56.42 20.58 C 53.78 20.48 51.14 20.42 48.50 20.32 C 48.51 19.82 48.52 18.82 48.53 18.32 C 37.43 18.31 26.34 18.32 15.25 18.32 C 15.25 18.81 15.26 19.79 15.27 20.28 C 12.75 20.40 10.23 20.49 7.71 20.61 C 7.39 22.87 7.05 25.14 6.72 27.40 L 6.52 28.70 C 6.18 21.78 6.39 14.85 6.31 7.92 Z" />
</g>
<g id="#b5aea5ff">
<path fill="#b5aea5" opacity="1.00" d=" M 7.71 20.61 C 10.23 20.49 12.75 20.40 15.27 20.28 C 15.29 21.83 15.30 23.39 15.32 24.94 C 26.36 24.95 37.40 24.95 48.45 24.94 C 48.46 23.40 48.47 21.86 48.50 20.32 C 51.14 20.42 53.78 20.48 56.42 20.58 C 56.59 24.27 56.95 27.95 57.38 31.62 C 57.15 33.12 56.89 34.62 56.58 36.12 C 53.74 34.95 50.96 33.59 48.47 31.78 C 48.49 30.55 48.52 29.32 48.55 28.09 C 37.45 28.01 26.35 28.07 15.26 28.05 C 15.28 29.31 15.29 30.58 15.31 31.84 C 12.85 33.64 10.12 34.99 7.31 36.12 C 7.11 33.21 6.85 30.31 6.72 27.40 C 7.05 25.14 7.39 22.87 7.71 20.61 Z" />
</g>
<g id="#9c9995ff">
<path fill="#9c9995" opacity="1.00" d=" M 6.52 28.70 L 6.72 27.40 C 6.85 30.31 7.11 33.21 7.31 36.12 C 10.12 34.99 12.85 33.64 15.31 31.84 C 15.31 32.62 15.31 34.18 15.31 34.97 C 26.35 34.95 37.39 34.96 48.43 34.96 C 48.44 34.16 48.46 32.57 48.47 31.78 C 50.96 33.59 53.74 34.95 56.58 36.12 C 56.89 34.62 57.15 33.12 57.38 31.62 L 57.49 32.59 C 58.04 39.83 57.49 47.10 57.62 54.35 C 54.62 54.35 51.63 54.27 48.64 54.33 C 48.68 52.31 48.47 50.30 48.48 48.28 C 37.40 48.26 26.33 48.25 15.26 48.28 C 15.26 50.28 15.28 52.27 15.27 54.27 C 12.31 54.26 9.34 54.35 6.37 54.37 C 6.55 45.82 5.87 37.23 6.52 28.70 M 15.27 38.04 C 15.27 40.48 15.32 42.91 15.32 45.35 C 26.38 45.32 37.43 45.34 48.49 45.34 C 48.47 42.91 48.48 40.48 48.48 38.06 C 37.41 38.03 26.34 38.05 15.27 38.04 Z" />
</g>
</svg>
