<?xml version="1.0" encoding="UTF-8" ?>
<!DOCTYPE svg PUBLIC "-//W3C//DTD SVG 1.1//EN" "http://www.w3.org/Graphics/SVG/1.1/DTD/svg11.dtd">
<svg width="64pt" height="64pt" viewBox="0 0 64 64" version="1.1" xmlns="http://www.w3.org/2000/svg">
<g id="#080808fc">
<path fill="#080808" opacity="1.00" d=" M 29.96 3.93 C 32.09 2.06 34.72 4.06 36.24 5.75 C 39.87 10.65 38.91 17.13 39.12 22.83 C 44.35 25.38 49.83 27.46 55.19 29.74 C 55.55 29.86 56.27 30.10 56.64 30.22 C 57.42 30.81 58.20 31.40 58.97 32.01 C 59.06 35.08 59.11 38.16 59.25 41.23 C 59.16 41.68 58.98 42.56 58.88 43.01 C 52.17 42.67 45.75 40.30 39.16 39.11 C 37.95 42.50 36.99 47.15 38.82 50.19 C 40.16 51.18 41.55 52.09 42.91 53.06 C 43.01 55.70 43.02 58.35 42.95 60.99 C 35.64 60.91 28.35 60.36 21.04 60.97 C 21.00 58.33 21.01 55.70 21.08 53.07 C 22.05 52.38 23.02 51.69 23.99 51.01 C 28.48 49.03 24.76 42.51 25.97 38.95 C 20.90 39.83 15.88 41.07 10.90 42.36 C 10.44 42.52 9.53 42.85 9.08 43.01 C 7.44 42.76 4.64 43.80 4.63 41.27 C 4.76 38.16 4.90 35.05 5.00 31.94 C 11.22 28.11 18.38 26.14 24.86 22.84 C 25.63 16.72 23.62 7.81 29.96 3.93 M 28.02 16.99 C 25.70 18.02 26.96 22.54 26.19 25.18 C 20.75 26.84 15.68 29.51 10.32 31.38 C 9.59 32.71 7.42 33.56 7.32 34.85 C 6.99 36.86 6.92 38.90 6.98 40.93 C 8.00 40.58 9.01 40.22 10.02 39.85 C 15.30 38.74 21.48 37.99 26.03 35.77 C 29.99 36.06 26.91 41.56 28.53 44.03 C 27.74 45.87 26.87 49.94 28.98 50.85 C 27.96 54.27 20.05 51.13 24.01 57.93 C 29.65 57.92 35.25 58.40 40.85 59.05 C 40.95 55.05 39.45 52.47 35.78 51.26 C 36.25 47.43 35.92 43.55 35.67 39.72 L 35.76 38.93 C 35.87 38.20 36.09 36.76 36.20 36.03 C 39.70 36.53 43.08 38.35 46.66 37.76 C 47.06 40.02 50.39 38.64 52.05 39.00 C 52.51 39.19 53.44 39.57 53.90 39.76 C 54.94 40.17 55.98 40.57 57.03 40.95 C 57.05 39.20 56.96 37.45 56.75 35.71 C 57.27 34.45 57.23 32.77 55.70 32.31 C 49.74 29.97 43.94 27.17 37.84 25.21 C 36.12 20.68 37.38 15.71 36.96 11.01 L 35.99 10.99 C 36.16 8.66 33.77 6.99 32.00 5.98 C 27.69 7.75 26.95 12.74 28.02 16.99 Z" />
</g>
<g id="#84b8bcff">
<path fill="#84b8bc" opacity="1.00" d=" M 28.02 16.99 C 26.95 12.74 27.69 7.75 32.00 5.98 C 33.77 6.99 36.16 8.66 35.99 10.99 C 36.12 15.56 35.68 20.16 36.16 24.72 C 36.58 24.84 37.42 25.09 37.84 25.21 C 43.94 27.17 49.74 29.97 55.70 32.31 C 57.23 32.77 57.27 34.45 56.75 35.71 C 55.75 37.03 54.82 38.39 53.90 39.76 C 53.44 39.57 52.51 39.19 52.05 39.00 C 52.05 36.25 50.25 35.83 46.66 37.76 C 43.08 38.35 39.70 36.53 36.20 36.03 C 36.09 36.76 35.87 38.20 35.76 38.93 C 34.28 39.40 32.79 40.04 31.20 39.96 C 29.92 38.21 28.60 33.07 26.03 35.77 C 21.48 37.99 15.30 38.74 10.02 39.85 C 9.10 38.20 8.21 36.53 7.32 34.85 C 7.42 33.56 9.59 32.71 10.32 31.38 C 15.68 29.51 20.75 26.84 26.19 25.18 C 30.12 24.98 27.39 19.61 28.02 16.99 Z" />
</g>
<g id="#6f9ba3ff">
<path fill="#6f9ba3" opacity="1.00" d=" M 35.99 10.99 L 36.96 11.01 C 37.38 15.71 36.12 20.68 37.84 25.21 C 37.42 25.09 36.58 24.84 36.16 24.72 C 35.68 20.16 36.12 15.56 35.99 10.99 Z" />
<path fill="#6f9ba3" opacity="1.00" d=" M 7.32 34.85 C 8.21 36.53 9.10 38.20 10.02 39.85 C 9.01 40.22 8.00 40.58 6.98 40.93 C 6.92 38.90 6.99 36.86 7.32 34.85 Z" />
<path fill="#6f9ba3" opacity="1.00" d=" M 26.03 35.77 C 28.60 33.07 29.92 38.21 31.20 39.96 C 32.79 40.04 34.28 39.40 35.76 38.93 L 35.67 39.72 C 36.09 43.10 33.17 48.46 35.78 51.26 C 39.45 52.47 40.95 55.05 40.85 59.05 C 35.25 58.40 29.65 57.92 24.01 57.93 C 20.05 51.13 27.96 54.27 28.98 50.85 C 29.54 48.54 29.38 46.26 28.53 44.03 C 26.91 41.56 29.99 36.06 26.03 35.77 Z" />
<path fill="#6f9ba3" opacity="1.00" d=" M 53.90 39.76 C 54.82 38.39 55.75 37.03 56.75 35.71 C 56.96 37.45 57.05 39.20 57.03 40.95 C 55.98 40.57 54.94 40.17 53.90 39.76 Z" />
<path fill="#6f9ba3" opacity="1.00" d=" M 46.66 37.76 C 50.25 35.83 52.05 36.25 52.05 39.00 C 50.39 38.64 47.06 40.02 46.66 37.76 Z" />
</g>
<g id="#506e73ff">
<path fill="#506e73" opacity="1.00" d=" M 26.19 25.18 C 26.96 22.54 25.70 18.02 28.02 16.99 C 27.39 19.61 30.12 24.98 26.19 25.18 Z" />
<path fill="#506e73" opacity="1.00" d=" M 35.78 51.26 C 33.17 48.46 36.09 43.10 35.67 39.72 C 35.92 43.55 36.25 47.43 35.78 51.26 Z" />
</g>
<g id="#02020243">
<path fill="#020202" opacity="0.26" d=" M 4.63 41.27 C 4.00 38.51 2.74 33.92 5.00 31.94 C 4.90 35.05 4.76 38.16 4.63 41.27 Z" />
<path fill="#020202" opacity="0.26" d=" M 58.97 32.01 C 61.55 34.22 58.94 38.53 59.25 41.23 C 59.11 38.16 59.06 35.08 58.97 32.01 Z" />
</g>
<g id="#324244ff">
<path fill="#324244" opacity="1.00" d=" M 28.53 44.03 C 29.38 46.26 29.54 48.54 28.98 50.85 C 26.87 49.94 27.74 45.87 28.53 44.03 Z" />
</g>
</svg>
