<?xml version="1.0" encoding="UTF-8" ?>
<!DOCTYPE svg PUBLIC "-//W3C//DTD SVG 1.1//EN" "http://www.w3.org/Graphics/SVG/1.1/DTD/svg11.dtd">
<svg width="64pt" height="64pt" viewBox="0 0 64 64" version="1.1" xmlns="http://www.w3.org/2000/svg">
<g id="#000202ff">
<path fill="#000202" opacity="1.00" d=" M 8.53 13.52 C 13.20 8.53 21.86 9.49 26.01 14.67 C 29.78 10.47 36.37 8.61 41.36 11.79 C 46.77 14.68 48.50 22.11 45.61 27.36 C 46.23 28.60 46.86 29.83 47.52 31.05 C 50.68 29.47 53.98 28.19 57.38 27.24 C 59.80 30.31 58.48 34.41 58.76 37.99 C 58.38 43.32 59.72 48.88 57.86 54.01 C 54.18 53.23 50.77 51.59 47.33 50.10 C 47.08 51.26 46.80 52.40 46.51 53.55 C 36.68 53.93 26.84 53.62 17.01 53.72 C 13.20 53.63 9.34 54.05 5.57 53.37 C 4.72 48.96 5.39 44.43 5.19 39.97 C 5.37 35.89 4.56 31.57 6.26 27.72 C 4.28 23.04 4.68 17.14 8.53 13.52 M 7.80 19.18 C 6.42 23.35 8.75 27.48 11.88 30.11 C 10.43 29.80 8.96 29.58 7.48 29.45 C 7.45 36.78 7.53 44.11 7.54 51.43 C 19.91 51.44 32.28 51.48 44.66 51.42 C 44.67 49.84 44.67 48.27 44.68 46.69 C 48.60 48.28 52.64 49.58 56.46 51.43 C 56.46 44.27 56.51 37.11 56.54 29.95 C 52.64 31.34 48.80 32.89 44.98 34.50 C 44.88 34.00 44.69 33.02 44.59 32.53 C 44.60 31.78 44.63 30.28 44.65 29.53 C 43.15 29.61 41.65 29.71 40.15 29.81 C 43.81 27.36 45.90 22.45 44.15 18.24 C 42.06 12.96 34.73 10.63 30.15 14.13 C 27.50 15.85 26.59 19.04 26.06 21.98 C 25.82 18.92 24.56 15.82 21.86 14.14 C 17.11 10.36 9.15 13.30 7.80 19.18 Z" />
<path fill="#000202" opacity="1.00" d=" M 14.54 17.36 C 18.35 14.84 23.55 19.87 21.15 23.80 C 19.78 27.31 14.55 27.22 12.57 24.35 C 11.46 21.84 11.92 18.70 14.54 17.36 Z" />
<path fill="#000202" opacity="1.00" d=" M 32.01 17.77 C 33.20 17.42 34.38 17.05 35.56 16.68 C 36.76 17.07 37.95 17.47 39.15 17.88 C 39.77 20.00 41.17 22.57 39.37 24.51 C 37.42 27.43 32.45 26.95 31.10 23.71 C 29.98 21.70 31.17 19.61 32.01 17.77 Z" />
</g>
<g id="#73a5bcff">
<path fill="#73a5bc" opacity="1.00" d=" M 7.80 19.18 C 9.15 13.30 17.11 10.36 21.86 14.14 C 24.56 15.82 25.82 18.92 26.06 21.98 C 26.59 19.04 27.50 15.85 30.15 14.13 C 34.73 10.63 42.06 12.96 44.15 18.24 C 45.90 22.45 43.81 27.36 40.15 29.81 C 41.65 29.71 43.15 29.61 44.65 29.53 C 44.63 30.28 44.60 31.78 44.59 32.53 C 34.46 32.40 24.32 32.78 14.19 32.37 C 13.43 31.61 12.66 30.86 11.88 30.11 C 8.75 27.48 6.42 23.35 7.80 19.18 M 14.54 17.36 C 11.92 18.70 11.46 21.84 12.57 24.35 C 14.55 27.22 19.78 27.31 21.15 23.80 C 23.55 19.87 18.35 14.84 14.54 17.36 M 32.01 17.77 C 31.17 19.61 29.98 21.70 31.10 23.71 C 32.45 26.95 37.42 27.43 39.37 24.51 C 41.17 22.57 39.77 20.00 39.15 17.88 C 37.95 17.47 36.76 17.07 35.56 16.68 C 34.38 17.05 33.20 17.42 32.01 17.77 Z" />
</g>
<g id="#7381b4ff">
<path fill="#7381b4" opacity="1.00" d=" M 7.48 29.45 C 8.96 29.58 10.43 29.80 11.88 30.11 C 12.66 30.86 13.43 31.61 14.19 32.37 C 24.32 32.78 34.46 32.40 44.59 32.53 C 44.69 33.02 44.88 34.00 44.98 34.50 C 48.80 32.89 52.64 31.34 56.54 29.95 C 56.51 37.11 56.46 44.27 56.46 51.43 C 52.64 49.58 48.60 48.28 44.68 46.69 C 44.67 48.27 44.67 49.84 44.66 51.42 C 32.28 51.48 19.91 51.44 7.54 51.43 C 7.53 44.11 7.45 36.78 7.48 29.45 Z" />
</g>
</svg>
