<?xml version="1.0" encoding="UTF-8" ?>
<!DOCTYPE svg PUBLIC "-//W3C//DTD SVG 1.1//EN" "http://www.w3.org/Graphics/SVG/1.1/DTD/svg11.dtd">
<svg width="64pt" height="64pt" viewBox="0 0 64 64" version="1.1" xmlns="http://www.w3.org/2000/svg">
<g id="#070101fe">
<path fill="#070101" opacity="1.00" d=" M 9.29 4.26 C 18.22 3.78 27.17 3.89 36.11 4.01 C 39.30 3.65 40.48 6.94 41.23 9.38 C 41.59 9.55 42.32 9.90 42.69 10.07 C 44.14 8.75 45.61 7.45 47.11 6.19 C 49.74 8.20 52.11 10.50 54.45 12.83 C 54.44 13.63 54.41 15.23 54.40 16.03 C 53.56 16.95 52.72 17.87 51.88 18.80 C 52.76 30.52 52.07 42.31 52.29 54.06 C 52.64 56.73 51.25 60.13 48.09 59.90 C 37.06 60.20 26.01 59.92 14.97 60.04 C 12.33 60.30 8.91 59.16 8.82 56.04 C 8.57 43.71 8.80 31.37 8.73 19.03 C 8.81 14.11 8.30 9.12 9.29 4.26 M 22.88 6.32 C 23.54 7.37 24.24 8.40 24.96 9.41 C 29.62 9.67 34.31 9.69 38.97 9.34 C 38.42 8.32 37.88 7.30 37.33 6.28 C 32.51 6.25 27.70 6.31 22.88 6.32 M 11.04 6.38 C 11.05 14.32 10.97 22.27 11.26 30.20 C 13.10 28.01 14.97 25.32 18.34 26.37 C 16.66 24.99 15.12 23.35 15.36 20.97 C 17.69 22.56 19.81 24.43 21.91 26.32 C 22.53 26.35 23.78 26.41 24.41 26.44 C 25.29 27.25 26.17 28.06 27.05 28.87 C 27.31 25.28 27.69 21.70 28.70 18.24 C 30.12 18.67 32.45 18.19 32.78 20.17 C 33.58 23.15 33.87 26.24 34.54 29.24 C 35.21 27.99 35.88 26.74 36.55 25.50 C 37.39 25.55 39.06 25.67 39.89 25.72 C 41.78 24.02 43.50 21.41 46.42 21.87 C 45.30 23.37 44.14 24.83 42.93 26.25 C 46.17 25.49 48.00 28.13 49.72 30.28 C 49.84 27.14 49.97 24.00 49.97 20.86 C 46.93 17.83 43.93 14.76 40.93 11.70 C 35.19 11.62 29.46 11.67 23.72 11.63 C 22.55 9.87 21.36 8.12 20.17 6.38 C 17.12 6.38 14.08 6.38 11.04 6.38 M 44.42 11.61 C 46.31 13.46 48.19 15.32 50.09 17.15 C 51.01 16.24 51.94 15.32 52.87 14.41 C 51.42 13.38 50.00 12.30 48.65 11.15 C 48.33 10.59 47.70 9.47 47.38 8.91 C 46.64 9.59 45.16 10.93 44.42 11.61 M 29.54 20.27 C 28.96 23.42 28.60 26.62 28.50 29.82 C 26.98 29.78 25.45 29.74 23.93 29.69 C 23.72 29.01 23.30 27.64 23.08 26.96 C 22.51 28.05 21.94 29.14 21.38 30.23 C 20.42 30.28 18.50 30.36 17.53 30.41 C 17.07 29.25 16.60 28.10 16.13 26.95 C 15.91 27.25 15.47 27.85 15.25 28.15 C 15.23 28.71 15.20 29.84 15.18 30.41 C 14.48 30.42 13.08 30.45 12.38 30.47 C 12.40 31.47 12.44 33.46 12.46 34.46 C 13.09 34.57 14.35 34.79 14.98 34.90 C 16.96 35.37 18.96 35.73 20.94 36.18 C 22.66 36.45 24.37 36.72 26.07 37.07 C 26.73 37.12 28.04 37.22 28.69 37.27 C 29.24 40.58 29.53 43.93 29.85 47.27 C 27.34 47.71 24.86 48.29 22.37 48.84 C 22.54 49.43 22.90 50.61 23.08 51.20 C 25.43 51.73 28.17 52.37 30.09 50.45 C 30.29 50.44 30.68 50.42 30.87 50.41 C 32.95 52.45 38.72 52.69 38.62 48.85 C 36.14 48.29 33.66 47.70 31.16 47.28 C 31.46 43.93 31.77 40.58 32.30 37.26 C 32.96 37.21 34.27 37.12 34.93 37.08 C 36.63 36.72 38.34 36.45 40.06 36.18 C 42.04 35.73 44.04 35.37 46.02 34.89 C 46.65 34.79 47.90 34.57 48.52 34.46 C 48.55 33.48 48.61 31.50 48.64 30.52 C 48.01 30.48 46.73 30.41 46.10 30.38 C 45.77 29.14 45.43 27.90 45.07 26.67 C 44.50 27.91 43.95 29.16 43.41 30.41 C 42.38 30.36 40.30 30.25 39.27 30.20 C 39.24 29.54 39.17 28.21 39.13 27.55 C 38.66 27.49 37.70 27.36 37.23 27.30 C 37.24 27.90 37.28 29.09 37.29 29.69 C 35.70 29.74 34.10 29.78 32.50 29.82 C 32.41 26.63 32.05 23.45 31.47 20.31 C 30.99 20.30 30.02 20.28 29.54 20.27 M 10.94 35.42 C 11.08 42.82 10.82 50.23 11.40 57.62 C 23.79 57.68 36.17 57.68 48.56 57.62 C 48.90 57.20 49.59 56.36 49.93 55.94 C 49.98 49.10 50.06 42.26 50.02 35.41 C 44.71 36.75 39.33 37.77 33.95 38.74 C 38.08 43.21 43.07 46.93 46.47 52.05 C 43.48 52.12 41.49 49.86 39.57 47.92 C 39.56 49.42 39.54 50.92 39.53 52.43 C 36.52 53.11 33.43 53.31 30.35 53.21 C 27.36 53.30 24.38 53.08 21.46 52.43 C 21.47 50.84 21.49 49.24 21.50 47.64 C 19.61 49.64 17.79 52.33 14.64 52.01 C 18.01 46.92 22.93 43.18 27.05 38.75 C 21.66 37.78 16.27 36.73 10.94 35.42 M 22.17 47.09 C 24.27 46.67 26.37 46.27 28.47 45.88 C 28.37 44.74 28.16 42.46 28.06 41.33 C 26.04 43.19 24.08 45.11 22.17 47.09 M 32.84 41.18 C 32.80 42.80 32.76 44.42 32.72 46.03 C 34.93 46.51 37.14 47.01 39.35 47.52 C 37.20 45.38 35.04 43.26 32.84 41.18 Z" />
</g>
<g id="#c52d35ff">
<path fill="#c52d35" opacity="1.00" d=" M 11.04 6.38 C 14.08 6.38 17.12 6.38 20.17 6.38 C 21.36 8.12 22.55 9.87 23.72 11.63 C 29.46 11.67 35.19 11.62 40.93 11.70 C 43.93 14.76 46.93 17.83 49.97 20.86 C 49.97 24.00 49.84 27.14 49.72 30.28 C 48.00 28.13 46.17 25.49 42.93 26.25 C 44.14 24.83 45.30 23.37 46.42 21.87 C 43.50 21.41 41.78 24.02 39.89 25.72 C 39.06 25.67 37.39 25.55 36.55 25.50 C 35.88 26.74 35.21 27.99 34.54 29.24 C 33.87 26.24 33.58 23.15 32.78 20.17 C 32.45 18.19 30.12 18.67 28.70 18.24 C 27.69 21.70 27.31 25.28 27.05 28.87 C 26.17 28.06 25.29 27.25 24.41 26.44 C 23.78 26.41 22.53 26.35 21.91 26.32 C 19.81 24.43 17.69 22.56 15.36 20.97 C 15.12 23.35 16.66 24.99 18.34 26.37 C 14.97 25.32 13.10 28.01 11.26 30.20 C 10.97 22.27 11.05 14.32 11.04 6.38 Z" />
<path fill="#c52d35" opacity="1.00" d=" M 44.42 11.61 C 45.16 10.93 46.64 9.59 47.38 8.91 C 47.70 9.47 48.33 10.59 48.65 11.15 C 50.00 12.30 51.42 13.38 52.87 14.41 C 51.94 15.32 51.01 16.24 50.09 17.15 C 48.19 15.32 46.31 13.46 44.42 11.61 Z" />
</g>
<g id="#ffffffff">
<path fill="#ffffff" opacity="1.00" d=" M 29.54 20.27 C 30.02 20.28 30.99 20.30 31.47 20.31 C 32.05 23.45 32.41 26.63 32.50 29.82 C 34.10 29.78 35.70 29.74 37.29 29.69 C 37.28 29.09 37.24 27.90 37.23 27.30 C 37.70 27.36 38.66 27.49 39.13 27.55 C 39.17 28.21 39.24 29.54 39.27 30.20 C 40.30 30.25 42.38 30.36 43.41 30.41 C 43.95 29.16 44.50 27.91 45.07 26.67 C 45.43 27.90 45.77 29.14 46.10 30.38 C 46.73 30.41 48.01 30.48 48.64 30.52 C 48.61 31.50 48.55 33.48 48.52 34.46 C 47.90 34.57 46.65 34.79 46.02 34.89 C 44.04 35.37 42.04 35.73 40.06 36.18 C 38.34 36.45 36.63 36.72 34.93 37.08 C 34.27 37.12 32.96 37.21 32.30 37.26 C 31.77 40.58 31.46 43.93 31.16 47.28 C 33.66 47.70 36.14 48.29 38.62 48.85 C 38.72 52.69 32.95 52.45 30.87 50.41 C 30.68 50.42 30.29 50.44 30.09 50.45 C 28.17 52.37 25.43 51.73 23.08 51.20 C 22.90 50.61 22.54 49.43 22.37 48.84 C 24.86 48.29 27.34 47.71 29.85 47.27 C 29.53 43.93 29.24 40.58 28.69 37.27 C 28.04 37.22 26.73 37.12 26.07 37.07 C 24.37 36.72 22.66 36.45 20.94 36.18 C 18.96 35.73 16.96 35.37 14.98 34.90 C 14.35 34.79 13.09 34.57 12.46 34.46 C 12.44 33.46 12.40 31.47 12.38 30.47 C 13.08 30.45 14.48 30.42 15.18 30.41 C 15.20 29.84 15.23 28.71 15.25 28.15 C 15.47 27.85 15.91 27.25 16.13 26.95 C 16.60 28.10 17.07 29.25 17.53 30.41 C 18.50 30.36 20.42 30.28 21.38 30.23 C 21.94 29.14 22.51 28.05 23.08 26.96 C 23.30 27.64 23.72 29.01 23.93 29.69 C 25.45 29.74 26.98 29.78 28.50 29.82 C 28.60 26.62 28.96 23.42 29.54 20.27 Z" />
</g>
<g id="#942843ff">
<path fill="#942843" opacity="1.00" d=" M 10.94 35.42 C 16.27 36.73 21.66 37.78 27.05 38.75 C 22.93 43.18 18.01 46.92 14.64 52.01 C 17.79 52.33 19.61 49.64 21.50 47.64 C 21.49 49.24 21.47 50.84 21.46 52.43 C 24.38 53.08 27.36 53.30 30.35 53.21 C 33.43 53.31 36.52 53.11 39.53 52.43 C 39.54 50.92 39.56 49.42 39.57 47.92 C 41.49 49.86 43.48 52.12 46.47 52.05 C 43.07 46.93 38.08 43.21 33.95 38.74 C 39.33 37.77 44.71 36.75 50.02 35.41 C 50.06 42.26 49.98 49.10 49.93 55.94 C 49.59 56.36 48.90 57.20 48.56 57.62 C 36.17 57.68 23.79 57.68 11.40 57.62 C 10.82 50.23 11.08 42.82 10.94 35.42 Z" />
<path fill="#942843" opacity="1.00" d=" M 22.17 47.09 C 24.08 45.11 26.04 43.19 28.06 41.33 C 28.16 42.46 28.37 44.74 28.47 45.88 C 26.37 46.27 24.27 46.67 22.17 47.09 Z" />
<path fill="#942843" opacity="1.00" d=" M 32.84 41.18 C 35.04 43.26 37.20 45.38 39.35 47.52 C 37.14 47.01 34.93 46.51 32.72 46.03 C 32.76 44.42 32.80 42.80 32.84 41.18 Z" />
</g>
</svg>
