<?xml version="1.0" encoding="UTF-8" ?>
<!DOCTYPE svg PUBLIC "-//W3C//DTD SVG 1.1//EN" "http://www.w3.org/Graphics/SVG/1.1/DTD/svg11.dtd">
<svg width="64pt" height="64pt" viewBox="0 0 64 64" version="1.1" xmlns="http://www.w3.org/2000/svg">
<g id="#060504e7">
<path fill="#060504" opacity="0.91" d=" M 22.91 6.96 C 27.27 0.88 38.14 2.16 40.70 9.27 C 42.92 13.62 40.90 18.53 37.97 21.98 C 37.74 25.22 38.02 28.64 36.56 31.65 C 34.59 36.00 29.60 37.86 27.34 42.00 C 26.30 45.96 30.99 49.61 34.57 47.63 C 38.51 45.09 38.24 39.55 41.57 36.44 C 43.46 33.86 48.70 33.03 49.52 36.96 C 47.92 43.40 47.66 50.69 42.74 55.72 C 36.53 64.08 22.84 61.62 17.40 53.67 C 14.87 49.68 13.50 44.65 15.03 40.04 C 16.33 34.40 21.31 30.92 25.23 27.13 C 25.42 25.64 25.58 24.16 25.77 22.67 C 20.53 19.47 18.91 11.76 22.91 6.96 M 23.34 10.47 C 21.33 14.59 24.20 19.10 27.67 21.32 C 27.62 23.30 27.47 25.29 27.65 27.27 C 23.89 32.06 17.61 35.45 16.72 41.99 C 14.74 52.53 26.93 62.02 36.71 57.83 C 39.18 56.37 41.23 54.25 42.94 51.96 C 45.99 47.32 45.80 41.54 47.61 36.44 C 43.44 35.86 41.35 39.95 40.23 43.24 C 38.69 46.84 35.53 51.41 30.99 50.20 C 25.93 49.73 23.22 42.44 26.88 38.92 C 29.90 35.26 35.06 32.98 35.57 27.73 C 35.62 25.42 35.68 23.11 35.74 20.80 C 37.42 18.82 39.31 16.71 39.50 13.97 C 39.84 11.40 38.30 9.08 36.75 7.18 C 32.65 3.58 25.17 5.14 23.34 10.47 Z" />
</g>
<g id="#d3684dff">
<path fill="#d3684d" opacity="1.00" d=" M 23.34 10.47 C 25.17 5.14 32.65 3.58 36.75 7.18 C 38.30 9.08 39.84 11.40 39.50 13.97 C 39.31 16.71 37.42 18.82 35.74 20.80 C 35.68 23.11 35.62 25.42 35.57 27.73 C 33.29 29.05 31.06 30.44 28.84 31.85 C 28.43 30.33 28.00 28.81 27.65 27.27 C 27.47 25.29 27.62 23.30 27.67 21.32 C 24.20 19.10 21.33 14.59 23.34 10.47 Z" />
</g>
<g id="#b54f27ff">
<path fill="#b54f27" opacity="1.00" d=" M 16.72 41.99 C 17.61 35.45 23.89 32.06 27.65 27.27 C 28.00 28.81 28.43 30.33 28.84 31.85 C 31.06 30.44 33.29 29.05 35.57 27.73 C 35.06 32.98 29.90 35.26 26.88 38.92 C 23.22 42.44 25.93 49.73 30.99 50.20 C 35.53 51.41 38.69 46.84 40.23 43.24 C 41.35 39.95 43.44 35.86 47.61 36.44 C 45.80 41.54 45.99 47.32 42.94 51.96 C 41.23 54.25 39.18 56.37 36.71 57.83 C 26.93 62.02 14.74 52.53 16.72 41.99 Z" />
</g>
</svg>
