<?xml version="1.0" encoding="UTF-8" ?>
<!DOCTYPE svg PUBLIC "-//W3C//DTD SVG 1.1//EN" "http://www.w3.org/Graphics/SVG/1.1/DTD/svg11.dtd">
<svg width="64pt" height="64pt" viewBox="0 0 64 64" version="1.1" xmlns="http://www.w3.org/2000/svg">
<g id="#010101ff">
<path fill="#010101" opacity="1.00" d=" M 27.32 9.25 C 28.08 7.28 29.59 5.25 31.94 5.36 C 34.45 5.09 35.76 7.48 36.78 9.35 C 42.85 9.10 48.93 9.21 55.01 9.18 C 56.60 9.00 57.96 9.86 59.33 10.51 C 60.92 13.22 60.65 17.37 57.16 18.34 C 53.34 18.53 49.50 18.33 45.68 18.59 C 49.87 21.09 51.86 26.24 51.52 30.98 C 51.26 35.58 52.28 40.40 50.40 44.79 C 51.44 46.00 52.72 47.25 52.50 49.01 C 52.32 52.17 53.59 56.59 50.10 58.37 C 46.67 59.63 43.54 56.74 43.81 53.28 C 35.93 53.31 28.06 53.30 20.18 53.28 C 20.02 55.30 19.39 58.02 17.00 58.38 C 14.25 59.44 11.17 56.88 11.45 54.03 C 11.45 50.84 10.73 47.06 13.55 44.77 C 11.83 40.02 12.67 34.88 12.48 29.94 C 12.25 25.43 14.71 21.27 18.00 18.36 C 14.29 18.59 10.56 18.59 6.85 18.31 C 2.41 17.23 2.68 9.97 7.25 9.29 C 13.93 9.05 20.63 9.24 27.32 9.25 M 29.82 11.35 C 22.05 11.72 14.25 11.11 6.48 11.76 C 5.94 13.33 5.59 15.33 7.46 16.19 C 15.04 16.46 22.64 16.17 30.22 16.40 C 30.06 16.88 29.73 17.83 29.57 18.31 C 24.60 17.72 18.95 19.12 16.41 23.82 L 16.17 23.78 C 15.41 26.11 14.43 28.45 14.65 30.96 C 14.84 35.05 14.11 39.29 15.52 43.23 C 16.36 44.39 17.26 45.50 18.22 46.57 C 16.47 46.45 13.72 46.65 13.69 48.95 C 13.67 51.62 12.65 56.92 16.93 56.35 C 17.97 54.79 17.60 52.85 17.70 51.09 C 27.23 51.05 36.77 51.06 46.30 51.09 C 46.35 53.08 45.92 55.42 47.80 56.77 C 48.43 56.31 49.69 55.40 50.31 54.94 C 50.31 52.69 50.42 50.44 50.25 48.19 C 49.34 46.45 47.44 46.58 45.77 46.55 C 46.61 45.65 47.49 44.79 48.01 43.64 L 48.37 43.52 C 49.92 39.52 49.15 35.18 49.34 31.00 C 49.58 28.39 48.56 25.95 47.73 23.53 L 46.74 23.78 L 47.60 23.39 C 44.49 19.36 39.41 17.58 34.43 18.32 C 34.26 17.84 33.94 16.88 33.78 16.40 C 41.30 16.20 48.83 16.41 56.34 16.23 C 58.33 15.50 58.15 13.37 57.50 11.76 C 49.74 11.11 41.95 11.72 34.18 11.35 C 33.80 10.06 34.24 7.07 31.99 7.75 C 29.75 7.08 30.21 10.07 29.82 11.35 Z" />
<path fill="#010101" opacity="1.00" d=" M 20.65 24.54 C 23.21 22.27 26.73 22.24 29.96 22.29 C 29.97 22.77 29.97 23.73 29.97 24.21 C 29.98 27.24 29.96 30.27 29.91 33.30 C 26.17 33.31 22.42 33.31 18.68 33.23 C 18.51 30.18 18.75 27.06 20.65 24.54 Z" />
<path fill="#010101" opacity="1.00" d=" M 34.03 22.29 C 37.33 22.11 40.79 22.46 43.42 24.67 C 45.23 27.18 45.51 30.24 45.29 33.24 C 41.56 33.31 37.82 33.31 34.08 33.30 C 34.04 30.28 34.02 27.27 34.03 24.26 C 34.03 23.76 34.03 22.78 34.03 22.29 Z" />
</g>
<g id="#f5f6f5ff">
<path fill="#f5f6f5" opacity="1.00" d=" M 29.82 11.35 C 30.21 10.07 29.75 7.08 31.99 7.75 C 34.24 7.07 33.80 10.06 34.18 11.35 C 41.95 11.72 49.74 11.11 57.50 11.76 C 58.15 13.37 58.33 15.50 56.34 16.23 C 48.83 16.41 41.30 16.20 33.78 16.40 C 33.94 16.88 34.26 17.84 34.43 18.32 C 34.68 19.01 34.94 19.69 35.21 20.37 C 33.11 20.28 31.02 20.21 28.92 20.15 C 29.08 19.69 29.41 18.77 29.57 18.31 C 29.73 17.83 30.06 16.88 30.22 16.40 C 22.64 16.17 15.04 16.46 7.46 16.19 C 5.59 15.33 5.94 13.33 6.48 11.76 C 14.25 11.11 22.05 11.72 29.82 11.35 Z" />
</g>
<g id="#e3e7e3ff">
<path fill="#e3e7e3" opacity="1.00" d=" M 16.41 23.82 C 18.95 19.12 24.60 17.72 29.57 18.31 C 29.41 18.77 29.08 19.69 28.92 20.15 C 31.02 20.21 33.11 20.28 35.21 20.37 C 34.94 19.69 34.68 19.01 34.43 18.32 C 39.41 17.58 44.49 19.36 47.60 23.39 L 46.74 23.78 C 45.91 24.00 44.25 24.45 43.42 24.67 C 40.79 22.46 37.33 22.11 34.03 22.29 C 34.03 22.78 34.03 23.76 34.03 24.26 C 32.67 24.24 31.32 24.22 29.97 24.21 C 29.97 23.73 29.97 22.77 29.96 22.29 C 26.73 22.24 23.21 22.27 20.65 24.54 C 19.59 24.36 17.47 24.00 16.41 23.82 Z" />
</g>
<g id="#d9d8d9ff">
<path fill="#d9d8d9" opacity="1.00" d=" M 16.17 23.78 L 16.41 23.82 C 17.47 24.00 19.59 24.36 20.65 24.54 C 18.75 27.06 18.51 30.18 18.68 33.23 C 22.42 33.31 26.17 33.31 29.91 33.30 C 29.96 30.27 29.98 27.24 29.97 24.21 C 31.32 24.22 32.67 24.24 34.03 24.26 C 34.02 27.27 34.04 30.28 34.08 33.30 C 37.82 33.31 41.56 33.31 45.29 33.24 C 45.51 30.24 45.23 27.18 43.42 24.67 C 44.25 24.45 45.91 24.00 46.74 23.78 L 47.73 23.53 C 48.56 25.95 49.58 28.39 49.34 31.00 C 49.15 35.18 49.92 39.52 48.37 43.52 L 48.01 43.64 C 44.63 44.11 42.67 47.87 39.07 47.41 C 33.69 47.37 28.29 47.69 22.93 47.19 C 20.34 46.13 18.26 44.05 15.52 43.23 C 14.11 39.29 14.84 35.05 14.65 30.96 C 14.43 28.45 15.41 26.11 16.17 23.78 Z" />
</g>
<g id="#ccccccff">
<path fill="#cccccc" opacity="1.00" d=" M 15.52 43.23 C 18.26 44.05 20.34 46.13 22.93 47.19 C 28.29 47.69 33.69 47.37 39.07 47.41 C 42.67 47.87 44.63 44.11 48.01 43.64 C 47.49 44.79 46.61 45.65 45.77 46.55 C 47.44 46.58 49.34 46.45 50.25 48.19 C 50.42 50.44 50.31 52.69 50.31 54.94 C 49.69 55.40 48.43 56.31 47.80 56.77 C 45.92 55.42 46.35 53.08 46.30 51.09 C 36.77 51.06 27.23 51.05 17.70 51.09 C 17.60 52.85 17.97 54.79 16.93 56.35 C 12.65 56.92 13.67 51.62 13.69 48.95 C 13.72 46.65 16.47 46.45 18.22 46.57 C 17.26 45.50 16.36 44.39 15.52 43.23 Z" />
</g>
</svg>
