<?xml version="1.0" encoding="UTF-8" ?>
<!DOCTYPE svg PUBLIC "-//W3C//DTD SVG 1.1//EN" "http://www.w3.org/Graphics/SVG/1.1/DTD/svg11.dtd">
<svg width="64pt" height="64pt" viewBox="0 0 64 64" version="1.1" xmlns="http://www.w3.org/2000/svg">
<g id="#000100ff">
<path fill="#000100" opacity="1.00" d=" M 8.41 2.33 C 10.77 1.31 13.52 1.58 16.02 1.86 C 18.04 2.87 17.31 5.50 17.67 7.29 C 27.26 7.26 36.85 7.24 46.44 7.31 C 46.44 5.73 46.44 4.16 46.44 2.58 C 48.85 1.58 51.50 1.39 54.07 1.83 C 55.38 1.87 56.01 2.55 55.95 3.86 C 56.27 8.05 55.96 12.25 56.05 16.44 C 60.67 16.41 59.58 21.51 59.41 24.57 C 59.30 26.29 57.09 26.30 55.91 26.92 C 55.98 28.77 56.03 30.63 56.12 32.48 C 57.58 33.72 59.75 34.87 59.47 37.14 C 59.47 42.46 59.68 47.78 59.76 53.11 C 60.02 56.23 57.20 58.28 55.79 60.77 C 52.26 64.10 45.88 61.82 45.22 56.98 C 36.41 56.97 27.60 56.92 18.79 56.98 C 17.79 59.96 15.43 62.88 11.89 62.28 C 8.46 62.45 7.11 59.05 5.38 56.78 C 3.80 55.28 4.38 52.95 4.24 51.03 C 4.36 46.34 4.13 41.64 4.32 36.96 C 4.19 34.75 6.53 33.80 7.88 32.50 C 7.95 30.62 8.02 28.74 8.10 26.87 C 6.89 26.45 5.68 26.03 4.46 25.60 C 4.52 22.91 4.53 20.22 4.49 17.53 C 5.68 17.15 6.87 16.78 8.07 16.42 C 8.18 11.74 7.34 6.92 8.41 2.33 M 10.32 3.94 C 10.33 8.93 10.30 13.91 10.34 18.90 C 9.42 18.96 7.58 19.09 6.67 19.15 C 6.68 20.85 6.68 22.55 6.69 24.25 C 7.92 24.29 9.16 24.33 10.39 24.36 C 10.28 27.44 10.29 30.52 10.39 33.59 C 9.03 34.65 7.55 35.60 6.49 36.99 C 6.23 42.81 6.49 48.66 6.39 54.49 C 6.97 54.55 8.14 54.67 8.72 54.73 C 8.68 55.77 8.63 56.82 8.58 57.86 C 10.18 60.29 12.82 60.26 15.29 59.39 C 15.82 57.83 16.25 56.23 16.55 54.61 C 26.85 54.74 37.14 54.73 47.44 54.61 C 47.73 56.24 48.17 57.84 48.69 59.41 C 51.16 60.26 53.83 60.25 55.41 57.86 C 55.36 56.79 55.32 55.73 55.28 54.66 C 55.81 54.67 56.86 54.70 57.39 54.71 C 57.72 48.56 57.11 42.41 57.30 36.25 C 56.02 35.45 54.80 34.56 53.60 33.66 C 53.72 30.56 53.70 27.46 53.61 24.36 C 54.84 24.33 56.07 24.29 57.31 24.24 C 57.31 22.54 57.32 20.84 57.33 19.14 C 56.41 19.08 54.58 18.96 53.66 18.90 C 53.70 13.92 53.67 8.93 53.68 3.94 C 52.03 3.94 50.38 3.94 48.73 3.94 C 48.71 5.84 48.69 7.73 48.67 9.62 C 37.56 9.59 26.44 9.58 15.33 9.62 C 15.30 7.73 15.26 5.84 15.24 3.94 C 13.60 3.94 11.96 3.94 10.32 3.94 Z" />
<path fill="#000100" opacity="1.00" d=" M 15.06 16.68 C 26.35 16.73 37.65 16.73 48.94 16.68 C 48.94 19.79 48.94 22.90 48.91 26.02 C 37.64 26.04 26.36 26.01 15.09 26.02 C 15.06 22.91 15.06 19.80 15.06 16.68 Z" />
<path fill="#000100" opacity="1.00" d=" M 21.67 31.30 C 28.56 31.24 35.44 31.24 42.33 31.30 C 42.34 37.40 42.27 43.51 42.36 49.61 C 35.45 49.59 28.55 49.59 21.64 49.61 C 21.73 43.51 21.66 37.40 21.67 31.30 Z" />
<path fill="#000100" opacity="1.00" d=" M 9.97 41.67 C 12.83 41.47 15.71 41.57 18.58 41.41 C 18.60 42.99 18.62 44.58 18.63 46.16 C 15.79 46.35 12.94 46.33 10.09 46.34 C 10.06 44.78 10.02 43.23 9.97 41.67 Z" />
<path fill="#000100" opacity="1.00" d=" M 45.44 41.41 C 48.30 41.58 51.17 41.45 54.04 41.68 C 53.98 43.23 53.94 44.78 53.91 46.34 C 51.05 46.34 48.19 46.36 45.35 46.13 C 45.37 44.56 45.40 42.99 45.44 41.41 Z" />
</g>
<g id="#fffeffff">
<path fill="#fffeff" opacity="1.00" d=" M 10.32 3.94 C 11.96 3.94 13.60 3.94 15.24 3.94 C 15.26 5.84 15.30 7.73 15.33 9.62 C 26.44 9.58 37.56 9.59 48.67 9.62 C 48.69 7.73 48.71 5.84 48.73 3.94 C 50.38 3.94 52.03 3.94 53.68 3.94 C 53.67 8.93 53.70 13.92 53.66 18.90 C 54.58 18.96 56.41 19.08 57.33 19.14 C 57.32 20.84 57.31 22.54 57.31 24.24 C 56.07 24.29 54.84 24.33 53.61 24.36 C 53.70 27.46 53.72 30.56 53.60 33.66 C 54.80 34.56 56.02 35.45 57.30 36.25 C 57.11 42.41 57.72 48.56 57.39 54.71 C 56.86 54.70 55.81 54.67 55.28 54.66 C 55.32 55.73 55.36 56.79 55.41 57.86 C 53.83 60.25 51.16 60.26 48.69 59.41 C 48.17 57.84 47.73 56.24 47.44 54.61 C 37.14 54.73 26.85 54.74 16.55 54.61 C 16.25 56.23 15.82 57.83 15.29 59.39 C 12.82 60.26 10.18 60.29 8.58 57.86 C 8.63 56.82 8.68 55.77 8.72 54.73 C 8.14 54.67 6.97 54.55 6.39 54.49 C 6.49 48.66 6.23 42.81 6.49 36.99 C 7.55 35.60 9.03 34.65 10.39 33.59 C 10.29 30.52 10.28 27.44 10.39 24.36 C 9.16 24.33 7.92 24.29 6.69 24.25 C 6.68 22.55 6.68 20.85 6.67 19.15 C 7.58 19.09 9.42 18.96 10.34 18.90 C 10.30 13.91 10.33 8.93 10.32 3.94 M 15.06 16.68 C 15.06 19.80 15.06 22.91 15.09 26.02 C 26.36 26.01 37.64 26.04 48.91 26.02 C 48.94 22.90 48.94 19.79 48.94 16.68 C 37.65 16.73 26.35 16.73 15.06 16.68 M 21.67 31.30 C 21.66 37.40 21.73 43.51 21.64 49.61 C 28.55 49.59 35.45 49.59 42.36 49.61 C 42.27 43.51 42.34 37.40 42.33 31.30 C 35.44 31.24 28.56 31.24 21.67 31.30 M 9.97 41.67 C 10.02 43.23 10.06 44.78 10.09 46.34 C 12.94 46.33 15.79 46.35 18.63 46.16 C 18.62 44.58 18.60 42.99 18.58 41.41 C 15.71 41.57 12.83 41.47 9.97 41.67 M 45.44 41.41 C 45.40 42.99 45.37 44.56 45.35 46.13 C 48.19 46.36 51.05 46.34 53.91 46.34 C 53.94 44.78 53.98 43.23 54.04 41.68 C 51.17 41.45 48.30 41.58 45.44 41.41 Z" />
</g>
</svg>
