<?xml version="1.0" encoding="UTF-8" ?>
<!DOCTYPE svg PUBLIC "-//W3C//DTD SVG 1.1//EN" "http://www.w3.org/Graphics/SVG/1.1/DTD/svg11.dtd">
<svg width="64pt" height="64pt" viewBox="0 0 64 64" version="1.1" xmlns="http://www.w3.org/2000/svg">
<g id="#020202ff">
<path fill="#020202" opacity="1.00" d=" M 38.04 7.89 C 39.93 5.09 43.87 4.63 46.69 6.20 C 48.12 7.48 49.07 9.25 49.67 11.05 C 48.05 16.44 52.70 20.60 54.99 25.01 C 58.45 25.15 60.93 28.74 60.71 32.01 C 60.05 35.05 57.72 38.24 54.22 37.71 C 51.94 41.49 49.90 45.39 47.60 49.16 C 48.63 51.13 49.87 52.98 50.77 55.02 C 51.56 58.35 47.04 58.25 44.90 58.04 C 42.25 58.12 41.02 55.59 40.02 53.58 C 34.61 53.53 29.21 53.62 23.80 53.53 C 22.64 55.12 21.94 57.28 20.13 58.25 C 17.55 58.60 14.64 59.00 12.42 57.31 C 12.88 54.26 14.61 51.69 16.08 49.06 C 13.81 45.27 11.69 41.40 9.26 37.72 C 6.24 38.02 4.50 35.39 3.48 32.94 C 2.50 29.36 5.26 25.42 8.87 24.81 C 10.85 21.75 12.70 18.60 14.44 15.40 C 15.24 13.85 13.82 12.04 14.50 10.44 C 15.36 8.65 16.31 6.61 18.17 5.68 C 20.07 5.47 22.00 5.61 23.91 5.64 C 24.57 6.42 25.23 7.21 25.89 7.99 C 29.94 7.86 33.99 7.84 38.04 7.89 M 16.61 11.97 C 17.37 13.27 17.63 14.65 17.37 16.11 C 14.19 19.10 12.84 23.91 10.12 27.48 C 9.35 27.53 7.81 27.64 7.04 27.69 C 6.51 28.92 5.92 30.12 5.28 31.29 C 5.88 32.47 6.43 33.68 7.21 34.75 C 8.67 35.47 10.49 35.11 11.72 36.35 C 12.90 39.24 14.60 41.86 16.23 44.51 L 16.95 44.46 L 16.16 44.66 C 17.13 46.18 18.03 47.74 18.80 49.37 C 17.25 51.54 15.96 53.89 14.93 56.36 C 16.01 56.34 18.19 56.29 19.28 56.26 C 20.29 54.60 21.31 52.94 22.32 51.27 C 28.70 51.29 35.08 51.22 41.46 51.32 C 42.28 52.74 43.05 54.20 43.78 55.67 C 45.31 55.69 46.83 55.71 48.36 55.72 C 47.40 53.17 45.43 51.02 45.10 48.25 C 47.19 45.62 48.79 42.64 50.21 39.61 L 50.50 39.60 C 51.70 37.92 52.24 34.75 54.95 35.26 C 57.32 35.53 57.77 32.77 58.71 31.24 C 58.06 30.12 57.49 28.95 57.00 27.75 C 55.57 27.38 54.12 27.28 52.66 27.43 L 53.32 27.23 C 51.31 23.25 48.87 19.52 46.84 15.57 L 46.16 15.66 C 46.37 14.33 46.86 13.08 47.55 11.92 C 46.81 10.41 45.96 8.96 45.02 7.57 C 43.65 7.64 42.29 7.71 40.92 7.76 C 40.65 8.40 40.12 9.69 39.85 10.33 C 34.61 10.30 29.36 10.32 24.11 10.31 C 23.86 9.68 23.36 8.42 23.11 7.78 C 21.73 7.73 20.35 7.66 18.97 7.58 C 18.12 9.00 16.91 10.29 16.61 11.97 Z" />
<path fill="#020202" opacity="1.00" d=" M 25.32 15.45 C 25.37 15.25 25.47 14.83 25.52 14.63 C 29.96 14.74 34.41 14.70 38.85 14.64 L 38.08 15.98 C 37.09 17.72 36.03 19.42 35.02 21.14 C 33.98 23.05 32.94 24.95 31.76 26.78 C 30.70 24.92 29.73 23.00 28.68 21.12 C 27.55 19.24 26.37 17.38 25.32 15.45 Z" />
<path fill="#020202" opacity="1.00" d=" M 21.45 16.94 C 23.22 19.39 24.58 22.09 25.98 24.76 C 26.75 26.10 27.59 27.39 28.41 28.70 C 23.82 28.67 19.22 28.93 14.65 28.51 C 16.77 24.57 19.09 20.74 21.45 16.94 Z" />
<path fill="#020202" opacity="1.00" d=" M 37.49 24.93 C 39.14 22.26 40.68 19.53 42.42 16.92 C 44.84 20.69 46.86 24.69 49.15 28.53 C 44.56 29.04 39.92 28.31 35.35 29.13 C 35.89 27.65 36.73 26.30 37.49 24.93 Z" />
<path fill="#020202" opacity="1.00" d=" M 14.72 32.74 C 19.30 32.72 23.89 32.66 28.48 32.76 C 27.84 33.77 27.22 34.78 26.61 35.81 C 25.04 38.65 23.35 41.43 21.70 44.23 C 21.53 44.23 21.19 44.23 21.02 44.22 C 19.41 41.40 17.75 38.60 16.18 35.75 C 15.67 34.76 15.18 33.76 14.72 32.74 Z" />
<path fill="#020202" opacity="1.00" d=" M 35.41 32.77 C 39.97 32.71 44.55 32.55 49.09 33.05 C 47.89 35.33 46.61 37.56 45.27 39.76 C 44.53 41.01 43.82 42.28 43.11 43.54 C 42.94 43.85 42.60 44.45 42.43 44.76 C 42.25 44.49 41.87 43.96 41.68 43.69 C 40.09 41.09 38.60 38.43 37.05 35.80 C 36.50 34.80 35.95 33.78 35.41 32.77 Z" />
<path fill="#020202" opacity="1.00" d=" M 31.81 35.06 C 32.00 35.30 32.38 35.78 32.58 36.02 C 34.28 38.58 35.58 41.37 37.14 44.02 C 37.65 44.91 38.17 45.79 38.69 46.68 C 34.09 46.68 29.49 46.66 24.90 46.74 C 25.40 45.90 25.91 45.05 26.41 44.20 C 28.08 41.43 29.62 38.59 31.28 35.82 L 31.81 35.06 Z" />
</g>
<g id="#f5f87bff">
<path fill="#f5f87b" opacity="1.00" d=" M 16.61 11.97 C 16.91 10.29 18.12 9.00 18.97 7.58 C 20.35 7.66 21.73 7.73 23.11 7.78 C 23.36 8.42 23.86 9.68 24.11 10.31 C 29.36 10.32 34.61 10.30 39.85 10.33 C 40.12 9.69 40.65 8.40 40.92 7.76 C 42.29 7.71 43.65 7.64 45.02 7.57 C 45.96 8.96 46.81 10.41 47.55 11.92 C 46.86 13.08 46.37 14.33 46.16 15.66 C 43.49 16.11 40.78 16.18 38.08 15.98 L 38.85 14.64 C 34.41 14.70 29.96 14.74 25.52 14.63 C 25.47 14.83 25.37 15.25 25.32 15.45 C 22.72 16.10 20.03 16.06 17.37 16.11 C 17.63 14.65 17.37 13.27 16.61 11.97 Z" />
</g>
<g id="#e3f48eff">
<path fill="#e3f48e" opacity="1.00" d=" M 17.37 16.11 C 20.03 16.06 22.72 16.10 25.32 15.45 C 26.37 17.38 27.55 19.24 28.68 21.12 C 28.36 22.77 27.66 24.19 25.98 24.76 C 24.58 22.09 23.22 19.39 21.45 16.94 C 19.09 20.74 16.77 24.57 14.65 28.51 C 13.13 28.19 11.64 27.79 10.12 27.48 C 12.84 23.91 14.19 19.10 17.37 16.11 Z" />
<path fill="#e3f48e" opacity="1.00" d=" M 38.08 15.98 C 40.78 16.18 43.49 16.11 46.16 15.66 L 46.84 15.57 C 48.87 19.52 51.31 23.25 53.32 27.23 L 52.66 27.43 C 51.49 27.79 50.32 28.16 49.15 28.53 C 46.86 24.69 44.84 20.69 42.42 16.92 C 40.68 19.53 39.14 22.26 37.49 24.93 C 36.69 23.65 35.87 22.39 35.02 21.14 C 36.03 19.42 37.09 17.72 38.08 15.98 Z" />
</g>
<g id="#c7f4b0ff">
<path fill="#c7f4b0" opacity="1.00" d=" M 28.68 21.12 C 29.73 23.00 30.70 24.92 31.76 26.78 C 32.94 24.95 33.98 23.05 35.02 21.14 C 35.87 22.39 36.69 23.65 37.49 24.93 C 36.73 26.30 35.89 27.65 35.35 29.13 C 39.92 28.31 44.56 29.04 49.15 28.53 C 50.32 28.16 51.49 27.79 52.66 27.43 C 54.12 27.28 55.57 27.38 57.00 27.75 C 57.49 28.95 58.06 30.12 58.71 31.24 C 57.77 32.77 57.32 35.53 54.95 35.26 C 52.24 34.75 51.70 37.92 50.50 39.60 L 50.21 39.61 C 48.56 39.65 46.91 39.70 45.27 39.76 C 46.61 37.56 47.89 35.33 49.09 33.05 C 44.55 32.55 39.97 32.71 35.41 32.77 C 35.95 33.78 36.50 34.80 37.05 35.80 C 35.56 35.87 34.07 35.94 32.58 36.02 C 32.38 35.78 32.00 35.30 31.81 35.06 L 31.28 35.82 C 29.72 35.83 28.17 35.83 26.61 35.81 C 27.22 34.78 27.84 33.77 28.48 32.76 C 23.89 32.66 19.30 32.72 14.72 32.74 C 15.18 33.76 15.67 34.76 16.18 35.75 C 14.70 35.99 13.21 36.19 11.72 36.35 C 10.49 35.11 8.67 35.47 7.21 34.75 C 6.43 33.68 5.88 32.47 5.28 31.29 C 5.92 30.12 6.51 28.92 7.04 27.69 C 7.81 27.64 9.35 27.53 10.12 27.48 C 11.64 27.79 13.13 28.19 14.65 28.51 C 19.22 28.93 23.82 28.67 28.41 28.70 C 27.59 27.39 26.75 26.10 25.98 24.76 C 27.66 24.19 28.36 22.77 28.68 21.12 Z" />
</g>
<g id="#adf0cbff">
<path fill="#adf0cb" opacity="1.00" d=" M 11.72 36.35 C 13.21 36.19 14.70 35.99 16.18 35.75 C 17.75 38.60 19.41 41.40 21.02 44.22 C 20.00 44.28 17.97 44.40 16.95 44.46 L 16.23 44.51 C 14.60 41.86 12.90 39.24 11.72 36.35 Z" />
<path fill="#adf0cb" opacity="1.00" d=" M 26.61 35.81 C 28.17 35.83 29.72 35.83 31.28 35.82 C 29.62 38.59 28.08 41.43 26.41 44.20 C 24.84 44.22 23.27 44.23 21.70 44.23 C 23.35 41.43 25.04 38.65 26.61 35.81 Z" />
<path fill="#adf0cb" opacity="1.00" d=" M 32.58 36.02 C 34.07 35.94 35.56 35.87 37.05 35.80 C 38.60 38.43 40.09 41.09 41.68 43.69 C 40.17 43.78 38.65 43.89 37.14 44.02 C 35.58 41.37 34.28 38.58 32.58 36.02 Z" />
<path fill="#adf0cb" opacity="1.00" d=" M 45.27 39.76 C 46.91 39.70 48.56 39.65 50.21 39.61 C 48.79 42.64 47.19 45.62 45.10 48.25 C 44.57 46.63 43.84 45.08 43.11 43.54 C 43.82 42.28 44.53 41.01 45.27 39.76 Z" />
</g>
<g id="#99efe6ff">
<path fill="#99efe6" opacity="1.00" d=" M 16.95 44.46 C 17.97 44.40 20.00 44.28 21.02 44.22 C 21.19 44.23 21.53 44.23 21.70 44.23 C 23.27 44.23 24.84 44.22 26.41 44.20 C 25.91 45.05 25.40 45.90 24.90 46.74 C 29.49 46.66 34.09 46.68 38.69 46.68 C 38.17 45.79 37.65 44.91 37.14 44.02 C 38.65 43.89 40.17 43.78 41.68 43.69 C 41.87 43.96 42.25 44.49 42.43 44.76 C 42.60 44.45 42.94 43.85 43.11 43.54 C 43.84 45.08 44.57 46.63 45.10 48.25 C 45.43 51.02 47.40 53.17 48.36 55.72 C 46.83 55.71 45.31 55.69 43.78 55.67 C 43.05 54.20 42.28 52.74 41.46 51.32 C 35.08 51.22 28.70 51.29 22.32 51.27 C 21.31 52.94 20.29 54.60 19.28 56.26 C 18.19 56.29 16.01 56.34 14.93 56.36 C 15.96 53.89 17.25 51.54 18.80 49.37 C 18.03 47.74 17.13 46.18 16.16 44.66 L 16.95 44.46 Z" />
</g>
</svg>
