<?xml version="1.0" encoding="UTF-8" ?>
<!DOCTYPE svg PUBLIC "-//W3C//DTD SVG 1.1//EN" "http://www.w3.org/Graphics/SVG/1.1/DTD/svg11.dtd">
<svg width="64pt" height="64pt" viewBox="0 0 64 64" version="1.1" xmlns="http://www.w3.org/2000/svg">
<g id="#080808fe">
<path fill="#080808" opacity="1.00" d=" M 11.35 9.43 C 24.57 9.40 37.84 9.77 51.08 9.38 C 52.80 9.09 54.90 10.00 54.71 12.04 C 54.26 25.34 54.41 38.67 54.67 51.96 C 54.78 53.97 52.72 54.94 50.98 54.73 C 38.03 54.23 25.06 54.47 12.11 54.61 C 10.11 54.87 8.96 52.85 9.23 51.07 C 9.72 38.38 9.65 25.66 9.28 12.97 C 9.19 11.54 9.66 9.64 11.35 9.43 M 11.78 11.75 C 11.77 13.14 11.75 14.53 11.74 15.91 C 25.25 15.96 38.76 15.96 52.26 15.91 C 52.25 14.52 52.23 13.13 52.22 11.74 C 38.74 11.74 25.26 11.74 11.78 11.75 M 11.74 18.35 C 11.72 27.45 11.78 36.55 11.71 45.64 C 13.14 45.65 14.56 45.67 15.98 45.68 C 15.92 36.56 15.92 27.44 15.98 18.33 C 14.57 18.33 13.16 18.34 11.74 18.35 M 18.24 18.24 C 18.38 25.47 18.36 32.70 18.26 39.93 C 25.15 32.42 32.46 25.24 39.88 18.24 C 32.67 18.37 25.45 18.38 18.24 18.24 M 42.76 18.42 C 34.63 26.52 26.52 34.63 18.42 42.76 C 18.34 43.78 18.27 44.80 18.19 45.82 C 19.21 45.74 20.22 45.66 21.24 45.58 C 29.37 37.49 37.47 29.37 45.57 21.25 C 45.65 20.23 45.74 19.21 45.82 18.19 C 44.80 18.26 43.78 18.34 42.76 18.42 M 48.02 18.33 C 48.08 27.44 48.09 36.56 48.01 45.67 C 49.43 45.66 50.84 45.66 52.25 45.65 C 52.27 36.55 52.25 27.45 52.27 18.35 C 50.85 18.34 49.43 18.33 48.02 18.33 M 28.59 41.59 C 26.92 43.18 25.46 45.32 22.99 45.68 C 30.58 45.71 38.17 45.59 45.76 45.77 C 45.63 38.56 45.62 31.34 45.76 24.13 C 40.31 30.21 34.25 35.71 28.59 41.59 M 11.74 48.09 C 11.75 49.47 11.77 50.85 11.78 52.23 C 25.26 52.28 38.74 52.28 52.22 52.23 C 52.23 50.85 52.25 49.47 52.27 48.09 C 38.76 48.03 25.25 48.04 11.74 48.09 Z" />
</g>
<g id="#fdfdfdff">
<path fill="#fdfdfd" opacity="1.00" d=" M 11.78 11.75 C 25.26 11.74 38.74 11.74 52.22 11.74 C 52.23 13.13 52.25 14.52 52.26 15.91 C 38.76 15.96 25.25 15.96 11.74 15.91 C 11.75 14.53 11.77 13.14 11.78 11.75 Z" />
<path fill="#fdfdfd" opacity="1.00" d=" M 11.74 18.35 C 13.16 18.34 14.57 18.33 15.98 18.33 C 15.92 27.44 15.92 36.56 15.98 45.68 C 14.56 45.67 13.14 45.65 11.71 45.64 C 11.78 36.55 11.72 27.45 11.74 18.35 Z" />
<path fill="#fdfdfd" opacity="1.00" d=" M 18.24 18.24 C 25.45 18.38 32.67 18.37 39.88 18.24 C 32.46 25.24 25.15 32.42 18.26 39.93 C 18.36 32.70 18.38 25.47 18.24 18.24 Z" />
<path fill="#fdfdfd" opacity="1.00" d=" M 42.76 18.42 C 43.78 18.34 44.80 18.26 45.82 18.19 C 45.74 19.21 45.65 20.23 45.57 21.25 C 37.47 29.37 29.37 37.49 21.24 45.58 C 20.22 45.66 19.21 45.74 18.19 45.82 C 18.27 44.80 18.34 43.78 18.42 42.76 C 26.52 34.63 34.63 26.52 42.76 18.42 Z" />
<path fill="#fdfdfd" opacity="1.00" d=" M 48.02 18.33 C 49.43 18.33 50.85 18.34 52.27 18.35 C 52.25 27.45 52.27 36.55 52.25 45.65 C 50.84 45.66 49.43 45.66 48.01 45.67 C 48.09 36.56 48.08 27.44 48.02 18.33 Z" />
<path fill="#fdfdfd" opacity="1.00" d=" M 28.59 41.59 C 34.25 35.71 40.31 30.21 45.76 24.13 C 45.62 31.34 45.63 38.56 45.76 45.77 C 38.17 45.59 30.58 45.71 22.99 45.68 C 25.46 45.32 26.92 43.18 28.59 41.59 Z" />
<path fill="#fdfdfd" opacity="1.00" d=" M 11.74 48.09 C 25.25 48.04 38.76 48.03 52.27 48.09 C 52.25 49.47 52.23 50.85 52.22 52.23 C 38.74 52.28 25.26 52.28 11.78 52.23 C 11.77 50.85 11.75 49.47 11.74 48.09 Z" />
</g>
</svg>
