<?xml version="1.0" encoding="UTF-8" ?>
<!DOCTYPE svg PUBLIC "-//W3C//DTD SVG 1.1//EN" "http://www.w3.org/Graphics/SVG/1.1/DTD/svg11.dtd">
<svg width="64pt" height="64pt" viewBox="0 0 64 64" version="1.1" xmlns="http://www.w3.org/2000/svg">
<g id="#010101ff">
<path fill="#010101" opacity="1.00" d=" M 2.50 3.41 C 4.20 2.50 6.19 2.74 8.05 2.67 C 21.40 2.80 34.74 2.60 48.09 2.75 C 49.46 2.46 50.50 3.87 50.31 5.11 C 50.46 15.39 50.15 25.67 50.46 35.94 C 54.02 37.24 53.25 41.02 53.35 44.07 C 56.80 44.99 60.43 46.88 61.35 50.64 C 63.36 56.43 58.01 62.92 51.96 62.24 C 48.02 62.03 45.32 58.84 43.74 55.53 C 41.76 59.52 37.79 63.14 33.00 62.14 C 27.21 61.52 23.72 54.39 26.40 49.34 C 27.47 46.65 30.26 45.45 32.65 44.20 C 32.48 41.98 32.74 39.77 33.43 37.66 C 36.52 37.98 39.60 38.45 42.66 38.96 C 43.08 40.04 43.49 41.12 43.91 42.19 C 44.33 40.46 44.74 38.73 45.16 37.00 C 34.43 36.79 23.70 37.45 12.97 36.95 C 13.10 43.82 13.15 50.69 13.24 57.56 C 9.66 58.06 6.02 58.11 2.42 57.67 C 2.09 42.78 2.38 27.88 2.27 12.98 C 2.30 9.79 2.08 6.58 2.50 3.41 M 4.61 4.88 C 4.51 8.81 4.49 12.75 4.49 16.68 C 4.44 29.67 4.58 42.66 4.56 55.66 C 6.67 55.65 8.78 55.63 10.89 55.63 C 10.80 48.77 11.08 41.92 11.06 35.06 C 15.15 35.08 19.24 35.06 23.33 34.97 C 23.26 31.64 23.28 28.31 23.37 24.98 C 19.27 24.93 15.17 24.92 11.06 24.94 C 11.07 21.96 11.13 18.97 10.87 16.00 L 11.70 14.68 C 15.61 14.70 19.51 14.67 23.42 14.70 C 23.25 11.47 23.27 8.24 23.34 5.01 C 17.10 4.88 10.85 4.99 4.61 4.88 M 35.94 4.94 C 35.93 8.19 35.95 11.44 35.97 14.69 C 40.00 14.69 44.03 14.68 48.06 14.68 C 48.06 11.43 48.06 8.19 48.05 4.94 C 44.01 4.94 39.97 4.94 35.94 4.94 M 23.58 15.08 C 23.51 18.28 23.53 21.47 23.53 24.67 C 27.58 24.67 31.62 24.67 35.67 24.67 C 35.68 21.47 35.70 18.27 35.70 15.08 C 31.66 15.06 27.62 15.06 23.58 15.08 M 35.97 24.93 C 35.95 28.31 35.93 31.69 35.94 35.06 C 39.97 35.06 44.00 35.05 48.03 35.06 C 48.09 31.68 48.12 28.31 48.05 24.93 C 44.03 24.93 40.00 24.93 35.97 24.93 M 45.96 38.59 C 46.38 40.11 47.23 41.31 48.50 42.21 L 48.69 43.41 C 45.95 43.48 43.21 43.63 40.47 43.82 C 40.65 42.69 40.82 41.57 40.98 40.44 C 38.88 40.33 36.78 40.20 34.68 40.07 C 34.67 40.75 34.66 42.11 34.65 42.80 C 35.40 42.87 36.90 43.01 37.65 43.08 C 37.67 44.48 37.70 45.89 37.73 47.29 C 35.40 46.57 32.97 46.74 30.62 47.27 C 29.57 48.79 28.52 50.31 27.53 51.86 C 27.64 55.79 30.13 60.40 34.66 59.93 C 39.36 60.18 40.54 54.87 43.59 52.41 L 42.86 52.41 C 43.81 52.09 45.71 51.47 46.66 51.16 L 45.88 52.67 C 46.52 55.47 47.45 58.96 50.77 59.57 C 54.14 61.15 57.04 58.39 59.22 56.15 C 59.29 54.60 59.35 53.04 59.42 51.49 C 58.02 48.02 54.59 46.49 51.02 46.39 C 50.98 43.83 50.94 41.28 50.90 38.72 C 49.25 38.67 47.60 38.62 45.96 38.59 Z" />
<path fill="#010101" opacity="1.00" d=" M 40.38 46.80 C 42.73 46.56 45.09 46.41 47.45 46.26 C 45.11 47.73 42.73 49.14 40.39 50.60 C 40.39 49.33 40.38 48.06 40.38 46.80 Z" />
<path fill="#010101" opacity="1.00" d=" M 30.83 51.60 C 32.35 49.42 34.89 49.53 37.23 50.05 C 37.41 50.60 37.77 51.71 37.94 52.27 C 38.05 52.66 38.26 53.45 38.36 53.84 C 37.56 55.06 36.69 56.24 35.82 57.41 C 34.03 56.74 32.25 56.05 30.48 55.34 C 30.56 54.41 30.74 52.53 30.83 51.60 M 34.12 52.04 C 32.47 52.49 33.38 55.11 34.96 54.42 C 36.60 53.97 35.69 51.35 34.12 52.04 Z" />
<path fill="#010101" opacity="1.00" d=" M 48.83 52.06 C 49.74 51.11 50.64 50.16 51.54 49.21 C 53.47 49.87 55.36 50.68 56.97 51.96 C 56.67 55.04 54.65 57.10 51.56 57.34 C 51.06 56.88 50.05 55.95 49.55 55.48 C 49.31 54.34 49.07 53.20 48.83 52.06 M 52.01 52.54 C 51.56 53.93 52.04 54.42 53.46 53.98 C 53.90 52.58 53.42 52.10 52.01 52.54 Z" />
</g>
<g id="#f7f7f7ff">
<path fill="#f7f7f7" opacity="1.00" d=" M 4.61 4.88 C 10.85 4.99 17.10 4.88 23.34 5.01 C 23.27 8.24 23.25 11.47 23.42 14.70 C 19.51 14.67 15.61 14.70 11.70 14.68 L 10.87 16.00 C 8.76 16.34 6.62 16.50 4.49 16.68 C 4.49 12.75 4.51 8.81 4.61 4.88 Z" />
<path fill="#f7f7f7" opacity="1.00" d=" M 35.94 4.94 C 39.97 4.94 44.01 4.94 48.05 4.94 C 48.06 8.19 48.06 11.43 48.06 14.68 C 44.03 14.68 40.00 14.69 35.97 14.69 C 35.95 11.44 35.93 8.19 35.94 4.94 Z" />
<path fill="#f7f7f7" opacity="1.00" d=" M 23.58 15.08 C 27.62 15.06 31.66 15.06 35.70 15.08 C 35.70 18.27 35.68 21.47 35.67 24.67 C 31.62 24.67 27.58 24.67 23.53 24.67 C 23.53 21.47 23.51 18.28 23.58 15.08 Z" />
</g>
<g id="#dadcdaff">
<path fill="#dadcda" opacity="1.00" d=" M 4.49 16.68 C 6.62 16.50 8.76 16.34 10.87 16.00 C 11.13 18.97 11.07 21.96 11.06 24.94 C 15.17 24.92 19.27 24.93 23.37 24.98 C 23.28 28.31 23.26 31.64 23.33 34.97 C 19.24 35.06 15.15 35.08 11.06 35.06 C 11.08 41.92 10.80 48.77 10.89 55.63 C 8.78 55.63 6.67 55.65 4.56 55.66 C 4.58 42.66 4.44 29.67 4.49 16.68 Z" />
<path fill="#dadcda" opacity="1.00" d=" M 35.97 24.93 C 40.00 24.93 44.03 24.93 48.05 24.93 C 48.12 28.31 48.09 31.68 48.03 35.06 C 44.00 35.05 39.97 35.06 35.94 35.06 C 35.93 31.69 35.95 28.31 35.97 24.93 Z" />
</g>
<g id="#02020295">
<path fill="#020202" opacity="0.58" d=" M 12.97 36.95 C 23.70 37.45 34.43 36.79 45.16 37.00 C 44.74 38.73 44.33 40.46 43.91 42.19 C 43.49 41.12 43.08 40.04 42.66 38.96 C 39.60 38.45 36.52 37.98 33.43 37.66 C 27.45 37.17 21.44 37.45 15.44 37.43 C 15.50 37.99 15.61 39.12 15.67 39.68 C 15.11 39.62 13.99 39.50 13.42 39.44 C 13.44 45.48 13.45 51.52 13.24 57.56 C 13.15 50.69 13.10 43.82 12.97 36.95 Z" />
</g>
<g id="#99cf91ff">
<path fill="#99cf91" opacity="1.00" d=" M 45.96 38.59 C 47.60 38.62 49.25 38.67 50.90 38.72 C 50.94 41.28 50.98 43.83 51.02 46.39 C 54.59 46.49 58.02 48.02 59.42 51.49 C 58.80 51.61 57.58 51.84 56.97 51.96 C 55.36 50.68 53.47 49.87 51.54 49.21 C 50.64 50.16 49.74 51.11 48.83 52.06 C 47.85 52.26 46.86 52.47 45.88 52.67 L 46.66 51.16 C 45.71 51.47 43.81 52.09 42.86 52.41 C 41.22 52.41 39.58 52.33 37.94 52.27 C 37.77 51.71 37.41 50.60 37.23 50.05 C 34.89 49.53 32.35 49.42 30.83 51.60 C 30.00 51.66 28.35 51.80 27.53 51.86 C 28.52 50.31 29.57 48.79 30.62 47.27 C 32.97 46.74 35.40 46.57 37.73 47.29 C 37.70 45.89 37.67 44.48 37.65 43.08 C 36.90 43.01 35.40 42.87 34.65 42.80 C 34.66 42.11 34.67 40.75 34.68 40.07 C 36.78 40.20 38.88 40.33 40.98 40.44 C 40.82 41.57 40.65 42.69 40.47 43.82 C 43.21 43.63 45.95 43.48 48.69 43.41 L 48.50 42.21 C 47.23 41.31 46.38 40.11 45.96 38.59 M 40.38 46.80 C 40.38 48.06 40.39 49.33 40.39 50.60 C 42.73 49.14 45.11 47.73 47.45 46.26 C 45.09 46.41 42.73 46.56 40.38 46.80 Z" />
</g>
<g id="#d9d469ff">
<path fill="#d9d469" opacity="1.00" d=" M 27.53 51.86 C 28.35 51.80 30.00 51.66 30.83 51.60 C 30.74 52.53 30.56 54.41 30.48 55.34 C 32.25 56.05 34.03 56.74 35.82 57.41 C 36.69 56.24 37.56 55.06 38.36 53.84 C 38.26 53.45 38.05 52.66 37.94 52.27 C 39.58 52.33 41.22 52.41 42.86 52.41 L 43.59 52.41 C 40.54 54.87 39.36 60.18 34.66 59.93 C 30.13 60.40 27.64 55.79 27.53 51.86 Z" />
<path fill="#d9d469" opacity="1.00" d=" M 45.88 52.67 C 46.86 52.47 47.85 52.26 48.83 52.06 C 49.07 53.20 49.31 54.34 49.55 55.48 C 50.05 55.95 51.06 56.88 51.56 57.34 C 54.65 57.10 56.67 55.04 56.97 51.96 C 57.58 51.84 58.80 51.61 59.42 51.49 C 59.35 53.04 59.29 54.60 59.22 56.15 C 57.04 58.39 54.14 61.15 50.77 59.57 C 47.45 58.96 46.52 55.47 45.88 52.67 Z" />
</g>
</svg>
