<?xml version="1.0" encoding="UTF-8" ?>
<!DOCTYPE svg PUBLIC "-//W3C//DTD SVG 1.1//EN" "http://www.w3.org/Graphics/SVG/1.1/DTD/svg11.dtd">
<svg width="64pt" height="64pt" viewBox="0 0 64 64" version="1.1" xmlns="http://www.w3.org/2000/svg">
<g id="#030400ff">
<path fill="#030400" opacity="1.00" d=" M 12.96 16.87 C 18.62 12.82 24.33 8.81 30.25 5.13 C 32.66 3.69 35.53 4.78 37.53 6.41 C 43.69 11.05 50.24 15.14 56.40 19.77 C 59.52 21.91 59.04 26.17 58.65 29.44 C 58.48 32.32 55.25 33.06 53.55 34.83 C 53.43 41.17 53.78 47.52 53.49 53.87 C 53.45 56.66 51.04 59.59 48.07 59.27 C 37.70 59.32 27.33 59.30 16.97 59.28 C 13.98 59.57 11.28 56.99 11.33 54.02 C 11.13 47.57 11.34 41.10 11.25 34.65 C 9.09 33.60 6.19 32.58 5.66 29.92 C 5.44 27.33 5.14 24.54 6.13 22.08 C 7.90 19.77 10.66 18.55 12.96 16.87 M 30.55 7.19 C 26.69 10.21 22.40 12.64 18.41 15.47 C 15.20 17.96 11.87 20.32 8.33 22.33 C 8.00 22.89 7.34 24.02 7.01 24.58 C 6.64 27.34 7.44 30.04 9.33 32.10 C 10.53 32.07 11.73 32.04 12.93 32.02 C 12.89 39.56 12.87 47.11 12.98 54.66 C 13.77 55.44 14.56 56.23 15.34 57.02 C 26.25 57.08 37.15 57.03 48.06 57.04 C 49.49 57.17 51.13 56.59 51.03 54.88 C 51.57 47.28 51.12 39.64 51.23 32.03 C 52.39 32.04 53.55 32.06 54.71 32.08 C 55.48 30.91 56.24 29.73 57.00 28.56 C 56.98 26.83 56.96 25.11 56.97 23.38 C 53.97 20.48 50.48 18.13 47.07 15.75 C 42.72 13.12 38.92 9.71 34.51 7.16 C 33.19 7.17 31.87 7.18 30.55 7.19 Z" />
<path fill="#030400" opacity="1.00" d=" M 28.05 19.42 C 29.30 17.90 31.45 17.66 33.10 16.74 C 34.87 17.78 36.56 18.96 38.11 20.31 C 38.07 22.06 38.05 23.80 38.03 25.54 C 37.02 26.51 36.01 27.47 35.00 28.44 C 35.02 34.41 34.97 40.38 35.02 46.35 C 38.91 44.99 41.35 41.38 43.26 37.94 C 42.60 37.93 41.28 37.92 40.62 37.91 C 41.82 35.17 44.06 32.99 46.70 31.64 C 46.85 33.04 47.24 34.36 47.88 35.60 C 47.92 36.54 47.94 37.49 47.96 38.43 C 47.09 39.35 46.29 40.35 45.70 41.48 C 44.35 44.32 42.24 46.85 39.43 48.32 C 38.92 48.58 37.90 49.11 37.39 49.37 C 34.95 50.46 32.18 49.90 29.60 49.89 C 28.62 49.31 27.57 48.93 26.44 48.76 C 24.36 46.83 22.11 44.97 20.69 42.46 C 20.22 40.52 18.83 38.98 16.82 38.58 C 17.00 37.48 17.34 36.43 17.84 35.43 C 17.89 34.93 17.99 33.91 18.04 33.41 C 18.42 33.03 19.16 32.27 19.53 31.89 C 21.09 33.00 22.62 34.15 24.10 35.37 C 24.03 35.88 23.91 36.90 23.84 37.40 C 23.00 38.38 22.89 39.43 23.53 40.55 C 24.78 42.53 26.38 44.29 28.48 45.39 C 29.11 45.61 30.37 46.04 31.00 46.25 C 31.00 40.31 30.99 34.37 31.00 28.43 C 29.98 27.49 28.97 26.54 27.95 25.60 C 27.93 23.54 27.78 21.46 28.05 19.42 M 31.08 21.01 C 31.07 22.34 31.06 23.66 31.05 24.99 C 31.68 25.00 32.94 25.00 33.57 25.00 C 34.01 24.51 34.90 23.51 35.34 23.02 C 34.90 22.51 34.00 21.50 33.55 20.99 C 32.93 20.99 31.70 21.00 31.08 21.01 Z" />
</g>
<g id="#469dceff">
<path fill="#469dce" opacity="1.00" d=" M 30.55 7.19 C 31.87 7.18 33.19 7.17 34.51 7.16 C 38.92 9.71 42.72 13.12 47.07 15.75 C 50.48 18.13 53.97 20.48 56.97 23.38 C 56.96 25.11 56.98 26.83 57.00 28.56 C 56.24 29.73 55.48 30.91 54.71 32.08 C 53.55 32.06 52.39 32.04 51.23 32.03 C 51.12 39.64 51.57 47.28 51.03 54.88 C 51.13 56.59 49.49 57.17 48.06 57.04 C 37.15 57.03 26.25 57.08 15.34 57.02 C 14.56 56.23 13.77 55.44 12.98 54.66 C 12.87 47.11 12.89 39.56 12.93 32.02 C 11.73 32.04 10.53 32.07 9.33 32.10 C 7.44 30.04 6.64 27.34 7.01 24.58 C 7.34 24.02 8.00 22.89 8.33 22.33 C 11.87 20.32 15.20 17.96 18.41 15.47 C 22.40 12.64 26.69 10.21 30.55 7.19 M 28.05 19.42 C 27.78 21.46 27.93 23.54 27.95 25.60 C 28.97 26.54 29.98 27.49 31.00 28.43 C 30.99 34.37 31.00 40.31 31.00 46.25 C 30.37 46.04 29.11 45.61 28.48 45.39 C 26.38 44.29 24.78 42.53 23.53 40.55 C 22.89 39.43 23.00 38.38 23.84 37.40 C 23.91 36.90 24.03 35.88 24.10 35.37 C 22.62 34.15 21.09 33.00 19.53 31.89 C 19.16 32.27 18.42 33.03 18.04 33.41 C 17.99 33.91 17.89 34.93 17.84 35.43 C 17.34 36.43 17.00 37.48 16.82 38.58 C 18.83 38.98 20.22 40.52 20.69 42.46 C 22.11 44.97 24.36 46.83 26.44 48.76 C 27.57 48.93 28.62 49.31 29.60 49.89 C 32.18 49.90 34.95 50.46 37.39 49.37 C 37.90 49.11 38.92 48.58 39.43 48.32 C 42.24 46.85 44.35 44.32 45.70 41.48 C 46.29 40.35 47.09 39.35 47.96 38.43 C 47.94 37.49 47.92 36.54 47.88 35.60 C 47.24 34.36 46.85 33.04 46.70 31.64 C 44.06 32.99 41.82 35.17 40.62 37.91 C 41.28 37.92 42.60 37.93 43.26 37.94 C 41.35 41.38 38.91 44.99 35.02 46.35 C 34.97 40.38 35.02 34.41 35.00 28.44 C 36.01 27.47 37.02 26.51 38.03 25.54 C 38.05 23.80 38.07 22.06 38.11 20.31 C 36.56 18.96 34.87 17.78 33.10 16.74 C 31.45 17.66 29.30 17.90 28.05 19.42 Z" />
<path fill="#469dce" opacity="1.00" d=" M 31.08 21.01 C 31.70 21.00 32.93 20.99 33.55 20.99 C 34.00 21.50 34.90 22.51 35.34 23.02 C 34.90 23.51 34.01 24.51 33.57 25.00 C 32.94 25.00 31.68 25.00 31.05 24.99 C 31.06 23.66 31.07 22.34 31.08 21.01 Z" />
</g>
</svg>
