<?xml version="1.0" encoding="UTF-8" ?>
<!DOCTYPE svg PUBLIC "-//W3C//DTD SVG 1.1//EN" "http://www.w3.org/Graphics/SVG/1.1/DTD/svg11.dtd">
<svg width="64pt" height="64pt" viewBox="0 0 64 64" version="1.1" xmlns="http://www.w3.org/2000/svg">
<g id="#040404ff">
<path fill="#040404" opacity="1.00" d=" M 24.40 16.58 C 36.71 12.89 51.83 18.90 56.69 31.14 C 56.66 35.78 52.76 39.48 49.51 42.41 C 37.16 52.78 15.84 49.40 8.20 34.91 C 6.52 32.71 7.38 29.90 8.90 27.89 C 12.34 22.30 18.06 18.23 24.40 16.58 M 9.40 32.08 C 13.77 42.25 25.85 47.87 36.53 45.75 C 44.28 44.44 51.52 39.36 54.59 32.00 C 50.76 22.71 40.44 17.38 30.67 17.77 C 21.79 18.45 12.77 23.52 9.40 32.08 Z" />
<path fill="#040404" opacity="1.00" d=" M 24.55 25.61 C 27.60 22.00 33.21 21.35 37.21 23.75 C 32.92 28.41 28.38 32.86 23.78 37.22 C 21.62 33.63 21.86 28.85 24.55 25.61 Z" />
<path fill="#040404" opacity="1.00" d=" M 26.86 40.40 C 30.87 35.49 35.67 31.26 40.18 26.80 C 43.30 31.52 41.38 38.96 35.88 40.89 C 32.98 42.29 29.68 41.68 26.86 40.40 Z" />
</g>
<g id="#fdfdfdff">
<path fill="#fdfdfd" opacity="1.00" d=" M 9.40 32.08 C 12.77 23.52 21.79 18.45 30.67 17.77 C 40.44 17.38 50.76 22.71 54.59 32.00 C 51.52 39.36 44.28 44.44 36.53 45.75 C 25.85 47.87 13.77 42.25 9.40 32.08 M 24.55 25.61 C 21.86 28.85 21.62 33.63 23.78 37.22 C 28.38 32.86 32.92 28.41 37.21 23.75 C 33.21 21.35 27.60 22.00 24.55 25.61 M 26.86 40.40 C 29.68 41.68 32.98 42.29 35.88 40.89 C 41.38 38.96 43.30 31.52 40.18 26.80 C 35.67 31.26 30.87 35.49 26.86 40.40 Z" />
</g>
</svg>
