<?xml version="1.0" encoding="UTF-8" ?>
<!DOCTYPE svg PUBLIC "-//W3C//DTD SVG 1.1//EN" "http://www.w3.org/Graphics/SVG/1.1/DTD/svg11.dtd">
<svg width="64pt" height="64pt" viewBox="0 0 64 64" version="1.1" xmlns="http://www.w3.org/2000/svg">
<g id="#060505ef">
<path fill="#060505" opacity="0.94" d=" M 16.61 15.36 C 20.00 13.83 23.96 14.17 27.54 14.69 C 29.56 16.44 28.14 19.84 28.61 22.23 C 30.87 22.22 33.13 22.22 35.39 22.24 C 35.89 19.83 34.40 16.37 36.52 14.65 C 39.83 14.48 44.04 13.41 46.88 15.30 C 47.88 19.95 47.02 24.81 47.29 29.54 C 48.25 30.18 50.11 30.29 49.96 31.85 C 50.29 37.41 49.83 42.99 50.19 48.56 C 48.92 49.23 47.57 49.75 46.11 49.63 C 36.39 49.58 26.67 49.66 16.96 49.60 C 15.55 49.68 13.59 49.02 13.96 47.22 C 13.94 42.10 13.81 36.97 14.03 31.85 C 13.88 30.29 15.75 30.18 16.71 29.54 C 16.67 24.81 16.78 20.08 16.61 15.36 M 18.98 16.67 C 19.06 20.44 18.84 24.21 19.12 27.97 C 19.04 29.41 18.98 30.85 18.93 32.29 C 18.26 32.28 16.92 32.26 16.25 32.25 C 16.21 37.24 16.55 42.23 16.17 47.22 C 26.69 47.28 37.21 47.21 47.73 47.25 C 47.55 42.25 47.69 37.26 47.74 32.26 C 47.08 32.27 45.74 32.30 45.07 32.31 C 45.01 30.91 44.95 29.50 44.89 28.10 C 45.16 24.31 44.95 20.50 45.01 16.70 C 42.64 16.67 40.26 16.67 37.89 16.57 C 37.58 19.20 37.60 21.86 37.69 24.51 C 33.91 24.47 30.13 24.47 26.35 24.51 C 26.33 21.97 26.36 19.42 26.43 16.88 C 23.96 16.63 21.47 16.66 18.98 16.67 Z" />
</g>
<g id="#67c8e7ff">
<path fill="#67c8e7" opacity="1.00" d=" M 18.98 16.67 C 21.47 16.66 23.96 16.63 26.43 16.88 C 26.36 19.42 26.33 21.97 26.35 24.51 C 30.13 24.47 33.91 24.47 37.69 24.51 C 37.60 21.86 37.58 19.20 37.89 16.57 C 40.26 16.67 42.64 16.67 45.01 16.70 C 44.95 20.50 45.16 24.31 44.89 28.10 C 44.01 30.26 43.12 33.53 40.15 33.26 C 34.42 33.45 28.65 33.60 22.93 33.15 C 20.42 32.90 19.96 29.85 19.12 27.97 C 18.84 24.21 19.06 20.44 18.98 16.67 Z" />
</g>
<g id="#52adceff">
<path fill="#52adce" opacity="1.00" d=" M 19.12 27.97 C 19.96 29.85 20.42 32.90 22.93 33.15 C 28.65 33.60 34.42 33.45 40.15 33.26 C 43.12 33.53 44.01 30.26 44.89 28.10 C 44.95 29.50 45.01 30.91 45.07 32.31 C 45.74 32.30 47.08 32.27 47.74 32.26 C 47.69 37.26 47.55 42.25 47.73 47.25 C 47.26 45.33 46.78 43.41 46.27 41.50 C 37.79 41.40 29.27 40.98 20.82 41.61 C 17.70 41.65 16.81 44.74 16.17 47.22 C 16.55 42.23 16.21 37.24 16.25 32.25 C 16.92 32.26 18.26 32.28 18.93 32.29 C 18.98 30.85 19.04 29.41 19.12 27.97 Z" />
</g>
<g id="#449bb7ff">
<path fill="#449bb7" opacity="1.00" d=" M 16.17 47.22 C 16.81 44.74 17.70 41.65 20.82 41.61 C 29.27 40.98 37.79 41.40 46.27 41.50 C 46.78 43.41 47.26 45.33 47.73 47.25 C 37.21 47.21 26.69 47.28 16.17 47.22 Z" />
</g>
</svg>
