<?xml version="1.0" encoding="UTF-8" ?>
<!DOCTYPE svg PUBLIC "-//W3C//DTD SVG 1.1//EN" "http://www.w3.org/Graphics/SVG/1.1/DTD/svg11.dtd">
<svg width="64pt" height="64pt" viewBox="0 0 64 64" version="1.1" xmlns="http://www.w3.org/2000/svg">
<g id="#1d1d1d22">
<path fill="#1d1d1d" opacity="0.13" d=" M 26.37 14.20 C 33.52 14.27 40.68 14.26 47.83 14.22 C 48.05 26.07 48.02 37.92 47.85 49.77 C 37.97 49.74 28.10 49.76 18.23 49.76 C 18.17 42.99 18.44 36.22 18.09 29.45 C 14.98 26.37 15.08 21.18 18.31 18.22 C 20.83 18.26 23.36 18.22 25.88 18.14 C 26.05 16.82 26.21 15.51 26.37 14.20 M 28.07 16.08 C 28.10 18.16 28.04 20.24 28.06 22.32 C 26.21 22.06 24.06 22.18 23.25 20.09 C 22.42 20.10 21.59 20.10 20.76 20.11 C 19.80 21.06 18.81 21.98 17.81 22.89 C 17.96 24.50 18.51 25.93 19.99 26.78 C 20.15 33.83 20.02 40.88 20.08 47.93 C 28.70 47.92 37.32 47.89 45.94 47.95 C 45.93 37.32 45.92 26.69 45.95 16.06 C 39.99 16.04 34.03 16.00 28.07 16.08 Z" />
<path fill="#1d1d1d" opacity="0.13" d=" M 31.91 18.05 C 35.29 17.98 38.68 17.97 42.06 17.93 C 42.06 19.31 42.06 20.68 42.06 22.06 C 38.68 22.06 35.31 22.06 31.93 22.06 C 31.92 20.73 31.92 19.39 31.91 18.05 Z" />
</g>
<g id="#000100ff">
<path fill="#000100" opacity="1.00" d=" M 28.07 16.08 C 34.03 16.00 39.99 16.04 45.95 16.06 C 45.92 26.69 45.93 37.32 45.94 47.95 C 37.32 47.89 28.70 47.92 20.08 47.93 C 20.02 40.88 20.15 33.83 19.99 26.78 C 18.51 25.93 17.96 24.50 17.81 22.89 C 18.81 21.98 19.80 21.06 20.76 20.11 C 21.59 20.10 22.42 20.10 23.25 20.09 C 24.06 22.18 26.21 22.06 28.06 22.32 C 28.04 20.24 28.10 18.16 28.07 16.08 M 31.91 18.05 C 31.92 19.39 31.92 20.73 31.93 22.06 C 35.31 22.06 38.68 22.06 42.06 22.06 C 42.06 20.68 42.06 19.31 42.06 17.93 C 38.68 17.97 35.29 17.98 31.91 18.05 M 26.27 29.31 C 25.87 30.71 26.36 31.17 27.73 30.68 C 28.13 29.28 27.64 28.83 26.27 29.31 M 38.62 29.03 C 36.88 30.96 35.02 32.81 33.70 35.07 C 34.11 35.03 34.94 34.96 35.36 34.92 C 36.72 33.24 38.26 31.71 39.95 30.37 C 39.99 30.00 40.06 29.28 40.09 28.91 C 39.72 28.94 38.99 29.00 38.62 29.03 M 28.03 31.00 C 28.00 31.40 27.94 32.21 27.91 32.62 C 29.30 33.50 30.71 34.38 32.18 35.15 C 31.40 33.71 30.50 32.34 29.63 30.97 C 29.23 30.97 28.43 30.99 28.03 31.00 M 32.18 35.15 C 32.18 35.58 32.18 36.42 32.18 36.84 C 32.56 36.87 33.32 36.91 33.70 36.93 C 33.70 36.46 33.70 35.53 33.70 35.07 C 33.32 35.09 32.56 35.13 32.18 35.15 M 27.90 39.38 C 27.94 39.78 28.01 40.59 28.05 40.99 C 28.44 41.00 29.24 41.02 29.63 41.03 C 30.51 39.65 31.40 38.28 32.18 36.84 C 30.71 37.62 29.30 38.50 27.90 39.38 M 33.70 36.93 C 35.02 39.19 36.87 41.04 38.62 42.95 C 38.99 42.98 39.72 43.05 40.09 43.08 C 40.06 42.72 39.99 41.99 39.96 41.63 C 38.25 40.30 36.71 38.76 35.36 37.08 C 34.94 37.04 34.11 36.97 33.70 36.93 M 26.15 41.18 C 25.65 42.82 26.22 43.37 27.85 42.82 C 28.34 41.18 27.78 40.63 26.15 41.18 Z" />
</g>
<g id="#737173ff">
<path fill="#737173" opacity="1.00" d=" M 26.27 29.31 C 27.64 28.83 28.13 29.28 27.73 30.68 C 26.36 31.17 25.87 30.71 26.27 29.31 Z" />
<path fill="#737173" opacity="1.00" d=" M 38.62 29.03 C 38.99 29.00 39.72 28.94 40.09 28.91 C 40.06 29.28 39.99 30.00 39.95 30.37 C 38.26 31.71 36.72 33.24 35.36 34.92 C 34.94 34.96 34.11 35.03 33.70 35.07 C 35.02 32.81 36.88 30.96 38.62 29.03 Z" />
<path fill="#737173" opacity="1.00" d=" M 28.03 31.00 C 28.43 30.99 29.23 30.97 29.63 30.97 C 30.50 32.34 31.40 33.71 32.18 35.15 C 30.71 34.38 29.30 33.50 27.91 32.62 C 27.94 32.21 28.00 31.40 28.03 31.00 Z" />
<path fill="#737173" opacity="1.00" d=" M 32.18 35.15 C 32.56 35.13 33.32 35.09 33.70 35.07 C 33.70 35.53 33.70 36.46 33.70 36.93 C 33.32 36.91 32.56 36.87 32.18 36.84 C 32.18 36.42 32.18 35.58 32.18 35.15 Z" />
<path fill="#737173" opacity="1.00" d=" M 27.90 39.38 C 29.30 38.50 30.71 37.62 32.18 36.84 C 31.40 38.28 30.51 39.65 29.63 41.03 C 29.24 41.02 28.44 41.00 28.05 40.99 C 28.01 40.59 27.94 39.78 27.90 39.38 Z" />
<path fill="#737173" opacity="1.00" d=" M 33.70 36.93 C 34.11 36.97 34.94 37.04 35.36 37.08 C 36.71 38.76 38.25 40.30 39.96 41.63 C 39.99 41.99 40.06 42.72 40.09 43.08 C 39.72 43.05 38.99 42.98 38.62 42.95 C 36.87 41.04 35.02 39.19 33.70 36.93 Z" />
<path fill="#737173" opacity="1.00" d=" M 26.15 41.18 C 27.78 40.63 28.34 41.18 27.85 42.82 C 26.22 43.37 25.65 42.82 26.15 41.18 Z" />
</g>
</svg>
