<?xml version="1.0" encoding="UTF-8" ?>
<!DOCTYPE svg PUBLIC "-//W3C//DTD SVG 1.1//EN" "http://www.w3.org/Graphics/SVG/1.1/DTD/svg11.dtd">
<svg width="64pt" height="64pt" viewBox="0 0 64 64" version="1.1" xmlns="http://www.w3.org/2000/svg">
<g id="#060706f6">
<path fill="#060706" opacity="0.96" d=" M 12.85 15.98 C 20.06 11.78 28.72 10.95 36.90 11.55 C 44.27 12.42 52.16 14.88 56.79 21.07 C 60.05 25.28 59.15 31.70 55.39 35.29 C 49.56 41.41 40.65 43.16 32.54 43.45 C 28.19 46.51 24.51 50.52 19.75 52.96 C 16.52 49.86 18.39 45.00 17.89 41.05 C 12.23 39.11 6.55 35.11 5.25 28.91 C 4.37 23.41 8.42 18.63 12.85 15.98 M 11.22 19.97 C 8.47 22.48 6.42 26.44 8.00 30.16 C 10.23 34.98 15.24 37.95 20.23 39.26 C 20.34 42.92 20.35 46.58 20.41 50.24 C 24.17 46.96 27.94 43.49 32.26 41.01 C 40.47 40.84 49.72 38.98 54.98 32.07 C 57.96 28.20 56.20 22.87 52.76 19.96 C 49.08 17.07 44.63 15.35 40.09 14.39 C 30.29 12.64 19.34 13.78 11.22 19.97 Z" />
</g>
<g id="#c6dff4ff">
<path fill="#c6dff4" opacity="1.00" d=" M 11.22 19.97 C 19.34 13.78 30.29 12.64 40.09 14.39 C 44.63 15.35 49.08 17.07 52.76 19.96 C 52.54 21.45 52.34 22.93 52.14 24.42 C 38.69 24.82 25.21 24.78 11.76 24.42 C 11.59 22.93 11.41 21.45 11.22 19.97 Z" />
</g>
<g id="#c6c4e5ff">
<path fill="#c6c4e5" opacity="1.00" d=" M 8.00 30.16 C 6.42 26.44 8.47 22.48 11.22 19.97 C 11.41 21.45 11.59 22.93 11.76 24.42 C 25.21 24.78 38.69 24.82 52.14 24.42 C 52.34 22.93 52.54 21.45 52.76 19.96 C 56.20 22.87 57.96 28.20 54.98 32.07 C 49.72 38.98 40.47 40.84 32.26 41.01 C 27.94 43.49 24.17 46.96 20.41 50.24 C 20.35 46.58 20.34 42.92 20.23 39.26 C 15.24 37.95 10.23 34.98 8.00 30.16 Z" />
</g>
</svg>
