<?xml version="1.0" encoding="UTF-8" ?>
<!DOCTYPE svg PUBLIC "-//W3C//DTD SVG 1.1//EN" "http://www.w3.org/Graphics/SVG/1.1/DTD/svg11.dtd">
<svg width="64pt" height="64pt" viewBox="0 0 64 64" version="1.1" xmlns="http://www.w3.org/2000/svg">
<g id="#010101ff">
<path fill="#010101" opacity="1.00" d=" M 22.95 13.17 C 28.31 12.87 33.70 12.81 39.07 13.04 C 41.27 12.88 40.70 15.61 40.74 16.99 C 41.08 19.33 38.36 19.54 36.70 19.45 C 38.39 19.81 40.05 20.27 41.70 20.77 C 42.28 20.38 43.44 19.61 44.02 19.22 C 45.82 20.52 47.97 21.75 48.63 24.02 C 48.20 25.02 47.71 26.00 47.16 26.95 C 50.12 33.50 49.54 41.97 44.12 47.08 C 37.89 53.84 26.09 53.86 19.88 47.07 C 11.56 39.37 14.34 23.32 25.33 19.68 C 24.42 19.16 23.51 18.64 22.61 18.11 C 22.72 16.46 22.84 14.82 22.95 13.17 M 24.66 15.07 C 24.66 15.53 24.66 16.46 24.66 16.92 C 26.04 16.93 27.42 16.95 28.79 16.96 C 29.08 17.81 29.66 19.51 29.95 20.36 C 22.14 21.61 15.96 29.41 17.48 37.35 C 18.46 46.41 29.16 52.53 37.47 48.78 C 46.03 45.78 49.78 33.70 43.81 26.70 C 44.56 25.78 45.33 24.88 46.10 23.98 C 45.57 23.46 44.51 22.40 43.97 21.87 C 43.47 22.39 42.45 23.43 41.94 23.95 C 39.36 22.46 36.66 21.20 33.83 20.26 C 34.13 19.25 34.43 18.24 34.73 17.23 C 36.47 17.15 38.10 16.71 39.63 15.92 C 34.88 14.13 29.63 15.47 24.66 15.07 Z" />
<path fill="#010101" opacity="1.00" d=" M 31.75 24.48 C 34.56 24.87 37.19 25.86 39.41 27.66 C 42.18 30.91 43.43 35.64 41.31 39.58 C 38.88 45.87 29.79 47.52 25.03 42.92 C 22.97 41.15 22.31 38.41 21.44 35.96 C 24.88 35.94 28.32 35.91 31.75 35.92 C 31.69 32.11 31.70 28.29 31.75 24.48 Z" />
</g>
<g id="#fffeffff">
<path fill="#fffeff" opacity="1.00" d=" M 24.66 15.07 C 29.63 15.47 34.88 14.13 39.63 15.92 C 38.10 16.71 36.47 17.15 34.73 17.23 C 34.43 18.24 34.13 19.25 33.83 20.26 C 36.66 21.20 39.36 22.46 41.94 23.95 C 42.45 23.43 43.47 22.39 43.97 21.87 C 44.51 22.40 45.57 23.46 46.10 23.98 C 45.33 24.88 44.56 25.78 43.81 26.70 C 49.78 33.70 46.03 45.78 37.47 48.78 C 29.16 52.53 18.46 46.41 17.48 37.35 C 15.96 29.41 22.14 21.61 29.95 20.36 C 29.66 19.51 29.08 17.81 28.79 16.96 C 27.42 16.95 26.04 16.93 24.66 16.92 C 24.66 16.46 24.66 15.53 24.66 15.07 M 31.75 24.48 C 31.70 28.29 31.69 32.11 31.75 35.92 C 28.32 35.91 24.88 35.94 21.44 35.96 C 22.31 38.41 22.97 41.15 25.03 42.92 C 29.79 47.52 38.88 45.87 41.31 39.58 C 43.43 35.64 42.18 30.91 39.41 27.66 C 37.19 25.86 34.56 24.87 31.75 24.48 Z" />
</g>
</svg>
