<?xml version="1.0" encoding="UTF-8" ?>
<!DOCTYPE svg PUBLIC "-//W3C//DTD SVG 1.1//EN" "http://www.w3.org/Graphics/SVG/1.1/DTD/svg11.dtd">
<svg width="64pt" height="64pt" viewBox="0 0 64 64" version="1.1" xmlns="http://www.w3.org/2000/svg">
<g id="#00000075">
<path fill="#000000" opacity="0.46" d=" M 36.88 13.93 C 39.11 12.83 41.55 12.28 44.03 12.17 C 43.86 12.63 43.52 13.55 43.35 14.00 C 41.19 13.96 39.03 13.90 36.88 13.93 Z" />
<path fill="#000000" opacity="0.46" d=" M 30.90 47.54 C 36.29 41.84 41.84 36.29 47.54 30.89 C 47.75 32.58 47.94 34.26 48.14 35.95 C 46.77 35.98 45.41 36.01 44.04 36.04 C 44.02 37.35 43.99 38.66 43.97 39.97 C 42.66 39.99 41.34 40.01 40.03 40.03 C 40.01 41.34 39.99 42.66 39.97 43.97 C 38.66 43.99 37.35 44.02 36.04 44.04 C 36.01 45.41 35.98 46.78 35.95 48.15 C 34.27 47.94 32.58 47.74 30.90 47.54 Z" />
<path fill="#000000" opacity="0.46" d=" M 12.06 43.85 C 12.24 41.43 12.83 39.06 13.93 36.89 C 13.89 39.15 13.93 41.41 14.09 43.67 C 13.58 43.71 12.57 43.80 12.06 43.85 Z" />
</g>
<g id="#000100ff">
<path fill="#000100" opacity="1.00" d=" M 30.57 18.61 C 32.42 16.76 34.40 14.91 36.88 13.93 C 39.03 13.90 41.19 13.96 43.35 14.00 C 50.45 15.79 53.03 26.03 47.54 30.89 C 41.84 36.29 36.29 41.84 30.90 47.54 C 26.14 52.92 16.02 50.57 14.09 43.67 C 13.93 41.41 13.89 39.15 13.93 36.89 C 14.91 34.40 16.77 32.40 18.64 30.54 C 22.65 26.60 26.63 22.62 30.57 18.61 M 35.48 17.36 C 31.79 20.71 28.45 24.43 24.86 27.88 C 22.26 30.67 19.26 33.10 16.91 36.09 C 13.80 40.82 17.29 47.76 22.90 48.24 C 29.21 48.53 32.50 42.11 36.71 38.48 C 39.84 35.34 43.04 32.28 46.11 29.07 C 48.30 26.85 49.01 23.33 47.51 20.52 C 45.78 15.90 39.28 14.24 35.48 17.36 Z" />
<path fill="#000100" opacity="1.00" d=" M 20.34 36.44 C 22.82 33.83 25.46 31.39 28.00 28.84 C 29.90 31.21 32.32 33.15 33.93 35.76 C 30.29 38.26 27.96 42.44 23.85 44.26 C 19.95 44.83 17.63 39.04 20.34 36.44 Z" />
</g>
<g id="#edecedff">
<path fill="#edeced" opacity="1.00" d=" M 35.48 17.36 C 39.28 14.24 45.78 15.90 47.51 20.52 C 49.01 23.33 48.30 26.85 46.11 29.07 C 43.04 32.28 39.84 35.34 36.71 38.48 C 36.80 34.23 34.17 30.67 30.65 28.60 C 28.76 28.08 26.79 28.07 24.86 27.88 C 28.45 24.43 31.79 20.71 35.48 17.36 Z" />
</g>
<g id="#dbdcdbff">
<path fill="#dbdcdb" opacity="1.00" d=" M 24.86 27.88 C 26.79 28.07 28.76 28.08 30.65 28.60 C 34.17 30.67 36.80 34.23 36.71 38.48 C 32.50 42.11 29.21 48.53 22.90 48.24 C 17.29 47.76 13.80 40.82 16.91 36.09 C 19.26 33.10 22.26 30.67 24.86 27.88 M 20.34 36.44 C 17.63 39.04 19.95 44.83 23.85 44.26 C 27.96 42.44 30.29 38.26 33.93 35.76 C 32.32 33.15 29.90 31.21 28.00 28.84 C 25.46 31.39 22.82 33.83 20.34 36.44 Z" />
</g>
</svg>
