<?xml version="1.0" encoding="UTF-8" ?>
<!DOCTYPE svg PUBLIC "-//W3C//DTD SVG 1.1//EN" "http://www.w3.org/Graphics/SVG/1.1/DTD/svg11.dtd">
<svg width="64pt" height="64pt" viewBox="0 0 64 64" version="1.1" xmlns="http://www.w3.org/2000/svg">
<g id="#010101fe">
<path fill="#010101" opacity="1.00" d=" M 20.35 16.54 C 22.11 13.04 23.67 9.43 25.48 5.95 C 27.39 9.43 29.31 12.91 30.98 16.51 C 34.96 15.75 38.85 14.59 42.83 13.84 C 41.37 17.43 39.80 20.98 38.24 24.52 C 42.59 24.66 47.00 24.12 51.32 24.74 C 55.63 26.70 54.32 32.43 55.36 36.23 C 59.49 39.04 60.12 45.74 56.63 49.23 C 56.38 50.90 56.51 52.86 55.10 54.09 C 53.31 55.20 51.06 55.08 49.05 54.83 C 46.91 54.11 46.58 51.59 45.94 49.74 C 40.80 49.61 35.66 49.83 30.52 50.04 C 30.19 52.91 28.27 55.94 24.99 55.56 C 21.43 56.12 19.71 52.46 19.49 49.49 C 17.29 47.62 17.55 44.71 17.48 42.09 C 12.87 41.84 8.26 42.00 3.65 41.86 C 6.41 38.81 9.08 35.67 11.68 32.47 C 8.70 30.28 5.75 28.06 2.81 25.84 C 5.84 24.69 8.94 23.75 12.10 23.03 C 11.07 18.52 9.07 14.33 7.64 9.96 C 11.86 12.18 16.21 14.16 20.35 16.54 M 25.62 11.15 C 24.10 13.99 22.89 16.98 21.31 19.79 C 18.28 18.00 15.07 16.54 12.00 14.81 C 13.12 18.04 14.21 21.27 15.50 24.44 C 12.84 25.04 10.21 25.77 7.62 26.67 C 10.15 28.42 12.75 30.09 15.03 32.16 C 13.06 34.78 10.83 37.17 8.71 39.66 C 11.71 39.69 14.72 39.74 17.72 39.67 C 18.65 38.83 19.59 38.02 20.55 37.22 C 21.22 33.87 20.98 30.30 22.20 27.10 C 25.20 22.78 31.26 25.29 35.66 24.72 C 36.67 22.11 37.82 19.56 38.96 17.01 C 36.19 17.72 33.40 18.34 30.70 19.29 C 28.12 17.22 27.36 13.83 25.62 11.15 M 24.10 27.61 C 23.36 31.46 23.24 35.38 22.55 39.23 C 19.09 39.80 19.64 43.45 19.77 46.07 C 20.48 46.76 21.18 47.45 21.88 48.15 C 22.05 49.56 22.24 50.97 22.46 52.38 C 23.29 52.74 24.13 53.11 24.96 53.48 C 25.82 53.16 26.69 52.83 27.56 52.50 C 27.74 50.91 27.87 49.31 27.99 47.71 C 34.82 47.75 41.64 47.32 48.47 47.49 C 48.48 49.48 48.10 52.93 51.07 52.75 C 54.34 53.51 54.51 49.79 54.39 47.53 C 57.94 45.51 57.15 39.66 53.41 38.21 C 52.86 34.56 52.39 30.89 51.49 27.31 C 47.04 26.14 42.36 26.79 37.82 26.79 C 33.26 27.39 28.57 26.31 24.10 27.61 Z" />
<path fill="#010101" opacity="1.00" d=" M 28.23 29.60 C 34.84 29.98 41.49 29.18 48.08 29.78 C 49.31 31.88 49.47 34.38 49.79 36.74 C 41.95 36.75 34.11 37.06 26.27 36.97 C 26.37 34.39 26.54 31.69 28.23 29.60 Z" />
</g>
<g id="#fefefeff">
<path fill="#fefefe" opacity="1.00" d=" M 25.62 11.15 C 27.36 13.83 28.12 17.22 30.70 19.29 C 33.40 18.34 36.19 17.72 38.96 17.01 C 37.82 19.56 36.67 22.11 35.66 24.72 C 31.26 25.29 25.20 22.78 22.20 27.10 C 20.98 30.30 21.22 33.87 20.55 37.22 C 19.59 38.02 18.65 38.83 17.72 39.67 C 14.72 39.74 11.71 39.69 8.71 39.66 C 10.83 37.17 13.06 34.78 15.03 32.16 C 12.75 30.09 10.15 28.42 7.62 26.67 C 10.21 25.77 12.84 25.04 15.50 24.44 C 14.21 21.27 13.12 18.04 12.00 14.81 C 15.07 16.54 18.28 18.00 21.31 19.79 C 22.89 16.98 24.10 13.99 25.62 11.15 Z" />
<path fill="#fefefe" opacity="1.00" d=" M 24.10 27.61 C 28.57 26.31 33.26 27.39 37.82 26.79 C 42.36 26.79 47.04 26.14 51.49 27.31 C 52.39 30.89 52.86 34.56 53.41 38.21 C 57.15 39.66 57.94 45.51 54.39 47.53 C 54.51 49.79 54.34 53.51 51.07 52.75 C 48.10 52.93 48.48 49.48 48.47 47.49 C 41.64 47.32 34.82 47.75 27.99 47.71 C 27.87 49.31 27.74 50.91 27.56 52.50 C 26.69 52.83 25.82 53.16 24.96 53.48 C 24.13 53.11 23.29 52.74 22.46 52.38 C 22.24 50.97 22.05 49.56 21.88 48.15 C 21.18 47.45 20.48 46.76 19.77 46.07 C 19.64 43.45 19.09 39.80 22.55 39.23 C 23.24 35.38 23.36 31.46 24.10 27.61 M 28.23 29.60 C 26.54 31.69 26.37 34.39 26.27 36.97 C 34.11 37.06 41.95 36.75 49.79 36.74 C 49.47 34.38 49.31 31.88 48.08 29.78 C 41.49 29.18 34.84 29.98 28.23 29.60 Z" />
</g>
</svg>
