<?xml version="1.0" encoding="UTF-8" ?>
<!DOCTYPE svg PUBLIC "-//W3C//DTD SVG 1.1//EN" "http://www.w3.org/Graphics/SVG/1.1/DTD/svg11.dtd">
<svg width="64pt" height="64pt" viewBox="0 0 64 64" version="1.1" xmlns="http://www.w3.org/2000/svg">
<g id="#000200ff">
<path fill="#000200" opacity="1.00" d=" M 26.49 8.62 C 26.66 6.43 25.88 3.42 28.19 2.10 C 30.71 1.00 33.60 1.79 36.27 1.76 C 37.15 3.95 37.60 6.27 37.55 8.63 C 46.28 10.80 53.80 17.79 55.49 26.78 C 57.43 26.83 59.38 26.89 61.33 26.87 C 63.18 29.44 63.06 32.91 62.27 35.83 C 60.76 37.90 57.78 36.84 55.58 37.17 C 53.72 46.14 46.32 53.22 37.52 55.36 C 37.34 57.54 38.13 60.61 35.79 61.90 C 33.41 62.86 30.65 62.56 28.18 62.09 C 26.13 60.47 26.69 57.62 26.44 55.34 C 17.74 53.18 10.20 46.20 8.53 37.23 C 6.58 37.16 4.64 37.12 2.69 37.12 C 0.47 34.19 0.48 29.81 2.68 26.87 C 4.63 26.87 6.58 26.85 8.52 26.79 C 10.12 17.75 17.78 10.80 26.49 8.62 M 29.18 4.10 C 29.03 6.32 28.89 8.55 28.91 10.77 C 19.55 12.18 11.92 19.88 10.37 29.18 C 8.18 29.37 5.98 29.25 3.79 29.37 C 3.73 31.13 3.74 32.88 3.82 34.64 C 6.00 34.74 8.19 34.62 10.38 34.81 C 11.93 44.07 19.51 51.92 28.90 53.21 C 28.90 55.40 29.03 57.60 29.15 59.80 C 30.96 59.96 32.77 60.07 34.59 60.17 C 35.00 57.87 35.13 55.54 35.10 53.21 C 44.49 51.91 52.07 44.06 53.62 34.81 C 55.81 34.62 58.01 34.74 60.21 34.63 C 60.26 32.87 60.25 31.11 60.18 29.36 C 57.99 29.26 55.80 29.37 53.62 29.20 C 52.07 19.94 44.49 12.07 35.09 10.78 C 35.10 8.55 34.97 6.33 34.82 4.10 C 32.94 4.06 31.06 4.05 29.18 4.10 Z" />
<path fill="#000200" opacity="1.00" d=" M 28.45 15.71 C 36.86 13.57 46.42 19.38 48.12 27.96 C 50.65 36.87 44.12 47.00 34.92 48.23 C 26.64 49.92 17.57 44.26 15.86 35.92 C 13.42 27.20 19.49 17.28 28.45 15.71 M 26.27 24.41 C 25.91 25.63 25.53 26.84 25.13 28.05 C 25.72 31.38 28.15 34.87 31.95 34.42 C 35.79 34.92 38.27 31.42 38.87 28.06 C 38.47 26.87 38.07 25.67 37.68 24.47 C 36.97 23.77 36.25 23.07 35.53 22.36 C 34.33 21.98 33.14 21.58 31.95 21.16 C 29.82 21.77 27.76 22.72 26.27 24.41 M 25.89 35.30 C 24.03 36.98 22.38 38.93 21.24 41.18 C 26.59 47.59 37.44 47.58 42.78 41.16 C 41.58 38.94 39.95 37.01 38.12 35.29 C 34.23 37.16 29.78 37.20 25.89 35.30 Z" />
</g>
<g id="#fffeffff">
<path fill="#fffeff" opacity="1.00" d=" M 29.18 4.10 C 31.06 4.05 32.94 4.06 34.82 4.10 C 34.97 6.33 35.10 8.55 35.09 10.78 C 44.49 12.07 52.07 19.94 53.62 29.20 C 55.80 29.37 57.99 29.26 60.18 29.36 C 60.25 31.11 60.26 32.87 60.21 34.63 C 58.01 34.74 55.81 34.62 53.62 34.81 C 52.07 44.06 44.49 51.91 35.10 53.21 C 35.13 55.54 35.00 57.87 34.59 60.17 C 32.77 60.07 30.96 59.96 29.15 59.80 C 29.03 57.60 28.90 55.40 28.90 53.21 C 19.51 51.92 11.93 44.07 10.38 34.81 C 8.19 34.62 6.00 34.74 3.82 34.64 C 3.74 32.88 3.73 31.13 3.79 29.37 C 5.98 29.25 8.18 29.37 10.37 29.18 C 11.92 19.88 19.55 12.18 28.91 10.77 C 28.89 8.55 29.03 6.32 29.18 4.10 M 28.45 15.71 C 19.49 17.28 13.42 27.20 15.86 35.92 C 17.57 44.26 26.64 49.92 34.92 48.23 C 44.12 47.00 50.65 36.87 48.12 27.96 C 46.42 19.38 36.86 13.57 28.45 15.71 Z" />
<path fill="#fffeff" opacity="1.00" d=" M 26.27 24.41 C 27.76 22.72 29.82 21.77 31.95 21.16 C 33.14 21.58 34.33 21.98 35.53 22.36 C 36.25 23.07 36.97 23.77 37.68 24.47 C 38.07 25.67 38.47 26.87 38.87 28.06 C 38.27 31.42 35.79 34.92 31.95 34.42 C 28.15 34.87 25.72 31.38 25.13 28.05 C 25.53 26.84 25.91 25.63 26.27 24.41 Z" />
<path fill="#fffeff" opacity="1.00" d=" M 25.89 35.30 C 29.78 37.20 34.23 37.16 38.12 35.29 C 39.95 37.01 41.58 38.94 42.78 41.16 C 37.44 47.58 26.59 47.59 21.24 41.18 C 22.38 38.93 24.03 36.98 25.89 35.30 Z" />
</g>
</svg>
