<?xml version="1.0" encoding="UTF-8" ?>
<!DOCTYPE svg PUBLIC "-//W3C//DTD SVG 1.1//EN" "http://www.w3.org/Graphics/SVG/1.1/DTD/svg11.dtd">
<svg width="64pt" height="64pt" viewBox="0 0 64 64" version="1.1" xmlns="http://www.w3.org/2000/svg">
<g id="#040404fa">
<path fill="#040404" opacity="0.98" d=" M 24.19 12.49 C 27.92 12.60 31.64 12.29 35.37 12.45 C 36.77 13.24 38.23 13.90 39.64 14.68 C 39.34 18.53 36.37 21.41 34.62 24.68 C 37.54 24.72 40.46 24.73 43.38 24.70 C 43.94 25.03 45.08 25.67 45.64 26.00 C 45.33 27.43 44.96 28.89 43.98 30.03 C 39.38 36.06 34.77 42.08 30.24 48.15 C 29.40 49.43 28.03 50.16 26.78 50.96 C 26.32 49.75 25.15 48.60 25.49 47.21 C 26.39 43.31 28.08 39.64 28.98 35.74 C 25.79 35.66 22.56 35.99 19.40 35.51 C 17.35 33.51 19.27 30.64 19.55 28.30 C 21.01 23.80 21.18 18.89 23.04 14.55 C 23.47 14.27 24.33 13.71 24.76 13.44 L 24.19 12.49 M 24.95 15.75 C 23.65 21.71 21.90 27.57 20.92 33.59 C 24.72 33.68 28.52 33.44 32.32 33.34 C 30.98 37.91 29.25 42.36 28.09 46.99 C 33.23 40.53 37.87 33.68 43.18 27.37 C 38.93 26.74 34.63 27.24 30.37 26.92 C 32.76 23.26 35.03 19.52 37.25 15.75 C 33.15 15.70 29.05 15.73 24.95 15.75 Z" />
</g>
<g id="#fefefeff">
<path fill="#fefefe" opacity="1.00" d=" M 24.95 15.75 C 29.05 15.73 33.15 15.70 37.25 15.75 C 35.03 19.52 32.76 23.26 30.37 26.92 C 34.63 27.24 38.93 26.74 43.18 27.37 C 37.87 33.68 33.23 40.53 28.09 46.99 C 29.25 42.36 30.98 37.91 32.32 33.34 C 28.52 33.44 24.72 33.68 20.92 33.59 C 21.90 27.57 23.65 21.71 24.95 15.75 Z" />
</g>
</svg>
