<?xml version="1.0" encoding="UTF-8" ?>
<!DOCTYPE svg PUBLIC "-//W3C//DTD SVG 1.1//EN" "http://www.w3.org/Graphics/SVG/1.1/DTD/svg11.dtd">
<svg width="64pt" height="64pt" viewBox="0 0 64 64" version="1.1" xmlns="http://www.w3.org/2000/svg">
<g id="#04030493">
<path fill="#040304" opacity="0.58" d=" M 27.98 4.98 C 28.92 2.79 33.56 4.46 35.96 4.05 L 36.02 4.98 C 33.34 4.99 30.66 4.99 27.98 4.98 Z" />
</g>
<g id="#050505fe">
<path fill="#050505" opacity="1.00" d=" M 17.00 8.00 C 20.40 6.33 24.15 4.96 27.98 4.98 C 30.66 4.99 33.34 4.99 36.02 4.98 C 40.88 5.33 46.34 6.49 49.80 10.20 C 52.06 14.05 54.38 17.99 55.61 22.33 C 57.31 28.70 54.07 34.71 54.02 41.02 C 54.22 44.77 48.80 45.05 48.61 48.68 C 47.43 53.52 44.04 59.37 38.29 58.60 C 35.34 61.23 31.49 58.51 28.06 60.00 C 26.02 57.74 23.04 59.01 20.65 57.43 C 15.68 55.48 17.23 48.53 13.73 45.34 C 9.94 45.47 9.88 40.69 9.91 37.99 C 9.11 31.87 5.76 24.46 9.94 18.96 C 12.05 15.18 12.62 9.97 17.00 8.00 M 27.97 6.99 C 23.54 7.72 18.46 8.79 15.44 12.43 C 11.34 19.19 8.82 27.05 11.06 34.93 L 11.94 35.00 C 12.05 37.68 11.40 41.41 14.01 43.00 C 20.16 44.66 17.07 54.68 23.79 55.91 C 23.57 53.93 25.50 50.18 27.31 53.09 C 25.64 54.75 28.04 59.69 29.70 57.28 C 30.00 55.32 29.69 51.31 32.81 52.10 C 34.41 53.33 33.87 55.54 34.30 57.28 C 35.96 59.69 38.36 54.75 36.69 53.09 C 38.55 50.15 40.41 54.01 40.25 55.98 C 45.50 55.20 45.86 48.30 47.28 44.31 C 54.71 42.41 52.30 32.39 52.86 26.79 C 53.36 20.92 50.73 14.64 46.58 10.42 C 43.33 8.69 39.69 7.35 36.02 6.99 L 35.96 6.05 C 33.56 6.46 28.93 4.78 27.97 6.99 Z" />
<path fill="#050505" opacity="1.00" d=" M 39.21 29.64 C 41.93 29.37 44.18 27.59 46.81 27.01 C 48.99 29.06 47.88 32.39 48.16 35.12 C 45.57 39.87 38.13 37.63 37.03 32.95 C 36.50 31.25 38.07 30.46 39.21 29.64 Z" />
<path fill="#050505" opacity="1.00" d=" M 16.22 28.06 C 20.22 27.48 24.75 29.33 26.35 33.18 C 25.21 38.24 15.21 40.02 14.76 34.15 C 15.11 32.12 14.44 29.55 16.22 28.06 Z" />
<path fill="#050505" opacity="1.00" d=" M 27.93 45.98 C 28.67 42.81 28.47 37.05 32.84 37.07 C 35.02 39.52 35.26 42.79 35.02 45.98 C 33.25 45.98 29.70 45.98 27.93 45.98 Z" />
</g>
<g id="#525252ff">
<path fill="#525252" opacity="1.00" d=" M 27.97 6.99 C 28.93 4.78 33.56 6.46 35.96 6.05 L 36.02 6.99 C 33.34 6.99 30.66 6.99 27.97 6.99 Z" />
</g>
<g id="#f2f1f2ff">
<path fill="#f2f1f2" opacity="1.00" d=" M 15.44 12.43 C 18.46 8.79 23.54 7.72 27.97 6.99 C 30.66 6.99 33.34 6.99 36.02 6.99 C 39.69 7.35 43.33 8.69 46.58 10.42 C 50.73 14.64 53.36 20.92 52.86 26.79 C 51.52 29.70 49.62 32.28 48.16 35.12 C 47.88 32.39 48.99 29.06 46.81 27.01 C 44.18 27.59 41.93 29.37 39.21 29.64 C 36.03 28.55 33.22 31.66 29.94 30.89 C 28.26 30.90 26.84 31.45 26.35 33.18 C 24.75 29.33 20.22 27.48 16.22 28.06 C 14.44 29.55 15.11 32.12 14.76 34.15 C 14.17 33.05 13.56 31.90 12.13 31.90 C 12.09 32.68 11.99 34.23 11.94 35.00 L 11.06 34.93 C 8.82 27.05 11.34 19.19 15.44 12.43 Z" />
</g>
<g id="#d1d2d1ff">
<path fill="#d1d2d1" opacity="1.00" d=" M 48.16 35.12 C 49.62 32.28 51.52 29.70 52.86 26.79 C 52.30 32.39 54.71 42.41 47.28 44.31 C 45.86 48.30 45.50 55.20 40.25 55.98 C 40.41 54.01 38.55 50.15 36.69 53.09 C 35.88 54.48 35.29 56.00 34.30 57.28 C 33.87 55.54 34.41 53.33 32.81 52.10 C 29.69 51.31 30.00 55.32 29.70 57.28 C 28.71 56.00 28.12 54.48 27.31 53.09 C 25.50 50.18 23.57 53.93 23.79 55.91 C 17.07 54.68 20.16 44.66 14.01 43.00 C 11.40 41.41 12.05 37.68 11.94 35.00 C 11.99 34.23 12.09 32.68 12.13 31.90 C 13.56 31.90 14.17 33.05 14.76 34.15 C 15.21 40.02 25.21 38.24 26.35 33.18 C 26.84 31.45 28.26 30.90 29.94 30.89 C 33.22 31.66 36.03 28.55 39.21 29.64 C 38.07 30.46 36.50 31.25 37.03 32.95 C 38.13 37.63 45.57 39.87 48.16 35.12 M 27.93 45.98 C 28.08 48.07 38.10 47.18 35.02 45.98 C 35.26 42.79 35.02 39.52 32.84 37.07 C 28.47 37.05 28.67 42.81 27.93 45.98 Z" />
</g>
<g id="#959595ff">
<path fill="#959595" opacity="1.00" d=" M 27.93 45.98 C 29.70 45.98 33.25 45.98 35.02 45.98 C 38.10 47.18 28.08 48.07 27.93 45.98 Z" />
</g>
<g id="#3a393aff">
<path fill="#3a393a" opacity="1.00" d=" M 27.31 53.09 C 28.12 54.48 28.71 56.00 29.70 57.28 C 28.04 59.69 25.64 54.75 27.31 53.09 Z" />
<path fill="#3a393a" opacity="1.00" d=" M 34.30 57.28 C 35.29 56.00 35.88 54.48 36.69 53.09 C 38.36 54.75 35.96 59.69 34.30 57.28 Z" />
</g>
</svg>
