<?xml version="1.0" encoding="UTF-8" ?>
<!DOCTYPE svg PUBLIC "-//W3C//DTD SVG 1.1//EN" "http://www.w3.org/Graphics/SVG/1.1/DTD/svg11.dtd">
<svg width="64pt" height="64pt" viewBox="0 0 64 64" version="1.1" xmlns="http://www.w3.org/2000/svg">
<g id="#080708fb">
<path fill="#080708" opacity="1.00" d=" M 19.87 8.81 C 21.51 7.16 23.90 7.30 26.02 7.64 C 27.60 10.08 28.32 13.31 31.12 14.75 C 35.14 15.24 36.28 10.33 37.91 7.64 C 40.06 7.33 42.49 7.13 44.14 8.83 C 49.76 13.51 55.33 18.26 60.89 23.00 C 60.84 23.67 60.74 25.01 60.69 25.67 C 57.54 28.54 54.78 31.81 51.58 34.63 C 50.16 36.23 48.47 34.70 47.00 34.10 C 46.99 41.06 47.31 48.05 46.86 54.99 C 46.89 57.02 44.31 56.31 43.05 56.53 C 34.81 56.39 26.55 56.72 18.32 56.37 C 16.66 56.33 17.21 54.09 16.96 53.04 C 16.87 46.68 16.97 40.31 16.95 33.94 C 15.96 34.57 14.98 35.20 14.00 35.83 C 10.42 33.15 7.42 29.83 4.24 26.71 C 2.57 25.43 2.74 22.70 4.57 21.65 C 9.79 17.51 14.72 13.03 19.87 8.81 M 11.46 19.04 C 9.27 20.74 7.18 22.57 5.36 24.66 C 8.30 27.46 11.39 30.10 14.14 33.09 C 15.64 31.61 17.13 30.11 18.66 28.65 L 19.35 28.35 C 19.11 37.01 19.33 45.67 19.35 54.33 C 27.82 54.24 36.29 54.33 44.77 54.28 C 44.61 45.65 44.87 37.02 44.65 28.38 L 45.39 28.67 C 46.90 30.14 48.38 31.64 49.87 33.13 C 52.66 30.07 55.64 27.17 58.60 24.28 C 58.24 23.97 57.52 23.37 57.16 23.06 C 52.27 18.41 46.75 14.48 41.89 9.79 C 41.28 9.75 40.06 9.67 39.45 9.63 C 38.45 13.46 35.42 16.40 31.98 18.16 C 28.50 16.33 25.46 13.31 24.46 9.41 C 19.28 11.10 15.78 15.86 11.46 19.04 Z" />
</g>
<g id="#fcdb5aff">
<path fill="#fcdb5a" opacity="1.00" d=" M 11.46 19.04 C 15.78 15.86 19.28 11.10 24.46 9.41 C 25.46 13.31 28.50 16.33 31.98 18.16 C 35.42 16.40 38.45 13.46 39.45 9.63 C 40.06 9.67 41.28 9.75 41.89 9.79 C 46.75 14.48 52.27 18.41 57.16 23.06 C 50.48 24.32 43.72 22.47 37.00 23.23 C 30.95 24.01 24.85 22.90 18.80 23.72 C 17.13 23.83 15.33 24.11 13.77 23.32 C 11.92 22.74 12.08 20.52 11.46 19.04 Z" />
</g>
<g id="#f7cf55ff">
<path fill="#f7cf55" opacity="1.00" d=" M 5.36 24.66 C 7.18 22.57 9.27 20.74 11.46 19.04 C 12.08 20.52 11.92 22.74 13.77 23.32 C 15.33 24.11 17.13 23.83 18.80 23.72 C 24.85 22.90 30.95 24.01 37.00 23.23 C 43.72 22.47 50.48 24.32 57.16 23.06 C 57.52 23.37 58.24 23.97 58.60 24.28 C 55.64 27.17 52.66 30.07 49.87 33.13 C 48.38 31.64 46.90 30.14 45.39 28.67 C 45.16 28.44 44.68 27.98 44.44 27.75 C 44.07 29.90 43.90 32.11 43.17 34.18 C 41.81 35.64 39.81 36.30 37.85 36.30 C 32.03 36.36 26.06 36.51 20.47 34.61 C 20.18 32.34 19.87 30.07 19.56 27.80 C 19.33 28.01 18.88 28.44 18.66 28.65 C 17.13 30.11 15.64 31.61 14.14 33.09 C 11.39 30.10 8.30 27.46 5.36 24.66 Z" />
</g>
<g id="#f0ba4aff">
<path fill="#f0ba4a" opacity="1.00" d=" M 18.66 28.65 C 18.88 28.44 19.33 28.01 19.56 27.80 C 19.87 30.07 20.18 32.34 20.47 34.61 C 26.06 36.51 32.03 36.36 37.85 36.30 C 39.81 36.30 41.81 35.64 43.17 34.18 C 43.90 32.11 44.07 29.90 44.44 27.75 C 44.68 27.98 45.16 28.44 45.39 28.67 L 44.65 28.38 C 44.87 37.02 44.61 45.65 44.77 54.28 C 36.29 54.33 27.82 54.24 19.35 54.33 C 19.33 45.67 19.11 37.01 19.35 28.35 L 18.66 28.65 Z" />
</g>
</svg>
