<?xml version="1.0" encoding="UTF-8" ?>
<!DOCTYPE svg PUBLIC "-//W3C//DTD SVG 1.1//EN" "http://www.w3.org/Graphics/SVG/1.1/DTD/svg11.dtd">
<svg width="64pt" height="64pt" viewBox="0 0 64 64" version="1.1" xmlns="http://www.w3.org/2000/svg">
<g id="#000000ba">
<path fill="#000000" opacity="0.73" d=" M 10.00 3.01 C 13.08 4.17 20.62 0.92 21.99 3.99 C 21.49 3.99 20.49 4.01 19.99 4.01 C 17.33 4.00 14.66 4.00 12.00 4.01 C 11.50 4.00 10.51 3.98 10.01 3.97 L 10.00 3.01 Z" />
<path fill="#000000" opacity="0.73" d=" M 42.00 3.01 C 45.09 4.17 52.58 0.93 54.00 3.98 C 53.50 3.99 52.50 4.01 52.00 4.01 C 49.34 4.00 46.68 4.00 44.02 4.01 C 43.52 4.00 42.52 3.99 42.02 3.98 L 42.00 3.01 Z" />
<path fill="#000000" opacity="0.73" d=" M 23.74 37.75 C 28.32 35.82 35.44 36.95 40.24 37.74 C 34.75 37.96 29.22 38.34 23.74 37.75 Z" />
<path fill="#000000" opacity="0.73" d=" M 9.66 60.77 C 10.22 60.56 11.34 60.15 11.90 59.94 C 14.59 59.93 17.27 59.90 19.96 59.86 C 20.53 60.06 21.69 60.48 22.26 60.69 C 18.06 61.04 13.86 61.06 9.66 60.77 Z" />
<path fill="#000000" opacity="0.73" d=" M 41.83 60.11 C 42.38 60.06 43.49 59.97 44.05 59.92 C 46.73 59.93 49.41 59.94 52.09 59.95 C 52.64 60.15 53.76 60.56 54.32 60.77 C 50.21 60.98 46.09 61.09 41.98 61.08 L 41.83 60.11 Z" />
</g>
<g id="#020202f9">
<path fill="#020202" opacity="0.98" d=" M 8.02 4.02 C 8.52 4.01 9.51 3.99 10.01 3.97 C 10.51 3.98 11.50 4.00 12.00 4.01 L 12.01 4.98 L 11.98 5.92 C 11.49 5.96 10.51 6.03 10.02 6.07 L 9.06 6.16 C 8.99 23.73 8.86 41.31 9.09 58.87 C 9.83 58.92 11.31 59.01 12.05 59.05 L 11.90 59.94 C 11.34 60.15 10.22 60.56 9.66 60.77 L 8.81 61.07 C 7.02 42.46 8.43 23.68 8.00 5.01 L 8.02 4.02 Z" />
<path fill="#020202" opacity="0.98" d=" M 19.99 4.01 C 20.49 4.01 21.49 3.99 21.99 3.99 C 22.24 4.24 22.75 4.75 23.00 5.00 C 23.08 11.31 22.77 17.63 23.06 23.93 L 23.98 23.99 C 29.32 24.05 34.67 24.14 40.01 23.97 L 40.97 23.91 C 41.09 17.61 41.01 11.30 41.00 5.00 C 41.25 4.74 41.76 4.24 42.02 3.98 C 42.52 3.99 43.52 4.00 44.02 4.01 L 44.00 4.96 L 43.95 5.86 L 43.02 6.08 L 42.11 6.30 C 41.88 12.86 42.02 19.42 41.99 25.98 C 35.33 26.03 28.67 26.17 22.02 25.97 C 21.86 19.39 22.34 12.80 21.87 6.24 L 20.98 6.06 L 20.04 5.88 L 20.00 4.97 L 19.99 4.01 Z" />
<path fill="#020202" opacity="0.98" d=" M 52.00 4.01 C 52.50 4.01 53.50 3.99 54.00 3.98 C 54.50 4.23 55.50 4.75 56.00 5.01 C 55.97 22.01 56.02 39.02 56.04 56.02 C 56.08 57.74 55.73 59.44 55.15 61.06 L 54.32 60.77 C 53.76 60.56 52.64 60.15 52.09 59.95 L 51.96 59.05 C 52.70 59.00 54.19 58.90 54.94 58.85 C 55.01 41.28 55.14 23.70 54.91 6.14 L 53.98 6.06 C 53.49 6.03 52.51 5.97 52.02 5.94 L 51.99 4.99 L 52.00 4.01 Z" />
<path fill="#020202" opacity="0.98" d=" M 21.80 35.81 C 28.60 36.18 35.40 35.95 42.20 35.78 C 42.62 43.08 40.65 51.14 42.84 58.08 C 43.00 58.32 43.33 58.80 43.49 59.04 L 44.05 59.92 C 43.49 59.97 42.38 60.06 41.83 60.11 C 39.84 52.92 42.42 44.49 40.24 37.74 C 35.44 36.95 28.32 35.82 23.74 37.75 C 22.13 44.53 23.02 52.21 23.57 59.27 C 23.66 60.40 23.23 60.87 22.26 60.69 C 21.69 60.48 20.53 60.06 19.96 59.86 L 20.49 59.03 C 20.66 58.80 20.99 58.32 21.15 58.09 C 23.37 51.16 21.36 43.10 21.80 35.81 Z" />
</g>
<g id="#171517fc">
<path fill="#171517" opacity="1.00" d=" M 12.00 4.01 C 14.66 4.00 17.33 4.00 19.99 4.01 L 20.00 4.97 C 17.34 5.00 14.67 5.00 12.01 4.98 L 12.00 4.01 Z" />
<path fill="#171517" opacity="1.00" d=" M 44.02 4.01 C 46.68 4.00 49.34 4.00 52.00 4.01 L 51.99 4.99 C 49.33 5.00 46.66 5.00 44.00 4.96 L 44.02 4.01 Z" />
<path fill="#171517" opacity="1.00" d=" M 12.05 59.05 C 14.86 59.02 17.68 59.02 20.49 59.03 L 19.96 59.86 C 17.27 59.90 14.59 59.93 11.90 59.94 L 12.05 59.05 Z" />
<path fill="#171517" opacity="1.00" d=" M 43.49 59.04 C 46.31 59.01 49.13 59.02 51.96 59.05 L 52.09 59.95 C 49.41 59.94 46.73 59.93 44.05 59.92 L 43.49 59.04 Z" />
</g>
<g id="#00000082">
<path fill="#000000" opacity="0.51" d=" M 7.03 5.01 L 8.00 5.01 C 8.43 23.68 7.02 42.46 8.81 61.07 C 8.37 61.04 7.49 60.98 7.05 60.95 C 6.94 42.30 6.99 23.66 7.03 5.01 Z" />
<path fill="#000000" opacity="0.51" d=" M 23.00 5.00 L 23.98 5.00 C 24.03 11.01 24.06 17.01 24.01 23.02 L 23.98 23.99 L 23.06 23.93 C 22.77 17.63 23.08 11.31 23.00 5.00 Z" />
<path fill="#000000" opacity="0.51" d=" M 40.04 5.02 L 41.00 5.00 C 41.01 11.30 41.09 17.61 40.97 23.91 L 40.01 23.97 L 39.98 23.03 C 40.00 17.02 39.86 11.02 40.04 5.02 Z" />
<path fill="#000000" opacity="0.51" d=" M 56.00 5.01 L 56.98 5.00 C 57.00 23.65 57.07 42.30 56.95 60.95 C 56.50 60.98 55.60 61.03 55.15 61.06 C 55.73 59.44 56.08 57.74 56.04 56.02 C 56.02 39.02 55.97 22.01 56.00 5.01 Z" />
<path fill="#000000" opacity="0.51" d=" M 23.57 59.27 C 23.02 52.21 22.13 44.53 23.74 37.75 C 23.84 44.90 24.66 52.16 23.57 59.27 Z" />
<path fill="#000000" opacity="0.51" d=" M 40.24 37.74 C 42.42 44.49 39.84 52.92 41.83 60.11 L 41.98 61.08 C 41.51 60.76 40.57 60.13 40.10 59.82 C 39.99 52.46 39.71 45.08 40.24 37.74 Z" />
</g>
<g id="#696a69ff">
<path fill="#696a69" opacity="1.00" d=" M 12.01 4.98 C 14.67 5.00 17.34 5.00 20.00 4.97 L 20.04 5.88 C 17.36 5.91 14.67 5.92 11.98 5.92 L 12.01 4.98 Z" />
<path fill="#696a69" opacity="1.00" d=" M 44.00 4.96 C 46.66 5.00 49.33 5.00 51.99 4.99 L 52.02 5.94 C 49.32 5.92 46.63 5.90 43.95 5.86 L 44.00 4.96 Z" />
<path fill="#696a69" opacity="1.00" d=" M 21.80 35.81 C 28.38 34.49 35.62 34.51 42.20 35.78 C 35.40 35.95 28.60 36.18 21.80 35.81 Z" />
</g>
<g id="#494949ff">
<path fill="#494949" opacity="1.00" d=" M 9.06 6.16 L 10.02 6.07 C 9.99 14.96 9.89 23.85 10.19 32.74 C 10.13 41.09 9.64 49.46 10.12 57.81 C 12.71 58.11 17.90 58.73 20.49 59.03 C 17.68 59.02 14.86 59.02 12.05 59.05 C 11.31 59.01 9.83 58.92 9.09 58.87 C 8.86 41.31 8.99 23.73 9.06 6.16 Z" />
<path fill="#494949" opacity="1.00" d=" M 20.98 6.06 L 21.87 6.24 C 22.34 12.80 21.86 19.39 22.02 25.97 L 21.08 25.90 C 20.74 19.30 21.11 12.67 20.98 6.06 Z" />
<path fill="#494949" opacity="1.00" d=" M 42.11 6.30 L 43.02 6.08 C 42.96 12.69 43.11 19.31 42.96 25.93 L 41.99 25.98 C 42.02 19.42 41.88 12.86 42.11 6.30 Z" />
<path fill="#494949" opacity="1.00" d=" M 53.98 6.06 L 54.91 6.14 C 55.14 23.70 55.01 41.28 54.94 58.85 C 54.19 58.90 52.70 59.00 51.96 59.05 C 49.13 59.02 46.31 59.01 43.49 59.04 C 46.09 58.72 51.30 58.07 53.91 57.74 C 54.16 49.07 54.00 40.40 53.84 31.73 C 54.27 23.18 53.90 14.61 53.98 6.06 Z" />
<path fill="#494949" opacity="1.00" d=" M 21.04 36.18 L 21.80 35.81 C 21.36 43.10 23.37 51.16 21.15 58.09 C 21.02 50.78 20.94 43.48 21.04 36.18 Z" />
<path fill="#494949" opacity="1.00" d=" M 42.20 35.78 L 42.96 36.17 C 43.06 43.47 42.98 50.78 42.84 58.08 C 40.65 51.14 42.62 43.08 42.20 35.78 Z" />
</g>
<g id="#e9eae9ff">
<path fill="#e9eae9" opacity="1.00" d=" M 10.02 6.07 C 10.51 6.03 11.49 5.96 11.98 5.92 C 14.67 5.92 17.36 5.91 20.04 5.88 L 20.98 6.06 C 21.11 12.67 20.74 19.30 21.08 25.90 L 22.02 25.97 C 28.67 26.17 35.33 26.03 41.99 25.98 L 42.96 25.93 C 43.11 19.31 42.96 12.69 43.02 6.08 L 43.95 5.86 C 46.63 5.90 49.32 5.92 52.02 5.94 C 52.51 5.97 53.49 6.03 53.98 6.06 C 53.90 14.61 54.27 23.18 53.84 31.73 C 52.04 33.41 52.02 35.98 50.85 38.01 C 47.67 39.43 45.40 37.43 42.96 36.17 L 42.20 35.78 C 35.62 34.51 28.38 34.49 21.80 35.81 L 21.04 36.18 C 18.73 37.72 16.00 38.13 13.22 37.94 C 12.20 36.21 11.43 34.33 10.19 32.74 C 9.89 23.85 9.99 14.96 10.02 6.07 Z" />
</g>
<g id="#00000049">
<path fill="#000000" opacity="0.29" d=" M 24.01 23.02 C 29.33 22.96 34.66 22.90 39.98 23.03 L 40.01 23.97 C 34.67 24.14 29.32 24.05 23.98 23.99 L 24.01 23.02 Z" />
</g>
<g id="#cbcccbff">
<path fill="#cbcccb" opacity="1.00" d=" M 50.85 38.01 C 52.02 35.98 52.04 33.41 53.84 31.73 C 54.00 40.40 54.16 49.07 53.91 57.74 C 51.30 58.07 46.09 58.72 43.49 59.04 C 43.33 58.80 43.00 58.32 42.84 58.08 C 42.98 50.78 43.06 43.47 42.96 36.17 C 45.40 37.43 47.67 39.43 50.85 38.01 Z" />
<path fill="#cbcccb" opacity="1.00" d=" M 10.19 32.74 C 11.43 34.33 12.20 36.21 13.22 37.94 C 16.00 38.13 18.73 37.72 21.04 36.18 C 20.94 43.48 21.02 50.78 21.15 58.09 C 20.99 58.32 20.66 58.80 20.49 59.03 C 17.90 58.73 12.71 58.11 10.12 57.81 C 9.64 49.46 10.13 41.09 10.19 32.74 Z" />
</g>
</svg>
