<?xml version="1.0" encoding="UTF-8" ?>
<!DOCTYPE svg PUBLIC "-//W3C//DTD SVG 1.1//EN" "http://www.w3.org/Graphics/SVG/1.1/DTD/svg11.dtd">
<svg width="64pt" height="64pt" viewBox="0 0 64 64" version="1.1" xmlns="http://www.w3.org/2000/svg">
<g id="#010101ff">
<path fill="#010101" opacity="1.00" d=" M 4.73 5.77 C 22.89 5.60 41.06 5.56 59.22 5.79 C 59.87 7.45 60.17 9.21 60.08 10.99 C 59.69 25.65 60.29 40.33 59.81 54.99 C 59.64 55.28 59.31 55.88 59.14 56.17 C 54.20 57.00 49.09 56.46 44.08 56.28 C 32.72 56.24 21.35 56.22 10.00 56.59 C 7.92 56.36 3.93 57.41 4.11 54.08 C 3.72 41.39 4.16 28.69 3.94 16.00 C 4.06 12.59 3.44 9.03 4.73 5.77 M 6.31 7.93 C 6.39 14.40 6.20 20.87 6.47 27.33 C 5.97 36.34 6.45 45.37 6.36 54.39 C 9.33 54.34 12.30 54.27 15.27 54.27 C 15.27 52.28 15.27 50.28 15.27 48.29 C 26.35 48.25 37.44 48.26 48.53 48.29 C 48.40 50.32 48.45 52.35 48.81 54.36 C 51.75 54.27 54.69 54.33 57.63 54.38 C 57.58 46.73 57.96 39.07 57.55 31.43 C 57.73 23.60 57.63 15.76 57.69 7.93 C 40.56 7.92 23.44 7.92 6.31 7.93 Z" />
<path fill="#010101" opacity="1.00" d=" M 15.24 18.32 C 26.34 18.31 37.43 18.31 48.53 18.32 C 48.52 18.80 48.51 19.75 48.50 20.23 C 48.48 21.80 48.47 23.37 48.46 24.94 C 37.41 24.96 26.36 24.96 15.31 24.94 C 15.30 23.37 15.29 21.79 15.27 20.22 C 15.26 19.74 15.25 18.79 15.24 18.32 Z" />
<path fill="#010101" opacity="1.00" d=" M 15.26 28.04 C 26.35 28.07 37.45 28.00 48.54 28.09 C 48.53 29.27 48.51 30.46 48.49 31.65 C 48.48 32.49 48.47 34.17 48.46 35.01 C 37.41 35.06 26.36 35.06 15.31 35.01 C 15.30 34.16 15.29 32.46 15.29 31.61 C 15.28 30.42 15.27 29.23 15.26 28.04 Z" />
<path fill="#010101" opacity="1.00" d=" M 15.32 38.02 C 26.37 38.05 37.41 38.02 48.45 38.05 C 48.46 38.44 48.49 39.22 48.50 39.61 C 48.51 41.52 48.48 43.42 48.44 45.32 C 37.41 45.32 26.38 45.31 15.35 45.33 C 15.30 43.40 15.26 41.48 15.26 39.56 C 15.28 39.18 15.31 38.41 15.32 38.02 Z" />
</g>
<g id="#d1c7b4ff">
<path fill="#d1c7b4" opacity="1.00" d=" M 6.31 7.93 C 23.44 7.92 40.56 7.92 57.69 7.93 C 57.63 15.76 57.73 23.60 57.55 31.43 L 57.48 32.41 C 57.14 28.48 56.69 24.55 56.49 20.60 C 53.83 20.47 51.17 20.35 48.50 20.23 C 48.51 19.75 48.52 18.80 48.53 18.32 C 37.43 18.31 26.34 18.31 15.24 18.32 C 15.25 18.79 15.26 19.74 15.27 20.22 C 12.73 20.34 10.20 20.47 7.67 20.60 C 7.31 23.24 6.89 25.87 6.56 28.51 L 6.47 27.33 C 6.20 20.87 6.39 14.40 6.31 7.93 Z" />
</g>
<g id="#b7b0a7ff">
<path fill="#b7b0a7" opacity="1.00" d=" M 7.67 20.60 C 10.20 20.47 12.73 20.34 15.27 20.22 C 15.29 21.79 15.30 23.37 15.31 24.94 C 26.36 24.96 37.41 24.96 48.46 24.94 C 48.47 23.37 48.48 21.80 48.50 20.23 C 51.17 20.35 53.83 20.47 56.49 20.60 C 56.69 24.55 57.14 28.48 57.48 32.41 C 57.40 33.67 57.28 34.92 57.14 36.17 C 54.22 34.73 51.35 33.21 48.49 31.65 C 48.51 30.46 48.53 29.27 48.54 28.09 C 37.45 28.00 26.35 28.07 15.26 28.04 C 15.27 29.23 15.28 30.42 15.29 31.61 C 12.56 33.22 9.78 34.75 6.94 36.18 C 6.84 33.62 6.72 31.06 6.56 28.51 C 6.89 25.87 7.31 23.24 7.67 20.60 Z" />
</g>
<g id="#959593ff">
<path fill="#959593" opacity="1.00" d=" M 6.47 27.33 L 6.56 28.51 C 6.72 31.06 6.84 33.62 6.94 36.18 C 7.07 38.56 7.66 40.88 8.29 43.17 C 10.85 42.48 13.18 41.18 15.26 39.56 C 15.26 41.48 15.30 43.40 15.35 45.33 C 26.38 45.31 37.41 45.32 48.44 45.32 C 48.48 43.42 48.51 41.52 48.50 39.61 C 50.69 41.19 53.12 42.42 55.74 43.10 C 56.29 40.81 56.81 38.51 57.14 36.17 C 57.28 34.92 57.40 33.67 57.48 32.41 L 57.55 31.43 C 57.96 39.07 57.58 46.73 57.63 54.38 C 54.69 54.33 51.75 54.27 48.81 54.36 C 48.45 52.35 48.40 50.32 48.53 48.29 C 37.44 48.26 26.35 48.25 15.27 48.29 C 15.27 50.28 15.27 52.28 15.27 54.27 C 12.30 54.27 9.33 54.34 6.36 54.39 C 6.45 45.37 5.97 36.34 6.47 27.33 Z" />
</g>
<g id="#a6a19aff">
<path fill="#a6a19a" opacity="1.00" d=" M 6.94 36.18 C 9.78 34.75 12.56 33.22 15.29 31.61 C 15.29 32.46 15.30 34.16 15.31 35.01 C 26.36 35.06 37.41 35.06 48.46 35.01 C 48.47 34.17 48.48 32.49 48.49 31.65 C 51.35 33.21 54.22 34.73 57.14 36.17 C 56.81 38.51 56.29 40.81 55.74 43.10 C 53.12 42.42 50.69 41.19 48.50 39.61 C 48.49 39.22 48.46 38.44 48.45 38.05 C 37.41 38.02 26.37 38.05 15.32 38.02 C 15.31 38.41 15.28 39.18 15.26 39.56 C 13.18 41.18 10.85 42.48 8.29 43.17 C 7.66 40.88 7.07 38.56 6.94 36.18 Z" />
</g>
</svg>
