<?xml version="1.0" encoding="UTF-8" ?>
<!DOCTYPE svg PUBLIC "-//W3C//DTD SVG 1.1//EN" "http://www.w3.org/Graphics/SVG/1.1/DTD/svg11.dtd">
<svg width="64pt" height="64pt" viewBox="0 0 64 64" version="1.1" xmlns="http://www.w3.org/2000/svg">
<g id="#2e282afe">
<path fill="#2e282a" opacity="1.00" d=" M 2.26 12.44 C 12.79 11.42 23.42 12.39 33.99 11.95 C 41.85 12.30 49.75 11.70 57.59 12.33 C 57.77 13.52 57.95 14.71 58.13 15.90 C 59.30 16.08 60.48 16.25 61.66 16.41 C 62.25 27.58 61.78 38.82 61.91 50.01 C 62.06 51.66 60.37 52.06 59.08 51.93 C 42.05 51.94 25.00 51.98 7.98 51.90 C 5.85 52.04 6.16 49.53 5.78 48.14 C 4.64 48.06 3.55 47.82 2.51 47.41 C 1.81 46.05 2.12 44.46 2.05 43.00 C 2.23 32.81 1.82 22.61 2.26 12.44 M 4.23 14.18 C 4.32 24.73 4.30 35.28 4.24 45.83 C 21.34 45.43 38.47 45.83 55.58 45.63 C 55.94 35.16 55.57 24.66 55.77 14.18 C 38.60 14.44 21.40 14.45 4.23 14.18 M 58.07 19.86 C 57.91 28.86 58.22 37.87 57.92 46.87 C 57.66 47.13 57.13 47.66 56.86 47.93 C 41.21 48.20 25.54 47.95 9.88 48.05 C 8.70 47.91 8.03 48.43 7.84 49.63 C 25.15 49.75 42.47 49.42 59.77 49.79 C 59.46 39.16 59.79 28.51 59.60 17.87 C 58.46 18.04 57.95 18.70 58.07 19.86 Z" />
<path fill="#2e282a" opacity="1.00" d=" M 7.50 17.41 C 12.71 17.24 17.92 17.63 23.11 17.33 C 19.13 20.58 14.02 19.51 9.30 19.52 C 9.35 26.51 9.34 33.50 9.30 40.49 C 14.02 40.43 19.06 39.51 23.05 42.63 C 17.87 42.44 12.68 42.73 7.49 42.59 C 7.06 34.23 7.04 25.77 7.50 17.41 Z" />
<path fill="#2e282a" opacity="1.00" d=" M 36.76 17.39 C 42.01 17.58 47.27 17.25 52.52 17.43 C 52.91 25.79 52.91 34.22 52.52 42.58 C 47.28 42.81 42.01 42.28 36.78 42.74 C 38.38 42.13 39.72 40.97 41.33 40.44 C 44.45 40.32 47.58 40.39 50.70 40.49 C 50.66 33.50 50.65 26.51 50.70 19.52 C 47.58 19.61 44.45 19.69 41.32 19.56 C 39.73 19.01 38.39 17.87 36.76 17.39 Z" />
</g>
<g id="#ffffffff">
<path fill="#ffffff" opacity="1.00" d=" M 4.23 14.18 C 21.40 14.45 38.60 14.44 55.77 14.18 C 55.57 24.66 55.94 35.16 55.58 45.63 C 38.47 45.83 21.34 45.43 4.24 45.83 C 4.30 35.28 4.32 24.73 4.23 14.18 M 7.50 17.41 C 7.04 25.77 7.06 34.23 7.49 42.59 C 12.68 42.73 17.87 42.44 23.05 42.63 C 19.06 39.51 14.02 40.43 9.30 40.49 C 9.34 33.50 9.35 26.51 9.30 19.52 C 14.02 19.51 19.13 20.58 23.11 17.33 C 17.92 17.63 12.71 17.24 7.50 17.41 M 27.62 17.72 C 22.05 18.83 17.28 24.19 17.58 30.00 C 17.26 36.93 24.10 43.28 31.01 42.39 C 35.35 42.39 38.77 39.14 41.08 35.78 C 43.27 31.59 42.94 25.92 39.71 22.34 C 36.96 18.60 32.15 16.87 27.62 17.72 M 36.76 17.39 C 38.39 17.87 39.73 19.01 41.32 19.56 C 44.45 19.69 47.58 19.61 50.70 19.52 C 50.65 26.51 50.66 33.50 50.70 40.49 C 47.58 40.39 44.45 40.32 41.33 40.44 C 39.72 40.97 38.38 42.13 36.78 42.74 C 42.01 42.28 47.28 42.81 52.52 42.58 C 52.91 34.22 52.91 25.79 52.52 17.43 C 47.27 17.25 42.01 17.58 36.76 17.39 Z" />
<path fill="#ffffff" opacity="1.00" d=" M 58.07 19.86 C 57.95 18.70 58.46 18.04 59.60 17.87 C 59.79 28.51 59.46 39.16 59.77 49.79 C 42.47 49.42 25.15 49.75 7.84 49.63 C 8.03 48.43 8.70 47.91 9.88 48.05 C 25.54 47.95 41.21 48.20 56.86 47.93 C 57.13 47.66 57.66 47.13 57.92 46.87 C 58.22 37.87 57.91 28.86 58.07 19.86 Z" />
</g>
<g id="#000100ff">
<path fill="#000100" opacity="1.00" d=" M 27.62 17.72 C 32.15 16.87 36.96 18.60 39.71 22.34 C 42.94 25.92 43.27 31.59 41.08 35.78 C 38.77 39.14 35.35 42.39 31.01 42.39 C 24.10 43.28 17.26 36.93 17.58 30.00 C 17.28 24.19 22.05 18.83 27.62 17.72 M 28.37 20.93 C 28.63 22.33 28.12 23.24 26.84 23.67 C 24.85 24.50 24.01 27.05 25.08 28.91 C 26.82 31.07 29.88 30.92 32.21 32.05 C 33.61 35.17 29.41 34.51 27.77 33.83 C 27.65 33.35 27.39 32.40 27.26 31.92 C 26.47 31.93 24.89 31.94 24.10 31.95 C 24.39 34.32 25.74 36.29 28.09 37.00 C 28.30 38.80 29.39 39.49 31.17 39.12 C 31.34 38.60 31.68 37.58 31.84 37.07 C 35.13 36.39 36.64 33.06 35.04 30.13 C 32.97 28.02 28.56 29.37 27.81 26.16 C 29.44 25.37 31.65 25.25 32.23 27.42 C 33.05 27.41 34.68 27.40 35.49 27.39 C 35.01 26.21 34.47 25.06 33.87 23.94 C 33.37 23.71 32.37 23.26 31.87 23.03 C 31.70 22.50 31.36 21.45 31.19 20.92 C 30.48 20.92 29.07 20.93 28.37 20.93 Z" />
</g>
<g id="#f1f2f1ff">
<path fill="#f1f2f1" opacity="1.00" d=" M 28.37 20.93 C 29.07 20.93 30.48 20.92 31.19 20.92 C 31.36 21.45 31.70 22.50 31.87 23.03 C 32.37 23.26 33.37 23.71 33.87 23.94 C 34.47 25.06 35.01 26.21 35.49 27.39 C 34.68 27.40 33.05 27.41 32.23 27.42 C 31.65 25.25 29.44 25.37 27.81 26.16 C 28.56 29.37 32.97 28.02 35.04 30.13 C 36.64 33.06 35.13 36.39 31.84 37.07 C 31.68 37.58 31.34 38.60 31.17 39.12 C 29.39 39.49 28.30 38.80 28.09 37.00 C 25.74 36.29 24.39 34.32 24.10 31.95 C 24.89 31.94 26.47 31.93 27.26 31.92 C 27.39 32.40 27.65 33.35 27.77 33.83 C 29.41 34.51 33.61 35.17 32.21 32.05 C 29.88 30.92 26.82 31.07 25.08 28.91 C 24.01 27.05 24.85 24.50 26.84 23.67 C 28.12 23.24 28.63 22.33 28.37 20.93 Z" />
</g>
</svg>
