<?xml version="1.0" encoding="UTF-8" ?>
<!DOCTYPE svg PUBLIC "-//W3C//DTD SVG 1.1//EN" "http://www.w3.org/Graphics/SVG/1.1/DTD/svg11.dtd">
<svg width="64pt" height="64pt" viewBox="0 0 64 64" version="1.1" xmlns="http://www.w3.org/2000/svg">
<g id="#030403ff">
<path fill="#030403" opacity="1.00" d=" M 7.45 20.68 C 15.22 15.18 23.04 9.75 30.98 4.51 C 32.81 4.63 34.88 4.42 36.34 5.78 C 40.15 8.59 44.09 11.22 47.99 13.90 C 49.79 15.28 51.56 16.69 53.46 17.94 L 53.30 17.80 C 53.87 18.18 55.00 18.95 55.56 19.34 C 55.61 19.37 55.71 19.45 55.76 19.49 C 60.82 23.02 59.99 33.25 53.22 34.33 C 53.33 40.91 53.33 47.49 53.28 54.06 C 53.27 56.86 50.84 59.58 47.93 59.41 C 37.66 59.61 27.38 59.48 17.10 59.47 C 14.11 59.82 11.13 57.11 11.29 54.08 C 11.17 47.51 11.34 40.94 11.23 34.37 C 8.90 33.68 6.02 32.63 5.45 29.94 C 4.98 26.83 4.57 22.78 7.45 20.68 M 29.57 8.23 C 22.34 13.21 15.05 18.13 7.92 23.25 C 7.36 25.80 6.88 28.93 8.78 31.07 C 10.28 31.82 12.03 31.58 13.64 31.78 C 13.55 36.87 13.88 41.97 13.41 47.04 C 13.27 49.81 13.15 52.63 13.86 55.34 C 14.47 56.87 16.39 57.44 17.92 57.32 C 27.61 57.24 37.30 57.34 46.99 57.27 C 48.78 57.41 50.09 56.18 50.97 54.77 C 51.08 47.06 51.06 39.34 51.06 31.63 C 52.61 31.63 54.33 31.84 55.58 30.70 C 56.99 28.29 56.41 25.42 56.17 22.80 C 49.21 17.81 42.20 12.90 35.26 7.89 C 33.57 6.50 31.19 7.00 29.57 8.23 Z" />
<path fill="#030403" opacity="1.00" d=" M 30.52 23.04 C 31.24 22.21 31.97 21.39 32.70 20.58 C 33.13 21.19 33.97 22.43 34.39 23.05 C 38.55 23.05 42.70 23.06 46.85 23.04 C 47.30 23.49 48.21 24.37 48.67 24.81 C 48.19 25.22 47.25 26.03 46.78 26.44 C 42.23 26.38 37.69 26.48 33.14 26.65 C 37.15 26.56 41.14 27.93 42.92 31.66 C 43.35 36.01 44.02 40.76 41.59 44.68 C 42.07 44.64 43.05 44.56 43.54 44.52 C 43.57 46.41 43.87 48.38 43.19 50.20 C 41.39 51.36 41.12 48.18 40.23 47.27 C 35.08 47.28 29.93 47.30 24.78 47.28 C 24.04 48.54 23.28 49.80 22.52 51.04 C 21.19 48.95 20.31 45.40 23.28 44.26 C 21.23 40.59 22.00 36.16 22.23 32.15 C 23.27 27.94 27.88 27.21 31.54 26.79 C 26.43 25.54 20.49 27.92 16.02 24.62 C 20.21 21.59 25.73 23.62 30.52 23.04 M 25.83 30.76 C 25.22 32.55 24.69 34.37 24.45 36.25 C 26.65 36.27 28.85 36.27 31.06 36.27 C 31.05 34.12 31.04 31.97 31.02 29.83 C 29.26 29.97 27.53 30.29 25.83 30.76 M 33.98 29.86 C 33.98 32.00 33.98 34.13 33.98 36.27 C 36.13 36.28 38.28 36.29 40.43 36.28 C 41.31 32.29 37.81 29.25 33.98 29.86 Z" />
</g>
<g id="#f1f1f1ff">
<path fill="#f1f1f1" opacity="1.00" d=" M 29.57 8.23 C 31.19 7.00 33.57 6.50 35.26 7.89 C 42.20 12.90 49.21 17.81 56.17 22.80 C 56.41 25.42 56.99 28.29 55.58 30.70 C 54.33 31.84 52.61 31.63 51.06 31.63 C 48.35 31.56 45.64 31.57 42.92 31.66 C 41.14 27.93 37.15 26.56 33.14 26.65 C 37.69 26.48 42.23 26.38 46.78 26.44 C 47.25 26.03 48.19 25.22 48.67 24.81 C 48.21 24.37 47.30 23.49 46.85 23.04 C 42.70 23.06 38.55 23.05 34.39 23.05 C 33.97 22.43 33.13 21.19 32.70 20.58 C 31.97 21.39 31.24 22.21 30.52 23.04 C 25.73 23.62 20.21 21.59 16.02 24.62 C 16.20 25.44 16.38 26.26 16.56 27.09 C 18.03 28.03 19.53 28.93 21.04 29.80 C 18.85 30.69 16.67 31.58 14.47 32.42 C 14.05 40.05 13.95 47.69 13.86 55.34 C 13.15 52.63 13.27 49.81 13.41 47.04 C 13.88 41.97 13.55 36.87 13.64 31.78 C 12.03 31.58 10.28 31.82 8.78 31.07 C 6.88 28.93 7.36 25.80 7.92 23.25 C 15.05 18.13 22.34 13.21 29.57 8.23 Z" />
</g>
<g id="#0203027d">
<path fill="#020302" opacity="0.49" d=" M 47.99 13.90 C 49.96 14.91 51.73 16.24 53.30 17.80 L 53.46 17.94 C 51.56 16.69 49.79 15.28 47.99 13.90 Z" />
</g>
<g id="#3b3d3bf9">
<path fill="#3b3d3b" opacity="0.98" d=" M 55.56 19.34 C 55.61 19.37 55.71 19.45 55.76 19.49 C 55.71 19.45 55.61 19.37 55.56 19.34 Z" />
</g>
<g id="#cfcfcfff">
<path fill="#cfcfcf" opacity="1.00" d=" M 16.56 27.09 C 16.38 26.26 16.20 25.44 16.02 24.62 C 20.49 27.92 26.43 25.54 31.54 26.79 C 27.88 27.21 23.27 27.94 22.23 32.15 C 22.00 36.16 21.23 40.59 23.28 44.26 C 20.31 45.40 21.19 48.95 22.52 51.04 C 23.28 49.80 24.04 48.54 24.78 47.28 C 29.93 47.30 35.08 47.28 40.23 47.27 C 41.12 48.18 41.39 51.36 43.19 50.20 C 43.87 48.38 43.57 46.41 43.54 44.52 C 43.05 44.56 42.07 44.64 41.59 44.68 C 44.02 40.76 43.35 36.01 42.92 31.66 C 45.64 31.57 48.35 31.56 51.06 31.63 C 51.06 39.34 51.08 47.06 50.97 54.77 C 50.09 56.18 48.78 57.41 46.99 57.27 C 37.30 57.34 27.61 57.24 17.92 57.32 C 16.39 57.44 14.47 56.87 13.86 55.34 C 13.95 47.69 14.05 40.05 14.47 32.42 C 16.67 31.58 18.85 30.69 21.04 29.80 C 19.53 28.93 18.03 28.03 16.56 27.09 Z" />
<path fill="#cfcfcf" opacity="1.00" d=" M 25.83 30.76 C 27.53 30.29 29.26 29.97 31.02 29.83 C 31.04 31.97 31.05 34.12 31.06 36.27 C 28.85 36.27 26.65 36.27 24.45 36.25 C 24.69 34.37 25.22 32.55 25.83 30.76 Z" />
<path fill="#cfcfcf" opacity="1.00" d=" M 33.98 29.86 C 37.81 29.25 41.31 32.29 40.43 36.28 C 38.28 36.29 36.13 36.28 33.98 36.27 C 33.98 34.13 33.98 32.00 33.98 29.86 Z" />
</g>
</svg>
