<?xml version="1.0" encoding="UTF-8" ?>
<!DOCTYPE svg PUBLIC "-//W3C//DTD SVG 1.1//EN" "http://www.w3.org/Graphics/SVG/1.1/DTD/svg11.dtd">
<svg width="64pt" height="64pt" viewBox="0 0 64 64" version="1.1" xmlns="http://www.w3.org/2000/svg">
<g id="#020202fe">
<path fill="#020202" opacity="1.00" d=" M 19.08 17.99 C 25.94 9.71 40.48 10.61 46.28 19.64 C 50.92 26.16 49.50 34.50 49.72 41.99 C 49.47 45.01 50.70 48.68 48.09 50.96 C 47.54 50.78 46.45 50.41 45.91 50.23 C 44.95 49.19 43.99 48.16 43.04 47.12 C 41.46 48.69 39.94 50.35 38.13 51.65 C 35.39 51.67 34.03 48.80 32.13 47.27 C 30.51 48.80 29.04 50.60 27.03 51.64 C 24.52 51.30 23.08 48.68 21.23 47.18 C 19.49 48.46 17.94 51.69 15.39 50.61 C 13.32 48.27 14.61 44.85 14.28 42.03 C 14.56 33.95 12.79 24.34 19.08 17.99 M 16.86 27.85 C 16.29 34.74 16.53 41.67 16.43 48.57 C 18.04 47.09 19.59 45.55 21.10 43.96 C 22.88 45.60 24.84 47.11 26.22 49.14 C 28.37 47.62 30.18 45.71 31.99 43.82 C 33.81 45.66 35.63 47.48 37.52 49.24 C 39.39 47.47 41.20 45.65 43.00 43.81 C 44.45 45.31 45.91 46.79 47.37 48.28 C 47.37 41.80 47.79 35.29 47.22 28.83 C 46.71 22.42 42.04 16.45 35.66 15.04 C 27.20 12.43 17.84 19.24 16.86 27.85 Z" />
<path fill="#020202" opacity="1.00" d=" M 20.72 28.02 C 22.52 25.67 26.15 24.00 28.60 26.43 C 31.18 28.30 30.41 31.68 28.60 33.79 C 26.76 34.45 24.85 34.73 22.93 34.31 C 21.43 32.53 20.64 30.35 20.72 28.02 Z" />
<path fill="#020202" opacity="1.00" d=" M 33.41 30.02 C 34.01 27.48 36.07 24.77 39.00 25.30 C 40.81 25.24 41.91 26.92 43.15 27.96 C 43.16 28.81 43.18 30.53 43.19 31.39 C 42.46 32.35 41.73 33.31 41.01 34.28 C 37.75 35.33 33.93 33.63 33.41 30.02 Z" />
</g>
<g id="#fffeffff">
<path fill="#fffeff" opacity="1.00" d=" M 16.86 27.85 C 17.84 19.24 27.20 12.43 35.66 15.04 C 42.04 16.45 46.71 22.42 47.22 28.83 C 47.79 35.29 47.37 41.80 47.37 48.28 C 45.91 46.79 44.45 45.31 43.00 43.81 C 41.20 45.65 39.39 47.47 37.52 49.24 C 35.63 47.48 33.81 45.66 31.99 43.82 C 30.18 45.71 28.37 47.62 26.22 49.14 C 24.84 47.11 22.88 45.60 21.10 43.96 C 19.59 45.55 18.04 47.09 16.43 48.57 C 16.53 41.67 16.29 34.74 16.86 27.85 M 20.72 28.02 C 20.64 30.35 21.43 32.53 22.93 34.31 C 24.85 34.73 26.76 34.45 28.60 33.79 C 30.41 31.68 31.18 28.30 28.60 26.43 C 26.15 24.00 22.52 25.67 20.72 28.02 M 33.41 30.02 C 33.93 33.63 37.75 35.33 41.01 34.28 C 41.73 33.31 42.46 32.35 43.19 31.39 C 43.18 30.53 43.16 28.81 43.15 27.96 C 41.91 26.92 40.81 25.24 39.00 25.30 C 36.07 24.77 34.01 27.48 33.41 30.02 Z" />
</g>
</svg>
