<?xml version="1.0" encoding="UTF-8" ?>
<!DOCTYPE svg PUBLIC "-//W3C//DTD SVG 1.1//EN" "http://www.w3.org/Graphics/SVG/1.1/DTD/svg11.dtd">
<svg width="64pt" height="64pt" viewBox="0 0 64 64" version="1.1" xmlns="http://www.w3.org/2000/svg">
<g id="#010101ff">
<path fill="#010101" opacity="1.00" d=" M 2.69 5.98 C 2.43 4.54 3.14 2.44 4.97 2.73 C 18.98 2.67 32.99 2.74 47.01 2.69 C 48.23 2.88 50.60 2.32 50.69 4.19 C 51.02 13.45 50.64 22.74 50.86 32.01 C 53.82 35.22 53.66 40.47 50.30 43.34 C 50.25 44.86 50.22 46.39 50.19 47.92 C 52.37 45.52 54.45 42.41 58.04 42.31 C 60.04 44.69 61.49 47.81 61.12 50.97 C 57.91 54.17 56.06 58.82 51.59 60.60 C 44.72 63.99 36.75 59.68 33.47 53.33 C 29.08 50.72 31.65 44.50 34.93 42.01 C 37.02 42.86 38.99 44.05 40.43 45.82 C 42.23 47.45 41.57 50.16 41.97 52.31 C 42.30 49.43 42.61 46.48 42.13 43.60 C 41.01 41.56 39.59 39.64 39.11 37.30 C 30.61 37.26 22.11 37.33 13.61 37.26 C 13.48 44.05 13.74 50.85 13.42 57.64 C 9.93 58.58 6.02 58.85 2.68 57.24 C 2.73 40.15 2.71 23.07 2.69 5.98 M 4.94 4.94 C 4.93 11.09 4.94 17.23 4.93 23.37 C 4.95 34.23 4.83 45.09 5.09 55.94 C 7.15 55.91 9.20 55.89 11.25 55.88 C 11.20 48.95 11.28 42.02 11.27 35.08 C 15.41 35.06 19.56 35.06 23.70 35.08 C 23.73 31.91 23.68 28.73 23.88 25.56 C 19.70 25.15 15.50 25.40 11.31 25.37 C 11.21 21.81 11.24 18.24 11.34 14.68 C 15.45 14.70 19.56 14.73 23.67 14.66 C 23.75 11.42 23.74 8.17 23.70 4.93 C 17.45 4.95 11.19 4.93 4.94 4.94 M 36.60 4.87 C 36.51 8.15 36.53 11.44 36.53 14.72 C 40.53 14.69 44.52 14.70 48.51 14.68 C 48.51 11.44 48.51 8.20 48.51 4.96 C 44.54 4.94 40.57 4.94 36.60 4.87 M 23.89 15.05 C 24.00 18.34 24.10 21.63 23.94 24.92 C 28.08 24.91 32.22 24.90 36.36 24.93 C 36.19 21.63 36.22 18.33 36.37 15.04 C 32.21 15.06 28.05 15.05 23.89 15.05 M 36.53 25.31 C 36.59 28.50 36.58 31.68 36.62 34.87 C 37.44 34.89 39.07 34.92 39.88 34.93 C 40.09 34.39 40.52 33.31 40.73 32.77 C 43.03 31.09 45.67 30.18 48.54 30.68 C 48.49 28.90 48.47 27.12 48.46 25.35 C 44.48 25.35 40.51 25.36 36.53 25.31 M 42.63 34.19 C 41.13 36.90 41.81 39.91 44.42 41.62 C 44.44 42.13 44.48 43.16 44.51 43.68 C 44.49 46.50 44.49 49.31 44.48 52.13 C 44.48 53.47 44.47 54.80 44.46 56.14 C 42.07 55.53 40.56 53.55 38.64 52.17 C 38.42 50.75 38.70 49.43 39.49 48.22 C 38.08 46.83 36.62 45.49 35.08 44.25 C 34.41 46.24 33.74 48.24 33.08 50.24 C 33.90 50.51 34.73 50.79 35.55 51.06 C 36.93 56.03 41.94 59.80 47.13 59.49 C 51.08 59.03 54.29 56.31 56.52 53.16 L 56.10 52.74 C 56.78 51.60 57.69 50.71 58.84 50.07 C 58.31 48.36 58.60 45.81 56.89 44.83 C 55.24 45.52 54.17 47.05 52.86 48.20 C 53.34 49.13 53.70 50.16 54.39 50.96 C 52.62 53.12 50.90 55.55 48.02 56.28 C 48.03 54.89 48.04 53.51 48.06 52.13 C 48.08 49.32 48.04 46.51 47.95 43.70 C 48.02 43.18 48.16 42.12 48.23 41.59 C 51.56 39.92 51.19 35.72 48.89 33.33 C 46.73 32.85 44.54 32.97 42.63 34.19 Z" />
</g>
<g id="#f3f3f3ff">
<path fill="#f3f3f3" opacity="1.00" d=" M 4.94 4.94 C 11.19 4.93 17.45 4.95 23.70 4.93 C 23.74 8.17 23.75 11.42 23.67 14.66 C 19.56 14.73 15.45 14.70 11.34 14.68 C 11.24 18.24 11.21 21.81 11.31 25.37 C 15.50 25.40 19.70 25.15 23.88 25.56 C 20.53 30.59 13.99 30.98 8.65 29.51 C 8.45 28.01 8.24 26.51 8.04 25.01 C 7.00 24.46 5.97 23.92 4.93 23.37 C 4.94 17.23 4.93 11.09 4.94 4.94 Z" />
<path fill="#f3f3f3" opacity="1.00" d=" M 36.60 4.87 C 40.57 4.94 44.54 4.94 48.51 4.96 C 48.51 8.20 48.51 11.44 48.51 14.68 C 44.52 14.70 40.53 14.69 36.53 14.72 C 36.53 11.44 36.51 8.15 36.60 4.87 Z" />
<path fill="#f3f3f3" opacity="1.00" d=" M 23.89 15.05 C 28.05 15.05 32.21 15.06 36.37 15.04 C 36.22 18.33 36.19 21.63 36.36 24.93 C 32.22 24.90 28.08 24.91 23.94 24.92 C 24.10 21.63 24.00 18.34 23.89 15.05 Z" />
<path fill="#f3f3f3" opacity="1.00" d=" M 36.53 25.31 C 40.51 25.36 44.48 25.35 48.46 25.35 C 48.47 27.12 48.49 28.90 48.54 30.68 C 45.67 30.18 43.03 31.09 40.73 32.77 C 40.52 33.31 40.09 34.39 39.88 34.93 C 39.07 34.92 37.44 34.89 36.62 34.87 C 36.58 31.68 36.59 28.50 36.53 25.31 Z" />
</g>
<g id="#d3d5d3ff">
<path fill="#d3d5d3" opacity="1.00" d=" M 4.93 23.37 C 5.97 23.92 7.00 24.46 8.04 25.01 C 8.24 26.51 8.45 28.01 8.65 29.51 C 13.99 30.98 20.53 30.59 23.88 25.56 C 23.68 28.73 23.73 31.91 23.70 35.08 C 19.56 35.06 15.41 35.06 11.27 35.08 C 11.28 42.02 11.20 48.95 11.25 55.88 C 9.20 55.89 7.15 55.91 5.09 55.94 C 4.83 45.09 4.95 34.23 4.93 23.37 Z" />
</g>
<g id="#61d0ecff">
<path fill="#61d0ec" opacity="1.00" d=" M 42.63 34.19 C 44.54 32.97 46.73 32.85 48.89 33.33 C 51.19 35.72 51.56 39.92 48.23 41.59 C 48.16 42.12 48.02 43.18 47.95 43.70 C 47.09 43.70 45.37 43.69 44.51 43.68 C 44.48 43.16 44.44 42.13 44.42 41.62 C 41.81 39.91 41.13 36.90 42.63 34.19 Z" />
</g>
<g id="#a19be5ff">
<path fill="#a19be5" opacity="1.00" d=" M 44.51 43.68 C 45.37 43.69 47.09 43.70 47.95 43.70 C 48.04 46.51 48.08 49.32 48.06 52.13 C 47.16 52.13 45.37 52.13 44.48 52.13 C 44.49 49.31 44.49 46.50 44.51 43.68 Z" />
<path fill="#a19be5" opacity="1.00" d=" M 35.08 44.25 C 36.62 45.49 38.08 46.83 39.49 48.22 C 38.70 49.43 38.42 50.75 38.64 52.17 C 37.87 51.89 36.32 51.34 35.55 51.06 C 34.73 50.79 33.90 50.51 33.08 50.24 C 33.74 48.24 34.41 46.24 35.08 44.25 Z" />
<path fill="#a19be5" opacity="1.00" d=" M 52.86 48.20 C 54.17 47.05 55.24 45.52 56.89 44.83 C 58.60 45.81 58.31 48.36 58.84 50.07 C 57.69 50.71 56.78 51.60 56.10 52.74 C 55.67 52.29 54.82 51.40 54.39 50.96 C 53.70 50.16 53.34 49.13 52.86 48.20 Z" />
</g>
<g id="#d47ae4ff">
<path fill="#d47ae4" opacity="1.00" d=" M 35.55 51.06 C 36.32 51.34 37.87 51.89 38.64 52.17 C 40.56 53.55 42.07 55.53 44.46 56.14 C 44.47 54.80 44.48 53.47 44.48 52.13 C 45.37 52.13 47.16 52.13 48.06 52.13 C 48.04 53.51 48.03 54.89 48.02 56.28 C 50.90 55.55 52.62 53.12 54.39 50.96 C 54.82 51.40 55.67 52.29 56.10 52.74 L 56.52 53.16 C 54.29 56.31 51.08 59.03 47.13 59.49 C 41.94 59.80 36.93 56.03 35.55 51.06 Z" />
</g>
</svg>
