<?xml version="1.0" encoding="UTF-8" ?>
<!DOCTYPE svg PUBLIC "-//W3C//DTD SVG 1.1//EN" "http://www.w3.org/Graphics/SVG/1.1/DTD/svg11.dtd">
<svg width="64pt" height="64pt" viewBox="0 0 64 64" version="1.1" xmlns="http://www.w3.org/2000/svg">
<g id="#020202ff">
<path fill="#020202" opacity="1.00" d=" M 8.00 20.24 C 15.38 15.23 22.56 9.94 30.12 5.19 C 32.03 4.00 34.66 4.38 36.37 5.77 C 39.45 7.92 42.41 10.25 45.54 12.33 C 45.59 12.36 45.69 12.43 45.74 12.46 C 46.94 13.24 48.16 13.97 49.39 14.71 L 49.68 15.58 C 49.90 17.19 51.42 17.98 52.91 18.07 C 53.58 18.38 54.93 19.02 55.60 19.33 C 55.64 19.36 55.73 19.43 55.77 19.46 C 60.82 23.01 60.14 33.31 53.23 34.31 C 53.32 40.87 53.32 47.44 53.28 54.00 C 53.37 56.92 50.78 59.46 47.88 59.43 C 37.63 59.59 27.37 59.49 17.12 59.48 C 14.18 59.62 11.15 57.22 11.30 54.14 C 11.16 47.54 11.35 40.94 11.21 34.34 C 8.89 33.69 6.06 32.64 5.46 29.99 C 4.86 26.65 4.65 22.24 8.00 20.24 M 30.48 7.71 C 22.85 12.77 15.45 18.19 7.77 23.18 C 7.62 25.42 7.24 27.73 7.86 29.94 C 9.02 32.05 11.67 31.56 13.66 31.76 C 13.19 39.56 13.65 47.33 13.70 55.13 C 14.39 56.82 16.28 57.52 17.99 57.33 C 27.66 57.25 37.34 57.36 47.01 57.27 C 49.37 57.50 51.25 55.33 51.06 53.06 C 51.11 47.27 51.01 41.48 51.08 35.69 C 51.04 34.31 51.00 32.94 50.96 31.56 C 52.82 31.89 55.05 31.70 56.16 29.94 C 56.44 27.51 57.14 24.58 55.57 22.46 C 49.32 17.69 42.76 13.35 36.46 8.66 C 34.83 7.31 32.40 6.33 30.48 7.71 Z" />
<path fill="#020202" opacity="1.00" d=" M 34.91 27.85 C 37.17 24.81 40.04 18.77 44.61 21.23 C 46.28 25.74 41.57 28.69 39.38 31.94 C 40.80 34.58 42.21 37.21 43.59 39.86 C 44.29 41.24 44.95 42.65 45.61 44.05 C 44.48 45.27 43.36 46.49 42.24 47.72 C 39.71 44.33 37.03 41.05 34.60 37.58 C 32.41 39.49 30.44 41.63 28.52 43.79 C 29.98 45.99 29.74 48.24 27.98 50.15 C 25.40 47.35 22.50 44.86 19.09 43.14 C 19.74 42.19 20.40 41.25 21.06 40.30 C 22.27 40.51 23.48 40.76 24.71 40.85 C 26.91 38.94 28.40 36.40 29.99 34.00 C 26.95 32.51 23.95 30.97 20.91 29.49 C 20.01 29.04 19.11 28.59 18.21 28.15 C 19.39 26.82 20.55 25.48 21.68 24.11 C 26.05 25.49 30.47 26.72 34.91 27.85 Z" />
</g>
<g id="#f3f2f3ff">
<path fill="#f3f2f3" opacity="1.00" d=" M 30.48 7.71 C 32.40 6.33 34.83 7.31 36.46 8.66 C 42.76 13.35 49.32 17.69 55.57 22.46 C 57.14 24.58 56.44 27.51 56.16 29.94 C 55.05 31.70 52.82 31.89 50.96 31.56 C 47.11 30.70 43.19 31.09 39.38 31.94 C 41.57 28.69 46.28 25.74 44.61 21.23 C 40.04 18.77 37.17 24.81 34.91 27.85 C 30.47 26.72 26.05 25.49 21.68 24.11 C 20.55 25.48 19.39 26.82 18.21 28.15 C 19.11 28.59 20.01 29.04 20.91 29.49 C 19.40 31.90 16.51 31.73 14.04 32.06 C 13.94 36.05 13.98 40.04 13.96 44.03 C 13.94 47.73 13.73 51.43 13.70 55.13 C 13.65 47.33 13.19 39.56 13.66 31.76 C 11.67 31.56 9.02 32.05 7.86 29.94 C 7.24 27.73 7.62 25.42 7.77 23.18 C 15.45 18.19 22.85 12.77 30.48 7.71 Z" />
</g>
<g id="#474947fe">
<path fill="#474947" opacity="1.00" d=" M 45.54 12.33 C 45.59 12.36 45.69 12.43 45.74 12.46 C 45.69 12.43 45.59 12.36 45.54 12.33 Z" />
<path fill="#474947" opacity="1.00" d=" M 55.60 19.33 C 55.64 19.36 55.73 19.43 55.77 19.46 C 55.73 19.43 55.64 19.36 55.60 19.33 Z" />
</g>
<g id="#111111ce">
<path fill="#111111" opacity="0.81" d=" M 49.68 15.58 C 51.05 15.08 52.67 16.37 53.13 17.63 L 52.91 18.07 C 51.42 17.98 49.90 17.19 49.68 15.58 Z" />
</g>
<g id="#e0e1e0ff">
<path fill="#e0e1e0" opacity="1.00" d=" M 20.91 29.49 C 23.95 30.97 26.95 32.51 29.99 34.00 C 28.40 36.40 26.91 38.94 24.71 40.85 C 23.48 40.76 22.27 40.51 21.06 40.30 C 20.40 41.25 19.74 42.19 19.09 43.14 C 17.38 43.45 15.67 43.74 13.96 44.03 C 13.98 40.04 13.94 36.05 14.04 32.06 C 16.51 31.73 19.40 31.90 20.91 29.49 Z" />
<path fill="#e0e1e0" opacity="1.00" d=" M 39.38 31.94 C 43.19 31.09 47.11 30.70 50.96 31.56 C 51.00 32.94 51.04 34.31 51.08 35.69 C 50.43 35.87 49.13 36.23 48.48 36.41 C 48.14 37.47 47.80 38.53 47.46 39.59 C 46.17 39.68 44.88 39.77 43.59 39.86 C 42.21 37.21 40.80 34.58 39.38 31.94 Z" />
</g>
<g id="#cacbcaff">
<path fill="#cacbca" opacity="1.00" d=" M 48.48 36.41 C 49.13 36.23 50.43 35.87 51.08 35.69 C 51.01 41.48 51.11 47.27 51.06 53.06 C 51.25 55.33 49.37 57.50 47.01 57.27 C 37.34 57.36 27.66 57.25 17.99 57.33 C 16.28 57.52 14.39 56.82 13.70 55.13 C 13.73 51.43 13.94 47.73 13.96 44.03 C 15.67 43.74 17.38 43.45 19.09 43.14 C 22.50 44.86 25.40 47.35 27.98 50.15 C 29.74 48.24 29.98 45.99 28.52 43.79 C 30.44 41.63 32.41 39.49 34.60 37.58 C 37.03 41.05 39.71 44.33 42.24 47.72 C 43.36 46.49 44.48 45.27 45.61 44.05 C 44.95 42.65 44.29 41.24 43.59 39.86 C 44.88 39.77 46.17 39.68 47.46 39.59 C 47.80 38.53 48.14 37.47 48.48 36.41 Z" />
</g>
</svg>
