<?xml version="1.0" encoding="UTF-8" ?>
<!DOCTYPE svg PUBLIC "-//W3C//DTD SVG 1.1//EN" "http://www.w3.org/Graphics/SVG/1.1/DTD/svg11.dtd">
<svg width="64pt" height="64pt" viewBox="0 0 64 64" version="1.1" xmlns="http://www.w3.org/2000/svg">
<g id="#010200ff">
<path fill="#010200" opacity="1.00" d=" M 29.43 5.41 C 31.70 3.84 34.89 4.34 36.92 6.07 C 43.05 10.66 49.52 14.75 55.67 19.28 C 59.51 21.79 59.48 27.07 58.06 30.94 C 57.27 32.94 54.96 33.49 53.27 34.46 C 53.26 40.98 53.38 47.50 53.27 54.02 C 53.40 56.83 50.80 59.35 48.01 59.25 C 39.35 59.63 30.69 58.68 22.03 59.07 C 19.38 59.09 16.69 59.25 14.08 58.67 C 12.32 57.94 11.22 55.94 11.30 54.06 C 11.17 47.50 11.33 40.93 11.24 34.37 C 4.09 33.75 2.90 22.97 8.61 19.68 C 15.61 15.01 22.41 10.05 29.43 5.41 M 32.40 6.19 C 24.07 11.10 16.58 17.30 8.34 22.36 C 8.00 22.91 7.31 24.01 6.97 24.56 C 6.63 27.34 7.48 29.95 9.25 32.09 C 10.48 32.06 11.70 32.04 12.93 32.02 C 12.84 39.62 12.97 47.21 12.89 54.81 C 14.17 55.72 15.36 57.12 17.08 57.02 C 26.37 57.15 35.66 56.97 44.94 57.07 C 47.05 57.17 49.08 56.61 51.08 56.02 C 51.01 48.03 51.09 40.03 51.03 32.03 C 52.25 32.05 53.47 32.08 54.69 32.10 C 55.46 30.91 56.22 29.72 56.98 28.52 C 56.96 26.81 56.95 25.10 56.96 23.39 C 53.99 20.18 49.96 18.32 46.64 15.54 C 41.87 12.44 37.58 8.61 32.40 6.19 Z" />
<path fill="#010200" opacity="1.00" d=" M 34.20 28.27 C 36.88 26.18 37.95 22.46 41.13 20.96 C 42.95 20.22 44.22 21.67 45.45 22.73 C 43.60 26.03 41.18 28.96 38.97 32.00 C 40.29 34.12 41.63 36.23 42.73 38.47 C 43.48 40.32 44.43 42.08 45.74 43.60 C 44.58 44.85 43.43 46.12 42.05 47.13 C 39.41 43.79 36.82 40.40 34.63 36.75 C 32.57 39.29 29.46 41.18 27.98 44.04 C 28.21 44.44 28.66 45.24 28.89 45.64 C 28.91 46.85 28.90 48.07 28.88 49.29 C 25.32 47.57 22.97 44.07 19.21 42.58 C 19.89 41.81 20.57 41.04 21.24 40.28 C 22.61 40.92 24.11 41.03 25.59 41.10 C 26.83 38.30 29.43 36.36 30.24 33.33 C 28.95 32.85 27.69 32.29 26.41 31.79 C 23.92 30.39 21.27 29.26 18.86 27.72 C 19.40 26.83 19.92 25.94 20.44 25.04 C 25.21 24.72 29.91 26.34 34.20 28.27 Z" />
</g>
<g id="#459ccdff">
<path fill="#459ccd" opacity="1.00" d=" M 32.40 6.19 C 37.58 8.61 41.87 12.44 46.64 15.54 C 49.96 18.32 53.99 20.18 56.96 23.39 C 56.95 25.10 56.96 26.81 56.98 28.52 C 56.22 29.72 55.46 30.91 54.69 32.10 C 53.47 32.08 52.25 32.05 51.03 32.03 C 51.09 40.03 51.01 48.03 51.08 56.02 C 49.08 56.61 47.05 57.17 44.94 57.07 C 35.66 56.97 26.37 57.15 17.08 57.02 C 15.36 57.12 14.17 55.72 12.89 54.81 C 12.97 47.21 12.84 39.62 12.93 32.02 C 11.70 32.04 10.48 32.06 9.25 32.09 C 7.48 29.95 6.63 27.34 6.97 24.56 C 7.31 24.01 8.00 22.91 8.34 22.36 C 16.58 17.30 24.07 11.10 32.40 6.19 M 34.20 28.27 C 29.91 26.34 25.21 24.72 20.44 25.04 C 19.92 25.94 19.40 26.83 18.86 27.72 C 21.27 29.26 23.92 30.39 26.41 31.79 C 27.69 32.29 28.95 32.85 30.24 33.33 C 29.43 36.36 26.83 38.30 25.59 41.10 C 24.11 41.03 22.61 40.92 21.24 40.28 C 20.57 41.04 19.89 41.81 19.21 42.58 C 22.97 44.07 25.32 47.57 28.88 49.29 C 28.90 48.07 28.91 46.85 28.89 45.64 C 28.66 45.24 28.21 44.44 27.98 44.04 C 29.46 41.18 32.57 39.29 34.63 36.75 C 36.82 40.40 39.41 43.79 42.05 47.13 C 43.43 46.12 44.58 44.85 45.74 43.60 C 44.43 42.08 43.48 40.32 42.73 38.47 C 41.63 36.23 40.29 34.12 38.97 32.00 C 41.18 28.96 43.60 26.03 45.45 22.73 C 44.22 21.67 42.95 20.22 41.13 20.96 C 37.95 22.46 36.88 26.18 34.20 28.27 Z" />
</g>
</svg>
