<?xml version="1.0" encoding="UTF-8" ?>
<!DOCTYPE svg PUBLIC "-//W3C//DTD SVG 1.1//EN" "http://www.w3.org/Graphics/SVG/1.1/DTD/svg11.dtd">
<svg width="64pt" height="64pt" viewBox="0 0 64 64" version="1.1" xmlns="http://www.w3.org/2000/svg">
<g id="#0b090bfd">
<path fill="#0b090b" opacity="1.00" d=" M 18.72 7.79 C 21.42 6.80 24.06 5.44 26.92 5.03 C 30.21 5.86 30.19 10.23 32.00 12.59 C 33.49 9.87 34.23 6.56 36.80 4.57 C 39.94 6.05 43.50 6.66 46.43 8.51 C 49.12 13.45 50.58 19.01 52.88 24.16 C 53.96 27.60 56.37 30.88 55.73 34.64 C 52.27 35.02 48.73 35.44 45.28 34.73 C 43.80 34.12 43.62 32.27 42.89 31.05 C 44.42 38.76 45.96 46.46 47.62 54.14 C 48.02 55.65 47.88 57.21 47.70 58.75 C 43.91 58.69 39.20 60.28 36.02 57.72 C 34.51 53.33 33.39 48.81 32.00 44.37 C 30.71 48.64 29.51 52.93 28.19 57.19 C 27.83 58.53 26.29 58.96 25.07 58.99 C 22.16 59.24 19.24 58.99 16.34 58.77 C 16.10 57.23 15.96 55.66 16.37 54.14 C 18.03 46.45 19.60 38.74 21.09 31.02 C 20.32 32.41 20.03 34.80 17.99 34.89 C 15.34 35.18 12.65 35.20 9.99 34.95 C 8.54 35.07 7.44 33.31 8.11 32.06 C 10.51 25.25 13.45 18.65 15.91 11.86 C 16.56 10.37 16.98 8.38 18.72 7.79 M 19.22 10.16 C 15.95 17.64 13.49 25.44 10.15 32.89 C 12.70 32.93 15.26 32.93 17.82 32.95 C 19.47 28.03 21.15 23.11 22.81 18.20 C 22.83 23.61 23.42 29.05 22.80 34.45 C 21.45 41.98 19.61 49.42 18.23 56.94 C 20.76 56.94 23.29 56.92 25.83 56.90 C 28.07 50.21 29.54 43.27 31.99 36.64 C 34.46 43.27 35.93 50.21 38.17 56.92 C 40.71 56.92 43.25 56.94 45.78 56.91 C 44.53 50.44 43.09 44.00 41.76 37.55 C 40.18 31.18 41.36 24.60 41.06 18.14 C 42.91 23.02 44.47 28.01 46.18 32.95 C 48.74 32.94 51.30 32.93 53.86 32.87 C 50.47 25.44 48.06 17.63 44.78 10.17 C 42.18 9.19 39.61 8.17 36.97 7.32 C 36.09 9.58 35.10 11.81 34.11 14.03 C 32.70 14.03 31.30 14.03 29.89 14.03 C 28.90 11.81 27.92 9.58 27.02 7.32 C 24.39 8.18 21.81 9.19 19.22 10.16 Z" />
</g>
<g id="#fffeffff">
<path fill="#fffeff" opacity="1.00" d=" M 19.22 10.16 C 21.81 9.19 24.39 8.18 27.02 7.32 C 27.92 9.58 28.90 11.81 29.89 14.03 C 31.30 14.03 32.70 14.03 34.11 14.03 C 35.10 11.81 36.09 9.58 36.97 7.32 C 39.61 8.17 42.18 9.19 44.78 10.17 C 48.06 17.63 50.47 25.44 53.86 32.87 C 51.30 32.93 48.74 32.94 46.18 32.95 C 44.47 28.01 42.91 23.02 41.06 18.14 C 41.36 24.60 40.18 31.18 41.76 37.55 C 43.09 44.00 44.53 50.44 45.78 56.91 C 43.25 56.94 40.71 56.92 38.17 56.92 C 35.93 50.21 34.46 43.27 31.99 36.64 C 29.54 43.27 28.07 50.21 25.83 56.90 C 23.29 56.92 20.76 56.94 18.23 56.94 C 19.61 49.42 21.45 41.98 22.80 34.45 C 23.42 29.05 22.83 23.61 22.81 18.20 C 21.15 23.11 19.47 28.03 17.82 32.95 C 15.26 32.93 12.70 32.93 10.15 32.89 C 13.49 25.44 15.95 17.64 19.22 10.16 Z" />
</g>
</svg>
