<?xml version="1.0" encoding="UTF-8" ?>
<!DOCTYPE svg PUBLIC "-//W3C//DTD SVG 1.1//EN" "http://www.w3.org/Graphics/SVG/1.1/DTD/svg11.dtd">
<svg width="64pt" height="64pt" viewBox="0 0 64 64" version="1.1" xmlns="http://www.w3.org/2000/svg">
<g id="#617a7ef2">
<path fill="#617a7e" opacity="0.95" d=" M 24.23 0.00 L 33.02 0.00 L 33.61 0.45 C 30.33 1.34 26.95 0.86 23.62 0.67 L 24.23 0.00 Z" />
<path fill="#617a7e" opacity="0.95" d=" M 1.17 45.65 C 2.26 43.40 4.19 41.50 4.56 38.84 C 4.88 47.24 5.41 55.61 5.99 64.00 L 4.73 64.00 C 4.40 61.63 4.70 59.22 4.43 56.84 C 3.35 59.08 3.82 62.56 1.03 63.56 C 1.97 57.65 1.80 51.55 1.17 45.65 Z" />
<path fill="#617a7e" opacity="0.95" d=" M 19.15 53.68 L 20.15 53.30 C 19.97 53.70 19.62 54.50 19.45 54.90 C 20.11 56.66 21.00 58.32 21.99 59.92 C 23.64 60.00 25.18 59.29 26.59 58.51 C 26.03 59.86 25.46 61.21 24.93 62.58 C 24.47 62.69 23.53 62.93 23.07 63.04 C 21.14 61.56 19.68 59.54 18.28 57.58 C 17.12 56.29 18.62 54.87 19.15 53.68 Z" />
</g>
<g id="#4e96b3ff">
<path fill="#4e96b3" opacity="1.00" d=" M 16.83 3.60 C 19.02 2.84 21.49 2.79 23.24 1.08 C 22.68 3.43 21.75 5.66 20.85 7.89 C 22.18 7.55 23.49 7.12 24.84 6.88 C 25.62 7.61 26.38 8.37 27.10 9.16 C 26.62 10.26 26.15 11.35 25.69 12.45 C 27.74 12.02 31.76 8.27 32.43 12.14 L 31.40 13.04 C 28.80 14.47 26.10 15.72 23.56 17.24 C 23.73 16.08 23.91 14.91 24.08 13.74 C 21.44 15.16 19.11 17.27 16.12 17.91 C 15.96 17.22 15.63 15.83 15.47 15.14 C 13.10 16.46 13.28 19.23 13.24 21.57 C 10.62 27.77 9.51 34.54 9.03 41.21 L 8.71 41.96 C 7.94 43.52 7.53 45.24 7.70 46.99 C 7.95 52.40 8.64 57.79 9.03 63.20 C 8.44 63.40 7.27 63.80 6.68 64.00 L 5.99 64.00 C 5.41 55.61 4.88 47.24 4.56 38.84 C 5.38 32.98 5.95 27.03 5.56 21.10 C 6.69 19.58 7.83 17.91 9.69 17.24 C 9.86 20.10 9.67 22.98 10.11 25.83 L 10.83 25.72 C 11.61 20.80 12.70 15.93 13.86 11.08 C 14.30 8.47 17.87 6.14 16.36 3.51 C 12.44 1.60 10.40 6.95 8.62 9.47 C 8.15 9.37 7.21 9.18 6.74 9.08 C 6.76 8.37 6.81 6.93 6.84 6.22 C 8.60 2.85 13.86 0.93 16.83 3.60 Z" />
<path fill="#4e96b3" opacity="1.00" d=" M 35.92 1.12 C 38.15 1.34 41.47 4.09 42.95 1.29 C 46.37 1.23 49.74 2.08 52.80 3.63 C 52.15 5.74 50.03 5.88 48.26 6.48 C 48.16 8.21 48.44 9.93 48.48 11.66 C 48.31 11.63 47.97 11.56 47.80 11.52 C 47.00 8.91 46.38 6.22 45.17 3.76 C 44.68 3.59 43.69 3.24 43.20 3.07 C 43.77 6.71 43.30 10.37 43.64 14.03 C 42.19 13.38 41.20 12.13 40.25 10.91 C 40.89 8.16 40.12 5.61 38.01 3.72 C 37.32 2.84 36.63 1.98 35.92 1.12 Z" />
</g>
<g id="#3f84a1ff">
<path fill="#3f84a1" opacity="1.00" d=" M 23.24 1.08 L 23.62 0.67 C 26.95 0.86 30.33 1.34 33.61 0.45 C 34.11 0.56 35.12 0.78 35.63 0.88 C 34.40 2.19 33.24 3.56 31.98 4.84 C 30.49 3.06 27.87 1.14 26.09 3.78 C 26.92 5.44 28.35 7.31 27.10 9.16 C 26.38 8.37 25.62 7.61 24.84 6.88 C 23.49 7.12 22.18 7.55 20.85 7.89 C 21.75 5.66 22.68 3.43 23.24 1.08 Z" />
<path fill="#3f84a1" opacity="1.00" d=" M 5.56 21.10 C 5.59 16.14 4.93 10.91 6.84 6.22 C 6.81 6.93 6.76 8.37 6.74 9.08 C 7.21 9.18 8.15 9.37 8.62 9.47 C 8.78 9.80 9.10 10.45 9.26 10.78 C 10.08 10.35 10.87 9.86 11.68 9.42 C 11.84 10.05 12.16 11.31 12.32 11.94 C 12.71 11.72 13.47 11.29 13.86 11.08 C 12.70 15.93 11.61 20.80 10.83 25.72 L 10.11 25.83 C 9.67 22.98 9.86 20.10 9.69 17.24 C 7.83 17.91 6.69 19.58 5.56 21.10 Z" />
<path fill="#3f84a1" opacity="1.00" d=" M 49.07 18.08 C 51.28 16.56 53.50 14.66 56.37 14.80 C 56.00 19.52 57.11 24.15 59.32 28.29 C 59.12 29.53 58.93 30.77 58.75 32.01 C 57.82 32.64 57.37 33.53 57.39 34.69 C 57.09 31.78 56.78 28.87 56.68 25.94 C 55.49 28.94 55.21 32.35 52.92 34.82 C 48.97 41.79 47.38 49.81 45.29 57.47 C 45.80 57.37 46.83 57.15 47.34 57.04 C 47.36 57.81 47.40 59.35 47.42 60.12 C 46.95 61.39 46.51 62.67 46.23 64.00 L 43.62 64.00 C 43.34 62.54 43.29 61.07 43.47 59.59 C 42.82 59.40 42.15 59.35 41.46 59.44 C 41.38 58.49 41.29 57.55 41.18 56.62 C 44.70 53.78 42.53 48.67 43.73 44.83 C 45.27 41.84 44.18 38.48 44.37 35.30 C 45.55 33.64 46.27 31.71 47.12 29.87 C 48.06 28.75 49.04 27.65 50.12 26.66 C 50.59 28.66 49.77 31.02 50.67 32.85 C 51.40 29.93 52.19 27.00 52.48 24.01 C 52.72 21.45 50.54 19.81 49.07 18.08 Z" />
<path fill="#3f84a1" opacity="1.00" d=" M 13.24 21.57 C 13.78 23.25 14.05 24.99 14.08 26.76 L 13.91 27.77 C 12.86 32.40 12.44 37.58 9.03 41.21 C 9.51 34.54 10.62 27.77 13.24 21.57 Z" />
<path fill="#3f84a1" opacity="1.00" d=" M 7.70 46.99 C 7.53 45.24 7.94 43.52 8.71 41.96 C 9.19 43.24 9.66 44.54 10.41 45.68 C 10.78 45.31 11.53 44.56 11.90 44.19 C 11.58 49.38 11.69 54.60 12.20 59.78 C 13.08 59.29 13.94 58.75 14.82 58.25 C 14.59 59.84 14.30 61.43 13.87 62.98 C 12.32 63.55 10.64 63.19 9.03 63.20 C 8.64 57.79 7.95 52.40 7.70 46.99 Z" />
<path fill="#3f84a1" opacity="1.00" d=" M 49.66 61.19 C 50.72 58.59 49.49 54.73 51.89 52.96 C 52.70 54.33 53.39 55.78 54.21 57.14 C 55.28 59.62 57.51 61.38 58.34 64.00 L 50.89 64.00 C 50.44 63.08 50.03 62.14 49.66 61.19 Z" />
</g>
<g id="#327087ff">
<path fill="#327087" opacity="1.00" d=" M 26.09 3.78 C 27.87 1.14 30.49 3.06 31.98 4.84 C 33.24 3.56 34.40 2.19 35.63 0.88 L 35.92 1.12 C 36.63 1.98 37.32 2.84 38.01 3.72 C 36.44 6.70 34.82 9.74 32.43 12.14 C 31.76 8.27 27.74 12.02 25.69 12.45 C 26.15 11.35 26.62 10.26 27.10 9.16 C 28.35 7.31 26.92 5.44 26.09 3.78 Z" />
<path fill="#327087" opacity="1.00" d=" M 8.62 9.47 C 10.40 6.95 12.44 1.60 16.36 3.51 C 17.87 6.14 14.30 8.47 13.86 11.08 C 13.47 11.29 12.71 11.72 12.32 11.94 C 12.16 11.31 11.84 10.05 11.68 9.42 C 10.87 9.86 10.08 10.35 9.26 10.78 C 9.10 10.45 8.78 9.80 8.62 9.47 Z" />
<path fill="#327087" opacity="1.00" d=" M 50.24 11.83 C 49.90 10.30 51.83 9.89 52.95 9.91 C 52.88 10.73 52.74 12.39 52.67 13.21 C 51.63 13.09 50.82 12.62 50.24 11.83 Z" />
<path fill="#327087" opacity="1.00" d=" M 16.12 17.91 C 19.11 17.27 21.44 15.16 24.08 13.74 C 23.91 14.91 23.73 16.08 23.56 17.24 C 23.11 17.91 22.66 18.58 22.20 19.24 C 20.73 19.62 19.08 19.78 17.94 20.90 C 17.13 23.18 16.59 25.62 14.99 27.51 L 14.08 26.76 C 14.05 24.99 13.78 23.25 13.24 21.57 C 13.28 19.23 13.10 16.46 15.47 15.14 C 15.63 15.83 15.96 17.22 16.12 17.91 Z" />
<path fill="#327087" opacity="1.00" d=" M 9.03 41.21 C 12.44 37.58 12.86 32.40 13.91 27.77 C 14.00 35.53 11.96 43.26 12.87 51.01 C 14.08 50.74 15.27 50.43 16.45 50.07 L 16.32 50.98 C 14.92 55.18 15.74 59.69 16.04 64.00 L 6.68 64.00 C 7.27 63.80 8.44 63.40 9.03 63.20 C 10.64 63.19 12.32 63.55 13.87 62.98 C 14.30 61.43 14.59 59.84 14.82 58.25 C 13.94 58.75 13.08 59.29 12.20 59.78 C 11.69 54.60 11.58 49.38 11.90 44.19 C 11.53 44.56 10.78 45.31 10.41 45.68 C 9.66 44.54 9.19 43.24 8.71 41.96 L 9.03 41.21 Z" />
</g>
<g id="#2e5e68fe">
<path fill="#2e5e68" opacity="1.00" d=" M 43.20 3.07 C 43.69 3.24 44.68 3.59 45.17 3.76 C 46.38 6.22 47.00 8.91 47.80 11.52 C 47.97 11.56 48.31 11.63 48.48 11.66 C 48.44 9.93 48.16 8.21 48.26 6.48 C 50.03 5.88 52.15 5.74 52.80 3.63 C 54.08 4.47 54.45 6.17 54.81 7.59 C 54.19 8.36 53.57 9.13 52.95 9.91 C 51.83 9.89 49.90 10.30 50.24 11.83 C 50.82 12.62 51.63 13.09 52.67 13.21 C 53.78 13.78 54.96 13.53 56.10 13.23 C 56.17 13.62 56.30 14.40 56.37 14.80 C 53.50 14.66 51.28 16.56 49.07 18.08 C 50.54 19.81 52.72 21.45 52.48 24.01 C 52.19 27.00 51.40 29.93 50.67 32.85 C 49.77 31.02 50.59 28.66 50.12 26.66 C 49.04 27.65 48.06 28.75 47.12 29.87 C 47.43 26.58 47.59 23.24 47.18 19.95 C 46.91 18.65 45.75 18.21 44.59 18.08 C 43.42 21.04 43.57 24.73 41.36 27.17 C 40.41 24.17 40.40 20.99 39.91 17.91 C 39.79 17.33 39.56 16.16 39.45 15.58 C 36.93 13.62 34.24 15.51 31.75 16.42 C 28.67 16.47 25.76 17.63 23.05 19.00 L 22.20 19.24 C 22.66 18.58 23.11 17.91 23.56 17.24 C 26.10 15.72 28.80 14.47 31.40 13.04 C 34.29 14.73 38.30 13.54 40.25 10.91 C 41.20 12.13 42.19 13.38 43.64 14.03 C 43.30 10.37 43.77 6.71 43.20 3.07 Z" />
<path fill="#2e5e68" opacity="1.00" d=" M 52.92 34.82 C 55.21 32.35 55.49 28.94 56.68 25.94 C 56.78 28.87 57.09 31.78 57.39 34.69 C 57.37 33.53 57.82 32.64 58.75 32.01 C 59.62 35.41 60.17 39.00 58.43 42.25 C 56.96 44.90 57.62 49.08 54.59 50.56 C 55.00 48.05 55.44 45.53 55.35 42.97 C 53.72 47.48 54.77 52.45 54.21 57.14 C 53.39 55.78 52.70 54.33 51.89 52.96 C 49.49 54.73 50.72 58.59 49.66 61.19 C 49.29 60.19 48.92 59.19 48.56 58.19 C 48.16 58.82 47.78 59.46 47.42 60.12 C 47.40 59.35 47.36 57.81 47.34 57.04 C 46.83 57.15 45.80 57.37 45.29 57.47 C 47.38 49.81 48.97 41.79 52.92 34.82 Z" />
<path fill="#2e5e68" opacity="1.00" d=" M 14.08 26.76 L 14.99 27.51 C 15.32 29.93 15.31 32.38 15.66 34.80 C 17.19 39.72 16.35 44.99 16.45 50.07 C 15.27 50.43 14.08 50.74 12.87 51.01 C 11.96 43.26 14.00 35.53 13.91 27.77 L 14.08 26.76 Z" />
<path fill="#2e5e68" opacity="1.00" d=" M 16.32 50.98 C 16.84 52.26 17.95 53.07 19.15 53.68 C 18.62 54.87 17.12 56.29 18.28 57.58 C 19.68 59.54 21.14 61.56 23.07 63.04 C 23.53 62.93 24.47 62.69 24.93 62.58 C 25.29 62.63 26.00 62.74 26.36 62.80 C 26.52 61.40 27.10 60.24 28.10 59.33 C 28.19 60.90 28.36 62.45 28.59 64.00 L 21.24 64.00 C 21.08 62.33 17.91 61.89 18.59 64.00 L 16.04 64.00 C 15.74 59.69 14.92 55.18 16.32 50.98 Z" />
</g>
<g id="#0f3447fe">
<path fill="#0f3447" opacity="1.00" d=" M 32.43 12.14 C 34.82 9.74 36.44 6.70 38.01 3.72 C 40.12 5.61 40.89 8.16 40.25 10.91 C 38.30 13.54 34.29 14.73 31.40 13.04 L 32.43 12.14 Z" />
<path fill="#0f3447" opacity="1.00" d=" M 52.95 9.91 C 53.57 9.13 54.19 8.36 54.81 7.59 C 56.21 9.18 55.36 11.40 56.10 13.23 C 54.96 13.53 53.78 13.78 52.67 13.21 C 52.74 12.39 52.88 10.73 52.95 9.91 Z" />
<path fill="#0f3447" opacity="1.00" d=" M 44.59 18.08 C 45.75 18.21 46.91 18.65 47.18 19.95 C 47.59 23.24 47.43 26.58 47.12 29.87 C 46.27 31.71 45.55 33.64 44.37 35.30 C 43.84 33.13 43.57 30.91 42.98 28.76 C 42.43 28.24 41.89 27.71 41.36 27.17 C 43.57 24.73 43.42 21.04 44.59 18.08 Z" />
<path fill="#0f3447" opacity="1.00" d=" M 0.00 45.32 L 1.17 45.65 C 1.80 51.55 1.97 57.65 1.03 63.56 C 3.82 62.56 3.35 59.08 4.43 56.84 C 4.70 59.22 4.40 61.63 4.73 64.00 L 0.00 64.00 L 0.00 45.32 Z" />
<path fill="#0f3447" opacity="1.00" d=" M 47.42 60.12 C 47.78 59.46 48.16 58.82 48.56 58.19 C 48.92 59.19 49.29 60.19 49.66 61.19 C 50.03 62.14 50.44 63.08 50.89 64.00 L 46.23 64.00 C 46.51 62.67 46.95 61.39 47.42 60.12 Z" />
<path fill="#0f3447" opacity="1.00" d=" M 18.59 64.00 C 17.91 61.89 21.08 62.33 21.24 64.00 L 18.59 64.00 Z" />
</g>
<g id="#0f1213ff">
<path fill="#0f1213" opacity="1.00" d=" M 31.75 16.42 C 34.24 15.51 36.93 13.62 39.45 15.58 C 39.56 16.16 39.79 17.33 39.91 17.91 C 37.51 15.61 34.19 18.68 31.75 16.42 Z" />
<path fill="#0f1213" opacity="1.00" d=" M 22.20 19.24 L 23.05 19.00 C 23.37 20.57 23.58 22.16 24.14 23.67 C 22.96 23.64 21.80 23.48 20.62 23.45 C 19.69 25.12 17.92 26.56 18.80 28.69 C 18.13 28.61 16.79 28.44 16.12 28.35 C 16.80 30.63 17.41 32.95 18.37 35.12 C 18.46 38.58 18.03 42.10 18.61 45.53 C 20.00 48.04 19.86 50.99 19.15 53.68 C 17.95 53.07 16.84 52.26 16.32 50.98 L 16.45 50.07 C 16.35 44.99 17.19 39.72 15.66 34.80 C 15.31 32.38 15.32 29.93 14.99 27.51 C 16.59 25.62 17.13 23.18 17.94 20.90 C 19.08 19.78 20.73 19.62 22.20 19.24 Z" />
<path fill="#0f1213" opacity="1.00" d=" M 59.32 28.29 C 60.56 32.22 59.60 36.90 59.52 41.09 C 60.82 42.82 62.25 44.50 64.00 45.81 L 64.00 64.00 L 58.34 64.00 C 57.51 61.38 55.28 59.62 54.21 57.14 C 54.77 52.45 53.72 47.48 55.35 42.97 C 55.44 45.53 55.00 48.05 54.59 50.56 C 57.62 49.08 56.96 44.90 58.43 42.25 C 60.17 39.00 59.62 35.41 58.75 32.01 C 58.93 30.77 59.12 29.53 59.32 28.29 Z" />
<path fill="#0f1213" opacity="1.00" d=" M 42.98 28.76 C 43.57 30.91 43.84 33.13 44.37 35.30 C 44.18 38.48 45.27 41.84 43.73 44.83 C 42.53 48.67 44.70 53.78 41.18 56.62 C 40.40 54.59 38.73 52.33 40.04 50.14 C 42.15 45.89 43.97 40.89 42.13 36.30 L 41.55 35.71 C 41.77 34.03 41.62 32.34 41.30 30.68 C 41.72 30.20 42.56 29.24 42.98 28.76 Z" />
<path fill="#0f1213" opacity="1.00" d=" M 23.58 34.17 C 26.10 35.04 28.75 34.68 31.35 34.67 C 31.85 35.05 32.86 35.82 33.36 36.20 C 33.03 37.40 32.56 38.75 31.54 39.52 C 29.61 40.52 28.03 38.59 26.25 38.20 C 26.89 41.96 28.15 45.79 31.44 48.06 C 30.00 50.07 30.22 52.74 31.28 54.86 C 31.35 57.88 32.35 60.73 32.67 63.71 C 36.13 64.92 38.36 62.32 40.58 60.19 L 41.46 59.44 C 42.15 59.35 42.82 59.40 43.47 59.59 C 43.29 61.07 43.34 62.54 43.62 64.00 L 28.59 64.00 C 28.36 62.45 28.19 60.90 28.10 59.33 C 27.10 60.24 26.52 61.40 26.36 62.80 C 26.00 62.74 25.29 62.63 24.93 62.58 C 25.46 61.21 26.03 59.86 26.59 58.51 C 27.59 56.06 28.71 53.63 29.38 51.06 C 28.89 47.92 27.85 44.60 25.48 42.35 C 25.50 40.20 24.85 37.88 23.74 36.14 C 23.70 35.65 23.62 34.66 23.58 34.17 Z" />
</g>
<g id="#663e30ff">
<path fill="#663e30" opacity="1.00" d=" M 23.05 19.00 C 25.76 17.63 28.67 16.47 31.75 16.42 C 34.19 18.68 37.51 15.61 39.91 17.91 C 40.40 20.99 40.41 24.17 41.36 27.17 C 41.89 27.71 42.43 28.24 42.98 28.76 C 41.57 29.45 40.20 30.22 38.74 30.79 C 37.67 34.07 34.11 36.17 34.32 39.88 C 34.42 42.93 32.82 45.49 31.44 48.06 C 28.15 45.79 26.89 41.96 26.25 38.20 C 28.03 38.59 29.61 40.52 31.54 39.52 C 32.56 38.75 33.03 37.40 33.36 36.20 C 32.86 35.82 31.85 35.05 31.35 34.67 C 29.41 33.20 27.04 32.25 26.16 29.78 C 26.98 29.69 28.62 29.52 29.44 29.44 C 29.63 26.91 29.74 24.38 29.87 21.86 C 30.39 20.62 31.06 19.40 31.22 18.05 C 29.52 18.31 27.04 18.05 26.25 19.99 C 26.50 20.55 27.00 21.69 27.24 22.25 C 26.54 23.46 25.51 23.93 24.14 23.67 C 23.58 22.16 23.37 20.57 23.05 19.00 M 31.60 23.48 C 31.54 26.24 33.28 28.70 33.80 31.41 L 35.12 31.77 C 37.27 29.76 41.41 27.37 39.95 23.96 C 38.65 22.79 37.42 24.89 35.99 24.62 C 34.40 24.67 33.28 22.95 31.60 23.48 Z" />
</g>
<g id="#a8664dff">
<path fill="#a8664d" opacity="1.00" d=" M 26.25 19.99 C 27.04 18.05 29.52 18.31 31.22 18.05 C 31.06 19.40 30.39 20.62 29.87 21.86 C 29.21 21.95 27.90 22.15 27.24 22.25 C 27.00 21.69 26.50 20.55 26.25 19.99 Z" />
<path fill="#a8664d" opacity="1.00" d=" M 31.60 23.48 C 33.28 22.95 34.40 24.67 35.99 24.62 C 37.42 24.89 38.65 22.79 39.95 23.96 C 41.41 27.37 37.27 29.76 35.12 31.77 L 33.80 31.41 C 33.28 28.70 31.54 26.24 31.60 23.48 Z" />
<path fill="#a8664d" opacity="1.00" d=" M 38.86 35.98 C 39.68 36.06 41.32 36.22 42.13 36.30 C 43.97 40.89 42.15 45.89 40.04 50.14 C 38.73 52.33 40.40 54.59 41.18 56.62 C 41.29 57.55 41.38 58.49 41.46 59.44 L 40.58 60.19 C 39.67 57.12 37.89 54.61 35.65 52.38 C 36.00 48.04 37.14 43.58 36.26 39.14 C 37.11 39.02 37.97 39.09 38.82 39.10 C 38.83 38.32 38.85 36.76 38.86 35.98 Z" />
<path fill="#a8664d" opacity="1.00" d=" M 25.48 42.35 C 27.85 44.60 28.89 47.92 29.38 51.06 C 28.71 53.63 27.59 56.06 26.59 58.51 C 25.18 59.29 23.64 60.00 21.99 59.92 C 27.83 55.89 24.93 48.24 25.48 42.35 Z" />
</g>
<g id="#d98e78ff">
<path fill="#d98e78" opacity="1.00" d=" M 27.24 22.25 C 27.90 22.15 29.21 21.95 29.87 21.86 C 29.74 24.38 29.63 26.91 29.44 29.44 C 28.62 29.52 26.98 29.69 26.16 29.78 C 27.04 32.25 29.41 33.20 31.35 34.67 C 28.75 34.68 26.10 35.04 23.58 34.17 C 23.62 34.66 23.70 35.65 23.74 36.14 C 22.04 34.76 20.84 32.44 18.46 32.21 C 19.09 35.77 18.70 39.39 18.93 42.98 C 19.79 45.99 21.52 48.81 21.44 52.04 C 21.11 52.35 20.47 52.98 20.15 53.30 L 19.15 53.68 C 19.86 50.99 20.00 48.04 18.61 45.53 C 18.03 42.10 18.46 38.58 18.37 35.12 C 17.41 32.95 16.80 30.63 16.12 28.35 C 16.79 28.44 18.13 28.61 18.80 28.69 C 17.92 26.56 19.69 25.12 20.62 23.45 C 21.80 23.48 22.96 23.64 24.14 23.67 C 25.51 23.93 26.54 23.46 27.24 22.25 Z" />
</g>
<g id="#efb897ff">
<path fill="#efb897" opacity="1.00" d=" M 38.74 30.79 C 40.20 30.22 41.57 29.45 42.98 28.76 C 42.56 29.24 41.72 30.20 41.30 30.68 C 41.62 32.34 41.77 34.03 41.55 35.71 L 42.13 36.30 C 41.32 36.22 39.68 36.06 38.86 35.98 C 38.85 36.76 38.83 38.32 38.82 39.10 C 37.97 39.09 37.11 39.02 36.26 39.14 C 37.14 43.58 36.00 48.04 35.65 52.38 C 37.89 54.61 39.67 57.12 40.58 60.19 C 38.36 62.32 36.13 64.92 32.67 63.71 C 32.35 60.73 31.35 57.88 31.28 54.86 C 30.22 52.74 30.00 50.07 31.44 48.06 C 32.82 45.49 34.42 42.93 34.32 39.88 C 34.11 36.17 37.67 34.07 38.74 30.79 Z" />
<path fill="#efb897" opacity="1.00" d=" M 18.46 32.21 C 20.84 32.44 22.04 34.76 23.74 36.14 C 24.85 37.88 25.50 40.20 25.48 42.35 C 24.93 48.24 27.83 55.89 21.99 59.92 C 21.00 58.32 20.11 56.66 19.45 54.90 C 19.62 54.50 19.97 53.70 20.15 53.30 C 20.47 52.98 21.11 52.35 21.44 52.04 C 21.52 48.81 19.79 45.99 18.93 42.98 C 18.70 39.39 19.09 35.77 18.46 32.21 Z" />
</g>
</svg>
