<?xml version="1.0" encoding="UTF-8" ?>
<!DOCTYPE svg PUBLIC "-//W3C//DTD SVG 1.1//EN" "http://www.w3.org/Graphics/SVG/1.1/DTD/svg11.dtd">
<svg width="64pt" height="64pt" viewBox="0 0 64 64" version="1.1" xmlns="http://www.w3.org/2000/svg">
<g id="#050505ff">
<path fill="#050505" opacity="1.00" d=" M 12.06 2.18 C 24.34 1.61 36.70 2.21 49.01 1.92 C 50.60 1.98 53.56 1.80 53.45 4.11 C 53.68 21.76 53.46 39.43 53.56 57.09 C 53.40 58.41 53.85 60.46 52.06 60.80 C 40.06 61.21 28.04 60.77 16.03 61.02 C 14.28 60.92 12.29 61.30 10.78 60.19 C 10.43 58.82 10.46 57.39 10.43 55.98 C 10.49 39.29 10.45 22.60 10.44 5.91 C 10.57 4.56 10.20 2.43 12.06 2.18 M 12.72 4.26 C 12.66 22.39 12.86 40.53 12.61 58.66 C 17.42 58.67 22.23 58.70 27.04 58.66 C 27.04 55.01 27.05 51.37 27.05 47.72 C 30.35 47.70 33.65 47.70 36.95 47.72 C 36.95 51.37 36.96 55.03 36.95 58.68 C 41.76 58.69 46.57 58.67 51.38 58.66 C 51.14 40.53 51.34 22.39 51.28 4.25 C 38.43 4.28 25.57 4.26 12.72 4.26 Z" />
<path fill="#050505" opacity="1.00" d=" M 17.91 12.32 C 20.09 12.43 22.28 12.51 24.48 12.58 C 24.49 14.89 24.49 17.20 24.47 19.51 C 22.18 19.50 19.89 19.42 17.60 19.27 C 17.65 16.95 17.68 14.63 17.91 12.32 Z" />
<path fill="#050505" opacity="1.00" d=" M 28.50 12.50 C 30.83 12.50 33.17 12.50 35.50 12.50 C 35.50 14.83 35.50 17.17 35.50 19.50 C 33.17 19.50 30.83 19.50 28.50 19.50 C 28.50 17.17 28.50 14.83 28.50 12.50 Z" />
<path fill="#050505" opacity="1.00" d=" M 39.49 12.59 C 41.69 12.51 43.89 12.43 46.08 12.31 C 46.39 14.76 46.39 17.24 46.09 19.68 C 43.90 19.57 41.71 19.49 39.52 19.41 C 39.50 17.14 39.48 14.86 39.49 12.59 Z" />
<path fill="#050505" opacity="1.00" d=" M 17.67 23.28 C 19.95 23.28 22.22 23.28 24.50 23.28 C 24.49 25.53 24.49 27.79 24.48 30.04 C 22.21 30.01 19.94 29.98 17.67 29.94 C 17.68 27.72 17.68 25.50 17.67 23.28 Z" />
<path fill="#050505" opacity="1.00" d=" M 28.47 23.37 C 30.82 23.27 33.17 23.27 35.52 23.36 C 35.50 25.58 35.44 27.81 35.33 30.04 C 33.11 30.03 30.89 30.03 28.67 30.04 C 28.56 27.81 28.50 25.59 28.47 23.37 Z" />
<path fill="#050505" opacity="1.00" d=" M 39.50 23.28 C 41.77 23.28 44.05 23.28 46.32 23.28 C 46.32 25.50 46.32 27.72 46.33 29.94 C 44.06 29.98 41.78 30.01 39.51 30.04 C 39.51 27.79 39.50 25.53 39.50 23.28 Z" />
<path fill="#050505" opacity="1.00" d=" M 17.67 34.06 C 19.94 34.02 22.21 33.99 24.49 33.96 C 24.49 36.29 24.49 38.62 24.49 40.96 C 22.21 40.95 19.94 40.94 17.67 40.92 C 17.68 38.63 17.68 36.34 17.67 34.06 Z" />
<path fill="#050505" opacity="1.00" d=" M 28.68 33.96 C 30.90 33.97 33.13 33.97 35.36 33.96 C 35.45 36.29 35.49 38.62 35.42 40.95 C 33.07 40.95 30.72 40.93 28.37 40.94 C 28.48 38.61 28.57 36.29 28.68 33.96 Z" />
<path fill="#050505" opacity="1.00" d=" M 39.49 40.96 C 39.50 38.62 39.51 36.29 39.52 33.95 C 41.79 33.98 44.06 34.02 46.33 34.06 C 46.32 36.35 46.32 38.63 46.33 40.92 C 44.05 40.94 41.77 40.95 39.49 40.96 Z" />
</g>
<g id="#fefdfeff">
<path fill="#fefdfe" opacity="1.00" d=" M 12.72 4.26 C 25.57 4.26 38.43 4.28 51.28 4.25 C 51.34 22.39 51.14 40.53 51.38 58.66 C 46.57 58.67 41.76 58.69 36.95 58.68 C 36.96 55.03 36.95 51.37 36.95 47.72 C 33.65 47.70 30.35 47.70 27.05 47.72 C 27.05 51.37 27.04 55.01 27.04 58.66 C 22.23 58.70 17.42 58.67 12.61 58.66 C 12.86 40.53 12.66 22.39 12.72 4.26 M 17.91 12.32 C 17.68 14.63 17.65 16.95 17.60 19.27 C 19.89 19.42 22.18 19.50 24.47 19.51 C 24.49 17.20 24.49 14.89 24.48 12.58 C 22.28 12.51 20.09 12.43 17.91 12.32 M 28.50 12.50 C 28.50 14.83 28.50 17.17 28.50 19.50 C 30.83 19.50 33.17 19.50 35.50 19.50 C 35.50 17.17 35.50 14.83 35.50 12.50 C 33.17 12.50 30.83 12.50 28.50 12.50 M 39.49 12.59 C 39.48 14.86 39.50 17.14 39.52 19.41 C 41.71 19.49 43.90 19.57 46.09 19.68 C 46.39 17.24 46.39 14.76 46.08 12.31 C 43.89 12.43 41.69 12.51 39.49 12.59 M 17.67 23.28 C 17.68 25.50 17.68 27.72 17.67 29.94 C 19.94 29.98 22.21 30.01 24.48 30.04 C 24.49 27.79 24.49 25.53 24.50 23.28 C 22.22 23.28 19.95 23.28 17.67 23.28 M 28.47 23.37 C 28.50 25.59 28.56 27.81 28.67 30.04 C 30.89 30.03 33.11 30.03 35.33 30.04 C 35.44 27.81 35.50 25.58 35.52 23.36 C 33.17 23.27 30.82 23.27 28.47 23.37 M 39.50 23.28 C 39.50 25.53 39.51 27.79 39.51 30.04 C 41.78 30.01 44.06 29.98 46.33 29.94 C 46.32 27.72 46.32 25.50 46.32 23.28 C 44.05 23.28 41.77 23.28 39.50 23.28 M 17.67 34.06 C 17.68 36.34 17.68 38.63 17.67 40.92 C 19.94 40.94 22.21 40.95 24.49 40.96 C 24.49 38.62 24.49 36.29 24.49 33.96 C 22.21 33.99 19.94 34.02 17.67 34.06 M 28.68 33.96 C 28.57 36.29 28.48 38.61 28.37 40.94 C 30.72 40.93 33.07 40.95 35.42 40.95 C 35.49 38.62 35.45 36.29 35.36 33.96 C 33.13 33.97 30.90 33.97 28.68 33.96 M 39.49 40.96 C 41.77 40.95 44.05 40.94 46.33 40.92 C 46.32 38.63 46.32 36.35 46.33 34.06 C 44.06 34.02 41.79 33.98 39.52 33.95 C 39.51 36.29 39.50 38.62 39.49 40.96 Z" />
</g>
</svg>
