<?xml version="1.0" encoding="UTF-8" ?>
<!DOCTYPE svg PUBLIC "-//W3C//DTD SVG 1.1//EN" "http://www.w3.org/Graphics/SVG/1.1/DTD/svg11.dtd">
<svg width="64pt" height="64pt" viewBox="0 0 64 64" version="1.1" xmlns="http://www.w3.org/2000/svg">
<g id="#2425242c">
<path fill="#242524" opacity="0.17" d=" M 3.91 25.03 C 5.74 23.73 7.49 21.85 9.94 22.02 C 21.31 21.95 32.69 21.85 44.06 22.12 C 44.24 22.71 44.62 23.89 44.81 24.48 C 47.39 24.50 49.96 24.54 52.54 24.57 C 52.80 23.97 53.34 22.75 53.60 22.14 C 55.73 22.05 57.87 21.97 60.00 21.88 C 60.08 25.81 60.05 29.76 59.90 33.69 C 55.21 33.70 50.51 33.74 45.82 33.60 C 45.12 34.50 44.40 35.41 43.68 36.31 C 42.57 36.39 41.46 36.47 40.35 36.55 C 39.90 39.04 39.47 41.53 39.01 44.02 C 35.39 44.07 31.77 44.08 28.15 43.95 C 25.89 41.39 22.92 39.40 21.38 36.27 C 20.12 38.76 18.93 41.30 18.13 43.98 C 14.27 44.10 10.42 44.05 6.57 43.93 C 6.54 40.80 6.52 37.66 6.52 34.52 C 5.92 34.24 4.73 33.66 4.13 33.38 C 4.03 30.60 3.96 27.81 3.91 25.03 M 8.38 26.45 C 7.80 26.46 6.62 26.47 6.04 26.48 C 6.06 28.25 6.07 30.02 6.08 31.79 C 7.84 31.75 9.60 31.73 11.36 31.72 C 11.27 33.50 10.37 34.60 8.54 34.67 C 8.51 37.10 8.52 39.54 8.52 41.97 C 11.17 41.95 13.83 41.93 16.48 41.92 C 16.46 40.38 16.43 38.84 16.41 37.30 C 18.10 37.12 19.35 36.39 19.41 34.51 C 20.92 34.52 22.44 34.53 23.95 34.54 C 24.02 35.17 24.15 36.43 24.21 37.06 C 24.84 37.06 26.10 37.06 26.74 37.06 C 26.76 37.67 26.80 38.90 26.83 39.51 C 27.42 39.53 28.62 39.55 29.22 39.56 C 29.23 40.16 29.24 41.35 29.25 41.95 C 31.95 41.93 34.64 41.90 37.34 41.87 C 37.32 40.23 37.30 38.60 37.28 36.96 C 36.42 36.72 34.71 36.23 33.86 35.99 C 36.09 33.63 39.51 34.64 42.37 34.45 C 42.41 33.77 42.50 32.40 42.54 31.72 C 47.67 31.70 52.80 31.68 57.93 31.78 C 57.92 29.19 57.93 26.60 57.93 24.02 C 57.27 24.03 55.95 24.05 55.29 24.07 C 55.30 24.67 55.31 25.87 55.32 26.47 C 51.12 26.46 46.91 26.46 42.71 26.48 C 42.60 25.86 42.39 24.63 42.28 24.01 C 31.03 24.15 19.78 24.02 8.53 24.09 C 8.50 24.68 8.42 25.86 8.38 26.45 Z" />
</g>
<g id="#000000ff">
<path fill="#000000" opacity="1.00" d=" M 8.38 26.45 C 8.42 25.86 8.50 24.68 8.53 24.09 C 19.78 24.02 31.03 24.15 42.28 24.01 C 42.39 24.63 42.60 25.86 42.71 26.48 C 46.91 26.46 51.12 26.46 55.32 26.47 C 55.31 25.87 55.30 24.67 55.29 24.07 C 55.95 24.05 57.27 24.03 57.93 24.02 C 57.93 26.60 57.92 29.19 57.93 31.78 C 52.80 31.68 47.67 31.70 42.54 31.72 C 42.50 32.40 42.41 33.77 42.37 34.45 C 39.51 34.64 36.09 33.63 33.86 35.99 C 34.71 36.23 36.42 36.72 37.28 36.96 C 37.30 38.60 37.32 40.23 37.34 41.87 C 34.64 41.90 31.95 41.93 29.25 41.95 C 29.24 41.35 29.23 40.16 29.22 39.56 C 28.62 39.55 27.42 39.53 26.83 39.51 C 26.80 38.90 26.76 37.67 26.74 37.06 C 26.10 37.06 24.84 37.06 24.21 37.06 C 24.15 36.43 24.02 35.17 23.95 34.54 C 22.44 34.53 20.92 34.52 19.41 34.51 C 19.35 36.39 18.10 37.12 16.41 37.30 C 16.43 38.84 16.46 40.38 16.48 41.92 C 13.83 41.93 11.17 41.95 8.52 41.97 C 8.52 39.54 8.51 37.10 8.54 34.67 C 10.37 34.60 11.27 33.50 11.36 31.72 C 9.60 31.73 7.84 31.75 6.08 31.79 C 6.07 30.02 6.06 28.25 6.04 26.48 C 6.62 26.47 7.80 26.46 8.38 26.45 Z" />
</g>
</svg>
