<?xml version="1.0" encoding="UTF-8" ?>
<!DOCTYPE svg PUBLIC "-//W3C//DTD SVG 1.1//EN" "http://www.w3.org/Graphics/SVG/1.1/DTD/svg11.dtd">
<svg width="64pt" height="64pt" viewBox="0 0 64 64" version="1.1" xmlns="http://www.w3.org/2000/svg">
<g id="#010301ff">
<path fill="#010301" opacity="1.00" d=" M 26.22 17.90 C 27.89 14.83 29.12 11.35 31.99 9.15 C 34.88 11.34 36.10 14.84 37.78 17.91 C 40.86 17.04 43.89 15.92 47.08 15.47 C 47.44 15.84 48.17 16.57 48.53 16.94 C 48.06 20.11 46.96 23.14 46.09 26.22 C 49.16 27.89 52.65 29.13 54.85 32.01 C 52.65 34.88 49.16 36.10 46.09 37.78 C 46.81 41.35 49.40 45.18 47.30 48.72 C 44.10 47.92 40.93 47.02 37.77 46.10 C 36.10 49.16 34.87 52.65 32.00 54.85 C 29.13 52.65 27.89 49.17 26.23 46.10 C 23.07 47.02 19.91 47.92 16.72 48.73 C 14.56 45.19 17.20 41.36 17.91 37.78 C 14.84 36.10 11.35 34.88 9.15 32.00 C 11.35 29.12 14.83 27.89 17.91 26.22 C 17.18 22.64 14.60 18.82 16.70 15.28 C 19.89 16.07 23.06 16.97 26.22 17.90 M 27.27 20.64 C 24.17 19.83 21.11 18.88 18.03 17.98 C 18.85 21.09 19.81 24.16 20.63 27.27 C 17.74 28.91 14.86 30.60 11.83 32.00 C 14.85 33.40 17.75 35.07 20.65 36.70 C 19.82 39.82 18.86 42.90 18.03 46.01 C 21.11 45.13 24.17 44.18 27.26 43.34 C 28.92 46.24 30.59 49.13 32.00 52.16 C 33.41 49.13 35.08 46.24 36.71 43.33 C 39.82 44.18 42.89 45.14 46.00 45.98 C 45.13 42.89 44.16 39.82 43.35 36.70 C 46.25 35.08 49.14 33.40 52.16 32.00 C 49.14 30.59 46.25 28.93 43.37 27.27 C 44.17 24.16 45.13 21.10 46.01 18.02 C 42.91 18.86 39.84 19.82 36.73 20.64 C 35.07 17.75 33.40 14.85 31.99 11.83 C 30.59 14.85 28.94 17.75 27.27 20.64 Z" />
<path fill="#010301" opacity="1.00" d=" M 20.32 32.06 C 24.34 22.55 39.64 22.56 43.68 32.05 C 41.00 38.54 32.63 41.40 26.43 38.28 C 23.58 37.18 21.69 34.67 20.32 32.06 M 30.52 27.67 C 27.76 28.70 26.45 32.33 28.17 34.80 C 30.01 37.92 35.63 37.31 36.47 33.67 C 37.73 30.30 33.93 26.22 30.52 27.67 Z" />
</g>
<g id="#fcfcfcff">
<path fill="#fcfcfc" opacity="1.00" d=" M 27.27 20.64 C 28.94 17.75 30.59 14.85 31.99 11.83 C 33.40 14.85 35.07 17.75 36.73 20.64 C 39.84 19.82 42.91 18.86 46.01 18.02 C 45.13 21.10 44.17 24.16 43.37 27.27 C 46.25 28.93 49.14 30.59 52.16 32.00 C 49.14 33.40 46.25 35.08 43.35 36.70 C 44.16 39.82 45.13 42.89 46.00 45.98 C 42.89 45.14 39.82 44.18 36.71 43.33 C 35.08 46.24 33.41 49.13 32.00 52.16 C 30.59 49.13 28.92 46.24 27.26 43.34 C 24.17 44.18 21.11 45.13 18.03 46.01 C 18.86 42.90 19.82 39.82 20.65 36.70 C 17.75 35.07 14.85 33.40 11.83 32.00 C 14.86 30.60 17.74 28.91 20.63 27.27 C 19.81 24.16 18.85 21.09 18.03 17.98 C 21.11 18.88 24.17 19.83 27.27 20.64 M 20.32 32.06 C 21.69 34.67 23.58 37.18 26.43 38.28 C 32.63 41.40 41.00 38.54 43.68 32.05 C 39.64 22.56 24.34 22.55 20.32 32.06 Z" />
<path fill="#fcfcfc" opacity="1.00" d=" M 30.52 27.67 C 33.93 26.22 37.73 30.30 36.47 33.67 C 35.63 37.31 30.01 37.92 28.17 34.80 C 26.45 32.33 27.76 28.70 30.52 27.67 Z" />
</g>
</svg>
