<?xml version="1.0" encoding="UTF-8" ?>
<!DOCTYPE svg PUBLIC "-//W3C//DTD SVG 1.1//EN" "http://www.w3.org/Graphics/SVG/1.1/DTD/svg11.dtd">
<svg width="64pt" height="64pt" viewBox="0 0 64 64" version="1.1" xmlns="http://www.w3.org/2000/svg">
<g id="#090707f8">
<path fill="#090707" opacity="0.97" d=" M 29.98 17.01 C 33.52 16.09 37.46 15.99 41.00 17.00 C 42.17 19.36 41.41 22.21 41.60 24.76 C 46.78 25.12 52.38 25.10 56.76 28.32 C 61.34 31.37 61.00 38.67 57.06 42.12 C 54.72 44.57 51.20 45.06 47.98 45.06 C 41.97 45.08 35.96 45.04 29.96 45.08 C 24.87 45.23 20.16 43.03 15.22 42.19 C 14.50 44.11 13.46 45.88 12.00 47.33 C 9.98 46.82 7.95 46.20 6.41 44.73 C 6.42 42.68 6.40 40.62 6.35 38.57 C 4.64 37.59 2.93 35.22 4.32 33.38 C 5.19 32.51 6.09 31.68 6.99 30.85 C 6.97 28.46 6.95 26.08 6.96 23.70 C 9.19 23.43 11.44 23.43 13.64 23.87 C 14.20 25.27 14.74 26.67 15.30 28.07 C 19.10 27.19 22.83 26.07 26.60 25.08 C 27.71 22.46 27.51 18.82 29.98 17.01 M 28.44 27.17 C 23.50 28.21 18.73 29.90 13.78 30.92 C 12.81 28.66 12.59 24.83 9.16 25.51 C 9.10 27.99 8.98 30.47 8.86 32.94 C 7.68 33.27 6.87 33.99 6.43 35.09 C 7.14 35.82 7.89 36.50 8.69 37.13 C 8.73 39.51 8.71 41.89 8.72 44.27 C 9.54 44.34 11.17 44.47 11.99 44.54 C 12.53 42.77 13.08 41.02 13.65 39.26 C 18.15 40.29 22.55 41.82 27.10 42.61 C 33.74 42.90 40.39 42.60 47.03 42.75 C 50.37 42.85 54.34 42.36 56.40 39.38 C 57.83 37.52 57.57 35.05 57.79 32.86 C 53.56 26.94 45.67 27.50 39.25 27.13 C 39.25 24.35 39.22 21.57 39.22 18.79 C 36.55 18.77 33.88 18.69 31.22 18.62 C 30.13 21.42 29.33 24.31 28.44 27.17 Z" />
</g>
<g id="#f7cf54ff">
<path fill="#f7cf54" opacity="1.00" d=" M 28.44 27.17 C 29.33 24.31 30.13 21.42 31.22 18.62 C 33.88 18.69 36.55 18.77 39.22 18.79 C 39.22 21.57 39.25 24.35 39.25 27.13 C 45.67 27.50 53.56 26.94 57.79 32.86 C 57.57 35.05 57.83 37.52 56.40 39.38 C 54.34 42.36 50.37 42.85 47.03 42.75 C 40.39 42.60 33.74 42.90 27.10 42.61 C 22.55 41.82 18.15 40.29 13.65 39.26 C 13.08 41.02 12.53 42.77 11.99 44.54 C 11.17 44.47 9.54 44.34 8.72 44.27 C 8.71 41.89 8.73 39.51 8.69 37.13 C 7.89 36.50 7.14 35.82 6.43 35.09 C 6.87 33.99 7.68 33.27 8.86 32.94 C 8.98 30.47 9.10 27.99 9.16 25.51 C 12.59 24.83 12.81 28.66 13.78 30.92 C 18.73 29.90 23.50 28.21 28.44 27.17 Z" />
</g>
<g id="#03030354">
<path fill="#030303" opacity="0.33" d=" M 4.02 28.70 C 6.02 27.76 6.45 25.62 6.96 23.70 C 6.95 26.08 6.97 28.46 6.99 30.85 C 6.09 31.68 5.19 32.51 4.32 33.38 C 4.22 31.82 4.12 30.26 4.02 28.70 Z" />
</g>
</svg>
