<?xml version="1.0" encoding="UTF-8" ?>
<!DOCTYPE svg PUBLIC "-//W3C//DTD SVG 1.1//EN" "http://www.w3.org/Graphics/SVG/1.1/DTD/svg11.dtd">
<svg width="64pt" height="64pt" viewBox="0 0 64 64" version="1.1" xmlns="http://www.w3.org/2000/svg">
<g id="#110e11fe">
<path fill="#110e11" opacity="1.00" d=" M 11.51 3.41 C 25.17 3.19 38.84 3.19 52.49 3.41 C 53.21 8.01 53.26 12.75 52.34 17.32 C 43.92 17.23 35.51 17.37 27.10 17.23 C 27.02 19.97 26.96 22.71 26.90 25.44 C 34.34 25.78 41.79 25.41 49.24 25.68 C 49.63 29.40 49.80 33.16 49.45 36.89 C 49.41 38.10 48.20 38.92 47.05 38.77 C 40.39 38.87 33.73 38.78 27.07 38.77 C 26.54 46.04 27.50 53.36 26.59 60.60 C 21.56 60.76 16.53 60.81 11.50 60.60 C 10.63 55.10 11.11 49.52 11.07 43.98 C 11.00 33.32 11.05 22.66 11.04 12.00 C 10.90 9.13 10.91 6.24 11.51 3.41 M 13.30 5.59 L 13.31 5.86 C 13.14 23.37 13.36 40.88 13.33 58.39 C 17.12 58.33 20.91 58.36 24.69 58.31 C 24.47 51.01 25.06 43.67 24.54 36.40 C 32.09 36.53 39.65 36.40 47.20 36.43 C 47.20 33.56 47.20 30.68 47.19 27.80 C 39.63 27.76 32.06 27.69 24.50 27.84 C 24.84 23.56 24.62 19.28 24.67 15.00 C 33.33 14.95 41.99 14.96 50.65 14.99 C 50.66 11.86 50.67 8.73 50.71 5.60 C 38.24 5.66 25.77 5.67 13.30 5.59 Z" />
</g>
<g id="#f9f9f9ff">
<path fill="#f9f9f9" opacity="1.00" d=" M 13.30 5.59 C 25.77 5.67 38.24 5.66 50.71 5.60 C 50.67 8.73 50.66 11.86 50.65 14.99 C 41.99 14.96 33.33 14.95 24.67 15.00 C 24.62 19.28 24.84 23.56 24.50 27.84 C 23.89 25.40 23.68 22.88 23.71 20.37 C 22.69 21.42 21.65 22.44 20.61 23.46 C 21.52 24.15 22.43 24.84 23.33 25.53 C 19.99 26.60 16.71 25.66 13.75 24.02 C 13.77 17.96 13.72 11.90 13.31 5.86 L 13.30 5.59 Z" />
</g>
<g id="#cacacaff">
<path fill="#cacaca" opacity="1.00" d=" M 13.31 5.86 C 13.72 11.90 13.77 17.96 13.75 24.02 C 13.59 30.67 14.08 37.31 14.51 43.94 C 17.41 44.44 20.35 44.59 23.29 44.40 C 23.49 41.72 23.79 39.04 23.99 36.35 L 24.54 36.40 C 25.06 43.67 24.47 51.01 24.69 58.31 C 20.91 58.36 17.12 58.33 13.33 58.39 C 13.36 40.88 13.14 23.37 13.31 5.86 Z" />
</g>
<g id="#dfe0dfff">
<path fill="#dfe0df" opacity="1.00" d=" M 20.61 23.46 C 21.65 22.44 22.69 21.42 23.71 20.37 C 23.68 22.88 23.89 25.40 24.50 27.84 C 32.06 27.69 39.63 27.76 47.19 27.80 C 47.20 30.68 47.20 33.56 47.20 36.43 C 39.65 36.40 32.09 36.53 24.54 36.40 L 23.99 36.35 C 23.79 39.04 23.49 41.72 23.29 44.40 C 20.35 44.59 17.41 44.44 14.51 43.94 C 14.08 37.31 13.59 30.67 13.75 24.02 C 16.71 25.66 19.99 26.60 23.33 25.53 C 22.43 24.84 21.52 24.15 20.61 23.46 Z" />
</g>
</svg>
