<?xml version="1.0" encoding="UTF-8" ?>
<!DOCTYPE svg PUBLIC "-//W3C//DTD SVG 1.1//EN" "http://www.w3.org/Graphics/SVG/1.1/DTD/svg11.dtd">
<svg width="64pt" height="64pt" viewBox="0 0 64 64" version="1.1" xmlns="http://www.w3.org/2000/svg">
<g id="#010101ff">
<path fill="#010101" opacity="1.00" d=" M 28.04 2.04 C 30.62 1.54 33.36 1.46 35.94 2.05 C 37.64 3.73 36.81 6.50 37.23 8.66 C 46.11 10.69 53.17 18.03 55.22 26.85 C 57.37 27.00 59.52 27.15 61.67 27.36 C 62.09 30.44 62.09 33.56 61.67 36.64 C 59.54 36.83 57.40 36.94 55.27 37.05 C 53.19 45.90 46.15 53.29 37.22 55.34 C 36.84 57.53 37.52 60.20 35.96 62.01 C 33.30 62.41 30.58 62.39 27.93 61.98 C 26.56 60.08 27.09 57.54 26.77 55.34 C 17.86 53.28 10.82 45.90 8.73 37.06 C 6.59 36.94 4.44 36.82 2.30 36.63 C 1.91 33.55 1.90 30.43 2.33 27.35 C 4.48 27.15 6.63 27.00 8.78 26.86 C 10.85 18.05 17.87 10.68 26.76 8.66 C 27.16 6.49 26.41 3.78 28.04 2.04 M 29.29 3.94 C 29.29 5.92 29.38 7.90 29.21 9.88 C 28.44 11.13 26.68 10.88 25.49 11.49 C 17.58 13.95 11.96 21.29 10.66 29.34 C 8.55 29.32 6.45 29.32 4.34 29.35 C 4.33 31.11 4.35 32.87 4.37 34.64 C 6.49 34.66 8.61 34.66 10.73 34.64 C 11.24 36.74 11.80 38.81 12.39 40.89 C 12.46 40.68 12.58 40.26 12.65 40.06 C 14.47 47.65 22.28 51.79 29.23 53.84 C 29.45 55.90 29.34 57.98 29.36 60.05 C 31.13 60.05 32.90 60.05 34.66 60.05 C 34.65 57.93 34.65 55.81 34.64 53.69 C 41.76 52.07 49.46 47.54 51.34 40.07 C 51.41 40.27 51.54 40.68 51.61 40.88 C 52.20 38.81 52.76 36.73 53.27 34.64 C 55.39 34.66 57.51 34.66 59.63 34.64 C 59.65 32.87 59.67 31.11 59.66 29.35 C 57.55 29.32 55.45 29.32 53.34 29.34 C 52.03 21.27 46.40 13.91 38.46 11.47 C 37.26 10.90 35.61 11.07 34.77 9.92 C 34.62 7.93 34.71 5.93 34.71 3.94 C 32.90 3.94 31.10 3.94 29.29 3.94 Z" />
<path fill="#010101" opacity="1.00" d=" M 15.98 29.31 C 17.56 22.77 22.60 17.33 29.30 16.02 C 29.30 19.25 29.32 22.48 29.25 25.72 C 31.08 25.70 32.92 25.70 34.75 25.73 C 34.68 22.49 34.70 19.26 34.70 16.02 C 41.40 17.35 46.45 22.77 48.02 29.31 C 44.77 29.32 41.53 29.33 38.28 29.25 C 38.31 31.08 38.32 32.90 38.31 34.73 C 41.54 34.65 44.77 34.66 48.00 34.66 C 47.75 35.34 47.26 36.71 47.01 37.40 C 45.22 42.93 40.24 46.72 34.69 47.99 C 34.70 44.79 34.70 41.59 34.68 38.39 C 32.86 38.32 31.05 38.27 29.23 38.20 C 29.31 41.46 29.31 44.72 29.32 47.98 C 23.62 46.74 18.64 42.71 16.81 37.09 C 16.64 36.47 16.29 35.25 16.11 34.64 C 19.33 34.66 22.55 34.65 25.76 34.73 C 25.69 32.94 25.64 31.15 25.58 29.36 C 22.38 29.32 19.18 29.31 15.98 29.31 Z" />
</g>
<g id="#f0eff0ff">
<path fill="#f0eff0" opacity="1.00" d=" M 29.29 3.94 C 31.10 3.94 32.90 3.94 34.71 3.94 C 34.71 5.93 34.62 7.93 34.77 9.92 C 35.61 11.07 37.26 10.90 38.46 11.47 C 46.40 13.91 52.03 21.27 53.34 29.34 C 55.45 29.32 57.55 29.32 59.66 29.35 C 59.67 31.11 59.65 32.87 59.63 34.64 C 57.51 34.66 55.39 34.66 53.27 34.64 C 52.76 36.73 52.20 38.81 51.61 40.88 C 51.54 40.68 51.41 40.27 51.34 40.07 L 51.29 39.58 C 49.77 39.04 48.35 38.28 47.01 37.40 C 47.26 36.71 47.75 35.34 48.00 34.66 C 44.77 34.66 41.54 34.65 38.31 34.73 C 38.32 32.90 38.31 31.08 38.28 29.25 C 41.53 29.33 44.77 29.32 48.02 29.31 C 46.45 22.77 41.40 17.35 34.70 16.02 C 34.70 19.26 34.68 22.49 34.75 25.73 C 32.92 25.70 31.08 25.70 29.25 25.72 C 29.32 22.48 29.30 19.25 29.30 16.02 C 22.60 17.33 17.56 22.77 15.98 29.31 C 19.18 29.31 22.38 29.32 25.58 29.36 C 25.64 31.15 25.69 32.94 25.76 34.73 C 22.55 34.65 19.33 34.66 16.11 34.64 C 16.29 35.25 16.64 36.47 16.81 37.09 C 15.87 38.53 14.37 39.27 12.69 39.54 L 12.65 40.06 C 12.58 40.26 12.46 40.68 12.39 40.89 C 11.80 38.81 11.24 36.74 10.73 34.64 C 8.61 34.66 6.49 34.66 4.37 34.64 C 4.35 32.87 4.33 31.11 4.34 29.35 C 6.45 29.32 8.55 29.32 10.66 29.34 C 11.96 21.29 17.58 13.95 25.49 11.49 C 26.68 10.88 28.44 11.13 29.21 9.88 C 29.38 7.90 29.29 5.92 29.29 3.94 Z" />
</g>
<g id="#dcdbdcff">
<path fill="#dcdbdc" opacity="1.00" d=" M 16.81 37.09 C 18.64 42.71 23.62 46.74 29.32 47.98 C 29.31 44.72 29.31 41.46 29.23 38.20 C 31.05 38.27 32.86 38.32 34.68 38.39 C 34.70 41.59 34.70 44.79 34.69 47.99 C 40.24 46.72 45.22 42.93 47.01 37.40 C 48.35 38.28 49.77 39.04 51.29 39.58 L 51.34 40.07 C 49.46 47.54 41.76 52.07 34.64 53.69 C 34.65 55.81 34.65 57.93 34.66 60.05 C 32.90 60.05 31.13 60.05 29.36 60.05 C 29.34 57.98 29.45 55.90 29.23 53.84 C 22.28 51.79 14.47 47.65 12.65 40.06 L 12.69 39.54 C 14.37 39.27 15.87 38.53 16.81 37.09 Z" />
</g>
</svg>
