<?xml version="1.0" encoding="UTF-8" ?>
<!DOCTYPE svg PUBLIC "-//W3C//DTD SVG 1.1//EN" "http://www.w3.org/Graphics/SVG/1.1/DTD/svg11.dtd">
<svg width="64pt" height="64pt" viewBox="0 0 64 64" version="1.1" xmlns="http://www.w3.org/2000/svg">
<g id="#010100ff">
<path fill="#010100" opacity="1.00" d=" M 48.42 6.50 C 51.65 5.48 54.73 3.95 58.13 3.54 C 59.59 6.16 60.33 10.61 56.93 12.03 C 50.21 14.38 43.41 16.51 36.64 18.68 C 37.24 19.22 37.84 19.77 38.44 20.32 C 38.44 22.38 38.46 24.44 38.51 26.50 C 42.81 26.79 48.03 25.11 51.50 28.51 C 53.36 30.09 53.79 32.64 53.73 34.96 C 53.70 40.98 53.77 47.01 53.70 53.03 C 53.83 57.10 49.91 60.35 45.99 60.27 C 38.33 60.37 30.67 60.21 23.00 60.31 C 20.09 60.45 16.69 59.67 15.06 57.03 C 12.80 53.78 14.09 49.63 13.80 45.96 C 14.14 40.77 13.03 35.38 14.47 30.34 C 17.29 25.02 23.92 26.58 28.83 26.44 C 28.78 24.49 29.12 22.61 29.84 20.82 C 23.76 23.24 17.47 25.07 11.29 27.19 C 9.53 27.65 7.77 28.53 5.92 28.27 C 4.31 26.60 4.86 24.10 4.65 22.00 C 5.63 21.25 6.53 20.30 7.74 19.91 C 21.26 15.32 34.87 10.99 48.42 6.50 M 38.47 12.22 C 31.31 14.96 23.78 16.60 16.66 19.44 C 13.42 20.17 10.36 21.56 7.13 22.37 C 7.04 23.64 6.96 24.91 6.91 26.18 C 12.52 24.34 18.11 22.42 23.74 20.64 L 23.09 20.54 C 34.54 17.56 45.55 12.99 56.92 9.68 C 56.97 8.80 57.07 7.06 57.12 6.19 C 50.82 7.94 44.72 10.31 38.47 12.22 M 31.32 22.60 C 31.31 24.64 31.29 26.67 31.30 28.71 C 27.02 29.02 22.49 27.97 18.38 29.41 C 15.03 32.02 15.92 36.71 16.14 40.39 C 16.01 44.27 16.08 48.16 15.91 52.04 C 15.63 54.89 17.98 57.99 20.97 57.97 C 29.32 58.08 37.68 58.07 46.03 57.98 C 48.49 58.00 50.49 56.21 51.32 53.99 C 51.69 50.43 51.42 46.83 51.48 43.25 C 51.35 38.77 52.26 34.01 50.13 29.85 C 45.78 27.92 40.91 28.99 36.32 28.71 C 36.28 26.19 36.28 23.68 36.17 21.17 C 34.56 21.66 32.94 22.13 31.32 22.60 Z" />
<path fill="#010100" opacity="1.00" d=" M 21.28 40.48 C 21.28 38.19 21.33 35.91 21.34 33.63 C 24.61 33.64 27.87 33.65 31.14 33.80 C 31.41 37.51 31.30 41.22 31.31 44.94 C 27.98 44.94 24.65 44.94 21.32 44.94 C 21.32 43.45 21.31 41.97 21.28 40.48 Z" />
<path fill="#010100" opacity="1.00" d=" M 36.32 33.60 C 39.64 33.65 42.96 33.69 46.29 33.73 C 46.31 37.38 46.31 41.04 46.31 44.69 C 42.97 45.07 39.62 44.95 36.27 44.92 C 36.29 43.33 36.31 41.75 36.31 40.17 C 36.32 37.98 36.32 35.79 36.32 33.60 Z" />
</g>
<g id="#99b19fff">
<path fill="#99b19f" opacity="1.00" d=" M 38.47 12.22 C 44.72 10.31 50.82 7.94 57.12 6.19 C 57.07 7.06 56.97 8.80 56.92 9.68 C 45.55 12.99 34.54 17.56 23.09 20.54 C 20.94 20.22 18.81 19.78 16.66 19.44 C 23.78 16.60 31.31 14.96 38.47 12.22 Z" />
</g>
<g id="#acb993ff">
<path fill="#acb993" opacity="1.00" d=" M 7.13 22.37 C 10.36 21.56 13.42 20.17 16.66 19.44 C 18.81 19.78 20.94 20.22 23.09 20.54 L 23.74 20.64 C 18.11 22.42 12.52 24.34 6.91 26.18 C 6.96 24.91 7.04 23.64 7.13 22.37 Z" />
</g>
<g id="#cac787ff">
<path fill="#cac787" opacity="1.00" d=" M 31.32 22.60 C 32.94 22.13 34.56 21.66 36.17 21.17 C 36.28 23.68 36.28 26.19 36.32 28.71 C 40.91 28.99 45.78 27.92 50.13 29.85 C 52.26 34.01 51.35 38.77 51.48 43.25 C 49.76 43.74 48.05 44.27 46.31 44.69 C 46.31 41.04 46.31 37.38 46.29 33.73 C 42.96 33.69 39.64 33.65 36.32 33.60 C 36.32 35.79 36.32 37.98 36.31 40.17 C 34.54 38.09 32.67 36.08 31.14 33.80 C 27.87 33.65 24.61 33.64 21.34 33.63 C 21.33 35.91 21.28 38.19 21.28 40.48 C 20.44 38.88 19.53 37.31 18.62 35.75 C 17.76 37.28 16.91 38.81 16.14 40.39 C 15.92 36.71 15.03 32.02 18.38 29.41 C 22.49 27.97 27.02 29.02 31.30 28.71 C 31.29 26.67 31.31 24.64 31.32 22.60 Z" />
</g>
<g id="#efd869ff">
<path fill="#efd869" opacity="1.00" d=" M 31.14 33.80 C 32.67 36.08 34.54 38.09 36.31 40.17 C 36.31 41.75 36.29 43.33 36.27 44.92 C 39.62 44.95 42.97 45.07 46.31 44.69 C 48.05 44.27 49.76 43.74 51.48 43.25 C 51.42 46.83 51.69 50.43 51.32 53.99 C 50.49 56.21 48.49 58.00 46.03 57.98 C 37.68 58.07 29.32 58.08 20.97 57.97 C 17.98 57.99 15.63 54.89 15.91 52.04 C 16.08 48.16 16.01 44.27 16.14 40.39 C 16.91 38.81 17.76 37.28 18.62 35.75 C 19.53 37.31 20.44 38.88 21.28 40.48 C 21.31 41.97 21.32 43.45 21.32 44.94 C 24.65 44.94 27.98 44.94 31.31 44.94 C 31.30 41.22 31.41 37.51 31.14 33.80 Z" />
</g>
</svg>
