<?xml version="1.0" encoding="UTF-8" ?>
<!DOCTYPE svg PUBLIC "-//W3C//DTD SVG 1.1//EN" "http://www.w3.org/Graphics/SVG/1.1/DTD/svg11.dtd">
<svg width="64pt" height="64pt" viewBox="0 0 64 64" version="1.1" xmlns="http://www.w3.org/2000/svg">
<g id="#000000ba">
<path fill="#000000" opacity="0.73" d=" M 10.00 3.01 C 13.10 4.17 20.61 0.91 22.00 4.00 C 18.00 4.00 14.00 4.00 10.00 3.98 L 10.00 3.01 Z" />
<path fill="#000000" opacity="0.73" d=" M 42.00 3.02 C 45.11 4.17 52.56 0.92 54.01 3.99 C 50.01 4.00 46.00 4.00 42.01 4.00 L 42.00 3.02 Z" />
<path fill="#000000" opacity="0.73" d=" M 23.74 37.75 C 28.30 35.79 35.44 36.98 40.23 37.74 C 34.75 37.96 29.22 38.34 23.74 37.75 Z" />
<path fill="#000000" opacity="0.73" d=" M 9.62 60.70 C 13.63 59.08 18.11 60.44 22.24 60.68 C 18.04 61.05 13.83 61.06 9.62 60.70 Z" />
<path fill="#000000" opacity="0.73" d=" M 41.82 60.07 C 46.00 60.04 50.19 60.00 54.32 60.78 C 50.21 60.99 46.09 61.08 41.98 61.05 L 41.82 60.07 Z" />
</g>
<g id="#040404f9">
<path fill="#040404" opacity="0.98" d=" M 8.02 4.04 C 8.52 4.02 9.50 4.00 10.00 3.98 C 14.00 4.00 18.00 4.00 22.00 4.00 C 22.25 4.25 22.75 4.76 23.00 5.01 C 23.08 11.31 22.77 17.63 23.06 23.93 L 23.98 23.99 C 29.32 24.05 34.67 24.14 40.01 23.97 L 40.97 23.91 C 41.08 17.61 41.01 11.31 41.00 5.00 C 41.25 4.75 41.75 4.25 42.01 4.00 C 46.00 4.00 50.01 4.00 54.01 3.99 C 54.51 4.24 55.50 4.76 56.00 5.01 C 55.97 22.02 56.02 39.02 56.03 56.02 C 56.06 57.69 55.75 59.33 55.19 60.90 L 54.32 60.78 C 50.19 60.00 46.00 60.04 41.82 60.07 C 39.83 52.89 42.44 44.45 40.23 37.74 C 35.44 36.98 28.30 35.79 23.74 37.75 C 22.15 44.55 23.00 52.21 23.59 59.27 C 23.68 60.27 23.23 60.74 22.24 60.68 C 18.11 60.44 13.63 59.08 9.62 60.70 L 8.77 60.97 C 7.07 42.39 8.41 23.66 8.00 5.01 L 8.02 4.04 M 11.99 5.99 C 11.50 6.00 10.51 6.03 10.01 6.04 L 9.05 6.01 C 8.92 23.67 9.00 41.34 9.03 59.00 C 11.84 58.94 17.44 58.81 20.25 58.74 C 20.44 58.55 20.84 58.16 21.03 57.97 L 21.98 57.99 C 22.05 50.53 22.13 43.06 21.86 35.61 C 28.56 36.62 35.41 35.91 42.14 35.62 C 41.77 43.07 42.03 50.55 42.02 58.01 L 42.97 57.96 C 43.16 58.16 43.56 58.55 43.75 58.74 C 46.55 58.81 52.14 58.93 54.94 59.00 C 55.09 41.33 54.99 23.66 54.97 5.99 L 53.99 6.04 C 53.50 6.03 52.50 6.00 52.01 5.99 L 51.97 5.05 C 49.58 5.47 44.87 3.78 43.99 6.00 L 43.01 6.03 L 42.05 6.01 C 41.84 12.66 42.01 19.32 42.01 25.98 C 35.33 26.10 28.66 26.02 21.99 25.99 C 22.08 19.32 22.01 12.66 21.97 5.99 L 21.00 6.03 L 20.01 6.00 L 19.98 5.05 C 17.58 5.46 12.89 3.78 11.99 5.99 Z" />
</g>
<g id="#00000082">
<path fill="#000000" opacity="0.51" d=" M 7.03 5.01 L 8.00 5.01 C 8.41 23.66 7.07 42.39 8.77 60.97 C 8.34 60.97 7.48 60.98 7.05 60.98 C 6.94 42.32 6.99 23.66 7.03 5.01 Z" />
<path fill="#000000" opacity="0.51" d=" M 23.00 5.01 L 23.98 5.00 C 24.03 11.01 24.06 17.01 24.01 23.02 L 23.98 23.99 L 23.06 23.93 C 22.77 17.63 23.08 11.31 23.00 5.01 Z" />
<path fill="#000000" opacity="0.51" d=" M 40.04 5.02 L 41.00 5.00 C 41.01 11.31 41.08 17.61 40.97 23.91 L 40.01 23.97 L 39.98 23.03 C 40.00 17.02 39.86 11.02 40.04 5.02 Z" />
<path fill="#000000" opacity="0.51" d=" M 56.00 5.01 L 56.98 5.00 C 57.00 23.66 57.06 42.32 56.95 60.98 C 56.51 60.96 55.63 60.92 55.19 60.90 C 55.75 59.33 56.06 57.69 56.03 56.02 C 56.02 39.02 55.97 22.02 56.00 5.01 Z" />
<path fill="#000000" opacity="0.51" d=" M 23.59 59.27 C 23.00 52.21 22.15 44.55 23.74 37.75 C 23.86 44.90 24.63 52.16 23.59 59.27 Z" />
<path fill="#000000" opacity="0.51" d=" M 40.23 37.74 C 42.44 44.45 39.83 52.89 41.82 60.07 L 41.98 61.05 C 41.51 60.74 40.57 60.13 40.10 59.82 C 39.99 52.47 39.72 45.08 40.23 37.74 Z" />
</g>
<g id="#696a69ff">
<path fill="#696a69" opacity="1.00" d=" M 11.99 5.99 C 12.89 3.78 17.58 5.46 19.98 5.05 L 20.01 6.00 C 17.33 6.00 14.66 6.00 11.99 5.99 Z" />
<path fill="#696a69" opacity="1.00" d=" M 43.99 6.00 C 44.87 3.78 49.58 5.47 51.97 5.05 L 52.01 5.99 C 49.33 6.00 46.66 6.01 43.99 6.00 Z" />
<path fill="#696a69" opacity="1.00" d=" M 21.86 35.61 C 28.58 34.76 35.41 34.77 42.14 35.62 C 35.41 35.91 28.56 36.62 21.86 35.61 Z" />
</g>
<g id="#494949ff">
<path fill="#494949" opacity="1.00" d=" M 9.05 6.01 L 10.01 6.04 C 10.06 14.60 9.84 23.16 10.09 31.72 C 10.03 38.06 9.92 44.40 10.07 50.74 C 10.07 52.52 10.08 56.08 10.08 57.86 C 12.62 58.08 17.71 58.52 20.25 58.74 C 17.44 58.81 11.84 58.94 9.03 59.00 C 9.00 41.34 8.92 23.67 9.05 6.01 Z" />
<path fill="#494949" opacity="1.00" d=" M 21.00 6.03 L 21.97 5.99 C 22.01 12.66 22.08 19.32 21.99 25.99 L 21.06 25.94 C 20.77 19.31 21.09 12.66 21.00 6.03 Z" />
<path fill="#494949" opacity="1.00" d=" M 42.05 6.01 L 43.01 6.03 C 42.99 12.66 43.09 19.29 42.97 25.93 L 42.01 25.98 C 42.01 19.32 41.84 12.66 42.05 6.01 Z" />
<path fill="#494949" opacity="1.00" d=" M 53.99 6.04 L 54.97 5.99 C 54.99 23.66 55.09 41.33 54.94 59.00 C 52.14 58.93 46.55 58.81 43.75 58.74 C 46.29 58.51 51.36 58.03 53.89 57.79 C 53.91 56.03 53.93 52.51 53.94 50.75 C 54.02 44.41 54.04 38.07 53.92 31.73 C 54.13 23.17 53.94 14.60 53.99 6.04 Z" />
<path fill="#494949" opacity="1.00" d=" M 21.13 35.68 L 21.86 35.61 C 22.13 43.06 22.05 50.53 21.98 57.99 L 21.03 57.97 C 20.97 54.90 20.92 51.83 20.80 48.76 C 21.00 44.40 21.01 40.04 21.13 35.68 Z" />
<path fill="#494949" opacity="1.00" d=" M 42.14 35.62 L 42.88 35.69 C 43.01 40.05 43.06 44.40 43.26 48.76 C 43.17 51.82 43.05 54.89 42.97 57.96 L 42.02 58.01 C 42.03 50.55 41.77 43.07 42.14 35.62 Z" />
</g>
<g id="#eaebeaff">
<path fill="#eaebea" opacity="1.00" d=" M 10.01 6.04 C 10.51 6.03 11.50 6.00 11.99 5.99 C 14.66 6.00 17.33 6.00 20.01 6.00 L 21.00 6.03 C 21.09 12.66 20.77 19.31 21.06 25.94 L 21.99 25.99 C 28.66 26.02 35.33 26.10 42.01 25.98 L 42.97 25.93 C 43.09 19.29 42.99 12.66 43.01 6.03 L 43.99 6.00 C 46.66 6.01 49.33 6.00 52.01 5.99 C 52.50 6.00 53.50 6.03 53.99 6.04 C 53.94 14.60 54.13 23.17 53.92 31.73 C 51.66 32.39 51.72 35.11 50.66 36.84 C 47.99 36.87 45.49 35.94 42.88 35.69 L 42.14 35.62 C 35.41 34.77 28.58 34.76 21.86 35.61 L 21.13 35.68 C 18.52 35.94 16.00 36.87 13.34 36.84 C 12.28 35.11 12.33 32.42 10.09 31.72 C 9.84 23.16 10.06 14.60 10.01 6.04 Z" />
</g>
<g id="#00000049">
<path fill="#000000" opacity="0.29" d=" M 24.01 23.02 C 29.33 22.96 34.66 22.90 39.98 23.03 L 40.01 23.97 C 34.67 24.14 29.32 24.05 23.98 23.99 L 24.01 23.02 Z" />
</g>
<g id="#cececeff">
<path fill="#cecece" opacity="1.00" d=" M 10.09 31.72 C 12.33 32.42 12.28 35.11 13.34 36.84 C 16.00 36.87 18.52 35.94 21.13 35.68 C 21.01 40.04 21.00 44.40 20.80 48.76 C 19.88 51.41 19.25 54.15 18.66 56.89 C 12.48 59.85 14.17 51.81 10.07 50.74 C 9.92 44.40 10.03 38.06 10.09 31.72 Z" />
<path fill="#cecece" opacity="1.00" d=" M 50.66 36.84 C 51.72 35.11 51.66 32.39 53.92 31.73 C 54.04 38.07 54.02 44.41 53.94 50.75 C 49.82 51.79 51.53 59.87 45.33 56.89 C 44.74 54.16 44.11 51.43 43.26 48.76 C 43.06 44.40 43.01 40.05 42.88 35.69 C 45.49 35.94 47.99 36.87 50.66 36.84 Z" />
</g>
<g id="#bcbebcff">
<path fill="#bcbebc" opacity="1.00" d=" M 18.66 56.89 C 19.25 54.15 19.88 51.41 20.80 48.76 C 20.92 51.83 20.97 54.90 21.03 57.97 C 20.84 58.16 20.44 58.55 20.25 58.74 C 17.71 58.52 12.62 58.08 10.08 57.86 C 10.08 56.08 10.07 52.52 10.07 50.74 C 14.17 51.81 12.48 59.85 18.66 56.89 Z" />
<path fill="#bcbebc" opacity="1.00" d=" M 43.26 48.76 C 44.11 51.43 44.74 54.16 45.33 56.89 C 51.53 59.87 49.82 51.79 53.94 50.75 C 53.93 52.51 53.91 56.03 53.89 57.79 C 51.36 58.03 46.29 58.51 43.75 58.74 C 43.56 58.55 43.16 58.16 42.97 57.96 C 43.05 54.89 43.17 51.82 43.26 48.76 Z" />
</g>
</svg>
