<?xml version="1.0" encoding="UTF-8" ?>
<!DOCTYPE svg PUBLIC "-//W3C//DTD SVG 1.1//EN" "http://www.w3.org/Graphics/SVG/1.1/DTD/svg11.dtd">
<svg width="64pt" height="64pt" viewBox="0 0 64 64" version="1.1" xmlns="http://www.w3.org/2000/svg">
<g id="#080808f9">
<path fill="#080808" opacity="0.98" d=" M 24.15 0.00 L 27.85 0.00 C 27.87 6.29 27.80 12.58 27.92 18.87 C 29.33 20.45 31.90 21.54 31.87 23.96 C 31.98 25.86 32.11 27.83 31.55 29.68 C 30.45 30.94 29.14 32.00 27.92 33.14 C 27.68 40.43 28.08 47.73 27.79 55.02 C 27.68 59.29 23.77 61.96 20.51 64.00 L 11.51 64.00 C 8.24 61.97 4.34 59.31 4.22 55.04 C 3.94 49.81 4.16 44.56 4.30 39.33 C 8.02 40.55 11.02 43.06 13.86 45.67 C 13.85 47.07 13.84 48.48 13.83 49.88 C 12.69 49.85 11.55 49.82 10.41 49.79 C 9.73 49.33 8.36 48.41 7.67 47.95 C 8.44 51.27 9.43 54.54 10.43 57.80 C 14.05 58.94 17.86 59.00 21.48 57.81 C 25.11 50.07 24.14 41.41 24.08 33.13 C 22.85 31.99 21.54 30.92 20.44 29.66 C 19.90 27.82 20.02 25.87 20.13 23.98 C 20.10 21.56 22.63 20.43 24.09 18.89 C 24.20 12.59 24.14 6.30 24.15 0.00 M 25.21 1.24 C 25.18 7.61 25.22 13.99 25.19 20.37 C 23.88 21.33 22.57 22.30 21.26 23.25 C 21.21 25.03 21.19 26.81 21.18 28.60 C 22.51 29.63 23.83 30.66 25.18 31.67 C 25.17 38.19 25.30 44.71 25.14 51.23 C 24.40 54.84 23.22 58.88 19.37 60.22 C 17.12 60.20 14.87 60.19 12.63 60.22 C 7.44 58.16 6.63 51.74 6.76 46.85 C 7.44 46.83 8.80 46.78 9.49 46.76 C 10.43 47.62 11.37 48.48 12.32 49.34 C 12.49 48.73 12.82 47.51 12.98 46.90 C 10.11 45.22 7.96 42.63 5.41 40.53 C 5.15 45.37 5.06 50.23 5.31 55.06 C 6.07 57.87 8.55 59.65 10.42 61.72 C 13.91 63.30 18.10 63.30 21.59 61.72 C 23.60 59.43 26.65 57.40 26.78 54.08 C 26.85 46.60 26.76 39.12 26.81 31.64 C 28.13 30.69 29.44 29.73 30.75 28.77 C 30.79 26.93 30.80 25.09 30.76 23.25 C 29.44 22.29 28.13 21.32 26.81 20.37 C 26.78 13.99 26.82 7.61 26.78 1.23 C 26.39 1.23 25.61 1.24 25.21 1.24 Z" />
<path fill="#080808" opacity="0.98" d=" M 46.15 0.00 L 49.64 0.00 C 55.29 4.79 57.82 11.88 60.16 18.66 C 56.16 19.69 52.14 20.88 47.98 21.04 C 43.85 20.87 39.85 19.69 35.87 18.67 C 37.77 11.71 40.96 5.11 46.15 0.00 M 37.85 17.45 C 39.90 18.29 42.02 18.89 44.21 19.21 C 46.68 19.99 49.31 19.98 51.78 19.21 C 53.90 18.88 55.97 18.33 57.97 17.58 C 57.88 17.08 57.70 16.09 57.61 15.60 C 55.47 10.07 52.79 4.61 48.01 0.85 C 42.90 5.11 39.53 11.07 37.85 17.45 Z" />
<path fill="#080808" opacity="0.98" d=" M 47.83 11.83 C 49.28 11.82 50.73 11.82 52.18 11.83 C 52.19 13.28 52.19 14.73 52.18 16.18 C 50.73 16.18 49.28 16.18 47.83 16.18 C 47.82 14.73 47.82 13.28 47.83 11.83 M 49.19 13.22 C 48.66 14.84 49.21 15.39 50.84 14.88 C 51.37 13.26 50.82 12.70 49.19 13.22 Z" />
<path fill="#080808" opacity="0.98" d=" M 36.22 21.78 C 39.54 22.46 42.85 23.30 46.23 23.64 C 50.83 24.10 55.24 22.28 59.80 22.11 C 61.67 31.40 58.10 40.54 53.35 48.36 C 55.62 52.28 57.68 56.32 60.08 60.18 C 60.13 61.45 60.18 62.72 60.23 64.00 L 55.98 64.00 C 53.27 63.04 50.64 61.88 48.01 60.74 C 45.36 61.88 42.71 63.04 39.99 64.00 L 35.78 64.00 C 35.83 62.72 35.87 61.45 35.92 60.17 C 38.32 56.32 40.38 52.27 42.66 48.35 C 40.66 44.61 38.44 40.95 37.20 36.88 C 35.61 32.01 36.19 26.81 36.22 21.78 M 40.49 41.44 C 42.04 43.73 43.82 46.17 44.19 48.95 C 41.62 53.57 38.39 58.03 36.99 63.12 C 40.08 62.42 43.12 61.41 45.88 59.83 C 47.29 59.82 48.71 59.82 50.13 59.83 C 52.91 61.41 55.95 62.53 59.13 62.98 C 57.21 58.09 54.73 53.22 51.55 48.99 C 52.50 46.86 53.34 44.66 54.63 42.69 C 58.16 36.86 59.35 30.00 58.84 23.26 C 56.23 23.86 53.54 24.18 51.02 25.13 C 46.28 25.73 41.77 24.08 37.17 23.28 C 36.61 29.57 37.84 35.74 40.49 41.44 Z" />
<path fill="#080808" opacity="0.98" d=" M 23.83 23.83 C 25.28 23.82 26.73 23.82 28.18 23.83 C 28.18 25.28 28.18 26.73 28.18 28.18 C 26.73 28.18 25.28 28.18 23.83 28.18 C 23.82 26.73 23.82 25.28 23.83 23.83 M 25.19 25.15 C 24.67 26.77 25.22 27.32 26.85 26.80 C 27.36 25.17 26.81 24.62 25.19 25.15 Z" />
</g>
<g id="#ffffffff">
<path fill="#ffffff" opacity="1.00" d=" M 25.21 1.24 C 25.61 1.24 26.39 1.23 26.78 1.23 C 26.82 7.61 26.78 13.99 26.81 20.37 C 28.13 21.32 29.44 22.29 30.76 23.25 C 30.80 25.09 30.79 26.93 30.75 28.77 C 29.44 29.73 28.13 30.69 26.81 31.64 C 26.76 39.12 26.85 46.60 26.78 54.08 C 26.65 57.40 23.60 59.43 21.59 61.72 C 18.10 63.30 13.91 63.30 10.42 61.72 C 8.55 59.65 6.07 57.87 5.31 55.06 C 5.06 50.23 5.15 45.37 5.41 40.53 C 7.96 42.63 10.11 45.22 12.98 46.90 C 12.82 47.51 12.49 48.73 12.32 49.34 C 11.37 48.48 10.43 47.62 9.49 46.76 C 8.80 46.78 7.44 46.83 6.76 46.85 C 6.63 51.74 7.44 58.16 12.63 60.22 C 14.87 60.19 17.12 60.20 19.37 60.22 C 23.22 58.88 24.40 54.84 25.14 51.23 C 25.30 44.71 25.17 38.19 25.18 31.67 C 23.83 30.66 22.51 29.63 21.18 28.60 C 21.19 26.81 21.21 25.03 21.26 23.25 C 22.57 22.30 23.88 21.33 25.19 20.37 C 25.22 13.99 25.18 7.61 25.21 1.24 M 23.83 23.83 C 23.82 25.28 23.82 26.73 23.83 28.18 C 25.28 28.18 26.73 28.18 28.18 28.18 C 28.18 26.73 28.18 25.28 28.18 23.83 C 26.73 23.82 25.28 23.82 23.83 23.83 Z" />
<path fill="#ffffff" opacity="1.00" d=" M 37.85 17.45 C 39.53 11.07 42.90 5.11 48.01 0.85 C 52.79 4.61 55.47 10.07 57.61 15.60 C 57.70 16.09 57.88 17.08 57.97 17.58 C 55.97 18.33 53.90 18.88 51.78 19.21 C 49.31 19.98 46.68 19.99 44.21 19.21 C 42.02 18.89 39.90 18.29 37.85 17.45 M 47.83 11.83 C 47.82 13.28 47.82 14.73 47.83 16.18 C 49.28 16.18 50.73 16.18 52.18 16.18 C 52.19 14.73 52.19 13.28 52.18 11.83 C 50.73 11.82 49.28 11.82 47.83 11.83 Z" />
<path fill="#ffffff" opacity="1.00" d=" M 40.49 41.44 C 37.84 35.74 36.61 29.57 37.17 23.28 C 41.77 24.08 46.28 25.73 51.02 25.13 C 53.54 24.18 56.23 23.86 58.84 23.26 C 59.35 30.00 58.16 36.86 54.63 42.69 C 53.34 44.66 52.50 46.86 51.55 48.99 C 54.73 53.22 57.21 58.09 59.13 62.98 C 55.95 62.53 52.91 61.41 50.13 59.83 C 48.71 59.82 47.29 59.82 45.88 59.83 C 43.12 61.41 40.08 62.42 36.99 63.12 C 38.39 58.03 41.62 53.57 44.19 48.95 C 43.82 46.17 42.04 43.73 40.49 41.44 Z" />
</g>
</svg>
