<?xml version="1.0" encoding="UTF-8" ?>
<!DOCTYPE svg PUBLIC "-//W3C//DTD SVG 1.1//EN" "http://www.w3.org/Graphics/SVG/1.1/DTD/svg11.dtd">
<svg width="64pt" height="64pt" viewBox="0 0 64 64" version="1.1" xmlns="http://www.w3.org/2000/svg">
<g id="#020302ff">
<path fill="#020302" opacity="1.00" d=" M 9.26 31.94 C 8.77 19.82 19.89 8.73 32.01 9.26 C 42.97 8.88 53.64 17.98 54.42 28.99 L 55.54 28.06 C 55.43 30.69 55.43 33.32 55.53 35.94 L 54.40 35.04 C 53.64 45.13 44.58 53.83 34.54 54.55 L 34.65 55.54 C 32.88 55.51 31.11 55.51 29.34 55.53 L 29.46 54.53 C 18.23 53.88 8.83 43.13 9.26 31.94 M 22.14 13.83 C 15.65 17.12 11.73 24.15 11.13 31.26 C 11.25 34.76 11.86 38.29 13.60 41.37 C 18.16 51.00 30.99 55.65 40.56 50.78 C 47.80 47.72 52.48 40.13 52.84 32.39 C 52.72 24.70 48.47 16.94 41.39 13.59 C 35.50 10.34 27.96 10.47 22.14 13.83 Z" />
<path fill="#020302" opacity="1.00" d=" M 28.92 16.70 C 30.61 16.58 32.31 16.45 34.00 16.31 C 34.11 17.20 34.32 18.99 34.42 19.88 C 38.06 20.77 41.06 23.63 41.11 27.55 C 39.39 27.52 37.68 27.49 35.96 27.47 C 35.75 26.78 35.34 25.41 35.13 24.73 C 32.94 24.23 30.68 24.12 28.47 24.59 C 28.62 25.68 28.01 27.11 28.94 27.97 C 32.70 29.78 37.24 29.71 40.58 32.44 C 41.48 34.54 41.70 36.82 41.78 39.08 C 40.06 41.58 37.71 43.45 34.71 44.12 C 34.72 45.23 34.73 46.34 34.74 47.45 C 32.98 47.48 31.22 47.54 29.45 47.59 C 29.42 46.41 29.39 45.22 29.35 44.03 C 25.27 43.21 22.15 40.06 22.11 35.76 C 23.73 35.75 25.35 35.74 26.97 35.74 C 27.81 40.63 35.20 41.49 37.06 36.86 C 33.63 33.72 28.69 33.74 24.82 31.41 C 22.55 29.10 22.29 24.97 24.58 22.60 C 25.70 21.29 27.42 20.80 28.91 20.05 C 28.91 19.21 28.92 17.54 28.92 16.70 Z" />
</g>
<g id="#eeedeeff">
<path fill="#eeedee" opacity="1.00" d=" M 22.14 13.83 C 27.96 10.47 35.50 10.34 41.39 13.59 C 48.47 16.94 52.72 24.70 52.84 32.39 C 48.75 32.54 44.66 32.59 40.58 32.44 C 37.24 29.71 32.70 29.78 28.94 27.97 C 28.01 27.11 28.62 25.68 28.47 24.59 C 30.68 24.12 32.94 24.23 35.13 24.73 C 35.34 25.41 35.75 26.78 35.96 27.47 C 37.68 27.49 39.39 27.52 41.11 27.55 C 41.06 23.63 38.06 20.77 34.42 19.88 C 34.32 18.99 34.11 17.20 34.00 16.31 C 32.31 16.45 30.61 16.58 28.92 16.70 C 28.92 17.54 28.91 19.21 28.91 20.05 C 27.42 20.80 25.70 21.29 24.58 22.60 C 22.29 24.97 22.55 29.10 24.82 31.41 C 20.34 32.94 15.60 32.62 11.13 31.26 C 11.73 24.15 15.65 17.12 22.14 13.83 Z" />
</g>
<g id="#dedddeff">
<path fill="#deddde" opacity="1.00" d=" M 11.13 31.26 C 15.60 32.62 20.34 32.94 24.82 31.41 C 28.69 33.74 33.63 33.72 37.06 36.86 C 35.20 41.49 27.81 40.63 26.97 35.74 C 25.35 35.74 23.73 35.75 22.11 35.76 C 22.15 40.06 25.27 43.21 29.35 44.03 C 29.39 45.22 29.42 46.41 29.45 47.59 C 31.22 47.54 32.98 47.48 34.74 47.45 C 34.73 46.34 34.72 45.23 34.71 44.12 C 37.71 43.45 40.06 41.58 41.78 39.08 C 41.70 36.82 41.48 34.54 40.58 32.44 C 44.66 32.59 48.75 32.54 52.84 32.39 C 52.48 40.13 47.80 47.72 40.56 50.78 C 30.99 55.65 18.16 51.00 13.60 41.37 C 11.86 38.29 11.25 34.76 11.13 31.26 Z" />
</g>
</svg>
