<?xml version="1.0" encoding="UTF-8" ?>
<!DOCTYPE svg PUBLIC "-//W3C//DTD SVG 1.1//EN" "http://www.w3.org/Graphics/SVG/1.1/DTD/svg11.dtd">
<svg width="64pt" height="64pt" viewBox="0 0 64 64" version="1.1" xmlns="http://www.w3.org/2000/svg">
<g id="#3871c8ff">
<path fill="#3871c8" opacity="1.00" d=" M 24.99 0.76 C 31.46 -0.42 38.38 -0.15 44.47 2.54 C 54.44 6.71 62.03 16.26 63.58 26.98 C 64.29 32.88 63.89 39.05 61.43 44.53 C 56.63 56.04 44.57 64.28 32.00 63.88 C 19.93 64.25 8.30 56.68 3.18 45.87 C -1.30 36.60 -0.95 25.09 4.20 16.16 C 8.61 8.45 16.30 2.70 24.99 0.76 M 17.76 9.63 C 17.17 11.37 16.57 13.15 16.68 15.02 C 16.71 21.66 16.72 28.31 16.68 34.95 C 16.57 36.80 17.11 38.56 17.69 40.29 C 19.10 40.71 20.51 41.15 21.92 41.59 C 21.39 42.34 20.35 43.84 19.82 44.59 C 18.74 44.63 17.65 44.68 16.57 44.72 C 16.06 45.31 15.54 45.90 15.03 46.49 C 15.79 46.58 17.31 46.76 18.08 46.84 C 17.45 47.99 16.82 49.14 16.18 50.29 C 14.49 50.65 12.11 49.96 11.51 52.31 C 12.30 52.39 13.89 52.56 14.68 52.65 C 14.27 53.36 13.45 54.78 13.03 55.48 C 15.34 55.77 16.76 54.30 17.87 52.54 C 27.17 52.52 36.47 52.41 45.78 52.60 C 46.89 54.33 48.32 55.79 50.59 55.44 C 50.18 54.72 49.37 53.27 48.96 52.55 C 49.70 52.54 51.19 52.52 51.94 52.51 C 51.76 52.00 51.41 51.00 51.24 50.49 C 50.00 50.47 48.77 50.46 47.54 50.45 C 46.74 49.23 45.95 48.01 45.16 46.80 C 46.02 46.77 47.75 46.70 48.61 46.67 C 48.23 46.18 47.47 45.21 47.10 44.72 C 45.89 44.70 44.69 44.67 43.49 44.64 C 42.97 43.51 42.45 42.37 41.93 41.23 C 43.06 40.90 44.19 40.58 45.32 40.26 C 47.04 35.70 46.02 30.74 46.27 25.99 C 45.98 20.55 47.12 14.89 45.24 9.64 C 41.18 9.00 37.06 9.15 32.97 9.18 C 27.90 9.25 22.80 8.86 17.76 9.63 Z" />
<path fill="#3871c8" opacity="1.00" d=" M 24.53 13.38 C 24.52 12.44 24.52 11.51 24.51 10.58 C 29.17 10.52 33.83 10.52 38.48 10.58 C 38.47 11.50 38.47 12.43 38.46 13.36 C 33.81 13.41 29.17 13.41 24.53 13.38 Z" />
<path fill="#3871c8" opacity="1.00" d=" M 20.26 15.38 C 23.79 14.45 27.45 14.75 31.05 14.75 C 34.94 14.81 38.89 14.37 42.69 15.37 C 42.76 19.10 42.78 22.83 42.58 26.56 C 35.20 26.97 27.79 26.94 20.41 26.58 C 20.17 22.85 20.19 19.11 20.26 15.38 Z" />
<path fill="#3871c8" opacity="1.00" d=" M 20.54 33.51 C 22.20 33.41 23.86 33.37 25.51 33.40 C 25.58 34.68 25.64 35.96 25.69 37.24 C 25.02 37.52 23.67 38.07 22.99 38.35 C 22.35 38.06 21.07 37.47 20.43 37.18 C 20.46 35.95 20.50 34.73 20.54 33.51 Z" />
<path fill="#3871c8" opacity="1.00" d=" M 37.49 33.38 C 39.13 33.37 40.77 33.41 42.41 33.50 C 42.45 34.71 42.50 35.93 42.55 37.14 C 41.91 37.44 40.64 38.05 40.01 38.36 C 39.33 38.08 37.97 37.54 37.29 37.27 C 37.35 35.97 37.41 34.68 37.49 33.38 Z" />
<path fill="#3871c8" opacity="1.00" d=" M 24.85 41.29 C 29.45 41.17 34.06 41.17 38.66 41.28 C 39.36 42.41 40.07 43.53 40.77 44.65 C 34.77 44.72 28.78 44.73 22.78 44.64 C 23.47 43.53 24.16 42.41 24.85 41.29 Z" />
<path fill="#3871c8" opacity="1.00" d=" M 19.00 50.37 C 19.87 49.14 20.73 47.92 21.60 46.70 C 28.43 46.78 35.26 46.75 42.09 46.72 C 42.87 47.95 43.66 49.18 44.44 50.41 C 35.96 50.42 27.48 50.50 19.00 50.37 Z" />
</g>
<g id="#fefefdff">
<path fill="#fefefd" opacity="1.00" d=" M 17.76 9.63 C 22.80 8.86 27.90 9.25 32.97 9.18 C 37.06 9.15 41.18 9.00 45.24 9.64 C 47.12 14.89 45.98 20.55 46.27 25.99 C 46.02 30.74 47.04 35.70 45.32 40.26 C 44.19 40.58 43.06 40.90 41.93 41.23 C 42.45 42.37 42.97 43.51 43.49 44.64 C 44.69 44.67 45.89 44.70 47.10 44.72 C 47.47 45.21 48.23 46.18 48.61 46.67 C 47.75 46.70 46.02 46.77 45.16 46.80 C 45.95 48.01 46.74 49.23 47.54 50.45 C 48.77 50.46 50.00 50.47 51.24 50.49 C 51.41 51.00 51.76 52.00 51.94 52.51 C 51.19 52.52 49.70 52.54 48.96 52.55 C 49.37 53.27 50.18 54.72 50.59 55.44 C 48.32 55.79 46.89 54.33 45.78 52.60 C 36.47 52.41 27.17 52.52 17.87 52.54 C 16.76 54.30 15.34 55.77 13.03 55.48 C 13.45 54.78 14.27 53.36 14.68 52.65 C 13.89 52.56 12.30 52.39 11.51 52.31 C 12.11 49.96 14.49 50.65 16.18 50.29 C 16.82 49.14 17.45 47.99 18.08 46.84 C 17.31 46.76 15.79 46.58 15.03 46.49 C 15.54 45.90 16.06 45.31 16.57 44.72 C 17.65 44.68 18.74 44.63 19.82 44.59 C 20.35 43.84 21.39 42.34 21.92 41.59 C 20.51 41.15 19.10 40.71 17.69 40.29 C 17.11 38.56 16.57 36.80 16.68 34.95 C 16.72 28.31 16.71 21.66 16.68 15.02 C 16.57 13.15 17.17 11.37 17.76 9.63 M 24.53 13.38 C 29.17 13.41 33.81 13.41 38.46 13.36 C 38.47 12.43 38.47 11.50 38.48 10.58 C 33.83 10.52 29.17 10.52 24.51 10.58 C 24.52 11.51 24.52 12.44 24.53 13.38 M 20.26 15.38 C 20.19 19.11 20.17 22.85 20.41 26.58 C 27.79 26.94 35.20 26.97 42.58 26.56 C 42.78 22.83 42.76 19.10 42.69 15.37 C 38.89 14.37 34.94 14.81 31.05 14.75 C 27.45 14.75 23.79 14.45 20.26 15.38 M 20.54 33.51 C 20.50 34.73 20.46 35.95 20.43 37.18 C 21.07 37.47 22.35 38.06 22.99 38.35 C 23.67 38.07 25.02 37.52 25.69 37.24 C 25.64 35.96 25.58 34.68 25.51 33.40 C 23.86 33.37 22.20 33.41 20.54 33.51 M 37.49 33.38 C 37.41 34.68 37.35 35.97 37.29 37.27 C 37.97 37.54 39.33 38.08 40.01 38.36 C 40.64 38.05 41.91 37.44 42.55 37.14 C 42.50 35.93 42.45 34.71 42.41 33.50 C 40.77 33.41 39.13 33.37 37.49 33.38 M 24.85 41.29 C 24.16 42.41 23.47 43.53 22.78 44.64 C 28.78 44.73 34.77 44.72 40.77 44.65 C 40.07 43.53 39.36 42.41 38.66 41.28 C 34.06 41.17 29.45 41.17 24.85 41.29 M 19.00 50.37 C 27.48 50.50 35.96 50.42 44.44 50.41 C 43.66 49.18 42.87 47.95 42.09 46.72 C 35.26 46.75 28.43 46.78 21.60 46.70 C 20.73 47.92 19.87 49.14 19.00 50.37 Z" />
</g>
</svg>
