<?xml version="1.0" encoding="UTF-8" ?>
<!DOCTYPE svg PUBLIC "-//W3C//DTD SVG 1.1//EN" "http://www.w3.org/Graphics/SVG/1.1/DTD/svg11.dtd">
<svg width="64pt" height="64pt" viewBox="0 0 64 64" version="1.1" xmlns="http://www.w3.org/2000/svg">
<g id="#070808fa">
<path fill="#070808" opacity="0.98" d=" M 26.40 5.40 C 31.39 2.14 38.95 4.28 41.11 9.97 C 42.66 13.99 41.72 19.04 38.12 21.66 C 41.04 22.25 44.18 23.41 45.84 26.05 C 47.52 28.67 49.16 31.35 51.46 33.49 C 54.18 36.38 58.20 37.64 60.63 40.85 C 60.18 42.55 60.42 44.85 58.64 45.85 C 57.14 46.93 55.13 46.21 53.42 46.43 C 53.99 46.78 55.12 47.46 55.69 47.80 C 55.70 48.60 55.72 50.18 55.73 50.98 C 54.20 52.73 52.37 54.19 50.30 55.27 C 45.00 58.06 39.69 61.04 33.85 62.58 C 30.84 63.37 27.98 61.64 25.20 60.73 C 19.97 58.47 14.56 56.39 9.85 53.13 C 7.47 51.65 6.77 48.16 9.34 46.41 C 5.61 47.54 3.17 44.26 3.35 40.87 C 5.77 37.64 9.80 36.37 12.55 33.51 C 15.21 31.06 16.86 27.78 19.12 25.00 C 20.70 23.07 23.26 22.53 25.53 21.86 C 20.25 17.79 20.56 8.79 26.40 5.40 M 29.56 6.59 C 25.29 7.64 22.78 12.97 24.76 16.93 C 27.02 22.97 37.25 22.97 39.02 16.56 C 41.49 10.90 35.36 4.41 29.56 6.59 M 25.46 24.28 C 22.04 24.71 19.91 27.69 18.20 30.37 C 15.18 35.01 10.70 38.40 5.92 41.04 C 6.21 42.21 6.53 43.37 6.88 44.53 C 13.09 42.80 17.69 37.99 22.27 33.74 C 22.35 36.79 22.37 39.84 22.30 42.89 C 28.03 46.64 35.94 46.62 41.69 42.92 C 41.62 39.86 41.65 36.79 41.74 33.73 C 45.45 37.30 49.25 40.89 53.82 43.37 C 55.03 44.00 56.44 43.83 57.76 43.90 C 57.79 43.18 57.86 41.73 57.89 41.01 C 53.01 38.23 48.45 34.65 45.44 29.83 C 43.70 27.30 41.56 24.31 38.18 24.13 C 33.96 23.79 29.66 23.72 25.46 24.28 M 10.02 45.63 C 16.51 43.97 22.69 47.31 29.06 47.96 C 26.14 47.01 22.94 46.51 20.48 44.54 C 19.58 42.95 20.08 40.98 19.87 39.23 C 16.83 41.70 13.93 44.63 10.02 45.63 M 44.14 39.22 C 43.95 41.01 44.36 42.98 43.51 44.64 C 38.98 47.76 33.33 48.18 28.01 48.43 C 29.67 48.65 31.41 49.42 33.08 48.83 C 39.84 47.26 46.74 43.78 53.78 45.85 C 50.05 44.48 47.08 41.79 44.14 39.22 M 9.59 49.15 C 12.60 53.32 17.83 54.69 22.23 56.88 C 26.47 58.35 30.98 61.84 35.57 59.60 C 41.94 56.80 49.08 54.55 53.81 49.19 C 53.08 48.79 51.62 47.99 50.89 47.59 C 44.35 47.05 38.35 50.45 32.04 51.41 C 25.97 50.56 20.23 47.76 14.05 47.49 C 12.37 47.37 10.99 48.40 9.59 49.15 Z" />
</g>
<g id="#c6e8f8ff">
<path fill="#c6e8f8" opacity="1.00" d=" M 29.56 6.59 C 35.36 4.41 41.49 10.90 39.02 16.56 C 37.25 22.97 27.02 22.97 24.76 16.93 C 22.78 12.97 25.29 7.64 29.56 6.59 Z" />
</g>
<g id="#c6c9e7ff">
<path fill="#c6c9e7" opacity="1.00" d=" M 25.46 24.28 C 29.66 23.72 33.96 23.79 38.18 24.13 C 41.56 24.31 43.70 27.30 45.44 29.83 C 48.45 34.65 53.01 38.23 57.89 41.01 C 57.86 41.73 57.79 43.18 57.76 43.90 C 56.44 43.83 55.03 44.00 53.82 43.37 C 49.25 40.89 45.45 37.30 41.74 33.73 C 41.65 36.79 41.62 39.86 41.69 42.92 C 35.94 46.62 28.03 46.64 22.30 42.89 C 22.37 39.84 22.35 36.79 22.27 33.74 C 17.69 37.99 13.09 42.80 6.88 44.53 C 6.53 43.37 6.21 42.21 5.92 41.04 C 10.70 38.40 15.18 35.01 18.20 30.37 C 19.91 27.69 22.04 24.71 25.46 24.28 Z" />
</g>
<g id="#c5aad5ff">
<path fill="#c5aad5" opacity="1.00" d=" M 9.59 49.15 C 10.99 48.40 12.37 47.37 14.05 47.49 C 20.23 47.76 25.97 50.56 32.04 51.41 C 38.35 50.45 44.35 47.05 50.89 47.59 C 51.62 47.99 53.08 48.79 53.81 49.19 C 49.08 54.55 41.94 56.80 35.57 59.60 C 30.98 61.84 26.47 58.35 22.23 56.88 C 17.83 54.69 12.60 53.32 9.59 49.15 Z" />
</g>
</svg>
