<?xml version="1.0" encoding="UTF-8" ?>
<!DOCTYPE svg PUBLIC "-//W3C//DTD SVG 1.1//EN" "http://www.w3.org/Graphics/SVG/1.1/DTD/svg11.dtd">
<svg width="64pt" height="64pt" viewBox="0 0 64 64" version="1.1" xmlns="http://www.w3.org/2000/svg">
<g id="#292427fa">
<path fill="#292427" opacity="0.98" d=" M 26.69 8.17 C 30.22 7.87 33.78 7.87 37.32 8.17 C 37.29 10.18 37.27 12.18 37.25 14.19 C 44.72 14.41 52.20 14.19 59.68 14.32 C 59.81 26.17 59.71 38.02 59.74 49.87 C 41.25 50.21 22.74 50.05 4.25 49.87 C 4.30 38.02 4.18 26.17 4.32 14.32 C 11.79 14.21 19.26 14.37 26.72 14.23 C 26.71 12.21 26.71 10.19 26.69 8.17 M 28.68 10.04 C 28.76 13.46 28.74 16.88 28.74 20.29 C 30.91 20.33 33.08 20.33 35.25 20.28 C 35.24 16.87 35.24 13.45 35.32 10.04 C 33.11 10.04 30.89 10.04 28.68 10.04 M 6.21 16.23 C 6.47 26.83 6.26 37.44 6.33 48.04 C 23.44 47.85 40.56 47.95 57.67 48.05 C 57.74 37.44 57.53 26.83 57.78 16.23 C 50.98 16.37 44.17 16.17 37.37 16.36 C 37.32 18.33 37.29 20.31 37.25 22.29 C 33.74 22.36 30.23 22.35 26.73 22.26 C 26.70 20.30 26.68 18.33 26.64 16.36 C 19.83 16.17 13.02 16.37 6.21 16.23 Z" />
</g>
<g id="#fefefeff">
<path fill="#fefefe" opacity="1.00" d=" M 28.68 10.04 C 30.89 10.04 33.11 10.04 35.32 10.04 C 35.24 13.45 35.24 16.87 35.25 20.28 C 33.08 20.33 30.91 20.33 28.74 20.29 C 28.74 16.88 28.76 13.46 28.68 10.04 Z" />
<path fill="#fefefe" opacity="1.00" d=" M 6.21 16.23 C 13.02 16.37 19.83 16.17 26.64 16.36 C 26.68 18.33 26.70 20.30 26.73 22.26 C 30.23 22.35 33.74 22.36 37.25 22.29 C 37.29 20.31 37.32 18.33 37.37 16.36 C 44.17 16.17 50.98 16.37 57.78 16.23 C 57.53 26.83 57.74 37.44 57.67 48.05 C 40.56 47.95 23.44 47.85 6.33 48.04 C 6.26 37.44 6.47 26.83 6.21 16.23 M 15.56 32.63 C 18.15 34.42 22.17 35.46 24.33 32.48 C 28.54 28.55 23.26 20.92 18.09 23.42 C 14.24 24.64 13.89 29.52 15.56 32.63 M 33.95 26.06 C 33.99 26.68 34.08 27.90 34.12 28.52 C 40.88 28.48 47.64 28.51 54.40 28.49 C 54.37 27.88 54.32 26.67 54.29 26.06 C 47.51 26.02 40.73 26.02 33.95 26.06 M 34.09 31.25 C 34.06 31.92 34.00 33.26 33.97 33.93 C 40.75 34.09 47.54 34.09 54.33 33.92 C 54.33 33.27 54.33 31.96 54.34 31.31 C 47.59 31.21 40.84 31.30 34.09 31.25 M 14.11 34.54 C 11.80 37.08 9.94 40.12 9.75 43.63 C 16.70 43.77 23.66 43.72 30.61 43.67 C 30.45 42.85 30.13 41.21 29.97 40.38 C 28.91 38.21 27.57 36.18 25.89 34.44 C 22.68 37.66 17.55 37.13 14.11 34.54 M 34.09 36.35 C 34.09 37.09 34.09 38.58 34.09 39.32 C 40.84 39.25 47.59 39.27 54.33 39.31 C 54.23 38.59 54.01 37.15 53.91 36.43 C 47.30 36.44 40.69 36.64 34.09 36.35 Z" />
</g>
<g id="#000100ff">
<path fill="#000100" opacity="1.00" d=" M 15.56 32.63 C 13.89 29.52 14.24 24.64 18.09 23.42 C 23.26 20.92 28.54 28.55 24.33 32.48 C 22.17 35.46 18.15 34.42 15.56 32.63 Z" />
<path fill="#000100" opacity="1.00" d=" M 33.95 26.06 C 40.73 26.02 47.51 26.02 54.29 26.06 C 54.32 26.67 54.37 27.88 54.40 28.49 C 47.64 28.51 40.88 28.48 34.12 28.52 C 34.08 27.90 33.99 26.68 33.95 26.06 Z" />
<path fill="#000100" opacity="1.00" d=" M 34.09 31.25 C 40.84 31.30 47.59 31.21 54.34 31.31 C 54.33 31.96 54.33 33.27 54.33 33.92 C 47.54 34.09 40.75 34.09 33.97 33.93 C 34.00 33.26 34.06 31.92 34.09 31.25 Z" />
<path fill="#000100" opacity="1.00" d=" M 14.11 34.54 C 17.55 37.13 22.68 37.66 25.89 34.44 C 27.57 36.18 28.91 38.21 29.97 40.38 C 30.13 41.21 30.45 42.85 30.61 43.67 C 23.66 43.72 16.70 43.77 9.75 43.63 C 9.94 40.12 11.80 37.08 14.11 34.54 Z" />
<path fill="#000100" opacity="1.00" d=" M 34.09 36.35 C 40.69 36.64 47.30 36.44 53.91 36.43 C 54.01 37.15 54.23 38.59 54.33 39.31 C 47.59 39.27 40.84 39.25 34.09 39.32 C 34.09 38.58 34.09 37.09 34.09 36.35 Z" />
</g>
</svg>
