<?xml version="1.0" encoding="UTF-8" ?>
<!DOCTYPE svg PUBLIC "-//W3C//DTD SVG 1.1//EN" "http://www.w3.org/Graphics/SVG/1.1/DTD/svg11.dtd">
<svg width="64pt" height="64pt" viewBox="0 0 64 64" version="1.1" xmlns="http://www.w3.org/2000/svg">
<g id="#030503f2">
<path fill="#030503" opacity="0.95" d=" M 12.32 12.38 C 21.13 7.40 31.80 6.76 41.59 8.49 C 45.48 9.70 49.88 10.62 52.90 13.44 C 53.35 14.44 54.10 15.03 55.16 15.22 C 58.91 17.10 60.66 22.00 60.59 26.04 C 60.72 30.92 57.40 34.97 53.70 37.74 C 58.27 41.32 59.42 48.88 55.12 53.10 C 51.24 57.74 43.00 57.41 39.55 52.41 C 37.42 49.95 37.47 46.55 37.55 43.49 C 27.50 44.60 16.62 42.95 8.56 36.46 C 5.23 33.70 3.08 29.42 3.42 25.04 C 3.57 19.50 7.72 14.98 12.32 12.38 M 11.17 16.15 C 7.40 18.87 4.94 23.53 5.76 28.24 C 7.23 32.13 10.41 35.17 13.96 37.22 C 22.54 41.73 32.95 42.75 42.26 40.13 L 41.14 41.56 C 38.47 45.34 39.90 51.19 44.12 53.13 C 48.27 55.51 54.48 52.70 55.21 47.91 C 56.50 44.65 54.06 41.76 51.96 39.55 C 50.62 39.10 49.27 38.66 47.91 38.24 C 52.42 36.39 56.42 32.84 58.23 28.25 C 58.52 25.57 58.27 22.73 56.71 20.44 C 53.27 14.81 46.69 12.29 40.58 10.79 C 30.63 8.89 19.51 10.01 11.17 16.15 Z" />
<path fill="#030503" opacity="0.95" d=" M 25.36 46.41 C 31.24 44.73 37.08 51.24 34.90 56.89 C 33.47 62.49 25.53 64.52 21.49 60.42 C 16.62 56.37 19.08 47.39 25.36 46.41 M 25.16 48.95 C 21.38 49.97 19.79 55.65 22.95 58.23 C 25.65 61.87 32.21 60.16 32.80 55.66 C 33.98 51.45 29.18 47.17 25.16 48.95 Z" />
</g>
<g id="#b6d4e8ff">
<path fill="#b6d4e8" opacity="1.00" d=" M 11.17 16.15 C 19.51 10.01 30.63 8.89 40.58 10.79 C 46.69 12.29 53.27 14.81 56.71 20.44 C 58.27 22.73 58.52 25.57 58.23 28.25 C 40.74 27.59 23.25 28.12 5.76 28.24 C 4.94 23.53 7.40 18.87 11.17 16.15 Z" />
</g>
<g id="#242528e6">
<path fill="#242528" opacity="0.90" d=" M 52.90 13.44 C 54.61 12.97 55.37 13.56 55.16 15.22 C 54.10 15.03 53.35 14.44 52.90 13.44 Z" />
</g>
<g id="#c8c9deff">
<path fill="#c8c9de" opacity="1.00" d=" M 5.76 28.24 C 23.25 28.12 40.74 27.59 58.23 28.25 C 56.42 32.84 52.42 36.39 47.91 38.24 C 49.27 38.66 50.62 39.10 51.96 39.55 C 48.39 40.38 44.54 40.06 41.14 41.56 L 42.26 40.13 C 32.95 42.75 22.54 41.73 13.96 37.22 C 10.41 35.17 7.23 32.13 5.76 28.24 Z" />
</g>
<g id="#dbb9d3ff">
<path fill="#dbb9d3" opacity="1.00" d=" M 41.14 41.56 C 44.54 40.06 48.39 40.38 51.96 39.55 C 54.06 41.76 56.50 44.65 55.21 47.91 C 54.48 52.70 48.27 55.51 44.12 53.13 C 39.90 51.19 38.47 45.34 41.14 41.56 Z" />
<path fill="#dbb9d3" opacity="1.00" d=" M 25.16 48.95 C 29.18 47.17 33.98 51.45 32.80 55.66 C 32.21 60.16 25.65 61.87 22.95 58.23 C 19.79 55.65 21.38 49.97 25.16 48.95 Z" />
</g>
</svg>
