<?xml version="1.0" encoding="UTF-8" ?>
<!DOCTYPE svg PUBLIC "-//W3C//DTD SVG 1.1//EN" "http://www.w3.org/Graphics/SVG/1.1/DTD/svg11.dtd">
<svg width="64pt" height="64pt" viewBox="0 0 64 64" version="1.1" xmlns="http://www.w3.org/2000/svg">
<g id="#010101ff">
<path fill="#010101" opacity="1.00" d=" M 7.48 7.93 C 7.49 6.72 7.32 4.51 9.11 4.56 C 24.35 4.41 39.60 4.50 54.85 4.54 C 55.42 6.64 55.61 8.83 55.54 11.01 C 55.40 19.66 55.63 28.32 55.44 36.97 C 55.61 38.24 54.27 39.23 53.08 39.02 C 41.49 38.93 29.89 38.97 18.30 38.96 C 18.28 45.50 18.51 52.06 18.20 58.59 C 18.15 60.03 16.10 59.71 15.13 59.95 C 12.60 60.18 10.06 59.91 7.57 59.49 C 7.39 42.30 7.56 25.12 7.48 7.93 M 9.77 6.69 C 9.51 23.68 9.83 40.67 9.61 57.67 C 11.75 57.66 13.88 57.68 16.01 57.69 C 16.04 50.70 15.87 43.71 15.94 36.71 C 20.12 36.71 24.31 36.71 28.49 36.72 C 28.49 33.50 28.51 30.28 28.41 27.07 C 24.25 27.05 20.08 27.06 15.92 27.05 C 16.07 23.54 16.05 20.03 15.93 16.52 C 20.11 16.50 24.29 16.48 28.47 16.47 C 28.49 13.21 28.49 9.95 28.46 6.69 C 22.23 6.69 16.00 6.69 9.77 6.69 M 41.07 6.67 C 40.92 9.94 40.93 13.21 40.93 16.48 C 45.06 16.48 49.18 16.50 53.31 16.46 C 53.31 13.22 53.33 9.99 53.29 6.75 C 49.21 6.65 45.14 6.70 41.07 6.67 M 28.72 16.71 C 28.74 20.04 28.77 23.37 28.56 26.70 C 32.62 26.68 36.68 26.63 40.74 26.77 C 40.65 23.42 40.72 20.07 40.72 16.72 C 36.72 16.76 32.72 16.73 28.72 16.71 M 40.96 27.06 C 40.93 30.28 40.93 33.49 40.97 36.71 C 45.09 36.71 49.20 36.73 53.32 36.68 C 53.31 33.48 53.31 30.29 53.32 27.09 C 49.20 27.04 45.08 27.06 40.96 27.06 Z" />
</g>
<g id="#fefefeff">
<path fill="#fefefe" opacity="1.00" d=" M 9.77 6.69 C 16.00 6.69 22.23 6.69 28.46 6.69 C 28.49 9.95 28.49 13.21 28.47 16.47 C 24.29 16.48 20.11 16.50 15.93 16.52 C 16.05 20.03 16.07 23.54 15.92 27.05 C 20.08 27.06 24.25 27.05 28.41 27.07 C 28.51 30.28 28.49 33.50 28.49 36.72 C 24.31 36.71 20.12 36.71 15.94 36.71 C 15.87 43.71 16.04 50.70 16.01 57.69 C 13.88 57.68 11.75 57.66 9.61 57.67 C 9.83 40.67 9.51 23.68 9.77 6.69 Z" />
<path fill="#fefefe" opacity="1.00" d=" M 41.07 6.67 C 45.14 6.70 49.21 6.65 53.29 6.75 C 53.33 9.99 53.31 13.22 53.31 16.46 C 49.18 16.50 45.06 16.48 40.93 16.48 C 40.93 13.21 40.92 9.94 41.07 6.67 Z" />
<path fill="#fefefe" opacity="1.00" d=" M 28.72 16.71 C 32.72 16.73 36.72 16.76 40.72 16.72 C 40.72 20.07 40.65 23.42 40.74 26.77 C 36.68 26.63 32.62 26.68 28.56 26.70 C 28.77 23.37 28.74 20.04 28.72 16.71 Z" />
<path fill="#fefefe" opacity="1.00" d=" M 40.96 27.06 C 45.08 27.06 49.20 27.04 53.32 27.09 C 53.31 30.29 53.31 33.48 53.32 36.68 C 49.20 36.73 45.09 36.71 40.97 36.71 C 40.93 33.49 40.93 30.28 40.96 27.06 Z" />
</g>
</svg>
