<?xml version="1.0" encoding="UTF-8" ?>
<!DOCTYPE svg PUBLIC "-//W3C//DTD SVG 1.1//EN" "http://www.w3.org/Graphics/SVG/1.1/DTD/svg11.dtd">
<svg width="64pt" height="64pt" viewBox="0 0 64 64" version="1.1" xmlns="http://www.w3.org/2000/svg">
<g id="#040504fc">
<path fill="#040504" opacity="1.00" d=" M 5.02 8.04 C 5.79 3.35 13.26 7.46 16.00 5.98 C 19.46 3.82 21.08 6.38 22.67 8.30 C 25.08 13.74 26.46 19.58 28.85 25.04 C 30.65 27.57 29.32 32.69 32.80 33.98 C 37.13 25.13 36.83 13.89 43.22 6.15 L 48.00 5.98 C 50.74 7.46 58.20 3.36 58.99 8.04 C 59.02 24.68 59.00 41.32 58.99 57.97 C 55.52 56.89 47.76 60.08 46.00 57.01 C 46.00 52.96 46.02 48.91 46.05 44.86 C 46.45 42.78 46.45 36.97 44.32 39.75 C 42.07 45.76 40.52 52.05 37.73 57.84 C 33.55 57.98 29.35 58.22 25.18 57.92 C 24.84 52.24 21.88 47.17 20.33 41.75 C 20.18 40.41 19.42 39.79 18.05 39.89 C 17.93 45.59 17.98 51.29 17.99 56.99 L 17.97 57.97 C 13.65 57.99 9.32 58.18 5.01 57.94 C 5.02 41.31 4.96 24.68 5.02 8.04 M 6.07 8.05 C 5.89 24.02 6.01 40.00 6.04 55.98 C 8.53 55.99 13.52 56.00 16.01 56.01 L 15.96 55.05 C 16.06 45.97 16.04 36.88 15.98 27.80 C 19.94 26.99 18.02 32.53 19.87 32.92 C 20.86 37.95 23.53 42.56 24.49 47.64 C 26.54 49.60 25.97 53.88 28.10 54.98 L 27.99 55.94 C 30.33 55.53 35.33 57.23 35.91 54.98 L 36.76 54.91 C 38.34 46.87 43.48 39.83 44.22 31.66 C 46.16 30.02 45.54 25.71 47.86 23.84 C 47.98 25.51 47.97 27.18 48.14 28.85 C 47.75 37.57 48.04 46.31 48.04 55.04 C 50.52 55.28 55.47 55.75 57.95 55.98 C 58.03 40.38 58.09 24.78 57.90 9.18 C 57.43 8.88 56.47 8.27 56.00 7.97 C 51.99 7.90 47.99 7.93 43.98 8.05 L 44.06 9.03 L 43.19 9.11 C 41.32 13.70 40.25 18.57 39.46 23.46 C 37.35 25.77 36.65 29.14 36.10 32.15 C 34.41 34.79 34.09 38.06 32.82 40.91 C 29.48 39.21 30.65 33.32 28.11 30.98 C 25.83 23.65 23.36 16.36 20.77 9.12 L 19.92 9.04 C 19.23 5.63 10.69 9.33 7.95 7.95 C 7.48 7.97 6.54 8.02 6.07 8.05 Z" />
</g>
<g id="#010101be">
<path fill="#010101" opacity="0.75" d=" M 4.04 7.99 L 5.02 8.04 C 4.96 24.68 5.02 41.31 5.01 57.94 L 4.03 58.02 C 3.97 41.35 3.96 24.67 4.04 7.99 Z" />
<path fill="#010101" opacity="0.75" d=" M 58.99 8.04 L 59.96 7.99 C 60.04 24.66 60.03 41.34 59.97 58.01 L 58.99 57.97 C 59.00 41.32 59.02 24.68 58.99 8.04 Z" />
</g>
<g id="#8b8b8bff">
<path fill="#8b8b8b" opacity="1.00" d=" M 6.07 8.05 C 6.54 8.02 7.48 7.97 7.95 7.95 L 7.70 8.79 C 7.37 9.73 7.22 10.71 7.26 11.71 C 6.86 25.74 6.88 39.78 7.10 53.81 C 9.25 56.31 13.06 54.56 15.96 55.05 L 16.01 56.01 C 13.52 56.00 8.53 55.99 6.04 55.98 C 6.01 40.00 5.89 24.02 6.07 8.05 Z" />
<path fill="#8b8b8b" opacity="1.00" d=" M 56.00 7.97 C 56.47 8.27 57.43 8.88 57.90 9.18 C 58.09 24.78 58.03 40.38 57.95 55.98 C 55.47 55.75 50.52 55.28 48.04 55.04 C 50.88 54.52 54.83 56.30 56.85 53.74 C 57.08 39.76 57.26 25.76 56.72 11.79 C 56.63 10.81 56.45 9.85 56.19 8.90 L 56.00 7.97 Z" />
<path fill="#8b8b8b" opacity="1.00" d=" M 28.10 54.98 C 30.70 54.99 33.30 54.99 35.91 54.98 C 35.33 57.23 30.33 55.53 27.99 55.94 L 28.10 54.98 Z" />
</g>
<g id="#d0d0d0ff">
<path fill="#d0d0d0" opacity="1.00" d=" M 7.95 7.95 C 10.69 9.33 19.23 5.63 19.92 9.04 C 15.85 8.98 11.78 8.89 7.70 8.79 L 7.95 7.95 Z" />
<path fill="#d0d0d0" opacity="1.00" d=" M 43.98 8.05 C 47.99 7.93 51.99 7.90 56.00 7.97 L 56.19 8.90 C 52.15 8.95 48.10 8.99 44.06 9.03 L 43.98 8.05 Z" />
<path fill="#d0d0d0" opacity="1.00" d=" M 7.26 11.71 C 9.03 17.88 7.47 24.45 8.15 30.75 C 9.99 31.28 11.83 31.97 13.77 31.96 C 14.57 30.61 15.15 29.14 15.98 27.80 C 16.04 36.88 16.06 45.97 15.96 55.05 C 13.06 54.56 9.25 56.31 7.10 53.81 C 6.88 39.78 6.86 25.74 7.26 11.71 Z" />
<path fill="#d0d0d0" opacity="1.00" d=" M 55.85 31.72 C 56.11 25.07 55.86 18.40 56.72 11.79 C 57.26 25.76 57.08 39.76 56.85 53.74 C 54.83 56.30 50.88 54.52 48.04 55.04 C 48.04 46.31 47.75 37.57 48.14 28.85 C 49.29 32.50 52.80 31.85 55.85 31.72 Z" />
<path fill="#d0d0d0" opacity="1.00" d=" M 19.87 32.92 C 19.82 27.49 28.37 36.23 28.11 30.98 C 30.65 33.32 29.48 39.21 32.82 40.91 C 34.09 38.06 34.41 34.79 36.10 32.15 C 38.82 32.62 41.51 31.84 44.22 31.66 C 43.48 39.83 38.34 46.87 36.76 54.91 L 35.91 54.98 C 33.30 54.99 30.70 54.99 28.10 54.98 C 25.97 53.88 26.54 49.60 24.49 47.64 C 23.53 42.56 20.86 37.95 19.87 32.92 Z" />
</g>
<g id="#f1f1f1ff">
<path fill="#f1f1f1" opacity="1.00" d=" M 7.26 11.71 C 7.22 10.71 7.37 9.73 7.70 8.79 C 11.78 8.89 15.85 8.98 19.92 9.04 L 20.77 9.12 C 23.36 16.36 25.83 23.65 28.11 30.98 C 28.37 36.23 19.82 27.49 19.87 32.92 C 18.02 32.53 19.94 26.99 15.98 27.80 C 15.15 29.14 14.57 30.61 13.77 31.96 C 11.83 31.97 9.99 31.28 8.15 30.75 C 7.47 24.45 9.03 17.88 7.26 11.71 Z" />
<path fill="#f1f1f1" opacity="1.00" d=" M 43.19 9.11 L 44.06 9.03 C 48.10 8.99 52.15 8.95 56.19 8.90 C 56.45 9.85 56.63 10.81 56.72 11.79 C 55.86 18.40 56.11 25.07 55.85 31.72 C 52.80 31.85 49.29 32.50 48.14 28.85 C 47.97 27.18 47.98 25.51 47.86 23.84 C 45.54 25.71 46.16 30.02 44.22 31.66 C 41.51 31.84 38.82 32.62 36.10 32.15 C 36.65 29.14 37.35 25.77 39.46 23.46 C 40.25 18.57 41.32 13.70 43.19 9.11 Z" />
</g>
<g id="#00000033">
<path fill="#000000" opacity="0.20" d=" M 44.32 39.75 C 46.45 36.97 46.45 42.78 46.05 44.86 L 45.44 44.94 C 44.33 43.43 45.17 41.38 44.32 39.75 Z" />
</g>
<g id="#0101015e">
<path fill="#010101" opacity="0.37" d=" M 18.05 39.89 C 19.42 39.79 20.18 40.41 20.33 41.75 C 18.48 46.60 19.25 51.90 18.94 56.98 L 17.99 56.99 C 17.98 51.29 17.93 45.59 18.05 39.89 Z" />
<path fill="#010101" opacity="0.37" d=" M 45.44 44.94 L 46.05 44.86 C 46.02 48.91 46.00 52.96 46.00 57.01 C 43.47 54.42 43.73 48.61 45.44 44.94 Z" />
</g>
</svg>
