<?xml version="1.0" encoding="UTF-8" ?>
<!DOCTYPE svg PUBLIC "-//W3C//DTD SVG 1.1//EN" "http://www.w3.org/Graphics/SVG/1.1/DTD/svg11.dtd">
<svg width="64pt" height="64pt" viewBox="0 0 64 64" version="1.1" xmlns="http://www.w3.org/2000/svg">
<g id="#010101ff">
<path fill="#010101" opacity="1.00" d=" M 21.35 13.26 C 25.55 11.53 29.97 13.48 33.90 15.02 C 39.29 17.01 46.05 16.20 50.15 20.85 C 55.70 26.45 54.73 36.73 48.25 41.21 C 44.84 43.98 40.27 43.73 36.16 43.38 C 33.86 47.53 29.99 51.22 24.98 51.32 C 17.01 52.39 9.27 45.00 10.26 36.94 C 10.02 30.88 16.29 27.62 17.45 22.01 C 18.50 19.05 18.27 15.03 21.35 13.26 M 22.28 15.39 C 20.25 17.86 20.47 21.54 19.52 24.51 C 18.04 26.73 16.75 29.08 14.89 31.02 C 10.18 36.25 12.71 45.58 19.17 48.12 C 23.67 50.31 28.95 48.58 32.37 45.24 C 32.56 44.71 32.93 43.66 33.12 43.13 C 32.26 42.50 31.40 41.86 30.55 41.22 C 28.97 42.75 27.53 44.90 25.07 44.89 C 20.51 45.96 15.64 41.65 16.53 36.96 C 16.71 32.47 21.33 30.24 25.37 30.49 C 25.73 28.57 26.19 26.68 26.80 24.83 C 26.19 23.90 25.59 22.96 25.01 22.01 C 25.96 20.46 28.41 19.14 27.21 16.94 C 28.56 16.96 29.91 16.75 31.12 16.13 C 28.34 15.14 25.17 14.79 22.28 15.39 M 29.63 21.26 L 28.91 20.05 C 28.44 20.82 27.97 21.59 27.50 22.37 L 28.74 22.59 C 28.45 23.13 27.87 24.22 27.58 24.77 C 29.05 27.24 28.90 30.16 29.47 32.88 C 30.67 37.60 35.11 41.18 39.96 41.49 C 46.04 41.73 51.80 36.18 51.53 30.04 C 51.48 24.45 46.79 19.18 41.09 19.08 C 38.24 19.22 35.70 16.96 32.87 17.94 C 31.19 18.27 30.57 20.08 29.63 21.26 Z" />
<path fill="#010101" opacity="1.00" d=" M 22.86 16.79 C 23.45 16.67 24.62 16.41 25.21 16.29 C 25.17 17.46 25.95 18.91 25.02 19.89 C 24.07 19.69 23.14 19.46 22.21 19.20 C 22.37 18.60 22.70 17.40 22.86 16.79 Z" />
<path fill="#010101" opacity="1.00" d=" M 20.63 23.60 C 21.36 22.50 22.11 21.40 22.89 20.33 C 23.40 21.54 23.89 22.76 24.37 23.98 C 23.44 23.89 21.56 23.70 20.63 23.60 Z" />
<path fill="#010101" opacity="1.00" d=" M 34.89 24.91 C 37.85 22.90 42.32 22.04 45.09 24.83 C 49.27 27.93 47.88 35.67 42.78 36.96 C 38.84 38.55 33.63 35.88 33.21 31.54 C 32.48 29.16 34.10 27.03 34.89 24.91 Z" />
</g>
<g id="#fafbfaff">
<path fill="#fafbfa" opacity="1.00" d=" M 22.28 15.39 C 25.17 14.79 28.34 15.14 31.12 16.13 C 29.91 16.75 28.56 16.96 27.21 16.94 C 28.41 19.14 25.96 20.46 25.01 22.01 C 25.59 22.96 26.19 23.90 26.80 24.83 C 26.19 26.68 25.73 28.57 25.37 30.49 C 21.33 30.24 16.71 32.47 16.53 36.96 C 15.64 41.65 20.51 45.96 25.07 44.89 C 27.53 44.90 28.97 42.75 30.55 41.22 C 31.40 41.86 32.26 42.50 33.12 43.13 C 32.93 43.66 32.56 44.71 32.37 45.24 C 28.95 48.58 23.67 50.31 19.17 48.12 C 12.71 45.58 10.18 36.25 14.89 31.02 C 16.75 29.08 18.04 26.73 19.52 24.51 C 20.47 21.54 20.25 17.86 22.28 15.39 M 22.86 16.79 C 22.70 17.40 22.37 18.60 22.21 19.20 C 23.14 19.46 24.07 19.69 25.02 19.89 C 25.95 18.91 25.17 17.46 25.21 16.29 C 24.62 16.41 23.45 16.67 22.86 16.79 M 20.63 23.60 C 21.56 23.70 23.44 23.89 24.37 23.98 C 23.89 22.76 23.40 21.54 22.89 20.33 C 22.11 21.40 21.36 22.50 20.63 23.60 Z" />
<path fill="#fafbfa" opacity="1.00" d=" M 29.63 21.26 C 30.57 20.08 31.19 18.27 32.87 17.94 C 35.70 16.96 38.24 19.22 41.09 19.08 C 46.79 19.18 51.48 24.45 51.53 30.04 C 51.80 36.18 46.04 41.73 39.96 41.49 C 35.11 41.18 30.67 37.60 29.47 32.88 C 28.90 30.16 29.05 27.24 27.58 24.77 C 27.87 24.22 28.45 23.13 28.74 22.59 L 27.50 22.37 C 27.97 21.59 28.44 20.82 28.91 20.05 L 29.63 21.26 M 34.89 24.91 C 34.10 27.03 32.48 29.16 33.21 31.54 C 33.63 35.88 38.84 38.55 42.78 36.96 C 47.88 35.67 49.27 27.93 45.09 24.83 C 42.32 22.04 37.85 22.90 34.89 24.91 Z" />
</g>
</svg>
